<svg viewBox="115.79999999999995 297.3151260504203 2055.45 1096.890756302521" xmlns="http://www.w3.org/2000/svg" xmlns:xlink="http://www.w3.org/1999/xlink" overflow="visible" width="2055.45px" height="1096.890756302521px"><defs><path d="M80,385 C80,385 133.5,285 154.5,231.5 C154.5,231.5 233.205,271.703 375.412,233.416 L369.367,160.873 C369.367,160.873 459,240 509,223.5 C566.794,204.428 577.076,28.041 572.5,9 C548.5,3.5 499,0.5 499,0.5 L472,118.5 C415.5,75.5 350.009,44.425 306.387,38.869 C248.555,31.502 220.627,32.5 170.019,55.605 C126.856,75.311 0,330 0,330" id="masterholidays-scenestogether-path-1"/><path d="M36.045,55.449 C39.69,41.845 53.673,33.773 67.276,37.418 C80.88,41.063 88.953,55.045 85.308,68.649 L51.34,195.419 L88.61,195.419 L120.081,77.966 C128.872,45.158 109.402,11.435 76.594,2.644 C43.786,-6.147 10.063,13.323 1.272,46.131 C-1.301,55.734 4.398,65.604 14,68.177 C23.602,70.75 33.472,65.051 36.045,55.449 Z" id="masterholidays-scenestogether-path-3"/><path d="M119.839,73.265 C116.769,50.933 96.176,35.319 73.845,38.39 C51.514,41.461 35.8999,62.053 38.9705,84.384 L66.888,287.419 L28.5308,287.419 L1.3248,89.561 C-4.6047,46.438 25.5462,6.674 68.669,0.744 C111.791,-5.185 151.556,24.966 157.485,68.088 C158.914,78.484 151.646,88.07 141.25,89.499 C130.855,90.929 121.269,83.66 119.839,73.265 Z" id="masterholidays-scenestogether-path-5"/><rect id="masterholidays-scenestogether-path-7" x="0" y="0" width="400" height="181"/></defs><g id="Master/Holidays Scenes/Together" stroke="none" stroke-width="1" fill="none" fill-rule="evenodd"><g id="Background/Ground" transform="translate(888.000000, -51.000000) scale(1 1)"><g id="Background/Ground/Small Tree" stroke="none" stroke-width="1" fill="none" fill-rule="evenodd"><g id="Small-Tree" transform="translate(261.000000, 352.000000)"><path d="M194.376286,8.11316805 C158.055786,19.704971 127.392147,44.3461815 107.100412,76.4766 C44.4942433,175.615411 -112.65071,477.706434 134.452814,694.59958 C434.008708,957.530547 564.905665,379.08242 486.871512,193.779255 C430.574539,60.0958065 307.333081,-27.9344397 194.376286,8.11316805" id="Fill-3" fill="#E3D4C5"/><path d="M257.5,233 C263.851275,233 269,238.080598 269,244.347832 L269,447.742 L369.06987,356.937816 C373.694806,352.741075 380.852405,353.081356 385.056815,357.697856 C389.261226,362.314356 388.920322,369.4589 384.295386,373.655641 L269,478.276 L269,1061.65217 C269,1067.9194 263.851275,1073 257.5,1073 C251.148725,1073 246,1067.9194 246,1061.65217 L246,644.151 L56.8895587,478.936723 C52.1671681,474.811059 51.6763582,467.630186 55.793304,462.897795 C59.9102499,458.165404 67.0759478,457.673555 71.7983384,461.799219 L143.42,524.37 L145.429497,423.141418 C145.554119,416.863932 150.70721,411.876787 156.939246,412.002319 C163.171283,412.12785 168.122321,417.318521 167.997698,423.596007 L165.612,543.758 L246,613.989 L246,395.089 L125.603054,282.645646 C121.023845,278.368948 120.77641,271.18746 125.050394,266.605342 C129.324377,262.023225 136.501307,261.775633 141.080517,266.052331 L246,364.041 L246,244.347832 C246,238.080598 251.148725,233 257.5,233 Z" id="Combined-Shape" fill="#FFF5EE"/></g></g></g><g id="Background/Sky" transform="translate(596.000000, 977.000000) scale(1 1)"><g id="Background/Sky/Small Cloud 3" stroke="none" stroke-width="1" fill="none" fill-rule="evenodd"><path d="M4.54747351e-13,353 L208.298705,353 C208.298705,353 220.507266,246.275322 143.047319,265.263372 C92.4153133,277.674476 100.383441,322.919416 100.383441,322.919416 C100.383441,322.919416 72.2991348,296.080384 42.1829878,306.107245 C12.0684332,316.134106 4.54747351e-13,353 4.54747351e-13,353" id="Fill-1" fill="#E3D4C5"/><path d="M173,397 L469,397 C469,397 419.932734,283.029042 369.257812,332.965996 C369.257812,332.965996 333.786491,235.585767 262.840636,250.566853 C191.896388,265.547939 173,397 173,397" id="Fill-30" fill="#FFF5EE"/></g></g><g id="Background/Sky" transform="translate(523.000000, 605.000000) scale(1 1)"><g id="Background/Sky/Small Cloud 2" stroke="none" stroke-width="1" fill="none" fill-rule="evenodd"><path d="M17.0528141,397 L452.730089,395.427225 C459.678916,395.402669 466.062714,391.136961 468.266326,384.573153 C471.741767,374.218401 464.86588,359.422975 403.486287,354.145326 C403.486287,354.145326 374.29279,226.637606 258.792684,244.764561 C238.835866,247.896567 220.051227,256.997903 226.590151,320.500568 C226.590151,320.500568 166.471086,289.694157 104.348737,314.117866 C42.2243337,338.541574 56.5678468,366.091149 56.5678468,366.091149 C56.5678468,366.091149 -10.6818816,364.698578 1.46829232,387.89752 C4.46191767,393.613097 10.5796386,397.023413 17.0528141,397" id="Fill-22" fill="#E3D4C5"/></g></g><g transform="translate(362.000000, 378.000000) scale(1 1)" id="Master/Holidays Character/Standing"><g id="Master/Holidays Character/Standing" stroke="none" stroke-width="1" fill="none" fill-rule="evenodd"><g id="Holidays Bottom/Standing" transform="translate(0.000000, 443.000000) scale(1 1)"><g id="Holidays Bottom/Standing/Skating" stroke="none" stroke-width="1" fill="none" fill-rule="evenodd"><g id="Ice-Skating" transform="translate(221.000000, -3.000000)"><g id="Skating" transform="translate(16.000000, 0.000000)"><path d="M357.693,478.223 C349.737,474.194 344.191,466.631 342.788,457.849 L331.693,384.036 C300.671,391.328 269.539,394.246 239.471,394.194 L255.399,505.299 C256.418,512.401 262.589,517.635 269.788,517.501 L394.683,515.182 C391.337,497.955 371.238,485.082 357.693,478.223 Z" id="Fill-1" fill="#94C0E9"/><path d="M0.399,479.198 C-1.259,485.538 2.394,492.054 8.682,493.971 L125.405,529.559 C125.948,511.716 113.542,496.638 102.726,486.942 C93.748,478.895 90.742,466.135 95.071,454.901 L126.541,373.24 C88.761,364.944 56.999,354.21 35.275,345.846 L0.399,479.198 Z" id="Fill-3" fill="#94C0E9"/><g id="Skirt" transform="translate(3.000000, 0.000000)" fill="#F3705A"><path d="M95.539,0 C95.539,0 75.981,0 54.233,85.6104 C54.233,85.6104 35.579,240.954 0.935,340.532 C0.935,340.532 166.725,422.404 329.283,383.901 C329.283,383.901 275.419,98.2514 259.43,0 L95.539,0 Z" id="Skirt_2"/></g><g id="Roller-2" transform="translate(245.000000, 404.000000)"><path d="M24.788,113.501 L149.684,111.182 C146.337,93.955 126.239,81.082 112.693,74.223 C104.738,70.194 99.191,62.631 97.788,53.849 L92.13,16.202 C88.866,8.88 82.955,1.014 72.568,0.691 C52.975,0.081 49.301,45.84 49.301,45.84 C24.945,10.784 8.059,24.862 0.853,34.708 L10.399,101.299 C11.418,108.401 17.589,113.635 24.788,113.501 Z" id="Fill-8" fill="#3973B0"/><path d="M98.555,56.242 C98.478,56.24 98.372,56.236 98.238,56.231 C97.922,56.218 97.556,56.199 97.145,56.173 C95.975,56.097 94.673,55.977 93.272,55.802 C89.264,55.302 85.255,54.464 81.503,53.204 C71.345,49.793 64.87,43.954 64.069,35.113 C63.581,29.731 65.914,27.588 70.119,29.044 C73.205,30.113 77.399,33.093 82.492,37.592 C83.928,38.861 85.418,40.237 86.951,41.702 C89.898,44.522 92.863,47.54 95.701,50.558 C96.59,51.503 97.409,52.387 98.145,53.194 C98.434,52.081 98.764,50.858 99.13,49.549 C100.275,45.455 101.545,41.361 102.906,37.535 C106.415,27.678 109.854,21.333 113.386,19.836 C115.503,18.939 117.52,19.792 119.184,22.268 C121.425,25.602 121.556,29.481 119.896,33.707 C118.21,38.003 114.748,42.524 110.036,47.11 C107.671,49.411 105.141,51.581 102.611,53.556 C101.725,54.247 100.902,54.865 100.163,55.401 C99.903,55.589 99.673,55.754 99.473,55.895 C99.393,55.951 99.328,55.996 99.281,56.029 C99.19,56.102 99.086,56.159 98.969,56.196 C98.831,56.243 98.69,56.257 98.555,56.242 Z M94.242,51.921 C91.426,48.927 88.485,45.933 85.566,43.14 C84.052,41.692 82.581,40.334 81.165,39.083 C76.26,34.75 72.226,31.884 69.463,30.927 C66.717,29.976 65.696,30.913 66.061,34.934 C66.776,42.829 72.654,48.129 82.141,51.315 C85.754,52.528 89.636,53.34 93.52,53.825 C94.493,53.946 95.417,54.04 96.278,54.111 C95.651,53.428 94.97,52.695 94.242,51.921 Z M101.378,51.987 C103.854,50.054 106.33,47.931 108.639,45.684 C113.166,41.279 116.471,36.961 118.034,32.981 C119.472,29.319 119.364,26.117 117.522,23.378 C116.349,21.631 115.304,21.189 114.169,21.67 C111.394,22.846 108.081,28.958 104.791,38.202 C103.447,41.979 102.19,46.031 101.056,50.084 C100.789,51.04 100.541,51.951 100.315,52.804 C100.657,52.545 101.012,52.272 101.378,51.987 Z M108.336,72.522 C108.884,72.652 109.423,72.321 109.551,71.786 C109.678,71.253 109.351,70.719 108.819,70.588 C95.944,67.534 82.215,68.787 68.947,72.722 C66.135,73.556 63.574,74.45 61.311,75.344 C60.65,75.606 60.054,75.852 59.527,76.078 L50.258,45.551 C50.098,45.024 49.54,44.726 49.011,44.886 C48.483,45.045 48.184,45.601 48.344,46.128 L57.941,77.738 C58.118,78.321 58.775,78.611 59.328,78.349 C59.443,78.294 59.676,78.188 60.02,78.037 C60.599,77.784 61.278,77.502 62.049,77.197 C64.258,76.323 66.764,75.449 69.517,74.632 C82.479,70.788 95.874,69.566 108.346,72.524 L108.336,72.522 Z" id="Combined-Shape" fill="#94C0E9"/></g><g id="Roller-1" transform="translate(0.000000, 394.000000)"><path d="M8.682,99.971 L125.405,135.559 C125.948,117.716 113.542,102.638 102.726,92.942 C93.748,84.895 90.743,72.134 95.071,60.901 L109.894,22.437 C109.278,13.702 106.158,5.215 97.142,2.081 C70.814,-7.072 53.057,42.959 53.057,42.959 C53.057,42.959 50.608,16.724 40.199,10.013 C34.073,6.063 25.179,11.273 18.249,16.95 L0.399,85.198 C-1.259,91.538 2.394,98.054 8.682,99.971 Z" id="Fill-11" fill="#3973B0"/><path d="M91.781,68.78 C91.708,68.668 91.577,68.46 91.395,68.161 C91.094,67.668 90.76,67.098 90.4,66.46 C89.375,64.639 88.349,62.626 87.392,60.476 C85.135,55.404 83.605,50.374 83.139,45.643 C82.445,38.603 84.172,32.737 88.867,28.556 C92.543,25.281 95.465,25.696 96.785,29.443 C97.752,32.187 97.917,36.783 97.449,42.922 C97.083,47.712 96.348,53.202 95.37,58.996 C95.013,61.115 94.642,63.158 94.273,65.075 C94.23,65.299 94.188,65.515 94.148,65.725 C95.518,64.744 97.024,63.694 98.633,62.607 C103.287,59.46 107.951,56.568 112.345,54.205 C118.008,51.16 122.825,49.21 126.559,48.635 C131.282,47.907 134.374,49.439 135.031,53.512 C136.201,60.775 128.377,65.09 114.751,67.366 C110.088,68.144 105.025,68.627 99.896,68.874 C98.076,68.962 96.369,69.014 94.814,69.038 C94.167,69.048 93.626,69.052 93.201,69.052 C92.77,69.354 92.116,69.296 91.781,68.78 Z M93.398,58.665 C93.043,60.769 92.675,62.797 92.309,64.7 C92.256,64.978 92.204,65.245 92.154,65.501 L92.144,65.484 C91.148,63.715 90.151,61.757 89.221,59.668 C87.043,54.775 85.572,49.938 85.129,45.449 C84.493,38.99 86.036,33.75 90.2,30.042 C92.892,27.644 94.092,27.815 94.898,30.103 C95.745,32.507 95.903,36.896 95.454,42.77 C95.094,47.492 94.367,52.926 93.398,58.665 Z M99.799,66.884 C104.855,66.639 109.844,66.164 114.42,65.4 C127,63.3 133.963,59.459 133.056,53.828 C132.602,51.01 130.617,50.026 126.865,50.604 C123.408,51.137 118.774,53.013 113.295,55.959 C108.968,58.285 104.359,61.144 99.755,64.256 C98.334,65.217 96.993,66.148 95.758,67.027 C97.021,66.999 98.375,66.953 99.799,66.884 Z M59.526,72.89 C57.077,72.485 54.802,72.171 52.759,71.937 C52.183,71.871 51.66,71.815 51.191,71.769 L54.052,43.058 C54.107,42.51 53.706,42.022 53.156,41.968 C52.607,41.913 52.117,42.313 52.062,42.861 L49.101,72.572 C49.046,73.129 49.461,73.622 50.02,73.664 C50.13,73.673 50.349,73.691 50.668,73.721 C51.205,73.772 51.828,73.836 52.53,73.917 C54.541,74.147 56.783,74.456 59.198,74.856 C66.096,75.998 72.993,77.634 79.421,79.849 C87.891,82.768 94.887,86.475 99.901,91.044 C100.309,91.416 100.942,91.387 101.314,90.981 C101.687,90.575 101.659,89.945 101.251,89.574 C96.006,84.795 88.781,80.965 80.074,77.965 C73.53,75.71 66.527,74.05 59.526,72.89 Z" id="Combined-Shape_2" fill="#94C0E9"/></g></g><g id="Group-23" transform="translate(276.000000, 516.000000)" fill="#000"><rect id="Rectangle-7" fill-rule="nonzero" x="21" y="1" width="12" height="17"/><rect id="Rectangle-8" fill-rule="nonzero" x="94" y="0" width="12" height="17"/><path d="M137.973,23.392 C132.641,24.325 126.928,24.819 123.262,24.993 L123.131,25 L0,25 L0,14 L122.867,14 C126.206,13.835 131.37,13.38 136.077,12.557 C138.468,12.139 140.604,11.649 142.271,11.103 C143.8,10.603 155.355,8.089 155.5,8 C155.533,7.98 155.513,7.986 155.5,8 C156.398,9.858 156.113,12.161 154.869,13.808 C153.028,16.247 150.33,19.475 145.691,21.558 C143.333,22.33 140.632,22.927 137.973,23.392 Z" id="Vector-98-(Stroke)"/></g><g id="Group-22" transform="translate(0.000000, 494.000000)" fill="#000"><rect id="Rectangle-7_2" fill-rule="nonzero" transform="translate(31.091255, 10.417874) rotate(17.829500) translate(-31.091255, -10.417874)" x="25.091" y="1.918" width="12" height="17"/><rect id="Rectangle-8_2" fill-rule="nonzero" transform="translate(100.891255, 31.816874) rotate(17.829500) translate(-100.891255, -31.816874)" x="94.891" y="23.317" width="12" height="17"/><path d="M132.481,57.621 C127.119,56.876 121.53,55.597 117.986,54.641 L117.86,54.607 L0.643,16.906 L4.011,6.434 L120.977,44.054 C124.205,44.92 129.261,46.068 133.994,46.726 C136.398,47.059 138.582,47.247 140.336,47.238 C141.944,47.23 153.714,48.375 153.879,48.334 C153.917,48.325 153.896,48.326 153.879,48.334 C154.165,50.378 153.188,52.483 151.5,53.671 C149.001,55.428 145.444,57.675 140.39,58.2384682 C137.909,58.251 135.155,57.992 132.481,57.621 Z" id="Vector-98-(Stroke)_2"/></g></g></g></g><g id="Holidays Head" transform="translate(268.000000, 82.000000) scale(1 1)"><g id="Holidays Head/Elf Hat" stroke="none" stroke-width="1" fill="none" fill-rule="evenodd"><g id="Group-6" transform="translate(11.000000, -5.000000)"><path d="M97.706,55.4370231 C66.152,55.4370231 40.5728,78.1970231 40.5728,106.277023 C40.5728,110.957023 41.296,115.497023 42.6341,119.807023 L15.5001,88.8770231 C14.5001,114.377023 23.0001,135.377023 31.4999,142.877023 C31.4999,142.877023 35.5001,147.377023 42.0001,147.377023 C48.5,147.377023 55,142.877023 55,142.877023 L54.962,142.717023 C55.933,142.097023 57.204,142.127023 58.113,142.907023 C65.833,149.517023 75.63,154.217023 86.554,156.137023 C87.958,156.387023 88.95,157.657023 88.868,159.077023 L87.308,186.877023 L113.747,186.877023 L112.523,164.937023 C112.226,159.757023 115.263,154.897023 120.12,153.047023 C140.533,145.297023 154.839,127.267023 154.839,106.277023 C154.839,78.1970231 129.26,55.4370231 97.706,55.4370231 Z" id="Path" fill="#c68e80"/><path d="M126.425,41.4070231 C45.199,35.2270231 37.6951,84.6770231 37.6951,84.6770231 C37.6951,84.6770231 33.9181,105.537023 43.9731,122.697023 C45.092,124.607023 46.057,126.017023 46.892,127.037023 L49.178,130.437023 C50.365,132.207023 52.384,133.227023 54.511,133.147023 L58.01,133.017023 C60.217,132.817023 61.702,130.667023 61.111,128.527023 L57.057,113.907023 C65.154,104.957023 65.637,82.0170231 65.637,82.0170231 C68.436,83.4170231 71.88,84.4970231 75.734,85.3070231 C113.404,96.5370231 140.071,92.6070231 153.516,88.7970231 C161.543,86.5270231 168.524,81.3370231 172.587,74.0570231 C179.049,62.4670231 178.883,45.4070231 126.425,41.4070231 Z" id="Path" fill="#F2B08F"/><path d="M149.5,44.3770231 L40,114.877023 L16.5,17.8770231 C35.3,16.6770231 111.833,24.8770231 149.5,44.3770231 Z" id="Path" fill="#2F6858" fill-rule="nonzero"/><circle id="Oval" fill="#E58857" fill-rule="nonzero" cx="17.029" cy="21.147" r="17.029"/><path d="M0.0306,22.1770231 C0.0103,21.8370231 0,21.4970231 0,21.1470231 C0,18.8770231 0.4428,16.7170231 1.2466,14.7370231 L5.2982,16.4470231 C7.1282,17.2170231 8.009,19.3070231 7.2826,21.1570231 C6.5336,23.0570231 4.3667,23.9770231 2.4762,23.1970231 L0.0306,22.1770231 Z" id="Path" fill="#583318"/><rect id="Rectangle" fill="#E58857" fill-rule="nonzero" transform="translate(17.012984, 20.709050) rotate(19.230100) translate(-17.012984, -20.709050)" x="13.301" y="1" width="7.424" height="39.418" rx="1"/></g></g></g><g id="Face" transform="translate(351.000000, 173.000000) scale(1 1)"><g id="Face/Santa" stroke="none" stroke-width="1" fill="none" fill-rule="evenodd"><g id="Santa" transform="translate(0.000000, -0.000000)"><path d="M77.5817,22.2237 C77.2573,19.0313 74.4078,16.7062 71.2163,17.0304 L55.2522,18.6494 C52.0607,18.9729 49.7359,21.8228 50.0594,25.0148 C50.3828,28.2067 53.2329,30.532 56.4246,30.2077 L72.3885,28.5887 C75.5802,28.2644 77.9051,25.4144 77.5817,22.2237 Z" id="Path-Copy-2" fill="#F4F0F0"/><path d="M77.5817,22.2237 C77.2573,19.0313 74.4078,16.7062 71.2163,17.0304 L55.2522,18.6494 C52.0607,18.9729 49.7358,21.8228 50.0593,25.0148 C50.3828,28.2067 53.2329,30.532 56.4246,30.2077 L72.3885,28.5888 C75.5802,28.2644 77.9051,25.4145 77.5817,22.2237 Z M72.6916,31.5734 L56.7276,33.1924 C51.8874,33.6841 47.5652,30.1578 47.0746,25.3173 C46.5841,20.477 50.1097,16.1552 54.9496,15.6647 L70.9134,14.0458 C75.7532,13.5541 80.0745,17.08 80.5663,21.9208 C81.0569,26.7601 77.5314,31.0817 72.6916,31.5734 Z" id="Stroke-8-Copy" fill="#010101"/><path d="M71.0646,15.5377 L66.1946,16.3357 L64.9216,30.7527 L72.5396,30.0807 C76.5556,29.6737 79.4816,26.0877 79.0736,22.0717 C78.6666,18.0557 75.0806,15.1307 71.0646,15.5377 Z" id="Fill-10-Copy" fill="#010101"/><path d="M35.3729,30.0146 C38.5718,30.2554 41.3608,27.8574 41.6024,24.6587 C41.8432,21.4597 39.4453,18.6707 36.2464,18.4291 L20.2455,17.2231 C17.0463,16.9822 14.2577,19.3803 14.0169,22.5799 C13.7761,25.779 16.174,28.5677 19.3729,28.8086 L35.3729,30.0146 Z" id="Path-Copy" fill="#F4F0F0"/><path d="M35.3728,30.0146 C38.5717,30.2554 41.3607,27.8574 41.6023,24.6587 C41.8431,21.4597 39.4452,18.6707 36.2463,18.4291 L20.2454,17.2231 C17.0462,16.9823 14.2576,19.3803 14.0168,22.5799 C13.776,25.779 16.1739,28.5678 19.3728,28.8086 L35.3728,30.0146 Z M35.1474,33.0061 L19.1474,31.8001 C14.2964,31.4349 10.6601,27.2059 11.0253,22.3548 C11.3904,17.5029 15.6193,13.8663 20.4708,14.2316 L36.472,15.4376 C41.3229,15.804 44.959,20.033 44.5938,24.8843 C44.2274,29.7352 39.9984,33.3713 35.1474,33.0061 Z" id="Stroke-12-Copy" fill="#010101"/><path d="M36.3587,16.9337 L28.4707,16.3387 L28.6297,30.9347 L35.2597,31.5107 C39.2857,31.8137 42.7947,28.7967 43.0977,24.7707 C43.4007,20.7467 40.3837,17.2367 36.3587,16.9337 Z" id="Fill-14-Copy" fill="#010101"/><g id="Moustache" transform="translate(13.000000, 32.000000)"><path d="M8.1962,15.8133 C4.6524,10.7955 10.6949,8.7751 14.2322,7.0166 C15.4017,-0.592 22.1271,1.9264 25.8462,4.1207 C27.7585,-1.0449 34.491,-0.339 36.5232,3.9857 C40.2555,-1.1241 45.1963,1.7666 47.2001,3.8508 C51.9454,3.7908 53.1651,6.4122 53.1818,7.7304 C58.8721,7.3421 58.229,10.6988 57.1961,12.4258 C62.6061,14.8886 60.8417,19.2351 59.2833,21.1005 C64.7093,24.8288 59.5284,30.0622 56.2597,32.2129 C62.3224,36.2495 55.1816,40.7958 50.8534,42.5644 C54.7216,48.2108 48.0501,50.2462 44.2308,50.5582 C41.8039,58.8154 33.4787,55.1765 29.6194,52.3249 C24.9341,57.1301 18.6772,52.3313 16.1344,49.3312 C12.3861,53.1754 6.6438,49.4511 6.5638,43.1241 C1.1938,43.8247 2.1007,34.2157 3.2254,29.3235 C-3.1737,23.7091 3.873,17.9774 8.1962,15.8133 Z" id="Vector-120" fill="#F4F0F0" fill-rule="nonzero"/><path d="M25,11.9999 C27.9333,15.0184 35.24,19.2443 41,11.9999" id="Vector-121" stroke="#000" stroke-width="2.5" stroke-linecap="round"/></g></g></g></g><g id="Holidays Body" transform="translate(87.000000, 44.000000) scale(1 1)"><g id="Holidays Body/Dialogue" stroke="none" stroke-width="1" fill="none" fill-rule="evenodd"><g id="Scarf" transform="translate(51.000000, 203.000000)"><g id="Body" transform="translate(0.000000, 14.000000)"><path d="M216,1.426 C216,1.426 228.059,26.646 258.033,25.575 C288.007,24.505 295.876,2.322 295.876,2.322 C295.876,2.322 261.13,-2.24 216,1.426 Z M132.052,15.511 C132.052,15.511 132.427,15.367 133.157,15.109 C90.459,24.171 25.4426,40.881 10.6396,61.067 C-11.8443,91.727 2.4636,121.706 42.6627,161.224 C82.862,200.741 126.005,212.494 126.005,212.494 C126.005,212.494 92.882,239.236 92.169,240.66 C90.256,244.486 96.632,248.948 101.094,248.63 C101.094,248.63 88.944,265.086 89.3,269.35 C89.461,271.281 96.95,279.232 109.382,265.205 L106.618,274.567 C105.733,277.565 106.491,280.896 108.805,282.997 C110.89,284.891 113.891,285.748 117.556,281.605 C122.278,276.267 124.077,272.616 125.539,269.651 C126.347,268.012 127.052,266.582 128.091,265.192 C130.648,261.765 139.017,255.299 139.017,255.299 C138.273,256.617 136.952,258.705 135.39,261.173 C130.424,269.024 123.025,280.718 124.049,283.698 C124.512,285.047 127.91,288.38 138.748,280.092 C149.586,271.804 162.934,245.761 162.934,245.761 C162.934,245.761 160.181,271.631 163.369,274.181 C164.431,275.032 166.157,274.775 167.987,274.056 C172.669,272.215 175.972,267.954 176.899,263.01 L183.061,230.152 C187.046,213.5 184.52,195.821 175.452,181.297 C171.262,174.587 165.398,168.002 157.197,162.563 C126.914,142.481 87.387,108.692 87.387,108.692 L166.053,81.212 L165.827,80.095 L132.052,15.511 Z M653.251,190.881 C654.55,192.117 654.325,196.026 653.616,197.445 C651.47,201.737 645.228,204.293 645.228,204.293 C645.228,204.293 652.772,204.532 653.012,207.406 C653.159,209.178 653.027,213.187 649.18,215.668 C642.951,219.684 629.078,223.757 612.895,224.94 C586.716,226.856 543.994,223.541 543.994,223.541 C543.994,223.541 452.408,227.924 406.989,188.559 C406.989,188.559 352.484,136.326 341.129,103.018 L339.938,99.616 L369.867,34.44 C369.767,34.328 369.665,34.219 369.563,34.111 C369.479,34.022 369.395,33.934 369.313,33.843 C390.219,51.621 417.555,82.836 442.563,122.209 L546.75,165.528 L603.18,153.914 C603.18,153.914 624.084,149.715 621.645,157.569 C620.728,160.519 618.524,162.893 615.755,164.265 C610.98,166.632 602.241,170.849 598.782,171.785 C603.449,170.758 610.343,169.26 616.502,167.922 C622.216,166.681 627.299,165.577 629.384,165.113 C630.441,164.878 632.105,164.403 634.045,163.849 C639.986,162.151 648.517,159.713 650.128,161.178 C652.751,163.562 652.449,170.89 648.012,173.541 C648.012,173.541 655.374,171.67 656.289,174.748 C657.795,179.81 654.329,186.211 645.588,189.444 C645.588,189.444 650.89,188.633 653.251,190.881 Z" id="Skin" fill="#c68e80"/><path d="M216,1.426 C216,1.426 228.059,26.646 258.033,25.575 C286.633,24.554 295.108,4.31 295.825,2.457 C325.481,6.041 349.868,14.797 369.867,34.44 L356.639,63.246 L339.265,101.081 L359.064,196.512 C359.064,196.512 280.598,227.311 184,201.409 C183.635,201.077 182.869,198.93 181.848,196.07 C180.077,191.104 177.538,183.99 175,180.5 L171.27,175.5 L165.894,81.267 L87.387,108.691 C87.387,108.691 126.914,142.48 157.197,162.562 L116.5,214 C116.5,214 82.862,200.74 42.6627,161.223 C2.4636,121.705 -11.8443,91.726 10.6396,61.066 C25.4426,40.88 90.459,24.17 133.157,15.108 C132.427,15.366 132.052,15.511 132.052,15.511 C132.052,15.511 164.074,4.522 219.068,1.188 C218.051,1.263 217.028,1.342 216,1.426 Z M219.068,1.188 C262.695,-2.035 295.876,2.322 295.876,2.322 C295.876,2.322 295.859,2.368 295.825,2.457 C281.928,0.778 266.875,0.235 250.574,0.24 C239.378,0.243 228.859,0.594 219.068,1.188 Z M356.639,63.246 L339.938,99.616 L341.129,103.018 C352.484,136.326 406.989,188.559 406.989,188.559 C452.408,227.924 536.5,229 536.5,229 L542,163 L442.563,122.209 C417.555,82.836 390.219,51.621 369.313,33.843 C369.395,33.933 369.478,34.021 369.561,34.109 L369.563,34.111 C369.665,34.219 369.768,34.328 369.867,34.44 L356.639,63.246 Z" id="Exclude" fill="#F3705A"/><path d="M590.277,191.961 C591.122,186.361 591.268,180.448 591.013,175.129 C590.998,174.806 590.981,174.506 590.965,174.23 L605.315,170.941 C605.854,170.818 606.19,170.281 606.067,169.743 C605.943,169.205 605.407,168.868 604.868,168.992 L589.685,172.472 C589.2,172.583 588.871,173.034 588.912,173.53 C588.918,173.603 588.93,173.751 588.944,173.967 C588.968,174.33 588.993,174.751 589.015,175.225 C589.265,180.423 589.122,186.214 588.299,191.662 C587.675,195.794 586.697,199.361 585.324,202.188 C585.083,202.684 585.29,203.283 585.787,203.524 C586.284,203.765 586.882,203.558 587.123,203.061 C588.596,200.029 589.625,196.277 590.277,191.961 Z M605.737,184.385 C605.765,184.937 606.235,185.361 606.787,185.333 C618.808,184.723 643.737,177.97 649.552,173.512 C649.991,173.176 650.073,172.549 649.737,172.11 C649.401,171.672 648.774,171.589 648.335,171.925 C642.901,176.091 618.339,182.744 606.685,183.336 C606.134,183.364 605.709,183.834 605.737,184.385 Z M646.545,189.155 C646.385,188.626 645.827,188.327 645.299,188.487 C645.17,188.526 644.915,188.6 644.543,188.705 C643.919,188.881 643.196,189.078 642.38,189.29 C640.047,189.896 637.451,190.502 634.658,191.067 C626.996,192.62 619.353,193.577 612.234,193.647 C611.637,193.653 611.045,193.652 610.459,193.645 C609.907,193.638 609.454,194.081 609.446918,194.633 C609.44,195.185 609.883,195.638 610.435,195.645 C611.036,195.652 611.642,195.653 612.253,195.647 C619.515,195.576 627.279,194.603 635.056,193.028 C637.885,192.454 640.517,191.84 642.883,191.225 C643.712,191.01 644.45,190.81 645.086,190.63 C645.471,190.522 645.737,190.444 645.877,190.401 C646.406,190.241 646.705,189.683 646.545,189.155 Z M644.914,203.343 C645.439,203.17 646.004,203.454 646.178,203.978 C646.351,204.503 646.067,205.068 645.543,205.242 C645.447,205.274 645.267,205.331 645.008,205.412 C644.58,205.544 644.086,205.691 643.53,205.849 C641.945,206.301 640.185,206.752 638.295,207.172 C633.24,208.298 628.199,209.006 623.477,209.092 C619.804,209.158 616.461,208.84 613.522,208.082 C612.987,207.944 612.665,207.399 612.803,206.864 C612.941,206.329 613.487,206.007 614.021,206.145 C616.769,206.854 619.936,207.155 623.44,207.092 C628.012,207.009 632.926,206.319 637.861,205.22 C639.711,204.808 641.433,204.367 642.982,203.926 C643.523,203.772 644.003,203.629 644.417,203.501 L644.517,203.47 L644.588,203.448 C644.742,203.399 644.852,203.364 644.914,203.343 Z M130.776,239.422 C131.225,239.101 131.85,239.205 132.171,239.655 C132.492,240.104 132.388,240.729 131.938,241.05 C130.869,241.814 129.84,242.436 128.182,243.363 C122.564,246.501 120.592,247.879 117.196,251.675 C116.579,252.365 115.554,254.172 114.293,256.747 C114.048,257.249 113.795,257.776 113.536,258.326 C112.787,259.914 112.02,261.618 111.277,263.321 C111.017,263.918 110.779,264.472 110.568,264.969 C110.441,265.266 110.352,265.479 110.305,265.591 C110.092,266.1 109.506,266.341 108.996,266.128 C108.487,265.915 108.246,265.329 108.459,264.819 C108.508,264.703 108.599,264.487 108.727,264.186 C108.941,263.684 109.182,263.124 109.444,262.522 C110.194,260.802 110.968,259.081 111.726,257.473 C111.99,256.914 112.247,256.378 112.497,255.867 C113.845,253.116 114.919,251.221 115.706,250.341 C119.287,246.339 121.409,244.856 127.207,241.617 C128.806,240.724 129.78,240.133 130.776,239.422 Z M100.337,249.283 C100.698,249.701 101.329,249.747 101.747,249.387 C101.889,249.264 102.155,249.034 102.526,248.712 C103.145,248.175 103.835,247.574 104.577,246.926 C106.699,245.072 108.821,243.201 110.802,241.431 L111.109,241.157 L111.294,240.991 C115.647,237.09 118.581,234.331 119.599,233.11 C119.953,232.685 119.895,232.055 119.471,231.701 C119.046,231.348 118.416,231.405 118.062,231.83 C117.136,232.942 114.216,235.688 109.959,239.501 L109.853,239.596 L109.469,239.94 C107.494,241.705 105.378,243.571 103.261,245.42 C102.521,246.067 101.833,246.666 101.215,247.201 C100.845,247.523 100.581,247.751 100.44,247.873 C100.022,248.234 99.976,248.865 100.337,249.283 Z M139.812,255.905 C139.477,256.344 138.85,256.429 138.411,256.093 C137.971,255.758 137.887,255.131 138.222,254.692 L144.842,246.017 C145.177,245.578 145.805,245.494 146.244,245.829 C146.683,246.164 146.767,246.791 146.432,247.23 L139.812,255.905 Z M125.063,212.831 C125.249,213.351 125.822,213.621 126.342,213.435 L135.376,210.2 C135.896,210.014 136.166,209.442 135.98,208.922 C135.794,208.402 135.221,208.131 134.701,208.317 L125.667,211.552 C125.147,211.739 124.877,212.311 125.063,212.831 Z" id="Skin-Shadows" fill="#D7A17C"/></g><path d="M87.716,121.747 C88.238,121.929 88.513,122.499 88.331,123.02 C88.15,123.542 87.579,123.817 87.058,123.635 L74.818,119.367 C74.297,119.186 74.021,118.615 74.203,118.094 C74.385,117.572 74.955,117.297 75.476,117.479 L87.716,121.747 Z" id="Stroke-27" fill="#F2B08F" fill-rule="nonzero"/><path d="M200.487,155.27 C195.406,134.549 203.208,61.325 207.745,27.303 C220.972,20.395 247.065,25.505 244.775,29.101 C236.385,42.277 253.305,185.791 245.944,191.273 C238.582,196.756 206.838,181.172 200.487,155.27 Z" id="Vector-109" fill="#2F6858" fill-rule="nonzero"/><path d="M245.64,119.688 C238.007,99.765 236.71,53.138 236.956,18.817 C249.215,10.308 274.835,17.17 273.013,21.024 C266.337,35.146 295.487,98.69 293.966,109.584 C292.997,116.523 252.243,136.924 245.64,119.688 Z" id="Vector-114" fill="#2F6858" fill-rule="nonzero"/><path d="M201.87,142.49 C202.088,152.04 207.5,181.5 206.051,186.819" id="Vector-110" stroke="#2F6858" stroke-width="6" stroke-linecap="round"/><path d="M250.488,98 C250.706,107.55 256.118,137.01 254.669,142.329" id="Vector-115" stroke="#2F6858" stroke-width="6" stroke-linecap="round"/><path d="M214.492,154.984 C214.71,164.534 216.5,188.5 217.676,194.904" id="Vector-111" stroke="#2F6858" stroke-width="6" stroke-linecap="round"/><path d="M264.755,99 C264.973,108.55 269.284,132.5 267.285,140.5" id="Vector-116" stroke="#2F6858" stroke-width="6" stroke-linecap="round"/><path d="M227.896,157.296 C228.114,166.846 231.512,196.656 230.979,204.286" id="Vector-112" stroke="#2F6858" stroke-width="6" stroke-linecap="round"/><path d="M275.904,88 C276.122,97.55 279.52,127.36 278.987,134.99" id="Vector-117" stroke="#2F6858" stroke-width="6" stroke-linecap="round"/><path d="M243.51,168.397 C243.728,177.947 243.414,195.127 245.921,202.871" id="Vector-113" stroke="#2F6858" stroke-width="6" stroke-linecap="round"/><path d="M284.357,87 C286.218,96.369 293,107 291.5,124" id="Vector-118" stroke="#2F6858" stroke-width="6" stroke-linecap="round"/><path d="M190.5,26 C189.3,5.2 198,0.667 202.5,1 C233.667,1 298.3,2.3 307.5,7.5 C319,14 308,38.5 301,48 C294,57.5 192,52 190.5,26 Z" id="Vector-108" fill="#2F6858" fill-rule="nonzero"/><path d="M443.355,135.482 C443.641,135.954 443.491,136.569 443.018,136.855 L426.518,146.855 C426.046,147.141 425.431,146.991 425.145,146.518 C424.858,146.046 425.009,145.431 425.482,145.145 L441.982,135.145 C442.454,134.858 443.069,135.009 443.355,135.482 Z" id="Vector-119-(Stroke)" fill="#F2B08F"/></g></g></g></g></g><g transform="translate(1434.500000, 876.000000) scale(-1, 1) translate(-1434.500000, -876.000000) translate(950.000000, 378.000000) scale(1 1)" id="Master/Holidays Character/Standing"><g id="Master/Holidays Character/Standing" stroke="none" stroke-width="1" fill="none" fill-rule="evenodd"><g id="Holidays Bottom/Standing" transform="translate(0.000000, 443.000000) scale(1 1)"><g id="Holidays Bottom/Standing/Running" stroke="none" stroke-width="1" fill="none" fill-rule="evenodd"><g id="Group-11"><path d="M483.767092,5.68434189e-14 C483.767092,5.68434189e-14 555.797092,242.027 559.637092,258.357 C563.487092,274.687 627.827092,511.907 627.827092,511.907 C627.827092,511.907 495.297092,514.787 473.207092,512.867 C451.117092,510.947 411.737092,123.897 411.737092,123.897 L372.357092,291.007 C372.357092,291.007 365.637092,322.707 353.147092,333.267 C340.667092,343.837 275.357092,340.957 275.357092,340.957 L54.4570922,329.427 C54.4570922,329.427 48.6970922,182.477 51.5770922,173.837 C54.0670922,166.357 215.667092,206.387 258.997092,217.267 C264.947092,218.757 271.037092,215.357 272.877092,209.507 L338.747092,5.68434189e-14 L483.767092,5.68434189e-14 Z" id="Path" fill="#E74B33"/><line x1="411.997" y1="124.197" x2="418.497" y2="105.697" id="Path" stroke="#F3705A" stroke-width="2" stroke-linecap="round"/><path d="M4.75709219,330.927 L54.4570922,329.147 L51.0970922,210.697 C51.0970922,210.697 10.7070922,213.747 9.94709219,221.367 C9.37709219,227.027 22.7270922,238.077 29.6470922,243.397 C31.7170922,244.987 31.9970922,248.007 30.2570922,249.947 C10.0370922,272.487 2.29709219,311.337 0.0570921931,325.637 C-0.392907807,328.487 1.87709219,331.037 4.75709219,330.927 Z M639.817092,544.167 L627.837092,511.627 L505.207092,513.337 C505.207092,513.337 503.497092,546.167 508.627092,549.017 C512.267092,551.037 524.307092,539.617 531.017092,532.787 C533.627092,530.137 537.717092,529.577 540.897092,531.497 C571.377092,549.977 622.137092,549.087 637.037092,548.377 C639.157092,548.277 640.557092,546.147 639.817092,544.167 Z" id="Shape" fill="#010101"/></g></g></g><g id="Holidays Head" transform="translate(268.000000, 82.000000) scale(1 1)"><g id="Holidays Head/Deer" stroke="none" stroke-width="1" fill="none" fill-rule="evenodd"><g id="Deer" transform="translate(25.000000, -38.000000)"><g id="Curly" transform="translate(0.000000, 39.000000)"><path d="M84.229,49.5537 C52.6747,49.5537 27.0957,72.313 27.0957,100.388 C27.0957,106.136 28.1837,111.654 30.1597,116.806 C29.9657,116.8 29.7747,116.782 29.5787,116.782 C21.2637,116.782 14.5227,122.327 14.5227,129.168 C14.5227,136.008 21.2637,141.553 29.5787,141.553 C34.1747,141.553 38.2847,139.855 41.0447,137.183 C42.0407,136.218 43.5817,136.116 44.6357,137.017 C52.3557,143.627 62.1527,148.329 73.0767,150.254 C74.481,150.501 75.473,151.765 75.391,153.189 L73.8307,181 L100.27,181 L99.046,159.052 C98.748,153.864 101.786,149.006 106.643,147.16 C127.056,139.407 141.362,121.384 141.362,100.388 C141.362,72.313 115.783,49.5537 84.229,49.5537 Z" id="Skin" fill="#f7d3bb"/><path d="M91.335,28.3042 C96.596,18.0522 106.518,11.1352 117.901,11.1352 C134.783,11.1352 148.468,26.3382 148.468,45.0932 C148.468,63.846 134.783,79.05 117.901,79.05 C110.802,79.05 103.63,73.048 98.441,68.537 C95.147,76.819 85.372,83.882 72.2616,84.971 C63.3442,85.713 55.4513,80.837 50.4126,77.725 C50.0709,77.514 49.7424,77.311 49.4276,77.118 C49.6496,78.418 49.7766,79.754 49.7766,81.125 C49.7766,92.717 48.5556,101.26 35.0926,106.709 C36.0716,109 36.6326,111.539 36.6326,114.225 C36.6326,124.185 29.1256,132.26 19.8656,132.26 C10.6056,132.26 3.0986,124.185 3.0986,114.225 C3.0986,105.971 8.2586,99.029 15.2956,96.886 C-2.2384,90.126 -5.4934,65.544 9.6896,54.4312 C16.4696,49.4682 24.6766,49.0342 32.5856,51.0442 C23.3076,39.3052 21.0006,22.8212 31.4756,10.9712 C37.8436,3.7682 47.8436,0.0002 57.3496,0.0002 C74.979,0.0002 89.487,12.3912 91.335,28.3042 Z M31.0332,141.486 C35.0362,141.169 38.5802,139.57 41.0442,137.183 C42.0402,136.218 43.5822,136.116 44.6352,137.017 C51.8672,143.209 60.9222,147.727 71.0192,149.855 C68.7002,151.915 65.3132,152.978 61.7382,152.447 C58.7422,152.002 56.1902,150.526 54.4892,148.503 C51.8372,151.03 47.3782,152.339 42.5872,151.627 C36.0462,150.655 31.1882,146.264 31.0332,141.486 Z" id="Hair" fill="#B9B3B8"/></g><path d="M23.5009,66.5458 C28.9395,67.8523 42.0234,87.0881 48.3791,95.8849 C50.8565,94.8112 53.4812,94.1161 56.1652,93.823 L56.598,93.7757 C55.3991,90.8401 51.6635,85.4937 48.7443,80.2365 C45.0953,73.665 49.9096,68.6331 48.8656,55.8597 C47.8216,43.0863 40.3716,46.0438 42.2375,52.35 C44.1033,58.6562 40.9417,69.5422 37.4014,67.8939 C33.8612,66.2457 15.6682,31.1528 11.1407,23.8898 C6.6131,16.6268 1.8262,22.0389 7.2323,29.9933 C8.6451,32.0721 21.3747,54.9947 18.6608,56.2733 C15.947,57.552 4.0737,48.7757 2.8777,52.1028 C1.6162,55.6123 19.222,65.5178 23.5009,66.5458 Z" id="Vector-106" fill="#d7a17c" fill-rule="nonzero"/><path d="M122.5,63.0417 C121.3,70.2417 110.333,83.1667 106,86.9999985 L107.969,86.9999985 C110.611,86.9999985 113.206,87.6894 115.5,88.9999985 C118.667,85.9999985 123.4,83.3417 127,78.5417 C131.5,72.5417 134,75.0417 141.5,72.0417 C149,69.0417 150,64.5417 148.5,63.0417 C147,61.5417 135,66.0417 134,63.0417 C133,60.0417 157.5,33.0417 162,12.0417 C165.6,-4.75829 157.982,-1.92346 153,8.04171 C145.667,22.7084 130.4,52.1417 128,52.5417 C125,53.0417 126.5,34.5417 121,39.5417 C116.6,43.5417 120.167,56.875 122.5,63.0417 Z" id="Vector-105" fill="#d7a17c" fill-rule="nonzero"/><path d="M29.0001,123.055 C42.0001,96 73.9998,71 123,91.5001" id="Vector-107" stroke="#000" stroke-width="6" stroke-linecap="round"/></g></g></g><g id="Face" transform="translate(351.000000, 173.000000) scale(1 1)"><g id="Face/Santa" stroke="none" stroke-width="1" fill="none" fill-rule="evenodd"><g id="Santa" transform="translate(0.000000, -0.000000)"><path d="M77.5817,22.2237 C77.2573,19.0313 74.4078,16.7062 71.2163,17.0304 L55.2522,18.6494 C52.0607,18.9729 49.7359,21.8228 50.0594,25.0148 C50.3828,28.2067 53.2329,30.532 56.4246,30.2077 L72.3885,28.5887 C75.5802,28.2644 77.9051,25.4144 77.5817,22.2237 Z" id="Path-Copy-2" fill="#F4F0F0"/><path d="M77.5817,22.2237 C77.2573,19.0313 74.4078,16.7062 71.2163,17.0304 L55.2522,18.6494 C52.0607,18.9729 49.7358,21.8228 50.0593,25.0148 C50.3828,28.2067 53.2329,30.532 56.4246,30.2077 L72.3885,28.5888 C75.5802,28.2644 77.9051,25.4145 77.5817,22.2237 Z M72.6916,31.5734 L56.7276,33.1924 C51.8874,33.6841 47.5652,30.1578 47.0746,25.3173 C46.5841,20.477 50.1097,16.1552 54.9496,15.6647 L70.9134,14.0458 C75.7532,13.5541 80.0745,17.08 80.5663,21.9208 C81.0569,26.7601 77.5314,31.0817 72.6916,31.5734 Z" id="Stroke-8-Copy" fill="#010101"/><path d="M71.0646,15.5377 L66.1946,16.3357 L64.9216,30.7527 L72.5396,30.0807 C76.5556,29.6737 79.4816,26.0877 79.0736,22.0717 C78.6666,18.0557 75.0806,15.1307 71.0646,15.5377 Z" id="Fill-10-Copy" fill="#010101"/><path d="M35.3729,30.0146 C38.5718,30.2554 41.3608,27.8574 41.6024,24.6587 C41.8432,21.4597 39.4453,18.6707 36.2464,18.4291 L20.2455,17.2231 C17.0463,16.9822 14.2577,19.3803 14.0169,22.5799 C13.7761,25.779 16.174,28.5677 19.3729,28.8086 L35.3729,30.0146 Z" id="Path-Copy" fill="#F4F0F0"/><path d="M35.3728,30.0146 C38.5717,30.2554 41.3607,27.8574 41.6023,24.6587 C41.8431,21.4597 39.4452,18.6707 36.2463,18.4291 L20.2454,17.2231 C17.0462,16.9823 14.2576,19.3803 14.0168,22.5799 C13.776,25.779 16.1739,28.5678 19.3728,28.8086 L35.3728,30.0146 Z M35.1474,33.0061 L19.1474,31.8001 C14.2964,31.4349 10.6601,27.2059 11.0253,22.3548 C11.3904,17.5029 15.6193,13.8663 20.4708,14.2316 L36.472,15.4376 C41.3229,15.804 44.959,20.033 44.5938,24.8843 C44.2274,29.7352 39.9984,33.3713 35.1474,33.0061 Z" id="Stroke-12-Copy" fill="#010101"/><path d="M36.3587,16.9337 L28.4707,16.3387 L28.6297,30.9347 L35.2597,31.5107 C39.2857,31.8137 42.7947,28.7967 43.0977,24.7707 C43.4007,20.7467 40.3837,17.2367 36.3587,16.9337 Z" id="Fill-14-Copy" fill="#010101"/><g id="Moustache" transform="translate(13.000000, 32.000000)"><path d="M8.1962,15.8133 C4.6524,10.7955 10.6949,8.7751 14.2322,7.0166 C15.4017,-0.592 22.1271,1.9264 25.8462,4.1207 C27.7585,-1.0449 34.491,-0.339 36.5232,3.9857 C40.2555,-1.1241 45.1963,1.7666 47.2001,3.8508 C51.9454,3.7908 53.1651,6.4122 53.1818,7.7304 C58.8721,7.3421 58.229,10.6988 57.1961,12.4258 C62.6061,14.8886 60.8417,19.2351 59.2833,21.1005 C64.7093,24.8288 59.5284,30.0622 56.2597,32.2129 C62.3224,36.2495 55.1816,40.7958 50.8534,42.5644 C54.7216,48.2108 48.0501,50.2462 44.2308,50.5582 C41.8039,58.8154 33.4787,55.1765 29.6194,52.3249 C24.9341,57.1301 18.6772,52.3313 16.1344,49.3312 C12.3861,53.1754 6.6438,49.4511 6.5638,43.1241 C1.1938,43.8247 2.1007,34.2157 3.2254,29.3235 C-3.1737,23.7091 3.873,17.9774 8.1962,15.8133 Z" id="Vector-120" fill="#F4F0F0" fill-rule="nonzero"/><path d="M25,11.9999 C27.9333,15.0184 35.24,19.2443 41,11.9999" id="Vector-121" stroke="#000" stroke-width="2.5" stroke-linecap="round"/></g></g></g></g><g id="Holidays Body" transform="translate(87.000000, 44.000000) scale(1 1)"><defs><path d="M207.182,210.51 C179.783,212.467 133.686,211.554 91.593,200.497 C91.029,200.349 89.755,200.084 88.446,199.812 C88.192,199.759 87.936,199.706 87.684,199.654 L84.5,237 C94,266.833 115.6,322.6 118,327 C120.4,331.4 59.667,340.833 29,345 C19.833,329.167 1.3,282 0.5,220 C-0.3,158 20.5,86 30,64.5 L30.175,64.616 C42.314,36.818 57.757,24.214 69.584,17.867 C90.423,8.152 91.593,7.813 111.787,3.784 C125.462,1.056 166.412,-0.649 187.474,2.022 C236.69,8.263 278.4,40.475 298.023,91.504 C298.079,91.652 298.09,91.809 298.057,91.975 C318.264,142.07 348.38,246.843 348,252.5 L347.99,252.658 C347.48,260.391 345.62,288.435 290.5,279 C258.839,273.581 228.009,240.211 207.182,210.51 Z M153.599,169.075 C153.599,169.075 145.382,166.832 145.507,155.468 C145.507,155.468 135.3,152.855 136.547,140.794 C136.547,140.794 136.547,138.091 138.627,136.427 C138.627,136.427 130.331,131.946 131.512,122.758 C132.334,116.366 135.508,114.8 135.508,114.8 C135.508,114.8 124.486,103.987 130.933,91.926 C137.379,79.865 144.657,85.48 144.657,85.48 L146.945,100.036 C146.945,100.036 168.363,107.523 188.118,106.691 C207.874,105.859 215.359,100.452 215.359,100.452 L217.855,74.875 C217.855,74.875 226.589,78.202 228.46,88.183 C229.759,95.115 229.515,100.894 229.338,105.104 C229.319,105.554 229.3,105.986 229.285,106.4 L229,106.5 L229.263,109.463 C229.268,109.548 229.273,109.632 229.279,109.715 C229.283,109.773 229.29,109.829 229.301,109.884 L231,129 L192.675,172.612 C192.15,171.786 191.718,171.082 191.397,170.528 C191.397,170.528 164.828,172.818 153.599,169.075 Z" id="holidays-bodydrinking-path-1"/></defs><g id="Holidays Body/Drinking" stroke="none" stroke-width="1" fill="none" fill-rule="evenodd"><g id="Group-4" transform="translate(150.000000, 197.000000)"><path d="M341.2,256.308939 C300.92,107.192939 297.125,111.562939 297.125,111.562939 L229.279,129.852939 C229.279,129.852939 230.332,118.302939 228.46,108.320939 C226.589,98.3399395 217.855,95.0129395 217.855,95.0129395 L215.359,120.589939 C215.359,120.589939 207.874,125.996939 188.119,126.828939 C168.363,127.660939 146.945,120.173939 146.945,120.173939 L144.657,105.617939 C144.657,105.617939 137.379,100.002939 130.933,112.063939 C124.486,124.125939 135.508,134.938939 135.508,134.938939 C135.508,134.938939 132.334,136.503939 131.512,142.894939 C130.331,152.083939 138.627,156.564939 138.627,156.564939 C136.547,158.228939 136.547,160.931939 136.547,160.931939 C135.3,172.992939 145.507,175.605939 145.507,175.605939 C145.382,186.969939 153.599,189.212939 153.599,189.212939 C164.828,192.955939 191.397,190.665939 191.397,190.665939 C217.29,235.337939 249.532,267.119939 267.697,283.017939 C279.439,293.293939 294.595,299.003939 310.192,298.546939 C351.08,297.348939 345.07,270.664939 341.2,256.308939 Z M28.879,345.173939 C41.218,373.115939 44.237,379.125939 44.237,379.125939 C44.237,379.125939 15.147,428.452939 20.684,433.473939 C27.899,440.016939 37.908,431.466939 37.908,431.466939 C37.908,431.466939 37.908,437.096939 43.121,438.556939 C48.334,440.016939 54.121,435.516939 54.121,435.516939 C54.121,435.516939 56.93,444.962939 66.741,441.044939 C72.324,438.813939 74.893,435.964939 74.893,435.964939 C74.893,435.964939 74.387,439.701939 76.497,442.513939 C77.298,443.583939 80.495,445.891939 83.981,444.920939 C88.623,443.624939 94.855,438.695939 102.424,429.417939 C115.124,413.848939 122.339,388.029939 113.258,365.579939 C109.747,356.899939 103.929,338.249939 98.112,318.637939 L28.879,345.173939 Z" id="Shape" fill="#f7d3bb"/><path d="M207.182,230.647939 C179.783,232.604939 133.686,231.691939 91.593,220.634939 C91.029,220.486939 89.755,220.221939 88.446,219.949939 C88.192,219.896939 87.936,219.843939 87.684,219.791939 L84.5,257.137939 C94,286.970939 115.6,342.737939 118,347.137939 C120.4,351.537939 59.667,360.970939 29,365.137939 C19.833,349.304939 1.3,302.137939 0.5,240.137939 C-0.3,178.137939 20.5,106.137939 30,84.6379395 L30.175,84.7539395 C42.314,56.9559395 57.757,44.3519395 69.584,38.0049395 C90.423,28.2899395 91.593,27.9509395 111.787,23.9219395 C125.462,21.1939395 166.412,19.4889395 187.474,22.1599395 C236.69,28.4009395 278.4,60.6129395 298.023,111.641939 C298.079,111.789939 298.09,111.946939 298.057,112.112939 C318.264,162.207939 348.38,266.980939 348,272.637939 L347.99,272.795939 C347.48,280.528939 345.62,308.572939 290.5,299.137939 C258.839,293.718939 228.009,260.348939 207.182,230.647939 Z M153.599,189.212939 C153.599,189.212939 145.382,186.969939 145.507,175.605939 C145.507,175.605939 135.3,172.992939 136.547,160.931939 C136.547,160.931939 136.547,158.228939 138.627,156.564939 C138.627,156.564939 130.331,152.083939 131.512,142.895939 C132.334,136.503939 135.508,134.937939 135.508,134.937939 C135.508,134.937939 124.486,124.124939 130.933,112.063939 C137.379,100.002939 144.657,105.617939 144.657,105.617939 L146.945,120.173939 C146.945,120.173939 168.363,127.660939 188.118,126.828939 C207.874,125.996939 215.359,120.589939 215.359,120.589939 L217.855,95.0129395 C217.855,95.0129395 226.589,98.3399395 228.46,108.320939 C229.759,115.252939 229.515,121.031939 229.338,125.241939 C229.319,125.691939 229.3,126.123939 229.285,126.537939 L229,126.637939 L229.263,129.600939 C229.268,129.685939 229.273,129.769939 229.279,129.852939 C229.283,129.910939 229.29,129.966939 229.301,130.021939 L231,149.137939 L192.675,192.749939 C192.15,191.923939 191.718,191.219939 191.397,190.665939 C191.397,190.665939 164.828,192.955939 153.599,189.212939 Z" id="Shape" fill="#F3705A"/><g id="Clipped" transform="translate(0.000000, 20.137939)"><mask id="holidays-bodydrinking-mask-2" fill="#ffffff"><use xlink:href="#holidays-bodydrinking-path-1" fill="#ffffff"/></mask><g id="Shape"/><g id="Group" mask="url(#holidays-bodydrinking-mask-2)" fill-rule="nonzero"><g transform="translate(30.000000, 1.000000)" id="Path"><path d="M33.5331409,6.85365625 C59.5443554,19.5283225 84.1766053,27.3188268 110.96781,29.527458 C144.794864,32.3161152 179.406268,25.6241752 215.315137,7.43979525 L216.403682,6.88523362 L219.596318,13.1147664 C182.132007,32.3152257 145.857471,39.4274612 110.39269,36.503792 C83.0564268,34.250227 57.9809416,26.4178802 31.6996892,13.7439762 L30.4668591,13.1463437 L33.5331409,6.85365625 Z" fill="#E74B33"/><path d="M27.4572293,18.8177865 C55.6088513,31.7092432 82.2780048,39.6358328 111.295586,41.8838308 C147.938546,44.7225685 185.42827,37.9107865 224.302849,19.4108486 L225.481291,18.8466647 L228.518709,25.1533353 C188.10281,44.618435 148.990704,51.8250537 110.754914,48.8629192 C81.2716936,46.578848 54.2177127,38.6360456 25.8528621,25.7790977 L24.5427707,25.1822135 L27.4572293,18.8177865 Z" fill="#E74B33"/><path d="M241,33 C145.516,74.637 68.907,53.692 19,33 L7,48 L25.5,46.5 L28.5,59 L41,52 L46.5,64.5 L57.5,57.5 L63.5,68.5 L76,62 L87,74 L98.5,66 L107,74 L119.5,64.5 L131,74 L143.5,64.5 L156.5,74 L168.5,64.5 L177.5,71.5 L190,59 L199,64.5 L207.5,54.5 L220,57.5 L224,46.5 L236.5,49.5 L241,33 Z" fill="#F4F0F0"/><path d="M127,21 C110,21 92.5,11.5 87,2 L99,0 C103,3.667 111.6,9.6 124,10 C136.4,10.4 146.833,4 149.5,0 L162,2 C159,7 145.742,21 127,21 Z" fill="#5BA092"/><polygon fill="#5BA092" points="75 84 73.5 72.5 66.5 84 57 86 66.5 92 70 102.5 73.5 92 82.5 87.5"/><polygon fill="#5BA092" points="193.353 82.733 194.824 72 201.686 82.733 211 84.6 201.686 90.2 198.255 100 194.824 90.2 186 86"/><polygon fill="#5BA092" points="244.353 70.733 245.824 60 252.686 70.733 262 72.6 252.686 78.2 249.255 88 245.824 78.2 237 74"/><polygon fill="#5BA092" points="18 73.5 16.5 62 9.5 73.5 0 75.5 9.5 81.5 13 92 16.5 81.5 25.5 77"/></g></g></g><path d="M233.971,151.356939 C233.23,150.755939 232.572,150.224939 232.005,149.767939 L231.638,149.473939 L229.688,150.085939 C229.714,150.354939 229.848,150.602939 230.059,150.770939 C230.179,150.866939 230.412,151.053939 230.751,151.325939 C231.316,151.780939 231.972,152.310939 232.711,152.909939 C234.822,154.623939 237.175,156.550939 239.709,158.650939 C246.948,164.648939 254.187,170.820939 260.942,176.822939 C262.963,178.617939 264.914,180.374939 266.786,182.087939 C274.662,189.290939 280.956,195.525939 285.259,200.496939 C285.621,200.914939 286.252,200.959939 286.67,200.598939 C287.087,200.237939 287.133,199.605939 286.771,199.187939 C282.407,194.146939 276.064,187.862939 268.136,180.611939 C266.256,178.892939 264.299,177.128939 262.271,175.326939 C255.497,169.308939 248.241,163.122939 240.985,157.110939 C238.445,155.006939 236.087,153.074939 233.971,151.356939 Z M88.51,168.637879 C89.062,168.643939 89.505,169.095939 89.5,169.647939 L88.99,220.147939 C88.984,220.699939 88.532,221.142939 87.98,221.137981 C87.427,221.131939 86.984,220.679939 86.99,220.127939 L87.5,169.627939 C87.505,169.075939 87.958,168.631939 88.51,168.637879 Z M193.678,192.372939 C194.084,191.997939 194.109,191.365939 193.735,190.959939 C193.36,190.553939 192.727,190.528939 192.322,190.902939 L185.822,196.902939 C185.472,197.225939 185.398,197.749939 185.645,198.155939 L205.645,231.155939 C205.931,231.628939 206.546,231.778939 207.018,231.492939 C207.49,231.206939 207.641,230.591939 207.355,230.119939 L187.779,197.818939 L193.678,192.372939 Z" id="Shape" fill="#E74B33"/><path d="M144,117.637939 L140,72.6379395 L219,73.1379395 L216,120.173939 C216,120.173939 193.167,137.657939 146.945,120.173939" id="Path" fill="#94C0E9"/><path d="M216.383116,78.1389154 C223.973547,78.0121552 230.731461,79.1753657 236.466085,82.4436821 C244.472395,87.0066925 249,95.0612146 249,106.137939 C249,125.434659 241.094885,135.795146 229.150729,135.642558 L228.787552,135.634715 L229.212448,121.641164 C230.321848,121.674849 231.177918,121.307972 232.036256,120.203981 C233.804247,117.93 235,113.378205 235,106.137939 C235,95.6224499 228.874923,92.0147653 217.018702,92.1316186 L216.616884,92.1369635 L216.383116,78.1389154 Z" id="Path" fill="#94C0E9" fill-rule="nonzero"/><ellipse id="Oval" fill="#3973B0" fill-rule="nonzero" cx="179.5" cy="72.638" rx="39.5" ry="11.5"/><path d="M141.21,114.182939 C141.168,113.631939 141.58,113.150939 142.13,113.108939 C142.681,113.065939 143.162,113.477939 143.204,114.028939 C143.225,114.300939 143.464,114.927939 144.163,115.819939 C145.429,117.433939 147.661,119.086939 151.112,120.655939 C157.658,123.631939 167.658,125.880939 181.737,127.078939 C182.287,127.125939 182.695,127.609939 182.649,128.160939 C182.602,128.710939 182.118,129.118939 181.567,129.071939 C167.278,127.855939 157.063,125.558939 150.284,122.476939 C146.557,120.781939 144.067,118.937939 142.589,117.053939 C141.643,115.847939 141.261,114.842939 141.21,114.182939 Z M138.074,157.398939 C137.614,157.093939 137.488,156.472939 137.793,156.012939 C138.098,155.551939 138.719,155.426939 139.179,155.731939 C139.275,155.794939 139.519,155.930939 139.924,156.116939 C140.631,156.440939 141.522,156.768939 142.61,157.077939 C148.1,158.635939 155.974,159.079939 166.592,157.704939 C167.14,157.633939 167.641,158.019939 167.712,158.567939 C167.783,159.115939 167.397,159.616939 166.849,159.687939 C155.973,161.095939 147.827,160.636939 142.064,159.001939 C140.016,158.420939 138.717,157.824939 138.074,157.398939 Z M134.62,134.476939 C134.365,134.966939 134.556,135.570939 135.046,135.825939 C135.158,135.883939 135.366,135.985939 135.67,136.125939 C136.168,136.353939 136.759,136.607939 137.442,136.880939 C139.384,137.654939 141.681,138.426939 144.325,139.146939 C150.017,140.696939 156.517,141.787939 163.788,142.222939 C164.339,142.254939 164.813,141.834939 164.846,141.283939 C164.879,140.732939 164.458,140.258939 163.907,140.225939 C156.776,139.799939 150.412,138.730939 144.85,137.216939 C142.28,136.517939 140.055,135.769939 138.183,135.022939 C137.532,134.762939 136.973,134.522939 136.506,134.308939 C136.232,134.181939 136.052,134.093939 135.969,134.050939 C135.479,133.795939 134.875,133.986939 134.62,134.476939 Z M145.158,176.542939 C144.64,176.350939 144.377,175.774939 144.569,175.256939 C144.762,174.739939 145.337,174.475939 145.855,174.667939 C145.915,174.690939 146.042,174.735939 146.234,174.799939 C146.559,174.909939 146.946,175.031939 147.39,175.164939 C148.668,175.544939 150.152,175.926939 151.823,176.282939 C156.339,177.245939 161.35,177.846939 166.732,177.910939 C167.285,177.916939 167.727,178.369939 167.720082,178.922939 C167.714,179.474939 167.261,179.916939 166.709,179.910939 C161.188,179.845939 156.046,179.227939 151.406,178.238939 C149.681,177.870939 148.147,177.476939 146.819,177.080939 C146.352,176.941939 145.944,176.812939 145.596,176.695939 C145.384,176.624939 145.237,176.572939 145.158,176.542939 Z M60.439,397.096939 C59.951,396.838939 59.346,397.025939 59.088,397.513939 C59.053,397.579939 58.985,397.707939 58.886,397.893939 C58.72,398.205939 58.525,398.567939 58.305,398.974939 C57.676,400.139939 56.965,401.438939 56.188,402.837939 C53.966,406.832939 51.656,410.827939 49.376,414.554939 C48.349,416.232939 47.35,417.820939 46.385,419.303939 C42.555,425.190939 39.415,429.188939 37.334,430.648939 C36.882,430.965939 36.772,431.588939 37.09,432.041939 C37.407,432.493939 38.03,432.602939 38.483,432.285939 C40.85,430.624939 44.087,426.502939 48.061,420.394939 C49.037,418.894939 50.046,417.291939 51.082,415.597939 C53.378,411.845939 55.702,407.826939 57.936,403.808939 C58.717,402.402939 59.432,401.097939 60.065,399.925939 C60.287,399.514939 60.483,399.150939 60.65,398.835939 C60.751,398.646939 60.821,398.515939 60.857,398.447939 C61.114,397.959939 60.928,397.354939 60.439,397.096939 Z M76.077,405.103939 C76.354,404.625939 76.966,404.462939 77.444,404.739939 C77.922,405.015939 78.085,405.627939 77.809,406.105939 C77.773,406.167939 77.704,406.285939 77.604,406.456939 C77.437,406.740939 77.242,407.069939 77.022,407.439939 C76.391,408.496939 75.677,409.674939 74.891,410.941939 C72.646,414.564939 70.282,418.187939 67.907,421.571939 C66.338,423.807939 64.816,425.864939 63.355,427.706939 C59.985,431.956939 57.055,434.932939 54.633,436.375939 C54.158,436.658939 53.545,436.503939 53.262,436.028939 C52.979,435.554939 53.135,434.940939 53.609,434.657939 C55.767,433.371939 58.558,430.536939 61.788,426.463939 C63.222,424.654939 64.722,422.628939 66.27,420.422939 C68.621,417.073939 70.965,413.480939 73.191,409.888939 C73.97,408.630939 74.679,407.463939 75.304,406.415939 C75.522,406.049939 75.714,405.724939 75.879,405.444939 C75.977,405.277939 76.044,405.162939 76.077,405.103939 Z M74.187,436.672939 C74.577,437.063939 75.211,437.062939 75.601,436.671939 C75.649,436.623939 75.74,436.531939 75.872,436.397939 C76.091,436.175939 76.344,435.915939 76.629,435.620939 C77.442,434.779939 78.348,433.823939 79.323,432.772939 C82.11,429.767939 84.897,426.590939 87.5,423.383939 C89.414,421.025939 91.156,418.737939 92.688,416.549939 C94.882,413.414939 96.603,410.544939 97.774,407.988939 C98.004,407.486939 97.784,406.893939 97.282,406.663939 C96.78,406.433939 96.186,406.653939 95.956,407.155939 C94.842,409.587939 93.18,412.359939 91.05,415.402939 C89.547,417.548939 87.833,419.799939 85.947,422.123939 C83.374,425.292939 80.616,428.437939 77.857,431.412939 C76.891,432.453939 75.995,433.398939 75.191,434.230939 C74.91,434.521939 74.661,434.776939 74.446,434.995939 C74.318,435.125939 74.23,435.214939 74.186,435.258939 C73.795,435.649939 73.796,436.282939 74.187,436.672939 Z" id="Shape" fill="#d7a17c"/><path d="M179.698,21.4229395 C179.698,21.4229395 159.449,43.2549395 129,21.7959395 C129,21.7959395 157.328,19.5609395 179.698,21.4229395 Z" id="Path" fill="#f7d3bb"/><path d="M245.5,0.137939458 C212.5,-2.86206054 201.264,43.6699395 188.5,81.4379395 L186.5,84.1379395 L191.5,83.6379395 L195,77.7579395 C197.333,76.5909395 202.8,72.1579395 206,63.7579395 C209.2,55.3579395 213,61.1379395 218,56.6379395 C221,53.1379395 222.4,45.3379395 228,44.1379395 C233.6,42.9379395 234.5,44.6379395 239,40.6379395 C246.823,39.8909395 252.892,30.6709395 250,25.6379395 C265.288,25.0989395 270.522,2.41293946 245.5,0.137939458 Z" id="Path" fill="#F4F0F0" fill-rule="nonzero"/></g></g></g></g></g><g id="Floor Objects" transform="translate(94.000000, 969.000000) scale(1 1)"><defs><polygon id="floor-objectspresents-path-1" points="0 0.147 129.5 0.147 129.5 211 0 211"/><polygon id="floor-objectspresents-path-3" points="0 0.982 156 0.982 156 146.982 0 146.982"/></defs><g id="Floor Objects/Presents" stroke="none" stroke-width="1" fill="none" fill-rule="evenodd"><g id="Presents" transform="translate(34.000000, 151.000000)"><polygon id="Path" fill="#F2B08F" fill-rule="nonzero" points="0 43.147 129.5 43.147 129.5 254 0 254"/><g id="Clipped" transform="translate(0.000000, 43.000000)"><mask id="floor-objectspresents-mask-2" fill="#ffffff"><use xlink:href="#floor-objectspresents-path-1" fill="#ffffff"/></mask><g id="Path"/><g id="Group" mask="url(#floor-objectspresents-mask-2)" fill="#E74B33" fill-rule="nonzero"><g transform="translate(-44.000000, -18.000000)" id="Path"><polygon points="139.732 0.616 162.058 17.884 23.06755 197.574 0.7424 180.306"/><polygon points="185.642 46.755 210.937 59.276 110.1601 262.87 84.8649 250.349"/></g></g></g><path d="M92.431,43.128 C69.2206,39.479 51.4245,28.741 61.9169,14.383 C74.8063,-3.254 94.029,30.052 92.431,43.128 Z" id="Path" stroke="#E74B33" stroke-width="9.94"/><path d="M100.571,42.755 C125.324,38.18 154.459,28.188 141.649,10.089 C120.652,-19.576 99.815,28.512 100.571,42.755 Z" id="Path" stroke="#E74B33" stroke-width="9.94"/><polygon id="Path" fill="#3973B0" fill-rule="nonzero" points="110 107.982 266 107.982 266 253.982 110 253.982"/><path d="M178.63,104.32 C157.614,101.016 122.32,91.846 149.276,81.604 C176.232,71.361 180.077,92.48 178.63,104.32 Z" id="Path" stroke="#94C0E9" stroke-width="9"/><path d="M183.656,106.306 C199.517,103.88 225.081,101.749 214.706,85.989 C203.213,68.532 185.252,97.159 183.656,106.306 Z" id="Path" stroke="#94C0E9" stroke-width="9"/><g id="Clipped" transform="translate(110.000000, 107.000000)"><mask id="floor-objectspresents-mask-4" fill="#ffffff"><use xlink:href="#floor-objectspresents-path-3" fill="#ffffff"/></mask><g id="Path"/><g id="Group" mask="url(#floor-objectspresents-mask-4)" fill="#F3705A" fill-rule="nonzero"><g transform="translate(-8.000000, 26.000000)" id="Oval"><circle cx="13" cy="81.982" r="13"/><circle cx="63" cy="113.982" r="13"/><circle cx="87" cy="61" r="13"/><circle cx="110" cy="101" r="13"/><circle cx="157" cy="115" r="13"/><circle cx="164" cy="51.982" r="13"/><circle cx="114" cy="14.982" r="13"/><circle cx="33" cy="13.982" r="13"/><circle cx="46" cy="54.982" r="13"/></g></g></g><rect id="Rectangle" fill="#94C0E9" fill-rule="nonzero" x="102" y="107.982" width="177" height="34"/><rect id="Rectangle" fill="#5BA092" fill-rule="nonzero" x="229" y="154" width="102" height="100"/><polyline id="Path" stroke="#E74B33" stroke-width="2" stroke-linecap="round" points="331 186.5 285.5 209 331 167"/><polyline id="Path" stroke="#E74B33" stroke-width="2" stroke-linecap="round" points="332 208 290 208 332 231"/><polyline id="Path" stroke="#E74B33" stroke-width="2" stroke-linecap="round" points="228 187 271.5 201 228 205"/><polyline id="Path" stroke="#E74B33" stroke-width="2" stroke-linecap="round" points="229 221 283 206 229 246"/><polygon id="Path" fill="#F3705A" fill-rule="nonzero" points="290.558 191.633 287.004 177.32 281.247 187.573 268.547 179.588 269.252 194.889 257.194 197.748 265.445 208.447 258.012 217.475 274.33 218.01 281.937 230.484 285.893 217.93 299.7 225.01 297.549 210.821 308.52 209.662 298.771 200.857 300.692 188.448"/></g></g></g><g id="Floor Objects" transform="translate(2011.000000, 1171.500000) scale(-1, 1) translate(-2011.000000, -1171.500000) translate(1811.000000, 969.000000) scale(1 1)"><defs><path d="M36.045,55.449 C39.69,41.845 53.673,33.773 67.276,37.418 C80.88,41.063 88.953,55.045 85.308,68.649 L51.34,195.419 L88.61,195.419 L120.081,77.966 C128.872,45.158 109.402,11.435 76.594,2.644 C43.786,-6.147 10.063,13.323 1.272,46.131 C-1.301,55.734 4.398,65.604 14,68.177 C23.602,70.75 33.472,65.051 36.045,55.449 Z" id="floor-objectscandy-canes-path-1"/><path d="M119.839,73.265 C116.769,50.933 96.176,35.319 73.845,38.39 C51.514,41.461 35.8999,62.053 38.9705,84.384 L66.888,287.419 L28.5308,287.419 L1.3248,89.561 C-4.6047,46.438 25.5462,6.674 68.669,0.744 C111.791,-5.185 151.556,24.966 157.485,68.088 C158.914,78.484 151.646,88.07 141.25,89.499 C130.855,90.929 121.269,83.66 119.839,73.265 Z" id="floor-objectscandy-canes-path-3"/></defs><g id="Floor Objects/Candy Canes" stroke="none" stroke-width="1" fill="none" fill-rule="evenodd"><g id="Present" transform="translate(45.000000, 117.000000)"><path d="M127.839,73.265 C124.769,50.933 104.176,35.319 81.845,38.39 C59.514,41.461 43.8999,62.053 46.9705,84.384 L74.888,287.419 L36.5308,287.419 L9.3248,89.561 C3.3953,46.438 33.5462,6.674 76.669,0.744 C119.791,-5.185 159.556,24.966 165.485,68.088 C166.914,78.484 159.646,88.07 149.25,89.499 C138.855,90.929 129.269,83.66 127.839,73.265 Z" id="Path" fill="#E74B33" fill-rule="nonzero"/><path d="M200.045,147.449 C203.69,133.845 217.673,125.773 231.276,129.418 C244.88,133.063 252.953,147.045 249.308,160.649 L215.34,287.419 L252.61,287.419 L284.081,169.966 C292.872,137.158 273.402,103.435 240.594,94.644 C207.786,85.853 174.063,105.323 165.272,138.131 C162.699,147.734 168.398,157.604 178,160.177 C187.602,162.75 197.472,157.051 200.045,147.449 Z" id="Path" fill="#E74B33" fill-rule="nonzero"/><g id="Clipped" transform="translate(164.000000, 92.000000)"><mask id="floor-objectscandy-canes-mask-2" fill="#ffffff"><use xlink:href="#floor-objectscandy-canes-path-1" fill="#ffffff"/></mask><g id="Path"/><g id="Group" mask="url(#floor-objectscandy-canes-mask-2)" stroke="#F4F0F0" stroke-width="29"><g transform="translate(11.000000, -7.000000)" id="Path"><line x1="33" y1="199" x2="101" y2="191"/><line x1="45" y1="145" x2="120" y2="133"/><line x1="51" y1="92" x2="120" y2="72"/><line x1="91" x2="50" y2="70"/><line y1="6" x2="38" y2="74"/></g></g></g><g id="Clipped" transform="translate(8.000000, 0.000000)"><mask id="floor-objectscandy-canes-mask-4" fill="#ffffff"><use xlink:href="#floor-objectscandy-canes-path-3" fill="#ffffff"/></mask><g id="Path"/><g id="Group" mask="url(#floor-objectscandy-canes-mask-4)" stroke="#F4F0F0" stroke-width="29"><g transform="translate(-17.000000, -12.000000)" id="Path"><line x1="27" y1="255" x2="96" y2="265"/><line x1="18" y1="195" x2="91" y2="207"/><line x1="12" y1="136" x2="84" y2="147"/><line y1="76" x2="77" y2="99"/><line x1="46" y1="18" x2="80" y2="70"/><line x1="117" x2="108" y2="72"/><line x1="170" y1="34" x2="132" y2="94"/></g></g></g><line x1="0" y1="287.419" x2="119.5" y2="287.419" id="Path" stroke="#E3D4C5" stroke-width="6" stroke-linecap="round"/><line x1="175" y1="287.419" x2="294.5" y2="287.419" id="Path" stroke="#E3D4C5" stroke-width="6" stroke-linecap="round"/></g></g></g></g></svg>