<svg viewBox="210 180 180.00000000000017 247.50000000000006" fill="none" xmlns="http://www.w3.org/2000/svg" xmlns:xlink="http://www.w3.org/1999/xlink" overflow="visible" width="180.00000000000017px" height="247.50000000000006px"><g id="Master/Stickers/Christmas"><g id="chistmas"><g id="stickers_expanded"><path id="Path" d="M355.71 399C354.3 394.57 352.95 390.16 351.65 385.88C348.52 375.65 345.54 365.88 341.85 355.97C343.661 356.264 345.497 356.381 347.33 356.32C348.191 356.611 349.141 356.286 349.641 355.527C350.142 354.768 350.067 353.767 349.46 353.09C347.54 349.66 345.78 346.09 344.08 342.55C342.38 339.01 340.75 335.73 338.89 332.36C336.13 327.36 331.34 315.36 328.89 309.08C333.382 310.604 337.977 311.804 342.64 312.67C343.427 312.774 344.2 312.403 344.612 311.725C345.023 311.047 344.995 310.19 344.54 309.54C341.44 305.07 338.4 299.93 335.47 294.96C334.27 292.96 333.08 290.96 331.9 288.96C327.57 281.81 318.9 266.44 314.74 259.1C317.91 259.9 322.02 260.96 324.61 261.68C325.397 261.896 326.236 261.613 326.731 260.965C327.226 260.316 327.277 259.431 326.86 258.73C324.86 255.33 322.52 251.94 320.29 248.66C317.88 245.13 315.39 241.49 313.29 237.9L312.59 236.67C307.59 227.99 301.9 218.15 296.34 203.07C296.045 202.276 295.281 201.754 294.434 201.768C293.587 201.781 292.84 202.327 292.57 203.13C284.69 226.49 265.73 253.74 265.57 254C265.114 254.645 265.081 255.498 265.485 256.177C265.89 256.856 266.656 257.233 267.44 257.14C269.06 256.95 271.82 256.46 274.26 256.04H274.36C273.97 256.88 273.58 257.72 273.2 258.56C270.59 264.22 267.89 270.08 265.53 276.14C261.28 287.06 249.71 307.3 249.59 307.51C249.245 308.103 249.227 308.831 249.544 309.44C249.86 310.048 250.467 310.452 251.15 310.51C255.26 310.88 259.05 309.78 262.71 308.64C260.43 313.03 258.3 317.21 256.22 321.3C250.12 333.3 244.36 344.62 236.64 357.52C236.225 358.224 236.28 359.111 236.78 359.759C237.28 360.406 238.124 360.684 238.91 360.46C243.5 359.12 246.57 358.46 250.47 357.65C249.61 359.74 248.65 362.28 247.62 365.04C245.81 369.86 243.76 375.32 241.85 379.04C237.617 387.395 234.007 396.052 231.05 404.94C230.852 405.518 230.93 406.156 231.26 406.67C231.593 407.188 232.147 407.524 232.76 407.58C235.39 407.83 237.92 408.17 240.37 408.49C243.31 408.89 246.08 409.26 248.95 409.49C251.82 409.72 254.41 409.93 257.03 410.16C263.98 410.76 270.55 411.33 278.15 411.41H280C292.154 411.301 304.291 410.487 316.35 408.97C329.58 407.31 347.35 403.82 354.41 401.49C355.452 401.155 356.031 400.046 355.71 399Z" fill="#007D43"/><path id="Path_2" d="M284 250C283.965 249.58 283.827 249.175 283.6 248.82C283.425 248.475 283.172 248.177 282.86 247.95C282.55 247.675 282.175 247.486 281.77 247.4C281.338 247.257 280.877 247.226 280.43 247.31L279.88 247.46H279.75C279.47 247.581 279.208 247.739 278.97 247.93C277.862 248.545 277.233 249.767 277.375 251.026C277.517 252.286 278.403 253.336 279.62 253.69C280.049 253.902 280.522 254.008 281 254C281.133 254.01 281.267 254.01 281.4 254C282.899 253.865 284.046 252.605 284.04 251.1C284.075 250.821 284.075 250.539 284.04 250.26L284 250Z" fill="#FCD400"/><path id="Path_3" d="M292.1 316.76C292.509 316.762 292.916 316.708 293.31 316.6C295.334 316.074 296.742 314.241 296.73 312.15C296.66 310.003 295.174 308.162 293.09 307.64C292.349 307.481 291.577 307.591 290.91 307.95C290.158 307.997 289.448 308.313 288.91 308.84C287.853 309.884 287.365 311.374 287.6 312.84C287.585 313.01 287.585 313.18 287.6 313.35C287.632 314.183 287.991 314.97 288.6 315.54C289.034 315.926 289.561 316.192 290.13 316.31C290.746 316.601 291.418 316.755 292.1 316.76V316.76Z" fill="#FCD400"/><path id="Path_4" d="M267.911 290.5C266.996 290.325 266.05 290.539 265.301 291.09C263.916 292.091 263.275 293.831 263.681 295.49C263.623 296.649 264.277 297.726 265.331 298.21C265.912 298.477 266.542 298.62 267.181 298.63C267.518 298.629 267.854 298.586 268.181 298.5C268.918 298.312 269.592 297.928 270.131 297.39C271.435 296.043 271.65 293.978 270.651 292.39C270.036 291.411 269.045 290.727 267.911 290.5V290.5Z" fill="#FCD400"/><path id="Path_5" d="M297.48 354.3V354.3C296.234 352.797 294.199 352.204 292.34 352.8C291.166 353.206 290.327 354.247 290.18 355.48C290.053 355.706 289.959 355.948 289.9 356.2C289.437 358.206 290.431 360.265 292.29 361.15C292.858 361.41 293.475 361.543 294.1 361.54C295.623 361.535 297.034 360.735 297.82 359.43C298.803 357.82 298.667 355.766 297.48 354.3V354.3Z" fill="#FCD400"/><path id="Path_6" d="M322.29 296.25C322.912 295.812 323.364 295.173 323.57 294.44C323.615 294.233 323.641 294.022 323.65 293.81C323.7 293.392 323.67 292.968 323.56 292.56L323.23 291.35C322.997 290.552 322.452 289.881 321.718 289.49C320.984 289.098 320.123 289.019 319.33 289.27C319.051 289.375 318.786 289.513 318.54 289.68C317.051 290.307 316.128 291.815 316.248 293.426C316.368 295.037 317.504 296.392 319.07 296.79C319.417 296.893 319.778 296.944 320.14 296.94C320.914 296.957 321.67 296.714 322.29 296.25V296.25Z" fill="#FC6E47"/><path id="Path_7" d="M255.32 348.58L254.99 347.36C254.753 346.585 254.226 345.93 253.52 345.53C252.779 345.117 251.899 345.03 251.09 345.29C250.808 345.387 250.542 345.525 250.3 345.7C248.822 346.336 247.909 347.839 248.029 349.444C248.149 351.049 249.274 352.401 250.83 352.81C251.179 352.905 251.539 352.952 251.9 352.95C252.675 352.971 253.433 352.728 254.05 352.26C254.672 351.828 255.121 351.191 255.32 350.46C255.374 350.255 255.401 350.043 255.4 349.83C255.46 349.413 255.432 348.987 255.32 348.58V348.58Z" fill="#FC6E47"/><path id="Path_8" d="M327.2 342.81C326.583 341.843 325.597 341.17 324.47 340.95C323.556 340.77 322.608 340.984 321.86 341.54C320.477 342.538 319.837 344.274 320.24 345.93C320.18 347.09 320.835 348.168 321.89 348.65C322.471 348.917 323.101 349.06 323.74 349.07C324.078 349.069 324.414 349.026 324.74 348.94C325.478 348.752 326.152 348.368 326.69 347.83C328.002 346.477 328.213 344.4 327.2 342.81V342.81Z" fill="#FC6E47"/><path id="Path_9" d="M293.07 227.07C292.156 226.894 291.21 227.108 290.46 227.66C289.073 228.659 288.432 230.4 288.84 232.06C288.789 233.217 289.44 234.291 290.49 234.78C291.071 235.046 291.701 235.189 292.34 235.2C292.678 235.199 293.014 235.155 293.34 235.07C294.078 234.881 294.751 234.498 295.29 233.96C296.595 232.612 296.81 230.547 295.81 228.96C295.195 227.98 294.204 227.297 293.07 227.07V227.07Z" fill="#FC6E47"/><path id="Path_10" d="M290.68 382.891C289.572 382.912 288.519 383.375 287.754 384.177C286.99 384.979 286.578 386.053 286.61 387.161C286.614 389.204 288.035 390.97 290.03 391.411C291.061 391.568 292.108 391.26 292.89 390.571C293.626 390.33 294.25 389.833 294.65 389.171C294.988 388.56 295.154 387.868 295.13 387.171C295.112 386.032 294.632 384.949 293.8 384.171C292.969 383.35 291.848 382.89 290.68 382.891Z" fill="#FC6E47"/><path id="Path_11" d="M292.27 282.2V282.2C291.123 281.523 289.671 281.66 288.67 282.54C286.903 283.574 286.034 285.652 286.54 287.636C287.046 289.62 288.804 291.029 290.85 291.09C291.037 291.105 291.224 291.105 291.41 291.09C293.48 290.77 294.71 288.46 294.67 286.51C294.657 284.758 293.753 283.134 292.27 282.2Z" fill="#91D5DD"/><path id="Path_12" d="M301.7 333.81C301.286 333.655 300.837 333.613 300.4 333.69C299.954 333.619 299.497 333.66 299.07 333.81C297.034 334.478 295.73 336.466 295.93 338.6C296.16 340.861 298.057 342.586 300.33 342.6H300.52C302.834 342.547 304.721 340.73 304.86 338.42C304.918 337.483 304.687 336.552 304.2 335.75C303.618 334.833 302.734 334.147 301.7 333.81V333.81Z" fill="#91D5DD"/><path id="Path_13" d="M310.14 241.83V241.83C309.72 241.155 309.076 240.649 308.32 240.4C308.002 240.278 307.657 240.243 307.32 240.3C306.985 240.248 306.641 240.279 306.32 240.39C304.824 240.887 303.87 242.351 304.02 243.92C304.165 245.61 305.574 246.911 307.27 246.92H307.4C309.102 246.872 310.488 245.538 310.6 243.84C310.66 243.139 310.499 242.436 310.14 241.83V241.83Z" fill="#91D5DD"/><path id="Path_14" d="M276.25 363.65C274.625 362.88 272.685 363.289 271.51 364.65C270.273 366.051 270.23 368.141 271.41 369.59C272.182 370.532 273.332 371.081 274.55 371.09C274.973 371.093 275.393 371.018 275.79 370.87C276.286 370.687 276.731 370.389 277.09 370C277.314 369.873 277.513 369.707 277.68 369.51C278.178 368.936 278.467 368.21 278.5 367.45C278.58 365.847 277.694 364.351 276.25 363.65Z" fill="#91D5DD"/><path id="Path_15" d="M273.94 325.73C273.026 325.543 272.075 325.758 271.33 326.32C269.939 327.311 269.293 329.051 269.7 330.71C269.646 331.868 270.299 332.943 271.35 333.43C271.936 333.695 272.568 333.838 273.21 333.85C273.548 333.853 273.884 333.813 274.21 333.73C274.946 333.537 275.616 333.151 276.15 332.61C277.48 331.274 277.697 329.191 276.67 327.61C276.057 326.636 275.07 325.956 273.94 325.73Z" fill="#FF9BA5"/><path id="Path_16" d="M321.1 313.44V313.44C319.475 312.67 317.536 313.079 316.36 314.44C315.123 315.841 315.081 317.931 316.26 319.38C317.031 320.324 318.182 320.874 319.4 320.88C319.824 320.882 320.244 320.807 320.64 320.66C321.132 320.47 321.576 320.172 321.94 319.79C322.16 319.657 322.359 319.492 322.53 319.3C323.021 318.721 323.309 317.998 323.35 317.24C323.431 315.637 322.545 314.141 321.1 313.44Z" fill="#FF9BA5"/><path id="Path_17" d="M304.51 260.09V260.09C302.824 259.476 300.935 260.061 299.89 261.52C298.796 263.037 298.961 265.124 300.28 266.45C301.047 267.217 302.085 267.652 303.17 267.66C303.725 267.665 304.274 267.538 304.77 267.29C305.244 267.057 305.655 266.714 305.97 266.29C306.177 266.139 306.359 265.957 306.51 265.75C306.944 265.127 307.158 264.378 307.12 263.62C307.031 262.028 306.006 260.642 304.51 260.09Z" fill="#FF9BA5"/><path id="Path_18" d="M310.76 190C310.448 189.285 309.75 188.817 308.97 188.8C308.76 188.8 304.34 188.7 301.03 188.8L297.15 180.86C296.79 180.122 296.015 179.678 295.196 179.742C294.377 179.806 293.681 180.365 293.44 181.15C292.31 184.88 290.59 189.36 289.76 190.31C288.7 190.75 284.11 191.85 280.27 192.68C279.466 192.857 278.852 193.509 278.724 194.322C278.595 195.136 278.979 195.945 279.69 196.36C279.69 196.36 283.48 198.55 286.13 200.06C284.73 203.18 282.28 207.51 282.25 207.56C281.808 208.343 281.943 209.325 282.58 209.96C282.953 210.336 283.46 210.548 283.99 210.55C284.34 210.55 284.684 210.46 284.99 210.29L294.38 204.97C296.93 205.97 301.72 208.1 303.38 209.46C304.029 209.979 304.93 210.042 305.645 209.62C306.36 209.198 306.74 208.379 306.6 207.56C305.927 204.343 305.089 201.162 304.09 198.03C306.339 196.244 308.443 194.281 310.38 192.16C310.925 191.58 311.075 190.732 310.76 190Z" fill="#FCD400"/><path id="Path_19" d="M383.84 394.61C383.84 392.9 383.52 389.16 382.96 383.49C382.527 379.258 379.032 375.998 374.78 375.86C370.51 375.73 364.78 375.59 361.78 375.66C359.02 375.73 352.7 375.92 349.4 376.03C347.186 376.091 345.379 377.821 345.22 380.03L343.61 402.2C343.435 404.527 345.139 406.573 347.46 406.82C350.87 407.18 356.89 407.82 358.91 407.89L360.83 407.97C363.83 408.09 366.83 408.21 369.83 408.21C370.57 408.21 371.3 408.21 372.03 408.21C374.1 408.084 376.157 407.789 378.18 407.33C381.245 406.707 383.498 404.085 383.65 400.96C383.79 397.87 383.85 395.73 383.84 394.61Z" fill="#484882"/><path id="Shape" fill-rule="evenodd" clip-rule="evenodd" d="M382.91 389.7C378.52 388.7 372.67 388.97 368.06 389.27V386.6C368.168 383.331 368.607 380.081 369.37 376.9C370.144 376.586 371.018 376.626 371.76 377.01C373.184 378.018 374.062 379.628 374.14 381.37C374.21 382.085 374.655 382.708 375.309 383.005C375.962 383.302 376.725 383.228 377.309 382.81C377.893 382.392 378.21 381.695 378.14 380.98C377.947 378.237 376.617 375.699 374.47 373.98C377.47 372.26 380.47 370.06 381.06 366.67C381.38 365.396 381.179 364.046 380.502 362.92C379.824 361.794 378.726 360.985 377.45 360.67C374.992 360.044 372.385 360.711 370.53 362.44C370.463 362.311 370.386 362.188 370.3 362.07C369.552 361.041 368.372 360.414 367.1 360.37C366.888 360.336 366.672 360.336 366.46 360.37C364.03 360.94 362.46 362.14 361.73 363.92C360.28 367.53 363.2 372 365.34 375.26L365.56 375.61C364.693 379.153 364.197 382.776 364.08 386.42V389.42L361.52 389.56C355.989 389.712 350.475 390.254 345.02 391.18C343.915 391.283 343.103 392.261 343.205 393.365C343.307 394.47 344.285 395.283 345.39 395.18C345.516 395.19 345.643 395.19 345.77 395.18C351.043 394.289 356.373 393.771 361.72 393.63L364.09 393.5C364.15 398.19 364.37 402.87 364.77 407.31C364.863 408.344 365.732 409.135 366.77 409.13H366.95C367.481 409.085 367.972 408.829 368.314 408.42C368.656 408.01 368.82 407.481 368.77 406.95C368.37 402.56 368.15 397.95 368.1 393.26C372.45 392.97 378.1 392.65 382.02 393.57C382.726 393.765 383.481 393.558 383.99 393.032C384.498 392.505 384.679 391.743 384.46 391.044C384.241 390.346 383.658 389.823 382.94 389.68L382.91 389.7ZM372.82 366.1C373.377 365.064 374.475 364.436 375.65 364.48C375.896 364.479 376.142 364.509 376.38 364.57C376.97 364.74 377.3 365.03 377.13 365.98C376.75 368.15 373.69 369.92 370.94 371.36C371.493 369.66 372.12 367.907 372.82 366.1ZM367.03 364.49C366.387 364.59 365.815 364.952 365.45 365.49C365.13 366.29 365.53 367.57 366.18 368.97C366.205 368.866 366.232 368.761 366.26 368.656C366.287 368.551 366.315 368.446 366.34 368.34C366.765 367.1 366.998 365.802 367.03 364.49Z" fill="#8395FF"/><path id="Path_20" d="M278.141 396.69C278.041 395.26 277.971 393.85 277.901 392.45C277.651 387.45 277.391 382.33 275.801 377.17C275.568 376.401 274.899 375.846 274.101 375.76C268.78 375.312 263.436 375.195 258.101 375.41C254.251 375.48 250.271 375.56 246.371 375.41C240.681 375.13 219.931 376.35 219.051 376.41C218.034 376.469 217.225 377.283 217.171 378.3C217.121 379.21 216.001 400.68 217.681 412.61C217.783 413.34 218.279 413.955 218.971 414.21C219.381 414.36 229.171 417.93 235.781 418.9C241.188 419.697 246.645 420.101 252.111 420.11C254.981 420.11 257.811 419.99 260.581 419.76C265.661 419.32 275.931 417.76 276.361 417.76C277.31 417.616 278.023 416.819 278.061 415.86C278.131 415.26 278.611 403.31 278.141 396.69Z" fill="#C44538"/><path id="Shape_2" fill-rule="evenodd" clip-rule="evenodd" d="M276.12 384.41C277.216 384.281 278.21 385.065 278.34 386.16C278.502 387.247 277.756 388.261 276.67 388.43H276.33C267.705 389.529 259.024 390.147 250.33 390.28H248.19L246.73 390.23C246.59 399.9 247.06 411.55 248.39 417.9C248.5 418.42 248.398 418.962 248.107 419.407C247.816 419.852 247.36 420.162 246.84 420.27C246.704 420.281 246.567 420.281 246.43 420.27C245.468 420.291 244.627 419.623 244.43 418.68C242.99 411.82 242.5 399.92 242.67 390C240.73 389.88 238.82 389.72 236.92 389.54C236.853 390.807 236.876 392.077 236.99 393.34C237.04 393.87 236.877 394.397 236.538 394.806C236.198 395.215 235.71 395.472 235.18 395.52H235C233.962 395.525 233.094 394.734 233 393.7C232.858 392.174 232.841 390.639 232.95 389.11C230.429 388.855 227.916 388.532 225.359 388.204L225.359 388.204L225.358 388.204L224.63 388.11C222.24 387.8 219.81 387.49 217.31 387.19C216.206 387.061 215.415 386.06 215.545 384.955C215.675 383.851 216.676 383.061 217.78 383.19C220.29 383.49 222.73 383.8 225.15 384.11C226.343 384.25 227.526 384.394 228.703 384.538L228.703 384.538L228.703 384.538C230.318 384.735 231.922 384.931 233.53 385.11C234.381 380.473 236.984 376.34 240.8 373.57C235.28 369.66 228.44 364.78 228.16 358.78C227.95 354.27 230.06 353.05 231.34 352.72C235.81 351.55 242.42 358.4 244.42 362.4C245.385 364.41 246.149 366.51 246.7 368.67C247.09 368.01 247.52 367.35 248.01 366.67C250.183 363.677 252.938 361.153 256.11 359.25L256.69 358.92L256.694 358.918C259.204 357.498 262.982 355.361 265.79 356.81C267.237 357.627 268.143 359.149 268.17 360.81C268.66 365.397 263.159 368.835 260.516 370.487L260.51 370.49C258.689 371.583 256.786 372.536 254.82 373.34C257.54 375.4 258.88 378.87 259.47 380.98C259.735 382.032 259.115 383.103 258.071 383.395C257.027 383.688 255.94 383.096 255.62 382.06C255.21 380.59 253.98 377.06 251.51 376C250.51 375.599 249.398 375.574 248.38 375.93L247.57 376.27C247.09 379.546 246.823 382.85 246.77 386.16L248.22 386.21C257.433 386.213 266.636 385.612 275.77 384.41H276.12ZM258.04 362.83C255.389 364.457 253.082 366.587 251.25 369.1C250.77 369.76 250.35 370.4 250 371C252.912 369.948 255.731 368.657 258.43 367.14C262.43 364.64 264.38 362.67 264.23 361.28C264.225 360.986 264.146 360.697 264 360.44C263.892 360.398 263.776 360.377 263.66 360.38C263.04 360.38 261.66 360.76 258.66 362.48L258.04 362.83ZM232.16 358.66C232.088 357.988 232.152 357.307 232.35 356.66C233.72 356.33 238.94 360.44 240.84 364.25C241.754 366.171 242.465 368.182 242.96 370.25L242.849 370.171C238.321 366.93 232.339 362.648 232.16 358.66ZM243.48 376.63C240.366 378.694 238.206 381.916 237.48 385.58C239.23 385.75 241 385.9 242.77 386.01C242.91 382.23 243.15 378.94 243.48 376.63Z" fill="#FCD400"/><path id="Path_21" d="M356.941 370.31C354.371 369.1 351.041 368.96 348.101 368.84L346.661 368.77C341.941 368.52 337.051 368.26 332.321 368.46L329.521 368.58C321.516 368.73 313.529 369.398 305.611 370.58C304.708 370.732 304.025 371.478 303.951 372.39C303.511 378.921 303.561 385.476 304.101 392C304.321 394.63 304.491 397.59 304.671 400.74C304.921 405.18 305.191 409.74 305.611 414.26C305.697 415.177 306.399 415.916 307.311 416.05C316.338 417.367 325.448 418.035 334.571 418.05C341.296 418.078 348.016 417.637 354.681 416.73C355.513 416.614 356.184 415.991 356.361 415.17C356.904 412.603 357.315 410.009 357.591 407.4L357.931 404.62C358.8 397.345 359.234 390.026 359.231 382.7C359.231 380.5 359.391 378.37 359.541 376.39C359.541 376.02 359.611 375.68 359.641 375.39C359.891 373.41 359.861 371.69 356.941 370.31Z" fill="#91D5DD"/><path id="Shape_3" fill-rule="evenodd" clip-rule="evenodd" d="M360.61 365.53C358.726 364.185 356.517 363.366 354.21 363.16C357.12 361.11 358.99 358.73 359.07 355.88C359.222 354.212 358.456 352.592 357.07 351.65C355.32 350.5 352.66 350.55 349.96 351.81C347.82 352.8 345.789 354.01 343.9 355.42C344.41 353.608 344.322 351.679 343.65 349.92C342.993 348.523 341.727 347.508 340.22 347.17C338.07 346.499 335.727 347.223 334.33 348.99C331.75 352.25 332.07 358.84 332.98 363.74C329.438 362.382 325.61 361.938 321.85 362.45C321.122 362.543 320.503 363.028 320.238 363.713C319.973 364.398 320.105 365.173 320.581 365.732C321.058 366.291 321.802 366.543 322.52 366.39C325.95 365.81 332.52 366.81 334.75 369.62C334.779 369.664 334.812 369.705 334.85 369.74C334.974 369.872 335.116 369.987 335.27 370.08C335.27 374.2 335.16 379.36 334.98 384.6C324.698 385.609 314.504 387.371 304.48 389.87C303.483 390.097 302.817 391.041 302.938 392.057C303.059 393.073 303.927 393.834 304.95 393.82C305.109 393.821 305.267 393.801 305.42 393.76C315.088 391.352 324.917 389.641 334.83 388.64C334.71 391.58 334.56 394.47 334.37 397.14C333.95 403.3 333.22 410.05 332.37 416.14C332.293 416.666 332.428 417.2 332.745 417.626C333.062 418.052 333.535 418.334 334.06 418.41H334.35C335.351 418.421 336.205 417.691 336.35 416.7C337.25 410.51 337.99 403.65 338.42 397.38C338.62 394.51 338.78 391.38 338.91 388.2C344.61 387.66 351.26 387.37 357.84 387.37C357.927 387.36 358.014 387.36 358.1 387.37C359.205 387.37 360.1 386.475 360.1 385.37C360.1 384.266 359.205 383.37 358.1 383.37C351.48 383.37 344.82 383.64 339.05 384.17C339.22 378.86 339.3 373.69 339.32 369.6C341.64 368.88 343.94 368.1 346.1 367.26C350.77 366.59 355.88 366.8 358.1 368.61C358.957 369.305 360.214 369.175 360.91 368.32C361.589 367.465 361.455 366.223 360.61 365.53ZM336.86 362.71C336.18 358.61 335.99 353.36 337.48 351.47C337.726 351.128 338.13 350.936 338.55 350.96C338.793 350.964 339.035 350.998 339.27 351.06C339.81 351.19 339.95 351.41 340.04 351.6C341 353.63 338.57 359.15 336.86 362.71ZM340.64 364.35C342.097 363.922 343.58 363.588 345.08 363.35C351.65 360.72 355 358.18 355.06 355.77C355.06 355.58 355.05 355.12 354.87 355C354.623 354.877 354.346 354.821 354.07 354.84C353.226 354.868 352.398 355.076 351.64 355.45C347.281 357.44 343.496 360.502 340.64 364.35Z" fill="#1A4E66"/></g></g></g></svg>