<svg viewBox="-38.250000000000114 102.00000000000011 1096.4999999999998 828.7499999999999" xmlns="http://www.w3.org/2000/svg" xmlns:xlink="http://www.w3.org/1999/xlink" overflow="visible" width="1096.4999999999998px" height="828.7499999999999px"><defs><polygon id="masterspot-illustrationui-design-path-1" points="0 0.855728366 369.150131 0.855728366 369.150131 383.471976 0 383.471976"/><polygon id="masterspot-illustrationui-design-path-3" points="0.44031893 0.957161388 516.594 0.957161388 516.594 167.536028 0.44031893 167.536028"/></defs><g id="Master/Spot Illustration/UI Design" stroke="none" stroke-width="1" fill="none" fill-rule="evenodd"><g id="UI" transform="translate(-28.000000, -17.000000) scale(1 1)"><defs><polygon id="uiscreen-1-path-1" points="0 0.855728366 369.150131 0.855728366 369.150131 383.471976 0 383.471976"/><polygon id="uiscreen-1-path-3" points="0.44031893 0.957161388 516.594 0.957161388 516.594 167.536028 0.44031893 167.536028"/></defs><g id="UI/Screen 1" stroke="none" stroke-width="1" fill="none" fill-rule="evenodd"><g id="Group-27" transform="translate(0.000000, 121.000000)"><path d="M141.6414,537.3606 C141.6414,537.3606 132.2194,584.4716 187.0394,582.7586 L332.2294,508.2366 L391.7614,524.0836 L523.1924,582.0916 C706.7874,582.2956 896.2854,582.8036 896.2854,582.8036 C896.2854,582.8036 950.2494,588.2796 957.9584,530.8896 C964.2334,484.1796 997.1744,201.1836 1009.2194,97.4606 L197.8284,97.4606 C183.5294,213.2456 141.6414,537.3606 141.6414,537.3606" id="Fill-1" fill="#CBB1F4"/><path d="M973.3772,1.139 C918.5562,-1.426 273.5542,1.144 273.5542,1.144 C273.5542,1.144 209.3112,-0.57 201.6022,66.243 C200.7952,73.234 199.5002,83.931 197.8282,97.46 L1009.2192,97.46 C1011.9742,73.742 1013.6362,59.391 1013.6362,59.391 C1013.6362,59.391 1028.1982,3.705 973.3772,1.139" id="Fill-3" fill="#8C72CB"/><path d="M196.9978,441.0413 L187.0398,582.7593 C212.3618,581.9673 365.6028,581.9173 523.1918,582.0923 L535.7398,444.8543 C536.1618,440.2413 532.5498,436.2533 527.9178,436.2173 L204.9568,433.680049 C200.7768,433.6473 197.2908,436.8713 196.9978,441.0413" id="Fill-5" fill="#8C72CB"/><path d="M961.2112,154.9749 C961.7742,150.4859 958.4152,146.4569 953.8962,146.2339 C901.7942,143.6559 719.0492,143.8199 551.0832,144.6119 C539.9452,367.7419 346.4202,394.7859 346.4202,394.7859 C534.0702,398.4429 870.1432,405.1209 922.6972,406.166494 C926.6792,406.2449 930.0672,403.3039 930.5632,399.3519 L961.2112,154.9749 Z" id="Fill-7" fill="#AFDCFD"/><path d="M551.0828,144.6116 L551.0828,144.6116 C408.2958,145.2856 276.1898,146.4126 244.1058,146.6956 C239.9868,146.7316 236.6648,150.0436 236.5928,154.1636 L232.569621,385.0076 C232.4978,389.2006 235.8228,392.6606 240.0158,392.7386 C261.5878,393.1386 299.3368,393.8676 346.4208,394.7856 C346.4208,394.7856 539.9458,367.7416 551.0828,144.6116" id="Fill-9" fill="#70A0E6"/><path d="M566.6331,515.6839 L564.8101,534.3749 C564.3391,539.2009 568.1061,543.3889 572.9531,543.4239 C621.9601,543.7869 855.6291,545.4099 899.8371,543.7969 C903.7431,543.6559 907.0011,540.7949 907.6591,536.9429 L910.9151,517.8729 C911.7751,512.8359 907.8941,508.2369 902.7841,508.2369 L574.8431,508.2369 C570.5971,508.2369 567.0461,511.4589 566.6331,515.6839" id="Fill-11" fill="#8C72CB"/><path d="M573.7717,480.1702 C624.8937,481.2062 859.6157,485.8822 905.4167,485.3402 C909.5147,485.2922 912.9417,482.2442 913.4837,478.1822 L916.4877,455.6492 C917.1357,450.7932 913.4337,446.4462 908.5367,446.3132 L579.4487,437.3302 C575.4337,437.2212 571.9237,440.0202 571.1357,443.9582 L565.8667,470.3062 C564.8587,475.3432 568.6357,480.0662 573.7717,480.1702" id="Fill-13" fill="#8C72CB"/><path d="M247.1389,56.1995 C248.0879,68.9175 268.3989,67.0195 269.3479,55.6525 C270.6099,40.5425 245.9729,40.5785 247.1389,56.1995" id="Fill-15" fill="#4D33A2"/><path d="M311.6892,56.1995 C312.6382,68.9175 332.9492,67.0195 333.8982,55.6525 C335.1602,40.5425 310.5232,40.5785 311.6892,56.1995" id="Fill-17" fill="#4D33A2"/><path d="M378.2449,56.1995 C379.1939,68.9175 399.5049,67.0195 400.4539,55.6525 C401.7159,40.5425 377.0789,40.5785 378.2449,56.1995" id="Fill-19" fill="#4D33A2"/><g id="Group-23" transform="translate(0.000000, 131.945000)"><mask id="uiscreen-1-mask-2" fill="#ffffff"><use xlink:href="#uiscreen-1-path-1" fill="#ffffff"/></mask><g id="Clip-22"/><path d="M175.1536,118.2516 L130.1296,22.4846 C128.5766,19.1826 123.6556,20.0526 123.3296,23.6876 L112.8106,140.9016 C112.6446,142.7466 111.0996,144.1596 109.2476,144.1596 L3.5836,144.1596 C-0.0284,144.1596 -1.3644,148.9026 1.7166,150.7876 L81.1096,199.3656 C82.9836,200.5126 83.3956,203.0576 81.9706,204.7306 C67.8256,221.3526 3.1566,297.4866 5.4456,297.4866 C7.6706,297.4866 89.5156,270.5196 111.4426,263.2806 C113.9376,262.4566 116.4246,264.5186 116.0986,267.1256 L102.0596,379.4396 C101.6146,382.9976 106.0976,384.9246 108.3736,382.1526 L184.0146,290.0356 C185.5276,288.1926 188.3856,288.3186 189.7316,290.2866 L247.7526,375.1436 C249.8376,378.1916 254.6126,376.4656 254.2656,372.7876 L243.0296,253.6876 C242.8536,251.8206 244.1496,250.1346 245.9986,249.8236 L347.6486,232.7586 C351.2016,232.1626 351.7426,227.2796 348.4066,225.9196 L257.3846,188.8106 C254.3436,187.5706 254.4406,183.2316 257.5336,182.1296 L366.7726,143.1646 C370.4366,141.8576 369.6756,136.4676 365.7926,136.2266 L248.5006,128.9406 C246.6746,128.8276 245.2276,127.3536 245.1496,125.5236 L239.9426,4.2826 C239.7806,0.5106 234.6426,-0.4704 233.1026,2.9786 L181.6566,118.1886 C180.4086,120.9826 176.4556,121.0216 175.1536,118.2516" id="Fill-21" fill="#FF71DB" mask="url(#uiscreen-1-mask-2)"/></g><g id="Group-26" transform="translate(560.000000, 205.945000)"><mask id="uiscreen-1-mask-4" fill="#ffffff"><use xlink:href="#uiscreen-1-path-3" fill="#ffffff"/></mask><g id="Clip-25"/><path d="M0.448,84.2975 C0.07,120.1935 13.448,162.0725 84.043,159.0815 C154.639,156.0905 154.639,121.9885 198.313,151.3045 C229.029,171.9215 278.504,177.9815 320.361,138.7395 C339.506,120.7915 375.646,134.1285 404.119,144.1245 C460.356,163.8675 516.433,125.7635 516.594494,78.3155 C516.8,17.3805 452.579,-8.9435 371.812,17.3805 C344.322,26.3405 329.835,17.0775 313.181,11.9065 C280.906,1.8855 253.792,-11.2515 201.304,23.8715 C201.304,23.8715 174.981,47.8025 125.923,20.8805 C76.864,-6.0415 1.16,16.7265 0.448,84.2975" id="Fill-24" fill="#DDF77D" mask="url(#uiscreen-1-mask-4)"/></g></g></g></g><g transform="translate(198.000000, 174.000000) scale(1 1)" id="Master/Character/Standing"><g id="Master/Character/Standing" stroke="none" stroke-width="1" fill="none" fill-rule="evenodd"><g id="Standing/Lower Body" transform="translate(14.000000, 442.000000) scale(1 1)"><g id="Standing/Lower Body/Walking" stroke="none" stroke-width="1" fill="none" fill-rule="evenodd"><g id="Group-332" transform="translate(252.000000, 155.000000) scale(-1, 1) translate(-252.000000, -155.000000) translate(142.000000, 0.000000)"><g id="Group-74" transform="translate(0.000000, 0.142000)"><path d="M189.6183,170.0922 L132.1503,159.5222 C128.7343,158.8932 126.1853,156.0182 125.9723,152.5512 L118.1893,26.2792 C118.1893,12.2392 106.8073,0.8582 92.7673,0.8582 L44.6893,0.8582 C30.6493,0.8582 19.2673,12.2392 19.2673,26.2792 L2.6423,138.3352 C2.6423,138.3352 -9.6607,185.5522 25.9173,199.8502 C61.4963,214.1482 175.5473,242.0782 175.5473,242.0782 L192.1163,173.9452 C192.5443,172.1812 191.4033,170.4202 189.6183,170.0922" id="Fill-34" fill="#5A593D"/><path d="M63.6579,202.5101 L63.6579,279.1541 L133.3189,278.4891 C133.3189,278.4891 135.2309,278.7381 135.1479,275.4951 C135.0639,272.2531 130.4919,202.5101 130.4919,202.5101 L63.6579,202.5101 Z" id="Fill-36" fill="#5A593D"/><path d="M175.5475,242.0785 C175.5475,242.0785 170.0615,258.7035 168.8975,276.4935 C167.7335,294.2825 189.1805,296.7765 194.1685,281.4805 C199.1555,266.1845 205.6395,241.0805 206.9695,234.4315 C208.2995,227.7805 216.1135,201.1805 217.4435,193.5315 C218.2495,188.8995 218.9705,185.6015 219.4135,183.7225 C219.6565,182.6935 219.0195,181.6665 217.9925,181.4175 L191.8405,175.0775 L175.5475,242.0785 Z" id="Fill-38" fill="#FE5C4F"/><path d="M63.6579,279.1537 C63.6579,279.1537 33.7319,279.3197 26.7489,280.4837 C19.7659,281.6467 15.7759,290.1267 18.4359,298.1067 C21.0959,306.0867 29.5759,308.2487 43.2079,308.2487 L130.4919,308.2487 C132.3209,308.2487 135.1529,307.9157 135.149902,302.9277 C135.1479,297.9397 133.3189,278.4887 133.3189,278.4887 L63.6579,279.1537 Z" id="Fill-40" fill="#FE5C4F"/><path d="M56.3322,266.7279 C56.0642,266.7279 55.7842,266.7589 55.4882,266.8219 C55.0662,266.9109 53.9442,267.1479 54.1072,269.0989 C54.3552,272.0759 57.4742,276.3699 62.0142,277.4229 C61.6582,274.2689 60.6242,269.2489 58.2582,267.4079 C57.6702,266.9509 57.0452,266.7279 56.3322,266.7279 M63.6582,280.6539 C63.6372,280.6539 63.6162,280.6529 63.5952,280.6519 C58.7622,280.4499 51.6762,276.0509 51.1182,269.3479 C50.8822,266.5179 52.3202,264.4249 54.8692,263.8859 C56.7952,263.4799 58.6072,263.8769 60.1022,265.0419 C64.6142,268.5559 65.1142,278.0259 65.1562,279.0939 C65.1732,279.5129 65.0142,279.9189 64.7172,280.2149 C64.4352,280.4969 64.0542,280.6539 63.6582,280.6539" id="Fill-42" fill="#000"/><path d="M71.2819,266.4359 C70.8669,266.4359 70.4779,266.5509 70.0959,266.7839 C67.8369,268.1579 66.2359,273.1979 65.4899,277.1399 C70.1169,275.5169 73.2729,271.4169 73.5269,268.8129 C73.6709,267.3509 72.9329,266.8799 72.2749,266.6329 C71.9239,266.5019 71.5949,266.4359 71.2819,266.4359 M63.6579,280.6539 C63.2749,280.6539 62.9029,280.5069 62.6219,280.2389 C62.2809,279.9129 62.1129,279.4449 62.1689,278.9769 C62.3109,277.7769 63.7009,267.1649 68.5349,264.2219 C69.9929,263.3329 71.6499,263.1949 73.3279,263.8249 C75.5629,264.6629 76.7539,266.6369 76.5129,269.1049 C76.0699,273.6429 70.7819,279.4939 63.9029,280.6329 C63.8209,280.6469 63.7389,280.6539 63.6579,280.6539" id="Fill-44" fill="#000"/><path d="M66.9269,294.0092 L66.9099,294.0092 C66.0819,293.9992 65.4179,293.3222 65.4269,292.4922 C65.5279,283.3532 62.6269,280.2442 62.5969,280.2142 C62.0279,279.6252 62.0269,278.6812 62.6059,278.1022 C63.1839,277.5242 64.1109,277.5062 64.6999,278.0752 C65.0939,278.4552 68.5419,282.0952 68.4269,292.5262 C68.4179,293.3492 67.7479,294.0092 66.9269,294.0092" id="Fill-46" fill="#000"/><path d="M166.1003,227.1391 C165.8053,227.1391 165.5043,227.1961 165.1913,227.3081 C163.4213,227.9431 163.2713,228.9511 163.3403,229.7591 C163.6103,232.9531 168.4603,238.0321 173.5553,239.9671 C172.5243,235.7691 170.3653,229.2261 167.3933,227.5121 C166.9603,227.2631 166.5373,227.1391 166.1003,227.1391 M175.5473,243.5781 C175.4603,243.5781 175.3723,243.5711 175.2863,243.5551 C168.4823,242.3491 160.8053,235.3881 160.3503,230.0121 C160.1343,227.4481 161.5293,225.4331 164.1803,224.4851 C165.7833,223.9111 167.4123,224.0601 168.8933,224.9141 C174.3783,228.0781 176.7683,240.4131 177.0233,241.8091 C177.1113,242.2921 176.9573,242.7881 176.6113,243.1361 C176.3273,243.4211 175.9433,243.5781 175.5473,243.5781" id="Fill-48" fill="#000"/><path d="M172.6232,243.9838 C167.9552,244.7718 162.2722,246.4218 160.8902,248.7998 C160.5082,249.4578 160.5022,250.1178 160.8712,250.9408 C161.1442,251.5488 161.4772,251.7508 162.1082,251.7238 C165.0282,251.5848 170.1122,246.9228 172.6232,243.9838 M161.9962,254.7228 C160.2462,254.7228 158.8872,253.8448 158.1352,252.1698 C157.3732,250.4698 157.4282,248.7838 158.2972,247.2908 C161.3362,242.0688 173.9752,240.7218 175.4052,240.5858 C176.1882,240.5038 176.8582,241.0228 177.0152,241.7678 C177.5562,244.3328 168.8412,252.8098 164.0632,254.3668 C163.3292,254.6058 162.6372,254.7228 161.9962,254.7228" id="Fill-50" fill="#000"/><polygon id="Fill-52" fill="#FB8686" points="180.8 220.4789 206.969 234.4309 205.198 242.0789 179.092 227.5009"/><path d="M183.6212,208.8773 C183.6212,208.8773 207.0252,219.4353 210.2392,221.6123 L208.4082,228.4883 C208.4082,228.4883 194.6112,221.6853 190.7322,219.1353 C186.8522,216.5863 182.2362,214.5733 182.2362,214.5733 L183.6212,208.8773 Z" id="Fill-54" fill="#FB8686"/><path d="M185.9836,199.1615 L212.5666,213.0245 L214.0276,207.5845 C214.0276,207.5845 192.2066,194.8465 187.3686,193.4685 L185.9836,199.1615 Z" id="Fill-56" fill="#FB8686"/><path d="M176.8776,249.4486 C176.9366,251.1736 179.6116,251.3876 179.5926,249.5586 C179.5716,247.4756 176.8106,247.4746 176.8776,249.4486" id="Fill-58" fill="#070302"/><path d="M173.8908,261.7445 C173.9498,263.4685 176.6248,263.6835 176.6058,261.8535 C176.5848,259.7715 173.8238,259.7695 173.8908,261.7445" id="Fill-60" fill="#070302"/><path d="M43.089,283.9291 C43.148,285.6541 45.823,285.8681 45.804,284.0391 C45.783,281.9561 43.022,281.9551 43.089,283.9291" id="Fill-62" fill="#070302"/><path d="M54.9367,283.9291 C54.9957,285.6541 57.6707,285.8681 57.6517,284.0391 C57.6307,281.9561 54.8697,281.9551 54.9367,283.9291" id="Fill-64" fill="#070302"/><path d="M77.5119,279.0209 C77.5119,279.0209 73.7999,297.1649 73.3559,308.2489 L79.1749,308.2489 C79.1749,308.2489 84.3269,280.0339 84.3279,278.9569 L77.5119,279.0209 Z" id="Fill-66" fill="#FB8686"/><path d="M90.4806,278.8969 C90.4806,278.8969 86.7676,300.6559 86.6006,308.2489 L92.9736,308.2489 C92.9736,308.2489 96.1326,282.2439 97.1306,278.8969 L90.4806,278.8969 Z" id="Fill-68" fill="#FB8686"/><path d="M102.839,278.7797 C102.839,278.7797 101.564,287.6877 100.733,291.7887 C99.901,295.8897 99.404,308.2487 99.404,308.2487 L105.665,308.2487 C105.665,308.2487 107.043,295.7787 107.656,291.7337 C108.27,287.6877 109.544,278.7797 109.544,278.7797 L102.839,278.7797 Z" id="Fill-70" fill="#FB8686"/><path d="M126.3278,160.0043 C126.2318,160.0043 126.1348,159.9943 126.0368,159.9763 C125.1298,159.7973 124.6428,159.4633 124.3218,159.2413 C124.1008,159.0903 124.0268,159.0383 123.7288,158.9813 C123.3848,158.9133 123.2638,158.9323 122.9978,158.9723 C122.6158,159.0313 122.0928,159.1103 121.2338,158.9423 C120.4268,158.7843 120.0088,158.5723 119.6728,158.4013 C119.4348,158.2803 119.2898,158.2073 118.8938,158.1303 C118.2848,158.0103 117.9808,157.9473 117.6758,157.8853 C117.3798,157.8233 117.0838,157.7623 116.4898,157.6463 L114.0868,157.1653 C113.9378,157.1353 113.9378,157.1363 113.6818,157.2453 C113.2678,157.4213 112.5798,157.7163 111.5238,157.5113 C110.9568,157.4003 110.6728,157.3583 110.3868,157.3163 C110.0668,157.2703 109.7458,157.2233 109.1118,157.0993 C108.1788,156.9153 107.6878,156.5533 107.3628,156.3143 C107.1468,156.1533 107.0878,156.1103 106.8178,156.0583 C106.3798,155.9723 106.1848,155.9743 105.9148,155.9833 C105.5618,155.9913 105.1248,156.0023 104.3618,155.8533 C103.5788,155.6993 103.1698,155.5063 102.8408,155.3523 C102.5978,155.2373 102.4368,155.1623 102.0178,155.0803 C101.4688,154.9723 101.1908,154.9383 100.9118,154.9033 C100.5808,154.8623 100.2498,154.8213 99.5968,154.6933 C98.8568,154.5483 98.4628,154.3903 98.1468,154.2623 C97.8878,154.1583 97.7008,154.0823 97.2408,153.9923 C96.6218,153.8713 96.3158,153.8053 96.0088,153.7383 C95.7178,153.6753 95.4258,153.6113 94.8418,153.4973 C94.5698,153.4433 94.4928,153.4623 94.2368,153.5263 C93.8478,153.6243 93.2588,153.7703 92.3308,153.5883 C91.4848,153.4223 91.0358,153.1623 90.7078,152.9723 C90.4798,152.8403 90.3648,152.7743 90.0098,152.7043 C89.3198,152.5683 88.9618,152.4523 88.6478,152.3503 C88.3788,152.2623 88.1478,152.1873 87.6368,152.0873 C86.9298,151.9473 86.5658,151.8193 86.2448,151.7053 C85.9768,151.6103 85.7648,151.5363 85.2728,151.4403 C84.8588,151.3583 84.6828,151.3683 84.4148,151.3823 C84.0478,151.4023 83.5958,151.4273 82.8128,151.2743 C82.3488,151.1833 82.1448,151.1813 81.8638,151.1783 C81.5248,151.1743 81.1028,151.1703 80.3678,151.0263 C79.6718,150.8903 79.3118,150.7693 78.9948,150.6613 C78.7318,150.5723 78.5038,150.4963 78.0008,150.3983 C77.4738,150.2943 77.2038,150.2683 76.9358,150.2423 C76.5938,150.2093 76.2528,150.1763 75.5828,150.0443 C74.6808,149.8673 73.9658,149.4223 73.3908,149.0653 C73.2098,148.9513 73.0288,148.8373 72.8428,148.7363 C71.9798,148.2653 71.2568,147.7023 70.4968,146.9113 C70.3488,146.7563 70.1928,146.6093 70.0388,146.4643 C69.5228,145.9743 68.9368,145.4193 68.5358,144.6093 C68.0928,143.7143 67.9558,142.7873 67.8348,141.9703 L67.7898,141.6673 C67.6398,140.6933 67.7778,139.8333 67.9108,139.0013 L67.9588,138.6933 C68.0288,138.2413 68.0218,138.0463 68.0128,137.7753 C68.0008,137.4413 67.9868,137.0253 68.0998,136.2953 C68.1468,135.9943 68.1238,135.9003 68.0658,135.6513 C67.9748,135.2663 67.8498,134.7383 67.9868,133.8583 C68.1488,132.8093 68.6608,132.2663 68.9658,131.9423 C69.1438,131.7543 69.1438,131.7543 69.1628,131.6263 C69.1808,131.5113 69.1808,131.5113 69.0678,131.2853 C68.8638,130.8803 68.5228,130.2013 68.6878,129.1393 C68.7798,128.5463 68.8298,128.2473 68.8798,127.9523 C68.9288,127.6593 68.9778,127.3703 69.0688,126.7843 C69.1898,126.0013 69.3698,125.5893 69.5158,125.2573 C69.6208,125.0173 69.6838,124.8723 69.7458,124.4773 C69.8248,123.9683 69.8368,123.7093 69.8488,123.4503 C69.8638,123.1333 69.8818,122.7733 69.9838,122.1073 C70.1158,121.2583 70.3638,120.8033 70.5458,120.4723 C70.6678,120.2483 70.7238,120.1463 70.7738,119.8163 C70.8628,119.2463 70.8988,118.9603 70.9358,118.6743 C70.9748,118.3683 71.0148,118.0643 71.1088,117.4553 C71.2138,116.7783 71.3128,116.4263 71.3998,116.1133 C71.4738,115.8513 71.5378,115.6233 71.6148,115.1243 C71.6548,114.8673 71.6358,114.8023 71.5628,114.5593 C71.4498,114.1793 71.2778,113.6053 71.4208,112.6833 C71.5358,111.9413 71.6838,111.5453 71.8038,111.2273 C71.8948,110.9803 71.9628,110.8013 72.0298,110.3643 C72.0908,109.9713 72.0738,109.8143 72.0468,109.5533 C72.0088,109.1923 71.9608,108.7453 72.0818,107.9623 C72.2108,107.1313 72.4428,106.6833 72.6128,106.3553 C72.7298,106.1293 72.7888,106.0163 72.8428,105.6713 C72.8778,105.4413 72.8628,105.3983 72.7808,105.1503 C72.6508,104.7603 72.4558,104.1703 72.6018,103.2233 C72.7328,102.3753 72.9818,101.9213 73.1638,101.5893 C73.2858,101.3663 73.3418,101.2653 73.3918,100.9383 C73.5178,100.1213 73.7368,99.6783 73.8968,99.3553 C74.0098,99.1283 74.0708,99.0033 74.1268,98.6443 C74.1468,98.5133 74.1468,98.5133 74.0358,98.2793 C73.8468,97.8813 73.5278,97.2133 73.6888,96.1683 C73.7828,95.5643 73.8358,95.2633 73.8888,94.9623 C73.9388,94.6773 73.9888,94.3913 74.0778,93.8173 C74.1798,93.1623 74.2608,92.8403 74.3418,92.5173 C74.4048,92.2613 74.4698,92.0053 74.5498,91.4863 C74.6708,90.7043 74.8508,90.2923 74.9968,89.9613 C75.1018,89.7233 75.1648,89.5793 75.2258,89.1863 C75.3378,88.4583 75.4778,88.0673 75.5898,87.7533 C75.6808,87.5013 75.7448,87.3183 75.8148,86.8723 C75.8528,86.6243 75.8348,86.5663 75.7598,86.3213 C75.6428,85.9393 75.4638,85.3593 75.6078,84.4313 C75.6938,83.8763 75.7228,83.5993 75.7518,83.3193 C75.7848,83.0063 75.8178,82.6913 75.9128,82.0693 C76.0218,81.3683 76.1358,81.0063 76.2368,80.6863 C76.3188,80.4253 76.3828,80.2203 76.4568,79.7433 C76.5258,79.3043 76.5168,79.1123 76.5048,78.8473 C76.4898,78.5093 76.4708,78.0903 76.5848,77.3543 C76.7188,76.4873 76.9868,76.0263 77.1818,75.6903 C77.3078,75.4723 77.3608,75.3813 77.4088,75.0723 C77.5258,74.3163 77.6858,73.9133 77.8158,73.5903 C77.9128,73.3453 77.9788,73.1823 78.0428,72.7633 C78.1058,72.3603 78.0898,72.2003 78.0648,71.9373 C78.0308,71.5813 77.9878,71.1393 78.1068,70.3643 C78.1788,69.9003 78.1758,69.6893 78.1728,69.4213 C78.1678,69.0963 78.1628,68.6913 78.2738,67.9803 C78.3988,67.1713 78.6108,66.7313 78.7658,66.4103 C78.8768,66.1793 78.9388,66.0513 78.9948,65.6843 C79.0478,65.3443 79.0258,65.2193 78.9808,64.9723 C78.9148,64.6063 78.8258,64.1063 78.9538,63.2703 C79.0908,62.3833 79.3908,61.8973 79.5888,61.5753 C79.7228,61.3573 79.7678,61.2833 79.8128,60.9953 C79.9388,60.1763 80.6978,59.6123 81.5238,59.7423 C82.3428,59.8683 82.9038,60.6353 82.7768,61.4533 C82.6398,62.3403 82.3408,62.8263 82.1418,63.1483 C82.0088,63.3663 81.9638,63.4403 81.9188,63.7283 C81.8658,64.0683 81.8888,64.1923 81.9328,64.4413 C81.9988,64.8063 82.0888,65.3073 81.9598,66.1423 C81.8348,66.9503 81.6228,67.3913 81.4678,67.7123 C81.3558,67.9433 81.2948,68.0703 81.2378,68.4393 C81.1658,68.9033 81.1688,69.1143 81.1718,69.3823 C81.1768,69.7073 81.1818,70.1113 81.0708,70.8233 C81.0098,71.2243 81.0238,71.3833 81.0508,71.6483 C81.0848,72.0033 81.1278,72.4463 81.0078,73.2223 C80.8898,73.9783 80.7298,74.3803 80.5998,74.7033 C80.5028,74.9493 80.4368,75.1113 80.3728,75.5313 C80.2378,76.3993 79.9718,76.8583 79.7768,77.1943 C79.6508,77.4123 79.5978,77.5033 79.5498,77.8133 C79.4818,78.2553 79.4898,78.4463 79.5018,78.7123 C79.5168,79.0493 79.5358,79.4683 79.4218,80.2023 C79.3138,80.9033 79.1998,81.2663 79.0988,81.5863 C79.0168,81.8473 78.9528,82.0523 78.8778,82.5273 C78.7928,83.0763 78.7648,83.3543 78.7358,83.6303 C78.7028,83.9463 78.6698,84.2623 78.5728,84.8903 C78.5348,85.1363 78.5518,85.1943 78.6268,85.4393 C78.7448,85.8223 78.9238,86.4013 78.7798,87.3313 C78.6668,88.0583 78.5278,88.4483 78.4148,88.7633 C78.3248,89.0163 78.2598,89.1983 78.1908,89.6453 C78.0698,90.4263 77.8888,90.8383 77.7428,91.1693 C77.6378,91.4083 77.5748,91.5523 77.5138,91.9443 C77.4118,92.6003 77.3308,92.9233 77.2498,93.2453 C77.1868,93.5013 77.1218,93.7573 77.0418,94.2763 C76.9488,94.8803 76.8958,95.1813 76.8428,95.4823 C76.7918,95.7683 76.7428,96.0533 76.6538,96.6273 C76.6328,96.7573 76.6328,96.7573 76.7448,96.9903 C76.9338,97.3903 77.2518,98.0583 77.0908,99.1023 C76.9648,99.9183 76.7458,100.3613 76.5858,100.6853 C76.4738,100.9113 76.4118,101.0363 76.3568,101.3963 C76.2258,102.2443 75.9768,102.6983 75.7938,103.0303 C75.6728,103.2533 75.6178,103.3553 75.5668,103.6813 C75.5308,103.9123 75.5448,103.9573 75.6268,104.2043 C75.7568,104.5943 75.9528,105.1833 75.8068,106.1293 C75.6778,106.9613 75.4458,107.4093 75.2758,107.7363 C75.1588,107.9623 75.0998,108.0753 75.0458,108.4213 C74.9848,108.8163 75.0008,108.9753 75.0298,109.2353 C75.0678,109.5953 75.1148,110.0423 74.9948,110.8233 C74.8798,111.5663 74.7308,111.9613 74.6118,112.2793 C74.5198,112.5263 74.4528,112.7043 74.3858,113.1413 C74.3468,113.3953 74.3658,113.4603 74.4378,113.7033 C74.5518,114.0843 74.7228,114.6593 74.5798,115.5833 C74.4748,116.2603 74.3758,116.6123 74.2888,116.9253 C74.2148,117.1883 74.1508,117.4153 74.0738,117.9143 C73.9848,118.4853 73.9488,118.7723 73.9118,119.0583 C73.8728,119.3623 73.8328,119.6673 73.7388,120.2753 C73.6078,121.1233 73.3588,121.5783 73.1778,121.9103 C73.0558,122.1343 72.9998,122.2353 72.9488,122.5663 C72.8698,123.0743 72.8578,123.3333 72.8458,123.5923 C72.8308,123.9093 72.8128,124.2693 72.7108,124.9353 C72.5898,125.7183 72.4078,126.1313 72.2638,126.4623 C72.1578,126.7023 72.0948,126.8473 72.0328,127.2423 C71.9388,127.8493 71.8888,128.1493 71.8378,128.4513 C71.7898,128.7363 71.7408,129.0253 71.6518,129.5983 C71.6348,129.7133 71.6348,129.7133 71.7478,129.9383 C71.9508,130.3433 72.2918,131.0213 72.1278,132.0843 C71.9648,133.1353 71.4528,133.6773 71.1468,134.0013 C70.9708,134.1893 70.9708,134.1893 70.9508,134.3173 C70.9038,134.6203 70.9258,134.7133 70.9848,134.9623 C71.0758,135.3473 71.1998,135.8743 71.0638,136.7533 C70.9948,137.2043 71.0018,137.4003 71.0108,137.6713 C71.0218,138.0053 71.0368,138.4213 70.9238,139.1503 L70.8728,139.4753 C70.7628,140.1603 70.6768,140.7023 70.7548,141.2123 L70.8028,141.5323 C70.9038,142.2173 70.9908,142.8083 71.2238,143.2793 C71.3878,143.6093 71.7188,143.9233 72.1018,144.2863 C72.2908,144.4653 72.4798,144.6463 72.6618,144.8353 C73.2068,145.4013 73.6898,145.7813 74.2798,146.1033 C74.5148,146.2323 74.7458,146.3743 74.9768,146.5183 C75.4168,146.7923 75.7978,147.0293 76.1608,147.1003 C76.6878,147.2033 76.9568,147.2303 77.2258,147.2563 C77.5678,147.2893 77.9088,147.3223 78.5778,147.4533 C79.2758,147.5903 79.6348,147.7123 79.9528,147.8183 C80.2248,147.9103 80.4418,147.9833 80.9438,148.0823 C81.4098,148.1733 81.6128,148.1753 81.8938,148.1783 C82.2328,148.1823 82.6538,148.1863 83.3898,148.3303 C83.8068,148.4123 83.9828,148.4013 84.2498,148.3883 C84.6158,148.3663 85.0658,148.3423 85.8508,148.4963 C86.5578,148.6353 86.9218,148.7643 87.2438,148.8773 C87.5108,148.9723 87.7228,149.0473 88.2148,149.1433 C88.9048,149.2783 89.2618,149.3953 89.5768,149.4973 C89.8448,149.5853 90.0768,149.6603 90.5868,149.7603 C91.4328,149.9263 91.8828,150.1873 92.2108,150.3763 C92.4388,150.5093 92.5548,150.5753 92.9078,150.6453 C93.1808,150.6973 93.2578,150.6793 93.5138,150.6153 C93.9028,150.5193 94.4928,150.3733 95.4198,150.5543 C96.0318,150.6743 96.3378,150.7403 96.6428,150.8073 C96.9368,150.8703 97.2288,150.9343 97.8178,151.0483 C98.5578,151.1933 98.9518,151.3523 99.2678,151.4803 C99.5268,151.5843 99.7128,151.6593 100.1738,151.7493 C100.7238,151.8583 101.0018,151.8923 101.2808,151.9263 C101.6108,151.9673 101.9418,152.0083 102.5958,152.1363 C103.3788,152.2893 103.7888,152.4833 104.1178,152.6373 C104.3598,152.7513 104.5208,152.8263 104.9388,152.9093 C105.3788,152.9953 105.5758,152.9903 105.8418,152.9833 C106.1948,152.9743 106.6328,152.9643 107.3958,153.1133 C108.3278,153.2973 108.8188,153.6593 109.1438,153.9003 C109.3598,154.0593 109.4178,154.1023 109.6888,154.1543 C110.2508,154.2653 110.5358,154.3073 110.8208,154.3483 C111.1418,154.3963 111.4628,154.4423 112.0998,154.5673 C112.2498,154.5963 112.2478,154.5953 112.5038,154.4863 C112.9178,154.3103 113.6108,154.0163 114.6638,154.2213 L117.0668,154.7023 C117.6748,154.8213 117.9788,154.8843 118.2838,154.9473 C118.5788,155.0083 118.8758,155.0693 119.4698,155.1863 C120.2768,155.3443 120.6948,155.5563 121.0308,155.7273 C121.2688,155.8483 121.4128,155.9213 121.8098,155.9983 C122.1558,156.0673 122.2768,156.0483 122.5418,156.0073 C122.9238,155.9483 123.4448,155.8683 124.3068,156.0363 C125.2148,156.2153 125.7008,156.5493 126.0218,156.7703 C126.2428,156.9223 126.3168,156.9733 126.6148,157.0313 C127.4278,157.1913 127.9568,157.9793 127.7968,158.7923 C127.6578,159.5073 127.0298,160.0043 126.3278,160.0043" id="Fill-72" fill="#000"/></g></g></g></g><g id="Upper Body" transform="translate(-1.000000, 0.000000) scale(1 1)"><g id="Upper Body/Reading" stroke="none" stroke-width="1" fill="none" fill-rule="evenodd"><g id="Group-691" transform="translate(226.500000, 272.500000)"><g id="Group-82" transform="translate(0.000000, 0.095000)"><path d="M203.2066,158.1705 C203.2066,158.1705 223.4916,145.0905 223.1596,116.1595 C222.8266,87.2295 225.9856,54.6395 207.5296,41.6705 C189.0736,28.7015 172.1976,28.6175 172.1976,28.6175 C172.1976,28.6175 163.1356,27.5375 161.5566,31.8605 C159.9766,36.1835 162.8866,40.8395 170.5346,43.7485 C178.1836,46.6585 182.8386,47.8225 182.8386,47.8225 C182.8386,47.8225 164.8106,66.2105 163.2026,76.6135 C162.9336,78.3605 163.4206,80.1845 164.6856,81.4195 C166.5056,83.1965 170.2496,84.2895 177.5186,78.3335 C177.5186,78.3335 178.1836,83.3205 184.9166,83.0715 C184.9166,83.0715 183.4316,89.9665 192.1606,89.5565 C192.1606,89.5565 191.2356,97.3705 199.6316,97.1215 L201.1886,97.0395 L203.2066,158.1705 Z" id="Fill-46" fill="#feb1cd"/><path d="M78.0606,30.0319 L48.4646,30.0319 C48.4646,30.0319 35.3846,28.7019 28.9556,41.4489 C22.5256,54.1959 16.7626,72.1539 14.8776,77.6959 C12.9936,83.2379 2.9096,113.7209 1.5766,116.6029 C0.2426,119.4849 0.6886,121.8129 4.3476,122.0349 C8.0046,122.2569 26.8496,121.8129 26.8496,121.8129 L15.4316,191.8129 C15.4316,191.8129 14.3796,194.8049 16.9286,194.8049 L136.9916,194.8049 C138.6246,194.8049 139.9376,193.4629 139.9016,191.8299 L138.3616,122.4779 L172.2526,91.4229 L137.0616,44.4179 C137.0616,44.4179 127.3646,30.0319 116.3306,30.0319 L78.0606,30.0319 Z" id="Fill-48" fill="#F9A9B4"/><path d="M159.7549,90.443 C159.7549,90.443 161.9049,77.087 174.4089,67.969 C174.4089,67.969 186.4289,67.014 180.9069,75.237 C175.3839,83.46 159.7549,90.443 159.7549,90.443" id="Fill-50" fill="#D5E1D5"/><path d="M63.209,117.7711 C63.111,117.7711 63.014,117.7611 62.915,117.7421 C62.103,117.5811 61.574,116.7921 61.735,115.9791 L73.198,58.2381 C73.361,57.4251 74.159,56.9001 74.962,57.0591 C75.774,57.2201 76.303,58.0091 76.142,58.8221 L64.679,116.5631 C64.536,117.2771 63.91,117.7711 63.209,117.7711" id="Fill-52" fill="#F3707F"/><path d="M108.2276,61.0192 C108.2276,61.0192 106.9916,56.0812 111.7576,55.3042 C116.4626,54.5392 153.6586,67.9412 159.7546,90.4432 C159.7546,90.4432 111.5696,65.6242 108.2276,61.0192" id="Fill-54" fill="#D5E1D5"/><path d="M99.9742,64.1725 C99.9742,64.1725 99.7309071,58.530115 104.5442,59.8785 C108.8302,61.0805 133.5952,68.6065 159.7552,90.4435 C159.7552,90.4435 169.3982,79.1365 184.4742,67.1655 C199.5492,55.1935 199.1052,56.9675 199.7702,64.6155 C200.4352,72.2645 202.9852,146.3105 203.2062,158.1705 L164.3782,190.8175 C164.3782,190.8175 161.6392,193.9335 154.7662,191.5355 C149.2722,189.6185 102.2252,175.8315 102.2252,175.8315 C102.2252,175.8315 99.4892,175.1305 99.7482,170.9185 C100.0082,166.7055 100.3412,121.4805 100.3412,121.4805 C100.3412,121.4805 99.6032,68.6635 99.9742,64.1725" id="Fill-56" fill="#FE5C4F"/><path d="M161.1407,188.4908 C160.3227,188.4908 159.6537,187.8348 159.6407,187.0138 L158.2547,96.2298 C158.2427,95.4018 158.9037,94.7198 159.7327,94.7078 L159.7547,94.7078 C160.5737,94.7078 161.2427,95.3638 161.2547,96.1838 L162.6407,186.9688 C162.6537,187.7968 161.9927,188.4778 161.1627,188.4908 L161.1407,188.4908 Z" id="Fill-58" fill="#B02D1C"/><path d="M9.335,122.0934 C9.335,122.0934 4.791,135.5584 7.118,147.4184 C9.446,159.2794 19.977,169.2554 34.054,171.5834 C48.132,173.9104 119.628,175.4624 119.628,175.4624 C119.628,175.4624 144.236,176.6824 151.774,174.6874 C159.312,172.6924 179.929,160.6094 184.917,152.7394 C184.917,152.7394 188.131,147.1974 183.365,144.9804 C183.365,144.9804 190.681,136.4454 185.139,132.2324 L183.587,131.7884 C183.587,131.7884 185.471,128.2414 183.809,125.1384 C182.146,122.0344 179.375,123.6974 179.375,123.6974 C179.375,123.6974 180.926,119.7064 177.823,116.4914 C174.719,113.2784 168.512,116.4914 164.521,118.7094 C160.531,120.9264 144.68,131.1234 144.68,131.1234 C144.68,131.1234 148.448,109.6194 142.352,107.1814 C137.208,105.1234 135.479,110.7284 134.371,114.4964 C133.262,118.2664 128.606,129.6834 122.51,131.6784 C122.51,131.6784 115.194,133.2304 105.329,131.9004 C96.665,130.7324 69.537,127.0844 63.056,126.2134 C62.157,126.0924 59.549,125.8034 59.549,125.8034 L59.881,121.8134 L9.335,122.0934 Z" id="Fill-60" fill="#feb1cd"/><path d="M151.4698,142.2682 C150.8758,142.2682 150.3148,141.9142 150.0778,141.3312 C149.7678,140.5632 150.1378,139.6892 150.9058,139.3772 C164.4798,133.8782 178.2868,122.6492 178.4248,122.5372 C179.0678,122.0112 180.0118,122.1072 180.5358,122.7472 C181.0608,123.3892 180.9658,124.3332 180.3248,124.8592 C179.7478,125.3312 166.0348,136.4852 152.0318,142.1582 C151.8478,142.2332 151.6568,142.2682 151.4698,142.2682" id="Fill-62" fill="#000"/><path d="M156.873107,152.5768 C156.2641,152.5768 155.6901,152.2028 155.4671,151.5978 C155.1791,150.8208 155.5751,149.9578 156.3521,149.6698 C167.8711,145.4038 182.3771,130.8788 182.5221,130.7328 C183.1051,130.1448 184.0571,130.1398 184.6441,130.7248 C185.2311,131.3078 185.2351,132.2588 184.6511,132.8468 C184.0401,133.4628 169.5361,147.9858 157.3941,152.4828 C157.2231,152.5468 157.0461,152.5768 156.873107,152.5768" id="Fill-64" fill="#000"/><path d="M161.1407,161.4449 C160.5207,161.4449 159.9407,161.0569 159.7247,160.4389 C159.4517,159.6579 159.8637,158.8009 160.6457,158.5279 C170.3637,155.1299 182.2167,144.0019 182.3347,143.8889 C182.9367,143.3209 183.8847,143.3469 184.4547,143.9499 C185.0247,144.5519 184.9967,145.5019 184.3957,146.0699 C183.8927,146.5459 171.9617,157.7489 161.6357,161.3599 C161.4717,161.4179 161.3047,161.4449 161.1407,161.4449" id="Fill-66" fill="#000"/><path d="M24.2745,167.2067 C24.1675,167.2067 24.0565,167.1947 23.9475,167.1707 C23.1595,166.9947 22.3095,166.7907 21.4355,166.4897 C21.3245,166.4517 20.9695,166.4737 20.7345,166.4857 C20.1335,166.5207 19.3925,166.5637 18.6675,166.2077 C17.9655,165.8637 17.4925,165.3287 17.1115,164.8967 C16.9265,164.6887 16.7355,164.4737 16.6065,164.3857 C16.3915,164.2417 16.1195,164.1107 15.8315,163.9717 C15.3325,163.7307 14.7665,163.4587 14.2675,163.0097 C13.7375,162.5327 13.3485,161.9977 13.0065,161.5247 C12.8545,161.3157 12.7065,161.1087 12.5465,160.9187 C12.0905,160.3747 11.7925,159.8057 11.5285,159.3027 C11.4085,159.0737 11.2925,158.8487 11.1605,158.6377 C10.7405,157.9717 10.4505,157.3197 10.1945,156.7447 L9.9845,156.2807 C9.8955,156.0877 9.6615,155.8417 9.4335,155.6027 C9.0385,155.1867 8.5885,154.7167 8.3755,154.0417 C8.2195,153.5487 8.1065,153.2727 8.0185,153.0597 C7.8195,152.5747 7.6925,152.2307 7.5835,151.3107 C7.4855,150.4887 8.0725,149.7427 8.8955,149.6447 C9.7105,149.5507 10.4635,150.1347 10.5615,150.9577 C10.6285,151.5177 10.6635,151.6027 10.7945,151.9207 C10.9025,152.1857 11.0435,152.5267 11.2365,153.1377 C11.2635,153.1747 11.4695,153.3907 11.6055,153.5337 C11.9635,153.9097 12.4105,154.3787 12.7085,155.0217 L12.9345,155.5237 C13.1705,156.0537 13.3925,156.5547 13.6995,157.0397 C13.8735,157.3167 14.0285,157.6097 14.1855,157.9097 C14.3975,158.3137 14.5975,158.6957 14.8465,158.9927 C15.0495,159.2357 15.2415,159.4967 15.4345,159.7637 C15.7145,160.1487 15.9795,160.5147 16.2745,160.7797 C16.4555,160.9427 16.7845,161.1017 17.1325,161.2697 C17.4865,161.4387 17.8865,161.6317 18.2795,161.8957 C18.7285,162.1977 19.0635,162.5767 19.3585,162.9107 C19.5865,163.1667 19.8205,163.4327 19.9885,163.5157 C20.0475,163.5207 20.3525,163.5037 20.5585,163.4907 C21.0865,163.4617 21.7405,163.4227 22.4115,163.6527 C23.1465,163.9057 23.8975,164.0857 24.5995,164.2427 C25.4085,164.4227 25.9185,165.2247 25.7375,166.0327 C25.5825,166.7317 24.9615,167.2067 24.2745,167.2067" id="Fill-68" fill="#000"/><path d="M7.9014,127.5162 C7.9014,127.5162 49.2404,127.1332 59.5484,125.8032 L59.8814,121.8132 L9.3354,122.0932 L7.9014,127.5162 Z" id="Fill-70" fill="#000"/><path d="M163.4839,79.5397 C163.4839,79.5397 165.2289,83.9797 169.5089,82.4627 C174.6639,80.6347 192.0669,69.1047 198.3299,52.4777 C198.3299,52.4777 188.2419,44.7737 177.6009,57.3007 C169.3959,66.9577 163.4839,79.5397 163.4839,79.5397" id="Fill-72" fill="#8C72CB"/><path d="M171.6212,82.1344 C171.0522,82.1344 170.5072,81.8084 170.2562,81.2554 C169.9122,80.5014 170.2452,79.6134 170.9992,79.2694 C171.1502,79.1994 186.3112,72.1284 196.0192,54.5784 C196.4202,53.8544 197.3342,53.5914 198.0582,53.9924 C198.7832,54.3934 199.0462,55.3064 198.6442,56.0304 C188.4342,74.4874 172.8962,81.7014 172.2402,81.9994 C172.0392,82.0914 171.8282,82.1344 171.6212,82.1344" id="Fill-74" fill="#190202"/><path d="M172.3355,94.653 L172.6155,104.017 C172.6785,106.133 175.1305,107.268 176.7845,105.946 L192.2675,93.573 C193.7875,92.359 194.6715,90.519 194.6715,88.575 L194.6715,78.389 C194.6715,76.674 192.6915,75.716 191.3465,76.78 L174.4245,90.166 C173.0585,91.247 172.2835,92.911 172.3355,94.653" id="Fill-76" fill="#B02D1C"/><path d="M102.5743,0.9342 L91.1753,0.9342 C86.0213,0.9342 81.6353,4.6282 80.7193,9.6692 C80.7093,9.7322 80.7003,9.7932 80.6903,9.8562 L80.6853,9.8902 C80.6483,10.1352 80.6103,10.3862 80.5723,10.6352 C79.2463,19.3762 77.6083,30.0862 77.6083,30.0862 L113.0413,30.0862 L113.1133,22.3222 L113.2113,11.6702 C113.2663,5.7572 108.4873,0.9342 102.5743,0.9342" id="Fill-78" fill="#feb1cd"/><path d="M113.0411,30.0865 C99.1661,29.1105 95.3751,26.1365 95.5091,23.6595 C95.6281,21.4405 97.7131,21.7495 98.6241,21.7705 C102.6381,21.8605 113.1131,22.3215 113.1131,22.3215" id="Fill-80" fill="#000"/></g></g></g></g><g id="Head" transform="translate(204.000000, 145.000000) scale(1 1)"><defs><polygon id="headlong-slick-1-path-1" points="0.371818811 0.914589475 82.838 0.914589475 82.838 95.9937941 0.371818811 95.9937941"/></defs><g id="Head/Long Slick 1" stroke="none" stroke-width="1" fill="none" fill-rule="evenodd"><g id="Group-183" transform="translate(92.000000, 45.000000)"><g id="Group-125" transform="translate(0.000000, 0.738000)"><path d="M66.0643,74.9752 C64.4293,70.9292 53.9113,71.9212 50.6773,71.8992 C49.3003,65.9322 47.7933,60.4952 46.4333,57.9502 C43.7283,52.8922 35.4813,47.5782 22.2933,49.6192 C13.5353,50.9732 4.2103,59.1432 10.2673,73.3632 C10.2673,73.3632 12.0003,76.8112 11.1703,82.4962 C11.0783,83.1212 10.9483,83.9962 10.7933,85.0382 L10.7923,85.0442 C10.5283,86.8052 10.1883,89.0612 9.8143,91.5262 C9.8053,91.5882 9.7953,91.6492 9.7863,91.7112 L9.7813,91.7462 L9.7803,91.7462 C9.7433,91.9922 9.7063,92.2422 9.6683,92.4912 C9.4383,95.0802 10.1453,103.5562 29.2223,103.6522 L42.2083,104.1772 L42.4063,104.1862 C42.4063,104.1862 46.7573,104.1372 49.3913,104.1372 C54.8653,104.1372 55.8053,98.9182 55.1913,95.0562 C54.9743,93.6932 54.2633,89.4972 53.2773,84.3502 C64.5953,82.2912 67.5013,78.5332 66.0643,74.9752" id="Fill-120" fill="#feb1cd"/><g id="Group-124"><mask id="headlong-slick-1-mask-2" fill="#ffffff"><use xlink:href="#headlong-slick-1-path-1" fill="#ffffff"/></mask><g id="Clip-123"/><path d="M23.0302,68.6823 C22.2562,70.5243 20.5242,71.7773 18.5332,71.9433 C16.7552,72.0923 14.6912,72.9533 13.8772,75.9173 C12.4582,81.0883 15.9592,84.8743 20.6142,84.9853 L19.9742,95.7593 C19.9742,95.7593 10.8842,97.7543 8.1132,90.1063 C5.3422,82.4573 5.4842,71.5943 1.7522,63.6143 C-1.9798,55.6323 1.7522,41.3333 14.2102,38.1193 C27.5622,34.6733 30.5042,21.4923 30.5042,21.4923 C30.5042,21.4923 36.2402,-7.2477 65.7542,3.2023 C88.9212,11.4053 88.0342,38.8953 66.0832,43.8623 C51.6702,47.1233 59.3942,62.0313 40.9242,64.0573 L28.1082,64.4093 C26.0872,64.4643 24.2842,65.6983 23.5002,67.5633 L23.0302,68.6823 Z" id="Fill-122" fill="#860a0c" mask="url(#headlong-slick-1-mask-2)"/></g></g></g></g></g><g id="Expression" transform="translate(315.000000, 246.000000) scale(1 1)"><defs><path d="M2.973,1.055 C-0.453,2.37 -2.944,13.004 10.567,16.001 L10.567,16.001 C16.271,17.266 19.387,14.583 19.536,11.9 L19.536,11.9 C19.665,9.554 17.527,7.208 12.869,7.501 L12.869,7.501 C11.822,7.568 10.572,7.073 9.905,5.972 L9.905,5.972 C8.651,3.902 7.906,0.626 4.999,0.626 L4.999,0.626 C4.417,0.626 3.749,0.757 2.973,1.055" id="expressionlaugh-path-1"/></defs><g id="Expression/Laugh" stroke="none" stroke-width="1" fill="none" fill-rule="evenodd"><g id="Group-77" transform="translate(13.400000, 13.300000)"><g id="Group-3" transform="translate(0.000000, 0.116900)"><g id="Group" transform="translate(0.000000, 15.000000)"><path d="M2.973,1.0549 C-0.453,2.3699 -2.944,13.0039 10.567,15.9999 C21.261,18.3719 22.855,6.8709 12.869,7.5009 C11.822,7.5679 10.571,7.0739 9.904,5.9719 C8.4,3.4879 7.63,-0.7321 2.973,1.0549" id="Fill-37" fill="#000"/><g id="Group-41"><mask id="expressionlaugh-mask-2" fill="#ffffff"><use xlink:href="#expressionlaugh-path-1" fill="#ffffff"/></mask><g id="Clip-40"/><path d="M-3.2101,3.4943 C-3.2101,3.4943 1.3509,2.7393 5.4389,7.3023 C9.5279,11.8643 9.1349,18.8593 9.1349,18.8593 C9.1349,18.8593 -6.6571,11.2823 -3.2101,3.4943" id="Fill-39" fill="#FF71DB" mask="url(#expressionlaugh-mask-2)"/></g></g><g id="Group-46" transform="translate(3.000000, 0.000000)"><path d="M3.1312,6.052 C3.7892,6.555 4.7312,6.427 5.2332,5.769 C7.2772,3.086 9.8032,4.136 10.1002,4.271 C10.8412,4.624 11.7342,4.313 12.0932,3.571 C12.4552,2.825 12.1432,1.928 11.3982,1.566 C10.3642,1.065 8.4892,0.66 6.5312,1.268 C5.2702,1.659 3.9732,2.472 2.8462,3.95 C2.3442,4.61 2.4722,5.55 3.1312,6.052" id="Fill-42" fill="#000"/><path d="M4.6669,6.3596 C4.6669,7.0556 3.7149,7.6196 2.5399,7.6196 C1.3649,7.6196 0.4129,7.0556 0.4129,6.3596 C0.4129,5.6646 1.3649,5.0996 2.5399,5.0996 C3.7149,5.0996 4.6669,5.6646 4.6669,6.3596" id="Fill-44" fill="#F8FBF8"/></g></g></g></g></g><g id="Facial Hair" transform="translate(311.300000, 250.950000) scale(1 1)"><g id="Facial Hair/None" stroke="none" stroke-width="1" fill="none" fill-rule="evenodd" fill-opacity="0"/></g><g id="Accesories" transform="translate(311.300000, 250.950000) scale(1 1)"><g id="Accesories/None" stroke="none" stroke-width="1" fill="none" fill-rule="evenodd" fill-opacity="0"/></g></g></g></g></svg>