<svg viewBox="63.75 51 1045.4999999999998 879.7499999999999" xmlns="http://www.w3.org/2000/svg" xmlns:xlink="http://www.w3.org/1999/xlink" overflow="visible" width="1045.4999999999998px" height="879.7499999999999px"><defs><polygon id="masterspot-illustrationui-design-path-1" points="0 0.855728366 369.150131 0.855728366 369.150131 383.471976 0 383.471976"/><polygon id="masterspot-illustrationui-design-path-3" points="0.44031893 0.957161388 516.594 0.957161388 516.594 167.536028 0.44031893 167.536028"/></defs><g id="Master/Spot Illustration/UI Design" stroke="none" stroke-width="1" fill="none" fill-rule="evenodd"><g id="UI" transform="translate(-28.000000, -17.000000) scale(1 1)"><defs><polygon id="uiscreen-3-path-1" points="0.992323803 0.925534821 324.0948 0.925534821 324.0948 103 0.992323803 103"/><polygon id="uiscreen-3-path-3" points="0 669.408 1030.402 669.408 1030.402 0 0 0"/></defs><g id="UI/Screen 3" stroke="none" stroke-width="1" fill="none" fill-rule="evenodd"><g id="Group-45" transform="translate(101.000000, 77.000000)"><path d="M44.8688,577.1866 C44.8688,577.1866 35.4478,624.2976 90.2668,622.5846 C145.0888,620.8726 799.5138,622.6306 799.5138,622.6306 C799.5138,622.6306 853.4778,628.1066 861.1858,570.7156 C867.4618,524.0066 900.4018,241.0096 912.4478,137.2876 L101.0568,137.2876 C86.7578,253.0726 44.8688,577.1866 44.8688,577.1866" id="Fill-1" fill="#CBB1F4"/><path d="M876.6051,40.9659 C821.7841,38.4009 176.7821,40.9699 176.7821,40.9699 C176.7821,40.9699 112.5391,39.2569 104.8301,106.0699 C104.0231,113.0609 102.7281,123.7569 101.0561,137.2869 L912.4481,137.2869 C915.2021,113.5689 916.8641,99.2169 916.8641,99.2169 C916.8641,99.2169 931.4251,43.5309 876.6051,40.9659" id="Fill-3" fill="#8C72CB"/><path d="M150.3668,96.0255 C151.3158,108.7445 171.6268,106.8455 172.5758,95.4795 C173.8378,80.3685 149.2008,80.4045 150.3668,96.0255" id="Fill-5" fill="#4D33A2"/><path d="M214.9166,96.0255 C215.8656,108.7445 236.1776,106.8455 237.1266,95.4795 C238.3886,80.3685 213.7516,80.4045 214.9166,96.0255" id="Fill-7" fill="#4D33A2"/><path d="M281.4732,96.0255 C282.4222,108.7445 302.7332,106.8455 303.6822,95.4795 C304.9442,80.3685 280.3072,80.4045 281.4732,96.0255" id="Fill-9" fill="#4D33A2"/><polygon id="Fill-11" fill="#FEF864" points="180.5855 196.2247 94.9285 509.3027 563.9035 526.2207 596.4535 199.2227"/><g id="Group-15" transform="translate(167.000000, 566.408000)"><mask id="uiscreen-3-mask-2" fill="#ffffff"><use xlink:href="#uiscreen-3-path-1" fill="#ffffff"/></mask><g id="Clip-14"/><path d="M261.9928,0.928 L58.1278,0.928 C58.1278,0.928 5.0198,1.357 1.1658,52.323 C-2.6892,103.289 58.9838,100.719 58.9838,100.719 L261.9928,102.861 C261.9928,102.861 324.0868,108.007 324.0948,55.749 C324.1028,-0.357 261.9928,0.928 261.9928,0.928" id="Fill-13" fill="#FF71DB" mask="url(#uiscreen-3-mask-2)"/></g><path d="M815.7369,621.7286 L827.7289,435.4226 C827.7289,435.4226 830.2989,418.2916 811.4539,417.4356 C792.6089,416.5786 678.2569,414.0086 678.2569,414.0086 C678.2569,414.0086 659.4119,414.0086 657.6989,433.7096 C656.3699,448.9906 644.8069,622.2726 644.8069,622.2726 L815.7369,621.7286 Z" id="Fill-16" fill="#DDF77D"/><path d="M766.6158,466.3175 C766.4378,466.3175 766.2478,466.3155 766.0388,466.3135 C763.7388,466.2855 763.7408,466.3095 761.4408,466.2815 C759.7488,466.2605 758.7978,465.8795 758.1008,465.5995 C757.6468,465.4195 757.4588,465.3435 756.8468,465.3365 C755.2808,465.3175 754.3878,465.0425 753.7378,464.8415 C753.2568,464.6945 752.9908,464.6135 752.2568,464.6035 C750.3308,464.5795 749.2418,463.9325 748.5208,463.5055 C748.0838,463.2455 748.0498,463.2225 747.6768,463.2185 C747.4498,463.2545 747.2538,463.3985 747.1238,463.4945 C746.3948,464.0305 745.1478,464.8685 743.0558,464.9005 C742.1178,464.8865 741.7028,464.9455 741.1768,465.0155 C740.5388,465.1015 739.8238,465.2125 738.4528,465.1815 C736.3018,465.1555 735.0998,464.1855 734.3838,463.6055 C734.2518,463.5005 734.0718,463.3535 734.0098,463.3235 C733.2868,463.3285 733.1738,463.3745 732.7198,463.5605 C732.0418,463.8395 731.0128,464.2345 729.2798,464.2385 L724.6878,464.1795 C723.1538,464.1595 722.3158,463.9225 721.6408,463.7345 C721.1558,463.5965 720.8618,463.5135 720.0928,463.5045 C718.6718,463.4875 717.8868,463.3275 717.2568,463.1985 C716.7638,463.0985 716.4018,463.0245 715.5908,463.0115 C715.4828,463.1025 715.3898,463.2135 715.2908,463.3135 C714.5818,464.0405 713.2458,465.4335 710.8728,465.3565 C709.4218,465.3385 708.6238,465.1605 707.9818,465.0185 C707.4858,464.9095 707.1278,464.8285 706.2758,464.8195 C705.5838,464.8305 705.3138,464.8865 704.8448,465.0285 C704.1768,465.2305 703.2978,465.4985 701.6698,465.4855 C700.3938,465.4675 699.7568,465.4045 699.1208,465.3395 C698.6068,465.2895 698.0978,465.2385 697.0738,465.2245 C695.2438,465.2025 694.1928,464.6645 693.4968,464.3075 C693.0518,464.0795 692.9588,464.0325 692.4868,464.0265 C691.8628,464.0175 691.5818,464.0945 691.1158,464.2455 C690.4358,464.4675 689.4908,464.7695 687.8788,464.7515 C686.2028,464.7305 685.2578,464.3625 684.5688,464.0945 C684.1068,463.9135 683.9148,463.8395 683.2898,463.8325 C681.1798,463.8035 679.9918,462.8965 679.2808,462.3555 C679.1508,462.2565 678.9548,462.1065 678.8978,462.0835 C677.7638,462.0515 677.3438,462.1065 676.8088,462.1735 C676.2098,462.2485 675.5738,462.3455 674.3038,462.3295 C674.2158,462.4215 674.1018,462.5495 674.0098,462.6555 C673.2948,463.4665 671.9568,464.9695 669.4818,464.9495 C667.1948,464.9215 665.9198,463.7105 665.2348,463.0585 C665.1158,462.9455 665.0068,462.8175 664.8638,462.7265 C664.6938,462.7955 664.5068,462.9345 664.3688,463.0365 C663.6428,463.5835 662.4728,464.4635 660.2908,464.4655 C658.9358,464.4495 658.2188,464.3385 657.5868,464.2425 C657.0578,464.1605 656.6388,464.0945 655.6968,464.0835 C654.0958,464.0625 652.8158,462.7475 652.836545,461.1475 C652.8568,459.5595 654.1508,458.2875 655.7338,458.2875 L655.7718,458.2875 C657.1228,458.3065 657.8378,458.4165 658.4698,458.5135 C658.9978,458.5945 659.4148,458.6595 660.3618,458.6715 C660.5768,458.6365 660.7638,458.4975 660.9018,458.3955 C661.6298,457.8495 662.8678,456.9635 664.9798,456.9645 C667.2668,456.9955 668.5428,458.2065 669.2268,458.8555 C669.2988,458.9245 669.3688,459.0015 669.4418,459.0685 C669.5138,458.9895 669.5938,458.9005 669.6588,458.8255 C670.3748,458.0115 671.7658,456.4615 674.1848,456.5315 C675.1288,456.5425 675.5548,456.4895 676.0868,456.4235 C676.7198,456.3425 677.4278,456.2445 678.7888,456.2705 C680.8938,456.2965 682.0848,457.2055 682.7958,457.7465 C682.9258,457.8455 683.1238,457.9975 683.1798,458.0195 C685.0368,458.0575 685.9798,458.4255 686.6708,458.6935 C687.1338,458.8745 687.3258,458.9485 687.9498,458.9555 C688.5628,458.9385 688.8548,458.8855 689.3218,458.7365 C689.9988,458.5135 690.9798,458.2195 692.5608,458.2315 C694.3908,458.2555 695.4418,458.7935 696.1368,459.1475 C696.5818,459.3765 696.6738,459.4225 697.1448,459.4285 C698.4248,459.4445 699.0618,459.5075 699.6998,459.5745 C700.2108,459.6255 700.7218,459.6755 701.7428,459.6895 C702.4248,459.6775 702.7028,459.6195 703.1738,459.4795 C703.8408,459.2805 704.7348,459.0255 706.3478,459.0235 C707.7998,459.0425 708.5968,459.2195 709.2388,459.3615 C709.7158,459.4665 710.0668,459.5465 710.8528,459.5595 C710.9628,459.4685 711.0528,459.3575 711.1528,459.2565 C711.8548,458.5405 713.1548,457.2135 715.4948,457.2135 L715.5718,457.2135 C716.9948,457.2315 717.7788,457.3915 718.4088,457.5195 C718.9208,457.6235 719.2888,457.6975 720.1658,457.7085 C721.6998,457.7295 722.5368,457.9645 723.2128,458.1535 C723.6978,458.2915 723.9918,458.3745 724.7618,458.3835 L729.3508,458.4425 C729.9218,458.4575 730.0628,458.3855 730.5148,458.1995 C731.1928,457.9205 732.2758,457.4855 733.9548,457.5215 C736.1058,457.5475 737.3068,458.5175 738.0238,459.0965 C738.1568,459.2025 738.3358,459.3495 738.3978,459.3805 C739.4638,459.3915 739.8788,459.3395 740.4068,459.2705 C741.0448,459.1855 741.7708,459.0895 743.1298,459.1045 C743.3598,459.0705 743.5488,458.9305 743.6838,458.8295 C744.4108,458.2915 745.5838,457.4125 747.7498,457.4235 C749.6768,457.4505 750.7618,458.0945 751.4828,458.5235 C751.9218,458.7825 751.9548,458.8045 752.3288,458.8085 C753.8938,458.8275 754.7888,459.1025 755.4398,459.3025 C755.9208,459.4505 756.1868,459.5315 756.9188,459.5405 C758.6088,459.5615 759.5598,459.9425 760.2568,460.2195 C760.7108,460.4025 760.8988,460.4775 761.5118,460.4855 C763.8078,460.5095 763.8098,460.4875 766.1118,460.5175 C767.1558,460.5365 767.6848,460.5035 768.2118,460.4725 C768.8408,460.4385 769.4628,460.4065 770.7198,460.4205 C770.9198,460.4145 770.9238,460.4225 771.3128,460.1435 C772.0248,459.6405 773.2098,458.7985 775.2468,458.7985 L775.3398,458.7985 C777.3088,458.8255 778.4568,459.5475 779.1408,459.9795 C779.5848,460.2585 779.5928,460.2645 779.9268,460.2685 C779.9148,460.2325 780.0278,460.0925 780.1538,459.9665 C780.8558,459.2605 782.1538,457.9575 784.4798,457.9575 L784.5608,457.9575 C786.7418,457.9835 787.9518,458.9975 788.6748,459.6025 C788.8058,459.7125 788.9848,459.8635 789.0498,459.8945 C789.8628,459.9345 790.1778,459.8255 790.6528,459.6975 C791.3058,459.5175 792.1848,459.3175 793.7568,459.2955 C794.1628,459.3045 794.2508,459.2665 794.6958,459.0365 C795.4148,458.6675 796.4168,458.1325 798.3698,458.1295 C800.1368,458.1515 801.1638,458.6235 801.8408,458.9365 C802.2898,459.1445 802.4258,459.2065 802.9598,459.2125 C803.8448,459.2305 804.2648,459.1595 804.7738,459.0785 C805.3948,458.9785 806.1648,458.8745 807.5718,458.8725 C809.2718,458.8955 810.2268,459.2825 810.9228,459.5645 C811.3778,459.7485 811.5638,459.8235 812.1718,459.8315 C812.4468,459.8335 812.4318,459.8335 812.8488,459.5575 C813.5518,459.0905 814.7188,458.3175 816.7078,458.3175 L816.8018,458.3175 C818.4698,458.3385 819.4108,458.6955 820.0988,458.9575 C820.5598,459.1305 820.7688,459.2125 821.4108,459.2195 C823.0138,459.2405 823.9278,459.5445 824.5938,459.7645 C825.0728,459.9245 825.3138,460.0055 826.0168,460.0135 C827.6178,460.0345 828.8978,461.3475 828.879988,462.9475 C828.8608,464.5365 827.5668,465.8095 825.9818,465.8095 L825.9458,465.8095 C824.3408,465.7895 823.4278,465.4855 822.7618,465.2645 C822.2818,465.1035 822.0408,465.0225 821.3368,465.0155 C819.6698,464.9925 818.7278,464.6355 818.0408,464.3765 C817.5828,464.2005 817.3718,464.1215 816.7298,464.1135 C816.4748,464.1135 816.4698,464.1095 816.0538,464.3865 C815.3418,464.8605 814.1998,465.6625 812.0978,465.6275 C810.3998,465.6055 809.4458,465.2185 808.7478,464.9355 C808.2928,464.7515 808.1058,464.6755 807.4988,464.6685 C806.6218,464.6295 806.1928,464.7205 805.6858,464.8015 C805.0628,464.9025 804.3038,464.9985 802.8878,465.0075 C801.1198,464.9855 800.0938,464.5135 799.4168,464.2005 C798.9678,463.9935 798.8318,463.9305 798.2978,463.9245 C797.8498,463.9325 797.8018,463.9575 797.3558,464.1855 C796.6408,464.5565 795.5698,465.1475 793.6828,465.0905 C792.9488,465.1155 792.6508,465.1605 792.1718,465.2895 C791.5188,465.4655 790.6268,465.7005 789.0678,465.6905 C786.8838,465.6625 785.6768,464.6495 784.9538,464.0465 C784.8238,463.9365 784.6438,463.7855 784.5798,463.7515 C784.4988,463.7895 784.3868,463.9285 784.2598,464.0545 C783.5508,464.7685 782.2448,466.1195 779.8518,466.0645 C777.8848,466.0405 776.7378,465.3155 776.0508,464.8825 C775.6168,464.6095 775.5998,464.5985 775.2658,464.5945 C775.0418,464.5815 775.0598,464.5905 774.6698,464.8705 C773.9468,465.3825 772.7438,466.2775 770.6458,466.2145 C769.5878,466.2025 769.0608,466.2325 768.5308,466.2585 C768.0138,466.2895 767.4928,466.3175 766.6158,466.3175" id="Fill-18" fill="#A2D249"/><path d="M800.0358,511.7315 L799.9558,511.7315 C798.1298,511.7125 797.0788,511.1825 796.3808,510.8325 C795.9408,510.6105 795.8358,510.5575 795.3578,510.5525 C793.6078,510.5355 792.5888,510.0815 791.9138,509.7805 C791.4668,509.5835 791.3148,509.5145 790.7648,509.5085 C790.6818,509.5285 790.5008,509.6845 790.3688,509.7975 C789.6778,510.3915 788.4028,511.4905 786.1988,511.4905 L786.1328,511.4905 C783.9618,511.4675 782.7528,510.4785 782.0318,509.8885 C781.8968,509.7805 781.7168,509.6315 781.6518,509.5995 C781.1478,509.6035 781.0828,509.6225 780.6398,509.8625 C779.9148,510.2575 778.8168,510.8225 776.9188,510.8325 C774.4888,510.8045 773.1928,509.3635 772.4968,508.5875 C772.4608,508.5465 772.4248,508.5045 772.3898,508.4635 C772.3438,508.5145 772.3028,508.5655 772.2628,508.6135 C771.5478,509.4615 770.1868,510.9905 767.6948,511.0225 C765.6818,511.0015 764.5158,510.2235 763.8178,509.7595 C763.3908,509.4735 763.3908,509.4735 763.1008,509.4715 C761.3918,509.4525 760.4328,509.0585 759.7318,508.7715 C759.2728,508.5815 759.0988,508.5105 758.5058,508.5045 C758.0298,508.5375 757.9338,508.5465 757.4788,508.7635 C756.7748,509.0995 755.7418,509.5315 753.8838,509.5915 C752.6908,509.5815 752.0928,509.5565 751.4948,509.5315 C750.9418,509.5085 750.3898,509.4885 749.2818,509.4765 C747.3688,509.4565 746.2838,508.8305 745.5648,508.4175 C745.1278,508.1625 745.0808,508.1355 744.6918,508.1315 C744.6818,508.1725 744.5708,508.3095 744.4448,508.4335 C743.7448,509.1265 742.4468,510.4115 740.1258,510.4115 L740.0638,510.4115 C738.5568,510.3955 737.7278,510.1805 737.0638,510.0065 C736.5788,509.8805 736.2608,509.7975 735.4648,509.7905 C733.6888,509.7715 732.6608,509.2935 731.9798,508.9785 C731.5348,508.7735 731.3998,508.7105 730.8738,508.7055 L726.2778,508.6785 C725.9898,508.6925 725.9728,508.6745 725.5308,508.9505 C724.8318,509.3865 723.6708,510.0835 721.6658,510.0955 C719.8478,510.0775 718.7998,509.5565 718.1068,509.2125 C717.6618,508.9925 717.5568,508.9395 717.0678,508.9335 C716.6698,508.9185 716.6398,508.9565 716.1958,509.2015 C715.4788,509.5995 714.3998,510.1975 712.5378,510.1975 L712.4518,510.1975 C710.8548,510.1805 709.9478,509.8865 709.2858,509.6705 C708.8178,509.5185 708.5588,509.4355 707.8518,509.4275 C706.0628,509.4115 705.0258,508.9175 704.3388,508.5895 C703.8898,508.3775 703.7688,508.3205 703.2568,508.3145 C702.9318,508.2995 702.9298,508.3165 702.4858,508.5865 C701.7888,509.0125 700.5528,509.7795 698.6358,509.7055 C696.4828,509.6845 695.2798,508.7165 694.5588,508.1395 C694.4268,508.0325 694.2438,507.8865 694.1818,507.8565 C693.4478,507.8375 693.2458,507.9155 692.7838,508.0855 C692.0838,508.3445 691.1248,508.6745 689.4378,508.6845 C688.0518,508.6705 687.2858,508.5375 686.6708,508.4315 C686.1578,508.3425 685.7518,508.2735 684.8358,508.2635 C683.3318,508.2475 682.5078,508.0355 681.8458,507.8665 C681.3578,507.7415 681.0358,507.6585 680.2358,507.6505 C679.7868,507.6375 679.7038,507.6865 679.2528,507.9115 C678.5458,508.2655 677.3868,508.7885 675.6208,508.7825 C675.2798,508.7885 675.2678,508.7925 674.8268,509.0525 C674.1328,509.4675 672.9498,510.1785 671.0048,510.1425 C668.8118,510.1205 667.5988,509.0995 666.8748,508.4885 C666.7448,508.3785 666.5648,508.2275 666.5008,508.1945 C665.1198,508.1845 664.4318,508.1055 663.8238,508.0375 C663.3218,507.9805 662.8198,507.9235 661.8168,507.9155 C661.1048,507.9095 660.8398,507.9845 660.3638,508.1265 C659.6998,508.3205 658.7258,508.5615 657.2058,508.5775 C656.0618,508.5635 655.5028,508.5675 654.9338,508.5735 C654.3548,508.5775 653.7698,508.5815 652.6038,508.5695 C651.0048,508.5545 649.7198,507.2435 649.73467,505.6435 C649.7498,504.0525 651.0458,502.7735 652.6328,502.7735 L652.6608,502.7735 C653.7738,502.7875 654.3388,502.7835 654.8928,502.7775 C655.4868,502.7735 656.0778,502.7705 657.2648,502.7815 C657.9948,502.7945 658.2378,502.7115 658.7138,502.5705 C659.3798,502.3725 660.2978,502.1275 661.8748,502.1195 C663.1758,502.1325 663.8658,502.2105 664.4738,502.2775 C664.9748,502.3345 665.4758,502.3905 666.4778,502.4025 C668.6688,502.4245 669.8818,503.4455 670.6058,504.0545 C670.7378,504.1665 670.9178,504.3175 670.9818,504.3505 L670.9948,504.3505 C671.3988,504.3505 671.4198,504.3375 671.8568,504.0775 C672.5518,503.6625 673.7838,502.9625 675.6798,502.9875 C676.1608,503.0175 676.2158,502.9535 676.6648,502.7265 C677.3718,502.3725 678.4928,501.8095 680.2948,501.8555 C681.7978,501.8725 682.6218,502.0835 683.2848,502.2525 C683.7708,502.3775 684.0938,502.4605 684.8928,502.4675 C686.2778,502.4815 687.0448,502.6155 687.6598,502.7205 C688.1728,502.8095 688.5778,502.8795 689.4948,502.8885 C690.1608,502.9135 690.3048,502.8235 690.7648,502.6535 C691.4648,502.3925 692.4478,502.0565 694.1098,502.0525 C696.2648,502.0765 697.4678,503.0425 698.1868,503.6195 C698.3208,503.7265 698.5018,503.8725 698.5638,503.9025 C699.0278,503.9205 699.0258,503.9115 699.4678,503.6395 C700.1658,503.2135 701.4208,502.5055 703.3138,502.5195 C705.1048,502.5385 706.1418,503.0305 706.8278,503.3565 C707.2758,503.5705 707.3968,503.6275 707.9098,503.6315 C709.5068,503.6495 710.4138,503.9435 711.0758,504.1585 C711.5438,504.3115 711.8028,504.3945 712.5098,504.4025 C712.8858,504.4055 712.9378,504.3785 713.3818,504.1335 C714.0978,503.7365 715.1778,503.1375 717.0398,503.1375 L717.1268,503.1375 C718.9428,503.1575 719.9918,503.6775 720.6838,504.0205 C721.1298,504.2415 721.2348,504.2945 721.7238,504.2995 C722.0318,504.3035 722.0298,504.3035 722.4718,504.0285 C723.1718,503.5925 724.3388,502.9435 726.3348,502.8825 L730.9318,502.9105 C732.7078,502.9285 733.7358,503.4065 734.4178,503.7205 C734.8618,503.9265 734.9968,503.9895 735.5228,503.9945 C737.0298,504.0095 737.8578,504.2245 738.5238,504.3985 C739.0078,504.5245 739.3258,504.6075 740.1208,504.6155 C740.1318,504.5735 740.2428,504.4375 740.3698,504.3135 C741.0688,503.6215 742.3668,502.3355 744.6878,502.3355 L744.7498,502.3355 C746.6628,502.3565 747.7458,502.9835 748.4628,503.3965 C748.9038,503.6515 748.9498,503.6775 749.3408,503.6815 C750.5328,503.6925 751.1308,503.7165 751.7288,503.7415 C752.2818,503.7645 752.8348,503.7855 753.9418,503.7955 C754.4268,503.8135 754.5168,503.7565 754.9718,503.5385 C755.6738,503.2025 756.6958,502.7385 758.5638,502.7105 C760.2708,502.7265 761.2328,503.1215 761.9348,503.4095 C762.3928,503.5985 762.5668,503.6695 763.1598,503.6755 C765.1728,503.6965 766.3388,504.4735 767.0368,504.9375 C767.3248,505.1315 767.4198,505.1945 767.5408,505.2145 C767.6288,505.1175 767.7368,504.9885 767.8248,504.8845 C768.5348,504.0405 769.8488,502.4735 772.3308,502.4735 L772.3898,502.4735 C774.8168,502.5005 776.1128,503.9415 776.8068,504.7145 C776.9038,504.8225 776.9918,504.9375 777.0968,505.0365 C777.3938,505.0305 777.4828,504.9815 777.8758,504.7695 C778.5888,504.3805 779.6598,503.7995 781.5108,503.7995 L781.5978,503.7995 C783.7688,503.8235 784.9778,504.8115 785.6988,505.4025 C785.8328,505.5095 786.0148,505.6585 786.0778,505.6905 C786.2718,505.6755 786.4538,505.5205 786.5858,505.4055 C787.2838,504.8055 788.6288,503.6275 790.8228,503.7125 C792.5758,503.7325 793.5948,504.1845 794.2678,504.4855 C794.7158,504.6845 794.8658,504.7515 795.4168,504.7565 C797.2428,504.7755 798.2938,505.3055 798.9898,505.6565 C799.4298,505.8785 799.5358,505.9315 800.0148,505.9355 C800.2548,505.9435 800.2528,505.9395 800.6538,505.6605 C801.3638,505.1695 802.5428,504.3565 804.5648,504.3565 L804.6458,504.3565 C806.0898,504.3725 806.8858,504.5405 807.5228,504.6755 C808.0268,504.7835 808.3908,504.8605 809.2558,504.8685 C809.6628,504.8745 809.6968,504.8455 810.1438,504.5995 C810.8608,504.2065 811.9378,503.6115 813.7988,503.6115 L813.8858,503.6115 C816.0868,503.6335 817.3018,504.6625 818.0298,505.2755 C818.1208,505.3545 818.2368,505.4535 818.3198,505.5145 C818.4008,505.4245 818.4938,505.3155 818.5688,505.2245 C819.2868,504.3725 820.6158,502.8055 823.1438,502.8115 C824.7458,502.8285 826.0288,504.1395 826.012948,505.7395 C825.9948,507.2635 824.8068,508.5005 823.3118,508.5995 C823.2208,508.7015 823.1008,508.8405 823.0068,508.9545 C822.2958,509.7995 820.9758,511.3675 818.4938,511.3675 L818.4318,511.3675 C816.2318,511.3465 815.0148,510.3185 814.2888,509.7035 C814.1568,509.5915 813.9748,509.4395 813.9118,509.4055 C813.4668,509.3785 813.3898,509.4295 812.9438,509.6745 C812.2138,510.0775 811.0718,510.6035 809.1968,510.6645 C807.7558,510.6485 806.9598,510.4805 806.3218,510.3445 C805.8178,510.2375 805.4538,510.1605 804.5878,510.1525 C804.3428,510.1665 804.3518,510.1505 803.9478,510.4275 C803.2388,510.9185 802.0588,511.7315 800.0358,511.7315" id="Fill-20" fill="#A2D249"/><path d="M816.0094,551.7862 C815.9454,551.7862 815.8804,551.7842 815.8154,551.7842 C814.3834,551.7622 813.5944,551.5992 812.9624,551.4672 C812.4464,551.3612 812.0774,551.2842 811.1954,551.2712 C809.7454,551.2482 808.9474,551.0712 808.3064,550.9282 C807.8044,550.8162 807.4444,550.7372 806.5834,550.7242 C805.4084,550.7072 804.8184,550.6882 804.2294,550.6692 C803.6644,550.6522 803.0994,550.6352 801.9694,550.6182 C800.1034,550.5882 799.0374,550.0132 798.3334,549.6322 C797.9224,549.4092 797.8254,549.3562 797.4544,549.3452 C797.3454,549.4372 797.2524,549.5492 797.1534,549.6502 C796.4394,550.3712 795.1144,551.7692 792.7214,551.6792 C791.3944,551.6582 790.6914,551.5612 790.0704,551.4762 C789.5474,551.4052 789.0954,551.3432 788.1194,551.3272 C785.6324,551.2902 784.3404,549.7312 783.6464,548.8932 C783.5554,548.7842 783.4454,548.6502 783.3584,548.5552 C782.4534,548.5152 782.0034,548.5862 781.5304,548.6282 C780.9554,548.6752 780.3034,548.7392 779.1544,548.7232 C779.0644,548.8222 778.9504,548.9562 778.8584,549.0652 C778.1374,549.9162 776.8734,551.4952 774.2764,551.4582 C772.8494,551.4372 772.0624,551.2742 771.4284,551.1422 C770.9174,551.0372 770.5474,550.9622 769.6684,550.9482 C768.7834,550.9302 768.3684,550.9952 767.8634,551.0782 C767.2354,551.1792 766.4424,551.2962 765.0524,551.2822 C763.0744,551.2522 761.9254,550.5152 761.2384,550.0752 C760.7994,549.7922 760.7914,549.7882 760.4614,549.7822 C758.5524,549.7522 757.4714,549.1222 756.7564,548.7052 C756.3984,548.4982 756.2994,548.4412 756.0644,548.4242 C755.9754,548.5162 755.8624,548.6462 755.7704,548.7512 C755.0604,549.5562 753.7454,551.0502 751.3144,551.0502 L751.2254,551.0502 C749.0654,551.0162 747.8644,550.0372 747.1484,549.4542 C747.0164,549.3452 746.8344,549.1972 746.7724,549.1672 C744.7334,549.1302 743.6504,548.4982 742.9354,548.0792 C742.5934,547.8792 742.4914,547.8182 742.2794,547.8002 C742.1884,547.8952 742.0764,548.0262 741.9884,548.1322 C741.2774,548.9662 739.9594,550.5112 737.5014,550.5112 L737.4124,550.5112 C735.3214,550.4782 734.1384,549.5922 733.4304,549.0632 C733.0434,548.7732 733.0434,548.7732 732.8304,548.7712 C730.9604,548.7412 729.8954,548.1562 729.1894,547.7692 C728.7454,547.5262 728.6784,547.4882 728.2454,547.4822 C727.7064,547.4842 727.5424,547.5372 727.0894,547.7242 C726.4064,548.0022 725.3564,548.4052 723.6334,548.3992 C722.7614,548.3912 722.3604,548.4462 721.8374,548.5312 C721.2084,548.6342 720.4464,548.7562 719.0284,548.7392 C718.5454,548.7272 718.3944,548.7862 717.9434,548.9882 C717.2464,549.2982 716.1674,549.7012 714.4044,549.7432 C712.8774,549.7192 712.0434,549.4882 711.3724,549.3022 C710.8794,549.1662 710.5834,549.0832 709.8024,549.0712 C707.8524,549.0412 706.7574,548.3632 706.0304,547.9172 C705.5974,547.6462 705.5714,547.6322 705.2184,547.6262 C705.1654,547.6402 704.9844,547.7982 704.8504,547.9152 C704.1594,548.5202 702.8824,549.6382 700.6774,549.6382 L700.5784,549.6382 C698.6734,549.6072 697.5944,548.9842 696.8794,548.5712 C696.4364,548.3142 696.3884,548.2882 695.9904,548.2822 C695.1894,548.2532 694.8474,548.3432 694.3474,548.4502 C693.6874,548.5982 692.8614,548.7352 691.3774,548.7562 C690.6784,548.7372 690.3934,548.8202 689.9154,548.9582 C689.2534,549.1522 688.3804,549.4112 686.7594,549.3902 C685.6504,549.3732 685.0934,549.3772 684.5364,549.3872 C683.9394,549.3972 683.3414,549.3992 682.1474,549.3852 C679.6884,549.3482 678.4004,547.8372 677.7054,547.0262 C677.6134,546.9172 677.5264,546.8002 677.4264,546.6982 C676.7034,546.6362 676.3774,546.7622 675.9024,546.8602 C675.2514,546.9922 674.4444,547.1682 672.9684,547.1382 C672.5234,547.1432 672.4214,547.1752 671.9764,547.3922 C671.2664,547.7392 670.2414,548.2802 668.3464,548.2352 C667.1524,548.2172 666.5594,548.1942 665.9614,548.1712 C665.4064,548.1482 664.8484,548.1282 663.7404,548.1112 C662.1414,548.0862 661.2324,547.7822 660.5684,547.5602 C660.1034,547.4052 659.8474,547.3202 659.1434,547.3092 C658.6814,547.3182 658.5174,547.3542 658.0644,547.5582 C657.3674,547.8692 656.2604,548.3562 654.5234,548.3122 C652.3734,548.2802 651.1764,547.3102 650.4594,546.7332 C650.3264,546.6262 650.1464,546.4792 650.0834,546.4492 C648.4844,546.4262 647.1394,545.1052 647.161134,543.5062 C647.1864,541.9192 648.4124,540.6452 649.9924,540.6452 L650.0364,540.6452 C652.1874,540.6782 653.3854,541.6472 654.1024,542.2242 C654.2344,542.3322 654.4154,542.4792 654.4784,542.5102 C655.1184,542.5302 655.2434,542.4702 655.6954,542.2682 C656.3894,541.9572 657.4134,541.5082 659.2324,541.5142 C660.8334,541.5382 661.7424,541.8422 662.4064,542.0642 C662.8864,542.2242 663.1254,542.3062 663.8294,542.3152 C665.0064,542.3342 665.5994,542.3562 666.1864,542.3802 C666.7494,542.4022 667.3064,542.4232 668.4354,542.4392 C668.8784,542.4292 668.9884,542.4022 669.4334,542.1852 C670.1404,541.8382 671.1554,541.3492 673.0574,541.3422 C673.8874,541.3742 674.2304,541.2852 674.7394,541.1822 C675.3924,541.0502 676.2034,540.8782 677.6714,540.9042 C680.1314,540.9402 681.4204,542.4512 682.1144,543.2632 C682.2064,543.3722 682.2934,543.4882 682.3944,543.5912 C683.4054,543.6072 683.9334,543.5992 684.4594,543.5932 C685.0584,543.5812 685.6554,543.5752 686.8484,543.5952 C687.5744,543.6282 687.8284,543.5282 688.3064,543.3902 C688.9724,543.2002 689.8724,542.9812 691.4664,542.9612 C692.2594,542.9892 692.6044,542.9002 693.1024,542.7912 C693.7624,542.6452 694.5474,542.4292 696.0794,542.4872 C697.9834,542.5152 699.0644,543.1402 699.7794,543.5532 C700.2224,543.8092 700.2694,543.8362 700.6674,543.8422 C700.7994,543.7832 700.9104,543.6602 701.0334,543.5532 C701.7244,542.9492 703.0034,541.8302 705.2084,541.8302 L705.3064,541.8302 C707.2574,541.8602 708.3524,542.5382 709.0774,542.9852 C709.5144,543.2552 709.5384,543.2692 709.8934,543.2752 C711.4154,543.3002 712.2494,543.5302 712.9194,543.7172 C713.4134,543.8522 713.7094,543.9352 714.4924,543.9472 C714.9464,543.9322 715.1184,543.9022 715.5754,543.6982 C716.2724,543.3892 717.3434,542.9682 719.1164,542.9432 C719.9974,542.9532 720.3844,542.8962 720.9064,542.8112 C721.5334,542.7102 722.2714,542.5622 723.7244,542.6032 C724.2574,542.5912 724.4294,542.5492 724.8844,542.3642 C725.5654,542.0832 726.6314,541.6702 728.3344,541.6872 C730.2064,541.7172 731.2724,542.3022 731.9784,542.6882 C732.4214,542.9322 732.4884,542.9702 732.9194,542.9752 C735.0094,543.0082 736.1944,543.8922 736.9024,544.4232 C737.1244,544.5892 737.2184,544.6602 737.2994,544.6902 C737.3864,544.5952 737.4904,544.4742 737.5754,544.3742 C738.2954,543.5282 739.5584,541.9042 742.1504,541.9942 C744.0634,542.0242 745.1464,542.6572 745.8614,543.0752 C746.2994,543.3322 746.3444,543.3582 746.7354,543.3642 C748.8934,543.3982 750.0934,544.3772 750.8104,544.9602 C750.9214,545.0512 751.0664,545.1702 751.1484,545.2242 C751.2324,545.1342 751.3344,545.0162 751.4194,544.9212 C752.1284,544.1152 753.4444,542.6212 755.8754,542.6212 L755.9644,542.6212 C757.8754,542.6512 758.9584,543.2812 759.6734,543.6982 C760.1134,543.9552 760.1594,543.9812 760.5524,543.9872 C762.5314,544.0162 763.6804,544.7552 764.3664,545.1962 C764.8064,545.4772 764.8144,545.4812 765.1424,545.4862 C766.0364,545.5002 766.4424,545.4372 766.9474,545.3562 C767.5734,545.2572 768.3744,545.1212 769.7594,545.1522 C771.1834,545.1762 771.9684,545.3382 772.6004,545.4682 C773.0664,545.5642 773.4154,545.6362 774.1414,545.6582 C774.2324,545.5582 774.3454,545.4272 774.4364,545.3182 C775.1564,544.4702 776.4054,542.9212 779.0184,542.9272 C780.0104,542.9342 780.5244,542.8982 781.0284,542.8542 C781.6414,542.8002 782.3364,542.7472 783.6354,542.7612 C786.1234,542.8002 787.4154,544.3582 788.1104,545.1962 C788.1984,545.3042 788.3104,545.4392 788.3994,545.5362 C789.6044,545.5622 790.2684,545.6522 790.8574,545.7332 C791.3664,545.8042 791.8084,545.8642 792.7244,545.8812 C792.8344,545.7882 792.9264,545.6792 793.0284,545.5772 C793.7324,544.8642 795.0334,543.5472 797.3634,543.5472 L797.4564,543.5472 C799.3224,543.5772 800.3884,544.1532 801.0914,544.5342 C801.5324,544.7732 801.6134,544.8172 802.0584,544.8222 C803.2314,544.8402 803.8204,544.8582 804.4084,544.8772 C804.9744,544.8942 805.5404,544.9112 806.6724,544.9292 C808.1234,544.9512 808.9214,545.1282 809.5634,545.2712 C810.0644,545.3832 810.4244,545.4622 811.2844,545.4752 C812.7154,545.4982 813.5034,545.6602 814.1354,545.7922 C814.6514,545.8982 815.0214,545.9752 815.9044,545.9882 C816.6094,546.0242 816.8784,545.9232 817.3564,545.7812 C818.0264,545.5832 818.9224,545.3492 820.5404,545.3382 C822.1404,545.3622 823.4174,546.6812 823.393733,548.2802 C823.3684,549.8652 822.0764,551.1332 820.4974,551.1332 C820.4314,551.1372 820.3744,551.1332 820.3204,551.1322 C819.7014,551.1322 819.4434,551.2092 818.9954,551.3412 C818.3544,551.5292 817.4864,551.7862 816.0094,551.7862" id="Fill-22" fill="#A2D249"/><path d="M702.4107,593.2076 C700.6537,593.2076 699.6287,592.7636 698.9467,592.4666 C698.4977,592.2726 698.3457,592.2066 697.7947,592.2066 C697.1847,592.2066 696.9967,592.2806 696.5377,592.4576 C695.8357,592.7316 694.8757,593.1046 693.1777,593.1046 C691.9397,593.1046 691.3207,593.0696 690.7027,593.0316 C690.1687,593.0006 689.6327,592.9686 688.5647,592.9686 C686.3787,592.9686 685.1557,591.9706 684.4257,591.3766 C684.2937,591.2676 684.1107,591.1206 684.0467,591.0856 L684.0197,591.0856 C682.5787,591.0856 681.8577,590.9826 681.2247,590.8876 C680.6957,590.8106 680.2767,590.7496 679.3337,590.7496 C677.7967,590.7496 676.9527,590.5236 676.2737,590.3406 C675.7847,590.2086 675.4907,590.1296 674.7217,590.1296 C673.7887,590.1296 673.3757,590.1936 672.8527,590.2726 C672.2117,590.3736 671.4817,590.4846 670.1077,590.4846 C669.4987,590.4846 669.3097,590.5576 668.8517,590.7356 C668.1517,591.0066 667.1927,591.3796 665.4957,591.3796 C664.9837,591.3796 664.8637,591.4366 664.4147,591.6466 C663.7227,591.9686 662.6777,592.4576 660.8807,592.4576 C658.7827,592.4576 657.5827,591.5816 656.8657,591.0596 C656.4757,590.7746 656.4757,590.7746 656.2667,590.7746 C655.9827,590.7746 655.9827,590.7746 655.5577,591.0556 C654.8527,591.5196 653.6757,592.2946 651.6537,592.2946 C650.1647,592.2946 649.3447,592.1026 648.6857,591.9486 C648.1877,591.8316 647.8587,591.7536 647.0447,591.7536 C645.4447,591.7536 644.1467,590.4566 644.1467,588.8566 C644.1467,587.2556 645.4447,585.9576 647.0447,585.9576 C648.5307,585.9576 649.3517,586.1506 650.0107,586.3056 C650.5087,586.4216 650.8367,586.4996 651.6537,586.4996 C651.9377,586.4996 651.9377,586.4996 652.3667,586.2186 C653.0677,585.7546 654.2437,584.9796 656.2667,584.9796 C658.3637,584.9796 659.5637,585.8546 660.2807,586.3766 C660.6717,586.6626 660.6717,586.6626 660.8807,586.6626 C661.3927,586.6626 661.5137,586.6056 661.9617,586.3956 C662.6537,586.0736 663.6997,585.5846 665.4957,585.5846 C666.1067,585.5846 666.2957,585.5106 666.7537,585.3336 C667.4537,585.0606 668.4117,584.6886 670.1077,584.6886 C671.0387,584.6886 671.4517,584.6236 671.9727,584.5446 C672.6157,584.4456 673.3457,584.3336 674.7217,584.3336 C676.2567,584.3336 677.1007,584.5606 677.7787,584.7436 C678.2677,584.8746 678.5617,584.9546 679.3337,584.9546 C680.6997,584.9546 681.4247,585.0606 682.0617,585.1546 C682.5907,585.2316 683.0087,585.2916 683.9517,585.2916 C686.1377,585.2916 687.3587,586.2886 688.0897,586.8846 C688.2217,586.9946 688.4047,587.1416 688.4687,587.1746 L688.5207,587.1746 C689.8217,587.1746 690.4317,587.2106 691.0417,587.2476 C691.5757,587.2776 692.1097,587.3086 693.1777,587.3086 C693.7887,587.3086 693.9767,587.2356 694.4357,587.0566 C695.1387,586.7846 696.0967,586.4116 697.7947,586.4116 C699.5487,586.4116 700.5747,586.8566 701.2547,587.1506 C701.7057,587.3466 701.8577,587.4136 702.4107,587.4136 C702.5547,587.3846 702.7347,587.2336 702.8677,587.1236 C703.6007,586.5166 704.8257,585.4996 707.0237,585.4996 C709.1887,585.4996 710.4077,586.4696 711.1367,587.0466 C711.2697,587.1546 711.4557,587.3016 711.5177,587.3316 C711.5397,587.3336 711.5517,587.3366 711.5557,587.3406 C711.6687,587.2476 711.7607,587.1316 711.8627,587.0266 C712.5637,586.2996 713.8717,584.9476 716.2547,584.9476 C718.4867,584.9476 719.7187,586.0126 720.4567,586.6486 C720.5867,586.7616 720.7657,586.9186 720.8317,586.9546 C721.3487,586.9396 721.4547,586.8886 721.8987,586.6706 C722.5977,586.3316 723.6517,585.8186 725.4717,585.8186 C727.3897,585.8186 728.4817,586.4416 729.2067,586.8526 C729.6457,587.1016 729.6927,587.1276 730.0777,587.1276 C730.6927,587.1276 730.8817,587.0546 731.3427,586.8766 C732.0417,586.6056 733.0007,586.2356 734.6947,586.2356 C735.5037,586.2356 735.8307,586.1566 736.3227,586.0376 C736.9847,585.8786 737.8107,585.6786 739.3097,585.6786 C740.2107,585.6786 740.6087,585.6096 741.1147,585.5206 C741.7387,585.4116 742.5167,585.2756 743.9197,585.2756 C745.2127,585.2756 745.8567,585.3376 746.5027,585.3976 C747.0107,585.4476 747.5187,585.4966 748.5347,585.4966 C750.4987,585.4966 751.6527,586.1966 752.3437,586.6156 C752.7907,586.8826 752.8087,586.8936 753.1527,586.8936 C753.3897,586.8936 753.3897,586.8936 753.7907,586.6116 C754.5037,586.1076 755.6957,585.2676 757.7677,585.2676 C759.9637,585.2676 761.1877,586.2796 761.9227,586.8826 C762.0547,586.9926 762.2367,587.1426 762.3017,587.1766 C762.5087,587.1146 762.6177,586.9886 762.7407,586.8766 C763.4337,586.2436 764.7257,585.0626 767.0047,585.0626 C769.1497,585.0626 770.3647,586.0016 771.0897,586.5636 C771.2257,586.6696 771.4117,586.8146 771.4747,586.8426 C771.6447,586.8096 771.7567,586.6706 771.8817,586.5466 C772.5817,585.8426 773.8857,584.5346 776.2427,584.5346 C778.6247,584.5346 779.9317,585.8806 780.6337,586.6056 C780.7597,586.7336 780.8707,586.8766 781.0217,586.9786 C782.3057,586.9136 783.1157,587.0796 783.7637,587.2146 C784.2657,587.3186 784.6277,587.3936 785.4877,587.3936 C786.1097,587.3936 786.3027,587.3206 786.7677,587.1446 C787.4627,586.8806 788.4157,586.5206 790.1007,586.5206 C790.2257,586.4946 790.4057,586.3406 790.5377,586.2296 C791.2717,585.6076 792.5017,584.5656 794.7187,584.5656 C796.3777,584.5656 797.3187,584.9016 798.0057,585.1476 C798.4757,585.3146 798.6877,585.3906 799.3437,585.3906 C800.1877,585.3906 800.5467,585.3136 801.0407,585.2056 C801.6917,585.0646 802.5017,584.8886 803.9697,584.8886 C806.2577,584.8886 807.5517,586.0816 808.2457,586.7226 C808.3777,586.8426 808.5597,587.0086 808.6267,587.0506 C809.1247,587.0206 809.2607,586.9576 809.7117,586.7536 C810.3997,586.4396 811.4417,585.9656 813.2277,585.9656 C814.2487,585.9656 814.7607,585.9166 815.2697,585.8676 C815.9187,585.8076 816.5657,585.7456 817.8617,585.7456 C819.4617,585.7456 820.7597,587.0426 820.7597,588.6426 C820.7597,590.2436 819.4617,591.5406 817.8617,591.5406 C816.8417,591.5406 816.3297,591.5896 815.8207,591.6386 C815.1717,591.6996 814.5237,591.7616 813.2277,591.7616 C812.6977,591.7616 812.5617,591.8236 812.1117,592.0276 C811.4227,592.3426 810.3817,592.8166 808.5957,592.8166 C806.3067,592.8166 805.0127,591.6236 804.3177,590.9826 C804.1857,590.8616 804.0047,590.6956 803.9367,590.6546 C803.1237,590.6846 802.7657,590.7616 802.2707,590.8696 C801.6197,591.0106 800.8107,591.1856 799.3437,591.1856 C797.6857,591.1856 796.7447,590.8506 796.0587,590.6046 C795.5887,590.4386 795.3737,590.3616 794.7187,590.3616 C794.5947,590.3876 794.4137,590.5406 794.2807,590.6526 C793.5477,591.2746 792.3167,592.3166 790.1007,592.3166 C789.4777,592.3166 789.2837,592.3896 788.8187,592.5656 C788.1237,592.8296 787.1707,593.1896 785.4877,593.1896 C784.0327,593.1896 783.2307,593.0236 782.5857,592.8896 C782.0847,592.7866 781.7227,592.7096 780.8637,592.7096 C778.4827,592.7096 777.1777,591.3636 776.4757,590.6406 C776.3927,590.5556 776.3167,590.4666 776.2317,590.3856 C776.1467,590.4656 776.0697,590.5536 775.9867,590.6346 C775.2867,591.3386 773.9827,592.6486 771.6247,592.6486 C769.4777,592.6486 768.2637,591.7066 767.5387,591.1446 C767.4027,591.0396 767.2157,590.8956 767.1537,590.8676 L766.9437,590.8616 C766.8817,590.9156 766.7717,591.0426 766.6497,591.1546 C765.9577,591.7886 764.6647,592.9686 762.3867,592.9686 C760.1897,592.9686 758.9657,591.9576 758.2317,591.3536 C758.1007,591.2446 757.9167,591.0936 757.8517,591.0596 C757.5317,591.0636 757.5317,591.0636 757.1307,591.3466 C756.4167,591.8506 755.2247,592.6896 753.1527,592.6896 C751.1887,592.6896 750.0347,591.9896 749.3447,591.5716 C748.8967,591.3026 748.8797,591.2916 748.5347,591.2916 C747.2417,591.2916 746.5977,591.2296 745.9517,591.1686 C745.4437,591.1206 744.9347,591.0716 743.9197,591.0716 C743.0177,591.0716 742.6197,591.1406 742.1147,591.2296 C741.4897,591.3386 740.7127,591.4746 739.3097,591.4746 C738.4997,591.4746 738.1737,591.5536 737.6817,591.6726 C737.0187,591.8316 736.1917,592.0316 734.6947,592.0316 C734.0817,592.0316 733.8917,592.1046 733.4327,592.2826 C732.7317,592.5536 731.7737,592.9236 730.0777,592.9236 C728.1587,592.9236 727.0667,592.3006 726.3427,591.8896 C725.9027,591.6406 725.8557,591.6146 725.4717,591.6146 C724.9857,591.6146 724.8807,591.6646 724.4347,591.8816 C723.7367,592.2216 722.6827,592.7356 720.8637,592.7356 C718.6337,592.7356 717.4017,591.6686 716.6657,591.0336 C716.5527,590.9366 716.4057,590.8086 716.3247,590.7496 C716.2197,590.8426 716.1287,590.9526 716.0317,591.0516 C715.3307,591.7786 714.0227,593.1306 711.6407,593.1306 C709.4747,593.1306 708.2577,592.1636 707.5287,591.5836 C707.3947,591.4766 707.2107,591.3316 707.1457,591.2986 L706.9137,591.3026 C706.8827,591.3246 706.7007,591.4746 706.5687,591.5836 C705.8347,592.1916 704.6107,593.2076 702.4107,593.2076" id="Fill-24" fill="#A2D249"/><path d="M694.1207,625.13 C694.0497,625.13 693.9767,625.126 693.9037,625.122 C692.3087,625 691.1117,623.649 691.2327,622.053 C691.4007,619.848 692.5207,618.696 693.1887,618.008 C693.3117,617.884 693.4787,617.71 693.5187,617.648 C693.5097,617.527 693.3567,617.333 693.2437,617.192 C692.6547,616.447 691.5587,615.063 691.7307,612.775 C691.8817,610.778 692.7117,609.667 693.2077,609.003 C693.5267,608.577 693.5267,608.577 693.5497,608.262 C693.7117,606.116 694.7477,604.974 695.3637,604.29 C695.4807,604.162 695.6417,603.986 695.6737,603.927 C695.6797,603.897 695.6867,603.881 695.6947,603.877 C695.6037,603.759 695.4927,603.654 695.3917,603.545 C694.6977,602.785 693.4057,601.37 693.5877,598.967 C693.7217,597.186 694.2757,596.182 694.6417,595.518 C694.8797,595.086 694.9507,594.955 694.9907,594.431 C694.9767,594.337 694.8347,594.147 694.7277,594.005 C694.1797,593.273 693.1547,591.906 693.3227,589.669 C693.5267,586.974 695.5737,585.812 696.6737,585.187 C696.7177,585.16 696.7667,585.132 696.8167,585.104 C696.8127,585.098 696.8077,585.092 696.8027,585.087 C696.1017,584.326 694.7967,582.911 694.9787,580.5 C695.0697,579.312 695.1287,578.72 695.1867,578.125 C695.2417,577.567 695.2987,577.008 695.3817,575.89 C695.5357,573.841 696.4337,572.718 696.9717,572.046 C697.2177,571.741 697.2717,571.671 697.2947,571.535 C697.2097,571.441 697.0887,571.315 696.9927,571.215 C696.2527,570.45 694.8797,569.027 695.0617,566.579 C695.2567,563.992 697.0847,562.806 698.0657,562.17 C698.1867,562.091 698.3457,561.987 698.4677,561.902 C698.6147,560.421 698.9977,559.572 699.2807,558.944 C699.4447,558.578 699.5377,558.372 699.5927,557.965 C699.4787,557.861 699.3337,557.738 699.2227,557.644 C698.2987,556.865 696.5757,555.414 696.7737,552.782 C696.8777,551.422 697.0337,550.709 697.1737,550.079 C697.2907,549.555 697.3837,549.141 697.4527,548.196 C697.4907,547.713 697.4447,547.604 697.2607,547.142 C696.9717,546.417 696.5337,545.322 696.6697,543.502 C696.8307,541.374 697.8377,540.236 698.4407,539.556 C698.5487,539.433 698.7147,539.246 698.7427,539.188 C698.8977,537.333 699.3337,536.406 699.6547,535.73 C699.8657,535.278 699.9547,535.092 699.9997,534.473 C700.1227,532.875 700.5237,531.971 700.9597,531.112 C701.1807,530.677 701.2637,530.513 701.3077,529.94 C701.2587,529.813 701.1417,529.694 701.0397,529.564 C700.4597,528.824 699.3807,527.449 699.5507,525.176 C699.6937,523.291 700.3617,522.255 700.8037,521.568 C701.0747,521.148 701.1187,521.083 701.1487,520.665 C701.1277,520.474 700.9957,520.277 700.8997,520.137 C700.3757,519.364 699.4957,518.074 699.6597,515.91 C699.7147,515.19 699.6547,514.92 699.5447,514.432 C699.3917,513.756 699.1847,512.829 699.3037,511.247 C699.5077,508.581 701.5277,507.419 702.6717,506.788 C701.7387,505.988 700.1937,504.553 700.3827,502.048 C700.4407,501.271 700.3867,500.967 700.2927,500.463 C700.1657,499.775 700.0077,498.916 700.1227,497.386 C700.3057,494.954 701.8497,493.754 702.6807,493.109 C702.7917,493.022 702.9317,492.914 703.0257,492.831 C703.0807,492.017 703.0447,491.624 702.9997,491.136 C702.9407,490.507 702.8687,489.725 702.9737,488.328 C703.0447,487.395 703.0127,486.976 702.9717,486.447 C702.9227,485.796 702.8657,485.061 702.9677,483.687 C703.0447,482.674 703.0337,482.164 703.0217,481.653 C703.0077,481.002 702.9937,480.35 703.0907,479.058 C703.2637,476.754 704.5877,475.552 705.2977,474.906 C705.4237,474.794 705.5607,474.693 705.6657,474.552 C705.6047,474.469 705.4677,474.275 705.3667,474.135 C704.8117,473.358 703.8867,472.056 704.0507,469.859 C704.2147,467.715 705.2447,466.575 705.8597,465.895 C705.9757,465.766 706.1357,465.589 706.1667,465.528 C706.2207,464.953 706.1897,464.881 705.9837,464.417 C705.6537,463.674 705.1577,462.552 705.2997,460.67 C705.2897,460.619 705.1407,460.427 705.0307,460.287 C704.4557,459.548 703.3847,458.173 703.5547,455.906 C703.6977,454.011 704.3747,452.971 704.8237,452.282 C705.1027,451.857 705.1397,451.802 705.1687,451.389 C705.2487,450.336 705.2537,449.806 705.2577,449.276 C705.2637,448.649 705.2667,448.021 705.3617,446.774 C705.4657,445.419 705.6197,444.71 705.7557,444.083 C705.8707,443.555 705.9617,443.14 706.0327,442.188 C706.1917,440.082 707.1707,438.948 707.7557,438.271 C708.0707,437.904 708.0707,437.904 708.0857,437.703 C708.1827,436.435 708.2817,435.807 708.3807,435.179 C708.4617,434.661 708.5427,434.145 708.6197,433.106 C708.6647,432.503 708.6097,432.324 708.4617,431.845 C708.2347,431.122 707.9257,430.13 708.0537,428.428 C708.1137,427.638 708.0577,427.314 707.9707,426.821 C707.8497,426.138 707.7007,425.289 707.8137,423.776 C707.9377,422.144 708.3257,421.24 708.6057,420.58 C708.8007,420.127 708.8987,419.901 708.9477,419.23 C708.9277,419.026 708.7967,418.829 708.7007,418.686 C708.1867,417.918 707.3287,416.635 707.4897,414.486 C707.6077,412.89 708.9967,411.681 710.5977,411.813 C712.1927,411.934 713.3897,413.324 713.2697,414.92 C713.2607,415.026 713.2697,415.069 713.2697,415.069 C713.2907,415.124 713.4217,415.32 713.5167,415.464 C714.0307,416.232 714.8907,417.515 714.7277,419.663 C714.6037,421.295 714.2177,422.2 713.9357,422.86 C713.7417,423.314 713.6437,423.54 713.5947,424.212 C713.5337,425 713.5907,425.325 713.6777,425.818 C713.7987,426.5 713.9477,427.349 713.8347,428.862 C713.7887,429.464 713.8437,429.644 713.9927,430.122 C714.2197,430.845 714.5287,431.835 714.3997,433.539 C714.3047,434.813 714.2037,435.443 714.1057,436.076 C714.0247,436.59 713.9437,437.105 713.8657,438.141 C713.7077,440.244 712.7287,441.378 712.1437,442.056 C711.8287,442.421 711.8287,442.421 711.8137,442.621 C711.7117,443.978 711.5557,444.689 711.4197,445.318 C711.3047,445.844 711.2137,446.261 711.1417,447.211 C711.0627,448.264 711.0577,448.794 711.0537,449.324 C711.0477,449.95 711.0437,450.579 710.9497,451.826 C710.8047,453.722 710.1267,454.762 709.6807,455.448 C709.4007,455.875 709.3647,455.93 709.3347,456.341 C709.3447,456.394 709.4927,456.586 709.6017,456.726 C710.1787,457.465 711.2497,458.841 711.0797,461.109 C711.0457,461.536 711.0777,461.609 711.2837,462.07 C711.6117,462.814 712.1097,463.937 711.9687,465.816 C711.8067,467.958 710.7757,469.1 710.1587,469.781 C710.0427,469.909 709.8837,470.085 709.8507,470.145 L709.8287,470.403 C709.8487,470.438 709.9857,470.632 710.0877,470.772 C710.6407,471.549 711.5657,472.851 711.4017,475.046 C711.2287,477.352 709.9037,478.554 709.1927,479.199 C709.0687,479.312 708.9297,479.414 708.8267,479.554 C708.7937,480.506 708.8047,481.016 708.8157,481.526 C708.8307,482.178 708.8447,482.828 708.7477,484.121 C708.6767,485.055 708.7087,485.474 708.7497,486.002 C708.7987,486.652 708.8547,487.389 708.7537,488.762 C708.6837,489.673 708.7217,490.081 708.7697,490.598 C708.8287,491.226 708.9007,492.009 708.7967,493.405 C708.6097,495.841 707.0667,497.04 706.2367,497.686 C706.1217,497.775 706.0007,497.856 705.8927,497.952 C705.8497,498.641 705.9047,498.937 705.9917,499.41 C706.1097,500.048 706.2537,500.832 706.1837,502.159 C706.2977,502.265 706.4437,502.391 706.5577,502.487 C707.4687,503.267 709.1647,504.715 708.9667,507.336 C708.7617,510.053 706.6617,511.209 705.5307,511.829 C705.3917,511.907 705.2107,512.007 705.0627,512.094 C705.0577,512.529 705.1137,512.776 705.1987,513.159 C705.3517,513.835 705.5587,514.762 705.4407,516.346 C705.4617,516.537 705.5937,516.733 705.6897,516.874 C706.2147,517.646 707.0937,518.937 706.9297,521.101 C706.7857,522.985 706.1177,524.023 705.6767,524.708 C705.4047,525.13 705.3617,525.194 705.3317,525.615 C705.3807,525.737 705.4977,525.857 705.5997,525.986 C706.1787,526.727 707.2577,528.102 707.0877,530.375 C706.9677,531.971 706.5647,532.877 706.1277,533.737 C705.9067,534.173 705.8237,534.337 705.7797,534.91 C705.6517,536.595 705.2167,537.522 704.8947,538.198 C704.6837,538.65 704.5957,538.836 704.5507,539.455 C704.3887,541.581 703.3807,542.719 702.7787,543.399 C702.6717,543.521 702.5057,543.708 702.4767,543.766 C702.4127,544.417 702.4577,544.526 702.6417,544.988 C702.9317,545.713 703.3687,546.808 703.2327,548.63 C703.1297,549.99 702.9737,550.703 702.8337,551.333 C702.7307,551.792 702.6477,552.167 702.5807,552.888 C702.6957,552.993 702.8447,553.118 702.9577,553.212 C703.8827,553.993 705.6047,555.444 705.4047,558.076 C705.2787,559.736 704.8667,560.653 704.5647,561.321 C704.3637,561.774 704.2687,561.98 704.2227,562.625 C704.0277,565.211 702.2017,566.396 701.2207,567.032 C701.1807,567.059 701.1357,567.087 701.0907,567.116 C701.1147,567.142 701.1377,567.164 701.1597,567.187 C701.8977,567.952 703.2727,569.375 703.0887,571.825 C702.9337,573.873 702.0357,574.995 701.4977,575.667 C701.1807,576.063 701.1807,576.063 701.1617,576.323 C701.0707,577.51 701.0137,578.105 700.9547,578.696 C700.9017,579.238 700.8477,579.781 700.7667,580.836 C700.8557,580.951 700.9637,581.051 701.0637,581.159 C701.7637,581.917 703.0667,583.332 702.8867,585.741 C702.6827,588.438 700.6357,589.6 699.5357,590.224 C699.4527,590.272 699.3537,590.327 699.2587,590.384 C699.2947,590.436 699.3317,590.484 699.3657,590.529 C699.9147,591.262 700.9387,592.627 700.7707,594.865 C700.6377,596.65 700.0827,597.653 699.7167,598.318 C699.4917,598.723 699.4167,598.862 699.3757,599.31 C699.4637,599.427 699.5717,599.526 699.6697,599.634 C700.3637,600.395 701.6557,601.81 701.4747,604.213 C701.3127,606.359 700.2767,607.501 699.6597,608.185 C699.5437,608.313 699.3827,608.488 699.3507,608.549 C699.1777,610.695 698.3477,611.809 697.8507,612.473 C697.5337,612.896 697.5337,612.896 697.5117,613.21 C697.5187,613.254 697.6737,613.448 697.7867,613.592 C698.3757,614.335 699.4717,615.716 699.2997,618.004 C699.1317,620.212 698.0117,621.362 697.3437,622.051 C697.2207,622.176 697.0527,622.349 697.0137,622.411 C696.8977,623.936 695.6247,625.13 694.1207,625.13" id="Fill-26" fill="#A2D249"/><polygon id="Fill-28" fill="#AFDCFD" points="660.7194 364.2208 827.8474 368.6108 849.9994 137.3348 676.5434 137.3348"/><mask id="uiscreen-3-mask-4" fill="#ffffff"><use xlink:href="#uiscreen-3-path-3" fill="#ffffff"/></mask><g id="Clip-31"/><polygon id="Fill-30" fill="#F8FBF8" mask="url(#uiscreen-3-mask-4)" points="78.653 526.221 111.203 526.221 111.203 492.386 78.653 492.386"/><polygon id="Fill-32" fill="#F8FBF8" mask="url(#uiscreen-3-mask-4)" points="547.629 543.138 580.179 543.138 580.179 509.303 547.629 509.303"/><polygon id="Fill-33" fill="#F8FBF8" mask="url(#uiscreen-3-mask-4)" points="164.311 213.142 196.861 213.142 196.861 179.307 164.311 179.307"/><polygon id="Fill-34" fill="#F8FBF8" mask="url(#uiscreen-3-mask-4)" points="580.178 216.14 612.728 216.14 612.728 182.305 580.178 182.305"/><path d="M35.0055,301.3555 C35.6075,282.9195 64.2385,281.4005 63.9875,301.7315 C63.7735,319.1275 34.4755,317.5635 35.0055,301.3555 L35.0055,301.3555 Z M266.8665,258.8225 L61.3525,254.6815 C61.3525,254.6815 -0.0005,250.9125 -0.0005,302.8605 C-0.0005,352.5445 55.3305,350.6635 55.3305,350.6635 L260.8445,358.5675 L322.9495,311.1415 L266.8665,258.8225 Z" id="Fill-35" fill="#A2D249" mask="url(#uiscreen-3-mask-4)"/><path d="M470.9644,237.126 C470.9644,237.126 532.7334,164.608 548.7264,102.215 C584.5274,-37.458 341.4454,-34.761 393.4444,115.064 C408.6994,159.018 470.9644,237.126 470.9644,237.126" id="Fill-36" fill="#FE5C4F" mask="url(#uiscreen-3-mask-4)"/><path d="M495.1422,75.4474 C495.1422,89.7584 483.5402,101.3584 469.2302,101.3584 C454.9192,101.3584 443.3192,89.7584 443.3192,75.4474 C443.3192,61.1364 454.9192,49.5364 469.2302,49.5364 C483.5402,49.5364 495.1422,61.1364 495.1422,75.4474" id="Fill-37" fill="#B02D1C" mask="url(#uiscreen-3-mask-4)"/><path d="M748.7448,284.4532 L736.5268,454.0972 C736.5268,454.0972 731.8278,484.1722 768.0128,486.0522 C804.1958,487.9312 982.2988,490.7512 982.2988,490.7512 C982.2988,490.7512 1016.6028,494.0402 1019.8928,459.7352 C1023.1818,425.4312 1030.2308,293.8512 1030.2308,293.8512 C1030.2308,293.8512 1033.9908,263.7762 1006.2658,261.8962 C978.5398,260.0162 781.6408,261.8962 781.6408,261.8962 C781.6408,261.8962 750.4988,260.1092 748.7448,284.4532" id="Fill-38" fill="#F8FBF8" mask="url(#uiscreen-3-mask-4)"/><path d="M775.6998,330.9346 C773.7308,400.1516 876.7148,396.0586 877.8038,334.2526 C878.9428,269.6796 777.7228,259.7896 775.6998,330.9346" id="Fill-39" fill="#00DEB8" mask="url(#uiscreen-3-mask-4)"/><path d="M826.7242,299.5577 C821.6642,299.3897 812.3762,301.3547 808.5072,310.1897 C802.6372,323.5947 812.7912,329.2767 812.7912,329.2767 C812.7912,329.2767 820.0902,333.6537 809.1972,338.1227 C801.1542,341.4227 795.5122,344.8497 796.3422,354.0657 C797.1712,363.2807 807.3082,372.3117 827.6732,371.8507 C848.0392,371.3897 858.6042,363.7637 858.7532,354.2277 C858.8672,346.9697 858.8682,342.6847 842.0952,337.0167 C842.0952,337.0167 835.1302,334.2467 840.2982,330.0137 C848.4532,323.3317 848.1772,300.2667 826.7242,299.5577" id="Fill-40" fill="#4D33A2" mask="url(#uiscreen-3-mask-4)"/><polygon id="Fill-41" fill="#D5E1D5" mask="url(#uiscreen-3-mask-4)" points="774.1207 400.1046 774.1207 411.8526 998.2757 414.2026 998.2757 400.1046"/><polygon id="Fill-42" fill="#D5E1D5" mask="url(#uiscreen-3-mask-4)" points="774.1207 423.1983 774.1207 434.3593 998.2757 439.2763 998.2757 427.7803"/><polygon id="Fill-43" fill="#D5E1D5" mask="url(#uiscreen-3-mask-4)" points="774.1207 448.2725 774.1207 459.4325 998.2757 464.3495 998.2757 452.8535"/><path d="M900.8844,356.9063 C900.8844,356.9063 883.6624,356.5533 883.3704,368.5373 C883.0774,380.5193 894.1784,381.5773 902.0644,381.5773 L985.8964,381.5773 C985.8964,381.5773 998.4564,383.6913 999.3324,372.0613 C1000.2094,360.4303 992.3224,358.7323 986.7734,358.5243 C981.2234,358.3153 900.8844,356.9063 900.8844,356.9063" id="Fill-44" fill="#FEF864" mask="url(#uiscreen-3-mask-4)"/></g></g></g><g transform="translate(198.000000, 174.000000) scale(1 1)" id="Master/Character/Standing"><g id="Master/Character/Standing" stroke="none" stroke-width="1" fill="none" fill-rule="evenodd"><g id="Standing/Lower Body" transform="translate(14.000000, 442.000000) scale(1 1)"><g id="Standing/Lower Body/Walking" stroke="none" stroke-width="1" fill="none" fill-rule="evenodd"><g id="Group-332" transform="translate(252.000000, 155.000000) scale(-1, 1) translate(-252.000000, -155.000000) translate(142.000000, 0.000000)"><g id="Group-74" transform="translate(0.000000, 0.142000)"><path d="M189.6183,170.0922 L132.1503,159.5222 C128.7343,158.8932 126.1853,156.0182 125.9723,152.5512 L118.1893,26.2792 C118.1893,12.2392 106.8073,0.8582 92.7673,0.8582 L44.6893,0.8582 C30.6493,0.8582 19.2673,12.2392 19.2673,26.2792 L2.6423,138.3352 C2.6423,138.3352 -9.6607,185.5522 25.9173,199.8502 C61.4963,214.1482 175.5473,242.0782 175.5473,242.0782 L192.1163,173.9452 C192.5443,172.1812 191.4033,170.4202 189.6183,170.0922" id="Fill-34" fill="#5A593D"/><path d="M63.6579,202.5101 L63.6579,279.1541 L133.3189,278.4891 C133.3189,278.4891 135.2309,278.7381 135.1479,275.4951 C135.0639,272.2531 130.4919,202.5101 130.4919,202.5101 L63.6579,202.5101 Z" id="Fill-36" fill="#5A593D"/><path d="M175.5475,242.0785 C175.5475,242.0785 170.0615,258.7035 168.8975,276.4935 C167.7335,294.2825 189.1805,296.7765 194.1685,281.4805 C199.1555,266.1845 205.6395,241.0805 206.9695,234.4315 C208.2995,227.7805 216.1135,201.1805 217.4435,193.5315 C218.2495,188.8995 218.9705,185.6015 219.4135,183.7225 C219.6565,182.6935 219.0195,181.6665 217.9925,181.4175 L191.8405,175.0775 L175.5475,242.0785 Z" id="Fill-38" fill="#FE5C4F"/><path d="M63.6579,279.1537 C63.6579,279.1537 33.7319,279.3197 26.7489,280.4837 C19.7659,281.6467 15.7759,290.1267 18.4359,298.1067 C21.0959,306.0867 29.5759,308.2487 43.2079,308.2487 L130.4919,308.2487 C132.3209,308.2487 135.1529,307.9157 135.149902,302.9277 C135.1479,297.9397 133.3189,278.4887 133.3189,278.4887 L63.6579,279.1537 Z" id="Fill-40" fill="#FE5C4F"/><path d="M56.3322,266.7279 C56.0642,266.7279 55.7842,266.7589 55.4882,266.8219 C55.0662,266.9109 53.9442,267.1479 54.1072,269.0989 C54.3552,272.0759 57.4742,276.3699 62.0142,277.4229 C61.6582,274.2689 60.6242,269.2489 58.2582,267.4079 C57.6702,266.9509 57.0452,266.7279 56.3322,266.7279 M63.6582,280.6539 C63.6372,280.6539 63.6162,280.6529 63.5952,280.6519 C58.7622,280.4499 51.6762,276.0509 51.1182,269.3479 C50.8822,266.5179 52.3202,264.4249 54.8692,263.8859 C56.7952,263.4799 58.6072,263.8769 60.1022,265.0419 C64.6142,268.5559 65.1142,278.0259 65.1562,279.0939 C65.1732,279.5129 65.0142,279.9189 64.7172,280.2149 C64.4352,280.4969 64.0542,280.6539 63.6582,280.6539" id="Fill-42" fill="#000"/><path d="M71.2819,266.4359 C70.8669,266.4359 70.4779,266.5509 70.0959,266.7839 C67.8369,268.1579 66.2359,273.1979 65.4899,277.1399 C70.1169,275.5169 73.2729,271.4169 73.5269,268.8129 C73.6709,267.3509 72.9329,266.8799 72.2749,266.6329 C71.9239,266.5019 71.5949,266.4359 71.2819,266.4359 M63.6579,280.6539 C63.2749,280.6539 62.9029,280.5069 62.6219,280.2389 C62.2809,279.9129 62.1129,279.4449 62.1689,278.9769 C62.3109,277.7769 63.7009,267.1649 68.5349,264.2219 C69.9929,263.3329 71.6499,263.1949 73.3279,263.8249 C75.5629,264.6629 76.7539,266.6369 76.5129,269.1049 C76.0699,273.6429 70.7819,279.4939 63.9029,280.6329 C63.8209,280.6469 63.7389,280.6539 63.6579,280.6539" id="Fill-44" fill="#000"/><path d="M66.9269,294.0092 L66.9099,294.0092 C66.0819,293.9992 65.4179,293.3222 65.4269,292.4922 C65.5279,283.3532 62.6269,280.2442 62.5969,280.2142 C62.0279,279.6252 62.0269,278.6812 62.6059,278.1022 C63.1839,277.5242 64.1109,277.5062 64.6999,278.0752 C65.0939,278.4552 68.5419,282.0952 68.4269,292.5262 C68.4179,293.3492 67.7479,294.0092 66.9269,294.0092" id="Fill-46" fill="#000"/><path d="M166.1003,227.1391 C165.8053,227.1391 165.5043,227.1961 165.1913,227.3081 C163.4213,227.9431 163.2713,228.9511 163.3403,229.7591 C163.6103,232.9531 168.4603,238.0321 173.5553,239.9671 C172.5243,235.7691 170.3653,229.2261 167.3933,227.5121 C166.9603,227.2631 166.5373,227.1391 166.1003,227.1391 M175.5473,243.5781 C175.4603,243.5781 175.3723,243.5711 175.2863,243.5551 C168.4823,242.3491 160.8053,235.3881 160.3503,230.0121 C160.1343,227.4481 161.5293,225.4331 164.1803,224.4851 C165.7833,223.9111 167.4123,224.0601 168.8933,224.9141 C174.3783,228.0781 176.7683,240.4131 177.0233,241.8091 C177.1113,242.2921 176.9573,242.7881 176.6113,243.1361 C176.3273,243.4211 175.9433,243.5781 175.5473,243.5781" id="Fill-48" fill="#000"/><path d="M172.6232,243.9838 C167.9552,244.7718 162.2722,246.4218 160.8902,248.7998 C160.5082,249.4578 160.5022,250.1178 160.8712,250.9408 C161.1442,251.5488 161.4772,251.7508 162.1082,251.7238 C165.0282,251.5848 170.1122,246.9228 172.6232,243.9838 M161.9962,254.7228 C160.2462,254.7228 158.8872,253.8448 158.1352,252.1698 C157.3732,250.4698 157.4282,248.7838 158.2972,247.2908 C161.3362,242.0688 173.9752,240.7218 175.4052,240.5858 C176.1882,240.5038 176.8582,241.0228 177.0152,241.7678 C177.5562,244.3328 168.8412,252.8098 164.0632,254.3668 C163.3292,254.6058 162.6372,254.7228 161.9962,254.7228" id="Fill-50" fill="#000"/><polygon id="Fill-52" fill="#FB8686" points="180.8 220.4789 206.969 234.4309 205.198 242.0789 179.092 227.5009"/><path d="M183.6212,208.8773 C183.6212,208.8773 207.0252,219.4353 210.2392,221.6123 L208.4082,228.4883 C208.4082,228.4883 194.6112,221.6853 190.7322,219.1353 C186.8522,216.5863 182.2362,214.5733 182.2362,214.5733 L183.6212,208.8773 Z" id="Fill-54" fill="#FB8686"/><path d="M185.9836,199.1615 L212.5666,213.0245 L214.0276,207.5845 C214.0276,207.5845 192.2066,194.8465 187.3686,193.4685 L185.9836,199.1615 Z" id="Fill-56" fill="#FB8686"/><path d="M176.8776,249.4486 C176.9366,251.1736 179.6116,251.3876 179.5926,249.5586 C179.5716,247.4756 176.8106,247.4746 176.8776,249.4486" id="Fill-58" fill="#070302"/><path d="M173.8908,261.7445 C173.9498,263.4685 176.6248,263.6835 176.6058,261.8535 C176.5848,259.7715 173.8238,259.7695 173.8908,261.7445" id="Fill-60" fill="#070302"/><path d="M43.089,283.9291 C43.148,285.6541 45.823,285.8681 45.804,284.0391 C45.783,281.9561 43.022,281.9551 43.089,283.9291" id="Fill-62" fill="#070302"/><path d="M54.9367,283.9291 C54.9957,285.6541 57.6707,285.8681 57.6517,284.0391 C57.6307,281.9561 54.8697,281.9551 54.9367,283.9291" id="Fill-64" fill="#070302"/><path d="M77.5119,279.0209 C77.5119,279.0209 73.7999,297.1649 73.3559,308.2489 L79.1749,308.2489 C79.1749,308.2489 84.3269,280.0339 84.3279,278.9569 L77.5119,279.0209 Z" id="Fill-66" fill="#FB8686"/><path d="M90.4806,278.8969 C90.4806,278.8969 86.7676,300.6559 86.6006,308.2489 L92.9736,308.2489 C92.9736,308.2489 96.1326,282.2439 97.1306,278.8969 L90.4806,278.8969 Z" id="Fill-68" fill="#FB8686"/><path d="M102.839,278.7797 C102.839,278.7797 101.564,287.6877 100.733,291.7887 C99.901,295.8897 99.404,308.2487 99.404,308.2487 L105.665,308.2487 C105.665,308.2487 107.043,295.7787 107.656,291.7337 C108.27,287.6877 109.544,278.7797 109.544,278.7797 L102.839,278.7797 Z" id="Fill-70" fill="#FB8686"/><path d="M126.3278,160.0043 C126.2318,160.0043 126.1348,159.9943 126.0368,159.9763 C125.1298,159.7973 124.6428,159.4633 124.3218,159.2413 C124.1008,159.0903 124.0268,159.0383 123.7288,158.9813 C123.3848,158.9133 123.2638,158.9323 122.9978,158.9723 C122.6158,159.0313 122.0928,159.1103 121.2338,158.9423 C120.4268,158.7843 120.0088,158.5723 119.6728,158.4013 C119.4348,158.2803 119.2898,158.2073 118.8938,158.1303 C118.2848,158.0103 117.9808,157.9473 117.6758,157.8853 C117.3798,157.8233 117.0838,157.7623 116.4898,157.6463 L114.0868,157.1653 C113.9378,157.1353 113.9378,157.1363 113.6818,157.2453 C113.2678,157.4213 112.5798,157.7163 111.5238,157.5113 C110.9568,157.4003 110.6728,157.3583 110.3868,157.3163 C110.0668,157.2703 109.7458,157.2233 109.1118,157.0993 C108.1788,156.9153 107.6878,156.5533 107.3628,156.3143 C107.1468,156.1533 107.0878,156.1103 106.8178,156.0583 C106.3798,155.9723 106.1848,155.9743 105.9148,155.9833 C105.5618,155.9913 105.1248,156.0023 104.3618,155.8533 C103.5788,155.6993 103.1698,155.5063 102.8408,155.3523 C102.5978,155.2373 102.4368,155.1623 102.0178,155.0803 C101.4688,154.9723 101.1908,154.9383 100.9118,154.9033 C100.5808,154.8623 100.2498,154.8213 99.5968,154.6933 C98.8568,154.5483 98.4628,154.3903 98.1468,154.2623 C97.8878,154.1583 97.7008,154.0823 97.2408,153.9923 C96.6218,153.8713 96.3158,153.8053 96.0088,153.7383 C95.7178,153.6753 95.4258,153.6113 94.8418,153.4973 C94.5698,153.4433 94.4928,153.4623 94.2368,153.5263 C93.8478,153.6243 93.2588,153.7703 92.3308,153.5883 C91.4848,153.4223 91.0358,153.1623 90.7078,152.9723 C90.4798,152.8403 90.3648,152.7743 90.0098,152.7043 C89.3198,152.5683 88.9618,152.4523 88.6478,152.3503 C88.3788,152.2623 88.1478,152.1873 87.6368,152.0873 C86.9298,151.9473 86.5658,151.8193 86.2448,151.7053 C85.9768,151.6103 85.7648,151.5363 85.2728,151.4403 C84.8588,151.3583 84.6828,151.3683 84.4148,151.3823 C84.0478,151.4023 83.5958,151.4273 82.8128,151.2743 C82.3488,151.1833 82.1448,151.1813 81.8638,151.1783 C81.5248,151.1743 81.1028,151.1703 80.3678,151.0263 C79.6718,150.8903 79.3118,150.7693 78.9948,150.6613 C78.7318,150.5723 78.5038,150.4963 78.0008,150.3983 C77.4738,150.2943 77.2038,150.2683 76.9358,150.2423 C76.5938,150.2093 76.2528,150.1763 75.5828,150.0443 C74.6808,149.8673 73.9658,149.4223 73.3908,149.0653 C73.2098,148.9513 73.0288,148.8373 72.8428,148.7363 C71.9798,148.2653 71.2568,147.7023 70.4968,146.9113 C70.3488,146.7563 70.1928,146.6093 70.0388,146.4643 C69.5228,145.9743 68.9368,145.4193 68.5358,144.6093 C68.0928,143.7143 67.9558,142.7873 67.8348,141.9703 L67.7898,141.6673 C67.6398,140.6933 67.7778,139.8333 67.9108,139.0013 L67.9588,138.6933 C68.0288,138.2413 68.0218,138.0463 68.0128,137.7753 C68.0008,137.4413 67.9868,137.0253 68.0998,136.2953 C68.1468,135.9943 68.1238,135.9003 68.0658,135.6513 C67.9748,135.2663 67.8498,134.7383 67.9868,133.8583 C68.1488,132.8093 68.6608,132.2663 68.9658,131.9423 C69.1438,131.7543 69.1438,131.7543 69.1628,131.6263 C69.1808,131.5113 69.1808,131.5113 69.0678,131.2853 C68.8638,130.8803 68.5228,130.2013 68.6878,129.1393 C68.7798,128.5463 68.8298,128.2473 68.8798,127.9523 C68.9288,127.6593 68.9778,127.3703 69.0688,126.7843 C69.1898,126.0013 69.3698,125.5893 69.5158,125.2573 C69.6208,125.0173 69.6838,124.8723 69.7458,124.4773 C69.8248,123.9683 69.8368,123.7093 69.8488,123.4503 C69.8638,123.1333 69.8818,122.7733 69.9838,122.1073 C70.1158,121.2583 70.3638,120.8033 70.5458,120.4723 C70.6678,120.2483 70.7238,120.1463 70.7738,119.8163 C70.8628,119.2463 70.8988,118.9603 70.9358,118.6743 C70.9748,118.3683 71.0148,118.0643 71.1088,117.4553 C71.2138,116.7783 71.3128,116.4263 71.3998,116.1133 C71.4738,115.8513 71.5378,115.6233 71.6148,115.1243 C71.6548,114.8673 71.6358,114.8023 71.5628,114.5593 C71.4498,114.1793 71.2778,113.6053 71.4208,112.6833 C71.5358,111.9413 71.6838,111.5453 71.8038,111.2273 C71.8948,110.9803 71.9628,110.8013 72.0298,110.3643 C72.0908,109.9713 72.0738,109.8143 72.0468,109.5533 C72.0088,109.1923 71.9608,108.7453 72.0818,107.9623 C72.2108,107.1313 72.4428,106.6833 72.6128,106.3553 C72.7298,106.1293 72.7888,106.0163 72.8428,105.6713 C72.8778,105.4413 72.8628,105.3983 72.7808,105.1503 C72.6508,104.7603 72.4558,104.1703 72.6018,103.2233 C72.7328,102.3753 72.9818,101.9213 73.1638,101.5893 C73.2858,101.3663 73.3418,101.2653 73.3918,100.9383 C73.5178,100.1213 73.7368,99.6783 73.8968,99.3553 C74.0098,99.1283 74.0708,99.0033 74.1268,98.6443 C74.1468,98.5133 74.1468,98.5133 74.0358,98.2793 C73.8468,97.8813 73.5278,97.2133 73.6888,96.1683 C73.7828,95.5643 73.8358,95.2633 73.8888,94.9623 C73.9388,94.6773 73.9888,94.3913 74.0778,93.8173 C74.1798,93.1623 74.2608,92.8403 74.3418,92.5173 C74.4048,92.2613 74.4698,92.0053 74.5498,91.4863 C74.6708,90.7043 74.8508,90.2923 74.9968,89.9613 C75.1018,89.7233 75.1648,89.5793 75.2258,89.1863 C75.3378,88.4583 75.4778,88.0673 75.5898,87.7533 C75.6808,87.5013 75.7448,87.3183 75.8148,86.8723 C75.8528,86.6243 75.8348,86.5663 75.7598,86.3213 C75.6428,85.9393 75.4638,85.3593 75.6078,84.4313 C75.6938,83.8763 75.7228,83.5993 75.7518,83.3193 C75.7848,83.0063 75.8178,82.6913 75.9128,82.0693 C76.0218,81.3683 76.1358,81.0063 76.2368,80.6863 C76.3188,80.4253 76.3828,80.2203 76.4568,79.7433 C76.5258,79.3043 76.5168,79.1123 76.5048,78.8473 C76.4898,78.5093 76.4708,78.0903 76.5848,77.3543 C76.7188,76.4873 76.9868,76.0263 77.1818,75.6903 C77.3078,75.4723 77.3608,75.3813 77.4088,75.0723 C77.5258,74.3163 77.6858,73.9133 77.8158,73.5903 C77.9128,73.3453 77.9788,73.1823 78.0428,72.7633 C78.1058,72.3603 78.0898,72.2003 78.0648,71.9373 C78.0308,71.5813 77.9878,71.1393 78.1068,70.3643 C78.1788,69.9003 78.1758,69.6893 78.1728,69.4213 C78.1678,69.0963 78.1628,68.6913 78.2738,67.9803 C78.3988,67.1713 78.6108,66.7313 78.7658,66.4103 C78.8768,66.1793 78.9388,66.0513 78.9948,65.6843 C79.0478,65.3443 79.0258,65.2193 78.9808,64.9723 C78.9148,64.6063 78.8258,64.1063 78.9538,63.2703 C79.0908,62.3833 79.3908,61.8973 79.5888,61.5753 C79.7228,61.3573 79.7678,61.2833 79.8128,60.9953 C79.9388,60.1763 80.6978,59.6123 81.5238,59.7423 C82.3428,59.8683 82.9038,60.6353 82.7768,61.4533 C82.6398,62.3403 82.3408,62.8263 82.1418,63.1483 C82.0088,63.3663 81.9638,63.4403 81.9188,63.7283 C81.8658,64.0683 81.8888,64.1923 81.9328,64.4413 C81.9988,64.8063 82.0888,65.3073 81.9598,66.1423 C81.8348,66.9503 81.6228,67.3913 81.4678,67.7123 C81.3558,67.9433 81.2948,68.0703 81.2378,68.4393 C81.1658,68.9033 81.1688,69.1143 81.1718,69.3823 C81.1768,69.7073 81.1818,70.1113 81.0708,70.8233 C81.0098,71.2243 81.0238,71.3833 81.0508,71.6483 C81.0848,72.0033 81.1278,72.4463 81.0078,73.2223 C80.8898,73.9783 80.7298,74.3803 80.5998,74.7033 C80.5028,74.9493 80.4368,75.1113 80.3728,75.5313 C80.2378,76.3993 79.9718,76.8583 79.7768,77.1943 C79.6508,77.4123 79.5978,77.5033 79.5498,77.8133 C79.4818,78.2553 79.4898,78.4463 79.5018,78.7123 C79.5168,79.0493 79.5358,79.4683 79.4218,80.2023 C79.3138,80.9033 79.1998,81.2663 79.0988,81.5863 C79.0168,81.8473 78.9528,82.0523 78.8778,82.5273 C78.7928,83.0763 78.7648,83.3543 78.7358,83.6303 C78.7028,83.9463 78.6698,84.2623 78.5728,84.8903 C78.5348,85.1363 78.5518,85.1943 78.6268,85.4393 C78.7448,85.8223 78.9238,86.4013 78.7798,87.3313 C78.6668,88.0583 78.5278,88.4483 78.4148,88.7633 C78.3248,89.0163 78.2598,89.1983 78.1908,89.6453 C78.0698,90.4263 77.8888,90.8383 77.7428,91.1693 C77.6378,91.4083 77.5748,91.5523 77.5138,91.9443 C77.4118,92.6003 77.3308,92.9233 77.2498,93.2453 C77.1868,93.5013 77.1218,93.7573 77.0418,94.2763 C76.9488,94.8803 76.8958,95.1813 76.8428,95.4823 C76.7918,95.7683 76.7428,96.0533 76.6538,96.6273 C76.6328,96.7573 76.6328,96.7573 76.7448,96.9903 C76.9338,97.3903 77.2518,98.0583 77.0908,99.1023 C76.9648,99.9183 76.7458,100.3613 76.5858,100.6853 C76.4738,100.9113 76.4118,101.0363 76.3568,101.3963 C76.2258,102.2443 75.9768,102.6983 75.7938,103.0303 C75.6728,103.2533 75.6178,103.3553 75.5668,103.6813 C75.5308,103.9123 75.5448,103.9573 75.6268,104.2043 C75.7568,104.5943 75.9528,105.1833 75.8068,106.1293 C75.6778,106.9613 75.4458,107.4093 75.2758,107.7363 C75.1588,107.9623 75.0998,108.0753 75.0458,108.4213 C74.9848,108.8163 75.0008,108.9753 75.0298,109.2353 C75.0678,109.5953 75.1148,110.0423 74.9948,110.8233 C74.8798,111.5663 74.7308,111.9613 74.6118,112.2793 C74.5198,112.5263 74.4528,112.7043 74.3858,113.1413 C74.3468,113.3953 74.3658,113.4603 74.4378,113.7033 C74.5518,114.0843 74.7228,114.6593 74.5798,115.5833 C74.4748,116.2603 74.3758,116.6123 74.2888,116.9253 C74.2148,117.1883 74.1508,117.4153 74.0738,117.9143 C73.9848,118.4853 73.9488,118.7723 73.9118,119.0583 C73.8728,119.3623 73.8328,119.6673 73.7388,120.2753 C73.6078,121.1233 73.3588,121.5783 73.1778,121.9103 C73.0558,122.1343 72.9998,122.2353 72.9488,122.5663 C72.8698,123.0743 72.8578,123.3333 72.8458,123.5923 C72.8308,123.9093 72.8128,124.2693 72.7108,124.9353 C72.5898,125.7183 72.4078,126.1313 72.2638,126.4623 C72.1578,126.7023 72.0948,126.8473 72.0328,127.2423 C71.9388,127.8493 71.8888,128.1493 71.8378,128.4513 C71.7898,128.7363 71.7408,129.0253 71.6518,129.5983 C71.6348,129.7133 71.6348,129.7133 71.7478,129.9383 C71.9508,130.3433 72.2918,131.0213 72.1278,132.0843 C71.9648,133.1353 71.4528,133.6773 71.1468,134.0013 C70.9708,134.1893 70.9708,134.1893 70.9508,134.3173 C70.9038,134.6203 70.9258,134.7133 70.9848,134.9623 C71.0758,135.3473 71.1998,135.8743 71.0638,136.7533 C70.9948,137.2043 71.0018,137.4003 71.0108,137.6713 C71.0218,138.0053 71.0368,138.4213 70.9238,139.1503 L70.8728,139.4753 C70.7628,140.1603 70.6768,140.7023 70.7548,141.2123 L70.8028,141.5323 C70.9038,142.2173 70.9908,142.8083 71.2238,143.2793 C71.3878,143.6093 71.7188,143.9233 72.1018,144.2863 C72.2908,144.4653 72.4798,144.6463 72.6618,144.8353 C73.2068,145.4013 73.6898,145.7813 74.2798,146.1033 C74.5148,146.2323 74.7458,146.3743 74.9768,146.5183 C75.4168,146.7923 75.7978,147.0293 76.1608,147.1003 C76.6878,147.2033 76.9568,147.2303 77.2258,147.2563 C77.5678,147.2893 77.9088,147.3223 78.5778,147.4533 C79.2758,147.5903 79.6348,147.7123 79.9528,147.8183 C80.2248,147.9103 80.4418,147.9833 80.9438,148.0823 C81.4098,148.1733 81.6128,148.1753 81.8938,148.1783 C82.2328,148.1823 82.6538,148.1863 83.3898,148.3303 C83.8068,148.4123 83.9828,148.4013 84.2498,148.3883 C84.6158,148.3663 85.0658,148.3423 85.8508,148.4963 C86.5578,148.6353 86.9218,148.7643 87.2438,148.8773 C87.5108,148.9723 87.7228,149.0473 88.2148,149.1433 C88.9048,149.2783 89.2618,149.3953 89.5768,149.4973 C89.8448,149.5853 90.0768,149.6603 90.5868,149.7603 C91.4328,149.9263 91.8828,150.1873 92.2108,150.3763 C92.4388,150.5093 92.5548,150.5753 92.9078,150.6453 C93.1808,150.6973 93.2578,150.6793 93.5138,150.6153 C93.9028,150.5193 94.4928,150.3733 95.4198,150.5543 C96.0318,150.6743 96.3378,150.7403 96.6428,150.8073 C96.9368,150.8703 97.2288,150.9343 97.8178,151.0483 C98.5578,151.1933 98.9518,151.3523 99.2678,151.4803 C99.5268,151.5843 99.7128,151.6593 100.1738,151.7493 C100.7238,151.8583 101.0018,151.8923 101.2808,151.9263 C101.6108,151.9673 101.9418,152.0083 102.5958,152.1363 C103.3788,152.2893 103.7888,152.4833 104.1178,152.6373 C104.3598,152.7513 104.5208,152.8263 104.9388,152.9093 C105.3788,152.9953 105.5758,152.9903 105.8418,152.9833 C106.1948,152.9743 106.6328,152.9643 107.3958,153.1133 C108.3278,153.2973 108.8188,153.6593 109.1438,153.9003 C109.3598,154.0593 109.4178,154.1023 109.6888,154.1543 C110.2508,154.2653 110.5358,154.3073 110.8208,154.3483 C111.1418,154.3963 111.4628,154.4423 112.0998,154.5673 C112.2498,154.5963 112.2478,154.5953 112.5038,154.4863 C112.9178,154.3103 113.6108,154.0163 114.6638,154.2213 L117.0668,154.7023 C117.6748,154.8213 117.9788,154.8843 118.2838,154.9473 C118.5788,155.0083 118.8758,155.0693 119.4698,155.1863 C120.2768,155.3443 120.6948,155.5563 121.0308,155.7273 C121.2688,155.8483 121.4128,155.9213 121.8098,155.9983 C122.1558,156.0673 122.2768,156.0483 122.5418,156.0073 C122.9238,155.9483 123.4448,155.8683 124.3068,156.0363 C125.2148,156.2153 125.7008,156.5493 126.0218,156.7703 C126.2428,156.9223 126.3168,156.9733 126.6148,157.0313 C127.4278,157.1913 127.9568,157.9793 127.7968,158.7923 C127.6578,159.5073 127.0298,160.0043 126.3278,160.0043" id="Fill-72" fill="#000"/></g></g></g></g><g id="Upper Body" transform="translate(-1.000000, 0.000000) scale(1 1)"><g id="Upper Body/Laptop" stroke="none" stroke-width="1" fill="none" fill-rule="evenodd"><g id="Group-691" transform="translate(152.500000, 272.500000)"><g id="Group-453" transform="translate(0.000000, 0.095000)"><path d="M241.5489,174.4264 L262.3799,74.3814 C262.3799,74.3814 252.8759,47.1744 212.0979,39.9614 C212.0979,39.9614 211.5509,15.4834 160.0019,15.4834 C108.4529,15.4834 106.8899,38.6954 106.8899,38.6954 C106.8899,38.6954 -4.3451,56.6524 0.2789,139.0164 C0.2789,139.0164 6.1749,190.7654 71.0239,182.9044 C70.9179,185.7814 71.5209,189.0814 73.9719,191.7894 C79.9819,198.4274 91.6929,197.6654 98.3559,196.5624 C101.1019,196.1074 103.8799,196.8674 106.1169,198.5244 C108.6669,200.4134 113.3329,202.5834 121.5689,203.0954 C127.8529,203.4864 132.4689,202.2684 135.7249,200.6984 C139.4069,198.9254 143.7659,199.4444 146.8579,202.1154 C150.5619,205.3184 157.1519,208.6544 168.7689,209.4994 C182.7509,210.5184 189.9819,205.5454 193.5739,201.2484 C196.0219,198.3214 199.8399,196.8864 203.5659,197.7124 C207.7369,198.6374 213.2789,199.0844 218.4979,197.0464 C220.6419,196.2094 223.0059,196.1594 225.1979,196.8604 C230.4509,198.5374 240.5249,200.6714 249.3079,196.2434 C257.8439,191.9404 255.8429,175.1594 241.5489,174.4264" id="Fill-429" fill="#00A378"/><path d="M273.8741,181.274 C273.8741,181.274 301.1821,179.927 301.8441,150.795 C302.5221,120.91 284.6001,114.814 273.8741,114.071 L273.8741,181.274 Z" id="Fill-431" fill="#ef9e89"/><path d="M119.8228,61.6696 C119.6548,61.6696 119.4838,61.6416 119.3168,61.5816 C119.0848,61.4986 118.7918,61.4476 118.4808,61.3946 C117.9548,61.3036 117.3568,61.2006 116.7638,60.8986 C116.5298,60.7806 116.2918,60.6726 116.0558,60.5656 C115.5038,60.3156 114.9328,60.0556 114.3888,59.6776 C114.1598,59.5186 113.9158,59.3746 113.6738,59.2316 C113.1808,58.9396 112.6238,58.6076 112.1398,58.1576 C111.4738,57.5356 110.9048,56.8446 110.3308,56.1316 C109.8228,55.4986 109.6678,54.7816 109.5438,54.2056 C109.4948,53.9796 109.4268,53.6686 109.3678,53.5696 C109.2548,53.3816 109.0548,53.1666 108.8438,52.9396 C108.4708,52.5366 108.0478,52.0806 107.7658,51.4486 C107.4638,50.7696 107.4328,50.0936 107.4078,49.5516 C107.3948,49.2736 107.3828,48.9876 107.3338,48.8346 C107.2928,48.7406 107.0658,48.4956 106.9168,48.3326 C106.5068,47.8896 105.9968,47.3386 105.8268,46.5416 C105.6688,45.8046 105.7738,45.1216 105.8578,44.5726 C105.8978,44.3146 105.9428,44.0216 105.9268,43.8866 C105.8138,42.9666 105.7868,42.1636 105.7628,41.4546 L105.7588,41.3186 C105.7388,40.7736 105.6888,40.5656 105.6348,40.3466 C105.5308,39.9116 105.4568,39.5126 105.5358,38.6786 C105.6128,37.8536 106.3368,37.2416 107.1708,37.3256 C107.9948,37.4036 108.5998,38.1356 108.5218,38.9606 C108.4838,39.3616 108.4998,39.4276 108.5518,39.6426 C108.6428,40.0226 108.7278,40.4286 108.7568,41.2136 L108.7608,41.3526 C108.7828,41.9996 108.8078,42.7326 108.9048,43.5226 C108.9708,44.0676 108.8928,44.5786 108.8228,45.0296 C108.7708,45.3666 108.7178,45.7156 108.7598,45.9126 C108.7828,45.9326 108.9858,46.1516 109.1198,46.2966 C109.4958,46.7036 109.9638,47.2106 110.1908,47.9216 C110.3608,48.4536 110.3848,48.9636 110.4048,49.4136 C110.4198,49.7346 110.4348,50.0666 110.5078,50.2306 C110.5858,50.4046 110.8178,50.6556 111.0438,50.8986 C111.3348,51.2126 111.6648,51.5676 111.9378,52.0216 C112.2548,52.5476 112.3778,53.1156 112.4758,53.5726 C112.5258,53.8066 112.6018,54.1596 112.6708,54.2536 C113.1908,54.8996 113.6658,55.4776 114.1858,55.9646 C114.4318,56.1926 114.8068,56.4156 115.2038,56.6496 C115.5078,56.8306 115.8118,57.0136 116.0998,57.2136 C116.4218,57.4366 116.8468,57.6296 117.2988,57.8346 C117.5718,57.9596 117.8488,58.0856 118.1218,58.2246 C118.3118,58.3206 118.6418,58.3776 118.9908,58.4386 C119.3938,58.5076 119.8508,58.5866 120.3288,58.7576 C121.1078,59.0366 121.5138,59.8956 121.2348,60.6756 C121.0148,61.2876 120.4378,61.6696 119.8228,61.6696" id="Fill-433" fill="#000"/><path d="M202.3526,60.4244 C201.7886,60.4244 201.2476,60.1044 200.9926,59.5584 C200.6416,58.8074 200.9666,57.9144 201.7176,57.5654 C201.9406,57.4604 202.1656,57.3614 202.3886,57.2634 C202.8976,57.0404 203.3766,56.8304 203.7446,56.5864 C203.9586,56.4444 204.1846,56.1544 204.4226,55.8484 C204.6536,55.5524 204.9156,55.2174 205.2426,54.9144 C205.5096,54.6664 205.7946,54.4434 206.0796,54.2234 C206.4166,53.9614 206.7356,53.7144 206.9256,53.4724 C207.1016,53.2484 207.2406,52.8994 207.3886,52.5294 C207.5216,52.1964 207.6716,51.8204 207.8796,51.4514 C208.1536,50.9714 208.4946,50.6014 208.7946,50.2754 C209.0036,50.0484 209.2416,49.7914 209.3006,49.6414 C209.4206,49.3444 209.5536,49.0514 209.6856,48.7604 C209.8926,48.3054 210.0876,47.8754 210.1886,47.5014 C210.2196,47.3834 210.1416,46.9934 210.0946,46.7614 C209.9966,46.2714 209.8846,45.7164 209.9816,45.1084 C210.0636,44.5904 210.2006,44.1354 210.3206,43.7334 C210.4216,43.3934 210.5176,43.0724 210.5306,42.8684 C210.5716,42.1714 210.6306,41.8004 210.6746,41.5294 C210.7196,41.2504 210.7346,41.1554 210.6896,40.6284 C210.6776,40.4924 210.5116,40.1934 210.3786,39.9514 C210.1566,39.5484 209.9036,39.0904 209.7826,38.5264 C209.6616,37.9584 209.6936,37.4174 209.7186,36.9834 C209.7336,36.7274 209.7546,36.3774 209.7116,36.2594 L209.5776,35.8744 C209.3606,35.2564 209.1566,34.6724 208.8986,34.1674 C208.8186,34.0124 208.5716,33.7864 208.3316,33.5704 C208.0116,33.2784 207.6476,32.9474 207.3456,32.5064 C207.1256,32.1844 206.9406,31.8404 206.7576,31.4964 C206.5706,31.1434 206.3936,30.8094 206.1956,30.5794 C205.8216,30.1504 205.5926,29.6754 205.3916,29.2574 C205.2576,28.9824 205.1076,28.6694 204.9916,28.5614 C204.9346,28.5314 204.6316,28.4564 204.4316,28.4064 C203.9176,28.2784 203.2776,28.1194 202.7206,27.6844 C202.4046,27.4364 202.1146,27.1574 201.8266,26.8764 C201.5396,26.5974 201.2676,26.3324 200.9996,26.1554 C200.7706,26.0024 200.4426,25.8764 200.0946,25.7414 C199.7226,25.5984 199.2996,25.4354 198.8836,25.1974 L198.3266,24.8754 C197.8446,24.5954 197.3686,24.3174 196.8656,24.0684 C196.2176,23.7484 195.7966,23.2294 195.4576,22.8124 C195.3276,22.6514 195.1286,22.4064 195.0406,22.3504 C194.8906,22.2874 194.5616,22.2544 194.2426,22.2234 C193.7736,22.1764 193.2416,22.1224 192.6986,21.9184 C192.3556,21.7884 191.9706,21.6934 191.5626,21.5914 C191.1786,21.4954 190.7976,21.3994 190.4266,21.2764 C190.1306,21.1784 189.7736,21.1234 189.3956,21.0674 C189.0016,21.0074 188.5556,20.9394 188.1076,20.8094 C187.7906,20.7174 187.4816,20.6204 187.1746,20.5254 C186.7296,20.3864 186.2906,20.2484 185.8486,20.1364 C185.1716,19.9644 184.6496,19.5904 184.2286,19.2904 C184.0546,19.1654 183.7896,18.9764 183.6886,18.9454 C183.5266,18.9104 183.2046,18.9534 182.8926,18.9974 C182.4066,19.0654 181.8556,19.1404 181.2556,19.0284 C180.5956,18.9034 180.0516,18.6114 179.6156,18.3754 C179.4176,18.2694 179.1206,18.1094 179.0126,18.0914 C178.4136,17.9974 177.8526,17.9354 177.3466,17.8784 L176.6526,17.7984 C176.2116,17.7444 176.1376,17.7744 175.9746,17.8374 C175.5666,17.9984 175.1026,18.1514 174.2786,18.0964 C173.4526,18.0404 172.8276,17.3244 172.8836,16.4984 C172.9386,15.6714 173.6406,15.0434 174.4816,15.1034 C174.6976,15.1164 174.7116,15.1104 174.8726,15.0474 C175.3516,14.8584 175.9146,14.6854 177.0206,14.8204 L177.6806,14.8984 C178.2256,14.9584 178.8306,15.0274 179.4766,15.1274 C180.0916,15.2244 180.5946,15.4954 181.0396,15.7354 C181.3316,15.8934 181.6086,16.0414 181.8106,16.0794 C181.9246,16.1014 182.2486,16.0574 182.4826,16.0254 C183.0016,15.9534 183.6456,15.8644 184.3376,16.0174 C185.0186,16.1664 185.5486,16.5454 185.9746,16.8504 C186.1786,16.9964 186.4576,17.1954 186.5856,17.2284 C187.0796,17.3534 187.5706,17.5064 188.0696,17.6614 C188.3566,17.7514 188.6466,17.8424 188.9416,17.9274 C189.2016,18.0024 189.5136,18.0504 189.8456,18.1004 C190.3076,18.1704 190.8316,18.2504 191.3696,18.4284 C191.6676,18.5274 191.9776,18.6024 192.2886,18.6804 C192.7616,18.7984 193.2506,18.9194 193.7576,19.1114 C193.9316,19.1764 194.2416,19.2074 194.5406,19.2374 C195.0616,19.2894 195.6526,19.3484 196.2536,19.6084 C196.9716,19.9174 197.4226,20.4744 197.7866,20.9214 C197.9176,21.0834 198.1186,21.3284 198.2066,21.3854 C198.7586,21.6574 199.2946,21.9684 199.8346,22.2824 L200.3696,22.5914 C200.5896,22.7174 200.8746,22.8274 201.1756,22.9444 C201.6356,23.1214 202.1576,23.3224 202.6596,23.6554 C203.1596,23.9874 203.5636,24.3814 203.9186,24.7284 C204.1296,24.9334 204.3386,25.1414 204.5696,25.3204 C204.6476,25.3684 204.9546,25.4454 205.1566,25.4954 C205.7346,25.6394 206.4546,25.8194 207.0446,26.3734 C207.5666,26.8624 207.8586,27.4674 208.0926,27.9534 C208.2186,28.2154 208.3496,28.4864 208.4606,28.6134 C208.8846,29.1024 209.1636,29.6274 209.4096,30.0914 C209.5396,30.3374 209.6666,30.5844 209.8236,30.8144 C209.9256,30.9644 210.1316,31.1514 210.3496,31.3494 C210.7466,31.7094 211.2406,32.1584 211.5696,32.8014 C211.9206,33.4884 212.1686,34.1974 212.4096,34.8844 L212.5386,35.2524 C212.7856,35.9454 212.7456,36.6184 212.7136,37.1594 C212.6976,37.4404 212.6796,37.7304 212.7156,37.8994 C212.7446,38.0284 212.8826,38.2794 213.0046,38.5014 C213.2756,38.9904 213.6116,39.6004 213.6776,40.3704 C213.7496,41.2074 213.7106,41.5474 213.6356,42.0084 C213.6016,42.2244 213.5566,42.5024 213.5246,43.0444 C213.4926,43.5974 213.3406,44.1034 213.1946,44.5934 C213.0916,44.9354 212.9956,45.2594 212.9446,45.5784 C212.9356,45.6734 212.9966,45.9724 213.0366,46.1694 C213.1536,46.7554 213.2996,47.4854 213.0846,48.2814 C212.9206,48.8924 212.6656,49.4554 212.4166,50.0004 C212.3026,50.2514 212.1876,50.5044 212.0846,50.7594 C211.8206,51.4194 211.3666,51.9124 211.0006,52.3094 C210.7906,52.5364 210.5916,52.7524 210.4896,52.9324 C210.3656,53.1524 210.2726,53.3974 210.1746,53.6424 C209.9646,54.1664 209.7276,54.7614 209.2856,55.3244 C208.8666,55.8594 208.3616,56.2494 207.9156,56.5944 C207.7016,56.7614 207.4826,56.9284 207.2796,57.1154 C207.1306,57.2534 206.9646,57.4674 206.7896,57.6934 C206.4486,58.1294 206.0256,58.6724 205.4046,59.0854 C204.8206,59.4734 204.1976,59.7464 203.5946,60.0114 C203.3926,60.1004 203.1886,60.1894 202.9856,60.2834 C202.7806,60.3794 202.5646,60.4244 202.3526,60.4244" id="Fill-435" fill="#000"/><path d="M159.5821,72.0865 C159.5451,72.0865 159.5091,72.0845 159.4731,72.0825 C158.6461,72.0235 158.0241,71.3055 158.0841,70.4785 L158.9271,58.7765 C158.9861,57.9495 159.7451,57.3345 160.5301,57.3885 C161.3561,57.4475 161.9781,58.1655 161.9191,58.9925 L161.0761,70.6935 C161.0191,71.4835 160.3611,72.0865 159.5821,72.0865" id="Fill-437" fill="#000"/><path d="M175.6026,72.0865 C174.9206,72.0865 174.3046,71.6195 174.1426,70.9285 L171.4016,59.2275 C171.2126,58.4205 171.7136,57.6125 172.5206,57.4245 C173.3196,57.2345 174.1336,57.7355 174.3236,58.5425 L177.0646,70.2435 C177.2526,71.0505 176.7516,71.8575 175.9456,72.0465 C175.8316,72.0735 175.7156,72.0865 175.6026,72.0865" id="Fill-439" fill="#000"/><path d="M60.378,185.4069 C59.747,185.4069 59.191,185.2019 58.739,185.0359 C58.474,184.9379 58.173,184.8279 58.02,184.8279 L58.018,184.8279 C57.75,184.8289 57.437,184.8689 57.106,184.9119 C56.654,184.9699 56.16,185.0339 55.59,185.0249 L54.933,185.0139 C54.353,185.0059 53.762,184.9959 53.158,184.9689 C52.883,184.9559 52.606,184.9469 52.327,184.9379 C51.799,184.9219 51.265,184.9029 50.723,184.8639 C50.444,184.8449 50.125,184.8609 49.784,184.8789 C49.328,184.9029 48.813,184.9289 48.271,184.8749 C48.048,184.8519 47.745,184.8859 47.424,184.9229 C46.938,184.9769 46.387,185.0389 45.79,184.9589 C45.23,184.8849 44.728,184.7109 44.284,184.5569 C43.964,184.4459 43.661,184.3419 43.404,184.2989 C42.776,184.1919 42.265,183.9349 41.813,183.7089 C41.533,183.5679 41.27,183.4349 41.082,183.3959 C40.819,183.3429 40.506,183.3219 40.174,183.3019 C39.708,183.2709 39.181,183.2379 38.634,183.0999 C38.028,182.9479 37.538,182.6669 37.106,182.4189 C36.834,182.2629 36.577,182.1159 36.377,182.0549 C36.277,182.0339 35.962,182.0679 35.755,182.0909 C35.205,182.1519 34.519,182.2259 33.805,181.9699 C33.152,181.7349 32.665,181.3179 32.274,180.9839 C32.068,180.8079 31.835,180.6089 31.695,180.5499 C31.537,180.4809 31.241,180.4429 30.955,180.4049 C30.452,180.3399 29.827,180.2589 29.224,179.9499 C28.996,179.8339 28.706,179.7329 28.399,179.6269 C27.922,179.4609 27.383,179.2739 26.87,178.9599 C26.164,178.5259 25.942,177.6019 26.376,176.8959 C26.809,176.1899 27.732,175.9699 28.439,176.4019 C28.674,176.5469 29.019,176.6659 29.382,176.7929 C29.755,176.9219 30.178,177.0679 30.59,177.2789 C30.73,177.3509 31.055,177.3929 31.342,177.4299 C31.809,177.4909 32.337,177.5599 32.879,177.7929 C33.438,178.0319 33.873,178.4039 34.223,178.7029 C34.44,178.8879 34.686,179.0979 34.822,179.1479 C34.906,179.1649 35.221,179.1319 35.428,179.1089 C35.941,179.0529 36.578,178.9819 37.244,179.1829 C37.773,179.3429 38.211,179.5949 38.598,179.8159 C38.888,179.9819 39.161,180.1389 39.365,180.1909 C39.646,180.2609 39.995,180.2839 40.365,180.3069 C40.767,180.3329 41.222,180.3619 41.691,180.4589 C42.264,180.5779 42.739,180.8159 43.159,181.0269 C43.435,181.1659 43.72,181.3089 43.902,181.3399 C44.405,181.4249 44.862,181.5829 45.266,181.7219 C45.606,181.8399 45.926,181.9509 46.186,181.9849 C46.419,182.0169 46.746,181.9799 47.09,181.9409 C47.534,181.8919 48.038,181.8359 48.573,181.8899 C48.885,181.9219 49.245,181.9019 49.627,181.8829 C50.044,181.8609 50.478,181.8399 50.94,181.8719 C51.441,181.9089 51.936,181.9239 52.424,181.9399 C52.716,181.9489 53.007,181.9589 53.295,181.9709 C53.867,181.9979 54.428,182.0069 54.979,182.0139 L55.651,182.0259 C55.967,182.0339 56.339,181.9859 56.721,181.9359 C57.129,181.8839 57.551,181.8299 58.005,181.8279 L58.021,181.8279 C58.708,181.8279 59.3,182.0459 59.776,182.2209 C59.975,182.2939 60.274,182.4039 60.377,182.4069 C60.596,182.4009 60.9,182.2939 61.224,182.1809 C61.657,182.0289 62.149,181.8569 62.708,181.8279 C63.194,181.8019 63.653,181.8079 64.082,181.8149 C64.432,181.8209 64.758,181.8279 65.055,181.8039 C65.716,181.7529 66.036,181.7359 66.279,181.7219 C66.576,181.7069 66.747,181.6969 67.379,181.6269 C68.306,181.5219 68.877,181.6999 69.253,181.8179 C69.511,181.8989 69.597,181.9279 69.9,181.8929 C70.151,181.8669 70.198,181.8359 70.427,181.6849 C70.778,181.4529 71.311,181.1019 72.285,180.9979 C72.958,180.9259 73.297,180.9159 73.636,180.9059 C73.916,180.8979 74.197,180.8889 74.754,180.8299 C75.541,180.7469 75.986,180.8019 76.345,180.8469 C76.618,180.8819 76.8,180.9069 77.239,180.8579 C77.783,180.7999 78.052,180.7449 78.321,180.6899 C78.66,180.6209 78.999,180.5519 79.684,180.4779 C80.36,180.4059 80.702,180.3979 81.044,180.3899 C81.322,180.3839 81.601,180.3779 82.152,180.3179 C82.438,180.2879 82.507,180.2469 82.737,180.1079 C83.082,179.9019 83.603,179.5909 84.543,179.4889 C85.197,179.4199 85.527,179.4029 85.857,179.3859 C86.145,179.3709 86.433,179.3559 87.006,179.2949 C88.062,179.1809 88.723,179.5159 89.117,179.7169 C89.374,179.8469 89.382,179.8469 89.55,179.8309 C90.199,179.7609 90.524,179.7409 90.85,179.7209 C91.143,179.7029 91.435,179.6849 92.016,179.6229 L94.474,179.3619 C94.891,179.3169 95.046,179.2569 95.303,179.1559 C95.652,179.0199 96.087,178.8499 96.901,178.7629 C97.171,178.7339 97.232,178.6959 97.46,178.5529 C97.81,178.3309 98.338,177.9969 99.3,177.8939 C100.129,177.8129 100.863,178.4019 100.951,179.2259 C101.04,180.0499 100.443,180.7889 99.62,180.8779 C99.351,180.9059 99.289,180.9449 99.062,181.0889 C98.712,181.3089 98.184,181.6429 97.222,181.7469 C96.805,181.7909 96.649,181.8509 96.393,181.9519 C96.043,182.0879 95.608,182.2579 94.794,182.3439 L92.335,182.6059 C91.686,182.6759 91.36,182.6959 91.035,182.7159 C90.742,182.7339 90.45,182.7519 89.869,182.8139 C88.818,182.9289 88.153,182.5919 87.759,182.3909 C87.502,182.2609 87.496,182.2599 87.325,182.2779 C86.67,182.3479 86.34,182.3649 86.01,182.3819 C85.722,182.3959 85.435,182.4109 84.862,182.4719 C84.578,182.5029 84.509,182.5449 84.278,182.6819 C83.934,182.8879 83.412,183.2009 82.472,183.3019 C81.795,183.3739 81.454,183.3819 81.113,183.3889 C80.834,183.3959 80.556,183.4019 80.003,183.4619 C79.459,183.5199 79.19,183.5749 78.921,183.6299 C78.582,183.6989 78.243,183.7679 77.559,183.8419 C76.772,183.9269 76.324,183.8689 75.968,183.8239 C75.693,183.7899 75.513,183.7659 75.072,183.8129 C74.4,183.8859 74.062,183.8949 73.723,183.9049 C73.442,183.9129 73.161,183.9219 72.605,183.9809 C72.354,184.0079 72.307,184.0389 72.078,184.1889 C71.727,184.4219 71.194,184.7719 70.22,184.8769 C69.298,184.9769 68.731,184.7989 68.357,184.6809 C68.101,184.6009 68.018,184.5739 67.713,184.6079 C66.981,184.6899 66.783,184.6999 66.44,184.7189 C66.211,184.7299 65.91,184.7469 65.29,184.7959 C64.905,184.8259 64.489,184.8209 64.035,184.8149 C63.672,184.8079 63.28,184.8019 62.864,184.8239 C62.735,184.8309 62.459,184.9279 62.215,185.0119 C61.739,185.1789 61.147,185.3859 60.458,185.4059 C60.431,185.4069 60.404,185.4069 60.378,185.4069" id="Fill-441" fill="#000"/><path d="M62.0967,114.5406 C61.2357,114.5406 60.7447,114.3706 60.3877,114.2476 C60.1417,114.1616 60.0177,114.1186 59.6607,114.1186 C59.2727,114.1186 59.1307,114.1616 58.8737,114.2386 C58.5277,114.3436 58.0527,114.4856 57.2227,114.4856 C56.1767,114.4856 55.5647,114.0966 55.1997,113.8636 C54.9637,113.7136 54.9587,113.7106 54.7867,113.7106 C54.2157,113.7106 53.9307,113.7256 53.6447,113.7386 C53.3227,113.7556 52.9987,113.7706 52.3537,113.7706 C52.0637,113.7706 51.9837,113.8076 51.7447,113.9126 C51.3867,114.0726 50.8447,114.3136 49.9167,114.3136 C49.1617,114.3136 48.7437,114.2316 48.4097,114.1656 C48.1387,114.1126 47.9437,114.0736 47.4807,114.0736 C47.1257,114.0736 47.0027,114.1166 46.7577,114.2026 C46.4007,114.3266 45.9097,114.4976 45.0477,114.4976 C44.1707,114.4976 43.6737,114.3126 43.3107,114.1796 C43.0677,114.0886 42.9557,114.0476 42.6177,114.0476 C41.9447,114.0476 41.6087,114.0186 41.2727,113.9896 C40.9997,113.9666 40.7277,113.9426 40.1837,113.9426 C39.7937,113.9426 39.6527,113.9846 39.3947,114.0616 C39.0487,114.1646 38.5757,114.3066 37.7467,114.3066 C36.8787,114.3066 36.3857,114.1316 36.0267,114.0036 C35.7757,113.9136 35.6607,113.8736 35.3107,113.8736 C34.4827,113.8736 33.8107,113.2016 33.8107,112.3736 C33.8107,111.5446 34.4827,110.8736 35.3107,110.8736 C36.1777,110.8736 36.6707,111.0486 37.0307,111.1766 C37.2817,111.2656 37.3967,111.3066 37.7467,111.3066 C38.1377,111.3066 38.2797,111.2636 38.5367,111.1866 C38.8827,111.0836 39.3557,110.9426 40.1837,110.9426 C40.8567,110.9426 41.1927,110.9716 41.5287,111.0006 C41.8007,111.0236 42.0737,111.0476 42.6177,111.0476 C43.4927,111.0476 43.9907,111.2306 44.3527,111.3656 C44.5977,111.4556 44.7087,111.4976 45.0477,111.4976 C45.4027,111.4976 45.5267,111.4546 45.7717,111.3686 C46.1287,111.2446 46.6187,111.0736 47.4807,111.0736 C48.2367,111.0736 48.6547,111.1566 48.9897,111.2226 C49.2597,111.2756 49.4547,111.3136 49.9167,111.3136 C50.2067,111.3136 50.2857,111.2786 50.5247,111.1726 C50.8827,111.0136 51.4247,110.7706 52.3537,110.7706 C52.9247,110.7706 53.2097,110.7576 53.4957,110.7426 C53.8187,110.7276 54.1417,110.7106 54.7867,110.7106 C55.8327,110.7106 56.4457,111.1006 56.8107,111.3336 C57.0457,111.4826 57.0507,111.4856 57.2227,111.4856 C57.6117,111.4856 57.7517,111.4436 58.0087,111.3666 C58.3557,111.2626 58.8297,111.1186 59.6607,111.1186 C60.5227,111.1186 61.0127,111.2886 61.3697,111.4126 C61.6167,111.4976 61.7407,111.5406 62.0967,111.5406 C62.6357,111.5406 62.9057,111.5156 63.1747,111.4896 C63.5147,111.4586 63.8547,111.4266 64.5347,111.4266 C65.1177,111.4266 65.4097,111.4156 65.7007,111.4056 C66.0177,111.3946 66.3357,111.3836 66.9717,111.3836 C67.4397,111.3836 67.6367,111.3456 67.9087,111.2936 C68.2427,111.2286 68.6587,111.1496 69.4107,111.1496 L71.8487,111.1546 C72.2087,111.1546 72.3327,111.1116 72.5817,111.0266 C72.9397,110.9046 73.4287,110.7366 74.2877,110.7366 C75.1347,110.7366 75.6177,110.8936 75.9697,111.0076 C76.2177,111.0876 76.3547,111.1326 76.7287,111.1326 C77.5647,111.1326 78.0417,111.2806 78.3907,111.3896 C78.6437,111.4676 78.7827,111.5116 79.1627,111.5116 C79.4577,111.5116 79.5387,111.4756 79.7807,111.3696 C80.1377,111.2136 80.6777,110.9776 81.6017,110.9776 C82.4507,110.9776 82.9347,111.1346 83.2867,111.2496 C83.5427,111.3326 83.6707,111.3746 84.0417,111.3746 C84.6677,111.3746 84.9807,111.3816 85.2937,111.3886 C85.5907,111.3946 85.8887,111.3996 86.4837,111.3996 C86.6867,111.3996 86.7107,111.3866 86.9467,111.2486 C87.3287,111.0236 87.9087,110.6856 88.9257,110.6856 C90.0017,110.6856 90.6237,111.1116 90.9957,111.3666 C91.2247,111.5226 91.2247,111.5226 91.3707,111.5226 C91.7647,111.5226 91.9077,111.4796 92.1667,111.4026 C92.5137,111.3006 92.9887,111.1586 93.8177,111.1586 C94.6457,111.1586 95.3177,111.8306 95.3177,112.6586 C95.3177,113.4876 94.6457,114.1586 93.8177,114.1586 C93.4247,114.1586 93.2817,114.2016 93.0227,114.2786 C92.6757,114.3816 92.2007,114.5226 91.3707,114.5226 C90.2947,114.5226 89.6727,114.0966 89.3007,113.8416 C89.0727,113.6856 89.0727,113.6856 88.9257,113.6856 C88.7217,113.6856 88.6977,113.6986 88.4617,113.8366 C88.0787,114.0616 87.5007,114.3996 86.4837,114.3996 C85.8577,114.3996 85.5447,114.3946 85.2317,114.3876 C84.9347,114.3816 84.6367,114.3746 84.0417,114.3746 C83.1937,114.3746 82.7097,114.2176 82.3577,114.1026 C82.1017,114.0196 81.9737,113.9776 81.6017,113.9776 C81.3057,113.9776 81.2247,114.0126 80.9837,114.1176 C80.6257,114.2746 80.0867,114.5116 79.1627,114.5116 C78.3257,114.5116 77.8487,114.3616 77.4987,114.2536 C77.2467,114.1756 77.1087,114.1326 76.7287,114.1326 C75.8807,114.1326 75.3987,113.9766 75.0457,113.8616 C74.7977,113.7816 74.6607,113.7366 74.2877,113.7366 C73.9277,113.7366 73.8037,113.7796 73.5547,113.8646 C73.1977,113.9876 72.7077,114.1546 71.8487,114.1546 L69.4107,114.1496 C68.9437,114.1496 68.7457,114.1866 68.4737,114.2396 C68.1397,114.3036 67.7237,114.3836 66.9717,114.3836 C66.3887,114.3836 66.0967,114.3936 65.8057,114.4036 C65.4887,114.4146 65.1697,114.4266 64.5347,114.4266 C63.9947,114.4266 63.7257,114.4516 63.4557,114.4776 C63.1167,114.5096 62.7767,114.5406 62.0967,114.5406" id="Fill-443" fill="#000"/><path d="M88.6358,105.8483 C88.6358,105.8483 63.4068,110.9093 59.4538,135.1013 C55.9698,156.4213 64.5138,178.4283 90.6048,181.2743 L88.6358,105.8483 Z" id="Fill-445" fill="#ef9e89"/><path d="M86.0939984,74.0543 L88.4808,185.8853 C88.5198,187.7163 90.0148,189.1803 91.8468,189.1803 L270.5068,189.1803 C272.3668,189.1803 273.8738,187.6733 273.8738,185.8143 L273.8738,75.5063 C273.8738,73.6583 272.3838,72.1553 270.5358,72.1393 L89.4898,70.6161621 C87.5908,70.5993 86.0538,72.1563 86.0939984,74.0543" id="Fill-447" fill="#F8FBF8"/><path d="M94.8738,74.0543 L97.1490047,185.8853 C97.1861813,187.7163 98.6112813,189.1803 100.357625,189.1803 L270.664227,189.1803 C272.437261,189.1803 273.8738,187.6733 273.8738,185.8143 L273.8738,75.5063 C273.8738,73.6583 272.453466,72.1553 270.691871,72.1393 L98.1108281,70.6161621 C96.3006174,70.5993 94.8354811,72.1563 94.8738,74.0543" id="Fill-447-Copy" fill="#AFDCFD"/><path d="M176.1475,0.9069 L164.7485,0.9069 C159.5945,0.9069 155.2085,4.6009 154.2925,9.6419 C154.2825,9.7049 154.2735,9.7649 154.2635,9.8289 L154.2585,9.8619 L154.2585,9.8629 C154.2215,10.1079 154.1835,10.3579 154.1455,10.6069 C152.8195,19.3479 151.1815,30.0589 151.1815,30.0589 L186.6145,30.0589 L186.6865,22.2939 L186.7845,11.6419 C186.8385,5.7289 182.0605,0.9069 176.1475,0.9069" id="Fill-449" fill="#ef9e89"/><path d="M186.6143,30.0592 C172.7393,29.0832 168.9483,26.1082 169.0823,23.6312 C169.2013,21.4132 171.2863,21.7222 172.1973,21.7432 C176.2113,21.8322 186.6863,22.2932 186.6863,22.2932" id="Fill-451" fill="#430000"/></g></g><circle id="Oval" fill="#F8FBF8" cx="342.5" cy="405.5" r="11.5"/><path d="M223.5,449 L248,449 L248,449 L248,462 L223.5,462 C219.910149,462 217,459.089851 217,455.5 C217,451.910149 219.910149,449 223.5,449 Z" id="Rectangle" fill="#F8FBF8"/></g></g><g id="Head" transform="translate(204.000000, 145.000000) scale(1 1)"><g id="Head/Short Ponytail 1" stroke="none" stroke-width="1" fill="none" fill-rule="evenodd"><g id="Group-183" transform="translate(57.000000, 76.000000)"><g id="Group-161" transform="translate(0.000000, 0.738000)"><path d="M94.2797,44.2955 C93.6827,42.2245 88.8087,41.3715 85.6927,41.0355 C84.3067,35.0205 82.7897,29.5255 81.4197,26.9635 C78.7147,21.9055 70.4677,16.5915 57.2797,18.6325 C48.5217,19.9875 39.1967,28.1565 45.2537,42.3775 C45.2537,42.3775 46.9867,45.8245 46.1567,51.5095 C46.0657,52.1355 45.9357,53.0105 45.7797,54.0515 L45.7787,54.0595 C45.5147,55.8185 45.1747,58.0745 44.8007,60.5395 C44.7917,60.6025 44.7817,60.6625 44.7727,60.7265 L44.7677,60.7605 C44.7297,61.0055 44.6927,61.2555 44.6547,61.5045 C44.4247,64.0945 45.1317,72.5695 64.2087,72.6665 L77.1947,73.1915 L77.3927,73.1995 C77.3927,73.1995 81.7437,73.1505 84.3777,73.1505 C89.8517,73.1505 90.7917,67.9325 90.1777,64.0695 C89.9677,62.7555 89.3007,58.8095 88.3697,53.9145 C92.7387,51.6265 95.0477,46.9565 94.2797,44.2955" id="Fill-153" fill="#ef9e89"/><path d="M1.2299,13.5719 C-3.9881,33.7319 27.1749,41.1209 32.8029,20.7989 C38.7829,-0.7971 6.9299,-8.4471 1.2299,13.5719" id="Fill-155" fill="#150656"/><path d="M30.5057,31.6383 C35.2537,33.2823 37.6397,34.2323 39.1217,31.1743 C40.6047,28.1173 42.2717,24.5963 42.2717,24.5963 C42.2717,24.5963 43.9277,21.3193 40.2337,19.0383 C24.4407,9.2873 17.0947,26.9933 30.5057,31.6383" id="Fill-157" fill="#FF71DB"/><path d="M93.1752,26.3219 C101.4222,13.8669 91.8452,-1.1041 81.4052,0.3639 C72.0702,1.6759 71.9552,7.7089 71.8472,10.4179 C71.8472,10.4179 50.8882,6.6469 41.0912,20.3359 C33.3022,31.2179 31.9552,45.9739 45.1112,58.5899 L52.2802,54.0089 C53.7502,53.0699 53.8882,50.9779 52.5512,49.8579 C50.8202,48.4069 49.1602,46.1329 49.8592,42.9919 C50.9762,37.9779 55.9912,37.4649 59.5952,37.7839 C63.1212,38.0969 84.5292,39.3799 93.1752,26.3219" id="Fill-159" fill="#150656"/></g></g></g></g><g id="Expression" transform="translate(315.000000, 246.000000) scale(1 1)"><g id="Expression/Smile" stroke="none" stroke-width="1" fill="none" fill-rule="evenodd"><g id="Expression" transform="translate(14.000000, 12.000000)" fill="#000"><path d="M8.5371,3.6102 C8.8431,6.5462 13.2671,6.1902 13.3041,3.3662 C13.3451,0.1732 8.1761,0.1392 8.5371,3.6102" id="Fill-95"/><path d="M3.8824,24.6669 C10.1784,28.8049 17.2924,27.1859 17.6314,27.1049 C18.4374,26.9129 18.9354,26.1039 18.7434,25.2989 C18.5514,24.4919 17.7444,23.9949 16.9394,24.1859 C16.8054,24.2169 9.0204,25.9289 3.5054,20.5259 C2.9134,19.9499 1.9634,19.9569 1.3834,20.5479 C0.8044,21.1409 0.8144,22.0899 1.4064,22.6699 C2.2044,23.4509 3.0364,24.1109 3.8824,24.6669" id="Fill-97"/></g></g></g><g id="Facial Hair" transform="translate(311.300000, 250.950000) scale(1 1)"><g id="Facial Hair/None" stroke="none" stroke-width="1" fill="none" fill-rule="evenodd" fill-opacity="0"/></g><g id="Accesories" transform="translate(311.300000, 250.950000) scale(1 1)"><g id="Accesories/None" stroke="none" stroke-width="1" fill="none" fill-rule="evenodd" fill-opacity="0"/></g></g></g></g></svg>