<svg viewBox="335.11249999999995 -7.8611111111111995 906.775 864.7222222222223" fill="none" xmlns="http://www.w3.org/2000/svg" xmlns:xlink="http://www.w3.org/1999/xlink" overflow="visible" width="906.775px" height="864.7222222222223px"><g id="Master/Stickers/Credit Card"><g id="Group 1157"><g id="Group 43"><path id="Fill 3" fill-rule="evenodd" clip-rule="evenodd" d="M991.03 436.349H796.402L858.949 81.4558H1053.58C1111.4 81.4558 1150 128.35 1139.81 186.196L1114.18 331.608C1103.99 389.454 1048.85 436.349 991.03 436.349" fill="#4965CC"/><path id="Fill 5" fill-rule="evenodd" clip-rule="evenodd" d="M1056.74 81.4557H573.633L438.414 848.688H921.525L1056.74 81.4557Z" fill="#4965CC"/><path id="Fill 7" fill-rule="evenodd" clip-rule="evenodd" d="M958.722 81.4557H475.611L340.393 848.688H823.503L958.722 81.4557Z" fill="#B6CCFC"/><path id="Fill 9" fill-rule="evenodd" clip-rule="evenodd" d="M836.532 377.492H481.201L519.473 160.338H874.803L836.532 377.492Z" fill="#DCE9FF"/><path id="Fill 11" fill-rule="evenodd" clip-rule="evenodd" d="M527.695 507.084H485.297C470.42 507.084 460.487 495.018 463.109 480.134L470.586 437.715C473.209 422.831 487.395 410.765 502.272 410.765H544.671C559.548 410.765 569.481 422.831 566.858 437.715L559.382 480.134C556.759 495.018 542.573 507.084 527.695 507.084" fill="#4965CC"/><path id="Fill 13" fill-rule="evenodd" clip-rule="evenodd" d="M657.227 507.084H614.827C599.951 507.084 590.018 495.018 592.641 480.134L600.117 437.715C602.74 422.831 616.926 410.765 631.803 410.765H674.202C689.079 410.765 699.012 422.831 696.389 437.715L688.913 480.134C686.289 495.018 672.103 507.084 657.227 507.084" fill="#4965CC"/><path id="Fill 15" fill-rule="evenodd" clip-rule="evenodd" d="M786.756 507.084H744.357C729.48 507.084 719.547 495.018 722.17 480.134L729.646 437.715C732.269 422.831 746.456 410.765 761.332 410.765H803.732C818.608 410.765 828.542 422.831 825.918 437.715L818.442 480.134C815.818 495.018 801.633 507.084 786.756 507.084" fill="#4965CC"/><path id="Fill 17" fill-rule="evenodd" clip-rule="evenodd" d="M504.858 636.675H462.459C447.582 636.675 437.649 624.609 440.272 609.726L447.748 567.306C450.371 552.423 464.558 540.357 479.434 540.357H521.833C536.71 540.357 546.643 552.423 544.02 567.306L536.544 609.726C533.921 624.609 519.735 636.675 504.858 636.675" fill="#4965CC"/><path id="Fill 19" fill-rule="evenodd" clip-rule="evenodd" d="M634.387 636.675H591.988C577.111 636.675 567.178 624.609 569.801 609.726L577.277 567.306C579.9 552.423 594.086 540.357 608.963 540.357H651.362C666.239 540.357 676.172 552.423 673.549 567.306L666.073 609.726C663.449 624.609 649.263 636.675 634.387 636.675" fill="#4965CC"/><path id="Fill 21" fill-rule="evenodd" clip-rule="evenodd" d="M763.916 636.675H721.517C706.64 636.675 696.707 624.609 699.33 609.726L706.806 567.306C709.43 552.423 723.616 540.357 738.493 540.357H780.892C795.769 540.357 805.702 552.423 803.079 567.306L795.603 609.726C792.979 624.609 778.793 636.675 763.916 636.675" fill="#4965CC"/><path id="Fill 23" fill-rule="evenodd" clip-rule="evenodd" d="M482.018 766.267H439.619C424.742 766.267 414.809 754.201 417.432 739.318L424.908 696.898C427.531 682.015 441.718 669.949 456.594 669.949H498.994C513.87 669.949 523.803 682.015 521.18 696.898L513.704 739.318C511.081 754.201 496.895 766.267 482.018 766.267" fill="#4965CC"/><path id="Fill 25" fill-rule="evenodd" clip-rule="evenodd" d="M611.547 766.267H569.148C554.271 766.267 544.338 754.201 546.961 739.318L554.437 696.898C557.06 682.015 571.247 669.949 586.124 669.949H628.522C643.399 669.949 653.332 682.015 650.71 696.898L643.234 739.318C640.61 754.201 626.424 766.267 611.547 766.267" fill="#4965CC"/><path id="Fill 27" fill-rule="evenodd" clip-rule="evenodd" d="M741.076 766.267H698.678C683.801 766.267 673.867 754.201 676.49 739.318L683.967 696.898C686.59 682.015 700.777 669.949 715.653 669.949H758.052C772.929 669.949 782.862 682.015 780.239 696.898L772.763 739.318C770.139 754.201 755.954 766.267 741.076 766.267" fill="#4965CC"/><path id="Fill 29" fill-rule="evenodd" clip-rule="evenodd" d="M896.858 714.418V714.418C891.057 714.418 887.184 709.714 888.207 703.911L972.394 226.233C973.417 220.429 978.948 215.725 984.748 215.725C990.549 215.725 994.422 220.429 993.399 226.233L909.212 703.911C908.189 709.714 902.658 714.418 896.858 714.418" fill="#DCE9FF"/><path id="Fill 31" fill-rule="evenodd" clip-rule="evenodd" d="M994.202 440.686C993.952 440.686 993.699 440.664 993.444 440.619C991.086 440.204 989.512 437.955 989.928 435.595L1052.14 82.5853C1052.56 80.2265 1054.81 78.6546 1057.17 79.0674C1059.52 79.4829 1061.1 81.7326 1060.68 84.0914L998.466 437.102C998.094 439.205 996.266 440.686 994.202 440.686" fill="#21211D"/><path id="Fill 33" fill-rule="evenodd" clip-rule="evenodd" d="M1135.18 848.688H689.906C660.125 848.688 640.238 824.533 645.489 794.737L682.989 581.972C688.24 552.176 716.639 528.022 746.421 528.022H1191.7C1221.48 528.022 1241.37 552.176 1236.12 581.972L1198.62 794.737C1193.37 824.533 1164.97 848.688 1135.18 848.688" fill="#F73132"/><path id="Fill 35" fill-rule="evenodd" clip-rule="evenodd" d="M570.933 231.694L564.351 269.045C564.306 269.296 562.55 270.79 559.078 273.53C558.831 273.53 557.598 272.034 555.391 269.045L560.445 240.359L570.933 231.694ZM558.393 277.413C558.641 277.413 559.874 278.907 562.086 281.895L555.502 319.25C555.252 319.25 552.791 316.261 548.121 310.285L553.126 281.895C553.168 281.648 554.924 280.153 558.393 277.413V277.413Z" fill="#ED7AD8"/><path id="Fill 37" fill-rule="evenodd" clip-rule="evenodd" d="M623.645 234.683C626.153 237.123 627.398 238.518 627.388 238.866L622.331 267.553C622.22 267.902 620.482 269.295 617.116 271.736C614.606 269.295 613.357 267.902 613.371 267.553L618.428 238.866C618.535 238.518 620.277 237.123 623.645 234.683M590.103 228.405H618.778C619.117 228.457 620.245 229.952 622.167 232.889C619.21 235.827 617.554 237.323 617.197 237.37H588.523C588.183 237.323 587.05 235.827 585.13 232.889C588.086 229.952 589.745 228.457 590.103 228.405M582.589 269.346H611.859C612.883 270.591 613.916 272.085 614.951 273.827C613.302 275.571 611.744 277.065 610.279 278.31H581.011C579.984 277.065 578.954 275.571 577.914 273.827C579.568 272.085 581.124 270.591 582.589 269.346M575.673 310.285H604.347C604.688 310.335 605.818 311.828 607.738 314.765C604.779 317.707 603.123 319.199 602.768 319.25H574.092C573.753 319.199 572.62 317.707 570.7 314.765C573.658 311.828 575.317 310.335 575.673 310.285M575.807 275.62C578.315 278.062 579.563 279.457 579.553 279.803L574.495 308.492C574.385 308.839 572.644 310.235 569.278 312.674C566.77 310.235 565.524 308.839 565.535 308.492L570.591 279.803C570.702 279.457 572.441 278.062 575.807 275.62" fill="#ED7AD8"/><path id="Fill 39" fill-rule="evenodd" clip-rule="evenodd" d="M675.615 234.683C678.122 237.123 679.368 238.518 679.357 238.866L674.301 267.553C674.19 267.902 672.451 269.295 669.083 271.736C666.578 269.295 665.33 267.902 665.34 267.553L670.397 238.866C670.508 238.518 672.249 237.123 675.615 234.683M668.346 275.919C670.853 278.36 672.101 279.755 672.091 280.104L667.033 308.789C666.923 309.139 665.182 310.534 661.816 312.974C659.309 310.534 658.063 309.139 658.073 308.789L663.13 280.104C663.241 279.755 664.979 278.36 668.346 275.919M642.075 228.405H670.747C671.084 228.457 672.217 229.952 674.14 232.889C671.179 235.827 669.523 237.323 669.167 237.37H640.495C640.153 237.323 639.022 235.827 637.102 232.889C640.058 229.952 641.718 228.457 642.075 228.405M634.859 269.346H663.531C663.87 269.394 665 270.89 666.923 273.827C663.966 276.766 662.309 278.262 661.95 278.31H633.279C632.939 278.262 631.809 276.766 629.886 273.827C632.844 270.89 634.5 269.394 634.859 269.346M627.645 310.285H656.317C656.657 310.335 657.786 311.828 659.708 314.765C656.748 317.707 655.092 319.199 654.736 319.25H626.064C625.721 319.199 624.592 317.707 622.672 314.765C625.63 311.828 627.286 310.335 627.645 310.285" fill="#ED7AD8"/><path id="Fill 41" fill-rule="evenodd" clip-rule="evenodd" d="M737.45 231.694L730.868 269.045C730.823 269.296 729.067 270.79 725.595 273.53C725.347 273.53 724.114 272.034 721.908 269.045L726.909 240.659C726.954 240.409 730.467 237.422 737.45 231.694V231.694ZM724.91 277.413C727.417 279.855 728.666 281.25 728.656 281.596L722.019 319.25C721.768 319.25 719.308 316.261 714.638 310.285L719.695 281.596C719.803 281.25 721.542 279.855 724.91 277.413V277.413ZM691.423 270.839H720.095C720.435 270.89 721.566 272.383 723.488 275.322C720.53 278.261 718.873 279.755 718.518 279.804H689.843C689.503 279.755 688.371 278.261 686.451 275.322C689.406 272.383 691.066 270.89 691.423 270.839V270.839ZM687.868 231.694C688.116 231.694 690.576 234.683 695.248 240.659L690.243 269.045C690.202 269.296 688.445 270.79 684.976 273.53C684.723 273.53 683.495 272.034 681.283 269.045L687.868 231.694Z" fill="#ED7AD8"/></g><g id="Group 50"><g id="Group 46"><mask id="mask01648a72b-23cc-4edf-bd9c-77c1423d0ae5" mask-type="alpha" maskUnits="userSpaceOnUse" x="340" y="81" width="619" height="768" fill="#ffffff"><path id="Clip 45" fill-rule="evenodd" clip-rule="evenodd" d="M475.561 81.423L340.393 848.688H823.325L958.495 81.423H475.561Z" fill="#ffffff"/></mask><g mask="url(#mask01648a72b-23cc-4edf-bd9c-77c1423d0ae5)"><path id="Fill 44" opacity="0.35" fill-rule="evenodd" clip-rule="evenodd" d="M227.709 838.324L894.491 -33.5479L1042.56 23.7491L319.46 896.274L227.709 838.324Z" fill="white"/></g></g><g id="Group 49"><mask id="mask11648a72b-23cc-4edf-bd9c-77c1423d0ae5" mask-type="alpha" maskUnits="userSpaceOnUse" x="340" y="81" width="619" height="768" fill="#ffffff"><path id="Clip 48" fill-rule="evenodd" clip-rule="evenodd" d="M475.561 81.423L340.393 848.688H823.325L958.495 81.423H475.561Z" fill="#ffffff"/></mask><g mask="url(#mask11648a72b-23cc-4edf-bd9c-77c1423d0ae5)"><path id="Fill 47" opacity="0.35" fill-rule="evenodd" clip-rule="evenodd" d="M341.859 574.109L789.933 54.6588L704.882 55.2885L326.076 533.568L341.859 574.109Z" fill="white"/></g></g></g><g id="Group 61"><path id="Fill 51" fill-rule="evenodd" clip-rule="evenodd" d="M818.503 621.505C818.503 645.987 798.622 665.833 774.097 665.833C749.573 665.833 729.691 645.987 729.691 621.505C729.691 597.024 749.573 577.178 774.097 577.178C798.622 577.178 818.503 597.024 818.503 621.505" fill="#ED7AD8"/><path id="Fill 53" fill-rule="evenodd" clip-rule="evenodd" d="M1125.36 742.78H729.692C724.479 742.78 720.252 738.561 720.252 733.356C720.252 728.152 724.479 723.934 729.692 723.934H1125.36C1130.57 723.934 1134.8 728.152 1134.8 733.356C1134.8 738.561 1130.57 742.78 1125.36 742.78" fill="#ED7AD8"/><path id="Fill 55" fill-rule="evenodd" clip-rule="evenodd" d="M826.39 787.859H721.805C716.592 787.859 712.365 783.64 712.365 778.435C712.365 773.231 716.592 769.013 721.805 769.013H826.39C831.603 769.013 835.83 773.231 835.83 778.435C835.83 783.64 831.603 787.859 826.39 787.859" fill="#ED7AD8"/><path id="Fill 57" fill-rule="evenodd" clip-rule="evenodd" d="M993.142 787.859H888.557C883.344 787.859 879.117 783.64 879.117 778.435C879.117 773.231 883.344 769.013 888.557 769.013H993.142C998.355 769.013 1002.58 773.231 1002.58 778.435C1002.58 783.64 998.355 787.859 993.142 787.859" fill="#ED7AD8"/><path id="Fill 59" fill-rule="evenodd" clip-rule="evenodd" d="M1121.43 657.309H1044.72C1034.39 657.309 1027.49 648.946 1029.31 638.63L1036.07 600.381C1037.89 590.064 1047.74 581.702 1058.08 581.702H1134.78C1145.12 581.702 1152.02 590.064 1150.19 600.381L1143.44 638.63C1141.62 648.946 1131.76 657.309 1121.43 657.309" fill="#EDC829"/></g><g id="Group 74"><g id="Group 64"><mask id="mask21648a72b-23cc-4edf-bd9c-77c1423d0ae5" mask-type="alpha" maskUnits="userSpaceOnUse" x="1028" y="580" width="123" height="77" fill="#ffffff"><path id="Clip 63" fill-rule="evenodd" clip-rule="evenodd" d="M1057.79 580.649C1047.43 580.649 1037.54 589.075 1035.71 599.47V599.47L1028.94 638.009C1027.11 648.403 1034.03 656.83 1044.4 656.83V656.83H1121.34C1131.7 656.83 1141.59 648.403 1143.42 638.009V638.009L1150.19 599.47C1152.02 589.075 1145.1 580.649 1134.73 580.649V580.649H1057.79Z" fill="#ffffff"/></mask><g mask="url(#mask21648a72b-23cc-4edf-bd9c-77c1423d0ae5)"><path id="Fill 62" fill-rule="evenodd" clip-rule="evenodd" d="M1033.99 611.917C1032.52 611.917 1031.31 610.73 1031.29 609.245C1031.27 607.747 1032.46 606.514 1033.95 606.493C1047.58 606.292 1061.21 606.091 1074.86 605.871C1077.76 605.835 1080.75 605.659 1082.73 603.971C1084.49 602.472 1085.28 599.923 1086 597.223C1087.53 591.464 1089.09 585.688 1090.64 579.933C1091.03 578.487 1092.52 577.629 1093.96 578.022C1095.4 578.414 1096.25 579.903 1095.86 581.349C1094.31 587.099 1092.76 592.868 1091.23 598.619C1090.51 601.312 1089.43 605.383 1086.24 608.104C1082.89 610.963 1078.65 611.25 1074.94 611.296C1061.29 611.516 1047.66 611.717 1034.03 611.917H1033.99Z" fill="white"/></g></g><g id="Group 67"><mask id="mask31648a72b-23cc-4edf-bd9c-77c1423d0ae5" mask-type="alpha" maskUnits="userSpaceOnUse" x="1028" y="580" width="123" height="77" fill="#ffffff"><path id="Clip 66" fill-rule="evenodd" clip-rule="evenodd" d="M1057.79 580.649C1047.43 580.649 1037.54 589.075 1035.71 599.47V599.47L1028.94 638.009C1027.11 648.403 1034.03 656.83 1044.4 656.83V656.83H1121.34C1131.7 656.83 1141.59 648.403 1143.42 638.009V638.009L1150.19 599.47C1152.02 589.075 1145.1 580.649 1134.73 580.649V580.649" fill="#ffffff"/></mask><g mask="url(#mask31648a72b-23cc-4edf-bd9c-77c1423d0ae5)"><path id="Fill 65" fill-rule="evenodd" clip-rule="evenodd" d="M1089.99 659.545C1089.85 659.545 1089.7 659.534 1089.55 659.51C1088.08 659.27 1087.08 657.877 1087.32 656.398C1088.28 650.448 1089.44 644.602 1090.78 639.022C1091.89 634.34 1093.48 629.606 1097.6 626.725C1101.18 624.198 1105.53 624.087 1108.41 624.012C1114.49 623.845 1120.58 623.672 1126.68 623.5C1132.95 623.321 1139.23 623.143 1145.51 622.97C1147.01 622.936 1148.24 624.11 1148.29 625.607C1148.33 627.106 1147.15 628.353 1145.66 628.394C1139.38 628.567 1133.1 628.745 1126.83 628.923C1120.73 629.095 1114.64 629.268 1108.55 629.436C1105.49 629.515 1102.79 629.699 1100.71 631.168C1098.07 633.015 1096.9 636.64 1096.04 640.281C1094.74 645.736 1093.6 651.449 1092.66 657.267C1092.44 658.598 1091.29 659.545 1089.99 659.545" fill="white"/></g></g><g id="Group 70"><mask id="mask41648a72b-23cc-4edf-bd9c-77c1423d0ae5" mask-type="alpha" maskUnits="userSpaceOnUse" x="1028" y="580" width="123" height="77" fill="#ffffff"><path id="Clip 69" fill-rule="evenodd" clip-rule="evenodd" d="M1057.79 580.649C1047.43 580.649 1037.54 589.075 1035.71 599.47V599.47L1028.94 638.009C1027.11 648.403 1034.03 656.83 1044.4 656.83V656.83H1121.34C1131.7 656.83 1141.59 648.403 1143.42 638.009V638.009L1150.19 599.47C1152.02 589.075 1145.1 580.649 1134.73 580.649V580.649" fill="#ffffff"/></mask><g mask="url(#mask41648a72b-23cc-4edf-bd9c-77c1423d0ae5)"><path id="Fill 68" fill-rule="evenodd" clip-rule="evenodd" d="M1149.67 605.122H1109.67C1108.18 605.122 1106.97 603.908 1106.97 602.41C1106.97 600.911 1108.18 599.697 1109.67 599.697H1149.67C1151.17 599.697 1152.38 600.911 1152.38 602.41C1152.38 603.908 1151.17 605.122 1149.67 605.122" fill="white"/></g></g><g id="Group 73"><mask id="mask51648a72b-23cc-4edf-bd9c-77c1423d0ae5" mask-type="alpha" maskUnits="userSpaceOnUse" x="1028" y="580" width="123" height="77" fill="#ffffff"><path id="Clip 72" fill-rule="evenodd" clip-rule="evenodd" d="M1057.79 580.649C1047.43 580.649 1037.54 589.075 1035.71 599.47V599.47L1028.94 638.009C1027.11 648.403 1034.03 656.83 1044.4 656.83V656.83H1121.34C1131.7 656.83 1141.59 648.403 1143.42 638.009V638.009L1150.19 599.47C1152.02 589.075 1145.1 580.649 1134.73 580.649V580.649" fill="#ffffff"/></mask><g mask="url(#mask51648a72b-23cc-4edf-bd9c-77c1423d0ae5)"><path id="Fill 71" fill-rule="evenodd" clip-rule="evenodd" d="M1067.49 639.6H1029.13C1027.63 639.6 1026.42 638.386 1026.42 636.888C1026.42 635.389 1027.63 634.175 1029.13 634.175H1067.49C1068.98 634.175 1070.19 635.389 1070.19 636.888C1070.19 638.386 1068.98 639.6 1067.49 639.6" fill="white"/></g></g></g><g id="Group 81"><g id="Group 77"><mask id="mask61648a72b-23cc-4edf-bd9c-77c1423d0ae5" mask-type="alpha" maskUnits="userSpaceOnUse" x="644" y="528" width="593" height="321" fill="#ffffff"><path id="Clip 76" fill-rule="evenodd" clip-rule="evenodd" d="M746.261 528.307C716.469 528.307 688.06 552.439 682.808 582.209V582.209L645.296 794.786C640.043 824.555 659.936 848.688 689.727 848.688V848.688H1135.15C1164.94 848.688 1193.35 824.555 1198.6 794.786V794.786L1236.11 582.209C1241.37 552.439 1221.48 528.307 1191.68 528.307V528.307H746.261Z" fill="#ffffff"/></mask><g mask="url(#mask61648a72b-23cc-4edf-bd9c-77c1423d0ae5)"><path id="Fill 75" opacity="0.35" fill-rule="evenodd" clip-rule="evenodd" d="M1237.59 467.205L584.918 924.177L715.745 910.487L1297.88 547.825L1237.59 467.205Z" fill="white"/></g></g><g id="Group 80"><mask id="mask71648a72b-23cc-4edf-bd9c-77c1423d0ae5" mask-type="alpha" maskUnits="userSpaceOnUse" x="644" y="528" width="593" height="321" fill="#ffffff"><path id="Clip 79" fill-rule="evenodd" clip-rule="evenodd" d="M746.261 528.307C716.469 528.307 688.06 552.439 682.808 582.209V582.209L645.296 794.786C640.043 824.555 659.936 848.688 689.727 848.688V848.688H1135.15C1164.94 848.688 1193.35 824.555 1198.6 794.786V794.786L1236.11 582.209C1241.37 552.439 1221.48 528.307 1191.68 528.307V528.307H746.261Z" fill="#ffffff"/></mask><g mask="url(#mask71648a72b-23cc-4edf-bd9c-77c1423d0ae5)"><path id="Fill 78" opacity="0.35" fill-rule="evenodd" clip-rule="evenodd" d="M1283.3 604.879L826.205 896.231L976.366 918.595L1322.28 724.437L1283.3 604.879Z" fill="white"/></g></g></g><g id="Group 927"><path id="Fill 923" fill-rule="evenodd" clip-rule="evenodd" d="M572.487 71.5245C572.487 110.316 541.041 141.761 502.25 141.761C463.459 141.761 432.012 110.316 432.012 71.5245C432.012 32.7325 463.459 1.28681 502.25 1.28681C541.041 1.28681 572.487 32.7325 572.487 71.5245" fill="#EDC829"/><path id="Fill 925" fill-rule="evenodd" clip-rule="evenodd" d="M500.041 90.6608C499.23 90.6608 498.457 90.3137 497.917 89.707L476.165 65.2368C475.123 64.064 475.228 62.2676 476.401 61.225C477.575 60.1824 479.372 60.2882 480.413 61.4609L499.989 83.4834L531.63 46.1238C532.644 44.9253 534.438 44.7775 535.635 45.7916C536.832 46.8057 536.981 48.5988 535.967 49.7966L502.21 89.6555C501.677 90.2839 500.899 90.65 500.075 90.6601C500.063 90.6601 500.053 90.6608 500.041 90.6608" fill="white"/></g></g></g></svg>