<svg viewBox="6.211538461538453 99.60000000000002 894.4615384615386 908.85" xmlns="http://www.w3.org/2000/svg" xmlns:xlink="http://www.w3.org/1999/xlink" overflow="visible" width="894.4615384615386px" height="908.85px"><defs><path d="M275.684414,0.876652922 C298.838059,1.54914435 329.906472,9.13626937 355.7471,15.2297529 L355.731944,15.2730262 C397.943463,24.6870841 452.971125,41.5664426 466.9347,60.6071529 C489.4187,91.2671529 484.8307,126.127153 444.6317,165.644153 C415.2977,194.481153 386.9717,210.585153 372.4107,216.074153 C363.858947,207.086013 354.27259,195.452866 345.166172,184.184251 L345.5431,187.063753 C345.8052,205.151453 195.8084,217.517053 146.0664,197.369053 L149.907924,169.277823 C138.376043,183.58138 125.055547,200.37944 113.5941,212.425753 C99.0331,206.935753 70.7081,190.832753 41.3741,161.994753 C1.1741,122.477753 -11.4139,87.6187529 11.0701,56.9587529 C23.1971,40.4207529 69.0261,26.2177529 108.6751,16.6397529 C108.048715,16.8278037 108.709162,16.7365391 110.005927,16.5033439 C127.558487,12.2104677 191.200137,-1.57717031 275.684414,0.876652922 Z M162.310363,78.5613735 L87.8171,104.583753 C87.8171,104.583753 122.608609,134.324697 151.917069,154.584908 L162.310363,78.5613735 Z M332.466363,87.1363735 L341.108096,153.169863 C367.388419,133.830342 393.927617,109.395078 395.144211,108.27232 L395.1877,108.232153 L332.466363,87.1363735 Z" id="mastercharacteron-wheels-path-1"/></defs><g id="Master/Character/On Wheels" stroke="none" stroke-width="1" fill="none" fill-rule="evenodd"><g id="Bottom/On Wheels" transform="translate(15.000000, 360.000000) scale(1 1)"><g id="Bottom/On Wheels/Bike" stroke="none" stroke-width="1" fill="none" fill-rule="evenodd"><g id="Bike" transform="translate(0.000000, 107.000000)"><g transform="translate(0.000100, 29.344167)"><path d="M632.739818,1.58449293 C634.694303,1.85842229 636.492142,2.15243119 638.096395,2.44760957 C638.928684,2.60074858 639.566136,2.72729228 639.985796,2.81571303 C640.009896,2.81927012 640.037935,2.82340887 640.07078,2.82825713 C640.291076,2.86091776 640.550099,2.89975318 640.846472,2.94470069 C641.688868,3.07245689 642.664087,3.22390102 643.761123,3.39853421 C646.888602,3.896386 650.37068,4.48093135 654.119511,5.14824779 C664.83793,7.05619627 675.5599,9.24728279 685.591124,11.693671 C698.848137,14.9267561 709.89362,18.3632184 718.079909,22.0284216 C729.416323,27.1040132 735.753819,32.6514935 735.151504,40.2875685 C734.251205,51.6879564 730.066633,56.0842765 717.380955,55.7288844 C714.951194,55.6608141 712.088161,55.4286368 708.526901,55.0061899 C708.506872,55.8998637 708.485792,56.8503751 708.463578,57.8541021 C708.324048,64.1585629 708.16857,71.2592838 708.001132,79.0013217 C707.530489,100.762947 707.059846,123.208004 706.619579,145.1561 C706.761977,145.916854 706.753747,146.708492 706.573237,147.476243 L706.597847,146.240344 C706.447292,153.757281 706.302653,161.101635 706.164669,168.244728 C704.838736,236.884721 704.233614,282.144281 704.693415,285.362516 C708.363541,311.052457 714.490799,324.748496 729.57535,341.718737 C731.655584,344.059016 731.444775,347.64255 729.104496,349.722783 C726.764216,351.803017 723.180683,351.592208 721.10045,349.251929 C704.499855,330.576127 697.446099,314.809119 693.468394,286.966212 C692.863008,282.728999 693.427227,240.528843 694.827784,168.025731 C694.895841,164.502604 694.965515,160.930577 695.036718,157.313084 L428.288193,346.102176 C427.381318,346.800554 426.24888,347.234774 424.988296,347.265594 C424.843573,347.265594 424.698922,347.265594 424.554675,347.258101 L166.899571,336.563255 C161.330871,336.332107 159.403157,329.046519 164.128835,326.091554 L361.410633,202.731323 L362.772149,160.531809 C362.87312,157.402259 365.491974,154.94711 368.621524,155.048081 C371.751074,155.149053 374.206223,157.767907 374.105251,160.897457 L372.872015,199.121016 L695.354037,141.382946 L695.383694,139.919383 C695.794749,119.568551 696.229766,98.8704633 696.664783,78.7561481 C696.832264,71.0121379 696.987783,63.9095191 697.127354,57.6032102 C697.161,56.082943 697.192046,54.6846743 697.220328,53.4147314 C695.68951,53.176583 694.070242,52.9178604 692.356064,52.6384127 C687.250118,51.8060342 681.394981,50.8084658 672.493259,49.2627801 C673.065249,49.3620999 653.035113,45.8736617 646.399985,44.7268973 C626.658106,41.3146557 611.064099,41.7589253 599.180581,45.3608094 C589.808715,48.201414 583.138263,52.8699939 578.613588,58.8594591 C575.977169,62.3493752 574.221044,66.0916753 573.181609,69.824201 C572.82259,71.1134124 572.579688,72.2977067 572.431498,73.3397908 C572.382392,73.6851057 572.348595,73.9815336 572.327301,74.2243472 C572.319255,74.3161005 572.315543,74.3677786 572.314694,74.3769581 C572.18942,77.5045127 569.551673,79.9393522 566.422997,79.8142026 C563.29432,79.689053 560.859481,77.0513058 560.98463,73.9226295 C561.003752,73.4445953 561.068486,72.7064373 561.20544,71.7433751 C561.420959,70.2278341 561.762583,68.5622035 562.258261,66.7822649 C563.660819,61.7457905 566.019667,56.7190906 569.566062,52.0246067 C582.905994,34.3660878 608.372961,26.6470722 648.331158,33.5535588 C654.767197,34.6659141 673.772254,37.9755583 674.427986,38.0900256 L674.438037,38.0909461 L674.433124,38.0909475 C683.299154,39.6304356 689.122552,40.6225964 694.18048,41.447147 C705.983689,43.3713227 713.031189,44.2635759 717.698495,44.3943315 C719.87636,44.4553449 721.439241,44.3430437 722.458849,44.0995977 C722.796221,44.0190454 723.023944,43.9364388 723.160697,43.8643162 L723.174906,43.8573877 L723.174906,43.8573877 L723.175037,43.8569461 C723.339339,43.6255499 723.586652,42.5578492 723.823223,39.6977452 L723.846037,39.4039461 C723.833453,39.3959374 723.808929,39.342885 723.73568,39.2095732 C723.48886,38.7603621 722.993189,38.177332 722.230686,37.509881 C720.397075,35.9048426 717.419853,34.1565173 713.446375,32.3774932 C706.009569,29.047852 695.550988,25.793986 682.904539,22.7098038 C673.130912,20.3262377 662.633398,18.1810198 652.132333,16.3117617 C648.454345,15.6570559 645.040091,15.0838963 641.978554,14.5965415 C640.909435,14.4263524 639.961638,14.2791667 639.146261,14.1555081 C638.66117,14.08194 638.3306,14.0329302 638.16564,14.0089993 C638.033431,13.9898196 637.901941,13.9659729 637.771416,13.9375039 C637.713492,13.92487 637.574867,13.8957151 637.360383,13.8523772 C636.986453,13.7768222 636.546202,13.6917215 636.044493,13.5994085 C634.593889,13.3325011 632.954621,13.0644241 631.165991,12.81374 C624.459004,11.8737272 617.644452,11.4396255 611.37562,11.7861348 C604.247363,12.1801488 598.078961,13.8523772 594.967516,15.7534555 C594.967516,15.7534555 590.859173,13.6971524 587.960204,12.81374 C584.868729,11.8716644 582.892539,11.1932179 582.892539,11.1932179 C582.892539,11.1932179 584.205308,9.12349743 589.524818,5.80549158 C594.860633,2.47731565 602.352022,0.928604809 610.749813,0.464417327 C617.849894,0.0719607183 625.362494,0.550529595 632.739818,1.58449293 Z M364.365307,214.257057 L185.672311,325.993717 L416.103075,335.558525 L364.365307,214.257057 Z M676.995357,156.189874 L374.988401,210.261402 L427.30058,332.909603 L676.995357,156.189874 Z" id="Combined-Shape" fill="#B9B3B8"/><path d="M313.007,125.705833 C313.007,125.705833 309.117,164.603833 373.301,162.659833 C437.485,160.714833 393.723,123.760833 393.723,123.760833 L313.007,125.705833 Z" id="Fill-3" fill="#010101"/><path d="M167.135,163.763433 C259.442,163.763433 334.271,238.592433 334.271,330.898433 C334.271,423.204433 259.442,498.034433 167.135,498.034433 C74.829,498.034433 3.12638804e-13,423.204433 3.12638804e-13,330.898433 C3.12638804e-13,238.592433 74.829,163.763433 167.135,163.763433 Z M714.0988,163.763433 C806.4058,163.763433 881.2348,238.592433 881.2348,330.898433 C881.2348,423.204433 806.4058,498.034433 714.0988,498.034433 C621.7928,498.034433 546.9628,423.204433 546.9628,330.898433 C546.9628,238.592433 621.7928,163.763433 714.0988,163.763433 Z M167.135,180.771433 C127.034,180.771433 89.334,196.386433 60.979,224.742433 C32.623,253.097433 17.008,290.797433 17.008,330.898433 C17.008,370.998433 32.623,408.699433 60.979,437.054433 C89.334,465.409433 127.034,481.026433 167.135,481.026433 C207.236,481.026433 244.936,465.409433 273.291,437.054433 C301.647,408.699433 317.263,370.998433 317.263,330.898433 C317.263,290.797433 301.647,253.097433 273.291,224.742433 C244.936,196.386433 207.236,180.771433 167.135,180.771433 Z M714.0988,180.771433 C673.9978,180.771433 636.2978,196.386433 607.9428,224.742433 C579.5868,253.097433 563.9708,290.797433 563.9708,330.898433 C563.9708,370.998433 579.5868,408.699433 607.9428,437.054433 C636.2978,465.409433 673.9978,481.026433 714.0988,481.026433 C754.1998,481.026433 791.8998,465.409433 820.2548,437.054433 C848.6108,408.699433 864.2268,370.998433 864.2268,330.898433 C864.2268,290.797433 848.6108,253.097433 820.2548,224.742433 C791.8998,196.386433 754.1998,180.771433 714.0988,180.771433 Z" id="Combined-Shape" fill="#010101"/><path d="M436.7014,361.992933 L491.3354,376.289933 L491.2854,377.901933 C491.0514,385.401933 483.8554,390.702933 476.6234,388.703933 L476.6234,388.703933 L443.3094,379.494933 C435.7484,377.404933 432.4084,368.558933 436.7014,361.993933 L436.7014,361.993933 L436.7014,361.992933 Z M575.0725,297.658933 L629.1955,302.253933 L629.2325,303.396933 C629.4835,311.160933 622.8195,317.356933 615.0945,316.543933 L615.0945,316.543933 L586.1545,313.497933 C578.4145,312.682933 573.1845,305.208933 575.0725,297.658933 L575.0725,297.658933 Z" id="Combined-Shape" fill="#010101"/></g><path d="M431.6155,327.2287 L493.8875,369.9667 C493.8875,369.9667 491.9235,378.9927 501.9175,385.3987 C514.3255,393.3527 515.2425,412.0487 515.2425,412.0487 L515.2425,412.0487 L417.9265,387.1987 L431.6155,327.2287 Z M568.239846,281.118628 C575.575208,282.862567 596.498026,289.139224 631.0083,299.9486 C631.0083,299.9486 627.7023,304.7956 640.7303,313.0856 C653.7583,321.3756 646.6513,333.8116 646.6513,333.8116 L646.6513,333.8116 L549.5353,324.3366 L551.267354,301.836404 L559.993732,290.909122 C565.491141,284.382126 568.239846,281.118628 568.239846,281.118628 Z" id="Shoes" fill="#2F6858"/><path d="M664.748717,77.2585681 C666.020679,77.4799184 667.205615,77.6861666 668.247496,77.8675407 C669.609149,79.2403113 670.888576,80.6420752 672.087698,82.0713765 C672.442665,82.4944809 672.387428,83.1252319 671.964323,83.4801983 C671.541219,83.8351646 670.910468,83.7799278 670.555502,83.3568235 C668.907289,81.3922259 667.101098,79.4794266 665.133811,77.620157 Z M415.849632,0.411091243 C416.034514,0.44177192 416.397678,0.503026848 416.934266,0.595034459 C417.827469,0.74818982 418.884382,0.932454456 420.100151,1.14800685 C423.57241,1.76362897 427.621803,2.50654202 432.209482,3.37817451 C445.3148,5.86810958 460.106969,8.89004889 476.275231,12.4554367 C522.469216,22.6420279 570.436993,35.1396176 617.693334,50.040392 C629.420091,53.7382097 639.530484,58.0259194 648.105158,62.8594813 C646.063228,62.5082003 644.060817,62.1961208 642.095964,61.9216281 C634.792536,58.2389477 626.47237,54.9057778 617.091878,51.9478117 C569.896332,37.0662074 521.984418,24.5831721 475.844543,14.4085133 C459.695954,10.8474636 444.922847,7.82941855 431.836171,5.34302549 C427.256652,4.47294314 423.215307,3.73150658 419.751001,3.11729472 C418.538972,2.90240521 417.485773,2.71878826 416.596264,2.56626613 C416.063225,2.47486724 415.70359,2.41420738 415.522215,2.38410876 C414.977382,2.29369505 414.609001,1.77872525 414.699415,1.2338915 C414.789829,0.689057762 415.304799,0.320677537 415.849632,0.411091243 Z" id="Pant-details" fill="#3973B0"/></g><path d="M631.0083,406.9486 L563.5535,386.713048 L652.506767,323.75897 C641.942642,373.324753 631.0083,406.9486 631.0083,406.9486 Z M655.833654,307.514147 L552.762301,380.46501 C551.586186,371.896457 548.397039,346.698781 546.953758,315.81885 L658.038746,295.931249 C657.314602,299.860521 656.578172,303.723675 655.833654,307.514147 Z M670.856357,143.522563 L670.978198,144.7431 C665.425567,143.583517 659.772096,142.498594 654.119611,141.492415 C650.37078,140.825098 646.888702,140.240553 643.761223,139.742701 C642.664187,139.568068 641.688968,139.416624 640.846572,139.288868 C640.550199,139.24392 640.291176,139.205085 640.07088,139.172424 C640.038035,139.167576 640.009996,139.163437 639.985896,139.15988 C639.566236,139.071459 638.928784,138.944916 638.096495,138.791777 C636.492242,138.496598 634.694403,138.202589 632.739918,137.92866 C625.362594,136.894697 617.849994,136.416128 610.749913,136.808584 C602.352122,137.272772 594.860733,138.821483 589.524918,142.149659 C584.205408,145.467664 582.892639,147.537385 582.892639,147.537385 C582.892639,147.537385 584.868829,148.215831 587.960304,149.157907 C590.859273,150.041319 594.967616,152.097623 594.967616,152.097623 C598.079061,150.196544 604.247463,148.524316 611.37572,148.130302 C617.644552,147.783793 624.459104,148.217894 631.166091,149.157907 C632.954721,149.408591 634.593989,149.676668 636.044593,149.943576 C636.546302,150.035889 636.986553,150.120989 637.360483,150.196544 C637.574967,150.239882 637.713592,150.269037 637.771516,150.281671 C637.902041,150.31014 638.033531,150.333987 638.16574,150.353166 C638.3307,150.377097 638.66127,150.426107 639.146361,150.499675 C639.961738,150.623334 640.909535,150.770519 641.978654,150.940709 C645.040191,151.428063 648.454445,152.001223 652.132433,152.655929 C658.739375,153.832007 665.34491,155.117326 671.769635,156.502516 C671.880168,159.792542 671.909403,163.206285 671.8523,166.7466 C671.813498,169.151023 671.760006,171.555059 671.692423,173.957768 C666.068707,172.978574 653.361317,170.767082 648.331258,169.897726 C608.373061,162.991239 582.906094,170.710255 569.566162,188.368774 C566.019767,193.063258 563.660919,198.089958 562.258361,203.126432 C561.762683,204.906371 561.421059,206.572001 561.20554,208.087542 C561.068586,209.050604 561.003852,209.788762 560.98473,210.266797 C560.859581,213.395473 563.29442,216.03322 566.423097,216.15837 C569.551773,216.283519 572.18952,213.84868 572.31467,210.720003 C572.315643,210.711946 572.319355,210.660268 572.327401,210.568514 C572.348695,210.325701 572.382492,210.029273 572.431598,209.683958 C572.579788,208.641874 572.82269,207.457579 573.181709,206.168368 C574.221144,202.435842 575.977269,198.693542 578.613688,195.203626 C583.138363,189.214161 589.808815,184.545581 599.180681,181.704976 C611.064199,178.103092 626.658206,177.658823 646.400085,181.071064 C651.948557,182.03002 666.863829,184.626449 671.265978,185.393102 C669.675614,219.780922 665.379969,253.586804 660.156378,284.031767 L546.51317,304.37856 C545.458212,269.317843 547.029507,229.056934 556.1273,197.8666 L460.8233,245.5176 L417.9265,110 L575.5763,72.4166 C575.5763,72.4166 660.527643,49.7069207 670.856357,143.522563 Z" id="Pants" fill="#94C0E9"/><path d="M277.64,110.5246 C277.64,110.5246 204.089,289.2786 391.778,277.6096 L534.733,265.9396 C534.733,265.9396 448.182,308.7286 427.76,431.2606 L493.888,476.9666 L665.328,275.3826 C672.955,266.4156 678.741,255.9786 681.914,244.6426 C689.047,219.1646 686.545,179.7986 617.393,157.9946 C509.448,123.9576 414.145,108.3976 414.145,108.3976 L277.64,110.5246 Z" id="Fill-23" fill="#94C0E9"/></g></g><g id="Head" transform="translate(247.000000, 97.000000) scale(1 1)"><g id="Head/Buns" stroke="none" stroke-width="1" fill="none" fill-rule="evenodd"><g id="Buns" transform="translate(27.000000, 22.000000)"><path d="M35.4491,120.8545 C40.0451,120.8545 44.1551,119.1565 46.9151,116.4835 C47.9131,115.5165 49.4561,115.4195 50.5131,116.3225 C58.2311,122.9305 68.0261,127.6305 78.9481,129.5545 C80.3511,129.8015 81.3431,131.0665 81.2611,132.4895 L79.7011,160 L106.1401,160 L104.9161,138.3525 C104.5871,132.6145 108.9481,127.1025 114.6151,126.1435 C134.2491,122.8215 146.2771,107.3665 146.0801,84.6945 C145.8051,53.1185 117.1561,33.6915 85.6021,33.6915 C54.0481,33.6915 32.9661,51.6145 32.9661,79.6885 C32.9661,84.9065 33.8621,89.9345 35.5061,94.6715 C35.7431,95.3555 35.2641,96.0695 34.5411,96.0815 C30.4321,96.1535 20.3401,96.9535 20.392892,108.4685 C20.4251,115.3085 27.1341,120.8545 35.4491,120.8545 Z" id="Skin" fill="#583318"/><path d="M132.7754,44.9803 C143.4384,42.3773 151.2944,33.4693 151.2944,22.8763 C151.2944,10.2423 140.1214,0.0003 126.3384,0.0003 C112.5564,0.0003 101.3824,10.2423 101.3824,22.8763 C101.3824,25.2653 101.7834,27.5673 102.5244,29.7323 C85.4174,25.8243 67.3114,28.1113 51.9224,37.1073 C51.2374,37.5073 50.5604,37.9263 49.8864,38.3543 C49.8994,38.0483 49.9114,37.7433 49.9114,37.4343 C49.9114,24.7993 38.7384,14.5573 24.9564,14.5573 C11.1724,14.5573 0.0004,24.7993 0.0004,37.4343 C0.0004,50.0683 11.1724,60.3103 24.9564,60.3103 C27.3774,60.3103 29.7144,59.9883 31.9274,59.3983 C28.7124,68.5443 29.0184,80.0993 35.5054,94.6713 C35.5054,94.6713 67.0684,89.4253 94.1044,52.5113 C94.1044,52.5113 134.1374,72.2683 144.5354,76.9473 C144.5354,76.9473 148.4014,59.7483 132.7754,44.9803" id="Hair" fill="#B9B3B8"/></g></g></g><g id="Face" transform="translate(321.000000, 188.000000) scale(1 1)"><g id="Face/Glasses" stroke="none" stroke-width="1" fill="none" fill-rule="evenodd"><g id="Glasses" transform="translate(1.000000, 8.000000)"><path d="M21.2142,-2.13162821e-14 C32.9215177,-2.13162821e-14 42.4282,9.25219371 42.4282,20.686 C42.4282,21.4351623 42.3873869,22.1749587 42.307816,22.9034003 L49.3351964,22.8869478 C49.3019215,22.3925382 49.285,21.8933837 49.285,21.3901 C49.285,9.98731464 57.9713029,0.7041 68.737,0.7041 C79.5033656,0.7041 88.189,9.98695743 88.189,21.3901 C88.189,32.7932426 79.5033656,42.0761 68.737,42.0761 C59.4281564,42.0761 51.6740035,35.1353637 49.7458309,25.8851038 L41.7472963,25.9059033 C39.3744023,34.8083762 31.0748805,41.372 21.2142,41.372 C9.50688233,41.372 0.0002,32.1198063 0.0002,20.686 C0.0002,9.25219371 9.50688233,-2.13162821e-14 21.2142,-2.13162821e-14 Z M68.737,3.7041 C59.6743591,3.7041 52.285,11.6012466 52.285,21.3901 C52.285,31.1789534 59.6743591,39.0761 68.737,39.0761 C77.8002817,39.0761 85.189,31.1793344 85.189,21.3901 C85.189,11.6008656 77.8002817,3.7041 68.737,3.7041 Z M21.2142,3 C11.1457922,3 3.0002,10.9275392 3.0002,20.686 C3.0002,30.4444608 11.1457922,38.372 21.2142,38.372 C31.2826078,38.372 39.4282,30.4444608 39.4282,20.686 C39.4282,10.9275392 31.2826078,3 21.2142,3 Z" id="Combined-Shape" fill="#F3705A"/><path d="M31.5916697,41.5163389 C31.3065036,40.7385395 31.7058618,39.8768358 32.4836611,39.5916697 C33.2614605,39.3065036 34.1231642,39.7058618 34.4083303,40.4836611 C34.4613851,40.6283697 34.5845696,40.9185521 34.7778641,41.3038508 C35.1046798,41.9553008 35.5020079,42.6069701 35.9660446,43.2082416 C38.2079414,46.1131596 40.9296782,46.7915247 44.7966085,44.0076513 C45.4689316,43.5236336 46.4063311,43.6762854 46.8903487,44.3486085 C47.3743664,45.0209316 47.2217146,45.9583311 46.5493915,46.4423487 C41.2508857,50.2568394 36.7507163,49.1352182 33.5910775,45.041144 C32.5784937,43.7290974 31.9263137,42.4290906 31.5916697,41.5163389 Z" id="Stroke-7" fill="#010101"/><path d="M18.3701,26.9805 C18.3701,24.6420469 19.7129415,22.7462707 21.3701,22.7462707 C23.0272585,22.7462707 24.3701,24.6420469 24.3701,26.9805 C24.3701,29.3189531 23.0272585,31.2147293 21.3701,31.2147293 C19.7129415,31.2147293 18.3701,29.3189531 18.3701,26.9805" id="Fill-9" fill="#010101"/><path d="M64.1553,26.9805 C64.1553,24.6420469 65.4981415,22.7462707 67.1553,22.7462707 C68.8108129,22.7462707 70.1553,24.6420469 70.1553,26.9805 C70.1553,29.3189531 68.8108129,31.2147293 67.1553,31.2147293 C65.4981415,31.2147293 64.1553,29.3189531 64.1553,26.9805" id="Fill-11" fill="#010101"/></g></g></g><g id="Body" transform="translate(64.000000, 58.000000) scale(1 1)"><defs><path d="M182.678662,-0.00403297353 C187.885095,0.54922035 193.335091,1.19850653 199.0802,1.93035429 C265.7362,10.4223543 308.0932,44.7363543 308.0932,44.7363543 C294.5282,93.7983543 262.0602,123.935354 262.0602,123.935354 L262.0602,123.935354 L268.1052,196.478354 C125.8982,234.765354 31.4772,189.282354 31.4772,189.282354 L31.4772,189.282354 L57.6732,133.435354 C27.4472,127.102354 0.6572,94.6133543 0.6572,94.6133543 C0.6572,94.6133543 19.5502,38.3743543 62.7122,18.6683543 C80.5156351,10.5398732 95.5122647,5.1472849 109.991414,1.89235379 C111.745044,2.8101392 128.308854,11.1515572 148.8249,10.2895543 C168.8719,9.44655429 183.5049,0.106554294 183.5049,0.106554294 L183.5049,0.106554294 Z" id="bodyselfie-path-1"/><path d="M58.5617694,133.89449 C58.308306,134.385178 57.7050521,134.577487 57.2143641,134.324024 C56.723676,134.07056 56.5313673,133.467306 56.7848306,132.976618 L72.1438306,103.242618 C72.397294,102.75193 73.0005479,102.559622 73.4912359,102.813085 C73.981924,103.066548 74.1742327,103.669802 73.9207694,104.16049 L58.5617694,133.89449 Z" id="bodyselfie-path-3"/></defs><g id="Body/Selfie" stroke="none" stroke-width="1" fill="none" fill-rule="evenodd"><g id="Body" transform="translate(57.000000, 44.000000)"><path d="M54.2514,101.2774 C54.2514,101.2774 64.0404,92.2774 67.6924,95.9294 C71.3304,99.5684 68.0624,107.8224 65.6984,110.3174 C65.6984,110.3174 77.7274,102.9314 78.2774,110.5954 C78.5664,114.6274 75.3974,120.3864 70.5014,127.5864 C70.5014,127.5864 80.8584,119.6094 82.7924,124.1344 C84.9814,129.2604 84.3244,134.2104 73.3814,151.2014 C68.4131316,158.915541 64.0391307,165.16844 60.7438864,169.696842 L90.0281,288.4943 L125.6611,227.6563 L172.1381,309.7793 L141.6801,366.1283 C135.3041,379.4373 115.1041,407.5293 103.7211,416.9213 C87.6831,430.1523 65.6791,439.8073 50.3051,412.8303 C23.4001,365.6203 10.2011,209.2663 10.2011,209.2663 C-1.12462,184.64673 0.0099987,140.442326 0.048111358,122.059484 L0.0481,120.4293 C0.0466695111,119.87171 0.298679605,119.308883 0.765975871,118.744768 C4.341375,106.912577 25.0194263,95.1650236 46.3994,86.7614 C73.8174,75.9874 54.2514,101.2774 54.2514,101.2774 Z M532.9083,16.1718 C532.9083,16.1718 538.1263,60.1778 537.9103,66.2198 C537.9103,66.2198 543.0893,58.2368 550.6413,58.6678 C558.1933,59.0998 560.7823,74.6348 560.7823,74.6348 C560.7823,74.6348 572.2183,75.4978 575.2393,93.4078 C575.2393,93.4078 583.6383,100.4878 572.7823,125.1588 C565.6613,141.3428 558.4083,147.7838 558.4083,147.7838 C558.4083,147.7838 542.3053,326.8628 518.2603,352.4428 C501.9573,369.7858 452.0993,376.1218 362.0603,298.8718 L385.9913,230.3188 L397.1533,213.8038 C397.1533,213.8038 437.8553,233.3788 464.6493,258.9368 L491.7903,138.3348 C491.7903,138.3348 466.5783,103.8768 476.4133,89.7398 C483.3183,79.8138 491.3583,80.5558 491.3583,80.5558 C491.3583,80.5558 481.3763,14.8658 487.2023,8.6078 C493.0283,2.3498 502.3753,18.5208 502.3753,18.5208 C502.3753,18.5208 512.420065,39.8853644 515.775819,65.3898422 L515.824991,65.7784984 L515.799562,65.5256627 C514.391824,51.8389804 511.21398,12.94456 519.3533,3.2128 C529.2783,-8.6552 532.9083,16.1718 532.9083,16.1718 Z M283.5049,175.0431 C283.5049,175.0431 268.8719,184.3831 248.8249,185.2261 C227.1189,186.1381 209.8369,176.7481 209.8369,176.7481 C209.8369,176.7481 236.9449,168.6831 283.5049,175.0431 Z" id="Skin" fill="#583318"/><path d="M90.8701697,287.9553 C91.0947415,288.306334 91.4555604,289.015589 91.905619,290.141821 C92.637347,291.972908 93.3645016,294.338955 94.0402246,297.29929 C95.9563707,305.693902 97.1028,317.177349 97.1028,332.2272 C97.1028,332.779485 96.6550847,333.2272 96.1028,333.2272 C95.5505153,333.2272 95.1028,332.779485 95.1028,332.2272 C95.1028,317.319676 93.9711043,305.98381 92.0903754,297.74436 C91.4371922,294.882773 90.7405186,292.615906 90.0484185,290.883985 C89.8103101,290.288139 89.5913511,289.803494 89.397542,289.422528 C89.2877081,289.20663 89.2150126,289.079341 89.1854303,289.0331 C88.887804,288.567872 89.0236719,287.949457 89.4888999,287.65183 C89.9541278,287.354204 90.5725433,287.490072 90.8701697,287.9553 Z M465.952594,257.960909 L469.965594,275.603909 C470.088086,276.142439 469.75082,276.678303 469.212291,276.800794 C468.673761,276.923286 468.137897,276.58602 468.015406,276.047491 L464.002406,258.404491 C463.879914,257.865961 464.21718,257.330097 464.755709,257.207606 C465.294239,257.085114 465.830103,257.42238 465.952594,257.960909 Z M71.2300871,126.901153 C71.6083175,127.303596 71.5886895,127.936457 71.1862468,128.314687 C71.1310998,128.366516 71.1310998,128.366516 70.8673963,128.614893 C70.6070221,128.860277 70.3049337,129.145404 69.9646091,129.467143 C68.9920614,130.386576 67.9082868,131.414862 66.7411143,132.526927 C63.4065394,135.704061 60.0720603,138.915645 56.9605461,141.960831 C56.650671,142.264101 56.3442513,142.564513 56.0414303,142.861939 C50.204603,148.594775 45.9819585,152.94243 44.0272772,155.307984 C43.6754808,155.733727 43.04516,155.793674 42.6194163,155.441877 C42.1936725,155.090081 42.1337264,154.45976 42.4855228,154.034016 C44.5005975,151.595374 48.7510792,147.219058 54.6399847,141.435072 C54.9436638,141.136803 55.2509328,140.835558 55.5616496,140.531465 C58.6802676,137.479327 62.0209302,134.261786 65.3614969,131.078943 C66.5306239,129.965016 67.6162704,128.934954 68.590639,128.0138 C68.931735,127.691332 69.2345814,127.405489 69.4957026,127.159402 C69.7604479,126.910043 69.7604479,126.910043 69.8165532,126.857313 C70.218996,126.479082 70.8518567,126.49871 71.2300871,126.901153 Z M66.4624584,109.67249 C66.8186324,110.094578 66.7651984,110.725484 66.3431102,111.081658 C66.2863452,111.129559 66.2863452,111.129559 66.0164877,111.357336 C65.6471873,111.669088 65.6471873,111.669088 65.0932087,112.136861 C64.0988683,112.976534 62.9908791,113.912596 61.7976564,114.921193 C58.38848,117.80287 54.9793176,120.688444 51.7975263,123.387039 L51.685806,123.481796 C43.9927494,130.006901 38.8824748,134.375739 37.5958612,135.545351 C37.1871977,135.916851 36.5547499,135.886725 36.1832494,135.478061 C35.8117489,135.069398 35.8418754,134.43695 36.2505388,134.065449 C37.5635118,132.871875 42.6653707,128.510233 50.3921204,121.956549 L50.50388,121.861759 C53.6866186,119.162361 57.0965953,116.276097 60.5065581,113.393755 C61.700034,112.384945 62.8082651,111.448678 63.8028403,110.608807 C64.3569718,110.140904 64.3569718,110.140904 64.7264115,109.829035 C64.9964025,109.601145 64.9964025,109.601145 65.0532898,109.553142 C65.4753781,109.196968 66.1062843,109.250402 66.4624584,109.67249 Z M538.550448,65.451715 C538.97465,65.8053694 539.031839,66.4359463 538.678185,66.8601479 C538.642307,66.9031825 538.571281,66.9890314 538.467453,67.115547 C538.293449,67.3275738 538.09133,67.5759813 537.863445,67.8586208 C537.211324,68.6674266 536.48425,69.5874447 535.701018,70.6014613 C533.463059,73.4988469 531.225153,76.5665585 529.137995,79.6659977 C527.533767,82.0482847 526.08316,84.3557893 524.823105,86.5539037 C521.811265,91.8079301 520.019639,96.2062614 519.743822,99.3993882 C519.72137,99.6593094 519.708743,99.9097192 519.706191,100.150679 C519.738287,100.185905 519.766351,100.22532 519.791821,100.267276 C519.994209,100.60067 519.978676,101.005348 519.785815,101.315298 C520.130377,103.498448 521.628559,104.657047 524.568506,104.862211 C529.259196,105.188558 532.529838,103.38126 539.239426,95.686053 C539.266216,95.6392058 539.299532,95.5799264 539.339597,95.5092564 C539.462409,95.2926259 539.607359,95.0421216 539.773817,94.7605524 C540.247676,93.959004 540.79993,93.0670744 541.425594,92.1072076 C543.212731,89.3654539 545.232704,86.6236244 547.447273,84.0606907 C551.591349,79.2647294 555.928747,75.6548038 560.383648,73.7177412 C560.890126,73.4975166 561.479234,73.7295705 561.699459,74.2360481 C561.919683,74.7425257 561.68763,75.3316342 561.181152,75.5518588 C557.046772,77.3495538 552.925801,80.7793517 548.96059,85.3683116 C546.809896,87.8573212 544.842131,90.528288 543.101084,93.1993306 C542.491882,94.1339426 541.954921,95.0011718 541.495466,95.7783556 C541.221479,96.2418153 541.035322,96.5701786 540.942206,96.7408157 L540.952354,96.7211525 C540.911091,96.8009436 540.830883,96.9600509 540.717303,97.1918437 C540.526335,97.5815712 540.313097,98.0308001 540.083164,98.5328799 C539.42516,99.969689 538.766822,101.538829 538.152733,103.186641 C537.126656,105.939956 536.330828,108.628059 535.854578,111.138054 C534.76948,116.856881 535.451299,121.013598 538.226608,123.070451 C540.571362,124.808574 544.895669,121.419441 550.962843,113.08897 C556.611406,105.335474 565.623472,97.2571818 570.069414,95.5268885 C570.584095,95.3265827 571.163706,95.5814337 571.364011,96.0961142 C571.564317,96.6107946 571.309466,97.1904056 570.794786,97.3907115 C566.763613,98.959583 558.022725,106.794795 552.579437,114.266521 C545.792903,123.584701 540.819805,127.482317 537.035673,124.677209 C533.477024,122.039803 532.676452,117.159105 533.889636,110.765223 C534.389194,108.132384 535.215986,105.339697 536.278643,102.488224 C536.429217,102.084182 536.582332,101.68484 536.737386,101.290899 C532.019955,105.88882 528.728222,107.156451 524.429484,106.857374 C520.883069,106.609887 518.745177,105.060115 518.003352,102.481663 C516.978085,103.053861 515.784294,103.678406 514.443661,104.348387 C513.760731,104.68968 513.04389,105.040621 512.296939,105.399816 C510.15769,106.42854 507.867644,107.479697 505.577867,108.497346 C505.365826,108.591583 505.157788,108.68375 504.954104,108.773714 C506.092965,109.183104 507.346887,109.680549 508.702667,110.273656 C513.559066,112.398162 518.743557,115.308859 524.04536,119.126705 C524.493536,119.449439 524.595228,120.074384 524.272495,120.52256 C523.949761,120.970736 523.324816,121.072428 522.87664,120.749695 C517.693318,117.017166 512.631872,114.17555 507.901083,112.105994 C506.250219,111.383798 504.760356,110.810007 503.457693,110.369764 C503.004742,110.216687 502.608399,110.091414 502.271941,109.992087 C502.074344,109.933753 501.943175,109.89764 501.881714,109.881887 C500.955839,109.644574 500.858645,108.368022 501.737919,107.993269 C501.888046,107.929284 502.1712,107.80757 502.568342,107.635203 C503.231145,107.347535 503.969919,107.023344 504.76561,106.669714 C507.038441,105.659596 509.311002,104.616465 511.430187,103.597389 C512.168316,103.242437 512.876101,102.89593 513.549592,102.559353 C515.176514,101.7463 516.577618,101.004187 517.710606,100.349799 C517.703508,99.9891009 517.717786,99.6145806 517.751242,99.2272722 C518.058339,95.6720188 519.942663,91.0461185 523.087977,85.5592521 C523.652741,84.574045 524.254185,83.5686307 524.889236,82.5457456 C522.077043,82.5885939 516.499773,82.4997636 508.759272,82.3106132 C507.108085,82.270264 505.389573,82.2259622 503.619777,82.1783456 C500.554197,82.0958657 497.481822,82.0074976 494.550811,81.9191294 C493.524943,81.8882 492.590003,81.8594793 491.764515,81.8337033 C491.269137,81.8182351 490.920268,81.8071838 490.736433,81.8012857 C490.184432,81.7835755 489.751304,81.3217335 489.769014,80.7697327 C489.786725,80.217732 490.248567,79.784604 490.800567,79.8023143 C490.983845,79.8081945 491.332144,79.8192277 491.826935,79.8346776 C492.651727,79.8604319 493.585954,79.8891307 494.611083,79.9200377 C497.540064,80.0083448 500.610324,80.096652 503.673568,80.1790691 C505.441785,80.2266432 507.158665,80.270903 508.80813,80.3112101 C518.130724,80.5390213 524.483242,80.6204625 526.187941,80.5041329 C526.604745,79.8587716 527.036226,79.2064995 527.479067,78.548878 C529.592596,75.4102764 531.855425,72.3084008 534.118202,69.3788845 C534.910227,68.3534853 535.645892,67.422596 536.306485,66.6032815 C536.53805,66.3160789 536.74381,66.0631957 536.921426,65.846768 C537.028571,65.716211 537.10288,65.6263932 537.142015,65.5794521 C537.495669,65.1552505 538.126246,65.0980606 538.550448,65.451715 Z M55.1632976,100.868095 C55.3893505,101.371998 55.1641084,101.963745 54.6602051,102.189798 C54.6008807,102.216411 54.4829254,102.270074 54.3102582,102.349796 C54.0205776,102.483545 53.6840056,102.641379 53.3044633,102.822303 C52.2180869,103.34017 51.0067391,103.938547 49.7018233,104.609459 C45.97418,106.525997 42.2470402,108.637693 38.7728249,110.87932 C31.4463406,115.606503 26.2587499,120.25852 24.1839043,124.494152 C24.1252628,124.613864 24.0692337,124.733066 24.0158274,124.851752 C23.7891966,125.355395 23.1971921,125.579958 22.6935485,125.353327 C22.1899049,125.126697 21.9653417,124.534692 22.1919726,124.031048 C22.2543741,123.892373 22.3196642,123.753467 22.3878208,123.614331 C24.6672243,118.961111 30.0769781,114.109867 37.6885034,109.198771 C41.2231413,106.918157 45.005487,104.775184 48.7873293,102.83078 C50.1107335,102.150362 51.3399685,101.543149 52.4438586,101.016934 C52.8309096,100.83243 53.1748848,100.671125 53.4718828,100.533997 C53.6512227,100.451194 53.7757612,100.394536 53.8415949,100.365002 C54.3454982,100.138949 54.9372446,100.364192 55.1632976,100.868095 Z" id="Skin-Shadows" fill="#9B7368"/><g id="Tshirt" transform="translate(100.000000, 174.936546)"><mask id="bodyselfie-mask-2" fill="#ffffff"><use xlink:href="#bodyselfie-path-1" fill="#ffffff"/></mask><use fill="#5BA092" xlink:href="#bodyselfie-path-1"/><g mask="url(#bodyselfie-mask-2)"><g transform="translate(-96.000000, 1.063454) scale(1 1)" id="Patterns"><g id="Patterns/Pattern 6" stroke="none" stroke-width="1" fill="none" fill-rule="evenodd"><path d="M280,-1 L280,-5.70654635e-14 L281,-5.70654635e-14 L281,218 L278,218 L278,175.999 L234,175.999 L234,218 L231,218 L231,175.999 L187,175.999 L187,218 L184,218 L184,175.999 L140,175.999 L140,218 L137,218 L137,175.999 L93,175.999 L93,218 L90,218 L90,175.999 L46,175.999 L46,218 L43,218 L43,175.999 L-1.42108547e-14,176 L-1.40271577e-14,173 L43,172.999 L43,132.75 L-1.42108547e-14,132.75 L-1.40271577e-14,129.75 L43,129.75 L43,89 L-1.42108547e-14,89 L-1.40271577e-14,86 L43,86 L43,45.999 L-1.42108547e-14,46 L-1.40271577e-14,43 L43,42.999 L43,2 L-1.42108547e-14,2 L-1.40271577e-14,-1 L280,-1 Z M90,132.75 L46,132.75 L46,172.999 L90,172.999 L90,132.75 Z M137,132.75 L93,132.75 L93,172.999 L137,172.999 L137,132.75 Z M184,132.75 L140,132.75 L140,172.999 L184,172.999 L184,132.75 Z M231,132.75 L187,132.75 L187,172.999 L231,172.999 L231,132.75 Z M278,132.75 L234,132.75 L234,172.999 L278,172.999 L278,132.75 Z M90,89 L46,89 L46,129.75 L90,129.75 L90,89 Z M137,89 L93,89 L93,129.75 L137,129.75 L137,89 Z M184,89 L140,89 L140,129.75 L184,129.75 L184,89 Z M231,89 L187,89 L187,129.75 L231,129.75 L231,89 Z M278,89 L234,89 L234,129.75 L278,129.75 L278,89 Z M90,45.999 L46,45.999 L46,86 L90,86 L90,45.999 Z M137,45.999 L93,45.999 L93,86 L137,86 L137,45.999 Z M184,45.999 L140,45.999 L140,86 L184,86 L184,45.999 Z M231,45.999 L187,45.999 L187,86 L231,86 L231,45.999 Z M278,45.999 L234,45.999 L234,86 L278,86 L278,45.999 Z M90,2 L46,2 L46,42.999 L90,42.999 L90,2 Z M137,2 L93,2 L93,42.999 L137,42.999 L137,2 Z M184,2 L140,2 L140,42.999 L184,42.999 L184,2 Z M231,2 L187,2 L187,42.999 L231,42.999 L231,2 Z M278,2 L234,2 L234,42.999 L278,42.999 L278,2 Z" id="Pattern" fill="#010101"/></g></g></g><g mask="url(#bodyselfie-mask-2)"><g transform="translate(184.000000, 1.063454) scale(1 1)" id="Patterns"><g id="Patterns/Pattern 2" stroke="none" stroke-width="1" fill="none" fill-rule="evenodd"><path d="M134.250169,148.207855 C134.66839,148.931953 134.591989,149.839803 134.058632,150.48382 L118.805286,168.901884 L147.241996,165.063971 C148.328866,164.917283 149.331128,165.673243 149.488737,166.758583 L152.957701,190.646875 L165.3222,161.566836 C165.901199,160.205089 167.707211,159.921832 168.675309,161.04093 L187.164849,182.414383 L189.641285,154.190323 C189.737797,153.090371 190.707443,152.276743 191.807443,152.372702 L214.725866,154.372014 L197.341494,136.888582 C196.925929,136.470649 196.715859,135.890699 196.767374,135.303579 L199.515072,103.987945 L174.415746,118.100563 C173.675931,118.516539 172.754134,118.420264 172.116239,117.860397 L148.480175,97.1155274 L152.984051,126.890854 C153.177684,128.17097 152.122514,129.294924 150.832734,129.182408 L121.798631,126.649589 L134.250169,148.207855 Z M217.814177,154.641426 L219.484263,156.321028 L219.271324,156.776137 L216.911689,156.570292 L214.725866,154.372014 L217.814177,154.641426 Z M169.003274,163.131987 L167.978728,163.292678 L167.162737,162.349412 L166.674709,163.497202 L165.650164,163.657893 L166.291275,164.399001 L152.004515,198 L147.509497,167.046001 L114,171.568555 L132.518287,149.208148 L118.145395,124.323299 L148.956747,127.011159 L149.029041,127.489097 L149.438293,127.053167 L151.006546,127.189975 L150.771106,125.633472 L151.180358,125.197542 L150.698813,125.155534 L145.683639,92 L173.435527,116.357241 L201.838713,100.386959 L198.759719,135.478392 L220,156.839704 L191.633631,154.365135 L188.744125,187.296965 L168.619839,164.033786 L169.003274,163.131987 Z M192.536842,71.7476361 C192.803386,72.2278117 192.860748,72.7964662 192.69547,73.3202007 L186.032533,94.4338401 L212.997441,89.4140616 C214.104509,89.2079702 215.163399,89.9560854 215.339004,91.0683963 L219.047229,114.556892 L236.140028,95.6680091 C236.646732,95.1080613 237.425628,94.8812648 238.153728,95.0816659 L264.095041,102.221706 L256.594325,82.2074947 C256.2898,81.3949299 256.543999,80.4786965 257.223645,79.9391791 L274.007978,66.6154054 L252.221901,58.2891423 C251.21775,57.9053728 250.696577,56.7964806 251.041899,55.7784665 L259.97679,29.4382597 L230.643008,35.2020307 C230.071172,35.3143904 229.478769,35.1717437 229.020756,34.8114027 L206.531807,17.1182722 L206.531807,44.8474979 C206.531807,45.8673502 205.764434,46.7238585 204.750709,46.8354823 L180.208278,49.5379103 L192.536842,71.7476361 Z M213.729503,93.3465018 L213.666905,93.3022759 L213.363472,91.3802817 L211.450537,91.7363929 L211.387939,91.6921671 L211.396509,91.7464507 L183.122349,97.0099592 L190.788188,72.7183099 L177,47.8790935 L204.531807,44.8474979 L204.531807,13 L230.257403,33.2395556 L262.980305,26.8098592 L252.935899,56.4209326 L278,66 L258.467125,81.5056263 L267.343359,105.190141 L237.622988,97.0099592 L217.72391,119 L213.675475,93.3565596 L213.729503,93.3465018 Z M247.839382,198.909336 C248.132634,198.505269 248.566413,198.225496 249.055462,198.125003 L266.493002,194.541828 L254.021152,183.441962 C253.282053,182.784168 253.135015,181.684806 253.675272,180.855901 L262.364095,167.524814 L241.651462,165.835335 C240.984409,165.780925 240.388783,165.396469 240.064504,164.81101 L230.952472,148.359951 L221.2747,168.01311 C221.012722,168.545121 220.52816,168.933441 219.951852,169.073217 L202.825547,173.226984 L214.965672,183.463506 C215.432656,183.857266 215.694094,184.442844 215.675497,185.053397 L215.060795,205.234029 L229.397862,197.332406 C230.44851,196.75336 231.769014,197.223111 232.21792,198.335603 L237.948626,212.53761 L247.839382,198.909336 Z M231.328582,200.835593 L231.026678,200.728194 L230.363222,199.083999 L228.810429,199.939794 L228.508525,199.832396 L228.598903,200.056373 L212.954956,208.67826 L213.676424,184.992506 L198.52056,172.21312 L219.480444,167.129567 L230.848333,144.044202 L241.814057,163.841955 L265.87274,165.804363 L255.350802,181.947963 L270.800855,195.698411 L249.458023,200.08407 L237.445597,216.635752 L231.117056,200.952172 L231.328582,200.835593 Z M111.874881,2.72196981 L107.984589,32.0098845 C107.904289,32.6144242 107.55255,33.149293 107.029299,33.462541 L83.1780966,47.7412224 L119.450295,56.7947903 C120.340985,57.0171071 120.965953,57.817242 120.965953,58.7352575 L120.965953,84.033896 L137.405099,62.2699065 C137.986161,61.5006312 139.03332,61.2553567 139.89557,61.6865671 L167.523847,75.5034429 L151.236235,42.9615123 C151.007769,42.5050456 150.962482,41.9784973 151.109652,41.4897234 L161.199393,7.98023586 L135.111364,27.174535 C134.265658,27.7967641 133.082775,27.6590993 132.402568,26.8592833 L111.874881,2.72196981 Z M106.002003,31.746539 L110.48453,-2 L133.926105,25.5635845 L164.842887,2.81652482 L153.024724,42.0663533 L172,79.9781194 L139.001001,63.4753506 L118.965953,90 L118.965953,58.7352575 L78,48.5101249 L106.002003,31.746539 Z M66.3882305,195.332239 C66.8502284,195.726595 67.1079723,196.309538 67.0887678,196.916654 L66.5244841,214.755498 L84.4387211,198.146341 C85.1104813,197.52352 86.1195067,197.436705 86.8877803,197.935628 L100.173411,206.563417 L94.2470652,190.491033 C93.9109838,189.579573 94.278466,188.55842 95.1182761,188.070127 L112.032002,178.235948 L88.6185601,175.499891 C88.1166928,175.441243 87.6556236,175.194809 87.3280212,174.810119 L72.6640337,157.590773 L73.9765467,178.177522 C74.0438795,179.233636 73.276845,180.159406 72.2266244,180.289585 L51.7403091,182.828947 L66.3882305,195.332239 Z M114.915631,176.559315 L117.567122,176.869164 L117.65288,177.281284 L115.345085,178.623109 L112.032002,178.235948 L114.915631,176.559315 Z M65.0897677,196.853421 L46.9887594,181.402615 L71.9805991,178.304774 L70.2852145,151.71269 L88.8506972,173.513408 L118.228714,176.946476 L96.1235642,189.799114 L104.132344,211.519104 L85.7985022,199.612969 L64.3741467,219.476525 L65.0897677,196.853421 Z M3.20754849,87.1187964 L18.1308539,114.015592 C18.397189,114.495617 18.4545059,115.064014 18.2893694,115.587548 L10.183856,141.284564 L42.837927,135.202825 C43.9450989,134.996617 45.004136,135.744826 45.1796796,136.857272 L49.7082278,165.555357 L70.5440379,142.519293 C71.0507824,141.959036 71.8299624,141.732109 72.5582853,141.932666 L104.090844,150.615725 L94.9197148,126.132794 C94.6154156,125.320448 94.8694844,124.404552 95.5487837,123.865055 L116.009355,107.615341 L89.5065786,97.4816587 C88.5027049,97.0978145 87.9816766,95.9892099 88.3267775,94.971367 L99.1517496,63.0441199 L63.6619026,70.0207804 C63.0898578,70.133234 62.4972203,69.9904868 62.0391149,69.6299034 L34.7110574,48.1194734 L34.7110574,81.8564598 C34.7110574,82.8762728 33.9437418,83.7327614 32.9300614,83.8444329 L3.20754849,87.1187964 Z M43.5703225,139.135203 L43.5073705,139.090728 L43.2041248,137.169014 L41.2915219,137.525232 L41.2285699,137.480756 L41.2371851,137.535352 L7.27407855,143.860895 L16.3820052,114.985915 L-2.84217094e-14,85.4600546 L32.7110574,81.8564598 L32.7110574,44 L63.2761223,68.0583396 L102.154818,60.415493 L90.22087,95.6135614 L120,107 L96.7926237,125.431216 L107.338644,153.584507 L72.0273126,143.860895 L48.3848434,170 L43.5159857,139.145323 L43.5703225,139.135203 Z" id="Pattern" fill="#010101"/></g></g></g><mask id="bodyselfie-mask-4" fill="#ffffff"><use xlink:href="#bodyselfie-path-3" fill="#ffffff"/></mask><use id="Tshirt-detail" fill="#2F6858" xlink:href="#bodyselfie-path-3"/></g><g id="Phone" transform="translate(36.179261, 21.763091)"><path d="M8.07553868,47.7252093 L71.6355387,50.3422093 C75.4635387,50.4992093 78.6035387,53.4302093 79.0235387,57.2402093 L90.7995387,164.051209 C91.2915387,168.516209 87.8995387,172.463209 83.4115387,172.648209 L26.6025387,174.991209 C24.6545387,175.071209 22.9385387,173.717209 22.5655387,171.803209 L19.2784304,154.969444 C21.8214979,151.715092 28.6265633,142.753451 37.2021387,129.438309 C47.9262787,112.787129 48.7717443,107.700126 46.741004,102.678756 L46.6131387,102.371309 C44.6791387,97.8463093 34.3221387,105.823309 34.3221387,105.823309 C39.2181387,98.6233093 42.3871387,92.8643093 42.0981387,88.8323093 C41.5481387,81.1683093 29.5191387,88.5543093 29.5191387,88.5543093 C31.8831387,86.0593093 35.1511387,77.8053093 31.5131387,74.1663093 C27.8611387,70.5143093 18.0721387,79.5143093 18.0721387,79.5143093 C18.0721387,79.5143093 37.6381387,54.2243093 10.2201387,64.9983093 C7.57683585,66.0372873 4.94426225,67.1273789 2.35341496,68.2624244 L0.146538683,56.9572093 C-0.813461317,52.0412093 3.07053868,47.5192093 8.07553868,47.7252093 Z" fill="#010101"/><path d="M40.0563003,3.47647157 C38.5065522,5.52196701 36.4156027,8.59476071 33.9224503,12.4506224 C33.6190628,12.9198358 33.3108059,13.3989883 32.9980327,13.8874506 C31.1322058,16.8013396 29.1827172,19.9245801 27.2667218,23.0479848 C26.5960482,24.1412991 25.977509,25.1564715 25.4257124,26.0674046 C25.2326523,26.3861177 25.0617493,26.6689952 24.9148286,26.9127759 C24.766234,27.159566 24.766234,27.159566 24.7354367,27.2108966 C24.3642332,27.8295829 23.4799658,27.863535 23.0624153,27.2751334 C23.0314524,27.2315012 22.9698127,27.1452529 22.8790733,27.0192355 C22.7270638,26.808127 22.5491017,26.5629333 22.3467651,26.2865026 C21.7678438,25.4955846 21.1103078,24.6138149 20.3868061,23.664 C18.3200096,20.9507045 16.1403793,18.2377119 13.9500757,15.7082511 C12.4395068,13.9637784 10.976054,12.3684098 9.57887534,10.9556028 C7.46561908,8.81870846 5.54831359,7.14444248 3.88302217,6.01628165 C2.57582211,5.13060153 2.07830868,5.48810658 1.68255088,7.65076504 C1.28174864,9.84098938 1.35591699,13.3128042 1.81742823,17.6766849 C2.02667016,19.6551996 2.30902432,21.7554505 2.64636778,23.9175979 C2.91502319,25.6395005 3.20294066,27.3022078 3.49079684,28.8428188 C3.59147927,29.3816728 3.68492037,29.8665716 3.76870473,30.2896764 C3.81879234,30.542615 3.85440109,30.7181337 3.87311588,30.8084019 C3.98523378,31.3491865 3.63773073,31.8784686 3.09694609,31.9905865 C2.55616146,32.1027044 2.02687938,31.7552013 1.91476148,31.2144167 C1.89486324,31.1184404 1.85807254,30.9370958 1.80680093,30.6781779 C1.72165325,30.2481885 1.62685579,29.7562511 1.52481977,29.2101527 C1.23348039,27.6508995 0.942202292,25.9687848 0.670275169,24.2259126 C0.328158431,22.0331717 0.0415079307,19.9009632 -0.171480162,17.887026 C-0.651829649,13.3450178 -0.729276284,9.71974709 -0.284779848,7.29075143 C0.337025593,3.89283282 2.26732497,2.50575111 5.00480734,4.36050448 C6.79446185,5.57291577 8.8036584,7.3274246 11.0009323,9.54927641 C12.4314698,10.9958153 13.9242059,12.6231069 15.4620146,14.3990372 C17.6824418,16.9632862 19.8874282,19.7078397 21.9778042,22.4520903 C22.6439526,23.3266116 23.2550415,24.1444153 23.8016179,24.888379 C24.3331379,24.0115099 24.9240471,23.0420507 25.5619208,22.0022059 C27.4841497,18.8686396 29.4401859,15.7349092 31.3137362,12.8089586 C31.6280747,12.3180516 31.9379278,11.8364179 32.2429491,11.3646778 C34.7609595,7.47037128 36.8754715,4.36295089 38.4621649,2.26869169 C39.386243,1.04901104 40.1250569,0.180361367 40.6899305,-0.32962095 C41.0840282,-0.685422405 41.4210299,-0.904029056 41.8046656,-0.976706519 C42.5742924,-1.12250765 43.1533846,-0.60649003 43.2643172,0.1133962 C43.4934164,1.6029833 43.2951016,6.46299968 42.7912529,13.872229 C42.7126651,15.0278836 42.627705,16.2266238 42.5373122,17.4594409 C42.3579344,19.9058734 42.1657681,22.3719698 41.9736014,24.7349029 C41.9456108,25.0790828 41.9184516,25.4108065 41.892239,25.7289664 C42.2745707,25.4722701 42.6781046,25.20292 43.1004122,24.9228338 C45.344165,23.4347141 47.6596014,21.9464888 49.9224441,20.5564745 C50.6847776,20.0881899 51.4298702,19.6381231 52.1549003,19.2085207 C55.7545964,17.0755912 58.7202123,15.5261448 60.865422,14.7222646 C62.1960576,14.223632 63.2215063,14.0022548 64.0038458,14.1122303 C65.2286477,14.284404 65.8151982,15.2639996 65.5371372,16.5427368 C65.1442056,18.3511325 64.6058003,21.1393648 63.9594313,24.6728371 C63.8823842,25.0940264 63.8040878,25.5242724 63.7246338,25.9629954 C63.2579104,28.5401141 62.7705129,31.3018925 62.2916136,34.0637517 C62.2456732,34.3286948 62.2007123,34.5884498 62.1568058,34.8425424 C63.2711958,33.8363013 64.4168822,32.8375041 65.5505776,31.8957275 C66.1275874,31.4163974 66.6899489,30.9616573 67.2344623,30.5352479 C69.0807768,29.0893958 70.6630901,28.0127499 71.9263051,27.3890428 C73.7793648,26.4741022 75.238317,26.4031757 75.847998,27.8657517 C76.4329721,29.269509 76.305298,31.6511987 75.6871936,34.8824935 C75.4996318,35.8630192 75.2700345,36.8945246 75.0076383,37.9570352 C74.7450377,39.0203737 74.463918,40.0579696 74.1827202,41.028681 C74.0842042,41.3687639 73.9926386,41.6764411 73.9103311,41.9465274 C73.8606094,42.1096855 73.8247822,42.2248048 73.8051586,42.2866869 C73.6382153,42.8131358 73.0761098,43.1045725 72.549661,42.9376292 C72.0232122,42.7706859 71.7317754,42.2085804 71.8987188,41.6821316 C71.9161223,41.6272504 71.9497208,41.5192924 71.9971952,41.3635084 C72.0768811,41.1020246 72.1658225,40.8031654 72.2616987,40.4721953 C72.535907,39.525612 72.8101934,38.5132374 73.0659718,37.4775238 C73.3203483,36.4474869 73.5423835,35.4499559 73.7228098,34.5067326 C74.2429905,31.7873584 74.3693523,29.7177704 74.0460706,28.7532927 C73.7833443,28.7712562 73.3564343,28.9134246 72.8117485,29.1823609 C71.6988325,29.7318586 70.2146327,30.7417456 68.4675603,32.109881 C67.9388666,32.5239019 67.3913502,32.9666378 66.8285667,33.43415 C65.5478451,34.4980634 64.2475202,35.6397385 62.9963369,36.7815915 C62.5583232,37.1813309 62.1579061,37.5523874 61.8035823,37.885123 C61.5917305,38.0840671 61.4428613,38.225506 61.3654485,38.2998177 C60.6701124,38.9672996 59.5258908,38.3615475 59.6870088,37.41125 C59.7183383,37.2264637 59.7772744,36.8804227 59.8601792,36.3961542 C59.9983141,35.5892721 60.1531396,34.690232 60.3210188,33.7220557 C60.8007053,30.9556566 61.2889326,28.1891766 61.7566467,25.6065874 C61.8363067,25.1667269 61.9148136,24.7353242 61.9920767,24.312954 C62.6421518,20.7592214 63.1839129,17.953611 63.5827742,16.1179252 C63.5854047,16.1058278 63.5878024,16.0944572 63.590002,16.0837989 C63.191888,16.081343 62.4904363,16.249132 61.56723,16.5950875 C59.5601184,17.3472178 56.6799577,18.8520165 53.174426,20.9291507 C52.4588469,21.353153 51.7228154,21.7977465 50.9692707,22.2606324 C48.7281473,23.637305 46.4316037,25.1133871 44.2058416,26.5895749 C43.4267452,27.1062934 42.7122877,27.5860229 42.0781685,28.0163869 C41.6983292,28.2741763 41.4301399,28.4579032 41.2892819,28.5552008 C40.5933966,29.0358836 39.6521332,28.4893552 39.724618,27.6467056 C39.7373583,27.4985976 39.7612959,27.2171062 39.7948306,26.8176139 C39.85075,26.1514582 39.9130674,25.3980539 39.9801827,24.5727871 C40.171946,22.2148137 40.3637097,19.7538833 40.5426667,17.3131892 C40.6328109,16.0837628 40.7175231,14.8885198 40.7958613,13.7365367 C41.1700817,8.23352608 41.3748337,4.06024719 41.3605439,1.85328415 C40.9936645,2.2724939 40.5559574,2.8169797 40.0563003,3.47647157 Z" id="Stroke-25" fill="#F3705A"/></g></g></g></g></g></svg>