<svg viewBox="105.59615384615381 124.5 422.3846153846155 460.65000000000015" xmlns="http://www.w3.org/2000/svg" xmlns:xlink="http://www.w3.org/1999/xlink" overflow="visible" width="422.3846153846155px" height="460.65000000000015px"><defs><path d="M109.349893,53.900161 C113.481551,52.981688 144.970514,5.75600247 146.214144,3.88880036 C163.157042,7.1710553 179.732671,12.3563028 194.5425,20.2265561 L194.534447,20.342795 C194.273846,24.1150757 187.81006,118.481216 192.9335,124.393556 L192.941093,124.461309 C193.187039,126.661869 199.30416,181.841416 196.1515,198.396556 C192.9335,215.288556 179.5055,194.246556 179.5055,194.246556 L179.493372,194.278417 C179.199722,195.046486 173.626713,209.436596 168.5975,208.598556 C163.4305,207.737556 153.3835,197.403556 153.3835,197.403556 L153.374748,197.427811 C153.092349,198.206414 146.00353,217.45697 136.1595,215.488556 C126.1125,213.478556 123.8155,199.700556 123.8155,199.700556 C123.8155,199.700556 117.2135,215.488556 106.8795,214.914556 C96.5455,214.339556 94.5365,201.708556 94.5365,201.708556 C94.5365,201.708556 89.6555,215.488556 82.1925,216.349556 C74.7285,217.210556 64.3945,208.598556 59.2275,197.977556 C59.2275,197.977556 50.9025,219.219556 42.2905,213.191556 C41.3568107,212.537941 40.5007296,211.820191 39.716404,211.0599 C38.9866857,200.963205 35.9000145,191.098032 30.4518,182.371756 C26.2618,175.660756 20.3978,169.075756 12.1968,163.637756 C8.56443049,161.228971 4.79906388,158.622963 0.984865847,155.901702 C7.45275655,123.762488 15.5945,89.4685561 15.5945,89.4685561 C15.5945,89.4685561 15.7187488,88.7027664 15.9150545,87.2866042 L15.9209033,87.2444839 C15.9621048,86.9466774 16.0064153,86.6206568 16.0533622,86.2674675 L16.061829,86.2036969 C16.1839431,85.2828267 16.3234572,84.1811093 16.4722231,82.9165641 L16.4762129,82.8821812 C16.5146429,82.5550785 16.5536843,82.2171401 16.593197,81.8686756 L16.6018125,81.7932123 C16.7332875,80.6308248 16.8698493,79.3525911 17.0063666,77.9698586 L17.0193919,77.8362484 C17.0468205,77.5570243 17.0742406,77.2735942 17.1016106,76.9860501 C17.128757,76.7024642 17.1557798,76.4140875 17.1827134,76.121777 C17.1986225,75.9473205 17.2146122,75.7720128 17.2305619,75.5953311 C17.2689523,75.1720346 17.3069484,74.7407762 17.3445977,74.301888 L17.384953,73.8245171 C17.40566,73.5783419 17.4262475,73.3298533 17.4466958,73.0790951 C17.854834,68.0780381 18.2074801,62.1723804 18.3471595,55.7119559 C18.3506244,55.5268887 18.3544335,55.3420453 18.3580655,55.1567582 C18.5346699,46.1832394 18.2952384,36.1692225 17.2242013,26.0345559 L17.2229827,26.0342045 C16.5169108,19.3418341 15.4469567,12.5964969 13.8945,6.06355607 C13.8945,6.06355607 33.2123494,1.99203002 60.8377697,0.000117687701 C62.7598027,2.37434943 105.22942,54.8149529 109.349893,53.900161 Z" id="mastercharacterbust-path-1"/></defs><g id="Master/Character/Bust" stroke="none" stroke-width="1" fill="none" fill-rule="evenodd"><g id="Head" transform="translate(210.000000, 86.000000) scale(1 1)"><g id="Head/Bald" stroke="none" stroke-width="1" fill="none" fill-rule="evenodd"><g id="Shaved" transform="translate(38.000000, 51.000000)" fill="#f7d3bb"><path d="M69.7059,0.0007 C38.1519,0.0007 12.5729,22.7597 12.5729,50.8347 C12.5729,56.5827 13.6609,62.1007 15.6369,67.2527 C15.4429,67.2477 15.2519,67.2287 15.0559,67.2287 C6.7409,67.2287 -0.0001,72.7737 -0.0001,79.6147 C-0.0001,86.4557 6.7409,92.0007 15.0559,92.0007 C19.6519,92.0007 23.7619,90.3017 26.5209,87.6297 C27.5179,86.6657 29.0589,86.5617 30.1129,87.4637 C37.8329,94.0747 47.6299,98.7767 58.5539,100.7007 C59.9579,100.9477 60.9499,102.2117 60.8679,103.6347 L59.3079,131 L85.7469,131 L84.5229,109.4997 C84.2259,104.3107 87.2629,99.4527 92.1209,97.6077 C112.5329,89.8537 126.8389,71.8307 126.8389,50.8347 C126.8389,22.7597 101.2599,0.0007 69.7059,0.0007 Z" id="Skin"/></g></g></g><g id="Face" transform="translate(299.000000, 177.000000) scale(1 1)"><g id="Face/Santa" stroke="none" stroke-width="1" fill="none" fill-rule="evenodd"><g id="Santa" transform="translate(0.000000, -0.000000)"><path d="M77.5817,22.2237 C77.2573,19.0313 74.4078,16.7062 71.2163,17.0304 L55.2522,18.6494 C52.0607,18.9729 49.7359,21.8228 50.0594,25.0148 C50.3828,28.2067 53.2329,30.532 56.4246,30.2077 L72.3885,28.5887 C75.5802,28.2644 77.9051,25.4144 77.5817,22.2237 Z" id="Path-Copy-2" fill="#F4F0F0"/><path d="M77.5817,22.2237 C77.2573,19.0313 74.4078,16.7062 71.2163,17.0304 L55.2522,18.6494 C52.0607,18.9729 49.7358,21.8228 50.0593,25.0148 C50.3828,28.2067 53.2329,30.532 56.4246,30.2077 L72.3885,28.5888 C75.5802,28.2644 77.9051,25.4145 77.5817,22.2237 Z M72.6916,31.5734 L56.7276,33.1924 C51.8874,33.6841 47.5652,30.1578 47.0746,25.3173 C46.5841,20.477 50.1097,16.1552 54.9496,15.6647 L70.9134,14.0458 C75.7532,13.5541 80.0745,17.08 80.5663,21.9208 C81.0569,26.7601 77.5314,31.0817 72.6916,31.5734 Z" id="Stroke-8-Copy" fill="#010101"/><path d="M71.0646,15.5377 L66.1946,16.3357 L64.9216,30.7527 L72.5396,30.0807 C76.5556,29.6737 79.4816,26.0877 79.0736,22.0717 C78.6666,18.0557 75.0806,15.1307 71.0646,15.5377 Z" id="Fill-10-Copy" fill="#010101"/><path d="M35.3729,30.0146 C38.5718,30.2554 41.3608,27.8574 41.6024,24.6587 C41.8432,21.4597 39.4453,18.6707 36.2464,18.4291 L20.2455,17.2231 C17.0463,16.9822 14.2577,19.3803 14.0169,22.5799 C13.7761,25.779 16.174,28.5677 19.3729,28.8086 L35.3729,30.0146 Z" id="Path-Copy" fill="#F4F0F0"/><path d="M35.3728,30.0146 C38.5717,30.2554 41.3607,27.8574 41.6023,24.6587 C41.8431,21.4597 39.4452,18.6707 36.2463,18.4291 L20.2454,17.2231 C17.0462,16.9823 14.2576,19.3803 14.0168,22.5799 C13.776,25.779 16.1739,28.5678 19.3728,28.8086 L35.3728,30.0146 Z M35.1474,33.0061 L19.1474,31.8001 C14.2964,31.4349 10.6601,27.2059 11.0253,22.3548 C11.3904,17.5029 15.6193,13.8663 20.4708,14.2316 L36.472,15.4376 C41.3229,15.804 44.959,20.033 44.5938,24.8843 C44.2274,29.7352 39.9984,33.3713 35.1474,33.0061 Z" id="Stroke-12-Copy" fill="#010101"/><path d="M36.3587,16.9337 L28.4707,16.3387 L28.6297,30.9347 L35.2597,31.5107 C39.2857,31.8137 42.7947,28.7967 43.0977,24.7707 C43.4007,20.7467 40.3837,17.2367 36.3587,16.9337 Z" id="Fill-14-Copy" fill="#010101"/><g id="Moustache" transform="translate(13.000000, 32.000000)"><path d="M8.1962,15.8133 C4.6524,10.7955 10.6949,8.7751 14.2322,7.0166 C15.4017,-0.592 22.1271,1.9264 25.8462,4.1207 C27.7585,-1.0449 34.491,-0.339 36.5232,3.9857 C40.2555,-1.1241 45.1963,1.7666 47.2001,3.8508 C51.9454,3.7908 53.1651,6.4122 53.1818,7.7304 C58.8721,7.3421 58.229,10.6988 57.1961,12.4258 C62.6061,14.8886 60.8417,19.2351 59.2833,21.1005 C64.7093,24.8288 59.5284,30.0622 56.2597,32.2129 C62.3224,36.2495 55.1816,40.7958 50.8534,42.5644 C54.7216,48.2108 48.0501,50.2462 44.2308,50.5582 C41.8039,58.8154 33.4787,55.1765 29.6194,52.3249 C24.9341,57.1301 18.6772,52.3313 16.1344,49.3312 C12.3861,53.1754 6.6438,49.4511 6.5638,43.1241 C1.1938,43.8247 2.1007,34.2157 3.2254,29.3235 C-3.1737,23.7091 3.873,17.9774 8.1962,15.8133 Z" id="Vector-120" fill="#F4F0F0" fill-rule="nonzero"/><path d="M25,11.9999 C27.9333,15.0184 35.24,19.2443 41,11.9999" id="Vector-121" stroke="#000" stroke-width="2.5" stroke-linecap="round"/></g></g></g></g><g id="Body" transform="translate(25.000000, 48.000000) scale(1 1)"><defs><path d="M340.9275,43.6191 C340.4445,42.9811 339.9625,42.4641 339.4845,42.0831 C324.4345,30.0941 258.3685,18.6151 258.3685,18.6151 C258.3685,18.6151 255.5625,6.8811 251.9905,3.3091 C248.4205,-0.2609 194.9805,0.1721 192.6435,1.3401 C190.3065,2.5091 187.1905,15.3611 187.1905,15.3611 C173.2465,16.0251 160.8435,19.4071 147.7565,23.0701 C127.3275,26.8031 97.9925,37.3101 75.3955,66.3031 C36.8185,115.7971 -4.6685,201.6831 0.4265,243.8991 C5.5215,286.1151 57.7325,304.2921 108.8765,241.7161 C120.2725,227.7721 127.765962,218.629249 135.641962,207.822249 C133.650425,211.536328 131.8171,220.740781 135.641962,221.314679 C185.492568,228.794479 256.57517,225.837481 297.165356,221.314679 C300.548356,284.846679 319.8295,302.8301 336.6955,314.9341 C350.1475,324.5901 368.0355,324.8731 382.1145,316.1591 C395.8835,307.6361 412.0075,290.7931 412.2885,258.5841 C412.7785,202.2201 398.0745,156.6381 381.9005,97.8241 C374.2635,70.0531 357.0125,53.4321 340.9275,43.6191 Z" id="bodyphone-path-1"/></defs><g id="Body/Phone" stroke="none" stroke-width="1" fill="none" fill-rule="evenodd"><g id="Body" transform="translate(86.000000, 200.000000)"><g id="Jumper" transform="translate(0.000000, 2.000000)"><mask id="bodyphone-mask-2" fill="#ffffff"><use xlink:href="#bodyphone-path-1" fill="#ffffff"/></mask><use fill="#2F6858" xlink:href="#bodyphone-path-1"/><g mask="url(#bodyphone-mask-2)"><g transform="translate(-7.000000, 119.000000) scale(1 1)" id="Patterns"><g id="Patterns/Pattern 2" stroke="none" stroke-width="1" fill="none" fill-rule="evenodd"><path d="M134.250169,148.207855 C134.66839,148.931953 134.591989,149.839803 134.058632,150.48382 L118.805286,168.901884 L147.241996,165.063971 C148.328866,164.917283 149.331128,165.673243 149.488737,166.758583 L152.957701,190.646875 L165.3222,161.566836 C165.901199,160.205089 167.707211,159.921832 168.675309,161.04093 L187.164849,182.414383 L189.641285,154.190323 C189.737797,153.090371 190.707443,152.276743 191.807443,152.372702 L214.725866,154.372014 L197.341494,136.888582 C196.925929,136.470649 196.715859,135.890699 196.767374,135.303579 L199.515072,103.987945 L174.415746,118.100563 C173.675931,118.516539 172.754134,118.420264 172.116239,117.860397 L148.480175,97.1155274 L152.984051,126.890854 C153.177684,128.17097 152.122514,129.294924 150.832734,129.182408 L121.798631,126.649589 L134.250169,148.207855 Z M217.814177,154.641426 L219.484263,156.321028 L219.271324,156.776137 L216.911689,156.570292 L214.725866,154.372014 L217.814177,154.641426 Z M169.003274,163.131987 L167.978728,163.292678 L167.162737,162.349412 L166.674709,163.497202 L165.650164,163.657893 L166.291275,164.399001 L152.004515,198 L147.509497,167.046001 L114,171.568555 L132.518287,149.208148 L118.145395,124.323299 L148.956747,127.011159 L149.029041,127.489097 L149.438293,127.053167 L151.006546,127.189975 L150.771106,125.633472 L151.180358,125.197542 L150.698813,125.155534 L145.683639,92 L173.435527,116.357241 L201.838713,100.386959 L198.759719,135.478392 L220,156.839704 L191.633631,154.365135 L188.744125,187.296965 L168.619839,164.033786 L169.003274,163.131987 Z M192.536842,71.7476361 C192.803386,72.2278117 192.860748,72.7964662 192.69547,73.3202007 L186.032533,94.4338401 L212.997441,89.4140616 C214.104509,89.2079702 215.163399,89.9560854 215.339004,91.0683963 L219.047229,114.556892 L236.140028,95.6680091 C236.646732,95.1080613 237.425628,94.8812648 238.153728,95.0816659 L264.095041,102.221706 L256.594325,82.2074947 C256.2898,81.3949299 256.543999,80.4786965 257.223645,79.9391791 L274.007978,66.6154054 L252.221901,58.2891423 C251.21775,57.9053728 250.696577,56.7964806 251.041899,55.7784665 L259.97679,29.4382597 L230.643008,35.2020307 C230.071172,35.3143904 229.478769,35.1717437 229.020756,34.8114027 L206.531807,17.1182722 L206.531807,44.8474979 C206.531807,45.8673502 205.764434,46.7238585 204.750709,46.8354823 L180.208278,49.5379103 L192.536842,71.7476361 Z M213.729503,93.3465018 L213.666905,93.3022759 L213.363472,91.3802817 L211.450537,91.7363929 L211.387939,91.6921671 L211.396509,91.7464507 L183.122349,97.0099592 L190.788188,72.7183099 L177,47.8790935 L204.531807,44.8474979 L204.531807,13 L230.257403,33.2395556 L262.980305,26.8098592 L252.935899,56.4209326 L278,66 L258.467125,81.5056263 L267.343359,105.190141 L237.622988,97.0099592 L217.72391,119 L213.675475,93.3565596 L213.729503,93.3465018 Z M247.839382,198.909336 C248.132634,198.505269 248.566413,198.225496 249.055462,198.125003 L266.493002,194.541828 L254.021152,183.441962 C253.282053,182.784168 253.135015,181.684806 253.675272,180.855901 L262.364095,167.524814 L241.651462,165.835335 C240.984409,165.780925 240.388783,165.396469 240.064504,164.81101 L230.952472,148.359951 L221.2747,168.01311 C221.012722,168.545121 220.52816,168.933441 219.951852,169.073217 L202.825547,173.226984 L214.965672,183.463506 C215.432656,183.857266 215.694094,184.442844 215.675497,185.053397 L215.060795,205.234029 L229.397862,197.332406 C230.44851,196.75336 231.769014,197.223111 232.21792,198.335603 L237.948626,212.53761 L247.839382,198.909336 Z M231.328582,200.835593 L231.026678,200.728194 L230.363222,199.083999 L228.810429,199.939794 L228.508525,199.832396 L228.598903,200.056373 L212.954956,208.67826 L213.676424,184.992506 L198.52056,172.21312 L219.480444,167.129567 L230.848333,144.044202 L241.814057,163.841955 L265.87274,165.804363 L255.350802,181.947963 L270.800855,195.698411 L249.458023,200.08407 L237.445597,216.635752 L231.117056,200.952172 L231.328582,200.835593 Z M111.874881,2.72196981 L107.984589,32.0098845 C107.904289,32.6144242 107.55255,33.149293 107.029299,33.462541 L83.1780966,47.7412224 L119.450295,56.7947903 C120.340985,57.0171071 120.965953,57.817242 120.965953,58.7352575 L120.965953,84.033896 L137.405099,62.2699065 C137.986161,61.5006312 139.03332,61.2553567 139.89557,61.6865671 L167.523847,75.5034429 L151.236235,42.9615123 C151.007769,42.5050456 150.962482,41.9784973 151.109652,41.4897234 L161.199393,7.98023586 L135.111364,27.174535 C134.265658,27.7967641 133.082775,27.6590993 132.402568,26.8592833 L111.874881,2.72196981 Z M106.002003,31.746539 L110.48453,-2 L133.926105,25.5635845 L164.842887,2.81652482 L153.024724,42.0663533 L172,79.9781194 L139.001001,63.4753506 L118.965953,90 L118.965953,58.7352575 L78,48.5101249 L106.002003,31.746539 Z M66.3882305,195.332239 C66.8502284,195.726595 67.1079723,196.309538 67.0887678,196.916654 L66.5244841,214.755498 L84.4387211,198.146341 C85.1104813,197.52352 86.1195067,197.436705 86.8877803,197.935628 L100.173411,206.563417 L94.2470652,190.491033 C93.9109838,189.579573 94.278466,188.55842 95.1182761,188.070127 L112.032002,178.235948 L88.6185601,175.499891 C88.1166928,175.441243 87.6556236,175.194809 87.3280212,174.810119 L72.6640337,157.590773 L73.9765467,178.177522 C74.0438795,179.233636 73.276845,180.159406 72.2266244,180.289585 L51.7403091,182.828947 L66.3882305,195.332239 Z M114.915631,176.559315 L117.567122,176.869164 L117.65288,177.281284 L115.345085,178.623109 L112.032002,178.235948 L114.915631,176.559315 Z M65.0897677,196.853421 L46.9887594,181.402615 L71.9805991,178.304774 L70.2852145,151.71269 L88.8506972,173.513408 L118.228714,176.946476 L96.1235642,189.799114 L104.132344,211.519104 L85.7985022,199.612969 L64.3741467,219.476525 L65.0897677,196.853421 Z M3.20754849,87.1187964 L18.1308539,114.015592 C18.397189,114.495617 18.4545059,115.064014 18.2893694,115.587548 L10.183856,141.284564 L42.837927,135.202825 C43.9450989,134.996617 45.004136,135.744826 45.1796796,136.857272 L49.7082278,165.555357 L70.5440379,142.519293 C71.0507824,141.959036 71.8299624,141.732109 72.5582853,141.932666 L104.090844,150.615725 L94.9197148,126.132794 C94.6154156,125.320448 94.8694844,124.404552 95.5487837,123.865055 L116.009355,107.615341 L89.5065786,97.4816587 C88.5027049,97.0978145 87.9816766,95.9892099 88.3267775,94.971367 L99.1517496,63.0441199 L63.6619026,70.0207804 C63.0898578,70.133234 62.4972203,69.9904868 62.0391149,69.6299034 L34.7110574,48.1194734 L34.7110574,81.8564598 C34.7110574,82.8762728 33.9437418,83.7327614 32.9300614,83.8444329 L3.20754849,87.1187964 Z M43.5703225,139.135203 L43.5073705,139.090728 L43.2041248,137.169014 L41.2915219,137.525232 L41.2285699,137.480756 L41.2371851,137.535352 L7.27407855,143.860895 L16.3820052,114.985915 L-2.84217094e-14,85.4600546 L32.7110574,81.8564598 L32.7110574,44 L63.2761223,68.0583396 L102.154818,60.415493 L90.22087,95.6135614 L120,107 L96.7926237,125.431216 L107.338644,153.584507 L72.0273126,143.860895 L48.3848434,170 L43.5159857,139.145323 L43.5703225,139.135203 Z" id="Pattern" fill="#010101"/></g></g></g><g mask="url(#bodyphone-mask-2)"><g transform="translate(-7.000000, -99.000000) scale(1 1)" id="Patterns"><g id="Patterns/Pattern 6" stroke="none" stroke-width="1" fill="none" fill-rule="evenodd"><path d="M280,-1 L280,-5.70654635e-14 L281,-5.70654635e-14 L281,218 L278,218 L278,175.999 L234,175.999 L234,218 L231,218 L231,175.999 L187,175.999 L187,218 L184,218 L184,175.999 L140,175.999 L140,218 L137,218 L137,175.999 L93,175.999 L93,218 L90,218 L90,175.999 L46,175.999 L46,218 L43,218 L43,175.999 L-1.42108547e-14,176 L-1.40271577e-14,173 L43,172.999 L43,132.75 L-1.42108547e-14,132.75 L-1.40271577e-14,129.75 L43,129.75 L43,89 L-1.42108547e-14,89 L-1.40271577e-14,86 L43,86 L43,45.999 L-1.42108547e-14,46 L-1.40271577e-14,43 L43,42.999 L43,2 L-1.42108547e-14,2 L-1.40271577e-14,-1 L280,-1 Z M90,132.75 L46,132.75 L46,172.999 L90,172.999 L90,132.75 Z M137,132.75 L93,132.75 L93,172.999 L137,172.999 L137,132.75 Z M184,132.75 L140,132.75 L140,172.999 L184,172.999 L184,132.75 Z M231,132.75 L187,132.75 L187,172.999 L231,172.999 L231,132.75 Z M278,132.75 L234,132.75 L234,172.999 L278,172.999 L278,132.75 Z M90,89 L46,89 L46,129.75 L90,129.75 L90,89 Z M137,89 L93,89 L93,129.75 L137,129.75 L137,89 Z M184,89 L140,89 L140,129.75 L184,129.75 L184,89 Z M231,89 L187,89 L187,129.75 L231,129.75 L231,89 Z M278,89 L234,89 L234,129.75 L278,129.75 L278,89 Z M90,45.999 L46,45.999 L46,86 L90,86 L90,45.999 Z M137,45.999 L93,45.999 L93,86 L137,86 L137,45.999 Z M184,45.999 L140,45.999 L140,86 L184,86 L184,45.999 Z M231,45.999 L187,45.999 L187,86 L231,86 L231,45.999 Z M278,45.999 L234,45.999 L234,86 L278,86 L278,45.999 Z M90,2 L46,2 L46,42.999 L90,42.999 L90,2 Z M137,2 L93,2 L93,42.999 L137,42.999 L137,2 Z M184,2 L140,2 L140,42.999 L184,42.999 L184,2 Z M231,2 L187,2 L187,42.999 L231,42.999 L231,2 Z M278,2 L234,2 L234,42.999 L278,42.999 L278,2 Z" id="Pattern" fill="#010101"/></g></g></g><g mask="url(#bodyphone-mask-2)"><g transform="translate(272.000000, 119.000000) scale(1 1)" id="Patterns"><g id="Patterns/Pattern 2" stroke="none" stroke-width="1" fill="none" fill-rule="evenodd"><path d="M134.250169,148.207855 C134.66839,148.931953 134.591989,149.839803 134.058632,150.48382 L118.805286,168.901884 L147.241996,165.063971 C148.328866,164.917283 149.331128,165.673243 149.488737,166.758583 L152.957701,190.646875 L165.3222,161.566836 C165.901199,160.205089 167.707211,159.921832 168.675309,161.04093 L187.164849,182.414383 L189.641285,154.190323 C189.737797,153.090371 190.707443,152.276743 191.807443,152.372702 L214.725866,154.372014 L197.341494,136.888582 C196.925929,136.470649 196.715859,135.890699 196.767374,135.303579 L199.515072,103.987945 L174.415746,118.100563 C173.675931,118.516539 172.754134,118.420264 172.116239,117.860397 L148.480175,97.1155274 L152.984051,126.890854 C153.177684,128.17097 152.122514,129.294924 150.832734,129.182408 L121.798631,126.649589 L134.250169,148.207855 Z M217.814177,154.641426 L219.484263,156.321028 L219.271324,156.776137 L216.911689,156.570292 L214.725866,154.372014 L217.814177,154.641426 Z M169.003274,163.131987 L167.978728,163.292678 L167.162737,162.349412 L166.674709,163.497202 L165.650164,163.657893 L166.291275,164.399001 L152.004515,198 L147.509497,167.046001 L114,171.568555 L132.518287,149.208148 L118.145395,124.323299 L148.956747,127.011159 L149.029041,127.489097 L149.438293,127.053167 L151.006546,127.189975 L150.771106,125.633472 L151.180358,125.197542 L150.698813,125.155534 L145.683639,92 L173.435527,116.357241 L201.838713,100.386959 L198.759719,135.478392 L220,156.839704 L191.633631,154.365135 L188.744125,187.296965 L168.619839,164.033786 L169.003274,163.131987 Z M192.536842,71.7476361 C192.803386,72.2278117 192.860748,72.7964662 192.69547,73.3202007 L186.032533,94.4338401 L212.997441,89.4140616 C214.104509,89.2079702 215.163399,89.9560854 215.339004,91.0683963 L219.047229,114.556892 L236.140028,95.6680091 C236.646732,95.1080613 237.425628,94.8812648 238.153728,95.0816659 L264.095041,102.221706 L256.594325,82.2074947 C256.2898,81.3949299 256.543999,80.4786965 257.223645,79.9391791 L274.007978,66.6154054 L252.221901,58.2891423 C251.21775,57.9053728 250.696577,56.7964806 251.041899,55.7784665 L259.97679,29.4382597 L230.643008,35.2020307 C230.071172,35.3143904 229.478769,35.1717437 229.020756,34.8114027 L206.531807,17.1182722 L206.531807,44.8474979 C206.531807,45.8673502 205.764434,46.7238585 204.750709,46.8354823 L180.208278,49.5379103 L192.536842,71.7476361 Z M213.729503,93.3465018 L213.666905,93.3022759 L213.363472,91.3802817 L211.450537,91.7363929 L211.387939,91.6921671 L211.396509,91.7464507 L183.122349,97.0099592 L190.788188,72.7183099 L177,47.8790935 L204.531807,44.8474979 L204.531807,13 L230.257403,33.2395556 L262.980305,26.8098592 L252.935899,56.4209326 L278,66 L258.467125,81.5056263 L267.343359,105.190141 L237.622988,97.0099592 L217.72391,119 L213.675475,93.3565596 L213.729503,93.3465018 Z M247.839382,198.909336 C248.132634,198.505269 248.566413,198.225496 249.055462,198.125003 L266.493002,194.541828 L254.021152,183.441962 C253.282053,182.784168 253.135015,181.684806 253.675272,180.855901 L262.364095,167.524814 L241.651462,165.835335 C240.984409,165.780925 240.388783,165.396469 240.064504,164.81101 L230.952472,148.359951 L221.2747,168.01311 C221.012722,168.545121 220.52816,168.933441 219.951852,169.073217 L202.825547,173.226984 L214.965672,183.463506 C215.432656,183.857266 215.694094,184.442844 215.675497,185.053397 L215.060795,205.234029 L229.397862,197.332406 C230.44851,196.75336 231.769014,197.223111 232.21792,198.335603 L237.948626,212.53761 L247.839382,198.909336 Z M231.328582,200.835593 L231.026678,200.728194 L230.363222,199.083999 L228.810429,199.939794 L228.508525,199.832396 L228.598903,200.056373 L212.954956,208.67826 L213.676424,184.992506 L198.52056,172.21312 L219.480444,167.129567 L230.848333,144.044202 L241.814057,163.841955 L265.87274,165.804363 L255.350802,181.947963 L270.800855,195.698411 L249.458023,200.08407 L237.445597,216.635752 L231.117056,200.952172 L231.328582,200.835593 Z M111.874881,2.72196981 L107.984589,32.0098845 C107.904289,32.6144242 107.55255,33.149293 107.029299,33.462541 L83.1780966,47.7412224 L119.450295,56.7947903 C120.340985,57.0171071 120.965953,57.817242 120.965953,58.7352575 L120.965953,84.033896 L137.405099,62.2699065 C137.986161,61.5006312 139.03332,61.2553567 139.89557,61.6865671 L167.523847,75.5034429 L151.236235,42.9615123 C151.007769,42.5050456 150.962482,41.9784973 151.109652,41.4897234 L161.199393,7.98023586 L135.111364,27.174535 C134.265658,27.7967641 133.082775,27.6590993 132.402568,26.8592833 L111.874881,2.72196981 Z M106.002003,31.746539 L110.48453,-2 L133.926105,25.5635845 L164.842887,2.81652482 L153.024724,42.0663533 L172,79.9781194 L139.001001,63.4753506 L118.965953,90 L118.965953,58.7352575 L78,48.5101249 L106.002003,31.746539 Z M66.3882305,195.332239 C66.8502284,195.726595 67.1079723,196.309538 67.0887678,196.916654 L66.5244841,214.755498 L84.4387211,198.146341 C85.1104813,197.52352 86.1195067,197.436705 86.8877803,197.935628 L100.173411,206.563417 L94.2470652,190.491033 C93.9109838,189.579573 94.278466,188.55842 95.1182761,188.070127 L112.032002,178.235948 L88.6185601,175.499891 C88.1166928,175.441243 87.6556236,175.194809 87.3280212,174.810119 L72.6640337,157.590773 L73.9765467,178.177522 C74.0438795,179.233636 73.276845,180.159406 72.2266244,180.289585 L51.7403091,182.828947 L66.3882305,195.332239 Z M114.915631,176.559315 L117.567122,176.869164 L117.65288,177.281284 L115.345085,178.623109 L112.032002,178.235948 L114.915631,176.559315 Z M65.0897677,196.853421 L46.9887594,181.402615 L71.9805991,178.304774 L70.2852145,151.71269 L88.8506972,173.513408 L118.228714,176.946476 L96.1235642,189.799114 L104.132344,211.519104 L85.7985022,199.612969 L64.3741467,219.476525 L65.0897677,196.853421 Z M3.20754849,87.1187964 L18.1308539,114.015592 C18.397189,114.495617 18.4545059,115.064014 18.2893694,115.587548 L10.183856,141.284564 L42.837927,135.202825 C43.9450989,134.996617 45.004136,135.744826 45.1796796,136.857272 L49.7082278,165.555357 L70.5440379,142.519293 C71.0507824,141.959036 71.8299624,141.732109 72.5582853,141.932666 L104.090844,150.615725 L94.9197148,126.132794 C94.6154156,125.320448 94.8694844,124.404552 95.5487837,123.865055 L116.009355,107.615341 L89.5065786,97.4816587 C88.5027049,97.0978145 87.9816766,95.9892099 88.3267775,94.971367 L99.1517496,63.0441199 L63.6619026,70.0207804 C63.0898578,70.133234 62.4972203,69.9904868 62.0391149,69.6299034 L34.7110574,48.1194734 L34.7110574,81.8564598 C34.7110574,82.8762728 33.9437418,83.7327614 32.9300614,83.8444329 L3.20754849,87.1187964 Z M43.5703225,139.135203 L43.5073705,139.090728 L43.2041248,137.169014 L41.2915219,137.525232 L41.2285699,137.480756 L41.2371851,137.535352 L7.27407855,143.860895 L16.3820052,114.985915 L-2.84217094e-14,85.4600546 L32.7110574,81.8564598 L32.7110574,44 L63.2761223,68.0583396 L102.154818,60.415493 L90.22087,95.6135614 L120,107 L96.7926237,125.431216 L107.338644,153.584507 L72.0273126,143.860895 L48.3848434,170 L43.5159857,139.145323 L43.5703225,139.135203 Z" id="Pattern" fill="#010101"/></g></g></g><g mask="url(#bodyphone-mask-2)"><g transform="translate(272.000000, -99.000000) scale(1 1)" id="Patterns"><g id="Patterns/Pattern 1" stroke="none" stroke-width="1" fill="none" fill-rule="evenodd"><path d="M176.183223,210.972596 C177.478972,210.499975 179.042462,211.526153 179.514007,212.823113 C179.986551,214.118075 179.640885,216.442213 178.345136,216.913835 C177.049387,217.385457 175.292083,215.826706 174.820538,214.531744 C174.348994,213.234783 174.886475,211.444218 176.183223,210.972596 Z M148.992273,213.026151 C149.530753,211.756168 151.071266,211.259566 152.34104,211.799134 C153.610814,212.337702 154.129314,213.707604 153.589835,214.978586 C153.051354,216.247569 151.123216,217.265753 149.853442,216.727184 C148.583667,216.188616 148.452794,214.296133 148.992273,213.026151 Z M258.630828,212.026552 C259.169308,210.75657 260.70982,210.259968 261.979595,210.799535 C263.249369,211.338104 263.767868,212.709005 263.228389,213.978987 C262.689909,215.248969 260.76177,216.266154 259.491996,215.727585 C258.222222,215.189017 258.091348,213.296534 258.630828,212.026552 Z M72.0281744,207.974599 C73.3239235,207.502977 74.8874141,208.528156 75.3589589,209.825116 C75.8305036,211.121077 75.4868354,213.444216 74.1900873,213.916837 C72.8943382,214.38746 71.1370347,212.829708 70.66549,211.533747 C70.1939452,210.236786 70.7314263,208.446221 72.0281744,207.974599 Z M3.07427736,208.284459 C4.25613639,207.573029 5.98646592,208.281461 6.69777922,209.464513 C7.40809348,210.646566 7.51299221,212.993685 6.33013414,213.704115 C5.14827511,214.414546 3.12522817,213.220503 2.41591294,212.037451 C1.70559868,210.854399 1.89241833,208.99489 3.07427736,208.284459 Z M44.8372247,210.028153 C45.3757048,208.758171 46.9162176,208.261569 48.1859917,208.801137 C49.4557659,209.339705 49.9742653,210.710606 49.4347862,211.980589 C48.896306,213.250571 46.9681674,214.267755 45.6983933,213.729187 C44.4286191,213.190619 44.2977455,211.298136 44.8372247,210.028153 Z M200.381961,204.673345 C201.287087,203.63218 203.151288,203.771068 204.192283,204.676343 C205.233278,205.581617 206.058481,207.779855 205.153355,208.821021 C204.248229,209.862186 201.956441,209.351596 200.915446,208.446321 C199.874451,207.542046 199.476835,205.714511 200.381961,204.673345 Z M96.2272126,201.675348 C97.1323388,200.634183 98.9965391,200.77407 100.037534,201.678346 C101.078529,202.58362 101.903732,204.781858 100.997607,205.823024 C100.09348,206.864189 97.8016926,206.354598 96.7606976,205.448324 C95.7197025,204.544049 95.3220864,202.716514 96.2272126,201.675348 Z M128.292956,199.095716 C129.661635,198.92785 130.954387,200.277768 131.123224,201.64767 C131.290063,203.017572 130.43289,205.202821 129.063213,205.371686 C127.693535,205.539551 126.332848,203.626085 126.165011,202.257182 C125.996174,200.88728 126.923278,199.263581 128.292956,199.095716 Z M237.931711,198.096516 C239.300389,197.928651 240.593141,199.278569 240.760979,200.648471 C240.928817,202.018373 240.070646,204.203622 238.701967,204.372486 C237.332289,204.540352 235.971603,202.626885 235.803765,201.257983 C235.634928,199.888081 236.562033,198.264382 237.931711,198.096516 Z M165.085537,199.716018 C165.625016,198.446036 167.164529,197.949434 168.434304,198.489002 C169.704078,199.028569 170.222577,200.399471 169.684097,201.668454 C169.144618,202.938436 167.216479,203.95662 165.946705,203.417052 C164.676931,202.878484 164.546057,200.986001 165.085537,199.716018 Z M274.723891,198.716819 C275.26337,197.446837 276.802884,196.950235 278.072658,197.489803 C279.342432,198.02937 279.860932,199.400272 279.322452,200.669254 C278.782973,201.939237 276.854834,202.957421 275.58506,202.417853 C274.315286,201.879285 274.185411,199.986801 274.723891,198.716819 Z M24.1372085,196.097519 C25.5068862,195.929653 26.7996382,197.28057 26.9674762,198.650472 C27.1353141,200.019375 26.2771426,202.205623 24.908464,202.374488 C23.5387863,202.542353 22.1780999,200.627888 22.0102619,199.258985 C21.8414249,197.889083 22.7685299,196.265384 24.1372085,196.097519 Z M60.9302884,196.718421 C61.4697675,195.448439 63.0092813,194.951837 64.2790554,195.491404 C65.5488296,196.030972 66.067329,197.401873 65.5288489,198.670856 C64.9893697,199.940838 63.0612311,200.959022 61.791457,200.419455 C60.5216828,199.880886 60.3918082,197.988403 60.9302884,196.718421 Z M143.297071,190.417971 C144.676739,190.417971 145.79466,191.91577 145.79466,193.295664 C145.79466,194.675558 144.676739,196.739904 143.297071,196.739904 C141.917403,196.739904 140.799482,194.675558 140.799482,193.295664 C140.799482,191.91577 141.917403,190.417971 143.297071,190.417971 Z M192.099058,190.652982 C193.394807,190.180361 194.958297,191.206539 195.429842,192.503499 C195.902386,193.798461 195.557719,196.122599 194.261969,196.594221 C192.965221,197.065843 191.207918,195.508091 190.736373,194.21213 C190.264828,192.915169 190.803308,191.124604 192.099058,190.652982 Z M252.935326,189.418472 C254.314994,189.418472 255.432915,190.916271 255.432915,192.296165 C255.432915,193.676059 254.314994,195.740405 252.935326,195.740405 C251.556657,195.740405 250.437737,193.676059 250.437737,192.296165 C250.437737,190.916271 251.556657,189.418472 252.935326,189.418472 Z M108.229625,189.049567 C109.411484,188.338138 111.141814,189.04657 111.852128,190.229622 C112.562442,191.411674 112.66834,193.758793 111.485482,194.469224 C110.302624,195.179654 108.280576,193.985611 107.571261,192.80256 C106.859948,191.619508 107.046767,189.759998 108.229625,189.049567 Z M39.1417231,187.420373 C40.5213912,187.420373 41.6393119,188.918173 41.6393119,190.298067 C41.6393119,191.677961 40.5213912,193.742306 39.1417231,193.742306 C37.7630541,193.742306 36.6441343,191.677961 36.6441343,190.298067 C36.6441343,188.918173 37.7630541,187.420373 39.1417231,187.420373 Z M217.86808,188.050568 C219.049939,187.339138 220.780269,188.047571 221.490583,189.230622 C222.200897,190.412675 222.305796,192.759794 221.123937,193.470224 C219.942078,194.180655 217.919031,192.985613 217.208717,191.80356 C216.498402,190.620508 216.685222,188.760999 217.86808,188.050568 Z M87.944209,187.655385 C89.2399581,187.182764 90.8034487,188.208941 91.2749935,189.505902 C91.7475373,190.800864 91.40287,193.125001 90.1061219,193.596623 C88.8103728,194.068245 87.0530693,192.510494 86.5815246,191.214532 C86.1099798,189.917572 86.6484599,188.127007 87.944209,187.655385 Z M8.03337593,186.025782 C8.26415314,184.386096 9.84262927,182.792373 11.4820466,183.022189 C13.1214639,183.252005 14.1994232,185.220427 13.969645,186.860113 C13.7388678,188.4988 12.0654833,190.766982 10.426066,190.537166 C8.78664872,190.305352 7.80259872,187.664468 8.03337593,186.025782 Z M166.274888,183.966941 C167.377824,183.966941 168.272959,185.387802 168.272959,186.695754 C168.272959,188.003706 167.377824,189.962136 166.274888,189.962136 C165.171953,189.962136 164.276817,188.003706 164.276817,186.695754 C164.276817,185.387802 165.171953,183.966941 166.274888,183.966941 Z M275.913143,182.967742 C277.017077,182.967742 277.911214,184.388603 277.911214,185.696555 C277.911214,187.004507 277.017077,188.962937 275.913143,188.962937 C274.810208,188.962937 273.915072,187.004507 273.915072,185.696555 C273.915072,184.388603 274.810208,182.967742 275.913143,182.967742 Z M119.252884,182.635009 C119.482662,180.995323 121.062137,179.4016 122.701554,179.631416 C124.340971,179.862231 125.418931,181.829654 125.188154,183.46934 C124.958375,185.109026 123.284991,187.376209 121.645574,187.146393 C120.006156,186.914579 119.023105,184.274694 119.252884,182.635009 Z M62.1195403,180.969344 C63.2234745,180.969344 64.1176113,182.390205 64.1176113,183.698157 C64.1176113,185.006108 63.2234745,186.964539 62.1195403,186.964539 C61.016605,186.964539 60.1214692,185.006108 60.1214692,183.698157 C60.1214692,182.390205 61.016605,180.969344 62.1195403,180.969344 Z M228.891638,181.635809 C229.121416,179.996124 230.700891,178.402401 232.340309,178.632217 C233.978727,178.863032 235.057685,180.830455 234.826908,182.470141 C234.59713,184.109827 232.923745,186.377009 231.284328,186.147194 C229.644911,185.915379 228.660861,183.275495 228.891638,181.635809 Z M26.9980711,176 C28.1020053,176 28.9961421,177.420861 28.9961421,178.728813 C28.9961421,180.036765 28.1020053,181.995195 26.9980711,181.995195 C25.8951358,181.995195 25,180.036765 25,178.728813 C25,177.420861 25.8951358,176 26.9980711,176 Z M143.275892,172.181787 C144.181018,171.140621 146.045218,171.27951 147.086213,172.184784 C148.127208,173.090059 148.952411,175.288297 148.047285,176.330462 C147.142159,177.370628 144.850372,176.860037 143.809377,175.954763 C142.768382,175.050488 142.370765,173.222952 143.275892,172.181787 Z M201.090577,170.6685 C202.386326,170.196878 203.949817,171.222056 204.421362,172.519016 C204.892906,173.814978 204.549238,176.138116 203.25249,176.610737 C201.955742,177.08136 200.199437,175.524608 199.727893,174.227647 C199.255349,172.930687 199.793829,171.140122 201.090577,170.6685 Z M252.914846,171.182288 C253.819972,170.141122 255.684172,170.28101 256.725167,171.185285 C257.766162,172.09056 258.591366,174.288798 257.68524,175.330963 C256.781113,176.371129 254.489326,175.861537 253.448331,174.955264 C252.407336,174.050989 252.00972,172.223453 252.914846,171.182288 Z M39.1212429,169.18389 C40.0263691,168.142724 41.8905694,168.282612 42.9315644,169.186887 C43.9725594,170.092162 44.7977628,172.2904 43.8916375,173.332564 C42.9875104,174.372731 40.6957229,173.863139 39.6547279,172.956866 C38.6137328,172.05259 38.2161167,170.225055 39.1212429,169.18389 Z M96.9355288,167.671402 C98.2312779,167.198781 99.7947685,168.224958 100.266313,169.521919 C100.738857,170.816881 100.393191,173.141018 99.0974417,173.61264 C97.8016926,174.084262 96.0443891,172.52651 95.5728443,171.230549 C95.1012995,169.933589 95.6387807,168.143024 96.9355288,167.671402 Z M176.764761,162.82029 C177.867697,162.82029 178.762832,164.240152 178.762832,165.549103 C178.762832,166.857054 177.867697,168.815485 176.764761,168.815485 C175.661826,168.815485 174.76669,166.857054 174.76669,165.549103 C174.76669,164.240152 175.661826,162.82029 176.764761,162.82029 Z M8.50375149,163.729023 C9.40887768,162.687857 11.273078,162.827745 12.314073,163.73202 C13.355068,164.637295 14.1802714,166.835533 13.2741461,167.876698 C12.370019,168.917864 10.0782315,168.408272 9.03723647,167.501999 C7.99624145,166.597724 7.59862531,164.770188 8.50375149,163.729023 Z M122.45719,162.706981 C123.362316,161.665815 125.226517,161.804704 126.267512,162.709978 C127.308507,163.615253 128.13371,165.813491 127.228584,166.854656 C126.323458,167.895822 124.03167,167.385231 122.990675,166.479957 C121.94968,165.575681 121.552064,163.748146 122.45719,162.706981 Z M232.096444,161.707781 C233.000571,160.666616 234.86577,160.805505 235.906765,161.710779 C236.94776,162.616054 237.771965,164.814292 236.866839,165.855457 C235.961712,166.896623 233.669925,166.386032 232.62893,165.480758 C231.587935,164.576482 231.190319,162.748947 232.096444,161.707781 Z M72.6094133,159.822193 C73.7133475,159.822193 74.6074843,161.243054 74.6074843,162.551006 C74.6074843,163.858957 73.7133475,165.817388 72.6094133,165.817388 C71.5064781,165.817388 70.6113422,163.858957 70.6113422,162.551006 C70.6113422,161.243054 71.5064781,159.822193 72.6094133,159.822193 Z M150.990344,158.069697 C151.528824,156.800714 153.069337,156.303113 154.339111,156.842681 C155.608885,157.382248 156.127385,158.75215 155.587906,160.022133 C155.049425,161.292115 153.121287,162.309299 151.851513,161.770731 C150.581739,161.232163 150.450865,159.340679 150.990344,158.069697 Z M260.628899,157.070598 C261.167379,155.800616 262.707892,155.304014 263.977666,155.843582 C265.24744,156.38215 265.765939,157.753051 265.22646,159.023033 C264.68798,160.293015 262.759841,161.3102 261.490067,160.771632 C260.220293,160.233063 260.089419,158.34058 260.628899,157.070598 Z M46.8344965,155.0722 C47.3739757,153.802218 48.9144885,153.305616 50.1842626,153.845183 C51.4540368,154.383752 51.9725362,155.754653 51.433057,157.024635 C50.8935778,158.294617 48.9664383,159.311802 47.6966641,158.773233 C46.42689,158.234665 46.2960163,156.342182 46.8344965,155.0722 Z M94.3252487,150.134857 C95.6949265,149.966992 96.9876784,151.317909 97.1555164,152.686812 C97.3233544,154.056714 96.4651828,156.242961 95.0955051,156.410827 C93.7268265,156.578692 92.365141,154.665226 92.1973031,153.295324 C92.0294651,151.926421 92.9565701,150.302722 94.3252487,150.134857 Z M277.14885,149.135058 C278.517529,148.967193 279.810281,150.319109 279.979118,151.688012 C280.146956,153.056915 279.288784,155.243163 277.919107,155.412027 C276.550428,155.579893 275.188742,153.666427 275.020905,152.296524 C274.853067,150.927622 275.780172,149.303923 277.14885,149.135058 Z M203.964503,149.135758 C205.333181,148.967892 206.625933,150.31881 206.793771,151.687712 C206.961609,153.057614 206.103438,155.243862 204.734759,155.411728 C203.365081,155.579593 202.004395,153.666127 201.836557,152.296225 C201.66772,150.927322 202.594825,149.303623 203.964503,149.135758 Z M27.5037515,149.729383 C28.4088777,148.688218 30.273078,148.827106 31.314073,149.732381 C32.355068,150.637655 33.1802714,152.835894 32.2751452,153.877059 C31.370019,154.918225 29.0782315,154.408633 28.0372365,153.502359 C26.9962414,152.598084 26.5986253,150.770549 27.5037515,149.729383 Z M63.3556469,147.137359 C64.7243256,146.969494 66.0170776,148.320411 66.1849155,149.689314 C66.3527535,151.059216 65.495581,153.245464 64.1259033,153.413329 C62.7562256,153.581195 61.3955392,151.667728 61.2277012,150.297826 C61.0588642,148.928924 61.9859692,147.305225 63.3556469,147.137359 Z M172.994401,146.13816 C174.36308,145.970295 175.655832,147.321212 175.82367,148.690115 C175.991508,150.060017 175.133336,152.246265 173.764658,152.41413 C172.39498,152.581996 171.034294,150.668529 170.866456,149.298627 C170.697619,147.929724 171.624724,146.306026 172.994401,146.13816 Z M123.861335,144.522056 C125.230013,144.35419 126.522765,145.706107 126.690603,147.075009 C126.85944,148.443912 126.001269,150.63016 124.631591,150.798025 C123.262912,150.96689 121.901227,149.053424 121.733389,147.683522 C121.565551,146.31362 122.492656,144.69092 123.861335,144.522056 Z M233.499589,143.522856 C234.869267,143.354991 236.16102,144.706907 236.329857,146.07581 C236.497695,147.444713 235.639523,149.630961 234.270845,149.798826 C232.901167,149.967691 231.539482,148.054225 231.371644,146.684323 C231.203806,145.314421 232.130911,143.691721 233.499589,143.522856 Z M251.892832,142.082511 C252.432312,140.812529 253.971825,140.315927 255.2416,140.855494 C256.511374,141.395062 257.029873,142.764964 256.491393,144.034946 C255.951914,145.304928 254.023775,146.323112 252.754001,145.783545 C251.484227,145.244976 251.353353,143.352493 251.892832,142.082511 Z M15.138396,140.841406 C15.6768762,139.571423 17.217389,139.074821 18.4871631,139.614389 C19.7569373,140.152957 20.2754367,141.523859 19.7359575,142.793841 C19.1974774,144.063823 17.2693388,145.082007 15.9995646,144.542439 C14.7297905,144.002872 14.5989168,142.111388 15.138396,140.841406 Z M38.0992295,140.084113 C38.6387087,138.81413 40.1782225,138.317528 41.4479966,138.857096 C42.7177708,139.396664 43.2362702,140.766566 42.6977901,142.036548 C42.1583109,143.30653 40.2301723,144.324714 38.9603982,143.785146 C37.690624,143.246578 37.5597504,141.354095 38.0992295,140.084113 Z M147.737584,139.084913 C148.277063,137.814931 149.816577,137.318329 151.086351,137.857897 C152.356126,138.397464 152.874625,139.767366 152.336145,141.037349 C151.796666,142.307331 149.868527,143.325515 148.598753,142.785947 C147.328979,142.247379 147.198105,140.354896 147.737584,139.084913 Z M104.252465,133.034663 C105.549213,132.563041 107.111705,133.588219 107.583249,134.885179 C108.055793,136.181141 107.711126,138.504279 106.414378,138.975901 C105.118629,139.447523 103.361325,137.889771 102.889781,136.59381 C102.418236,135.296849 102.955717,133.506285 104.252465,133.034663 Z M77.0615152,135.088217 C77.6009944,133.818235 79.1405081,133.321633 80.4102823,133.8612 C81.6800565,134.399768 82.1985559,135.77067 81.6600757,137.040652 C81.1205966,138.310634 79.192458,139.328818 77.9226838,138.78925 C76.6529097,138.249683 76.5230351,136.358199 77.0615152,135.088217 Z M213.89052,132.035663 C215.187268,131.564041 216.750759,132.58922 217.222303,133.885181 C217.693848,135.182141 217.349181,137.505279 216.053432,137.976901 C214.757683,138.448523 213.000379,136.890772 212.528835,135.594811 C212.05729,134.29785 212.594771,132.507285 213.89052,132.035663 Z M186.70027,134.089018 C187.23875,132.819035 188.779263,132.322433 190.049037,132.862001 C191.318811,133.400569 191.83731,134.771471 191.297831,136.041453 C190.759351,137.311435 188.831212,138.329619 187.561438,137.790051 C186.291664,137.250484 186.16079,135.359 186.70027,134.089018 Z M128.451503,126.735411 C129.356629,125.694246 131.22083,125.833134 132.261825,126.738409 C133.30282,127.643683 134.128023,129.842921 133.222897,130.884086 C132.317771,131.925252 130.025983,131.414661 128.984988,130.509387 C127.943993,129.604112 127.546377,127.776577 128.451503,126.735411 Z M238.090257,125.736212 C238.995384,124.695047 240.859584,124.833935 241.900579,125.73921 C242.941574,126.644484 243.766777,128.843722 242.860652,129.884887 C241.956525,130.926053 239.664737,130.415462 238.623742,129.510187 C237.582747,128.604913 237.185131,126.777378 238.090257,125.736212 Z M6.40213004,125.853418 C6.94160922,124.583436 8.48112297,124.086834 9.75089713,124.626402 C11.0206713,125.16497 11.5391707,126.535871 11.0006906,127.805853 C10.4612114,129.075836 8.53307282,130.094019 7.26329866,129.554452 C5.99352451,129.014884 5.86364989,127.1234 6.40213004,125.853418 Z M270.155502,123.15648 C271.525179,122.988614 272.817931,124.339532 272.985769,125.708434 C273.153607,127.078336 272.295436,129.264584 270.925758,129.43245 C269.557079,129.600315 268.196393,127.686849 268.027556,126.316947 C267.859718,124.948044 268.786823,123.324345 270.155502,123.15648 Z M56.3623982,121.158181 C57.7310769,120.990316 59.0238289,122.341233 59.1916668,123.710136 C59.3595048,125.080038 58.5023323,127.266286 57.1326546,127.434151 C55.7629769,127.602017 54.4022905,125.68855 54.2344525,124.318648 C54.0656155,122.949745 54.9927205,121.326047 56.3623982,121.158181 Z M166.000853,120.158283 C167.369532,119.990417 168.662284,121.342334 168.830121,122.711237 C168.998958,124.080139 168.139788,126.266387 166.771109,126.435252 C165.402431,126.603117 164.040745,124.689651 163.872907,123.319749 C163.705069,121.950846 164.632174,120.327147 166.000853,120.158283 Z M93.1548786,121.779084 C93.6943578,120.509102 95.2338716,120.0125 96.5036457,120.552067 C97.7734199,121.090636 98.2919193,122.461537 97.7534392,123.731519 C97.21396,125.001501 95.2858214,126.019685 94.0160472,125.480117 C92.7462731,124.94055 92.6163985,123.049066 93.1548786,121.779084 Z M202.793333,120.779785 C203.332812,119.509803 204.872326,119.013201 206.1421,119.552768 C207.411875,120.092336 207.930374,121.462238 207.391894,122.73222 C206.852415,124.002202 204.924276,125.020386 203.654502,124.480818 C202.384728,123.94225 202.254853,122.049767 202.793333,120.779785 Z M18.9342315,115.615424 C20.0371667,115.615424 20.9323026,117.036285 20.9323026,118.344237 C20.9323026,119.652188 20.0371667,121.610619 18.9342315,121.610619 C17.8302972,121.610619 16.9361604,119.652188 16.9361604,118.344237 C16.9361604,117.036285 17.8302972,115.615424 18.9342315,115.615424 Z M71.3665132,112.479937 C72.7461813,112.479937 73.864102,113.977736 73.864102,115.35763 C73.864102,116.737524 72.7461813,118.802869 71.3665132,118.802869 C69.9868451,118.802869 68.8689244,116.737524 68.8689244,115.35763 C68.8689244,113.977736 69.9868451,112.479937 71.3665132,112.479937 Z M250.092171,113.109932 C251.275029,112.399501 253.005358,113.107934 253.715673,114.290985 C254.425987,115.473038 254.530886,117.820157 253.348028,118.529588 C252.166169,119.240019 250.144121,118.045976 249.433806,116.863923 C248.723492,115.680871 248.910312,113.821362 250.092171,113.109932 Z M120.168,112.714749 C121.464748,112.243127 123.028239,113.268305 123.499784,114.565266 C123.971328,115.862226 123.626661,118.184365 122.330912,118.656986 C121.034164,119.128608 119.277859,117.570857 118.806315,116.273896 C118.333771,114.977935 118.872251,113.186371 120.168,112.714749 Z M181.004768,111.480938 C182.384436,111.480938 183.502357,112.978737 183.502357,114.358631 C183.502357,115.738525 182.384436,117.80387 181.004768,117.80387 C179.626099,117.80387 178.507179,115.738525 178.507179,114.358631 C178.507179,112.978737 179.626099,111.480938 181.004768,111.480938 Z M229.807354,111.71555 C231.103103,111.243928 232.666594,112.269106 233.138138,113.566066 C233.610682,114.863027 233.265016,117.185166 231.969267,117.657787 C230.673518,118.129409 228.916214,116.571657 228.444669,115.274697 C227.973125,113.978736 228.510606,112.187172 229.807354,111.71555 Z M36.2985679,111.111534 C37.481426,110.401103 39.2117555,111.109535 39.9220698,112.292587 C40.632384,113.47464 40.7372828,115.821758 39.5544247,116.53119 C38.3725657,117.24162 36.3505178,116.047577 35.6402035,114.865525 C34.9298892,113.682473 35.1167089,111.822963 36.2985679,111.111534 Z M145.937322,110.112834 C147.119181,109.402403 148.849511,110.110836 149.560824,111.292888 C150.271138,112.474941 150.376037,114.82206 149.193179,115.53249 C148.01132,116.242921 145.988273,115.048878 145.278958,113.866825 C144.568644,112.683773 144.755463,110.823265 145.937322,110.112834 Z M94.3443303,106.029407 C95.4472655,106.029407 96.3424014,107.450268 96.3424014,108.75822 C96.3424014,110.067171 95.4472655,112.024602 94.3443303,112.024602 C93.2413951,112.024602 92.3462593,110.067171 92.3462593,108.75822 C92.3462593,107.450268 93.2413951,106.029407 94.3443303,106.029407 Z M261.115529,106.695973 C261.346306,105.056287 262.924782,103.462564 264.564199,103.69238 C266.203617,103.923195 267.282575,105.890618 267.051798,107.530304 C266.821021,109.168991 265.147636,111.436173 263.508219,111.206358 C261.869801,110.976542 260.885751,108.334659 261.115529,106.695973 Z M203.982585,105.030208 C205.086519,105.030208 205.980656,106.451069 205.980656,107.759021 C205.980656,109.067972 205.086519,111.025403 203.982585,111.025403 C202.87965,111.025403 201.984514,109.067972 201.984514,107.759021 C201.984514,106.451069 202.87965,105.030208 203.982585,105.030208 Z M47.3219259,104.697574 C47.5527031,103.057888 49.1311793,101.464166 50.7705966,101.693982 C52.4100139,101.924797 53.4889722,103.89222 53.258195,105.531906 C53.0274178,107.170592 51.3540333,109.437775 49.714616,109.207959 C48.0761977,108.978144 47.0921478,106.336261 47.3219259,104.697574 Z M9.67996561,102.930091 C11.0486443,102.762225 12.3413963,104.113143 12.5102333,105.482046 C12.6770722,106.851948 11.8198997,109.038195 10.450222,109.206061 C9.08154332,109.373926 7.7198579,107.46046 7.55201993,106.091557 C7.38318293,104.721655 8.3102879,103.097956 9.67996561,102.930091 Z M156.96148,103.698175 C157.191258,102.058489 158.770733,100.464767 160.409151,100.694583 C162.048568,100.925398 163.126528,102.892821 162.89675,104.532507 C162.666971,106.172192 160.992588,108.439375 159.35417,108.20856 C157.714752,107.978745 156.730702,105.337861 156.96148,103.698175 Z M274.300157,99.442629 C274.838638,98.1726469 276.37915,97.6760449 277.648924,98.2156124 C278.918699,98.7541808 279.437198,100.125082 278.897719,101.395064 C278.359239,102.665046 276.4311,103.68323 275.161326,103.143663 C273.891552,102.604095 273.760678,100.712611 274.300157,99.442629 Z M71.3453336,94.2437529 C72.2504598,93.2025874 74.1146601,93.3424753 75.1556551,94.2477497 C76.1966502,95.1520249 77.0218535,97.3512623 76.1167273,98.3924278 C75.2116011,99.4335933 72.9198136,98.9230025 71.8788186,98.0177281 C70.8378236,97.1124537 70.4402074,95.2859176 71.3453336,94.2437529 Z M129.159819,92.7309654 C130.455568,92.2593434 132.019059,93.2845217 132.490604,94.5814822 C132.963148,95.8774435 132.61848,98.2005816 131.322731,98.6732028 C130.025983,99.1448248 128.26868,97.5860741 127.797135,96.2901128 C127.32559,94.9941515 127.86407,93.2025874 129.159819,92.7309654 Z M180.984288,93.2447536 C181.889414,92.2035881 183.753614,92.3434759 184.794609,93.2477512 C185.835604,94.1530256 186.660808,96.352263 185.754682,97.3934285 C184.850555,98.434594 182.558768,97.9240032 181.517773,97.0187288 C180.476778,96.1134544 180.079162,94.2859191 180.984288,93.2447536 Z M238.798574,91.7317662 C240.094323,91.2601442 241.657813,92.2853225 242.129358,93.5822831 C242.601902,94.8782444 242.256236,97.2013824 240.960487,97.6740036 C239.664737,98.1456256 237.907434,96.5868749 237.435889,95.2909136 C236.964344,93.9949523 237.501826,92.2033882 238.798574,91.7317662 Z M23.385734,90.8814477 C23.9252132,89.6114656 25.4647269,89.1148636 26.7345011,89.6544312 C28.0042753,90.1929995 28.5227747,91.5639008 27.9842945,92.8338829 C27.4448154,94.103865 25.5166768,95.122049 24.2469026,94.5824814 C22.9771285,94.0429139 22.8472539,92.1514299 23.385734,90.8814477 Z M264.320335,86.767445 C265.225461,85.7262795 267.089661,85.8651682 268.130656,86.7704426 C269.171651,87.6757171 269.996855,89.8749544 269.091729,90.9161199 C268.186602,91.9572855 265.894815,91.4466947 264.85382,90.5414203 C263.812825,89.6361458 263.415209,87.8086106 264.320335,86.767445 Z M104.834203,84.882256 C105.937139,84.882256 106.832274,86.3031172 106.832274,87.6110689 C106.832274,88.9190206 105.937139,90.8774509 104.834203,90.8774509 C103.731268,90.8774509 102.836132,88.9190206 102.836132,87.6110689 C102.836132,86.3031172 103.731268,84.882256 104.834203,84.882256 Z M214.472458,83.8830568 C215.576392,83.8830568 216.470529,85.303918 216.470529,86.6118697 C216.470529,87.9198214 215.576392,89.8782518 214.472458,89.8782518 C213.369523,89.8782518 212.474387,87.9198214 212.474387,86.6118697 C212.474387,85.303918 213.369523,83.8830568 214.472458,83.8830568 Z M50.5266321,84.7689468 C51.4317583,83.7277813 53.2959586,83.86667 54.3369536,84.7719444 C55.3779486,85.6772188 56.203152,87.8764562 55.2980258,88.9176217 C54.3928996,89.9587872 52.1011121,89.4481965 51.0601171,88.542922 C50.019122,87.6376476 49.6215059,85.8101123 50.5266321,84.7689468 Z M160.165486,83.7698476 C161.070613,82.728682 162.934813,82.8675707 163.975808,83.7728452 C165.016803,84.6781196 165.842006,86.8773569 164.935881,87.9185225 C164.031754,88.959688 161.739966,88.4490972 160.698971,87.5438228 C159.657976,86.6385483 159.26036,84.8110131 160.165486,83.7698476 Z M39.3958778,78.9493112 C40.7645564,78.7814457 42.0573084,80.132363 42.2251464,81.5012658 C42.3929843,82.8711678 41.5348128,85.0574156 40.1661341,85.2252811 C38.7964564,85.3931465 37.4357701,83.4796801 37.2679321,82.1107773 C37.0990951,80.7408752 38.0262,79.1171766 39.3958778,78.9493112 Z M79.0595863,80.132263 C79.5990655,78.8622809 81.1385792,78.3656789 82.4083534,78.9052465 C83.6781275,79.4438148 84.196627,80.8147161 83.6581468,82.0846982 C83.1186676,83.3546803 81.1905291,84.3728643 79.9207549,83.8332967 C78.6509807,83.2937292 78.5211061,81.4022452 79.0595863,80.132263 Z M188.698341,79.1330639 C189.236821,77.8630818 190.777334,77.3664798 192.047108,77.9060473 C193.316882,78.4446157 193.835381,79.8155169 193.295902,81.085499 C192.757422,82.3554812 190.829283,83.3736651 189.559509,82.8340976 C188.289735,82.29453 188.158861,80.403046 188.698341,79.1330639 Z M127.566158,75.9517137 C128.934837,75.7838482 130.227588,77.1347655 130.396426,78.5036683 C130.563264,79.8735704 129.706092,82.0598181 128.336414,82.2276836 C126.966737,82.395549 125.60605,80.4820827 125.438212,79.1131798 C125.269375,77.7432778 126.19648,76.1195791 127.566158,75.9517137 Z M236.188793,74.195821 C237.557472,74.0279555 238.850224,75.3788728 239.019061,76.7477757 C239.1859,78.1176777 238.328727,80.3039255 236.95905,80.4717909 C235.589372,80.6396564 234.228685,78.72619 234.060847,77.3562879 C233.89201,75.9873851 234.819115,74.3636865 236.188793,74.195821 Z M23.5037515,74.7293833 C24.4088777,73.6882178 26.273078,73.8271065 27.314073,74.7323809 C28.355068,75.6376554 29.1802714,77.8368927 28.2751452,78.8780582 C27.370019,79.9192238 25.0782315,79.408633 24.0372365,78.5033586 C22.9962414,77.5980841 22.5986253,75.7705489 23.5037515,74.7293833 Z M4.29971509,75.442629 C4.83919427,74.1726469 6.37870802,73.6760449 7.64848218,74.2156124 C8.91825633,74.7541808 9.43675577,76.125082 8.89827562,77.3950641 C8.35879644,78.6650463 6.43065787,79.6832302 5.16088371,79.1436627 C3.89110956,78.6040951 3.76123494,76.7126111 4.29971509,75.442629 Z M96.5960565,72.9541162 C97.9647352,72.7862508 99.2574871,74.137168 99.4263241,75.5060709 C99.5931631,76.8759729 98.7359906,79.0622207 97.3663129,79.2300861 C95.9966352,79.3979516 94.6359488,77.4844852 94.4681108,76.1155823 C94.2992738,74.7456803 95.2263788,73.1219817 96.5960565,72.9541162 Z M205.218692,71.1982235 C206.58737,71.0303581 207.880122,72.3812753 208.048959,73.7501782 C208.215798,75.1200802 207.358626,77.306328 205.988948,77.4741934 C204.619271,77.6420589 203.258584,75.7285925 203.090746,74.3586905 C202.921909,72.9897876 203.849014,71.366089 205.218692,71.1982235 Z M157.101544,70.3399115 C158.471222,70.1710468 159.763974,71.5219641 159.931812,72.8918661 C160.09965,74.260769 159.241478,76.4470167 157.871801,76.6158814 C156.503122,76.7837468 155.141437,74.8692812 154.973599,73.5003784 C154.805761,72.1314755 155.732866,70.5077769 157.101544,70.3399115 Z M265.724379,68.5829197 C267.093058,68.4150542 268.38581,69.7669707 268.553648,71.1358735 C268.722485,72.5047764 267.864314,74.6910241 266.494636,74.8588896 C265.125957,75.0277542 263.764272,73.1142878 263.596434,71.7443858 C263.428596,70.3744838 264.355701,68.7517843 265.724379,68.5829197 Z M53.1017461,66.900668 C53.6402262,65.6306858 55.180739,65.1340839 56.4505132,65.6736514 C57.7202873,66.2122197 58.2387867,67.583121 57.6993076,68.8531031 C57.1608274,70.1230852 55.2326888,71.1412692 53.9629147,70.6017016 C52.6931405,70.0621341 52.5622669,68.1706501 53.1017461,66.900668 Z M71.3394393,65.9014688 C71.8789185,64.6314867 73.4184323,64.1348847 74.6882064,64.6744522 C75.9579806,65.2130206 76.47648,66.5839218 75.9379999,67.853904 C75.3985207,69.1238861 73.4703821,70.14207 72.200608,69.6025025 C70.9308338,69.0629349 70.8009592,67.1714509 71.3394393,65.9014688 Z M179.962274,64.1449766 C180.501754,62.8749945 182.041267,62.3783925 183.311042,62.91796 C184.580816,63.4575276 185.099315,64.8274296 184.560835,66.0974118 C184.021356,67.3673939 182.093217,68.3855778 180.823443,67.8460103 C179.553669,67.3074419 179.422795,65.4149587 179.962274,64.1449766 Z M137.493174,58.8521188 C138.788923,58.3804967 140.352414,59.4056751 140.823959,60.7016364 C141.296503,61.9985969 140.950836,64.3217349 139.655087,64.7933569 C138.359338,65.2649789 136.602035,63.7072275 136.13049,62.4102669 C135.658945,61.1143056 136.197425,59.3237408 137.493174,58.8521188 Z M110.301825,60.905473 C110.841304,59.6354909 112.380818,59.1388889 113.650592,59.6784565 C114.920366,60.2170248 115.438866,61.587926 114.900385,62.8579082 C114.360906,64.1278903 112.432768,65.1460742 111.162994,64.6065067 C109.893219,64.0669392 109.763345,62.1754551 110.301825,60.905473 Z M16.3001574,60.442629 C16.8396366,59.1726469 18.3791503,58.6760449 19.6489245,59.2156124 C20.9186986,59.75518 21.4371981,61.125082 20.8987179,62.3950641 C20.3592387,63.6650463 18.4311001,64.6832302 17.161326,64.1436627 C15.8915518,63.6050943 15.7606782,61.7126111 16.3001574,60.442629 Z M246.11581,57.0957265 C247.411559,56.6241045 248.975049,57.6492828 249.446594,58.9452441 C249.919138,60.2422046 249.573472,62.5653427 248.277722,63.0369647 C246.981973,63.5085867 245.22467,61.9508352 244.753125,60.6548739 C244.28158,59.3579134 244.819061,57.5673485 246.11581,57.0957265 Z M218.92456,59.1490807 C219.464039,57.8790986 221.003553,57.3824966 222.273327,57.9220642 C223.543101,58.4606325 224.061601,59.8315338 223.523121,61.1015159 C222.983641,62.371498 221.055503,63.389682 219.785729,62.8501144 C218.515955,62.3105469 218.38608,60.4190629 218.92456,59.1490807 Z M32.4022295,52.9699332 C33.7709081,52.8020678 35.0636601,54.152985 35.2314981,55.5228871 C35.4003351,56.8917899 34.5411645,59.0780377 33.1724858,59.2459031 C31.8038072,59.4147678 30.4421217,57.5013014 30.2742838,56.1313994 C30.1064458,54.7614973 31.0335508,53.1377987 32.4022295,52.9699332 Z M161.691913,52.5527676 C162.597039,51.5116021 164.461239,51.6504907 165.502234,52.5557652 C166.543229,53.4610396 167.368433,55.6592778 166.463306,56.7004433 C165.55818,57.742608 163.266393,57.2320172 162.225398,56.3257436 C161.184403,55.4214684 160.786787,53.5939331 161.691913,52.5527676 Z M270.314548,50.7962754 C271.219674,49.7551099 273.083875,49.8939985 274.12487,50.799273 C275.165865,51.7045474 275.991068,53.9037848 275.085942,54.9449503 C274.180816,55.9861158 271.889028,55.475525 270.848033,54.5702506 C269.807038,53.6649762 269.409422,51.8374409 270.314548,50.7962754 Z M89.6024082,46.9747383 C90.9710869,46.8068728 92.2638388,48.1577901 92.4326758,49.5276921 C92.6005138,50.896595 91.7423423,53.0828427 90.3726646,53.2507082 C89.0039859,53.4195729 87.6423005,51.5061065 87.4744625,50.1362044 C87.3066246,48.7663024 88.2337295,47.1426038 89.6024082,46.9747383 Z M198.225044,45.218346 C199.593722,45.0504806 200.886474,46.402397 201.055311,47.7712999 C201.223149,49.1402027 200.364978,51.3264505 198.9953,51.4953151 C197.626621,51.6631806 196.264936,49.7497142 196.097098,48.3798121 C195.92926,47.0109093 196.856365,45.3872107 198.225044,45.218346 Z M126.395388,47.5962402 C126.933868,46.326258 128.474381,45.8296561 129.744155,46.3692236 C131.013929,46.9077919 131.532429,48.2786932 130.99295,49.5486753 C130.454469,50.8186574 128.526331,51.8358422 127.256557,51.2972738 C125.986783,50.7587055 125.855909,48.8662223 126.395388,47.5962402 Z M47.406744,44.2923882 C48.7854131,44.2923882 49.9043329,45.7901877 49.9043329,47.1700817 C49.9043329,48.5499758 48.7854131,50.6153204 47.406744,50.6153204 C46.027076,50.6153204 44.9091552,48.5499758 44.9091552,47.1700817 C44.9091552,45.7901877 46.027076,44.2923882 47.406744,44.2923882 Z M235.018023,45.8398479 C235.557503,44.5698658 237.097016,44.0732638 238.366791,44.6128313 C239.636565,45.1523989 240.155064,46.5223009 239.616584,47.792283 C239.077105,49.0622652 237.148966,50.0804491 235.879192,49.5408816 C234.609418,49.0023132 234.478544,47.10983 235.018023,45.8398479 Z M12.3392983,42.9244845 C13.5211573,42.2130547 15.2514868,42.9224861 15.9618011,44.1045387 C16.6721154,45.2865913 16.7770141,47.6337101 15.5951551,48.3441407 C14.412297,49.0545713 12.3902491,47.8605283 11.6799348,46.6774765 C10.9696206,45.4954239 11.1564402,43.6349151 12.3392983,42.9244845 Z M104.606823,38.2971932 C105.986491,38.2971932 107.104412,39.7949927 107.104412,41.1748868 C107.104412,42.5547808 105.986491,44.6201255 104.606823,44.6201255 C103.227155,44.6201255 102.109234,42.5547808 102.109234,41.1748868 C102.109234,39.7949927 103.227155,38.2971932 104.606823,38.2971932 Z M153.40841,38.532005 C154.705158,38.060383 156.268648,39.0855613 156.740193,40.3825219 C157.211738,41.6794824 156.867071,44.0016212 155.571322,44.4742424 C154.275572,44.9458644 152.518269,43.3881129 152.046724,42.0911524 C151.57418,40.7941919 152.112661,39.003627 153.40841,38.532005 Z M213.229558,36.5410008 C214.609226,36.5410008 215.727147,38.0388003 215.727147,39.4186943 C215.727147,40.7985884 214.609226,42.863933 213.229558,42.863933 C211.84989,42.863933 210.731969,40.7985884 210.731969,39.4186943 C210.731969,38.0388003 211.84989,36.5410008 213.229558,36.5410008 Z M262.031045,36.7756127 C263.327793,36.3039907 264.891284,37.3291691 265.362828,38.6261296 C265.834373,39.9230901 265.489706,42.2452289 264.193957,42.7178501 C262.897209,43.1894721 261.140904,41.6317206 260.66936,40.3347601 C260.196816,39.0387988 260.735296,37.2472347 262.031045,36.7756127 Z M23.3625564,36.5090264 C23.5923346,34.8703398 25.1718097,33.2766171 26.811227,33.5064329 C28.4496453,33.7362487 29.5286037,35.7046711 29.2978265,37.3433577 C29.0680483,38.9830435 27.3946638,41.2502264 25.7552465,41.0204106 C24.1158292,40.7895956 23.1317792,38.1487122 23.3625564,36.5090264 Z M178.162112,35.1728973 C179.343971,34.4624667 181.074301,35.1708989 181.784615,36.3529515 C182.494929,37.5350041 182.600827,39.8821229 181.417969,40.5925535 C180.235111,41.3029841 178.213063,40.1089411 177.503748,38.9268885 C176.792435,37.7438367 176.979254,35.8833279 178.162112,35.1728973 Z M127.58464,31.8466632 C128.687575,31.8466632 129.582711,33.2675244 129.582711,34.5754761 C129.582711,35.8834278 128.687575,37.8418582 127.58464,37.8418582 C126.481705,37.8418582 125.586569,35.8834278 125.586569,34.5754761 C125.586569,33.2675244 126.481705,31.8466632 127.58464,31.8466632 Z M236.207375,30.0902709 C237.31031,30.0902709 238.205446,31.5111321 238.205446,32.8190838 C238.205446,34.1280347 237.31031,36.0854659 236.207375,36.0854659 C235.10444,36.0854659 234.209304,34.1280347 234.209304,32.8190838 C234.209304,31.5111321 235.10444,30.0902709 236.207375,30.0902709 Z M80.5627351,30.5138315 C80.7925133,28.8751448 82.3719885,27.2814222 84.0114058,27.511238 C85.6508231,27.7410538 86.7287824,29.7094761 86.4980052,31.3481628 C86.268227,32.9878486 84.5948425,35.2550315 82.9554252,35.0252157 C81.3160079,34.7944006 80.332957,32.1535173 80.5627351,30.5138315 Z M189.18537,28.7584384 C189.415149,27.1187526 190.994624,25.5250299 192.634041,25.7548457 C194.273458,25.9856607 195.351418,27.9530839 195.120641,29.5927697 C194.890862,31.2314563 193.217478,33.4986392 191.578061,33.2688234 C189.938643,33.0390076 188.955592,30.397125 189.18537,28.7584384 Z M47.3855645,26.0562042 C48.2906907,25.0150387 50.154891,25.1539273 51.195886,26.0592018 C52.236881,26.9644762 53.0620844,29.1637136 52.1569582,30.2048791 C51.251832,31.2460446 48.9600445,30.7354538 47.9190495,29.8301794 C46.8780544,28.924905 46.4804383,27.0973697 47.3855645,26.0562042 Z M5.31908005,25.421598 C5.85855924,24.1516159 7.39807299,23.6550139 8.66784714,24.1945815 C9.9376213,24.7331498 10.4561207,26.1040511 9.91764059,27.3740332 C9.3781614,28.6440153 7.45002283,29.6621993 6.18024868,29.1226317 C4.91047452,28.5830642 4.7805999,26.6915802 5.31908005,25.421598 Z M104.585743,20.0610092 C105.490869,19.0198437 107.35507,19.1587324 108.396065,20.0640068 C109.43706,20.9692813 110.262263,23.1685186 109.357137,24.2096841 C108.452011,25.2508497 106.160223,24.7402589 105.119228,23.8349845 C104.078233,22.92971 103.680617,21.1021748 104.585743,20.0610092 Z M162.400429,18.5482217 C163.696178,18.0765997 165.259668,19.101778 165.731213,20.3987386 C166.202758,21.6946999 165.85909,24.0178379 164.562342,24.4904591 C163.266593,24.9610819 161.509289,23.4033304 161.037744,22.1073691 C160.5652,20.8104086 161.103681,19.0198437 162.400429,18.5482217 Z M213.208379,18.304617 C214.113505,17.2634514 215.977705,17.4033393 217.0187,18.3086138 C218.059695,19.212889 218.884898,21.4121263 217.979772,22.4532919 C217.074646,23.4944574 214.782859,22.9838666 213.741864,22.0785922 C212.700868,21.1733177 212.303252,19.3467817 213.208379,18.304617 Z M271.022365,16.7916296 C272.319113,16.3200076 273.882603,17.3451859 274.354148,18.6421464 C274.825693,19.9391069 274.481026,22.2612458 273.185277,22.733867 C271.888529,23.205489 270.132224,21.6477375 269.660679,20.350777 C269.188135,19.0548157 269.726616,17.2632516 271.022365,16.7916296 Z M34.5163263,16.509551 C35.6192615,16.509551 36.5143974,17.9304122 36.5143974,19.2383639 C36.5143974,20.5473148 35.6192615,22.504746 34.5163263,22.504746 C33.4133911,22.504746 32.5182553,20.5473148 32.5182553,19.2383639 C32.5182553,17.9304122 33.4133911,16.509551 34.5163263,16.509551 Z M138.074513,10.6995123 C139.177448,10.6995123 140.072584,12.1203735 140.072584,13.4283252 C140.072584,14.7362769 139.177448,16.6947073 138.074513,16.6947073 C136.971578,16.6947073 136.076442,14.7362769 136.076442,13.4283252 C136.076442,12.1203735 136.971578,10.6995123 138.074513,10.6995123 Z M55.0998171,11.9447143 C55.6382973,10.6747322 57.1788101,10.1781302 58.4485842,10.7176978 C59.7183584,11.2562661 60.2368578,12.6271674 59.6973786,13.8971495 C59.1588985,15.1671316 57.2307599,16.1853155 55.9609857,15.645748 C54.6912116,15.1061805 54.5603379,13.2146965 55.0998171,11.9447143 Z M83.7669418,10.5867028 C84.672068,9.54553723 86.5362683,9.68442591 87.5772633,10.5897003 C88.6182583,11.4939756 89.4434616,13.6932129 88.5383355,14.7343785 C87.6332093,15.775544 85.3414218,15.2649532 84.3004267,14.3596788 C83.2594317,13.4544043 82.8618156,11.6278683 83.7669418,10.5867028 Z M246.697248,8.94312006 C247.800183,8.94312006 248.695319,10.3639813 248.695319,11.671933 C248.695319,12.9798847 247.800183,14.938315 246.697248,14.938315 C245.594313,14.938315 244.699177,12.9798847 244.699177,11.671933 C244.699177,10.3639813 245.594313,8.94312006 246.697248,8.94312006 Z M192.389677,8.82981087 C193.294803,7.78864535 195.159003,7.92753404 196.199998,8.83280847 C197.240994,9.73808291 198.066197,11.9373203 197.161071,12.9784858 C196.255944,14.0196513 193.964157,13.5090605 192.923162,12.6037861 C191.882167,11.6985117 191.484551,9.8709764 192.389677,8.82981087 Z M38.4912889,6.72276756 C39.3964151,5.68160204 41.2606154,5.82049073 42.3016104,6.72576516 C43.3426054,7.6300404 44.1678087,9.82927774 43.2626825,10.8704433 C42.3575564,11.9116088 40.0657689,11.401018 39.0247738,10.4957436 C37.9837788,9.59046915 37.5861627,7.76393309 38.4912889,6.72276756 Z M112.299896,5.94951938 C112.839375,4.67953726 114.378889,4.18293527 115.648663,4.72250282 C116.918437,5.26107116 117.436937,6.63197241 116.898456,7.90195454 C116.358977,9.17193667 114.430839,10.1901206 113.161065,9.65055306 C111.89129,9.11098552 111.761416,7.21950151 112.299896,5.94951938 Z M11.5173296,4.72389704 C12.4224558,3.68273152 14.2866561,3.8226194 15.3276511,4.72789383 C16.3686461,5.63216907 17.1938495,7.83140642 16.2887233,8.87257194 C15.3835971,9.91373746 13.0918096,9.40314669 12.0508146,8.49787225 C11.0098196,7.59259782 10.6122034,5.76606176 11.5173296,4.72389704 Z M220.922631,4.19312711 C221.46211,2.92314498 223.001624,2.426543 224.271398,2.96611054 C225.541172,3.50467889 226.059672,4.87558013 225.521192,6.14556226 C224.981713,7.41554439 223.053574,8.43372833 221.7838,7.89416078 C220.514026,7.35459324 220.384151,5.46310923 220.922631,4.19312711 Z M159.790848,1.01177691 C161.159527,0.843911452 162.452279,2.19482871 162.620117,3.56373156 C162.787955,4.9336336 161.929783,7.11988136 160.561104,7.28774682 C159.191427,7.45561227 157.83074,5.54214589 157.661903,4.17324304 C157.494065,2.803341 158.42117,1.17964237 159.790848,1.01177691 Z M128.820747,-1.98582056 C130.189425,-2.15368602 131.482177,-0.802768759 131.650015,0.566134086 C131.817853,1.93603613 130.959682,4.12228389 129.591003,4.29014934 C128.221325,4.4580148 126.860639,2.54454842 126.691802,1.17564557 C126.523964,-0.194256473 127.451069,-1.8179551 128.820747,-1.98582056 Z" id="Pattern" fill="#010101"/></g></g></g><path d="M359.292146,121.442232 C363.237992,130.55999 367.002416,145.753659 370.545469,165.360065 C372.637931,176.939247 374.523771,189.342002 376.172581,201.74427 C376.749616,206.084692 377.255832,210.115212 377.687385,213.732673 C377.838466,214.999096 377.969434,216.12354 378.079808,217.093108 C378.118461,217.432655 378.151786,217.728645 378.17972,217.979463 C378.207754,218.232253 378.207754,218.232253 378.213505,218.284981 C378.273383,218.83401 377.876848,219.327627 377.327819,219.387505 C376.77879,219.447383 376.285173,219.050848 376.225295,218.501819 C376.219787,218.451313 376.219787,218.451313 376.19201,218.200841 C376.164254,217.951622 376.131111,217.657245 376.092643,217.319324 C375.982668,216.353265 375.852115,215.232382 375.701467,213.969587 C375.270938,210.360709 374.765831,206.339023 374.190025,202.007839 C372.545005,189.634088 370.663649,177.260825 368.577346,165.715723 C365.1618,146.814906 361.539537,132.047325 357.79131,123.025951 L297.306539,138.875068 C297.292459,139.463188 297.276801,140.148901 297.259957,140.926381 C297.211089,143.181964 297.162217,145.742737 297.116602,148.559938 C296.889508,162.585187 296.826285,177.150551 297.026891,190.758237 C297.201872,202.627783 297.570624,212.941484 298.162821,221.243529 C298.202117,221.794414 297.787391,222.272849 297.236506,222.312145 C296.685621,222.35144 296.207185,221.936715 296.16789,221.38583 C295.572601,213.040435 295.202598,202.691746 295.027108,190.787718 C294.826156,177.156545 294.889464,162.571751 295.116864,148.527559 C295.16254,145.706601 295.211481,143.142192 295.260426,140.88306 C295.27756,140.092203 295.293473,139.395945 295.307755,138.800378 C295.316331,138.44279 295.322461,138.198079 295.32574,138.072337 C295.337337,137.627505 295.641472,137.243852 296.071923,137.131059 L358.120923,120.872059 C358.598555,120.746902 359.096041,120.989087 359.292146,121.442232 Z M123.979588,112.811806 L170.241588,149.090806 C170.525866,149.313738 170.6678,149.672667 170.612875,150.029733 C169.550031,156.939345 162.295442,170.318343 151.216977,187.320025 C147.343572,193.264386 143.249617,199.253713 139.682664,204.265281 C138.292345,206.21868 137.093809,207.863939 136.320818,208.885752 C135.94953,209.376556 135.695205,209.699048 135.554821,209.853825 C135.471762,209.9454 135.413135,210.002678 135.31086,210.071145 C135.219967,210.131909 135.219967,210.131909 134.989571,210.214001 C134.554858,210.285024 134.554858,210.285024 133.944963,209.844755 C133.708854,209.036938 133.708854,209.036938 133.798782,208.905224 C133.845673,208.767604 133.905676,208.661983 134.036819,208.452619 C134.129152,208.305214 134.253613,208.190173 134.395427,208.110888 C134.4898,207.989337 134.60076,207.844428 134.725801,207.679137 L135.011293,207.299249 C135.767555,206.28709 136.83559,204.816349 138.053241,203.105549 C141.604874,198.115505 145.68347,192.148647 149.541323,186.228153 C160.127098,169.982582 167.224378,156.986567 168.536162,150.295036 L123.325542,114.840537 C123.228067,114.908774 123.120973,114.983998 123.004434,115.066161 C122.248101,115.59939 121.369937,116.231219 120.380104,116.958739 C117.54891,119.039647 114.392847,121.468485 110.993239,124.221925 C101.278306,132.090327 91.563022,140.978242 82.498124,150.697656 C76.1288601,157.526801 70.309881,164.532972 65.1640352,171.680003 C64.8413333,172.128202 64.2163951,172.229937 63.7681965,171.907235 C63.319998,171.584533 63.2182629,170.959595 63.5409648,170.511397 C68.7385746,163.29247 74.6110729,156.221861 81.0355216,149.333546 C90.1687324,139.540888 99.9514222,130.591307 109.734463,122.667743 C113.159145,119.893995 116.339924,117.446135 119.195639,115.347205 C120.196224,114.611782 121.085064,113.972271 121.85201,113.43156 C122.12108,113.241861 122.355867,113.077947 122.555102,112.940179 C122.67554,112.856899 122.757887,112.800488 122.800874,112.771309 C123.16077,112.527014 123.637307,112.543387 123.979588,112.811806 Z M203.316931,0.021805462 C203.857286,0.135977816 204.202775,0.666576767 204.088603,1.20693139 L200.978603,15.9259314 C200.86443,16.466286 200.333831,16.811775 199.793477,16.6976027 C199.253122,16.5834303 198.907633,16.0528313 199.021805,15.5124767 L202.131805,0.793476722 C202.245978,0.253122099 202.776577,-0.0923668919 203.316931,0.021805462 Z M243.14594,1.91362603 L246.253541,15.3168101 C246.378283,15.8548231 246.04326,16.3920917 245.505246,16.5168329 C244.967233,16.6415742 244.429965,16.3065511 244.305224,15.7685381 L241.197623,2.36535404 C241.072882,1.82734097 241.407905,1.29007244 241.945918,1.16533119 C242.483931,1.04058995 243.021199,1.37561296 243.14594,1.91362603 Z M215.955283,0.00101978533 C216.507015,-0.0236869967 216.974311,0.403551225 216.999018,0.955283062 L217.621018,14.8452831 C217.645724,15.3970149 217.218486,15.8643107 216.666754,15.8890175 C216.115022,15.9137243 215.647727,15.4864861 215.62302,14.9347542 L215.00102,1.04475423 C214.976313,0.493022397 215.403551,0.0257265674 215.955283,0.00101978533 Z M229.994506,0.894621698 L231.445506,14.5766217 C231.50375,15.1258266 231.105747,15.6182614 230.556542,15.6765056 C230.007337,15.7347497 229.514903,15.3367473 229.456659,14.7875424 L228.005659,1.1055424 C227.947414,0.55633746 228.345417,0.0639026831 228.894622,0.00565854 C229.443827,-0.0525856031 229.936261,0.34541676 229.994506,0.894621698 Z" id="Jumper-details" fill="#5BA092"/></g><path d="M266.8781,0.5897 L316.6921,22.1137 C319.4801,23.3187 320.7751,26.5467 319.5941,29.3447 L276.4891,131.4167 C275.2151,134.4337 272.0241,136.1667 268.8001,135.5937 L214.8001,125.9927 C210.3171,125.1957 207.7451,120.4327 209.5371,116.2467 L257.4451,4.3487 C259.0071,0.7007 263.2351,-0.9843 266.8781,0.5897" id="Phone" fill="#010101"/><path d="M225.79,45.9365 C239.555,45.9365 226.045,65.4675 200.483,75.6925 C200.483,75.6925 216.056,77.5865 205.747,95.4075 C205.747,95.4075 215.063,103.1805 204.373,115.0325 C204.373,115.0325 215.032,126.7825 192.996,142.3745 C187.856,146.0115 178.581,143.8115 180.542,136.1075 C180.565,136.0165 180.54,135.9185 180.54,135.8235 L169.624,151.8775 L123.362,115.5985 C123.362,115.5985 136.459,74.0285 154.964,63.3815 C154.964,63.3815 212.025,45.9365 225.79,45.9365 Z M304.9723,36.5947 C304.9723,26.4417 312.6643,17.5187 316.3563,25.5187 C318.5593,30.2917 328.9723,55.6717 333.2793,64.5947 C337.5873,73.5187 358.3743,123.8397 358.3743,123.8397 L358.3743,123.8397 L297.5993,139.5237 C297.5993,139.5237 278.8683,132.8887 265.5903,107.7057 C265.5903,107.7057 243.0433,88.5597 237.8893,78.0467 C232.2023,66.4457 240.8753,66.3167 240.8753,66.3167 C234.0863,50.2867 249.7023,54.5477 249.7023,54.5477 C243.5393,45.2167 248.7123,41.2177 252.5683,41.9957 C261.5403,43.8057 281.4523,59.2017 281.4523,59.2017 C274.7183,51.4557 262.6643,44.0377 259.0873,35.2947 C251.9963,17.9617 272.1663,28.2367 281.2803,36.1007 C289.4323,43.1337 309.8953,60.9017 309.8953,60.9017 C309.8953,60.9017 304.9723,46.7487 304.9723,36.5947 Z" id="Skin" fill="#f7d3bb"/><path d="M204.320525,76.3065969 C208.428582,77.9494807 210.066593,81.3959225 209.734616,85.915278 C209.582483,87.9863357 209.026936,90.1760866 208.197264,92.3780105 C207.855417,93.2852628 207.48934,94.133589 207.122711,94.9009151 C207.088582,94.9723433 207.055073,95.041749 207.022238,95.1090801 C209.924458,97.2305424 211.250574,99.9831787 211.164366,103.161597 C211.088898,105.94406 209.952142,108.854539 208.115278,111.751555 C207.459063,112.786508 206.757161,113.747352 206.054623,114.611536 C205.901099,114.800383 205.754166,114.976373 205.615181,115.1388 C208.44866,118.3927 208.531143,123.416808 206.309042,128.960838 C204.075311,134.533886 199.765422,139.845915 195.505216,142.202859 C191.216064,144.57529 187.0137,145.490061 183.95775,144.630304 C180.482243,143.652509 178.844714,140.549995 179.553891,135.954335 C179.970834,133.251627 181.062367,130.971558 182.618332,129.098609 C183.840633,127.627299 185.071543,126.692074 185.930542,126.230091 C186.416944,125.968497 187.023314,126.15074 187.284909,126.637142 C187.546503,127.123544 187.36426,127.729914 186.877858,127.991509 C186.733295,128.069257 186.447072,128.25042 186.066464,128.5396 C185.417432,129.032724 184.765574,129.643749 184.156722,130.376637 C182.822913,131.982172 181.88956,133.931825 181.530502,136.259309 C180.96553,139.920482 182.075279,142.023047 184.4994,142.705046 C186.966731,143.399202 190.666117,142.593919 194.537102,140.452786 C198.365614,138.334676 202.380756,133.385929 204.452608,128.216762 C206.686291,122.643833 206.304455,117.941845 203.066663,115.478617 C200.66451,113.65082 196.887721,113.078562 192.107061,113.583661 C189.276792,113.882693 186.237769,114.543044 183.145783,115.456548 C181.622032,115.906729 180.184955,116.389186 178.879438,116.871294 C178.423482,117.039672 178.01699,117.195787 177.665535,117.335556 C177.456753,117.418585 177.314061,117.477133 177.243019,117.507114 C176.734191,117.721853 176.147625,117.483447 175.932886,116.974619 C175.718147,116.465791 175.956553,115.879225 176.465381,115.664486 C176.54897,115.629209 176.704494,115.565397 176.926464,115.477122 C177.292929,115.331385 177.714799,115.169364 178.186599,114.995135 C179.531817,114.498365 181.010485,114.001945 182.579112,113.538506 C185.778914,112.593149 188.932206,111.907968 191.896921,111.594731 C197.054858,111.049771 201.251081,111.664956 204.141687,113.785337 C204.254908,113.651321 204.376231,113.505543 204.502736,113.34993 C205.158418,112.543384 205.814735,111.644942 206.426191,110.680583 C208.087289,108.060776 209.101158,105.464928 209.165101,103.107371 C209.243251,100.226038 207.897203,97.8419082 204.726175,95.9959717 C201.343154,94.0269791 196.448947,93.6826763 190.440508,94.7145917 C186.761726,95.3464019 182.823678,96.4659268 178.798284,97.9341414 C176.516051,98.7665586 174.34885,99.6587703 172.368418,100.550626 C171.676125,100.86239 171.057085,101.151607 170.520211,101.410755 C170.200187,101.565231 169.980041,101.67464 169.868668,101.731463 C169.376713,101.982459 168.774433,101.787123 168.523437,101.295168 C168.272441,100.803213 168.467777,100.200933 168.959732,99.9499369 C169.083929,99.8865714 169.317221,99.7706284 169.650799,99.6096103 C170.203264,99.342936 170.838321,99.0462359 171.547182,98.7270116 C173.570047,97.8160463 175.781937,96.9054365 178.11297,96.0552203 C182.242739,94.5489363 186.29202,93.3977895 190.101976,92.7434509 C196.303909,91.678304 201.48574,91.9901124 205.319102,94.0370493 C205.661313,93.3204027 206.005058,92.5238276 206.325712,91.6728212 C207.093208,89.6359075 207.60374,87.6235895 207.73999,85.7687592 C208.013624,82.0436593 206.777726,79.443279 203.577793,78.1635701 C200.464364,76.9181343 195.283317,76.9290649 188.67342,77.9747221 C185.671653,78.4495888 182.478665,79.1213069 179.195762,79.9392384 C176.790553,80.5384934 174.47764,81.1807347 172.341782,81.8228247 C171.594787,82.0473895 170.923594,82.2557902 170.338761,82.4426344 C169.98929,82.5542844 169.747211,82.6336151 169.623068,82.6752348 C169.099428,82.8507887 168.532619,82.5686089 168.357065,82.0449685 C168.181511,81.5213281 168.463691,80.9545191 168.987332,80.7789652 C169.120286,80.7343912 169.371373,80.6521087 169.730103,80.5375003 C170.325607,80.3472471 171.007727,80.1354535 171.76599,79.9075014 C173.930872,79.2566861 176.274118,78.606022 178.712246,77.9985653 C182.048023,77.1674601 185.296569,76.4840542 188.360915,75.9992879 C195.30397,74.9009265 200.777661,74.8893785 204.320525,76.3065969 Z M241.316534,65.4196604 C241.418562,65.4697839 241.610088,65.5664803 241.885158,65.7093473 C242.339701,65.9454305 242.865853,66.2268678 243.457661,66.5532602 C245.144303,67.4834724 247.021926,68.5886282 249.042929,69.8655944 C254.814723,73.5124899 260.58604,77.8081413 265.976009,82.7292055 C270.173657,86.5616765 273.969953,90.6272875 277.268598,94.9209757 C277.605063,95.3589364 277.522785,95.9867327 277.084824,96.323198 C276.646864,96.6596633 276.019067,96.5773849 275.682602,96.1394243 C272.459013,91.9434329 268.742196,87.9629387 264.627501,84.2062054 C259.331027,79.3705016 253.652584,75.1439774 247.974618,71.556367 C245.988205,70.3012561 244.144656,69.2161562 242.491784,68.3045687 C241.914762,67.9863312 241.40328,67.7127406 240.963311,67.4842273 C240.701673,67.3483363 240.523467,67.2583647 240.434666,67.2147396 C239.938969,66.9712185 239.734539,66.3719635 239.97806,65.8762661 C240.221581,65.3805687 240.820836,65.1761394 241.316534,65.4196604 Z M250.062017,53.614446 C250.1594,53.6519294 250.342437,53.7244123 250.605433,53.8316714 C251.040191,54.0089805 251.54349,54.220609 252.109636,54.4663369 C253.723407,55.1667709 255.520029,56.0008852 257.453998,56.9669782 C262.97882,59.726843 268.503835,62.9934742 273.665584,66.755362 C278.158448,70.0297658 282.16827,73.5360854 285.570223,77.2724586 C285.942044,77.6808305 285.912413,78.3133018 285.504041,78.6851228 C285.095669,79.0569437 284.463198,79.0273133 284.091377,78.6189414 C280.786608,74.9893046 276.877159,71.5707543 272.487626,68.3716584 C267.423335,64.6807982 261.991879,61.4694831 256.56023,58.7561623 C254.659434,57.8066403 252.895203,56.9875644 251.313337,56.3009777 C250.76101,56.0612483 250.271378,55.8553663 249.850162,55.6835797 C249.599574,55.5813814 249.428808,55.5137579 249.343583,55.480954 C248.828161,55.2825639 248.571156,54.7039049 248.769546,54.1884829 C248.967936,53.673061 249.546595,53.4160559 250.062017,53.614446 Z M280.579399,57.1188675 C282.315946,58.0902766 284.046699,59.2156123 285.75762,60.4646189 C287.872392,62.0084444 289.850823,63.6606962 291.639774,65.3133454 C292.266516,65.8923359 292.825306,66.4305306 293.30937,66.9144132 C293.602068,67.2070022 293.806305,67.418092 293.915265,67.534155 C294.293273,67.9368063 294.273296,68.569656 293.870645,68.9476645 C293.467994,69.325673 292.835144,69.3056962 292.457135,68.903045 C292.362308,68.8020361 292.172749,68.606116 291.895421,68.3288912 C291.429439,67.863084 290.889508,67.3430531 290.282633,66.782416 C288.546961,65.1789862 286.626514,63.5751591 284.578376,62.0799776 C282.929429,60.8762131 281.265423,59.7942764 279.603001,58.8643325 C279.121004,58.5947077 278.948843,57.985398 279.218468,57.5034012 C279.488092,57.0214044 280.097402,56.8492428 280.579399,57.1188675 Z" id="Skin-shadows" fill="#d7a17c"/></g></g></g></g></svg>