<svg viewBox="142.86538461538464 112.04999999999995 360.26923076923055 373.50000000000006" xmlns="http://www.w3.org/2000/svg" xmlns:xlink="http://www.w3.org/1999/xlink" overflow="visible" width="360.26923076923055px" height="373.50000000000006px"><defs><path d="M109.349893,53.900161 C113.481551,52.981688 144.970514,5.75600247 146.214144,3.88880036 C163.157042,7.1710553 179.732671,12.3563028 194.5425,20.2265561 L194.534447,20.342795 C194.273846,24.1150757 187.81006,118.481216 192.9335,124.393556 L192.941093,124.461309 C193.187039,126.661869 199.30416,181.841416 196.1515,198.396556 C192.9335,215.288556 179.5055,194.246556 179.5055,194.246556 L179.493372,194.278417 C179.199722,195.046486 173.626713,209.436596 168.5975,208.598556 C163.4305,207.737556 153.3835,197.403556 153.3835,197.403556 L153.374748,197.427811 C153.092349,198.206414 146.00353,217.45697 136.1595,215.488556 C126.1125,213.478556 123.8155,199.700556 123.8155,199.700556 C123.8155,199.700556 117.2135,215.488556 106.8795,214.914556 C96.5455,214.339556 94.5365,201.708556 94.5365,201.708556 C94.5365,201.708556 89.6555,215.488556 82.1925,216.349556 C74.7285,217.210556 64.3945,208.598556 59.2275,197.977556 C59.2275,197.977556 50.9025,219.219556 42.2905,213.191556 C41.3568107,212.537941 40.5007296,211.820191 39.716404,211.0599 C38.9866857,200.963205 35.9000145,191.098032 30.4518,182.371756 C26.2618,175.660756 20.3978,169.075756 12.1968,163.637756 C8.56443049,161.228971 4.79906388,158.622963 0.984865847,155.901702 C7.45275655,123.762488 15.5945,89.4685561 15.5945,89.4685561 C15.5945,89.4685561 15.7187488,88.7027664 15.9150545,87.2866042 L15.9209033,87.2444839 C15.9621048,86.9466774 16.0064153,86.6206568 16.0533622,86.2674675 L16.061829,86.2036969 C16.1839431,85.2828267 16.3234572,84.1811093 16.4722231,82.9165641 L16.4762129,82.8821812 C16.5146429,82.5550785 16.5536843,82.2171401 16.593197,81.8686756 L16.6018125,81.7932123 C16.7332875,80.6308248 16.8698493,79.3525911 17.0063666,77.9698586 L17.0193919,77.8362484 C17.0468205,77.5570243 17.0742406,77.2735942 17.1016106,76.9860501 C17.128757,76.7024642 17.1557798,76.4140875 17.1827134,76.121777 C17.1986225,75.9473205 17.2146122,75.7720128 17.2305619,75.5953311 C17.2689523,75.1720346 17.3069484,74.7407762 17.3445977,74.301888 L17.384953,73.8245171 C17.40566,73.5783419 17.4262475,73.3298533 17.4466958,73.0790951 C17.854834,68.0780381 18.2074801,62.1723804 18.3471595,55.7119559 C18.3506244,55.5268887 18.3544335,55.3420453 18.3580655,55.1567582 C18.5346699,46.1832394 18.2952384,36.1692225 17.2242013,26.0345559 L17.2229827,26.0342045 C16.5169108,19.3418341 15.4469567,12.5964969 13.8945,6.06355607 C13.8945,6.06355607 33.2123494,1.99203002 60.8377697,0.000117687701 C62.7598027,2.37434943 105.22942,54.8149529 109.349893,53.900161 Z" id="mastercharacterbust-path-1"/></defs><g id="Master/Character/Bust" stroke="none" stroke-width="1" fill="none" fill-rule="evenodd"><g id="Head" transform="translate(210.000000, 86.000000) scale(1 1)"><g id="Head/Headphones" stroke="none" stroke-width="1" fill="none" fill-rule="evenodd"><g id="Headphones" transform="translate(0.000000, 38.000000)"><path d="M119.955,12.7337 C88.401,12.7337 62.822,35.4927 62.822,63.5677 C62.822,69.3147 63.91,74.8337 65.886,79.9857 C65.692,79.9797 65.501,79.9627 65.305,79.9627 C56.99,79.9627 50.249,85.5067 50.249,92.3467 C50.249,99.1877 56.99,104.7327 65.305,104.7327 C69.901,104.7327 74.011,103.0357 76.77,100.3627 C77.767,99.3977 79.308,99.2957 80.362,100.1977 C88.082,106.8067 97.879,111.5087 108.803,113.4337 C110.207,113.6807 111.199,114.9457 111.117,116.3687 L109.557,144 L135.996,144 L134.772,122.2317 C134.474,117.0447 137.512,112.1857 142.369,110.3397 C162.782,102.5867 177.088,84.5637 177.088,63.5677 C177.088,35.4927 151.509,12.7337 119.955,12.7337 Z" id="Skin" fill="#f7d3bb"/><path d="M35.5269245,36.223904 C67.3463341,-14.8696623 138.3478,3.0447 138.3478,3.0447 C152.436592,7.11465246 161.983944,13.5762952 168.394512,20.9280847 C185.585072,37.5893964 184.768203,66.4604869 184.8929,67.336 C186.7999,80.69 177.8559,106.187 187.7449,110.321 C209.6199,119.466 211.8009,132.77 211.8009,132.77 L135.46099,134.233 L134.772,122.2317 C134.474,117.0447 137.512,112.1857 142.369,110.3397 C161.118374,103.218557 174.715606,87.4331771 176.807378,68.6379296 C160.022984,53.7292432 149.6958,29.3877 149.6958,29.3877 C147.2638,51.2747 65.8858,79.9857 65.8858,79.9857 L65.886,79.9857 L65.8858,79.9857 C65.692,79.9797 65.501,79.9627 65.305,79.9627 C56.99,79.9627 50.249,85.5067 50.249,92.3467 C50.249,99.1877 56.99,104.7327 65.305,104.7327 C69.901,104.7327 74.011,103.0357 76.77,100.3627 C77.767,99.3977 79.308,99.2957 80.362,100.1977 C88.082,106.8067 97.879,111.5087 108.803,113.4337 C110.207,113.6807 111.199,114.9457 111.117,116.3687 L110.06399,134.719 L1.6499,136.798 C1.6499,136.798 -6.5041,102.584 13.4419,99.273 C28.6249,96.752 23.6189,81.041 24.9399,66.674 C26.4139,50.652 35.2109,36.285 35.2109,36.285 Z" id="Hair" fill="#94C0E9"/><g id="Accessory" transform="translate(33.943700, 0.544222)"><path d="M49.478,76.0498778 C49.478,90.8498778 38.402,102.846878 24.739,102.846878 C11.076,102.846878 3.19744231e-14,90.8498778 3.19744231e-14,76.0498778 C3.19744231e-14,61.2508778 11.076,49.2528778 24.739,49.2528778 C38.402,49.2528778 49.478,61.2508778 49.478,76.0498778" id="Fill-8" fill="#5BA092"/><path d="M37.6604,76.0498778 C37.6604,90.2568778 29.2304,101.774878 18.8304,101.774878 C8.4304,101.774878 0.0004,90.2568778 0.0004,76.0498778 C0.0004,61.8428778 8.4304,50.3258778 18.8304,50.3258778 C29.2304,50.3258778 37.6604,61.8428778 37.6604,76.0498778" id="Fill-10" fill="#2F6858"/><path d="M156.01,60.3848778 C156.01,60.3848778 157.659,16.9478778 112.024,4.30187779 C33.448,-17.4711222 16.354,50.4878778 16.354,50.4878778 L30.099,49.9378778 C30.099,49.9378778 48.729,4.28487779 111.749,13.0998778 C151.062,18.5978778 152.711,59.8348778 152.711,59.8348778 L156.01,60.3848778 Z" id="Fill-12" fill="#2F6858"/><path d="M150.3501,58.4521778 L148.3121,97.4981778 C148.3121,97.4981778 165.4841,100.498178 168.1061,84.8511778 C172.7361,57.2201778 150.3501,58.4521778 150.3501,58.4521778" id="Fill-14" fill="#2F6858"/><path d="M158.1731,59.7930778 C154.6981,58.7260778 150.3501,58.4520778 150.3501,58.4520778 L148.3121,97.4980778 C148.3121,97.4980778 152.2861,98.1870778 156.7011,97.1670778 L158.1731,59.7930778 Z" id="Fill-16" fill="#5BA092"/></g></g></g></g><g id="Face" transform="translate(299.000000, 177.000000) scale(1 1)"><g id="Face/Glasses" stroke="none" stroke-width="1" fill="none" fill-rule="evenodd"><g id="Glasses" transform="translate(1.000000, 8.000000)"><path d="M21.2142,-2.13162821e-14 C32.9215177,-2.13162821e-14 42.4282,9.25219371 42.4282,20.686 C42.4282,21.4351623 42.3873869,22.1749587 42.307816,22.9034003 L49.3351964,22.8869478 C49.3019215,22.3925382 49.285,21.8933837 49.285,21.3901 C49.285,9.98731464 57.9713029,0.7041 68.737,0.7041 C79.5033656,0.7041 88.189,9.98695743 88.189,21.3901 C88.189,32.7932426 79.5033656,42.0761 68.737,42.0761 C59.4281564,42.0761 51.6740035,35.1353637 49.7458309,25.8851038 L41.7472963,25.9059033 C39.3744023,34.8083762 31.0748805,41.372 21.2142,41.372 C9.50688233,41.372 0.0002,32.1198063 0.0002,20.686 C0.0002,9.25219371 9.50688233,-2.13162821e-14 21.2142,-2.13162821e-14 Z M68.737,3.7041 C59.6743591,3.7041 52.285,11.6012466 52.285,21.3901 C52.285,31.1789534 59.6743591,39.0761 68.737,39.0761 C77.8002817,39.0761 85.189,31.1793344 85.189,21.3901 C85.189,11.6008656 77.8002817,3.7041 68.737,3.7041 Z M21.2142,3 C11.1457922,3 3.0002,10.9275392 3.0002,20.686 C3.0002,30.4444608 11.1457922,38.372 21.2142,38.372 C31.2826078,38.372 39.4282,30.4444608 39.4282,20.686 C39.4282,10.9275392 31.2826078,3 21.2142,3 Z" id="Combined-Shape" fill="#F3705A"/><path d="M31.5916697,41.5163389 C31.3065036,40.7385395 31.7058618,39.8768358 32.4836611,39.5916697 C33.2614605,39.3065036 34.1231642,39.7058618 34.4083303,40.4836611 C34.4613851,40.6283697 34.5845696,40.9185521 34.7778641,41.3038508 C35.1046798,41.9553008 35.5020079,42.6069701 35.9660446,43.2082416 C38.2079414,46.1131596 40.9296782,46.7915247 44.7966085,44.0076513 C45.4689316,43.5236336 46.4063311,43.6762854 46.8903487,44.3486085 C47.3743664,45.0209316 47.2217146,45.9583311 46.5493915,46.4423487 C41.2508857,50.2568394 36.7507163,49.1352182 33.5910775,45.041144 C32.5784937,43.7290974 31.9263137,42.4290906 31.5916697,41.5163389 Z" id="Stroke-7" fill="#010101"/><path d="M18.3701,26.9805 C18.3701,24.6420469 19.7129415,22.7462707 21.3701,22.7462707 C23.0272585,22.7462707 24.3701,24.6420469 24.3701,26.9805 C24.3701,29.3189531 23.0272585,31.2147293 21.3701,31.2147293 C19.7129415,31.2147293 18.3701,29.3189531 18.3701,26.9805" id="Fill-9" fill="#010101"/><path d="M64.1553,26.9805 C64.1553,24.6420469 65.4981415,22.7462707 67.1553,22.7462707 C68.8108129,22.7462707 70.1553,24.6420469 70.1553,26.9805 C70.1553,29.3189531 68.8108129,31.2147293 67.1553,31.2147293 C65.4981415,31.2147293 64.1553,29.3189531 64.1553,26.9805" id="Fill-11" fill="#010101"/></g></g></g><g id="Body" transform="translate(25.000000, 48.000000) scale(1 1)"><defs><path d="M315.2343,89.2594 C298.4463,42.9814 250.1653,26.6194 212.8483,21.0144 C211.0723,17.1224 206.2683,6.9884 202.9423,3.6634 C198.7933,-0.4856 151.3883,0.8974 144.9343,3.2014 C138.4803,5.5074 136.2343,22.3544 136.2343,22.3544 C109.5983,27.2454 72.4313,37.7354 57.8263,58.9304 C39.9603,84.8614 16.9863,124.9114 7.1163,142.4104 C0.5203,154.1054 -1.7197,167.8634 1.3643,180.9314 C6.1133,201.0484 24.1283,224.8324 81.1563,230.0164 C183.8093,239.3484 278.6843,227.6844 278.6843,227.6844 C278.6843,227.6844 351.5633,231.5714 351.5633,194.2434 C351.5633,160.0184 315.2343,89.2594 315.2343,89.2594" id="bodylaptop-path-1"/></defs><g id="Body/Laptop" stroke="none" stroke-width="1" fill="none" fill-rule="evenodd"><g id="Body" transform="translate(121.000000, 198.000000)"><g id="Jumper"><mask id="bodylaptop-mask-2" fill="#ffffff"><use xlink:href="#bodylaptop-path-1" fill="#ffffff"/></mask><use fill="#F2B08F" xlink:href="#bodylaptop-path-1"/><g mask="url(#bodylaptop-mask-2)"><g transform="translate(-78.000000, 6.000000) scale(1 1)" id="Patterns"><g id="Patterns/Pattern 4" stroke="none" stroke-width="1" fill="none" fill-rule="evenodd"><path d="M44.0182254,93.5340618 C52.0762519,97.8410164 62.8281863,99.5580091 73.7432963,98.6961198 C84.9214172,86.0149568 98.2590604,74.9374286 113.525562,66.114744 C111.795813,50.5778981 112.596907,34.8919 115.921886,19.4921175 C119.566814,2.60622659 125.826132,-9.94555973 137.125727,-19.5201488 C141.682325,-23.3806561 146.282471,-25.6343501 151.410836,-25.8053688 C157.514804,-26.0092903 163.523098,-22.8919386 166.608532,-18.3025013 C169.049667,-14.671429 169.792206,-10.7934007 169.783037,-4.96317236 C169.750763,14.3555838 163.536422,33.5124984 152.079347,50.7359233 C169.215323,47.037986 187.016949,47.1020175 202.183477,51.3901057 C208.479788,39.2548243 216.994427,30.813456 229.101431,26.7877312 C243.703137,21.932588 262.357131,24.6509903 277.489768,32.7320135 C290.300029,39.5732087 299.218371,49.1243735 301.443832,59.4854 C304.070392,71.712639 297.233538,84.7957391 284.324539,94.4728077 C275.394203,101.166782 263.970886,106.32409 249.832614,110.488019 C253.172841,134.733065 249.125812,159.013945 237.759392,180.926682 C225.520642,204.524775 204.539835,221.735254 178.141554,225.962184 C153.639383,229.885425 126.269596,221.90624 105.733064,206.59389 C94.6043998,209.573522 82.9748652,210.950551 71.5300011,210.432991 C59.6847044,209.897381 48.2014373,207.31355 37.5830246,203.103165 C37.7137448,209.512773 38.6258562,214.810599 40.5947001,219.841804 C45.5275666,232.451976 58.634875,242.133846 75.7961417,245.229536 C76.8327059,245.416519 77.5208593,246.405268 77.3331755,247.437966 C77.1454917,248.470665 76.1530427,249.156252 75.1164785,248.969269 C56.7157903,245.650002 42.48382,235.137387 37.0404096,221.222083 C34.7134425,215.275726 33.7534971,209.080513 33.7509399,201.496814 C11.9881624,191.872732 -5.7205525,175.351613 -14.7688091,155.79636 C-23.4779655,136.975941 -23.3599294,118.176299 -12.4984613,103.540211 C-8.30374525,97.8880955 -2.707945,94.2154777 3.86147462,93.9654432 C11.1943751,93.6857725 17.0062161,97.2459731 23.47172,104.131127 C32.7503458,114.0124 41.5660698,124.123375 49.8991656,134.440352 C55.4065684,123.168154 62.2536876,112.490026 70.3416952,102.68498 C60.0251578,102.977926 50.0303579,101.060445 42.2147943,96.8830845 C33.1835805,92.0560845 27.4210711,84.8272679 24.3869137,75.4928301 C23.6714736,73.2918133 23.1126956,71.0115863 22.6958238,68.6269781 C15.4956378,70.2072486 8.0461095,70.6348461 0.515901309,69.7658747 C-0.530520844,69.6451196 -1.28055586,68.7020989 -1.15934878,67.6595789 C-1.03814171,66.617059 -0.091591195,65.8698209 0.954830958,65.990576 C8.14723448,66.8205654 15.2715334,66.3940787 22.161834,64.8488151 C21.6492564,60.1798774 21.6054316,55.1012565 21.9341307,49.4488013 C22.7130774,36.0528548 25.2621454,18.0540768 29.8335486,2.82171112 C37.0589335,-21.253983 48.0607288,-34.1763773 63.760381,-30.3293767 C72.7533757,-28.1242575 81.2667579,-18.4335411 83.2884367,-10.0552414 C87.1020447,5.75193498 79.291465,27.1526184 63.8974311,43.995379 C53.3378951,55.5486691 40.4043589,63.8209414 26.3890229,67.7097415 C28.3205825,79.565654 33.7073534,88.0231105 44.0182254,93.5340618 Z M75.6166802,102.344701 C66.2975055,113.125429 58.5574801,125.060813 52.5422838,137.740007 C56.7671237,143.058431 60.8642321,148.430475 64.8309404,153.852933 C66.2338928,155.770808 67.5143338,157.544148 69.7307156,160.630093 C70.5060141,161.709735 70.9066388,162.267578 71.2813341,162.788947 C85.85123,183.062175 94.1586138,192.850041 106.540183,202.426631 C119.611573,198.69858 131.905946,192.68579 142.195445,184.909797 C159.095899,172.137764 170.930261,155.019358 178.219156,134.610606 C179.934864,129.807456 181.302503,125.321446 182.711334,119.809936 C179.748704,119.753593 176.80406,119.629489 173.88046,119.436434 C155.326716,118.211448 140.287553,114.015541 130.487045,106.108456 C123.992784,100.868023 119.971152,94.3946889 117.316883,85.8457306 C107.074634,92.9865074 96.7217409,97.9691809 85.5639507,100.657476 C82.288734,101.446534 78.9523826,102.009491 75.6166802,102.344701 Z M132.887941,103.155032 C141.946863,110.463802 156.293061,114.466373 174.132732,115.644214 C177.279885,115.85203 180.452851,115.978291 183.6476,116.024513 C184.642745,111.876547 185.697839,107.103154 186.939871,101.266314 C187.066259,100.672218 187.066259,100.672218 187.192625,100.077941 C192.034489,77.3077942 194.845489,66.9961475 200.485065,54.8635529 C184.895127,50.6096228 166.3447,50.9616597 148.807022,55.4089399 C141.57849,65.22855 132.599673,74.3369562 122.05631,82.3838417 C121.568645,82.7560559 121.080972,83.1234088 120.593216,83.4858854 C123.041924,91.9878193 126.763539,98.2130503 132.887941,103.155032 Z M79.5166399,98.0000226 C81.2439957,97.71926 82.9642386,97.3737099 84.6672801,96.9634165 C95.7183966,94.3008231 105.992953,89.2573803 116.234936,81.9523263 C115.798927,80.1957113 115.407103,78.3584909 115.051708,76.434751 C114.669827,74.3673538 114.333295,72.2955549 114.042095,70.2203977 C101.015371,77.9311479 89.4554046,87.3362091 79.5166399,98.0000226 Z M181.813158,135.884738 C174.286716,156.958616 162.026111,174.693584 144.500902,187.937757 C134.569512,195.443119 122.856649,201.357261 110.371526,205.250336 C129.830472,218.861848 155.034987,225.812652 177.536217,222.209798 C202.642672,218.189717 222.652471,201.775753 234.370355,179.181965 C245.288412,158.133606 249.227766,134.838906 246.125812,111.540274 C244.330207,112.031643 242.493286,112.508705 240.614636,112.972471 C222.461805,117.453614 204.258379,119.82647 186.637569,119.845047 C185.119929,125.882014 183.667788,130.692674 181.813158,135.884738 Z M68.1796435,165.001465 C67.8045122,164.47949 67.4034403,163.921024 66.6283545,162.841678 C64.4180446,159.764188 63.1426757,157.997872 61.7480367,156.091361 C58.1911465,151.229122 54.5284064,146.407452 50.7617647,141.628709 C43.3409539,158.435912 38.907291,176.448615 37.7885672,194.742383 C37.6982764,196.218981 37.6343517,197.638424 37.5989416,199.007305 C48.2139241,203.396412 59.7680666,206.096698 71.7029708,206.636359 C81.7922612,207.092618 92.0402916,206.020427 101.934222,203.637615 C90.3976329,194.317503 82.0617035,184.317607 68.1796435,165.001465 Z M33.9808612,194.511273 C35.1677769,175.102406 39.9949994,156.004866 48.0905909,138.268706 C39.4756455,127.524248 30.3332954,117.001481 20.6859682,106.72756 C14.9069565,100.573455 9.94941352,97.5365783 4.00725378,97.7632073 C-1.24604488,97.9631498 -5.86501352,100.994657 -9.43105194,105.799669 C-19.369178,119.191531 -19.4781154,136.542012 -11.3044483,154.205242 C-2.85333004,172.46995 13.5764372,188.024304 33.8361044,197.362932 C33.8729331,196.433819 33.9213909,195.483838 33.9808612,194.511273 Z M282.030975,91.4358966 C293.863766,82.5655939 299.984539,70.8527947 297.713527,60.2807116 C295.758988,51.1810117 287.600615,42.4437407 275.687541,36.0816796 C261.418823,28.4620003 243.826246,25.8982756 230.309133,30.3927859 C219.464306,33.9988216 211.726365,41.5381068 205.885276,52.5391858 C208.577377,53.452293 211.172074,54.5081795 213.649129,55.7096784 C233.870467,65.5183273 245.285319,83.6154911 249.248616,106.695606 C262.750783,102.676391 273.618167,97.7419433 282.030975,91.4358966 Z M165.968355,-4.96931235 C165.97636,-10.1098725 165.359664,-13.3306681 163.439022,-16.1875327 C161.081805,-19.6937813 156.315844,-22.166559 151.53857,-22.0069597 C147.413646,-21.8694034 143.556999,-19.979963 139.597127,-16.6250227 C129.03151,-7.67236175 123.135269,4.15134575 119.651366,20.2912575 C116.527776,34.7582973 115.691061,49.481349 117.147017,64.084087 C121.4974,61.7183012 125.997011,59.5325951 130.640816,57.5411813 C135.756897,55.3472461 141.087074,53.5196659 146.522544,52.0736723 C159.096423,34.5762928 165.935142,14.8645954 165.968355,-4.96931235 Z M118.803466,75.7468525 C119.042111,77.0386287 119.297142,78.2865448 119.571099,79.4928339 C119.62619,79.450913 119.681283,79.408927 119.736377,79.366876 C128.549713,72.6403788 136.229625,65.1616249 142.664854,57.1480699 C139.083892,58.2702533 135.566762,59.5664434 132.149046,61.0320668 C127.12948,63.1846189 122.282419,65.5698882 117.614553,68.1690063 C117.941697,70.7002989 118.337991,73.2269045 118.803466,75.7468525 Z M190.924566,100.865596 C190.798184,101.459949 190.798184,101.459949 190.671698,102.054505 C189.509391,107.516679 188.50807,112.06114 187.564878,116.041241 C204.576826,115.941782 222.15382,113.614173 239.697148,109.283489 C241.700678,108.788895 243.654516,108.279216 245.559119,107.753298 C241.851877,85.5856315 231.092442,68.3978752 211.979227,59.1267373 C209.498949,57.9236751 206.8893,56.8741114 204.173443,55.9750685 C198.540728,67.9794751 195.772885,78.0650913 190.924566,100.865596 Z M61.0768202,41.4365737 C75.6921585,25.4457913 83.0597071,5.258996 79.5793261,-9.16697406 C77.8717115,-16.2437199 70.3567282,-24.7979667 62.8489833,-26.6388966 C49.8826769,-29.8161255 40.1953578,-18.4376774 33.4884438,3.91042063 C29.0171861,18.8090918 26.5058132,36.5417078 25.7425109,49.6686091 C25.4422644,54.8317811 25.4735803,59.567991 25.8964257,63.8956898 C38.9999593,60.1425496 51.1224904,52.3277018 61.0768202,41.4365737 Z" id="Pattern" fill="#010101"/></g></g></g><g mask="url(#bodylaptop-mask-2)"><g transform="translate(202.000000, 6.000000) scale(1 1)" id="Patterns"><g id="Patterns/Pattern 3" stroke="none" stroke-width="1" fill="none" fill-rule="evenodd"><path d="M195.45466,206.633988 L197.89474,216.33172 C198.096883,217.135107 197.609479,217.950249 196.806092,218.152392 C196.002706,218.354535 195.187563,217.867131 194.98542,217.063744 L192.54534,207.366012 C192.343197,206.562626 192.830602,205.747483 193.633988,205.54534 C194.437374,205.343197 195.252517,205.830602 195.45466,206.633988 Z M47.7680749,205.845845 L48.7957744,215.792897 C48.8809118,216.616937 48.2819123,217.353972 47.4578716,217.439109 C46.6338309,217.524247 45.8967963,216.925247 45.8116589,216.101206 L44.7839594,206.154155 C44.698822,205.330114 45.2978215,204.59308 46.1218622,204.507942 C46.945903,204.422805 47.6829375,205.021804 47.7680749,205.845845 Z M126.394944,212.020112 C126.660204,212.804923 126.239024,213.656174 125.454213,213.921434 L115.980703,217.123405 C115.195892,217.388665 114.344641,216.967485 114.079381,216.182674 C113.814121,215.397863 114.235301,214.546612 115.020112,214.281352 L124.493622,211.079381 C125.278433,210.814121 126.129684,211.235301 126.394944,212.020112 Z M12.4500167,202.041912 C12.703235,202.83069 12.2690774,203.675396 11.4802986,203.928614 L1.9588961,206.985229 C1.17011729,207.238447 0.325411757,206.80429 0.0721934812,206.015511 C-0.181024795,205.226732 0.253132797,204.382027 1.0419116,204.128808 L10.5633141,201.072193 C11.3520929,200.818975 12.1967984,201.253133 12.4500167,202.041912 Z M241.946268,180.749006 L243.796279,190.57639 C243.949539,191.390517 243.413801,192.174739 242.599673,192.327999 C241.785546,192.481259 241.001324,191.94552 240.848064,191.131393 L238.998053,181.30401 C238.844793,180.489883 239.380532,179.705661 240.194659,179.552401 C241.008786,179.399141 241.793008,179.934879 241.946268,180.749006 Z M73.8114171,177.417295 C74.1332364,178.180658 73.7752941,179.060373 73.0119306,179.382192 L63.797318,183.266895 C63.0339545,183.588714 62.15424,183.230772 61.8324207,182.467408 C61.5106014,181.704044 61.8685437,180.82433 62.6319072,180.502511 L71.8465198,176.617808 C72.6098833,176.295989 73.4895978,176.653931 73.8114171,177.417295 Z M182.869662,179.526508 C183.698089,179.526508 184.369662,180.198081 184.369662,181.026508 C184.369662,181.854935 183.698089,182.526508 182.869662,182.526508 L172.869662,182.526508 C172.041235,182.526508 171.369662,181.854935 171.369662,181.026508 C171.369662,180.198081 172.041235,179.526508 172.869662,179.526508 L182.869662,179.526508 Z M222.516424,167.357557 C223.047348,167.993491 222.962221,168.939416 222.326287,169.470339 L214.649891,175.879157 C214.013958,176.410081 213.068033,176.324954 212.537109,175.68902 C212.006185,175.053087 212.091313,174.107162 212.727246,173.576238 L220.403642,167.167421 C221.039576,166.636497 221.9855,166.721624 222.516424,167.357557 Z M139.45466,161.633988 L141.89474,171.33172 C142.096883,172.135107 141.609479,172.950249 140.806092,173.152392 C140.002706,173.354535 139.187563,172.867131 138.98542,172.063744 L136.54534,162.366012 C136.343197,161.562626 136.830602,160.747483 137.633988,160.54534 C138.437374,160.343197 139.252517,160.830602 139.45466,161.633988 Z M276.44646,166.884884 C276.519546,167.710081 275.909839,168.438282 275.084642,168.511368 L265.123633,169.393588 C264.298437,169.466673 263.570235,168.856966 263.497149,168.031769 C263.424064,167.206572 264.033771,166.478371 264.858968,166.405285 L274.819976,165.523065 C275.645173,165.44998 276.373375,166.059687 276.44646,166.884884 Z M103.946268,151.749006 L105.796279,161.57639 C105.949539,162.390517 105.413801,163.174739 104.599673,163.327999 C103.785546,163.481259 103.001324,162.94552 102.848064,162.131393 L100.998053,152.30401 C100.844793,151.489883 101.380532,150.705661 102.194659,150.552401 C103.008786,150.399141 103.793008,150.934879 103.946268,151.749006 Z M44.8696624,150.526508 C45.6980895,150.526508 46.3696624,151.198081 46.3696624,152.026508 C46.3696624,152.854935 45.6980895,153.526508 44.8696624,153.526508 L34.8696624,153.526508 C34.0412352,153.526508 33.3696624,152.854935 33.3696624,152.026508 C33.3696624,151.198081 34.0412352,150.526508 34.8696624,150.526508 L44.8696624,150.526508 Z M84.5164242,138.357557 C85.047348,138.993491 84.9622209,139.939416 84.3262874,140.470339 L76.6498913,146.879157 C76.0139578,147.410081 75.0680331,147.324954 74.5371093,146.68902 C74.0061854,146.053087 74.0913126,145.107162 74.727246,144.576238 L82.4036421,138.167421 C83.0395756,137.636497 83.9855003,137.721624 84.5164242,138.357557 Z M6.45465982,130.633988 L8.89474012,140.33172 C9.09688299,141.135107 8.60947878,141.950249 7.80609235,142.152392 C7.00270591,142.354535 6.18756335,141.867131 5.98542048,141.063744 L3.54534018,131.366012 C3.34319731,130.562626 3.83060152,129.747483 4.63398795,129.54534 C5.43737439,129.343197 6.25251695,129.830602 6.45465982,130.633988 Z M170.66012,130.500544 L173.319399,140.140474 C173.539701,140.939072 173.0709,141.765053 172.272302,141.985355 C171.473704,142.205657 170.647722,141.736855 170.427421,140.938257 L167.768141,131.298328 C167.54784,130.49973 168.016641,129.673749 168.815239,129.453447 C169.613837,129.233145 170.439818,129.701947 170.66012,130.500544 Z M138.44646,137.884884 C138.519546,138.710081 137.909839,139.438282 137.084642,139.511368 L127.123633,140.393588 C126.298437,140.466673 125.570235,139.856966 125.497149,139.031769 C125.424064,138.206572 126.033771,137.478371 126.858968,137.405285 L136.819976,136.523065 C137.645173,136.44998 138.373375,137.059687 138.44646,137.884884 Z M241.356156,115.78782 L249.860434,121.048737 C250.564952,121.484565 250.782767,122.408998 250.346938,123.113516 C249.91111,123.818033 248.986676,124.035849 248.282159,123.60002 L239.77788,118.339103 C239.073363,117.903274 238.855548,116.978841 239.291376,116.274324 C239.727205,115.569806 240.651638,115.351991 241.356156,115.78782 Z M204.768075,109.879074 L205.795774,119.826126 C205.880912,120.650167 205.281912,121.387201 204.457872,121.472338 C203.633831,121.557476 202.896796,120.958476 202.811659,120.134436 L201.783959,110.187384 C201.698822,109.363343 202.297822,108.626309 203.121862,108.541171 C203.945903,108.456034 204.682937,109.055034 204.768075,109.879074 Z M32.6601202,101.500544 L35.3193993,111.140474 C35.5397012,111.939072 35.0708997,112.765053 34.2723018,112.985355 C33.4737039,113.205657 32.6477224,112.736855 32.4274205,111.938257 L29.7681415,102.298328 C29.5478396,101.49973 30.0166411,100.673749 30.815239,100.453447 C31.6138369,100.233145 32.4398183,100.701947 32.6601202,101.500544 Z M167.949613,100.578387 C168.202831,101.367166 167.768674,102.211872 166.979895,102.46509 L157.458492,105.521705 C156.669713,105.774923 155.825008,105.340765 155.57179,104.551987 C155.318571,103.763208 155.752729,102.918502 156.541508,102.665284 L166.06291,99.6086691 C166.851689,99.3554508 167.696395,99.7896084 167.949613,100.578387 Z M280.394944,100.020112 C280.660204,100.804923 280.239024,101.656174 279.454213,101.921434 L269.980703,105.123405 C269.195892,105.388665 268.344641,104.967485 268.079381,104.182674 C267.814121,103.397863 268.235301,102.546612 269.020112,102.281352 L278.493622,99.0793813 C279.278433,98.8141214 280.129684,99.2353009 280.394944,100.020112 Z M103.356156,86.7878196 L111.860434,92.0487366 C112.564952,92.4845653 112.782767,93.4089984 112.346938,94.1135159 C111.91111,94.8180334 110.986676,95.0358488 110.282159,94.6000201 L101.77788,89.3391031 C101.073363,88.9032745 100.855548,87.9788413 101.291376,87.2743238 C101.727205,86.5698063 102.651638,86.3519909 103.356156,86.7878196 Z M66.7680749,80.8790743 L67.7957744,90.8261258 C67.8809118,91.6501665 67.2819123,92.387201 66.4578716,92.4723384 C65.6338309,92.5574759 64.8967963,91.9584764 64.8116589,91.1344356 L63.7839594,81.1873841 C63.698822,80.3633434 64.2978215,79.6263089 65.1218622,79.5411715 C65.945903,79.4560341 66.6829375,80.0550335 66.7680749,80.8790743 Z M145.893961,80.5529336 C146.159221,81.3377448 145.738041,82.1889957 144.95323,82.4542556 L135.479721,85.6562265 C134.694909,85.9214864 133.843659,85.5003069 133.578399,84.7154957 C133.313139,83.9306844 133.734318,83.0794336 134.519129,82.8141736 L143.992639,79.6122028 C144.77745,79.3469428 145.628701,79.7681223 145.893961,80.5529336 Z M230.811417,73.4172946 C231.133236,74.1806581 230.775294,75.0603726 230.011931,75.3821919 L220.797318,79.2668945 C220.033955,79.5887138 219.15424,79.2307715 218.832421,78.467408 C218.510601,77.7040445 218.868544,76.82433 219.631907,76.5025107 L228.84652,72.6178081 C229.609883,72.2959888 230.489598,72.6539311 230.811417,73.4172946 Z M29.9496128,71.5783872 C30.2028311,72.367166 29.7686735,73.2118715 28.9798947,73.4650898 L19.4584922,76.5217048 C18.6697134,76.7749231 17.8250079,76.3407655 17.5717896,75.5519867 C17.3185714,74.7632079 17.7527289,73.9185023 18.5415078,73.6652841 L28.0629102,70.6086691 C28.851689,70.3554508 29.6963946,70.7896084 29.9496128,71.5783872 Z M179.492058,54.8458451 L180.519757,64.7928966 C180.604895,65.6169373 180.005895,66.3539718 179.181854,66.4391092 C178.357814,66.5242467 177.620779,65.9252472 177.535642,65.1012064 L176.507942,55.1541549 C176.422805,54.3301142 177.021804,53.5930797 177.845845,53.5079423 C178.669886,53.4228049 179.40692,54.0218043 179.492058,54.8458451 Z M260.946268,47.7490065 L262.796279,57.5763896 C262.949539,58.3905167 262.413801,59.1747388 261.599673,59.3279987 C260.785546,59.4812586 260.001324,58.94552 259.848064,58.1313929 L257.998053,48.3040098 C257.844793,47.4898827 258.380532,46.7056606 259.194659,46.5524006 C260.008786,46.3991407 260.793008,46.9348794 260.946268,47.7490065 Z M92.8114171,44.4172946 C93.1332364,45.1806581 92.7752941,46.0603726 92.0119306,46.3821919 L82.797318,50.2668945 C82.0339545,50.5887138 81.15424,50.2307715 80.8324207,49.467408 C80.5106014,48.7040445 80.8685437,47.82433 81.6319072,47.5025107 L90.8465198,43.6178081 C91.6098833,43.2959888 92.4895978,43.6539311 92.8114171,44.4172946 Z M165.020677,22.4008098 L172.348612,29.2053208 C172.955678,29.7690249 172.990829,30.7181216 172.427125,31.3251876 C171.863421,31.9322536 170.914324,31.9674054 170.307258,31.4037012 L162.979323,24.5991902 C162.372257,24.0354861 162.337106,23.0863894 162.90081,22.4793234 C163.464514,21.8722573 164.413611,21.8371056 165.020677,22.4008098 Z M120.474107,13.7224984 L122.324118,23.5498815 C122.477378,24.3640086 121.94164,25.1482307 121.127513,25.3014906 C120.313386,25.4547505 119.529163,24.9190119 119.375904,24.1048848 L117.525893,14.2775016 C117.372633,13.4633746 117.908371,12.6791525 118.722498,12.5258925 C119.536625,12.3726326 120.320848,12.9083713 120.474107,13.7224984 Z M63.8696624,17.5265081 C64.6980895,17.5265081 65.3696624,18.198081 65.3696624,19.0265081 C65.3696624,19.8549352 64.6980895,20.5265081 63.8696624,20.5265081 L53.8696624,20.5265081 C53.0412352,20.5265081 52.3696624,19.8549352 52.3696624,19.0265081 C52.3696624,18.198081 53.0412352,17.5265081 53.8696624,17.5265081 L63.8696624,17.5265081 Z M19.9550164,1.13434449 L22.3950967,10.8320766 C22.5972395,11.635463 22.1098353,12.4506056 21.3064489,12.6527485 C20.5030625,12.8548913 19.6879199,12.3674871 19.485777,11.5641007 L17.0456967,1.86636858 C16.8435539,1.06298215 17.3309581,0.247839592 18.1343445,0.0456967215 C18.9377309,-0.156446149 19.7528735,0.33095806 19.9550164,1.13434449 Z M235.596805,5.41729461 C235.918624,6.18065811 235.560682,7.06037259 234.797318,7.38219189 L225.582705,11.2668945 C224.819342,11.5887138 223.939627,11.2307715 223.617808,10.467408 C223.295989,9.7040445 223.653931,8.82433002 224.417295,8.50251072 L233.631907,4.61780811 C234.395271,4.29598881 235.274985,4.65393111 235.596805,5.41729461 Z" id="Pattern" fill="#010101"/></g></g></g><path d="M181.784959,140.636451 C182.031913,141.130447 181.831646,141.731106 181.337649,141.978059 L170.201649,147.545059 C169.707653,147.792013 169.106994,147.591746 168.860041,147.097749 C168.613087,146.603753 168.813354,146.003094 169.307351,145.756141 L180.443351,140.189141 C180.937347,139.942187 181.538006,140.142454 181.784959,140.636451 Z M99.7242518,101.379471 C100.15389,101.7265 100.220858,102.356113 99.8738294,102.785752 L91.8838294,112.677752 C91.5368003,113.10739 90.9071868,113.174358 90.4775482,112.827329 C90.0479097,112.4803 89.9809416,111.850687 90.3279706,111.421048 L98.3179706,101.529048 C98.6649997,101.09941 99.2946132,101.032442 99.7242518,101.379471 Z M254.499332,101.050241 L258.304332,111.322241 C258.496173,111.840136 258.231854,112.415491 257.713959,112.607332 C257.196064,112.799173 256.620709,112.534854 256.428868,112.016959 L252.623868,101.744959 C252.432027,101.227064 252.696346,100.651709 253.214241,100.459868 C253.732136,100.268027 254.307491,100.532346 254.499332,101.050241 Z M195.845788,1.39987497 L200.080788,20.457875 C200.200593,20.9970089 199.860659,21.5311839 199.321525,21.6509883 C198.782391,21.7707927 198.248216,21.4308589 198.128412,20.891725 L193.893412,1.83372503 C193.773607,1.29459114 194.113541,0.760416123 194.652675,0.640611735 C195.191809,0.520807346 195.725984,0.860741074 195.845788,1.39987497 Z M153.485137,1.21342345 C154.026694,1.32174679 154.3779,1.84857928 154.269577,2.39013676 L150.611577,20.6781368 C150.503253,21.2196942 149.976421,21.5708999 149.434863,21.4625766 C148.893306,21.3542532 148.5421,20.8274207 148.650423,20.2858632 L152.308423,1.99786324 C152.416747,1.45630577 152.943579,1.10510011 153.485137,1.21342345 Z M169.874824,0.231569036 C170.42685,0.248482413 170.860644,0.70969867 170.843731,1.26172438 L170.265731,20.1267244 C170.248818,20.6787501 169.787601,21.1125443 169.235576,21.095631 C168.68355,21.0787176 168.249756,20.6175013 168.266669,20.0654756 L168.844669,1.20047562 C168.861582,0.648449913 169.322799,0.214655659 169.874824,0.231569036 Z M184.509504,1.15909758 L185.857504,19.8320976 C185.89727,20.3829489 185.482954,20.8617386 184.932102,20.9015045 C184.381251,20.9412703 183.902461,20.5269537 183.862696,19.9761024 L182.514696,1.30310242 C182.47493,0.75225115 182.889246,0.273461382 183.440098,0.233695543 C183.990949,0.193929704 184.469739,0.608246308 184.509504,1.15909758 Z" id="Jumper-Details" fill="#E58857"/></g><g id="Laptop" transform="translate(73.401300, 111.997700)"><polygon id="Fill-4" fill="#B9B3B8" points="-7.10542736e-14 -7.10542736e-15 224.968 -7.10542736e-15 203.762 123.087 14.752 123.087"/><path d="M103.877896,32.2903719 C103.993012,32.4081 104.203517,32.6289895 104.495829,32.944619 C104.979952,33.4673608 105.518603,34.0678982 106.098211,34.7378478 C107.753135,36.6507202 109.407824,38.7396041 110.953901,40.9384454 C113.595735,44.6956789 115.643522,48.379943 116.866167,51.8636536 C117.621221,54.0150456 118.046274,56.054027 118.102468,57.964093 C118.10616,58.0895924 118.086564,58.2103704 118.047593,58.3222784 C122.293674,59.0523168 125.305723,63.4175059 124.8652,68.3808 C124.4042,73.5748 120.3352,77.4578 115.7772,77.0528 C111.2192,76.6478 107.8992,72.1088 108.3602,66.9138 C108.777276,62.2257616 112.133161,58.6053438 116.13532,58.243551 C116.116439,58.1741347 116.10559,58.0996583 116.103332,58.022907 C116.053683,56.3352917 115.670022,54.4948688 114.979016,52.5259689 C113.825755,49.2399534 111.862636,45.7080207 109.317849,42.0888073 C107.813249,39.9489564 106.199356,37.9115732 104.585699,36.0463996 L104.491451,35.9376614 L104.491451,35.9376614 C104.474047,39.374038 103.432421,43.8409506 101.563692,49.158228 C100.719089,51.5614574 99.7213865,54.0850176 98.6020397,56.6869463 C97.3240491,59.6576436 95.9555429,62.5760025 94.5869606,65.3193525 C94.1078248,66.2797895 93.6627462,67.1500475 93.2630439,67.914716 C93.1228946,68.1828348 92.9983446,68.4187547 92.8908095,68.6205471 C92.8258888,68.7423723 92.7813413,68.8252312 92.7570159,68.870108 L92.6991694,68.9625185 C96.4981278,70.0788611 99.2891,73.7956667 99.2891,78.209 C99.2891,83.505 95.2701,87.799 90.3131,87.799 C85.3561,87.799 81.3381,83.505 81.3381,78.209 C81.3381,72.913 85.3561,68.62 90.3131,68.62 C90.5138667,68.62 90.7130946,68.6270422 90.9105792,68.6409079 C90.8486699,68.4065934 90.8734982,68.147985 90.9987841,67.916892 C91.08715,67.7538987 91.2548673,67.4391731 91.4905828,66.988227 C91.8846062,66.2344231 92.3239648,65.3753492 92.7972999,64.4265397 C94.150063,61.7148998 95.5029022,58.8299509 96.7648339,55.8965824 C97.867169,53.3341975 98.8484032,50.8522925 99.6768264,48.4950992 C102.067989,41.6912899 103.02962,36.370106 102.196678,33.2472119 C101.931635,32.2535024 103.158879,31.5550349 103.877896,32.2903719 Z" id="Combined-Shape" fill="#F4F0F0"/></g></g></g></g></g></svg>