<svg viewBox="72.67500000000007 84.61250000000007 605.625 701.075" xmlns="http://www.w3.org/2000/svg" xmlns:xlink="http://www.w3.org/1999/xlink" overflow="visible" width="605.625px" height="701.075px"><defs><path d="M275.684414,0.876652922 C298.838059,1.54914435 329.906472,9.13626937 355.7471,15.2297529 L355.731944,15.2730262 C397.943463,24.6870841 452.971125,41.5664426 466.9347,60.6071529 C489.4187,91.2671529 484.8307,126.127153 444.6317,165.644153 C415.2977,194.481153 386.9717,210.585153 372.4107,216.074153 C363.858947,207.086013 354.27259,195.452866 345.166172,184.184251 L345.5431,187.063753 C345.8052,205.151453 195.8084,217.517053 146.0664,197.369053 L149.907924,169.277823 C138.376043,183.58138 125.055547,200.37944 113.5941,212.425753 C99.0331,206.935753 70.7081,190.832753 41.3741,161.994753 C1.1741,122.477753 -11.4139,87.6187529 11.0701,56.9587529 C23.1971,40.4207529 69.0261,26.2177529 108.6751,16.6397529 C108.048715,16.8278037 108.709162,16.7365391 110.005927,16.5033439 C127.558487,12.2104677 191.200137,-1.57717031 275.684414,0.876652922 Z M162.310363,78.5613735 L87.8171,104.583753 C87.8171,104.583753 122.608609,134.324697 151.917069,154.584908 L162.310363,78.5613735 Z M332.466363,87.1363735 L341.108096,153.169863 C367.388419,133.830342 393.927617,109.395078 395.144211,108.27232 L395.1877,108.232153 L332.466363,87.1363735 Z" id="mastercharactersitting-path-1"/></defs><g id="Master/Character/Sitting" stroke="none" stroke-width="1" fill="none" fill-rule="evenodd"><g id="Bottom/Sitting" transform="translate(15.000000, 331.000000) scale(1 1)"><g id="Bottom/Sitting/Crossed 2" stroke="none" stroke-width="1" fill="none" fill-rule="evenodd"><g id="Crossed-2" transform="translate(65.000000, 110.000000)"><path d="M391,1.27329258e-11 L390.997181,10.5384946 C495.782485,19.8364681 658.933713,135.817305 559.020137,202 C495.735188,243.919914 467.03552,256.218825 428.053462,264.342361 L433.7133,307.3983 C418.7113,314.5763 407.1923,304.6803 399.6803,293.7943 C391.592301,282.075585 378.324742,275.081413 364.160606,275.246339 C354.385891,276.873514 343.720753,278.715149 331.9524,280.8944 L207.3214,297.2714 C183.8134,300.3604 161.0514,307.6044 140.0384,318.5884 C124.0334,326.9544 105.9864,335.5164 98.0924,336.1484 C82.3804,337.4054 81.7514,324.2074 81.7514,324.2074 L120.742214,261.014568 C115.140248,259.565605 109.761285,257.993605 104.6483,256.2893 C-63.2741842,173.510753 -28.4914464,92.2600912 208.996513,12.537314 L209,1.27329258e-11 L391,1.27329258e-11 Z M302.482523,166.892858 L301.670242,166.931682 C301.148326,167.009127 300.594729,167.057489 300.008662,167.075931 C257.903962,168.400884 201.2083,174.2053 201.2083,174.2053 L201.2083,174.2053 L306.449591,197.282008 C365.990085,182.982394 417.698345,169.388862 414.5854,166.2764 C411.68265,163.3728 327.632313,166.030283 302.482523,166.892858 Z" id="Pants" fill="#010101"/><path d="M165.0741,229.5837 C159.8881,256.8617 155.4651,284.6597 152.7191,312.5137 C148.4301,314.3917 144.1981,316.4137 140.0381,318.5877 C124.0331,326.9547 105.9861,335.5167 98.0921,336.1487 C82.69434,337.38056 81.7822932,324.729838 81.7519704,324.223316 L81.7511,324.2077 L131.3351,243.8467 C134.5841,238.5817 139.8561,234.8917 145.9171,233.6487 C150.5951,232.6887 157.1241,231.3037 165.0741,229.5837 Z M427.296427,258.594457 L433.7131,307.3986 C418.7111,314.5766 407.1921,304.6796 399.6801,293.7946 C391.3041,281.6586 377.3731,274.5886 362.6451,275.2916 C361.731028,275.335075 360.796899,275.378598 359.843446,275.422064 C385.256117,270.13175 407.613986,264.563476 427.296427,258.594457 Z" id="Shoes" fill="#2F6858"/><path d="M165.0744,229.5832 C159.8874,256.8612 155.4654,284.6592 152.7194,312.5142 C170.0954,304.9052 188.4684,299.7492 207.3214,297.2712 L243.8774,292.4682 C235.6014,267.5102 226.9904,242.6442 217.6254,217.9292 C197.2734,222.5262 178.9934,226.5692 165.0744,229.5832" id="Skin" fill="#f7d3bb"/><path d="M306.344594,197.306556 C306.473467,197.843594 306.142583,198.383422 305.605544,198.512294 C278.468119,205.024424 248.053045,212.079783 217.845568,218.904317 C217.30686,219.026023 216.771489,218.687976 216.649783,218.149268 C216.528077,217.61056 216.866124,217.075189 217.404832,216.953483 C247.604145,210.130794 278.010734,203.077403 305.138856,196.567506 C305.675894,196.438633 306.215722,196.769517 306.344594,197.306556 Z M164.980418,165.392645 L201.418418,173.227645 C201.958362,173.343746 202.301955,173.875574 202.185855,174.415518 C202.069754,174.955462 201.537926,175.299055 200.997982,175.182955 L164.559982,167.347955 C164.020038,167.231854 163.676445,166.700026 163.792545,166.160082 C163.908646,165.620138 164.440474,165.276545 164.980418,165.392645 Z M436.218831,161.02051 C436.34922,161.557182 436.019862,162.097942 435.48319,162.228331 L414.82119,167.248331 C414.284518,167.37872 413.743758,167.049362 413.613369,166.51269 C413.48298,165.976018 413.812338,165.435258 414.34901,165.304869 L435.01101,160.284869 C435.547682,160.15448 436.088442,160.483838 436.218831,161.02051 Z" id="Pants-details" fill="#B9B3B8"/></g></g></g><g id="Head" transform="translate(247.000000, 64.000000) scale(1 1)"><g id="Head/Buns" stroke="none" stroke-width="1" fill="none" fill-rule="evenodd"><g id="Buns" transform="translate(27.000000, 22.000000)"><path d="M35.4491,120.8545 C40.0451,120.8545 44.1551,119.1565 46.9151,116.4835 C47.9131,115.5165 49.4561,115.4195 50.5131,116.3225 C58.2311,122.9305 68.0261,127.6305 78.9481,129.5545 C80.3511,129.8015 81.3431,131.0665 81.2611,132.4895 L79.7011,160 L106.1401,160 L104.9161,138.3525 C104.5871,132.6145 108.9481,127.1025 114.6151,126.1435 C134.2491,122.8215 146.2771,107.3665 146.0801,84.6945 C145.8051,53.1185 117.1561,33.6915 85.6021,33.6915 C54.0481,33.6915 32.9661,51.6145 32.9661,79.6885 C32.9661,84.9065 33.8621,89.9345 35.5061,94.6715 C35.7431,95.3555 35.2641,96.0695 34.5411,96.0815 C30.4321,96.1535 20.3401,96.9535 20.392892,108.4685 C20.4251,115.3085 27.1341,120.8545 35.4491,120.8545 Z" id="Skin" fill="#f7d3bb"/><path d="M132.7754,44.9803 C143.4384,42.3773 151.2944,33.4693 151.2944,22.8763 C151.2944,10.2423 140.1214,0.0003 126.3384,0.0003 C112.5564,0.0003 101.3824,10.2423 101.3824,22.8763 C101.3824,25.2653 101.7834,27.5673 102.5244,29.7323 C85.4174,25.8243 67.3114,28.1113 51.9224,37.1073 C51.2374,37.5073 50.5604,37.9263 49.8864,38.3543 C49.8994,38.0483 49.9114,37.7433 49.9114,37.4343 C49.9114,24.7993 38.7384,14.5573 24.9564,14.5573 C11.1724,14.5573 0.0004,24.7993 0.0004,37.4343 C0.0004,50.0683 11.1724,60.3103 24.9564,60.3103 C27.3774,60.3103 29.7144,59.9883 31.9274,59.3983 C28.7124,68.5443 29.0184,80.0993 35.5054,94.6713 C35.5054,94.6713 67.0684,89.4253 94.1044,52.5113 C94.1044,52.5113 134.1374,72.2683 144.5354,76.9473 C144.5354,76.9473 148.4014,59.7483 132.7754,44.9803" id="Hair" fill="#B9B3B8"/></g></g></g><g id="Face" transform="translate(321.000000, 155.000000) scale(1 1)"><g id="Face/Glasses" stroke="none" stroke-width="1" fill="none" fill-rule="evenodd"><g id="Glasses" transform="translate(1.000000, 8.000000)"><path d="M21.2142,-2.13162821e-14 C32.9215177,-2.13162821e-14 42.4282,9.25219371 42.4282,20.686 C42.4282,21.4351623 42.3873869,22.1749587 42.307816,22.9034003 L49.3351964,22.8869478 C49.3019215,22.3925382 49.285,21.8933837 49.285,21.3901 C49.285,9.98731464 57.9713029,0.7041 68.737,0.7041 C79.5033656,0.7041 88.189,9.98695743 88.189,21.3901 C88.189,32.7932426 79.5033656,42.0761 68.737,42.0761 C59.4281564,42.0761 51.6740035,35.1353637 49.7458309,25.8851038 L41.7472963,25.9059033 C39.3744023,34.8083762 31.0748805,41.372 21.2142,41.372 C9.50688233,41.372 0.0002,32.1198063 0.0002,20.686 C0.0002,9.25219371 9.50688233,-2.13162821e-14 21.2142,-2.13162821e-14 Z M68.737,3.7041 C59.6743591,3.7041 52.285,11.6012466 52.285,21.3901 C52.285,31.1789534 59.6743591,39.0761 68.737,39.0761 C77.8002817,39.0761 85.189,31.1793344 85.189,21.3901 C85.189,11.6008656 77.8002817,3.7041 68.737,3.7041 Z M21.2142,3 C11.1457922,3 3.0002,10.9275392 3.0002,20.686 C3.0002,30.4444608 11.1457922,38.372 21.2142,38.372 C31.2826078,38.372 39.4282,30.4444608 39.4282,20.686 C39.4282,10.9275392 31.2826078,3 21.2142,3 Z" id="Combined-Shape" fill="#F3705A"/><path d="M31.5916697,41.5163389 C31.3065036,40.7385395 31.7058618,39.8768358 32.4836611,39.5916697 C33.2614605,39.3065036 34.1231642,39.7058618 34.4083303,40.4836611 C34.4613851,40.6283697 34.5845696,40.9185521 34.7778641,41.3038508 C35.1046798,41.9553008 35.5020079,42.6069701 35.9660446,43.2082416 C38.2079414,46.1131596 40.9296782,46.7915247 44.7966085,44.0076513 C45.4689316,43.5236336 46.4063311,43.6762854 46.8903487,44.3486085 C47.3743664,45.0209316 47.2217146,45.9583311 46.5493915,46.4423487 C41.2508857,50.2568394 36.7507163,49.1352182 33.5910775,45.041144 C32.5784937,43.7290974 31.9263137,42.4290906 31.5916697,41.5163389 Z" id="Stroke-7" fill="#010101"/><path d="M18.3701,26.9805 C18.3701,24.6420469 19.7129415,22.7462707 21.3701,22.7462707 C23.0272585,22.7462707 24.3701,24.6420469 24.3701,26.9805 C24.3701,29.3189531 23.0272585,31.2147293 21.3701,31.2147293 C19.7129415,31.2147293 18.3701,29.3189531 18.3701,26.9805" id="Fill-9" fill="#010101"/><path d="M64.1553,26.9805 C64.1553,24.6420469 65.4981415,22.7462707 67.1553,22.7462707 C68.8108129,22.7462707 70.1553,24.6420469 70.1553,26.9805 C70.1553,29.3189531 68.8108129,31.2147293 67.1553,31.2147293 C65.4981415,31.2147293 64.1553,29.3189531 64.1553,26.9805" id="Fill-11" fill="#010101"/></g></g></g><g id="Body" transform="translate(64.000000, 26.000000) scale(1 1)"><defs><path d="M253.2552,132.3812 C253.2552,132.3812 310.0672,112.6752 317.5692,93.5252 C317.5692,93.5252 293.3342,30.4432 251.4102,13.3502 C213.8082,-1.9788 128.2152,-4.7098 82.0982,9.8032 C45.3192,21.3772 21.0082,62.2612 0.9102,99.3312 C0.9102,99.3312 33.9612,132.3812 77.7302,138.1882 L84.6782,173.3092 L162.0782,198.4642 L257.5372,173.3092 L253.2552,132.3812 Z" id="bodyholding-object-path-1"/></defs><g id="Body/Holding Object" stroke="none" stroke-width="1" fill="none" fill-rule="evenodd"><g id="Object" transform="translate(126.000000, 218.000000)"><g id="Tshirt" transform="translate(20.000000, 0.000000)"><mask id="bodyholding-object-mask-2" fill="#ffffff"><use xlink:href="#bodyholding-object-path-1" fill="#ffffff"/></mask><use fill="#B9B3B8" xlink:href="#bodyholding-object-path-1"/><g mask="url(#bodyholding-object-mask-2)"><g transform="translate(-45.000000, -10.000000) scale(1 1)" id="Patterns"><g id="Patterns/Pattern 2" stroke="none" stroke-width="1" fill="none" fill-rule="evenodd"><path d="M134.250169,148.207855 C134.66839,148.931953 134.591989,149.839803 134.058632,150.48382 L118.805286,168.901884 L147.241996,165.063971 C148.328866,164.917283 149.331128,165.673243 149.488737,166.758583 L152.957701,190.646875 L165.3222,161.566836 C165.901199,160.205089 167.707211,159.921832 168.675309,161.04093 L187.164849,182.414383 L189.641285,154.190323 C189.737797,153.090371 190.707443,152.276743 191.807443,152.372702 L214.725866,154.372014 L197.341494,136.888582 C196.925929,136.470649 196.715859,135.890699 196.767374,135.303579 L199.515072,103.987945 L174.415746,118.100563 C173.675931,118.516539 172.754134,118.420264 172.116239,117.860397 L148.480175,97.1155274 L152.984051,126.890854 C153.177684,128.17097 152.122514,129.294924 150.832734,129.182408 L121.798631,126.649589 L134.250169,148.207855 Z M217.814177,154.641426 L219.484263,156.321028 L219.271324,156.776137 L216.911689,156.570292 L214.725866,154.372014 L217.814177,154.641426 Z M169.003274,163.131987 L167.978728,163.292678 L167.162737,162.349412 L166.674709,163.497202 L165.650164,163.657893 L166.291275,164.399001 L152.004515,198 L147.509497,167.046001 L114,171.568555 L132.518287,149.208148 L118.145395,124.323299 L148.956747,127.011159 L149.029041,127.489097 L149.438293,127.053167 L151.006546,127.189975 L150.771106,125.633472 L151.180358,125.197542 L150.698813,125.155534 L145.683639,92 L173.435527,116.357241 L201.838713,100.386959 L198.759719,135.478392 L220,156.839704 L191.633631,154.365135 L188.744125,187.296965 L168.619839,164.033786 L169.003274,163.131987 Z M192.536842,71.7476361 C192.803386,72.2278117 192.860748,72.7964662 192.69547,73.3202007 L186.032533,94.4338401 L212.997441,89.4140616 C214.104509,89.2079702 215.163399,89.9560854 215.339004,91.0683963 L219.047229,114.556892 L236.140028,95.6680091 C236.646732,95.1080613 237.425628,94.8812648 238.153728,95.0816659 L264.095041,102.221706 L256.594325,82.2074947 C256.2898,81.3949299 256.543999,80.4786965 257.223645,79.9391791 L274.007978,66.6154054 L252.221901,58.2891423 C251.21775,57.9053728 250.696577,56.7964806 251.041899,55.7784665 L259.97679,29.4382597 L230.643008,35.2020307 C230.071172,35.3143904 229.478769,35.1717437 229.020756,34.8114027 L206.531807,17.1182722 L206.531807,44.8474979 C206.531807,45.8673502 205.764434,46.7238585 204.750709,46.8354823 L180.208278,49.5379103 L192.536842,71.7476361 Z M213.729503,93.3465018 L213.666905,93.3022759 L213.363472,91.3802817 L211.450537,91.7363929 L211.387939,91.6921671 L211.396509,91.7464507 L183.122349,97.0099592 L190.788188,72.7183099 L177,47.8790935 L204.531807,44.8474979 L204.531807,13 L230.257403,33.2395556 L262.980305,26.8098592 L252.935899,56.4209326 L278,66 L258.467125,81.5056263 L267.343359,105.190141 L237.622988,97.0099592 L217.72391,119 L213.675475,93.3565596 L213.729503,93.3465018 Z M247.839382,198.909336 C248.132634,198.505269 248.566413,198.225496 249.055462,198.125003 L266.493002,194.541828 L254.021152,183.441962 C253.282053,182.784168 253.135015,181.684806 253.675272,180.855901 L262.364095,167.524814 L241.651462,165.835335 C240.984409,165.780925 240.388783,165.396469 240.064504,164.81101 L230.952472,148.359951 L221.2747,168.01311 C221.012722,168.545121 220.52816,168.933441 219.951852,169.073217 L202.825547,173.226984 L214.965672,183.463506 C215.432656,183.857266 215.694094,184.442844 215.675497,185.053397 L215.060795,205.234029 L229.397862,197.332406 C230.44851,196.75336 231.769014,197.223111 232.21792,198.335603 L237.948626,212.53761 L247.839382,198.909336 Z M231.328582,200.835593 L231.026678,200.728194 L230.363222,199.083999 L228.810429,199.939794 L228.508525,199.832396 L228.598903,200.056373 L212.954956,208.67826 L213.676424,184.992506 L198.52056,172.21312 L219.480444,167.129567 L230.848333,144.044202 L241.814057,163.841955 L265.87274,165.804363 L255.350802,181.947963 L270.800855,195.698411 L249.458023,200.08407 L237.445597,216.635752 L231.117056,200.952172 L231.328582,200.835593 Z M111.874881,2.72196981 L107.984589,32.0098845 C107.904289,32.6144242 107.55255,33.149293 107.029299,33.462541 L83.1780966,47.7412224 L119.450295,56.7947903 C120.340985,57.0171071 120.965953,57.817242 120.965953,58.7352575 L120.965953,84.033896 L137.405099,62.2699065 C137.986161,61.5006312 139.03332,61.2553567 139.89557,61.6865671 L167.523847,75.5034429 L151.236235,42.9615123 C151.007769,42.5050456 150.962482,41.9784973 151.109652,41.4897234 L161.199393,7.98023586 L135.111364,27.174535 C134.265658,27.7967641 133.082775,27.6590993 132.402568,26.8592833 L111.874881,2.72196981 Z M106.002003,31.746539 L110.48453,-2 L133.926105,25.5635845 L164.842887,2.81652482 L153.024724,42.0663533 L172,79.9781194 L139.001001,63.4753506 L118.965953,90 L118.965953,58.7352575 L78,48.5101249 L106.002003,31.746539 Z M66.3882305,195.332239 C66.8502284,195.726595 67.1079723,196.309538 67.0887678,196.916654 L66.5244841,214.755498 L84.4387211,198.146341 C85.1104813,197.52352 86.1195067,197.436705 86.8877803,197.935628 L100.173411,206.563417 L94.2470652,190.491033 C93.9109838,189.579573 94.278466,188.55842 95.1182761,188.070127 L112.032002,178.235948 L88.6185601,175.499891 C88.1166928,175.441243 87.6556236,175.194809 87.3280212,174.810119 L72.6640337,157.590773 L73.9765467,178.177522 C74.0438795,179.233636 73.276845,180.159406 72.2266244,180.289585 L51.7403091,182.828947 L66.3882305,195.332239 Z M114.915631,176.559315 L117.567122,176.869164 L117.65288,177.281284 L115.345085,178.623109 L112.032002,178.235948 L114.915631,176.559315 Z M65.0897677,196.853421 L46.9887594,181.402615 L71.9805991,178.304774 L70.2852145,151.71269 L88.8506972,173.513408 L118.228714,176.946476 L96.1235642,189.799114 L104.132344,211.519104 L85.7985022,199.612969 L64.3741467,219.476525 L65.0897677,196.853421 Z M3.20754849,87.1187964 L18.1308539,114.015592 C18.397189,114.495617 18.4545059,115.064014 18.2893694,115.587548 L10.183856,141.284564 L42.837927,135.202825 C43.9450989,134.996617 45.004136,135.744826 45.1796796,136.857272 L49.7082278,165.555357 L70.5440379,142.519293 C71.0507824,141.959036 71.8299624,141.732109 72.5582853,141.932666 L104.090844,150.615725 L94.9197148,126.132794 C94.6154156,125.320448 94.8694844,124.404552 95.5487837,123.865055 L116.009355,107.615341 L89.5065786,97.4816587 C88.5027049,97.0978145 87.9816766,95.9892099 88.3267775,94.971367 L99.1517496,63.0441199 L63.6619026,70.0207804 C63.0898578,70.133234 62.4972203,69.9904868 62.0391149,69.6299034 L34.7110574,48.1194734 L34.7110574,81.8564598 C34.7110574,82.8762728 33.9437418,83.7327614 32.9300614,83.8444329 L3.20754849,87.1187964 Z M43.5703225,139.135203 L43.5073705,139.090728 L43.2041248,137.169014 L41.2915219,137.525232 L41.2285699,137.480756 L41.2371851,137.535352 L7.27407855,143.860895 L16.3820052,114.985915 L-2.84217094e-14,85.4600546 L32.7110574,81.8564598 L32.7110574,44 L63.2761223,68.0583396 L102.154818,60.415493 L90.22087,95.6135614 L120,107 L96.7926237,125.431216 L107.338644,153.584507 L72.0273126,143.860895 L48.3848434,170 L43.5159857,139.145323 L43.5703225,139.135203 Z" id="Pattern" fill="#010101"/></g></g></g><g mask="url(#bodyholding-object-mask-2)"><g transform="translate(235.000000, -10.000000) scale(1 1)" id="Patterns"><g id="Patterns/Pattern 5" stroke="none" stroke-width="1" fill="none" fill-rule="evenodd"><path d="M217.409367,0.00415373877 C218.193368,-0.0520138171 218.880095,0.468018146 218.943213,1.16567764 C220.522991,18.6271511 221.066625,26.9584181 220.993599,36.9438787 C220.897282,50.1139055 219.405315,61.6622496 216.100929,72.5077376 C213.808823,80.0316099 212.222446,84.4649331 206.137501,100.858669 C202.245413,111.344527 199.838687,118.121655 197.828675,124.565722 C199.019469,127.204959 200.127964,129.907698 201.159563,132.686486 C210.223253,157.100519 213.617697,184.263479 211.288803,211.382108 C212.802176,212.884428 214.406526,214.363482 216.102552,215.821111 C216.668308,216.307343 216.683992,217.109639 216.137584,217.613089 C215.591176,218.116539 214.689589,218.130496 214.123833,217.644264 C213.033818,216.707463 211.980241,215.761671 210.962676,214.806753 L210.868326,215.711114 L210.868326,215.711114 L210.741154,216.852936 C210.660876,217.554932 209.963512,218.065438 209.183549,217.993185 C208.403587,217.920932 207.83638,217.293279 207.916658,216.591283 C208.081535,215.149513 208.230005,213.707101 208.362077,212.26448 C197.341979,201.055634 191.072092,188.614769 188.893799,174.73468 C186.746409,161.051515 188.517998,146.320758 193.674237,128.570792 C194.050716,127.274794 194.432342,125.998371 194.82765,124.715038 C190.260518,114.772235 184.494491,105.725197 177.258043,96.8014536 C170.538129,88.5146834 163.925244,81.6759885 151.360841,69.6964531 C153.216927,74.5999764 155.47429,80.2445116 158.27426,87.0919361 C164.660803,102.710449 167.249539,109.457881 169.878602,118.039712 C173.204791,128.898734 174.936338,135.615077 176.070363,143.435028 C177.610934,154.058422 177.295805,163.696296 174.681304,172.541685 C168.09568,194.822195 147.349686,210.484544 108.745172,217.968741 C107.981189,218.116853 107.216761,217.724422 107.037775,217.09222 C106.858789,216.460019 107.333023,215.82745 108.097006,215.679338 C145.700531,208.389201 165.601045,193.365154 171.921129,171.983021 C174.44579,163.441578 174.751932,154.078586 173.249064,143.715191 C172.133427,136.022033 170.422269,129.384774 167.124179,118.617491 C164.519575,110.115499 161.945088,103.405205 155.582637,87.8456097 C151.765434,78.5105091 148.949617,71.3944261 146.779651,65.3367013 C137.245658,56.1328858 128.903423,45.6277506 121.991642,34.203113 C114.322084,42.8441016 105.453206,50.9574017 95.5388715,58.3781915 C96.2960258,63.0294989 97.3236986,67.4975096 98.6481384,71.844519 C100.92116,79.3057426 102.500878,83.7204591 108.567091,100.063729 C113.414135,113.122378 115.970671,120.463564 118.325763,128.570792 C123.482002,146.320758 125.253591,161.051515 123.106201,174.73468 C120.573145,190.875316 112.507235,205.069763 97.876167,217.644264 C97.3104109,218.130496 96.4088238,218.116539 95.8624157,217.613089 C95.3160077,217.109639 95.3316924,216.307343 95.8974485,215.821111 C110.068921,203.641605 117.839866,189.966238 120.285272,174.384114 C122.3731,161.080474 120.638975,146.661233 115.568105,129.205143 C113.233215,121.167461 110.690807,113.86684 105.862499,100.858669 C99.777554,84.4649331 98.1911774,80.0316099 95.8990706,72.5077376 C94.6888231,68.5355244 93.7216983,64.4690283 92.9772202,60.2631068 C90.0707963,62.3661286 87.0773696,64.411245 84.0018927,66.3937683 C68.8384773,76.1687627 59.0978394,82.6859049 50.9680376,88.7677722 C55.4513047,105.671398 56.8169374,123.848498 55.5483001,143.948754 C54.2486244,164.540783 51.005716,182.776536 43.4376364,217.035098 C43.2965237,217.673876 42.5550711,218.097239 41.7815556,217.980706 C41.0080402,217.864174 40.4953764,217.251875 40.6364891,216.613097 C48.1834452,182.450155 51.4133746,164.287387 52.704782,143.826362 C53.9272805,124.457126 52.6814268,106.918327 48.5355376,90.6122942 C45.8326231,92.6872185 43.2761646,94.7445393 40.7090179,96.899686 C27.0175789,108.393793 16.9103671,120.08615 9.53250193,133.615586 C-4.47167987,159.295692 -9.13068987,188.083352 -4.33691919,216.621012 C-4.22599001,217.281381 -4.76497972,217.893261 -5.54078641,217.987685 C-6.3165931,218.082108 -7.03543456,217.623318 -7.14636375,216.962949 C-12.0166172,187.969982 -7.28117199,158.710035 6.95829276,132.598479 C14.4883573,118.789942 24.7955708,106.866216 38.7161622,95.1797332 C41.6890184,92.6839891 44.6443023,90.3203894 47.8180298,87.9139944 C46.380612,82.7054675 44.6382039,77.6217889 42.5780972,72.6425763 C40.7314403,68.1792141 38.6835997,63.8391359 35.3607136,57.1764476 C34.9715184,56.3960758 34.6862399,55.8257981 33.9431771,54.3417694 C27.4559075,41.385536 24.7784637,35.5181097 22.3769241,28.1507943 C19.1911314,18.3775886 18.1891577,9.59154975 19.6716983,1.00979985 C19.7827472,0.366988488 20.5037883,-0.0797711836 21.2821886,0.0119341969 C22.060589,0.103639577 22.6015842,0.699083048 22.4905353,1.34189441 C21.0676146,9.57853196 22.0340518,18.052961 25.1264244,27.5395775 C27.4852316,34.7758007 30.1344657,40.5814074 36.5744852,53.4432738 L36.8329598,53.9595223 C37.3910981,55.0743669 37.6523909,55.5969556 37.9935361,56.2809827 C41.3369831,62.9848976 43.4024922,67.3624212 45.2725425,71.8823253 C47.1957069,76.5305527 48.8457154,81.266323 50.2341551,86.1052434 C58.1948341,80.2173094 67.7723218,73.8257286 82.2885014,64.4679703 C85.8074666,62.1995643 89.2171298,59.8483187 92.5118662,57.4203384 C91.5377292,50.9856879 91.0595534,44.2117125 91.0064015,36.9438787 C90.9333747,26.9584181 91.4770087,18.6271511 93.0567867,1.16567764 C93.1199054,0.468018146 93.8066318,-0.0520138171 94.5906329,0.00415373877 C95.3746339,0.0603212946 95.9590245,0.671418859 95.8959057,1.36907835 C94.3226539,18.7584175 93.7823293,27.0389669 93.8546464,36.927384 C93.9026288,43.4883572 94.3013309,49.6320296 95.1025496,55.4760815 C104.655279,48.1855986 113.190797,40.2395466 120.565597,31.7954088 C115.035095,22.2784008 110.48823,12.1546487 107.057861,1.63806611 C106.836992,0.960939554 107.267827,0.250868216 108.020159,0.0520773892 C108.772491,-0.146713437 109.561427,0.24105429 109.782296,0.918180849 C113.034677,10.8891005 117.305786,20.5000329 122.476595,29.5626829 C130.139898,20.4483003 136.461581,10.7806593 141.266684,0.752040787 C141.562642,0.134352152 142.390832,-0.162161009 143.116497,0.0897601052 C143.331075,0.164252908 143.512662,0.278358283 143.654353,0.418106461 C144.013008,0.0644028749 144.609683,-0.0939108835 145.175514,0.0570050979 C145.922349,0.256197594 146.332642,0.918672054 146.091928,1.53668322 C140.949515,14.7393523 140.375321,28.5539847 143.625818,44.2023774 C144.978434,50.7140778 146.6243,56.5513246 149.26011,63.9822068 L149.885105,64.5788364 C164.877821,78.7757922 172.133954,86.1477071 179.551557,95.2948443 C186.204148,103.498593 191.642679,111.816272 196.064271,120.81588 C197.898453,115.184216 200.135735,108.9468 203.432909,100.063729 C209.499122,83.7204591 211.07884,79.3057426 213.351862,71.844519 C216.585959,61.2297285 218.050529,49.893446 218.145354,36.927384 C218.217671,27.0389669 217.677346,18.7584175 216.104094,1.36907835 C216.040976,0.671418859 216.625366,0.0603212946 217.409367,0.00415373877 Z M279.717811,11.011332 C280.496212,10.924254 281.217253,11.3484707 281.328302,11.9588466 C282.810842,20.1075725 281.808869,28.4502791 278.623076,37.7303414 C276.221536,44.7259115 273.544092,50.297275 267.056823,62.5997535 C266.31376,64.0089 266.028482,64.5504023 265.639286,65.2913975 C262.3164,71.6178951 260.26856,75.7389785 258.421903,79.9771252 C249.610762,100.198792 246.611279,122.235028 248.295218,147.569068 C249.586625,166.997656 252.816555,184.243955 260.363511,216.683078 C260.504624,217.289624 259.99196,217.871028 259.218444,217.98168 C258.444929,218.092332 257.703476,217.690331 257.562364,217.083786 C249.994284,184.553867 246.751376,167.238266 245.4517,147.685284 C243.750163,122.086494 246.787424,99.7727119 255.727457,79.2552355 C257.597508,74.9633999 259.663017,70.8067606 263.006464,64.4411166 C263.396344,63.6988172 263.681927,63.1567365 264.425515,61.7465949 C270.865534,49.5337217 273.514768,44.0210585 275.873576,37.1499657 C278.965948,28.1420318 279.932385,20.0952115 278.509465,12.2741841 C278.398416,11.6638082 278.939411,11.0984101 279.717811,11.011332 Z M196.577547,128.703258 L196.561838,128.759322 L196.561838,128.759322 L196.431895,129.205143 C191.361025,146.661233 189.6269,161.080474 191.714728,174.384114 C193.691808,186.982063 199.149935,198.333657 208.657208,208.656042 C210.541632,182.713032 207.125296,156.819777 198.466504,133.496379 C197.863853,131.873036 197.234535,130.276275 196.577547,128.703258 Z M141.466653,6.46459073 L141.105558,7.13769965 C136.442042,15.768877 130.67019,24.100328 123.903819,32.0096623 C129.822363,41.9582135 136.837464,51.2099265 144.785143,59.5074347 C143.087801,54.2676668 141.871707,49.6380466 140.825349,44.6007172 C137.959379,30.8034951 138.003707,18.3505618 141.466653,6.46459073 Z" id="Pattern" fill="#010101"/></g></g></g></g><path d="M334.3442,98.7865 C334.8942,99.7885 335.2252,96.5445 335.9452,97.4515 C384.4662,158.6455 385.7712,191.3255 379.6212,207.3975 C376.4822,215.6015 368.5572,220.3385 359.8002,221.0265 C312.5192,224.7465 217.4062,223.4615 189.2602,218.6835 C181.470804,217.361726 174.717804,214.621484 168.951417,211.21772 C166.916169,211.084147 165.8125,210.8184 165.8125,210.8184 C165.8125,210.8184 3.1065,224.5764 0.2665,187.1834 C-2.6295,149.0554 18.8495,120.8534 27.5375,104.9274 C40.3235,115.0714 67.7905,134.0964 97.3525,138.1304 L97.3525,138.1304 L73.2705,161.8924 C85.353035,166.788692 119.37102,169.186155 140.055961,170.223273 C140.072257,169.726543 140.235292,169.283554 140.5922,168.9265 C143.4212,166.0975 149.7012,169.6155 150.0872,169.8055 C150.1152,169.8295 147.1712,166.3795 147.1142,165.1575 C147.0392,163.5235 148.8962,162.6385 150.6282,162.2385 C154.136285,161.4285 158.300731,164.128561 158.648799,164.35982 L158.6722,164.3755 C158.6722,164.3755 156.8452,161.9225 156.9952,160.4985 C157.2072,158.4875 160.4692,157.3655 161.8152,157.5645 C163.774522,157.854693 167.643905,157.793285 178.487628,165.592623 C184.142513,163.896369 188.3495,162.4744 188.3495,162.4744 C193.2715,151.7324 206.1495,139.7864 208.7645,138.9294 C213.0775,137.5144 212.0285,146.4304 212.0285,146.4304 C214.6805,144.0164 216.0775,141.4334 217.8955,138.8934 C221.5285,133.8184 224.6075,133.1404 225.7265,133.6984 C229.1765,135.4244 227.8455,140.6624 227.8455,140.6624 C227.8455,140.6624 231.8785,133.3634 235.2345,133.6984 C238.5915,134.0344 239.1425,140.7694 239.1425,140.7694 C241.1565,136.1824 242.8705,136.9574 242.8705,136.9574 C243.7165,136.5964 248.0425,140.0974 246.0645,149.0514 C244.823768,154.670278 242.674301,161.73828 233.772128,173.02546 C242.192518,171.41657 251.364046,169.90192 260.4642,168.8355 C301.5942,164.0155 313.0552,166.8275 313.0552,166.8275 L313.0552,166.8275 L274.3592,131.9885 C281.4942,129.4215 321.4202,114.5485 334.3442,98.7865 Z M225.3448,2.7834 C225.3448,2.7834 217.8638,17.5314 182.7748,17.9734 C147.6858,18.4144 139.9618,2.0844 139.9618,2.0844 C139.9618,2.0844 179.2058,-3.0406 225.3448,2.7834 Z" id="Skin" fill="#f7d3bb"/><path d="M151.5501,169.886528 C152.25824,170.53321 152.908182,171.217657 153.521399,171.93419 C153.84898,172.316962 154.38393,172.982463 154.359117,172.956224 C154.394108,172.993283 154.464698,173.06767 154.567281,173.175182 C154.739614,173.355796 154.940896,173.565521 155.169198,173.801925 C155.822233,174.478134 156.560279,175.231943 157.3679,176.043886 C159.675074,178.363408 162.076033,180.682724 164.446496,182.845575 C165.534506,183.838294 166.59288,184.776368 167.614454,185.650889 C168.674195,186.558083 169.687359,187.3909 170.64737,188.141352 C171.082486,188.481488 171.159483,189.109954 170.819348,189.54507 C170.479212,189.980186 169.850746,190.057183 169.41563,189.717048 C168.43094,188.947304 167.395091,188.09584 166.313826,187.170221 C165.275465,186.281328 164.20143,185.329374 163.098462,184.323007 C160.701737,182.136194 158.278289,179.795154 155.949917,177.454321 C155.135098,176.63514 154.3902,175.874333 153.730548,175.191272 C153.499409,174.951931 153.295349,174.739311 153.120285,174.555835 C153.014821,174.445303 152.942753,174.369356 152.89108,174.314344 C152.859912,174.28001 152.295117,173.57724 152.001887,173.234605 C151.438512,172.576312 150.843594,171.94981 150.201427,171.363376 C147.621691,169.007532 145.084683,168.002466 142.771217,168.915533 C140.705232,169.729899 140.612717,170.627079 141.716325,172.332343 C142.022619,172.806194 142.510229,173.465694 143.132138,174.256069 C143.220467,174.368325 143.31112,174.482728 143.403924,174.599091 C143.871332,175.185156 144.373164,175.796052 144.875124,176.39488 C145.050897,176.604572 145.21406,176.797694 145.360368,176.969691 C145.447829,177.072508 145.510471,177.145714 145.542614,177.183078 L145.557069,177.200267 C145.569988,177.216009 145.582417,177.232132 145.59434,177.248608 L145.605614,177.264436 C145.63446,177.305934 145.693326,177.389517 145.781053,177.51237 C145.928703,177.719138 146.102905,177.959565 146.302497,178.230835 C146.874334,179.008034 147.533872,179.874948 148.271779,180.809031 C150.380372,183.478207 152.691454,186.147277 155.128996,188.635276 C158.325169,191.89761 161.495805,194.595995 164.551678,196.537095 C165.017864,196.833218 165.155728,197.451192 164.859605,197.917378 C164.563482,198.383564 163.945508,198.521428 163.479322,198.225305 C160.277837,196.191711 156.99547,193.398238 153.70037,190.034929 C151.208739,187.491721 148.852251,184.770211 146.702399,182.048808 C145.94985,181.096189 145.276533,180.211165 144.691559,179.416111 C144.50071,179.156724 144.331931,178.924063 144.186138,178.720376 C142.682337,178.392749 142.375856,178.729276 142.408792,179.793201 C142.418963,180.121739 142.471944,180.482533 142.563335,180.908806 C142.594636,181.054802 142.69337,181.478501 142.702037,181.51795 C143.288187,184.175939 146.213581,188.689164 150.786314,194.33157 C160.336037,206.111804 173.434034,214.114174 187.779949,216.709533 C188.37224,216.817573 188.976378,216.916997 189.598049,217.009097 C190.144371,217.090033 190.52164,217.598527 190.440703,218.144849 C190.359767,218.691171 189.851273,219.06844 189.304951,218.987503 C188.661694,218.892206 188.03565,218.789176 187.422477,218.677326 C172.596595,215.995137 159.077842,207.735701 149.232597,195.59092 C144.456027,189.696996 141.427192,185.024183 140.748796,181.947892 C140.744023,181.926166 140.643731,181.495782 140.607775,181.328071 C140.493339,180.794311 140.424264,180.32392 140.40975,179.855087 C140.357888,178.179822 141.079365,177.024068 142.547368,176.718783 C142.305739,176.42544 142.069232,176.13317 141.840309,175.846131 C141.744829,175.726413 141.651463,175.608586 141.560372,175.492819 C140.903257,174.657702 140.384067,173.95549 140.036975,173.418521 C138.33123,170.782853 138.574897,168.419862 142.037383,167.055025 C145.238191,165.791747 148.466752,167.07078 151.5501,169.886528 Z M177.679514,163.76111 C177.726257,163.793231 177.813499,163.853513 177.94047,163.941768 C178.151238,164.088269 178.395485,164.259115 178.670429,164.452728 C179.455112,165.005293 180.329114,165.629938 181.270187,166.314053 C183.9595,168.269057 186.649112,170.309996 189.161785,172.336787 C190.436696,173.365166 191.635197,174.365617 192.744215,175.330882 C194.774572,177.098061 196.471963,178.717859 197.783787,180.164284 C198.11636,180.044978 198.512357,179.909153 198.975775,179.757027 C200.588295,179.227686 202.695319,178.605234 205.355874,177.893059 C212.933611,175.864657 223.430532,173.519543 237.317872,170.885812 C237.860484,170.782906 238.383781,171.139359 238.486688,171.681972 C238.589594,172.224584 238.233141,172.747881 237.690528,172.850788 C223.849118,175.475807 213.399664,177.810318 205.873026,179.825041 C203.24705,180.52796 201.175401,181.139961 199.599563,181.657261 C199.052539,181.836832 198.607407,181.991326 198.256866,182.120253 C198.052634,182.195367 197.92827,182.243959 197.876485,182.265515 C197.478426,182.431205 197.018988,182.323103 196.736573,181.997302 C195.441761,180.503576 193.645205,178.766543 191.43116,176.839486 C190.342019,175.891522 189.162478,174.906897 187.906114,173.89348 C185.422209,171.889893 182.758345,169.868493 180.094182,167.931771 C179.161537,167.253783 178.29566,166.634944 177.518912,166.087967 C177.247356,165.89674 177.006444,165.728228 176.798971,165.584017 C176.674998,165.497845 176.589368,165.438677 176.546886,165.40949 C176.091699,165.096723 175.976244,164.474174 176.28901,164.018986 C176.601777,163.563799 177.224326,163.448344 177.679514,163.76111 Z M159.309025,163.605436 C159.365121,163.651879 159.472808,163.741412 159.628651,163.871564 C159.88776,164.087957 160.188148,164.340019 160.526379,164.625279 C161.492111,165.439764 162.567947,166.357341 163.726422,167.358258 C167.036773,170.218381 170.347352,173.174215 173.439018,176.068389 C174.542083,177.100992 175.599481,178.109439 176.605296,179.089508 C176.943335,179.418894 177.275221,179.744759 177.60076,180.066965 C177.993288,180.455475 177.996545,181.088631 177.608035,181.48116 C177.219525,181.873688 176.586369,181.876945 176.19384,181.488435 C175.872055,181.169944 175.543886,180.847729 175.209535,180.521936 C174.213643,179.551537 173.165853,178.552253 172.072207,177.528467 C169.001986,174.654368 165.710544,171.71562 162.418873,168.871636 C161.266641,167.876114 160.19682,166.963667 159.236962,166.154136 C158.901237,165.87099 158.603316,165.620998 158.346643,165.406639 C158.193016,165.278339 158.087513,165.190621 158.033575,165.145964 C157.60817,164.793758 157.54883,164.16338 157.901036,163.737975 C158.253242,163.31257 158.88362,163.25323 159.309025,163.605436 Z M325.569494,165.496759 C325.627893,166.045948 325.230029,166.538495 324.680841,166.596894 L313.160841,167.821894 C312.611652,167.880293 312.119105,167.482429 312.060706,166.933241 C312.002307,166.384052 312.400171,165.891505 312.949359,165.833106 L324.469359,164.608106 C325.018548,164.549707 325.511095,164.947571 325.569494,165.496759 Z M239.58478,139.632679 C240.12117,139.764222 240.449364,140.305689 240.317821,140.84208 C240.294589,140.936811 240.249005,141.110408 240.179511,141.357636 C240.065461,141.763376 239.924394,142.232229 239.75475,142.758962 C239.272252,144.257075 238.656741,145.923538 237.895614,147.716476 C235.723046,152.834256 232.817034,157.951063 229.074624,162.730238 C228.255183,163.776691 227.40223,164.797161 226.51509,165.789416 C226.146984,166.201139 225.514807,166.236497 225.103084,165.86839 C224.691361,165.500284 224.656003,164.868107 225.02411,164.456384 C225.881955,163.496894 226.707036,162.509769 227.499964,161.497175 C231.126629,156.865809 233.946944,151.899895 236.05463,146.934953 C236.791592,145.198938 237.386404,143.588517 237.851049,142.145836 C238.012903,141.643291 238.146761,141.198397 238.25413,140.816425 C238.317489,140.591025 238.3574,140.439034 238.375379,140.36572 C238.506922,139.82933 239.048389,139.501136 239.58478,139.632679 Z M67.823969,160.258565 C68.5475859,160.322053 69.3090879,160.399051 70.0940101,160.486634 C70.9074043,160.577394 71.7027233,160.674589 72.4476908,160.771803 C72.8953074,160.830214 73.2274113,160.875758 73.4115504,160.902012 C73.9583058,160.979967 74.3383434,161.486395 74.2603882,162.03315 C74.1824329,162.579906 73.6760049,162.959943 73.1292496,162.881988 C72.9525912,162.856801 72.628243,162.812321 72.1888958,162.754988 C71.4555904,162.659296 70.6724106,162.563585 69.8722232,162.474298 C69.1021156,162.388368 68.3560329,162.312929 67.6491665,162.250911 C65.2428981,162.039792 63.4711455,162.006746 62.8729925,162.177561 C62.3419372,162.329214 61.7884926,162.021648 61.6368393,161.490593 C61.4851861,160.959537 61.7927522,160.406093 62.3238075,160.254439 C63.2599977,159.987092 65.1266178,160.021907 67.823969,160.258565 Z M228.589874,138.977936 C229.103866,139.180002 229.356731,139.760482 229.154664,140.274474 C229.130766,140.335265 229.085054,140.449495 229.018144,140.613613 C228.907543,140.884901 228.776984,141.198955 228.627082,141.552228 C228.199775,142.559254 227.702519,143.680407 227.140187,144.887341 C225.533197,148.336429 223.725076,151.786081 221.753192,155.010806 C220.144286,157.641935 218.491799,160.011479 216.804242,162.056142 C216.452689,162.482087 215.822403,162.542394 215.396458,162.190842 C214.970513,161.839289 214.910206,161.209003 215.261758,160.783058 C216.884362,158.817093 218.48412,156.523158 220.046915,153.967437 C221.975705,150.813185 223.749922,147.428217 225.327301,144.042685 C225.879498,142.857502 226.367416,141.757404 226.785973,140.770999 C226.932123,140.426571 227.059056,140.121238 227.166142,139.858572 C227.229845,139.702317 227.272453,139.595846 227.293336,139.542726 C227.495402,139.028734 228.075882,138.775869 228.589874,138.977936 Z M212.786603,144.528839 C213.329643,144.629467 213.688289,145.151263 213.587661,145.694303 C213.484865,146.249043 213.109671,147.3419 212.289862,149.06197 C210.95842,151.855516 208.836167,155.449029 205.747814,159.930541 C205.434425,160.3853 204.811718,160.499903 204.356959,160.186514 C203.9022,159.873125 203.787597,159.250418 204.100986,158.795659 C207.132383,154.396796 209.201505,150.893247 210.484438,148.20148 C210.92608,147.274855 211.237894,146.519264 211.442118,145.924404 C211.556819,145.590306 211.608966,145.395587 211.621139,145.329897 C211.721767,144.786857 212.243563,144.428211 212.786603,144.528839 Z" id="Skin-Shadows" fill="#d7a17c"/></g><g id="Object/Holding" transform="translate(221.900000, 249.200000) scale(1 1)"><g id="Object/Holding/Dog" stroke="none" stroke-width="1" fill="none" fill-rule="evenodd"><g id="Dog" transform="translate(8.000000, 36.000000)"><path d="M116.2249,154.5052 C121.2849,154.7852 126.6879,155.0312 132.3399,155.2422 C132.9159,159.5602 133.6879,164.2242 134.6399,167.5152 C136.9219,175.3982 133.1879,187.0152 123.8529,179.1332 C118.3849,174.5142 116.6909,163.1392 116.2249,154.5052 Z M74.25,148.6064 C77.697,149.9264 81.405,150.9814 85.392,151.6584 C87.396,151.9984 89.748,152.3194 92.389,152.6244 C92.164,153.0804 91.937,153.5434 91.698,154.0314 C87.135,163.3664 88.172,172.9094 79.874,170.4194 C72.025,168.0654 74.012,150.5044 74.25,148.6064 Z M77.6886,46.2494 C91.4986,50.9674 105.7466,62.3294 114.7366,70.9244 C114.5016,71.2214 114.2666,71.5334 114.0276,71.8674 C112.2096,74.4074 110.8126,76.9904 108.1616,79.4044 C108.1616,79.4044 109.2096,70.4884 104.8966,71.9034 C102.2826,72.7604 89.4036,84.7074 84.4806,95.4484 C84.4806,95.4484 80.2696,96.8704 74.6176,98.5674 C63.7796,90.7734 59.9066,90.8294 57.9476,90.5394 C56.6006,90.3384 53.3386,91.4624 53.1266,93.4724 C52.9776,94.8964 54.8036,97.3494 54.8036,97.3494 C54.8036,97.3494 50.4236,94.3674 46.7596,95.2134 C45.0286,95.6124 43.1706,96.4984 43.2476,98.1314 C43.3026,99.3534 46.2476,102.8034 46.2196,102.7804 C45.8326,102.5884 39.5536,99.0714 36.7246,101.9004 C36.3696,102.2564 36.2226,102.7044 36.2046,103.1984 C32.6496,103.0194 28.6966,102.8004 24.5326,102.5364 L24.5326,102.5364 L23.2406,102.3774 C23.2446,102.4034 23.2466,102.4274 23.2496,102.4544 C25.7106,121.8824 19.2336,124.8334 11.8036,121.6904 C5.7666,119.1354 3.6866,113.1884 4.1866,100.9454 C4.3036,98.1004 4.5586,94.9184 4.9366,91.3574 C6.9396,72.4704 35.2686,61.0254 35.2686,61.0254 L35.2686,61.0254 Z M135.919,97.4346 C138.102,101.0296 139.369,103.5266 139.722,104.2376 C136.369,104.7996 133.08,105.3946 129.898,106.0026 C132.399,102.8306 134.354,100.0016 135.919,97.4346 Z" id="Combined-Shape" fill="#d7a17c"/><path d="M81.8027,8.458 C75.8327,2.547 67.5197,-0.362 59.1267,0.036 C48.4727,0.542 32.0407,3.274 28.3277,15.033 C22.7267,32.77 22.4147,55.486 41.0857,63.888 C59.7567,72.29 87.7627,43.661 89.0077,27.792 C89.6737,19.29 86.4117,13.02 81.8027,8.458" id="Fill-11" fill="#f7d3bb"/><path d="M85.2442,12.7852 L87.9732,14.4502 C90.8492,16.2062 93.8452,17.7542 96.8762,19.2262 C119.8902,30.4102 107.3112,51.1692 107.3112,51.1692 C107.3112,51.1692 88.2612,80.1262 80.1322,52.6922 C72.0042,25.2592 85.2442,12.7852 85.2442,12.7852 L85.2442,12.7852 Z M45.7291,1.8912 C37.9691,3.8452 30.6531,7.6682 28.3281,15.0332 C25.2341,24.8292 23.7631,36.1402 26.2031,45.7242 C23.4911,48.4112 18.3561,52.0682 14.5971,54.2172 C9.2631,57.2642 -3.4389,44.3102 0.8801,23.2262 C5.0671,2.7812 43.4161,1.9242 45.7291,1.8912 Z" id="Combined-Shape" fill="#371D0A"/><path d="M71.7129,36.3467 C72.0719,39.2867 70.7649,41.8667 68.7929,42.1077 C66.8199,42.3477 64.9309,40.1597 64.5719,37.2187 C64.2129,34.2777 65.5209,31.6987 67.4929,31.4577 C69.4649,31.2167 71.3549,33.4067 71.7129,36.3467" id="Fill-15" fill="#010101"/><path d="M28.8194,32.1436 C28.1734,35.2066 29.3054,38.0376 31.3464,38.4676 C33.3874,38.8986 35.5664,36.7646 36.2124,33.7036 C36.8584,30.6406 35.7264,27.8096 33.6854,27.3786 C31.6434,26.9486 29.4654,29.0816 28.8194,32.1436" id="Fill-17" fill="#010101"/><path d="M62.2783,50.3281 C62.0393,49.5841 61.2443,49.1741 60.4953,49.4141 C53.2463,51.7471 49.1143,49.3181 47.8233,48.3321 L52.4083,44.0951 C53.3163,43.2561 52.7393,41.8391 51.4463,41.7331 L42.7753,41.0261 C41.5333,40.9251 40.6803,42.1331 41.3043,43.1101 L44.7413,48.4901 C40.9543,51.5451 35.0603,49.1551 34.9873,49.1251 C34.2613,48.8211 33.4363,49.1601 33.1323,49.8801 C32.8283,50.6011 33.1663,51.4321 33.8863,51.7371 C34.2063,51.8731 41.3303,54.8071 46.4103,50.8031 C47.8103,51.7841 50.5783,53.2291 54.7233,53.2291 C56.6413,53.2291 58.8553,52.9201 61.3643,52.1111 C62.1093,51.8721 62.5183,51.0731 62.2783,50.3281" id="Fill-19" fill="#010101"/><path d="M24.2259443,102.20875 C24.3188664,102.753161 23.9528619,103.269822 23.4084504,103.362744 C22.8640389,103.455666 22.3473778,103.089662 22.2544557,102.54525 C22.220837,102.348285 22.1727251,102.004272 22.1252717,101.542395 C21.9424544,99.7629839 21.9367025,97.8727413 22.2283097,96.0791774 C22.3528304,95.3132981 22.5295569,94.5913017 22.7642514,93.9209075 C22.8032738,93.8093171 22.8453898,93.6970633 22.8905255,93.5841506 C23.299326,92.5614822 23.9461665,91.5010851 24.7663366,90.4247912 C25.2580185,89.7795662 25.7826871,89.1673198 26.3075073,88.6057554 C26.4915127,88.4088673 26.662811,88.2319606 26.8172638,88.0773852 C26.9117936,87.9827804 26.9810498,87.9153869 27.0208782,87.8775945 C27.4215086,87.4974449 28.0544559,87.5140478 28.4346055,87.9146782 C28.8147551,88.3153086 28.7981522,88.9482559 28.3975218,89.3284055 C28.2771051,89.4426663 28.0561902,89.6637565 27.7687174,89.971356 C27.2869062,90.4869002 26.8049434,91.0493124 26.3571026,91.6370054 C25.6375033,92.5813221 25.0797937,93.4956027 24.7476459,94.3265142 C24.7132265,94.4126188 24.6813806,94.4974991 24.6520336,94.5814212 C24.4580755,95.1354537 24.3089622,95.7446398 24.2023885,96.4001337 C23.9432093,97.9942451 23.9484575,99.7189431 24.114799,101.33799 C24.1574691,101.75331 24.1994807,102.053705 24.2259443,102.20875 Z" id="Stroke-24" fill="#371D0A"/></g></g></g></g></g></g></svg>