<svg viewBox="60.5625 36.262500000000045 654.075 870.3000000000002" xmlns="http://www.w3.org/2000/svg" xmlns:xlink="http://www.w3.org/1999/xlink" overflow="visible" width="654.075px" height="870.3000000000002px"><defs><path d="M275.684414,0.876652922 C298.838059,1.54914435 329.906472,9.13626937 355.7471,15.2297529 L355.731944,15.2730262 C397.943463,24.6870841 452.971125,41.5664426 466.9347,60.6071529 C489.4187,91.2671529 484.8307,126.127153 444.6317,165.644153 C415.2977,194.481153 386.9717,210.585153 372.4107,216.074153 C363.858947,207.086013 354.27259,195.452866 345.166172,184.184251 L345.5431,187.063753 C345.8052,205.151453 195.8084,217.517053 146.0664,197.369053 L149.907924,169.277823 C138.376043,183.58138 125.055547,200.37944 113.5941,212.425753 C99.0331,206.935753 70.7081,190.832753 41.3741,161.994753 C1.1741,122.477753 -11.4139,87.6187529 11.0701,56.9587529 C23.1971,40.4207529 69.0261,26.2177529 108.6751,16.6397529 C108.048715,16.8278037 108.709162,16.7365391 110.005927,16.5033439 C127.558487,12.2104677 191.200137,-1.57717031 275.684414,0.876652922 Z M162.310363,78.5613735 L87.8171,104.583753 C87.8171,104.583753 122.608609,134.324697 151.917069,154.584908 L162.310363,78.5613735 Z M332.466363,87.1363735 L341.108096,153.169863 C367.388419,133.830342 393.927617,109.395078 395.144211,108.27232 L395.1877,108.232153 L332.466363,87.1363735 Z" id="mastercharactersitting-path-1"/></defs><g id="Master/Character/Sitting" stroke="none" stroke-width="1" fill="none" fill-rule="evenodd"><g id="Bottom/Sitting" transform="translate(15.000000, 331.000000) scale(1 1)"><g id="Bottom/Sitting/Legs up" stroke="none" stroke-width="1" fill="none" fill-rule="evenodd"><g id="Legs-up" transform="translate(261.000000, 0.000000)"><path d="M277.5869,486.2118 C277.5869,486.2118 253.0069,557.4538 219.6899,574.0488 C219.6899,574.0488 200.0669,582.4978 198.0729,558.0308 L204.3409,477.3028 L222.0639,460.7618 L277.5869,486.2118 Z" id="Shoe" fill="#F3705A"/><path d="M378.6569,32.8377 C380.755216,63.606156 368.492286,130.588264 365.841509,144.582849 C406.270064,167.020711 382.9614,232.804 382.9614,232.804 L288.9194,489.491 C224.9404,496.429 194.8784,427.054 194.8784,427.054 L295.0864,246.679 C241.482032,262.181667 213.711514,270.070333 211.774847,270.345 C209.229783,270.705952 68.143011,270.87 48,270 C-43.8717273,270 27.0674,109.766 27.0674,109.766 C27.0674,109.766 61.7446448,109.921509 131.099134,110.232528 L133.2114,110.242 C133.2114,110.242 276.9299,21.7877 303.4759,7.7777 C331.6679,-7.1023 376.3079,-1.6203 378.6569,32.8377 Z" id="Pants" fill="#3973B0"/><path d="M314.426893,236.4501 C314.685086,236.938315 314.498616,237.5434 314.0104,237.801593 L295.5534,247.562593 C295.065185,247.820786 294.4601,247.634316 294.201907,247.1461 C293.943714,246.657885 294.130184,246.0528 294.6184,245.794607 L313.0754,236.033607 C313.563615,235.775414 314.1687,235.961884 314.426893,236.4501 Z M308.964494,114.713196 C309.406325,115.044564 309.495872,115.671364 309.164504,116.113194 L292.969602,137.705141 L328.976588,136.221041 C343.254007,135.848098 354.924693,138.036494 364.158423,142.570057 C364.654178,142.813462 364.858748,143.412669 364.615343,143.908423 C364.371938,144.404178 363.772731,144.608748 363.276977,144.365343 C354.353745,139.984228 343.000715,137.855396 329.043904,138.219851 L179.501904,144.386851 C179.287523,144.395692 179.075982,144.335344 178.898533,144.214724 L158.205533,130.148724 C157.748781,129.838248 157.6302,129.216286 157.940676,128.759533 C158.251152,128.302781 158.873114,128.1842 159.329867,128.494676 L179.749617,142.374936 L290.390602,137.811141 L307.564496,114.913206 C307.895864,114.471375 308.522664,114.381828 308.964494,114.713196 Z" id="Pants-details" fill="#94C0E9"/></g></g></g><g id="Head" transform="translate(247.000000, 64.000000) scale(1 1)"><defs><path d="M43.051,0.0005 C66.002,0.0005 84.607,16.1245 84.607,36.0165 C84.607,46.0301977 79.8917427,55.0894392 72.2805212,61.6173506 C132.969844,66.9413292 122.749,118.9675 122.749,118.9675 L122.749,118.9675 L78.887,87.9725 L0.201,111.5565 C0.201,111.5565 0.726981365,82.439946 25.3101127,68.5934476 C11.2334044,62.8281894 1.494,50.4080635 1.494,36.0165 C1.494,16.1245 20.099,0.0005 43.051,0.0005 Z" id="headturban-path-1"/><path d="M78.8873,87.9725 C78.8873,87.9725 55.8513,90.2385 45.5993,66.7735 C45.5993,66.7735 68.6083,56.2935 78.8873,87.9725 Z M111.0393,55.4575 L111.040198,55.4929978 C111.064934,56.6450948 111.35862,85.47252 78.8873,87.9725 C78.8873,87.9725 78.0133,60.3025 111.0393,55.4575 Z" id="headturban-path-3"/></defs><g id="Head/Turban" stroke="none" stroke-width="1" fill="none" fill-rule="evenodd"><g id="Turban" transform="translate(31.000000, -17.000000)"><path d="M141.3247,120.444 C140.4627,120.498 139.7317,119.831 139.7487,118.968 C139.7537,118.724 139.7567,118.479 139.7567,118.235 C139.7567,90.567 112.3457,68.139 78.5337,68.139 C44.7207,68.139 17.3097,90.567 17.3097,118.235 C17.3097,118.495 17.3127,118.755 17.3177,119.015 C17.3357,119.888 16.5897,120.563 15.7207,120.482 C15.2277,120.436 14.7267,120.412 14.2197,120.412 C6.3667,120.412 -0.0003,125.76 -0.0003,132.356 C-0.0003,138.953 6.3667,144.301 14.2197,144.301 C17.4057,144.301 20.3407,143.415 22.7097,141.926 C23.4507,141.46 24.4087,141.653 24.8977,142.379 C33.1427,154.616 47.4507,163.726 64.5167,166.999 C65.9897,167.281 67.0207,168.615 66.9347,170.113 L65.3137,199 L91.7527,199 L90.1307,170.113 C90.0457,168.615 91.0777,167.281 92.5507,166.998 C109.5187,163.745 123.7617,154.721 132.0287,142.589 C132.5037,141.891 133.4217,141.681 134.1467,142.111 C136.4607,143.487 139.2787,144.301 142.3287,144.301 C150.1817,144.301 156.5477,138.953 156.5477,132.356 C156.5477,125.76 150.1817,120.412 142.3287,120.412 C141.9907,120.412 141.6557,120.424 141.3247,120.444 Z" id="Skin" fill="#8d574d"/><path d="M17.3179,119.0145 C17.3179,119.0145 63.0589,110.4515 66.1929,80.9035 C66.1929,80.9035 77.1179,116.5645 139.7489,118.9675 C139.7489,118.9675 142.0619,99.8685 129.2079,83.7375 C116.3539,67.6065 87.1169,61.0535 63.1729,63.8265 C36.2889,66.9395 14.2769,97.3475 17.3179,119.0145" id="Hair" fill="#010101"/><g transform="translate(17.000000, 0.000000)"><mask id="headturban-mask-2" fill="#ffffff"><use xlink:href="#headturban-path-1" fill="#ffffff"/></mask><use id="Mask" fill="#5BA092" xlink:href="#headturban-path-1"/><g mask="url(#headturban-mask-2)"><g transform="translate(-63.000000, -41.000000) scale(1 1)" id="Patterns"><g id="Patterns/Pattern 4" stroke="none" stroke-width="1" fill="none" fill-rule="evenodd"><path d="M44.0182254,93.5340618 C52.0762519,97.8410164 62.8281863,99.5580091 73.7432963,98.6961198 C84.9214172,86.0149568 98.2590604,74.9374286 113.525562,66.114744 C111.795813,50.5778981 112.596907,34.8919 115.921886,19.4921175 C119.566814,2.60622659 125.826132,-9.94555973 137.125727,-19.5201488 C141.682325,-23.3806561 146.282471,-25.6343501 151.410836,-25.8053688 C157.514804,-26.0092903 163.523098,-22.8919386 166.608532,-18.3025013 C169.049667,-14.671429 169.792206,-10.7934007 169.783037,-4.96317236 C169.750763,14.3555838 163.536422,33.5124984 152.079347,50.7359233 C169.215323,47.037986 187.016949,47.1020175 202.183477,51.3901057 C208.479788,39.2548243 216.994427,30.813456 229.101431,26.7877312 C243.703137,21.932588 262.357131,24.6509903 277.489768,32.7320135 C290.300029,39.5732087 299.218371,49.1243735 301.443832,59.4854 C304.070392,71.712639 297.233538,84.7957391 284.324539,94.4728077 C275.394203,101.166782 263.970886,106.32409 249.832614,110.488019 C253.172841,134.733065 249.125812,159.013945 237.759392,180.926682 C225.520642,204.524775 204.539835,221.735254 178.141554,225.962184 C153.639383,229.885425 126.269596,221.90624 105.733064,206.59389 C94.6043998,209.573522 82.9748652,210.950551 71.5300011,210.432991 C59.6847044,209.897381 48.2014373,207.31355 37.5830246,203.103165 C37.7137448,209.512773 38.6258562,214.810599 40.5947001,219.841804 C45.5275666,232.451976 58.634875,242.133846 75.7961417,245.229536 C76.8327059,245.416519 77.5208593,246.405268 77.3331755,247.437966 C77.1454917,248.470665 76.1530427,249.156252 75.1164785,248.969269 C56.7157903,245.650002 42.48382,235.137387 37.0404096,221.222083 C34.7134425,215.275726 33.7534971,209.080513 33.7509399,201.496814 C11.9881624,191.872732 -5.7205525,175.351613 -14.7688091,155.79636 C-23.4779655,136.975941 -23.3599294,118.176299 -12.4984613,103.540211 C-8.30374525,97.8880955 -2.707945,94.2154777 3.86147462,93.9654432 C11.1943751,93.6857725 17.0062161,97.2459731 23.47172,104.131127 C32.7503458,114.0124 41.5660698,124.123375 49.8991656,134.440352 C55.4065684,123.168154 62.2536876,112.490026 70.3416952,102.68498 C60.0251578,102.977926 50.0303579,101.060445 42.2147943,96.8830845 C33.1835805,92.0560845 27.4210711,84.8272679 24.3869137,75.4928301 C23.6714736,73.2918133 23.1126956,71.0115863 22.6958238,68.6269781 C15.4956378,70.2072486 8.0461095,70.6348461 0.515901309,69.7658747 C-0.530520844,69.6451196 -1.28055586,68.7020989 -1.15934878,67.6595789 C-1.03814171,66.617059 -0.091591195,65.8698209 0.954830958,65.990576 C8.14723448,66.8205654 15.2715334,66.3940787 22.161834,64.8488151 C21.6492564,60.1798774 21.6054316,55.1012565 21.9341307,49.4488013 C22.7130774,36.0528548 25.2621454,18.0540768 29.8335486,2.82171112 C37.0589335,-21.253983 48.0607288,-34.1763773 63.760381,-30.3293767 C72.7533757,-28.1242575 81.2667579,-18.4335411 83.2884367,-10.0552414 C87.1020447,5.75193498 79.291465,27.1526184 63.8974311,43.995379 C53.3378951,55.5486691 40.4043589,63.8209414 26.3890229,67.7097415 C28.3205825,79.565654 33.7073534,88.0231105 44.0182254,93.5340618 Z M75.6166802,102.344701 C66.2975055,113.125429 58.5574801,125.060813 52.5422838,137.740007 C56.7671237,143.058431 60.8642321,148.430475 64.8309404,153.852933 C66.2338928,155.770808 67.5143338,157.544148 69.7307156,160.630093 C70.5060141,161.709735 70.9066388,162.267578 71.2813341,162.788947 C85.85123,183.062175 94.1586138,192.850041 106.540183,202.426631 C119.611573,198.69858 131.905946,192.68579 142.195445,184.909797 C159.095899,172.137764 170.930261,155.019358 178.219156,134.610606 C179.934864,129.807456 181.302503,125.321446 182.711334,119.809936 C179.748704,119.753593 176.80406,119.629489 173.88046,119.436434 C155.326716,118.211448 140.287553,114.015541 130.487045,106.108456 C123.992784,100.868023 119.971152,94.3946889 117.316883,85.8457306 C107.074634,92.9865074 96.7217409,97.9691809 85.5639507,100.657476 C82.288734,101.446534 78.9523826,102.009491 75.6166802,102.344701 Z M132.887941,103.155032 C141.946863,110.463802 156.293061,114.466373 174.132732,115.644214 C177.279885,115.85203 180.452851,115.978291 183.6476,116.024513 C184.642745,111.876547 185.697839,107.103154 186.939871,101.266314 C187.066259,100.672218 187.066259,100.672218 187.192625,100.077941 C192.034489,77.3077942 194.845489,66.9961475 200.485065,54.8635529 C184.895127,50.6096228 166.3447,50.9616597 148.807022,55.4089399 C141.57849,65.22855 132.599673,74.3369562 122.05631,82.3838417 C121.568645,82.7560559 121.080972,83.1234088 120.593216,83.4858854 C123.041924,91.9878193 126.763539,98.2130503 132.887941,103.155032 Z M79.5166399,98.0000226 C81.2439957,97.71926 82.9642386,97.3737099 84.6672801,96.9634165 C95.7183966,94.3008231 105.992953,89.2573803 116.234936,81.9523263 C115.798927,80.1957113 115.407103,78.3584909 115.051708,76.434751 C114.669827,74.3673538 114.333295,72.2955549 114.042095,70.2203977 C101.015371,77.9311479 89.4554046,87.3362091 79.5166399,98.0000226 Z M181.813158,135.884738 C174.286716,156.958616 162.026111,174.693584 144.500902,187.937757 C134.569512,195.443119 122.856649,201.357261 110.371526,205.250336 C129.830472,218.861848 155.034987,225.812652 177.536217,222.209798 C202.642672,218.189717 222.652471,201.775753 234.370355,179.181965 C245.288412,158.133606 249.227766,134.838906 246.125812,111.540274 C244.330207,112.031643 242.493286,112.508705 240.614636,112.972471 C222.461805,117.453614 204.258379,119.82647 186.637569,119.845047 C185.119929,125.882014 183.667788,130.692674 181.813158,135.884738 Z M68.1796435,165.001465 C67.8045122,164.47949 67.4034403,163.921024 66.6283545,162.841678 C64.4180446,159.764188 63.1426757,157.997872 61.7480367,156.091361 C58.1911465,151.229122 54.5284064,146.407452 50.7617647,141.628709 C43.3409539,158.435912 38.907291,176.448615 37.7885672,194.742383 C37.6982764,196.218981 37.6343517,197.638424 37.5989416,199.007305 C48.2139241,203.396412 59.7680666,206.096698 71.7029708,206.636359 C81.7922612,207.092618 92.0402916,206.020427 101.934222,203.637615 C90.3976329,194.317503 82.0617035,184.317607 68.1796435,165.001465 Z M33.9808612,194.511273 C35.1677769,175.102406 39.9949994,156.004866 48.0905909,138.268706 C39.4756455,127.524248 30.3332954,117.001481 20.6859682,106.72756 C14.9069565,100.573455 9.94941352,97.5365783 4.00725378,97.7632073 C-1.24604488,97.9631498 -5.86501352,100.994657 -9.43105194,105.799669 C-19.369178,119.191531 -19.4781154,136.542012 -11.3044483,154.205242 C-2.85333004,172.46995 13.5764372,188.024304 33.8361044,197.362932 C33.8729331,196.433819 33.9213909,195.483838 33.9808612,194.511273 Z M282.030975,91.4358966 C293.863766,82.5655939 299.984539,70.8527947 297.713527,60.2807116 C295.758988,51.1810117 287.600615,42.4437407 275.687541,36.0816796 C261.418823,28.4620003 243.826246,25.8982756 230.309133,30.3927859 C219.464306,33.9988216 211.726365,41.5381068 205.885276,52.5391858 C208.577377,53.452293 211.172074,54.5081795 213.649129,55.7096784 C233.870467,65.5183273 245.285319,83.6154911 249.248616,106.695606 C262.750783,102.676391 273.618167,97.7419433 282.030975,91.4358966 Z M165.968355,-4.96931235 C165.97636,-10.1098725 165.359664,-13.3306681 163.439022,-16.1875327 C161.081805,-19.6937813 156.315844,-22.166559 151.53857,-22.0069597 C147.413646,-21.8694034 143.556999,-19.979963 139.597127,-16.6250227 C129.03151,-7.67236175 123.135269,4.15134575 119.651366,20.2912575 C116.527776,34.7582973 115.691061,49.481349 117.147017,64.084087 C121.4974,61.7183012 125.997011,59.5325951 130.640816,57.5411813 C135.756897,55.3472461 141.087074,53.5196659 146.522544,52.0736723 C159.096423,34.5762928 165.935142,14.8645954 165.968355,-4.96931235 Z M118.803466,75.7468525 C119.042111,77.0386287 119.297142,78.2865448 119.571099,79.4928339 C119.62619,79.450913 119.681283,79.408927 119.736377,79.366876 C128.549713,72.6403788 136.229625,65.1616249 142.664854,57.1480699 C139.083892,58.2702533 135.566762,59.5664434 132.149046,61.0320668 C127.12948,63.1846189 122.282419,65.5698882 117.614553,68.1690063 C117.941697,70.7002989 118.337991,73.2269045 118.803466,75.7468525 Z M190.924566,100.865596 C190.798184,101.459949 190.798184,101.459949 190.671698,102.054505 C189.509391,107.516679 188.50807,112.06114 187.564878,116.041241 C204.576826,115.941782 222.15382,113.614173 239.697148,109.283489 C241.700678,108.788895 243.654516,108.279216 245.559119,107.753298 C241.851877,85.5856315 231.092442,68.3978752 211.979227,59.1267373 C209.498949,57.9236751 206.8893,56.8741114 204.173443,55.9750685 C198.540728,67.9794751 195.772885,78.0650913 190.924566,100.865596 Z M61.0768202,41.4365737 C75.6921585,25.4457913 83.0597071,5.258996 79.5793261,-9.16697406 C77.8717115,-16.2437199 70.3567282,-24.7979667 62.8489833,-26.6388966 C49.8826769,-29.8161255 40.1953578,-18.4376774 33.4884438,3.91042063 C29.0171861,18.8090918 26.5058132,36.5417078 25.7425109,49.6686091 C25.4422644,54.8317811 25.4735803,59.567991 25.8964257,63.8956898 C38.9999593,60.1425496 51.1224904,52.3277018 61.0768202,41.4365737 Z" id="Pattern" fill="#010101"/></g></g></g><mask id="headturban-mask-4" fill="#ffffff"><use xlink:href="#headturban-path-3" fill="#ffffff"/></mask><use id="Details" fill="#2F6858" xlink:href="#headturban-path-3"/></g></g></g></g><g id="Face" transform="translate(321.000000, 155.000000) scale(1 1)"><g id="Face/Glasses" stroke="none" stroke-width="1" fill="none" fill-rule="evenodd"><g id="Glasses" transform="translate(1.000000, 8.000000)"><path d="M21.2142,-2.13162821e-14 C32.9215177,-2.13162821e-14 42.4282,9.25219371 42.4282,20.686 C42.4282,21.4351623 42.3873869,22.1749587 42.307816,22.9034003 L49.3351964,22.8869478 C49.3019215,22.3925382 49.285,21.8933837 49.285,21.3901 C49.285,9.98731464 57.9713029,0.7041 68.737,0.7041 C79.5033656,0.7041 88.189,9.98695743 88.189,21.3901 C88.189,32.7932426 79.5033656,42.0761 68.737,42.0761 C59.4281564,42.0761 51.6740035,35.1353637 49.7458309,25.8851038 L41.7472963,25.9059033 C39.3744023,34.8083762 31.0748805,41.372 21.2142,41.372 C9.50688233,41.372 0.0002,32.1198063 0.0002,20.686 C0.0002,9.25219371 9.50688233,-2.13162821e-14 21.2142,-2.13162821e-14 Z M68.737,3.7041 C59.6743591,3.7041 52.285,11.6012466 52.285,21.3901 C52.285,31.1789534 59.6743591,39.0761 68.737,39.0761 C77.8002817,39.0761 85.189,31.1793344 85.189,21.3901 C85.189,11.6008656 77.8002817,3.7041 68.737,3.7041 Z M21.2142,3 C11.1457922,3 3.0002,10.9275392 3.0002,20.686 C3.0002,30.4444608 11.1457922,38.372 21.2142,38.372 C31.2826078,38.372 39.4282,30.4444608 39.4282,20.686 C39.4282,10.9275392 31.2826078,3 21.2142,3 Z" id="Combined-Shape" fill="#F3705A"/><path d="M31.5916697,41.5163389 C31.3065036,40.7385395 31.7058618,39.8768358 32.4836611,39.5916697 C33.2614605,39.3065036 34.1231642,39.7058618 34.4083303,40.4836611 C34.4613851,40.6283697 34.5845696,40.9185521 34.7778641,41.3038508 C35.1046798,41.9553008 35.5020079,42.6069701 35.9660446,43.2082416 C38.2079414,46.1131596 40.9296782,46.7915247 44.7966085,44.0076513 C45.4689316,43.5236336 46.4063311,43.6762854 46.8903487,44.3486085 C47.3743664,45.0209316 47.2217146,45.9583311 46.5493915,46.4423487 C41.2508857,50.2568394 36.7507163,49.1352182 33.5910775,45.041144 C32.5784937,43.7290974 31.9263137,42.4290906 31.5916697,41.5163389 Z" id="Stroke-7" fill="#010101"/><path d="M18.3701,26.9805 C18.3701,24.6420469 19.7129415,22.7462707 21.3701,22.7462707 C23.0272585,22.7462707 24.3701,24.6420469 24.3701,26.9805 C24.3701,29.3189531 23.0272585,31.2147293 21.3701,31.2147293 C19.7129415,31.2147293 18.3701,29.3189531 18.3701,26.9805" id="Fill-9" fill="#010101"/><path d="M64.1553,26.9805 C64.1553,24.6420469 65.4981415,22.7462707 67.1553,22.7462707 C68.8108129,22.7462707 70.1553,24.6420469 70.1553,26.9805 C70.1553,29.3189531 68.8108129,31.2147293 67.1553,31.2147293 C65.4981415,31.2147293 64.1553,29.3189531 64.1553,26.9805" id="Fill-11" fill="#010101"/></g></g></g><g id="Body" transform="translate(64.000000, 26.000000) scale(1 1)"><defs><path d="M178.062052,0.147448979 C183.245309,0.698942918 188.669993,1.34545492 194.3869,2.07371017 C261.0429,10.5637102 303.3999,44.8787102 303.3999,44.8787102 C289.8349,93.9397102 257.3669,124.07771 257.3669,124.07771 L257.3669,124.07771 L263.4119,196.62071 C121.2049,234.90771 26.7829,189.42371 26.7829,189.42371 L26.7829,189.42371 L52.9799,133.57771 C22.7529,127.24471 0.1299,96.1457102 0.1299,96.1457102 C0.1299,96.1457102 14.8559,38.5157102 58.0189,18.8097102 C75.8223351,10.6815809 90.8189647,5.28934435 105.298114,2.0347215 C107.051744,2.95189508 123.615554,11.293313 144.1316,10.4313102 C164.1786,9.58831017 178.8116,0.248310166 178.8116,0.248310166 L178.8116,0.248310166 Z" id="bodypeace-path-1"/></defs><g id="Body/Peace" stroke="none" stroke-width="1" fill="none" fill-rule="evenodd"><g id="Body" transform="translate(1.000000, 43.000000)"><path d="M192.7999,270.0179 L217.1779,295.4889 C217.1779,295.4889 204.6299,350.7029 200.8649,372.6629 C197.1009,394.6229 122.2409,532.5629 122.2409,532.5629 L122.2409,532.5629 L114.6969,574.9819 C114.2609,577.4329 113.2319,579.7729 111.5519,581.6109 C109.8669,583.4539 107.5189,584.8189 104.8659,582.9099 C99.5619,579.0899 100.6909,553.1509 100.6909,553.1509 C100.6909,553.1509 78.3419,576.3319 64.9749,588.8509 C51.6069,601.3699 42.9099,600.3449 39.0879,596.7019 C35.186926,592.983069 43.2873434,584.648683 43.7107761,584.218237 L43.7279,584.2009 C32.4819,592.0509 24.5179,587.6749 24.5179,587.6749 C21.3359,586.1429 25.5399,577.2529 25.5399,577.2529 C22.2049,580.3089 14.8989,580.3629 12.1399,577.1799 C9.9559,574.6609 16.4549,564.8509 16.4549,564.8509 C10.8669,569.3299 -3.1381,568.2679 0.6369,561.7949 C2.9203,557.87686 61.7587748,470.195613 64.1114004,466.689931 L64.1839,466.5819 C91.2959,414.1359 161.1299,270.9409 161.1299,270.9409 L161.1299,270.9409 L192.7999,270.0179 Z M589.213409,16.1648137 C589.2145,16.1722 594.4325,60.1792 594.2165,66.2202 C594.2165,66.2202 599.3955,58.2372 606.9475,58.6682 C614.4995,59.1002 617.0885,74.6362 617.0885,74.6362 C617.0885,74.6362 628.5245,75.4992 631.5455,93.4082 C631.5455,93.4082 639.9445,100.4882 629.0885,125.1592 C621.9675,141.3432 614.7155,147.7842 614.7155,147.7842 C614.7155,147.7842 598.6115,326.8642 574.5665,352.4432 C558.2635,369.7862 508.4055,376.1222 418.3665,298.8722 L442.2975,230.3192 L453.4595,213.8042 L453.507906,213.827581 C455.082017,214.589593 494.69738,233.89036 520.9555,258.9372 L548.0965,138.3352 C548.0965,138.3352 522.8855,103.8772 532.7195,89.7412 C539.6245,79.8152 547.6645,80.5562 547.6645,80.5562 C547.6645,80.5562 537.6825,14.8662 543.5085,8.6082 C549.3345,2.3502 558.6815,18.5212 558.6815,18.5212 C558.6815,18.5212 568.726265,39.8857644 572.082019,65.3910728 L572.131052,65.7782753 L572.105762,65.5269772 C570.698024,51.8400528 567.52018,12.94496 575.6595,3.2132 C585.48624,-8.53513 589.14129,15.6793493 589.213409,16.1648137 Z M339.8116,175.0435 C339.8116,175.0435 325.1786,184.3835 305.1316,185.2265 C283.4256,186.1385 266.1436,176.7485 266.1436,176.7485 C266.1436,176.7485 293.2516,168.6835 339.8116,175.0435 Z" id="Skin" fill="#8d574d"/><path d="M71.6642974,551.890158 C72.1855669,552.072632 72.4602154,552.643128 72.2777419,553.164397 C71.3871851,555.708439 67.5087911,560.572784 61.3406082,567.278438 C60.6859035,567.990191 60.0098757,568.717437 59.3143595,569.458566 C56.4823028,572.476352 53.4493359,575.596356 50.4165388,578.641609 C49.3551734,579.707334 48.3695473,580.687687 47.484849,581.56048 C47.1750507,581.866109 46.8999426,582.136516 46.6626745,582.368924 C46.5200548,582.508622 46.4219206,582.604435 46.3704012,582.654584 C45.974643,583.039803 45.3415356,583.031259 44.9563164,582.635501 C44.5710971,582.239743 44.5796406,581.606636 44.9753988,581.221416 C45.0247565,581.173374 45.1220717,581.078361 45.2631689,580.940154 C45.4987623,580.709386 45.7721734,580.440647 46.0802474,580.136719 C46.9608984,579.267919 47.942376,578.291692 48.9994299,577.230297 C52.0192593,574.198064 55.0389189,571.09175 57.8559803,568.089943 C58.5470483,567.353554 59.2185547,566.631172 59.8686348,565.924446 C65.8017053,559.474391 69.6312285,554.671341 70.3900581,552.503603 C70.5725316,551.982333 71.143028,551.707685 71.6642974,551.890158 Z M54.8295573,542.526271 C55.3371781,542.743848 55.5723053,543.331736 55.3547288,543.839357 C53.9628333,547.086743 49.8390487,552.481708 43.6338967,559.518154 C42.7758911,560.491105 41.8842803,561.487992 40.9623314,562.505927 C37.7424278,566.061059 34.2940198,569.719612 30.8457889,573.278731 C29.6390216,574.524306 28.5183675,575.668593 27.5124677,576.686161 C27.160228,577.042486 26.8474312,577.357581 26.5776589,577.628264 C26.4155026,577.790968 26.3035399,577.902893 26.2453528,577.960858 C25.8540822,578.350635 25.2209184,578.349423 24.8311418,577.958153 C24.4413653,577.566882 24.4425765,576.933718 24.8338472,576.543942 L25.1610636,576.216437 L25.1610636,576.216437 C25.4289455,575.94765 25.7398276,575.634484 26.0901226,575.280126 C27.0914652,574.267168 28.2074525,573.127646 29.4093759,571.887071 C32.8431186,568.342906 36.2766842,564.7001 39.479956,561.163331 C40.3961316,560.151771 41.2818699,559.16145 42.1338534,558.195327 C48.1887937,551.329217 52.2403252,546.028777 53.5164712,543.051443 C53.7340478,542.543822 54.3219365,542.308695 54.8295573,542.526271 Z M36.4255483,538.485972 C36.9176495,538.736681 37.1133367,539.338847 36.862628,539.830948 C35.3067373,542.884913 33.6002801,545.805186 31.7673938,548.589805 C28.5653303,553.454552 25.1339693,557.684719 21.7002584,561.26204 C20.4961106,562.516549 19.3765751,563.600677 18.3699396,564.5121 C18.0158593,564.832689 17.7006358,565.109201 17.427803,565.341341 C17.2614744,565.482862 17.1446197,565.579408 17.0807717,565.630685 C16.6501634,565.97651 16.0207399,565.90778 15.6749148,565.477172 C15.3290897,565.046563 15.3978201,564.41714 15.8284283,564.071315 C15.8776858,564.031756 15.979973,563.947245 16.1317535,563.818102 C16.3891026,563.599137 16.6888901,563.336165 17.0275808,563.02951 C18.0002911,562.148803 19.0863124,561.09713 20.2573796,559.877085 C23.6099971,556.384249 26.9649645,552.24826 30.0968076,547.490195 C31.8897846,544.766208 33.5589463,541.90976 35.080572,538.923052 C35.3312807,538.43095 35.9334471,538.235263 36.4255483,538.485972 Z M522.258794,257.961309 L526.271794,275.604309 C526.394286,276.142839 526.05702,276.678703 525.518491,276.801194 C524.979961,276.923686 524.444097,276.58642 524.321606,276.047891 L520.308606,258.404891 C520.186114,257.866361 520.52338,257.330497 521.061909,257.208006 C521.600439,257.085514 522.136303,257.42278 522.258794,257.961309 Z M594.856638,65.4521068 C595.280844,65.8057557 595.338042,66.4363319 594.984393,66.8605381 C594.948515,66.9035739 594.877489,66.9894251 594.773661,67.1159441 C594.599657,67.3279764 594.397538,67.5763902 594.169653,67.8590369 C593.517532,68.6678629 592.790457,69.5879033 592.007224,70.6019433 C589.769265,73.4993961 587.531358,76.5671719 585.4442,79.6666669 C583.84007,82.0488499 582.389542,84.3562543 581.129538,86.5542771 C578.117606,91.8084657 576.3259,96.206907 576.050034,99.4000656 C576.027615,99.659561 576.014989,99.9095756 576.012405,100.150171 C576.044462,100.185568 576.072813,100.225328 576.098521,100.267676 C576.30112,100.601417 576.285344,101.006592 576.091911,101.316667 C576.43698,103.49945 577.935142,104.657632 580.874706,104.862611 C585.565339,105.188954 588.836023,103.381802 595.545662,95.6874025 C595.572397,95.6406324 595.60571,95.5813548 595.645771,95.510687 C595.768572,95.2940634 595.913509,95.0435671 596.079952,94.7620069 C596.553768,93.9604842 597.105974,93.0685833 597.731582,92.1087475 C599.518564,89.3670819 601.538367,86.6253404 603.752759,84.0624887 C607.897053,79.2660437 612.234714,75.6559242 616.689914,73.7191125 C617.196407,73.4989243 617.785499,73.7310206 618.005688,74.237514 C618.225876,74.7440075 617.993779,75.3330993 617.487286,75.5532875 C613.352693,77.3507215 609.231503,80.7806779 605.266107,85.3700735 C603.11559,87.8589988 601.147992,90.5298756 599.4071,93.2008282 C598.797952,94.1354088 598.26104,95.0026088 597.801627,95.7797664 C597.527664,96.2432104 597.341526,96.5715623 597.248419,96.7421934 L597.258545,96.7225695 C597.217282,96.8023564 597.137075,96.9614558 597.023495,97.1932373 C596.832528,97.5829462 596.61929,98.0321538 596.389357,98.5342101 C595.731353,99.9709521 595.073017,101.54002 594.458928,103.187759 C593.432828,105.941016 592.636988,108.629065 592.160743,111.139007 C591.075695,116.857511 591.757527,121.014018 594.532963,123.070965 C596.87748,124.809612 601.201276,121.420655 607.269043,113.08937 C612.91796,105.335389 621.930061,97.257359 626.376698,95.5272559 C626.891397,95.3269964 627.470985,95.5818995 627.671244,96.096598 C627.871504,96.6112966 627.6166,97.1908846 627.101902,97.3911441 C623.070129,98.9598315 614.329247,106.794752 608.885637,114.266921 C602.098317,123.58618 597.125739,127.483648 593.341873,124.677609 C589.783262,122.040232 588.982667,117.15973 590.195802,110.766172 C590.695357,108.133378 591.522163,105.340738 592.584848,102.489316 C592.735468,102.085166 592.888631,101.685721 593.043734,101.291679 C588.326164,105.889293 585.034411,107.15685 580.735738,106.857778 C577.189718,106.61051 575.051891,105.061188 574.309818,102.483341 C573.283958,103.054671 572.090454,103.679031 570.750183,104.348796 C570.067099,104.690149 569.350086,105.041153 568.602951,105.400412 C566.463627,106.429103 564.173501,107.480219 561.883645,108.497822 C561.67162,108.592045 561.463597,108.684197 561.259928,108.774148 C562.398781,109.183531 563.652699,109.680963 565.008481,110.274051 C569.865028,112.398553 575.049794,115.309244 580.352028,119.127082 C580.800217,119.449798 580.901933,120.074739 580.579218,120.522928 C580.256502,120.971117 579.631561,121.072833 579.183372,120.750118 C573.999606,117.017581 568.937872,114.175959 564.206919,112.106399 C562.555998,111.384202 561.066097,110.810409 559.763413,110.370166 C559.310455,110.217088 558.914106,110.091815 558.577645,109.992487 C558.380046,109.934153 558.248876,109.89804 558.187414,109.882287 C557.261524,109.64497 557.164348,108.368388 558.043648,107.993657 C558.19378,107.929675 558.476943,107.807968 558.874099,107.635609 C559.536925,107.347956 560.275724,107.02378 561.071442,106.670166 C563.34435,105.660095 565.616989,104.617005 567.736246,103.597963 C568.474556,103.242947 569.18251,102.896378 569.856151,102.559744 C571.482991,101.746774 572.884026,101.00473 574.016965,100.350393 C574.009712,99.9897602 574.023995,99.615235 574.057456,99.2279209 C574.364607,95.672646 576.249008,91.0466472 579.394411,85.5596254 C579.959159,84.5744459 580.560584,83.5690601 581.195612,82.546204 C578.3834,82.589458 572.806219,82.5006591 565.065382,82.3113946 C563.412661,82.2709854 561.692499,82.2266103 559.920982,82.1789098 C556.856474,82.0963938 553.785355,82.007987 550.855669,81.91958 C549.830264,81.8886372 548.895763,81.8599039 548.070676,81.8341166 C547.575539,81.8186415 547.226843,81.8075855 547.043102,81.8016847 C546.491102,81.7839576 546.057988,81.3221024 546.075715,80.7701023 C546.093442,80.2181021 546.555298,79.7849882 547.107298,79.8027153 C547.290481,79.8085981 547.638605,79.819636 548.133154,79.8350927 C548.957543,79.8608582 549.89133,79.8895695 550.915994,79.92049 C553.843646,80.0088356 556.912647,80.0971814 559.974815,80.1796344 C561.744748,80.2272923 563.463274,80.2716252 565.114267,80.3119922 C574.438397,80.5399683 580.791628,80.6213171 582.494366,80.5045713 C582.910994,79.8593959 583.342449,79.2071529 583.785262,78.5495607 C585.898791,75.4109049 588.161619,72.3089664 590.424395,69.379384 C591.216419,68.3539618 591.952084,67.4230507 592.612678,66.6037163 C592.844242,66.3165068 593.050003,66.0636174 593.227618,65.8471844 C593.334763,65.7166241 593.409072,65.6268042 593.448207,65.5798619 C593.801856,65.1556558 594.432432,65.0984579 594.856638,65.4521068 Z" id="Skin-Shadows" fill="#6d4038"/><g id="Tshirt" transform="translate(161.000000, 174.795190)"><mask id="bodypeace-mask-2" fill="#ffffff"><use xlink:href="#bodypeace-path-1" fill="#ffffff"/></mask><use fill="#F2B08F" xlink:href="#bodypeace-path-1"/><g mask="url(#bodypeace-mask-2)"><g transform="translate(-101.000000, 2.204810) scale(1 1)" id="Patterns"><g id="Patterns/Pattern 7" stroke="none" stroke-width="1" fill="none" fill-rule="evenodd"><path d="M128.5,180 C138.717268,180 147,188.282732 147,198.5 C147,208.717268 138.717268,217 128.5,217 C118.282732,217 110,208.717268 110,198.5 C110,188.282732 118.282732,180 128.5,180 Z M128.5,187 C122.148725,187 117,192.148725 117,198.5 C117,204.851275 122.148725,210 128.5,210 C134.851275,210 140,204.851275 140,198.5 C140,192.148725 134.851275,187 128.5,187 Z M221.5,162 C231.717268,162 240,170.282732 240,180.5 C240,190.717268 231.717268,199 221.5,199 C211.282732,199 203,190.717268 203,180.5 C203,170.282732 211.282732,162 221.5,162 Z M21.5,161 C31.7172679,161 40,169.282732 40,179.5 C40,189.717268 31.7172679,198 21.5,198 C11.2827321,198 3,189.717268 3,179.5 C3,169.282732 11.2827321,161 21.5,161 Z M221.5,169 C215.148725,169 210,174.148725 210,180.5 C210,186.851275 215.148725,192 221.5,192 C227.851275,192 233,186.851275 233,180.5 C233,174.148725 227.851275,169 221.5,169 Z M21.5,168 C15.1487254,168 10,173.148725 10,179.5 C10,185.851275 15.1487254,191 21.5,191 C27.8512746,191 33,185.851275 33,179.5 C33,173.148725 27.8512746,168 21.5,168 Z M110.5,109 C120.717268,109 129,117.282732 129,127.5 C129,137.717268 120.717268,146 110.5,146 C100.282732,146 92,137.717268 92,127.5 C92,117.282732 100.282732,109 110.5,109 Z M110.5,116 C104.148725,116 99,121.148725 99,127.5 C99,133.851275 104.148725,139 110.5,139 C116.851275,139 122,133.851275 122,127.5 C122,121.148725 116.851275,116 110.5,116 Z M183.5,100 C193.717268,100 202,108.282732 202,118.5 C202,128.717268 193.717268,137 183.5,137 C173.282732,137 165,128.717268 165,118.5 C165,108.282732 173.282732,100 183.5,100 Z M183.5,107 C177.148725,107 172,112.148725 172,118.5 C172,124.851275 177.148725,130 183.5,130 C189.851275,130 195,124.851275 195,118.5 C195,112.148725 189.851275,107 183.5,107 Z M44.5,81 C54.7172679,81 63,89.2827321 63,99.5 C63,109.717268 54.7172679,118 44.5,118 C34.2827321,118 26,109.717268 26,99.5 C26,89.2827321 34.2827321,81 44.5,81 Z M253.5,81 C263.717268,81 272,89.2827321 272,99.5 C272,109.717268 263.717268,118 253.5,118 C243.282732,118 235,109.717268 235,99.5 C235,89.2827321 243.282732,81 253.5,81 Z M44.5,88 C38.1487254,88 33,93.1487254 33,99.5 C33,105.851275 38.1487254,111 44.5,111 C50.8512746,111 56,105.851275 56,99.5 C56,93.1487254 50.8512746,88 44.5,88 Z M253.5,88 C247.148725,88 242,93.1487254 242,99.5 C242,105.851275 247.148725,111 253.5,111 C259.851275,111 265,105.851275 265,99.5 C265,93.1487254 259.851275,88 253.5,88 Z M192.5,28 C202.717268,28 211,36.2827321 211,46.5 C211,56.7172679 202.717268,65 192.5,65 C182.282732,65 174,56.7172679 174,46.5 C174,36.2827321 182.282732,28 192.5,28 Z M110.5,28 C120.717268,28 129,36.2827321 129,46.5 C129,56.7172679 120.717268,65 110.5,65 C100.282732,65 92,56.7172679 92,46.5 C92,36.2827321 100.282732,28 110.5,28 Z M192.5,35 C186.148725,35 181,40.1487254 181,46.5 C181,52.8512746 186.148725,58 192.5,58 C198.851275,58 204,52.8512746 204,46.5 C204,40.1487254 198.851275,35 192.5,35 Z M110.5,35 C104.148725,35 99,40.1487254 99,46.5 C99,52.8512746 104.148725,58 110.5,58 C116.851275,58 122,52.8512746 122,46.5 C122,40.1487254 116.851275,35 110.5,35 Z M40.5,9 C50.7172679,9 59,17.2827321 59,27.5 C59,37.7172679 50.7172679,46 40.5,46 C30.2827321,46 22,37.7172679 22,27.5 C22,17.2827321 30.2827321,9 40.5,9 Z M40.5,16 C34.1487254,16 29,21.1487254 29,27.5 C29,33.8512746 34.1487254,39 40.5,39 C46.8512746,39 52,33.8512746 52,27.5 C52,21.1487254 46.8512746,16 40.5,16 Z M258.5,2 C268.717268,2 277,10.2827321 277,20.5 C277,30.7172679 268.717268,39 258.5,39 C248.282732,39 240,30.7172679 240,20.5 C240,10.2827321 248.282732,2 258.5,2 Z M258.5,9 C252.148725,9 247,14.1487254 247,20.5 C247,26.8512746 252.148725,32 258.5,32 C264.851275,32 270,26.8512746 270,20.5 C270,14.1487254 264.851275,9 258.5,9 Z" id="Pattern" fill="#010101"/></g></g></g><g mask="url(#bodypeace-mask-2)"><g transform="translate(179.000000, 2.204810) scale(1 1)" id="Patterns"><g id="Patterns/Pattern 4" stroke="none" stroke-width="1" fill="none" fill-rule="evenodd"><path d="M44.0182254,93.5340618 C52.0762519,97.8410164 62.8281863,99.5580091 73.7432963,98.6961198 C84.9214172,86.0149568 98.2590604,74.9374286 113.525562,66.114744 C111.795813,50.5778981 112.596907,34.8919 115.921886,19.4921175 C119.566814,2.60622659 125.826132,-9.94555973 137.125727,-19.5201488 C141.682325,-23.3806561 146.282471,-25.6343501 151.410836,-25.8053688 C157.514804,-26.0092903 163.523098,-22.8919386 166.608532,-18.3025013 C169.049667,-14.671429 169.792206,-10.7934007 169.783037,-4.96317236 C169.750763,14.3555838 163.536422,33.5124984 152.079347,50.7359233 C169.215323,47.037986 187.016949,47.1020175 202.183477,51.3901057 C208.479788,39.2548243 216.994427,30.813456 229.101431,26.7877312 C243.703137,21.932588 262.357131,24.6509903 277.489768,32.7320135 C290.300029,39.5732087 299.218371,49.1243735 301.443832,59.4854 C304.070392,71.712639 297.233538,84.7957391 284.324539,94.4728077 C275.394203,101.166782 263.970886,106.32409 249.832614,110.488019 C253.172841,134.733065 249.125812,159.013945 237.759392,180.926682 C225.520642,204.524775 204.539835,221.735254 178.141554,225.962184 C153.639383,229.885425 126.269596,221.90624 105.733064,206.59389 C94.6043998,209.573522 82.9748652,210.950551 71.5300011,210.432991 C59.6847044,209.897381 48.2014373,207.31355 37.5830246,203.103165 C37.7137448,209.512773 38.6258562,214.810599 40.5947001,219.841804 C45.5275666,232.451976 58.634875,242.133846 75.7961417,245.229536 C76.8327059,245.416519 77.5208593,246.405268 77.3331755,247.437966 C77.1454917,248.470665 76.1530427,249.156252 75.1164785,248.969269 C56.7157903,245.650002 42.48382,235.137387 37.0404096,221.222083 C34.7134425,215.275726 33.7534971,209.080513 33.7509399,201.496814 C11.9881624,191.872732 -5.7205525,175.351613 -14.7688091,155.79636 C-23.4779655,136.975941 -23.3599294,118.176299 -12.4984613,103.540211 C-8.30374525,97.8880955 -2.707945,94.2154777 3.86147462,93.9654432 C11.1943751,93.6857725 17.0062161,97.2459731 23.47172,104.131127 C32.7503458,114.0124 41.5660698,124.123375 49.8991656,134.440352 C55.4065684,123.168154 62.2536876,112.490026 70.3416952,102.68498 C60.0251578,102.977926 50.0303579,101.060445 42.2147943,96.8830845 C33.1835805,92.0560845 27.4210711,84.8272679 24.3869137,75.4928301 C23.6714736,73.2918133 23.1126956,71.0115863 22.6958238,68.6269781 C15.4956378,70.2072486 8.0461095,70.6348461 0.515901309,69.7658747 C-0.530520844,69.6451196 -1.28055586,68.7020989 -1.15934878,67.6595789 C-1.03814171,66.617059 -0.091591195,65.8698209 0.954830958,65.990576 C8.14723448,66.8205654 15.2715334,66.3940787 22.161834,64.8488151 C21.6492564,60.1798774 21.6054316,55.1012565 21.9341307,49.4488013 C22.7130774,36.0528548 25.2621454,18.0540768 29.8335486,2.82171112 C37.0589335,-21.253983 48.0607288,-34.1763773 63.760381,-30.3293767 C72.7533757,-28.1242575 81.2667579,-18.4335411 83.2884367,-10.0552414 C87.1020447,5.75193498 79.291465,27.1526184 63.8974311,43.995379 C53.3378951,55.5486691 40.4043589,63.8209414 26.3890229,67.7097415 C28.3205825,79.565654 33.7073534,88.0231105 44.0182254,93.5340618 Z M75.6166802,102.344701 C66.2975055,113.125429 58.5574801,125.060813 52.5422838,137.740007 C56.7671237,143.058431 60.8642321,148.430475 64.8309404,153.852933 C66.2338928,155.770808 67.5143338,157.544148 69.7307156,160.630093 C70.5060141,161.709735 70.9066388,162.267578 71.2813341,162.788947 C85.85123,183.062175 94.1586138,192.850041 106.540183,202.426631 C119.611573,198.69858 131.905946,192.68579 142.195445,184.909797 C159.095899,172.137764 170.930261,155.019358 178.219156,134.610606 C179.934864,129.807456 181.302503,125.321446 182.711334,119.809936 C179.748704,119.753593 176.80406,119.629489 173.88046,119.436434 C155.326716,118.211448 140.287553,114.015541 130.487045,106.108456 C123.992784,100.868023 119.971152,94.3946889 117.316883,85.8457306 C107.074634,92.9865074 96.7217409,97.9691809 85.5639507,100.657476 C82.288734,101.446534 78.9523826,102.009491 75.6166802,102.344701 Z M132.887941,103.155032 C141.946863,110.463802 156.293061,114.466373 174.132732,115.644214 C177.279885,115.85203 180.452851,115.978291 183.6476,116.024513 C184.642745,111.876547 185.697839,107.103154 186.939871,101.266314 C187.066259,100.672218 187.066259,100.672218 187.192625,100.077941 C192.034489,77.3077942 194.845489,66.9961475 200.485065,54.8635529 C184.895127,50.6096228 166.3447,50.9616597 148.807022,55.4089399 C141.57849,65.22855 132.599673,74.3369562 122.05631,82.3838417 C121.568645,82.7560559 121.080972,83.1234088 120.593216,83.4858854 C123.041924,91.9878193 126.763539,98.2130503 132.887941,103.155032 Z M79.5166399,98.0000226 C81.2439957,97.71926 82.9642386,97.3737099 84.6672801,96.9634165 C95.7183966,94.3008231 105.992953,89.2573803 116.234936,81.9523263 C115.798927,80.1957113 115.407103,78.3584909 115.051708,76.434751 C114.669827,74.3673538 114.333295,72.2955549 114.042095,70.2203977 C101.015371,77.9311479 89.4554046,87.3362091 79.5166399,98.0000226 Z M181.813158,135.884738 C174.286716,156.958616 162.026111,174.693584 144.500902,187.937757 C134.569512,195.443119 122.856649,201.357261 110.371526,205.250336 C129.830472,218.861848 155.034987,225.812652 177.536217,222.209798 C202.642672,218.189717 222.652471,201.775753 234.370355,179.181965 C245.288412,158.133606 249.227766,134.838906 246.125812,111.540274 C244.330207,112.031643 242.493286,112.508705 240.614636,112.972471 C222.461805,117.453614 204.258379,119.82647 186.637569,119.845047 C185.119929,125.882014 183.667788,130.692674 181.813158,135.884738 Z M68.1796435,165.001465 C67.8045122,164.47949 67.4034403,163.921024 66.6283545,162.841678 C64.4180446,159.764188 63.1426757,157.997872 61.7480367,156.091361 C58.1911465,151.229122 54.5284064,146.407452 50.7617647,141.628709 C43.3409539,158.435912 38.907291,176.448615 37.7885672,194.742383 C37.6982764,196.218981 37.6343517,197.638424 37.5989416,199.007305 C48.2139241,203.396412 59.7680666,206.096698 71.7029708,206.636359 C81.7922612,207.092618 92.0402916,206.020427 101.934222,203.637615 C90.3976329,194.317503 82.0617035,184.317607 68.1796435,165.001465 Z M33.9808612,194.511273 C35.1677769,175.102406 39.9949994,156.004866 48.0905909,138.268706 C39.4756455,127.524248 30.3332954,117.001481 20.6859682,106.72756 C14.9069565,100.573455 9.94941352,97.5365783 4.00725378,97.7632073 C-1.24604488,97.9631498 -5.86501352,100.994657 -9.43105194,105.799669 C-19.369178,119.191531 -19.4781154,136.542012 -11.3044483,154.205242 C-2.85333004,172.46995 13.5764372,188.024304 33.8361044,197.362932 C33.8729331,196.433819 33.9213909,195.483838 33.9808612,194.511273 Z M282.030975,91.4358966 C293.863766,82.5655939 299.984539,70.8527947 297.713527,60.2807116 C295.758988,51.1810117 287.600615,42.4437407 275.687541,36.0816796 C261.418823,28.4620003 243.826246,25.8982756 230.309133,30.3927859 C219.464306,33.9988216 211.726365,41.5381068 205.885276,52.5391858 C208.577377,53.452293 211.172074,54.5081795 213.649129,55.7096784 C233.870467,65.5183273 245.285319,83.6154911 249.248616,106.695606 C262.750783,102.676391 273.618167,97.7419433 282.030975,91.4358966 Z M165.968355,-4.96931235 C165.97636,-10.1098725 165.359664,-13.3306681 163.439022,-16.1875327 C161.081805,-19.6937813 156.315844,-22.166559 151.53857,-22.0069597 C147.413646,-21.8694034 143.556999,-19.979963 139.597127,-16.6250227 C129.03151,-7.67236175 123.135269,4.15134575 119.651366,20.2912575 C116.527776,34.7582973 115.691061,49.481349 117.147017,64.084087 C121.4974,61.7183012 125.997011,59.5325951 130.640816,57.5411813 C135.756897,55.3472461 141.087074,53.5196659 146.522544,52.0736723 C159.096423,34.5762928 165.935142,14.8645954 165.968355,-4.96931235 Z M118.803466,75.7468525 C119.042111,77.0386287 119.297142,78.2865448 119.571099,79.4928339 C119.62619,79.450913 119.681283,79.408927 119.736377,79.366876 C128.549713,72.6403788 136.229625,65.1616249 142.664854,57.1480699 C139.083892,58.2702533 135.566762,59.5664434 132.149046,61.0320668 C127.12948,63.1846189 122.282419,65.5698882 117.614553,68.1690063 C117.941697,70.7002989 118.337991,73.2269045 118.803466,75.7468525 Z M190.924566,100.865596 C190.798184,101.459949 190.798184,101.459949 190.671698,102.054505 C189.509391,107.516679 188.50807,112.06114 187.564878,116.041241 C204.576826,115.941782 222.15382,113.614173 239.697148,109.283489 C241.700678,108.788895 243.654516,108.279216 245.559119,107.753298 C241.851877,85.5856315 231.092442,68.3978752 211.979227,59.1267373 C209.498949,57.9236751 206.8893,56.8741114 204.173443,55.9750685 C198.540728,67.9794751 195.772885,78.0650913 190.924566,100.865596 Z M61.0768202,41.4365737 C75.6921585,25.4457913 83.0597071,5.258996 79.5793261,-9.16697406 C77.8717115,-16.2437199 70.3567282,-24.7979667 62.8489833,-26.6388966 C49.8826769,-29.8161255 40.1953578,-18.4376774 33.4884438,3.91042063 C29.0171861,18.8090918 26.5058132,36.5417078 25.7425109,49.6686091 C25.4422644,54.8317811 25.4735803,59.567991 25.8964257,63.8956898 C38.9999593,60.1425496 51.1224904,52.3277018 61.0768202,41.4365737 Z" id="Pattern" fill="#010101"/></g></g></g><path d="M53.8679694,134.036246 C53.614506,134.526934 53.0112521,134.719243 52.5205641,134.46578 C52.029876,134.212316 51.8375673,133.609062 52.0910306,133.118374 L67.4500306,103.384374 C67.703494,102.893686 68.3067479,102.701377 68.7974359,102.954841 C69.288124,103.208304 69.4804327,103.811558 69.2269694,104.302246 L53.8679694,134.036246 Z" id="Tshirt-Detail" fill="#E58857"/></g></g></g></g></g></svg>