<svg viewBox="229.8269230769231 199.20000000000005 509.34615384615364 560.25" xmlns="http://www.w3.org/2000/svg" xmlns:xlink="http://www.w3.org/1999/xlink" overflow="visible" width="509.34615384615364px" height="560.25px"><defs><rect id="mastercharacteravatar-path-1" x=".429" y=".279" width="501" height="175"/><path d="M91.8240181,63.1480503 C42.0846984,144.963858 7.66534467,368.216635 3.01115533,492.739169 C-1.57383333,615.422947 -5.47568707,655.676814 41.6233605,666.71113 L36.1582812,701.555219 C36.1582812,701.555219 99.8122608,716.57765 121.917442,716.57765 L126.337414,676.61486 C126.337414,676.61486 187.556949,693.437001 181.408735,503.438037 C175.329721,315.528085 174.987976,350.571894 174.987976,350.571894 C174.987976,350.571894 380.584423,356.470341 469.010472,346.518691 C469.010472,346.518691 480.437295,453.326586 606.444636,404.677622 C732.451977,356.030433 823.088899,265.368713 823.088899,265.368713 C823.088899,265.368713 864.059251,226.112318 844.163168,188.520744 L882.849897,160.88082 C882.849897,160.88082 856.432981,113.154784 833.110577,89.0148873 L788.89844,116.654811 C788.89844,116.654811 748.87738,60.5532023 627.801031,189.544839 L565.547034,254.313099 C565.547034,254.313099 534.232839,7.11388597 346.228786,2.79387216 C321.499302,2.22591635 141.563338,-18.6695325 91.8240181,63.1480503 Z" id="mastercharacteravatar-path-3"/></defs><g id="Master/Character/Avatar" stroke="none" stroke-width="1" fill="none" fill-rule="evenodd"><g id="Head" transform="translate(265.000000, 255.000000) scale(1.7735849056603774 1.7747252747252746)"><g id="Head/Bun" stroke="none" stroke-width="1" fill="none" fill-rule="evenodd"><g id="Bun" transform="translate(35.000000, -27.000000)"><path d="M141.3246,130.9252 C140.4626,130.9792 139.7316,130.3122 139.7486,129.4492 C139.7536,129.2052 139.7566,128.9602 139.7566,128.7162 C139.7566,101.0482 112.3456,78.6202 78.5336,78.6202 C44.7206,78.6202 17.3096,101.0482 17.3096,128.7162 C17.3096,128.9762 17.3126,129.2362 17.3176,129.4962 C17.3356,130.3682 16.5896,131.0442 15.7206,130.9632 C15.2276,130.9172 14.7276,130.8932 14.2196,130.8932 C6.3666,130.8932 -0.0004,136.2412 -0.0004,142.8372 C-0.0004,149.4342 6.3666,154.7812 14.2196,154.7812 C17.4056,154.7812 20.3406,153.8952 22.7096,152.4072 C23.4506,151.9412 24.4086,152.1342 24.8976,152.8592 C33.1426,165.0972 47.4506,174.2072 64.5166,177.4792 C65.9896,177.7622 67.0216,179.0972 66.9356,180.5942 L65.3136,209 L91.7526,209 L90.1316,180.5942 C90.0456,179.0962 91.0776,177.7622 92.5506,177.4792 C109.5186,174.2262 123.7616,165.2012 132.0286,153.0692 C132.5036,152.3722 133.4216,152.1612 134.1466,152.5922 C136.4606,153.9682 139.2786,154.7812 142.3286,154.7812 C150.1816,154.7812 156.5476,149.4342 156.5476,142.8372 C156.5476,136.2412 150.1816,130.8932 142.3286,130.8932 C141.9906,130.8932 141.6556,130.9042 141.3246,130.9252 Z" id="Skin" fill="#f7d3bb"/><path d="M139.7563,128.716 C139.7563,101.049 112.3453,78.62 78.5333,78.62 C77.9263,78.62 77.3243,78.634 76.7223,78.648 C93.3873,75.386 105.4363,65.191 104.7963,53.833 C104.1073,41.612 88.9723,32.374 70.1893,32.144 C77.7973,29.997 83.3013,23.799 83.3013,16.478 C83.3013,7.378 74.8043,0.001 64.3213,0.001 C53.8393,0.001 45.3413,7.378 45.3413,16.478 C45.3413,24.661 52.2213,31.432 61.2283,32.717 C43.0153,35.275 29.4453,46.004 30.1243,58.039 C30.8243,70.479 46.4943,79.823 65.7433,79.728 C38.0723,84.542 17.3103,104.639 17.3103,128.716 C17.3103,128.976 17.3133,129.236 17.3183,129.496 C17.3303,130.105 17.3823,130.023 17.3823,130.023 C23.0533,128.976 55.1763,127.349 69.0873,90.347 C69.1303,90.344 69.0443,90.349 69.0873,90.347 C79.8963,127.946 139.7483,129.449 139.7483,129.449" id="Hair" fill="#E58857"/></g></g></g><g id="Face" transform="translate(423.000000, 416.000000) scale(1.7666666666666666 1.7727272727272727)"><g id="Face/Glasses" stroke="none" stroke-width="1" fill="none" fill-rule="evenodd"><g id="Glasses" transform="translate(1.000000, 8.000000)"><path d="M21.2142,-2.13162821e-14 C32.9215177,-2.13162821e-14 42.4282,9.25219371 42.4282,20.686 C42.4282,21.4351623 42.3873869,22.1749587 42.307816,22.9034003 L49.3351964,22.8869478 C49.3019215,22.3925382 49.285,21.8933837 49.285,21.3901 C49.285,9.98731464 57.9713029,0.7041 68.737,0.7041 C79.5033656,0.7041 88.189,9.98695743 88.189,21.3901 C88.189,32.7932426 79.5033656,42.0761 68.737,42.0761 C59.4281564,42.0761 51.6740035,35.1353637 49.7458309,25.8851038 L41.7472963,25.9059033 C39.3744023,34.8083762 31.0748805,41.372 21.2142,41.372 C9.50688233,41.372 0.0002,32.1198063 0.0002,20.686 C0.0002,9.25219371 9.50688233,-2.13162821e-14 21.2142,-2.13162821e-14 Z M68.737,3.7041 C59.6743591,3.7041 52.285,11.6012466 52.285,21.3901 C52.285,31.1789534 59.6743591,39.0761 68.737,39.0761 C77.8002817,39.0761 85.189,31.1793344 85.189,21.3901 C85.189,11.6008656 77.8002817,3.7041 68.737,3.7041 Z M21.2142,3 C11.1457922,3 3.0002,10.9275392 3.0002,20.686 C3.0002,30.4444608 11.1457922,38.372 21.2142,38.372 C31.2826078,38.372 39.4282,30.4444608 39.4282,20.686 C39.4282,10.9275392 31.2826078,3 21.2142,3 Z" id="Combined-Shape" fill="#F3705A"/><path d="M31.5916697,41.5163389 C31.3065036,40.7385395 31.7058618,39.8768358 32.4836611,39.5916697 C33.2614605,39.3065036 34.1231642,39.7058618 34.4083303,40.4836611 C34.4613851,40.6283697 34.5845696,40.9185521 34.7778641,41.3038508 C35.1046798,41.9553008 35.5020079,42.6069701 35.9660446,43.2082416 C38.2079414,46.1131596 40.9296782,46.7915247 44.7966085,44.0076513 C45.4689316,43.5236336 46.4063311,43.6762854 46.8903487,44.3486085 C47.3743664,45.0209316 47.2217146,45.9583311 46.5493915,46.4423487 C41.2508857,50.2568394 36.7507163,49.1352182 33.5910775,45.041144 C32.5784937,43.7290974 31.9263137,42.4290906 31.5916697,41.5163389 Z" id="Stroke-7" fill="#010101"/><path d="M18.3701,26.9805 C18.3701,24.6420469 19.7129415,22.7462707 21.3701,22.7462707 C23.0272585,22.7462707 24.3701,24.6420469 24.3701,26.9805 C24.3701,29.3189531 23.0272585,31.2147293 21.3701,31.2147293 C19.7129415,31.2147293 18.3701,29.3189531 18.3701,26.9805" id="Fill-9" fill="#010101"/><path d="M64.1553,26.9805 C64.1553,24.6420469 65.4981415,22.7462707 67.1553,22.7462707 C68.8108129,22.7462707 70.1553,24.6420469 70.1553,26.9805 C70.1553,29.3189531 68.8108129,31.2147293 67.1553,31.2147293 C65.4981415,31.2147293 64.1553,29.3189531 64.1553,26.9805" id="Fill-11" fill="#010101"/></g></g></g><g id="Avatar" transform="translate(235.000000, 248.000000) scale(1 1)"><defs><rect id="avatarshoulder-2-path-1" x=".429" y=".279" width="501" height="175"/><path d="M91.8240181,63.1480503 C42.0846984,144.963858 7.66534467,368.216635 3.01115533,492.739169 C-1.57383333,615.422947 -5.47568707,655.676814 41.6233605,666.71113 L36.1582812,701.555219 C36.1582812,701.555219 99.8122608,716.57765 121.917442,716.57765 L126.337414,676.61486 C126.337414,676.61486 187.556949,693.437001 181.408735,503.438037 C175.329721,315.528085 174.987976,350.571894 174.987976,350.571894 C174.987976,350.571894 380.584423,356.470341 469.010472,346.518691 C469.010472,346.518691 480.437295,453.326586 606.444636,404.677622 C732.451977,356.030433 823.088899,265.368713 823.088899,265.368713 C823.088899,265.368713 864.059251,226.112318 844.163168,188.520744 L882.849897,160.88082 C882.849897,160.88082 856.432981,113.154784 833.110577,89.0148873 L788.89844,116.654811 C788.89844,116.654811 748.87738,60.5532023 627.801031,189.544839 L565.547034,254.313099 C565.547034,254.313099 534.232839,7.11388597 346.228786,2.79387216 C321.499302,2.22591635 141.563338,-18.6695325 91.8240181,63.1480503 Z" id="avatarshoulder-2-path-3"/></defs><g id="Avatar/Shoulder 2" stroke="none" stroke-width="1" fill="none" fill-rule="evenodd"><g id="Body" transform="translate(-1.428571, 324.720994)"><mask id="avatarshoulder-2-mask-2" fill="#fff"><use xlink:href="#avatarshoulder-2-path-1"/></mask><g id="Mask"/><g mask="url(#avatarshoulder-2-mask-2)"><g transform="translate(-47.000000, 0.000000)"><g id="Jumper" stroke-width="1" fill="none" transform="translate(0.615646, 0.653063)"><mask id="avatarshoulder-2-mask-4" fill="#fff"><use xlink:href="#avatarshoulder-2-path-3"/></mask><path stroke="#979797" d="M175.548245,350.087425 C187.229395,350.411651 383.201668,355.672635 468.954554,346.021827 C469.12204,346.002978 469.289923,345.98398 469.458202,345.964834 C469.488828,346.293378 469.507635,346.465502 469.507635,346.465502 C469.507635,346.465502 481.097192,452.535842 606.264551,404.211179 C732.17049,355.603137 822.735297,265.015208 822.735297,265.015208 C822.743004,265.007663 863.758306,225.813428 843.515095,188.369262 L882.195597,160.733787 C879.642953,156.168631 855.017404,112.563783 833.031719,89.6538543 L788.491396,116.945183 C788.491396,116.945183 747.507077,62.7436733 628.165592,189.88703 L565.173015,255.423751 C565.096136,254.733341 565.050998,254.375934 565.050998,254.375934 C565.050998,254.375934 533.88586,7.60604496 346.2173,3.29374021 C343.769014,3.23751106 339.802138,2.98263961 334.592666,2.64760694 C304.99697,0.744242274 235.184566,-3.75141188 176.037714,11.1081938 C140.617079,20.0070051 109.009133,35.8423001 92.2512627,63.4077849 C42.5399485,145.177527 8.16225204,368.308719 3.51080645,492.757844 C3.29396036,498.560148 3.07864226,504.17808 2.87017485,509.617267 C0.623695234,568.23085 -0.838214098,606.064517 5.18558871,630.175341 C7.76972286,640.518575 11.7324721,648.320625 17.6300081,654.136978 C23.6328217,660.057159 31.634727,663.914795 42.1894162,666.328947 L36.7241158,701.174445 C42.4004712,702.502723 100.111283,715.887785 121.469915,716.075653 L125.896473,676.053318 C126.268852,676.116869 126.469895,676.13273 126.469895,676.13273 C126.469895,676.13273 186.65038,680.880832 180.908996,503.454208 C177.322935,392.604554 175.734126,359.353021 175.035965,350.627111 C175.021988,350.452422 175.0068,350.267972 174.990344,350.073339 C175.206493,350.077908 175.393532,350.083131 175.548245,350.087425 Z"/><g mask="url(#avatarshoulder-2-mask-4)"><g transform="translate(-111.011338, 9.420141)"><path d="M346.810139,366.746788 L351.13976,383.958923 C351.498438,385.384823 350.633599,386.831588 349.208089,387.190364 C347.782579,387.54914 346.336209,386.684065 345.977532,385.258165 L341.647911,368.04603 C341.289233,366.62013 342.154072,365.173364 343.579582,364.814589 C345.005092,364.455813 346.451461,365.320888 346.810139,366.746788 Z M84.7585456,365.347943 L86.5820713,383.002586 C86.7331371,384.465144 85.6702866,385.773279 84.2081281,385.924386 C82.7459697,386.075493 81.4381931,385.012352 81.2871272,383.549793 L79.4636015,365.895151 C79.3125357,364.432592 80.3753862,363.124458 81.8375447,362.973351 C83.2997031,362.822243 84.6074797,363.885385 84.7585456,365.347943 Z M224.272207,376.306414 C224.742878,377.699346 223.995547,379.210199 222.602997,379.680998 L205.793425,385.364054 C204.400874,385.834854 202.890435,385.087319 202.419764,383.694387 C201.949093,382.301456 202.696424,380.790603 204.088974,380.319803 L220.898546,374.636747 C222.291097,374.165947 223.801536,374.913483 224.272207,376.306414 Z M22.091016,358.596487 C22.5403205,359.99646 21.7699615,361.495696 20.370371,361.945123 L3.47581904,367.370193 C2.07622853,367.81962 0.577402947,367.04905 0.12809841,365.649077 C-0.321206126,364.249104 0.449152866,362.749868 1.84874338,362.30044 L18.7432954,356.875371 C20.1428859,356.425944 21.6417115,357.196513 22.091016,358.596487 Z M429.303753,320.804521 L432.586369,338.246769 C432.858309,339.691732 431.907707,341.083618 430.463139,341.355633 C429.018571,341.627648 427.627066,340.676786 427.355125,339.231823 L424.07251,321.789575 C423.800569,320.344612 424.751171,318.952726 426.195739,318.680711 C427.640307,318.408696 429.031812,319.359558 429.303753,320.804521 Z M130.969238,314.891193 C131.540266,316.246058 130.905142,317.807429 129.550648,318.378614 L113.200457,325.273425 C111.845962,325.844609 110.285018,325.209311 109.713989,323.854447 C109.142961,322.499582 109.778085,320.93821 111.132579,320.367025 L127.48277,313.472215 C128.837265,312.90103 130.398209,313.536328 130.969238,314.891193 Z M324.479616,318.634755 C325.949558,318.634755 327.141181,319.826705 327.141181,321.297048 C327.141181,322.767392 325.949558,323.959341 324.479616,323.959341 L306.735852,323.959341 C305.265911,323.959341 304.074288,322.767392 304.074288,321.297048 C304.074288,319.826705 305.265911,318.634755 306.735852,318.634755 L324.479616,318.634755 Z M394.827895,297.036549 C395.769954,298.165243 395.618907,299.844129 394.490521,300.786445 L380.869705,312.161211 C379.74132,313.103528 378.062893,312.952439 377.120834,311.823745 C376.178776,310.695051 376.329823,309.016165 377.458209,308.073848 L391.079025,296.699082 C392.20741,295.756766 393.885837,295.907855 394.827895,297.036549 Z M247.44506,286.878003 L251.774681,304.090139 C252.133358,305.516038 251.26852,306.962804 249.84301,307.32158 C248.4175,307.680355 246.97113,306.81528 246.612452,305.38938 L242.282832,288.177245 C241.924154,286.751345 242.788992,285.30458 244.214502,284.945804 C245.640012,284.587028 247.086382,285.452104 247.44506,286.878003 Z M490.52008,296.197618 C490.649761,297.662229 489.567911,298.954686 488.103701,299.084403 L470.429123,300.650221 C468.964913,300.779938 467.672809,299.697792 467.543128,298.233182 C467.413447,296.768571 468.495296,295.476113 469.959506,295.346397 L487.634084,293.780579 C489.098294,293.650862 490.390398,294.733007 490.52008,296.197618 Z M184.439807,269.333527 L187.722423,286.775774 C187.994364,288.220737 187.043762,289.612623 185.599194,289.884639 C184.154626,290.156654 182.763121,289.205792 182.49118,287.760829 L179.208564,270.318581 C178.936623,268.873618 179.887225,267.481732 181.331793,267.209717 C182.776361,266.937701 184.167866,267.888564 184.439807,269.333527 Z M79.6156707,267.163761 C81.0856123,267.163761 82.2772354,268.35571 82.2772354,269.826054 C82.2772354,271.296397 81.0856123,272.488347 79.6156707,272.488347 L61.8719066,272.488347 C60.401965,272.488347 59.2103419,271.296397 59.2103419,269.826054 C59.2103419,268.35571 60.401965,267.163761 61.8719066,267.163761 L79.6156707,267.163761 Z M149.96395,245.565554 C150.906009,246.694248 150.754961,248.373134 149.626576,249.315451 L136.00576,260.690217 C134.877374,261.632533 133.198948,261.481444 132.256889,260.35275 C131.31483,259.224056 131.465878,257.54517 132.594263,256.602854 L146.215079,245.228088 C147.343465,244.285771 149.021891,244.43686 149.96395,245.565554 Z M11.4529962,231.857285 L15.7826171,249.06942 C16.1412946,250.49532 15.2764561,251.942086 13.8509462,252.300861 C12.4254362,252.659637 10.9790665,251.794562 10.620389,250.368662 L6.29076801,233.156527 C5.93209047,231.730627 6.796929,230.283861 8.22243895,229.925086 C9.64794889,229.56631 11.0943186,230.431385 11.4529962,231.857285 Z M302.815293,231.620442 L307.533855,248.729984 C307.924753,250.147385 307.092923,251.613388 305.67591,252.004394 C304.258896,252.395399 302.793294,251.563341 302.402396,250.14594 L297.683834,233.036397 C297.292935,231.618997 298.124766,230.152993 299.541779,229.761988 C300.958792,229.370983 302.424394,230.203041 302.815293,231.620442 Z M245.656134,244.726624 C245.785815,246.191234 244.703966,247.483692 243.239756,247.613408 L225.565177,249.179227 C224.100967,249.308943 222.808863,248.226798 222.679182,246.762187 C222.549501,245.297577 223.63135,244.005119 225.09556,243.875402 L242.770139,242.309584 C244.234349,242.179868 245.526453,243.262013 245.656134,244.726624 Z M428.256671,205.507387 L443.346462,214.844788 C444.596541,215.618324 444.983027,217.259065 444.209703,218.509486 C443.436379,219.759907 441.796087,220.1465 440.546008,219.372964 L425.456217,210.035563 C424.206137,209.262027 423.819651,207.621286 424.592975,206.370865 C425.366299,205.120443 427.006591,204.733851 428.256671,205.507387 Z M363.335643,195.02018 L365.159169,212.674823 C365.310235,214.137381 364.247384,215.445516 362.785226,215.596623 C361.323067,215.74773 360.015291,214.684589 359.864225,213.22203 L358.040699,195.567388 C357.889633,194.104829 358.952484,192.796695 360.414642,192.645587 C361.876801,192.49448 363.184577,193.557622 363.335643,195.02018 Z M57.9513471,180.149447 L62.6699092,197.25899 C63.0608077,198.676391 62.2289773,200.142394 60.811964,200.533399 C59.3949508,200.924405 57.9293488,200.092347 57.5384503,198.674946 L52.8198882,181.565403 C52.4289897,180.148002 53.2608201,178.681999 54.6778333,178.290994 C56.0948466,177.899988 57.5604486,178.732046 57.9513471,180.149447 Z M298.005832,178.512745 C298.455137,179.912719 297.684778,181.411954 296.285187,181.861382 L279.390635,187.286451 C277.991045,187.735879 276.492219,186.965309 276.042915,185.565335 C275.59361,184.165362 276.363969,182.666126 277.76356,182.216699 L294.658112,176.79163 C296.057702,176.342202 297.556528,177.112772 298.005832,178.512745 Z M497.526176,177.521884 C497.996847,178.914816 497.249516,180.425668 495.856965,180.896468 L479.047393,186.579524 C477.654843,187.050324 476.144403,186.302788 475.673732,184.909857 C475.203061,183.516925 475.950392,182.006073 477.342943,181.535273 L494.152515,175.852217 C495.545065,175.381417 497.055505,176.128953 497.526176,177.521884 Z M183.392725,154.036392 L198.482516,163.373794 C199.732595,164.147329 200.119082,165.78807 199.345758,167.038492 C198.572434,168.288913 196.932141,168.675505 195.682062,167.901969 L180.592271,158.564568 C179.342192,157.791033 178.955705,156.150292 179.729029,154.89987 C180.502353,153.649449 182.142646,153.262857 183.392725,154.036392 Z M118.471697,143.549186 L120.295223,161.203828 C120.446289,162.666387 119.383439,163.974521 117.92128,164.125628 C116.459122,164.276735 115.151345,163.213594 115.000279,161.751036 L113.176753,144.096393 C113.025688,142.633835 114.088538,141.3257 115.550697,141.174593 C117.012855,141.023486 118.320632,142.086627 118.471697,143.549186 Z M258.870804,142.970331 C259.341475,144.363263 258.594144,145.874115 257.201593,146.344915 L240.392021,152.027971 C238.999471,152.498771 237.489031,151.751235 237.01836,150.358304 C236.547689,148.965372 237.29502,147.45452 238.687571,146.98372 L255.497143,141.300664 C256.889693,140.829864 258.400133,141.577399 258.870804,142.970331 Z M409.546335,130.305557 C410.117364,131.660422 409.48224,133.221794 408.127745,133.792979 L391.777554,140.687789 C390.42306,141.258974 388.862115,140.623676 388.291087,139.268811 C387.720058,137.913946 388.355182,136.352575 389.709677,135.78139 L406.059868,128.886579 C407.414362,128.315394 408.975307,128.950693 409.546335,130.305557 Z M53.1418867,127.041751 C53.5911913,128.441724 52.8208323,129.94096 51.4212417,130.390387 L34.5266898,135.815457 C33.1270992,136.264884 31.6282737,135.494314 31.1789691,134.094341 C30.7296646,132.694368 31.5000236,131.195132 32.8996141,130.745704 L49.7941661,125.320635 C51.1937566,124.871208 52.6925822,125.641777 53.1418867,127.041751 Z M318.486474,97.3437996 L320.31,114.998442 C320.461066,116.461001 319.398215,117.769135 317.936057,117.920242 C316.473898,118.071349 315.166122,117.008208 315.015056,115.54565 L313.19153,97.891007 C313.040464,96.4284485 314.103315,95.1203141 315.565473,94.9692069 C317.027632,94.8180998 318.335408,95.8812411 318.486474,97.3437996 Z M463.016905,84.7478913 L466.29952,102.190139 C466.571461,103.635102 465.620859,105.026988 464.176291,105.299003 C462.731723,105.571018 461.340218,104.620156 461.068277,103.175193 L457.785661,85.7329455 C457.513721,84.2879824 458.464323,82.8960964 459.908891,82.6240812 C461.353459,82.352066 462.744964,83.3029282 463.016905,84.7478913 Z M164.68239,78.8345629 C165.253418,80.1894277 164.618294,81.7507994 163.2638,82.3219842 L146.913608,89.2167948 C145.559114,89.7879796 143.99817,89.1526815 143.427141,87.7978167 C142.856112,86.4429519 143.491237,84.8815802 144.845731,84.3103954 L161.195922,77.4155848 C162.550417,76.8444 164.111361,77.4796982 164.68239,78.8345629 Z M292.808797,39.7583433 L305.811312,51.8354105 C306.888476,52.8359075 306.950848,54.5204231 305.950625,55.5978814 C304.950401,56.6753397 303.266346,56.7377292 302.189183,55.7372322 L289.186668,43.660165 C288.109504,42.659668 288.047132,40.9751524 289.047355,39.8976941 C290.047579,38.8202358 291.731633,38.7578463 292.808797,39.7583433 Z M213.766415,24.3555392 L217.049031,41.7977869 C217.320972,43.24275 216.37037,44.6346359 214.925802,44.9066511 C213.481234,45.1786664 212.089729,44.2278042 211.817788,42.7828411 L208.535172,25.3405934 C208.263231,23.8956303 209.213833,22.5037444 210.658401,22.2317291 C212.102969,21.9597139 213.494474,22.9105761 213.766415,24.3555392 Z M113.328823,31.1071311 C114.798764,31.1071311 115.990387,32.2990802 115.990387,33.7694239 C115.990387,35.2397676 114.798764,36.4317167 113.328823,36.4317167 L95.5850585,36.4317167 C94.1151169,36.4317167 92.9234939,35.2397676 92.9234939,33.7694239 C92.9234939,32.2990802 94.1151169,31.1071311 95.5850585,31.1071311 L113.328823,31.1071311 Z M35.4077104,2.0133048 L39.7373314,19.2254398 C40.0960089,20.6513398 39.2311704,22.0981052 37.8056604,22.4568809 C36.3801505,22.8156566 34.9337808,21.9505814 34.5751032,20.5246815 L30.2454823,3.31254645 C29.8868047,1.8866465 30.7516433,0.439881044 32.1771532,0.081105369 C33.6026632,-0.277670306 35.0490329,0.587404845 35.4077104,2.0133048 Z M418.037414,9.61494969 C418.608442,10.9698145 417.973318,12.5311862 416.618824,13.102371 L400.268633,19.9971815 C398.914138,20.5683663 397.353194,19.9330682 396.782165,18.5782034 C396.211137,17.2233386 396.846261,15.661967 398.200755,15.0907821 L414.550946,8.19597157 C415.905441,7.62478676 417.466385,8.2600849 418.037414,9.61494969 Z" id="Pattern" fill="#FFF"/></g></g><g mask="url(#avatarshoulder-2-mask-4)"><g transform="translate(385.814059, 9.420141)"><path d="M346.810139,366.746788 L351.13976,383.958923 C351.498438,385.384823 350.633599,386.831588 349.208089,387.190364 C347.782579,387.54914 346.336209,386.684065 345.977532,385.258165 L341.647911,368.04603 C341.289233,366.62013 342.154072,365.173364 343.579582,364.814589 C345.005092,364.455813 346.451461,365.320888 346.810139,366.746788 Z M84.7585456,365.347943 L86.5820713,383.002586 C86.7331371,384.465144 85.6702866,385.773279 84.2081281,385.924386 C82.7459697,386.075493 81.4381931,385.012352 81.2871272,383.549793 L79.4636015,365.895151 C79.3125357,364.432592 80.3753862,363.124458 81.8375447,362.973351 C83.2997031,362.822243 84.6074797,363.885385 84.7585456,365.347943 Z M224.272207,376.306414 C224.742878,377.699346 223.995547,379.210199 222.602997,379.680998 L205.793425,385.364054 C204.400874,385.834854 202.890435,385.087319 202.419764,383.694387 C201.949093,382.301456 202.696424,380.790603 204.088974,380.319803 L220.898546,374.636747 C222.291097,374.165947 223.801536,374.913483 224.272207,376.306414 Z M22.091016,358.596487 C22.5403205,359.99646 21.7699615,361.495696 20.370371,361.945123 L3.47581904,367.370193 C2.07622853,367.81962 0.577402947,367.04905 0.12809841,365.649077 C-0.321206126,364.249104 0.449152866,362.749868 1.84874338,362.30044 L18.7432954,356.875371 C20.1428859,356.425944 21.6417115,357.196513 22.091016,358.596487 Z M429.303753,320.804521 L432.586369,338.246769 C432.858309,339.691732 431.907707,341.083618 430.463139,341.355633 C429.018571,341.627648 427.627066,340.676786 427.355125,339.231823 L424.07251,321.789575 C423.800569,320.344612 424.751171,318.952726 426.195739,318.680711 C427.640307,318.408696 429.031812,319.359558 429.303753,320.804521 Z M130.969238,314.891193 C131.540266,316.246058 130.905142,317.807429 129.550648,318.378614 L113.200457,325.273425 C111.845962,325.844609 110.285018,325.209311 109.713989,323.854447 C109.142961,322.499582 109.778085,320.93821 111.132579,320.367025 L127.48277,313.472215 C128.837265,312.90103 130.398209,313.536328 130.969238,314.891193 Z M324.479616,318.634755 C325.949558,318.634755 327.141181,319.826705 327.141181,321.297048 C327.141181,322.767392 325.949558,323.959341 324.479616,323.959341 L306.735852,323.959341 C305.265911,323.959341 304.074288,322.767392 304.074288,321.297048 C304.074288,319.826705 305.265911,318.634755 306.735852,318.634755 L324.479616,318.634755 Z M394.827895,297.036549 C395.769954,298.165243 395.618907,299.844129 394.490521,300.786445 L380.869705,312.161211 C379.74132,313.103528 378.062893,312.952439 377.120834,311.823745 C376.178776,310.695051 376.329823,309.016165 377.458209,308.073848 L391.079025,296.699082 C392.20741,295.756766 393.885837,295.907855 394.827895,297.036549 Z M247.44506,286.878003 L251.774681,304.090139 C252.133358,305.516038 251.26852,306.962804 249.84301,307.32158 C248.4175,307.680355 246.97113,306.81528 246.612452,305.38938 L242.282832,288.177245 C241.924154,286.751345 242.788992,285.30458 244.214502,284.945804 C245.640012,284.587028 247.086382,285.452104 247.44506,286.878003 Z M490.52008,296.197618 C490.649761,297.662229 489.567911,298.954686 488.103701,299.084403 L470.429123,300.650221 C468.964913,300.779938 467.672809,299.697792 467.543128,298.233182 C467.413447,296.768571 468.495296,295.476113 469.959506,295.346397 L487.634084,293.780579 C489.098294,293.650862 490.390398,294.733007 490.52008,296.197618 Z M184.439807,269.333527 L187.722423,286.775774 C187.994364,288.220737 187.043762,289.612623 185.599194,289.884639 C184.154626,290.156654 182.763121,289.205792 182.49118,287.760829 L179.208564,270.318581 C178.936623,268.873618 179.887225,267.481732 181.331793,267.209717 C182.776361,266.937701 184.167866,267.888564 184.439807,269.333527 Z M79.6156707,267.163761 C81.0856123,267.163761 82.2772354,268.35571 82.2772354,269.826054 C82.2772354,271.296397 81.0856123,272.488347 79.6156707,272.488347 L61.8719066,272.488347 C60.401965,272.488347 59.2103419,271.296397 59.2103419,269.826054 C59.2103419,268.35571 60.401965,267.163761 61.8719066,267.163761 L79.6156707,267.163761 Z M149.96395,245.565554 C150.906009,246.694248 150.754961,248.373134 149.626576,249.315451 L136.00576,260.690217 C134.877374,261.632533 133.198948,261.481444 132.256889,260.35275 C131.31483,259.224056 131.465878,257.54517 132.594263,256.602854 L146.215079,245.228088 C147.343465,244.285771 149.021891,244.43686 149.96395,245.565554 Z M11.4529962,231.857285 L15.7826171,249.06942 C16.1412946,250.49532 15.2764561,251.942086 13.8509462,252.300861 C12.4254362,252.659637 10.9790665,251.794562 10.620389,250.368662 L6.29076801,233.156527 C5.93209047,231.730627 6.796929,230.283861 8.22243895,229.925086 C9.64794889,229.56631 11.0943186,230.431385 11.4529962,231.857285 Z M302.815293,231.620442 L307.533855,248.729984 C307.924753,250.147385 307.092923,251.613388 305.67591,252.004394 C304.258896,252.395399 302.793294,251.563341 302.402396,250.14594 L297.683834,233.036397 C297.292935,231.618997 298.124766,230.152993 299.541779,229.761988 C300.958792,229.370983 302.424394,230.203041 302.815293,231.620442 Z M245.656134,244.726624 C245.785815,246.191234 244.703966,247.483692 243.239756,247.613408 L225.565177,249.179227 C224.100967,249.308943 222.808863,248.226798 222.679182,246.762187 C222.549501,245.297577 223.63135,244.005119 225.09556,243.875402 L242.770139,242.309584 C244.234349,242.179868 245.526453,243.262013 245.656134,244.726624 Z M428.256671,205.507387 L443.346462,214.844788 C444.596541,215.618324 444.983027,217.259065 444.209703,218.509486 C443.436379,219.759907 441.796087,220.1465 440.546008,219.372964 L425.456217,210.035563 C424.206137,209.262027 423.819651,207.621286 424.592975,206.370865 C425.366299,205.120443 427.006591,204.733851 428.256671,205.507387 Z M363.335643,195.02018 L365.159169,212.674823 C365.310235,214.137381 364.247384,215.445516 362.785226,215.596623 C361.323067,215.74773 360.015291,214.684589 359.864225,213.22203 L358.040699,195.567388 C357.889633,194.104829 358.952484,192.796695 360.414642,192.645587 C361.876801,192.49448 363.184577,193.557622 363.335643,195.02018 Z M57.9513471,180.149447 L62.6699092,197.25899 C63.0608077,198.676391 62.2289773,200.142394 60.811964,200.533399 C59.3949508,200.924405 57.9293488,200.092347 57.5384503,198.674946 L52.8198882,181.565403 C52.4289897,180.148002 53.2608201,178.681999 54.6778333,178.290994 C56.0948466,177.899988 57.5604486,178.732046 57.9513471,180.149447 Z M298.005832,178.512745 C298.455137,179.912719 297.684778,181.411954 296.285187,181.861382 L279.390635,187.286451 C277.991045,187.735879 276.492219,186.965309 276.042915,185.565335 C275.59361,184.165362 276.363969,182.666126 277.76356,182.216699 L294.658112,176.79163 C296.057702,176.342202 297.556528,177.112772 298.005832,178.512745 Z M497.526176,177.521884 C497.996847,178.914816 497.249516,180.425668 495.856965,180.896468 L479.047393,186.579524 C477.654843,187.050324 476.144403,186.302788 475.673732,184.909857 C475.203061,183.516925 475.950392,182.006073 477.342943,181.535273 L494.152515,175.852217 C495.545065,175.381417 497.055505,176.128953 497.526176,177.521884 Z M183.392725,154.036392 L198.482516,163.373794 C199.732595,164.147329 200.119082,165.78807 199.345758,167.038492 C198.572434,168.288913 196.932141,168.675505 195.682062,167.901969 L180.592271,158.564568 C179.342192,157.791033 178.955705,156.150292 179.729029,154.89987 C180.502353,153.649449 182.142646,153.262857 183.392725,154.036392 Z M118.471697,143.549186 L120.295223,161.203828 C120.446289,162.666387 119.383439,163.974521 117.92128,164.125628 C116.459122,164.276735 115.151345,163.213594 115.000279,161.751036 L113.176753,144.096393 C113.025688,142.633835 114.088538,141.3257 115.550697,141.174593 C117.012855,141.023486 118.320632,142.086627 118.471697,143.549186 Z M258.870804,142.970331 C259.341475,144.363263 258.594144,145.874115 257.201593,146.344915 L240.392021,152.027971 C238.999471,152.498771 237.489031,151.751235 237.01836,150.358304 C236.547689,148.965372 237.29502,147.45452 238.687571,146.98372 L255.497143,141.300664 C256.889693,140.829864 258.400133,141.577399 258.870804,142.970331 Z M409.546335,130.305557 C410.117364,131.660422 409.48224,133.221794 408.127745,133.792979 L391.777554,140.687789 C390.42306,141.258974 388.862115,140.623676 388.291087,139.268811 C387.720058,137.913946 388.355182,136.352575 389.709677,135.78139 L406.059868,128.886579 C407.414362,128.315394 408.975307,128.950693 409.546335,130.305557 Z M53.1418867,127.041751 C53.5911913,128.441724 52.8208323,129.94096 51.4212417,130.390387 L34.5266898,135.815457 C33.1270992,136.264884 31.6282737,135.494314 31.1789691,134.094341 C30.7296646,132.694368 31.5000236,131.195132 32.8996141,130.745704 L49.7941661,125.320635 C51.1937566,124.871208 52.6925822,125.641777 53.1418867,127.041751 Z M318.486474,97.3437996 L320.31,114.998442 C320.461066,116.461001 319.398215,117.769135 317.936057,117.920242 C316.473898,118.071349 315.166122,117.008208 315.015056,115.54565 L313.19153,97.891007 C313.040464,96.4284485 314.103315,95.1203141 315.565473,94.9692069 C317.027632,94.8180998 318.335408,95.8812411 318.486474,97.3437996 Z M463.016905,84.7478913 L466.29952,102.190139 C466.571461,103.635102 465.620859,105.026988 464.176291,105.299003 C462.731723,105.571018 461.340218,104.620156 461.068277,103.175193 L457.785661,85.7329455 C457.513721,84.2879824 458.464323,82.8960964 459.908891,82.6240812 C461.353459,82.352066 462.744964,83.3029282 463.016905,84.7478913 Z M164.68239,78.8345629 C165.253418,80.1894277 164.618294,81.7507994 163.2638,82.3219842 L146.913608,89.2167948 C145.559114,89.7879796 143.99817,89.1526815 143.427141,87.7978167 C142.856112,86.4429519 143.491237,84.8815802 144.845731,84.3103954 L161.195922,77.4155848 C162.550417,76.8444 164.111361,77.4796982 164.68239,78.8345629 Z M292.808797,39.7583433 L305.811312,51.8354105 C306.888476,52.8359075 306.950848,54.5204231 305.950625,55.5978814 C304.950401,56.6753397 303.266346,56.7377292 302.189183,55.7372322 L289.186668,43.660165 C288.109504,42.659668 288.047132,40.9751524 289.047355,39.8976941 C290.047579,38.8202358 291.731633,38.7578463 292.808797,39.7583433 Z M213.766415,24.3555392 L217.049031,41.7977869 C217.320972,43.24275 216.37037,44.6346359 214.925802,44.9066511 C213.481234,45.1786664 212.089729,44.2278042 211.817788,42.7828411 L208.535172,25.3405934 C208.263231,23.8956303 209.213833,22.5037444 210.658401,22.2317291 C212.102969,21.9597139 213.494474,22.9105761 213.766415,24.3555392 Z M113.328823,31.1071311 C114.798764,31.1071311 115.990387,32.2990802 115.990387,33.7694239 C115.990387,35.2397676 114.798764,36.4317167 113.328823,36.4317167 L95.5850585,36.4317167 C94.1151169,36.4317167 92.9234939,35.2397676 92.9234939,33.7694239 C92.9234939,32.2990802 94.1151169,31.1071311 95.5850585,31.1071311 L113.328823,31.1071311 Z M35.4077104,2.0133048 L39.7373314,19.2254398 C40.0960089,20.6513398 39.2311704,22.0981052 37.8056604,22.4568809 C36.3801505,22.8156566 34.9337808,21.9505814 34.5751032,20.5246815 L30.2454823,3.31254645 C29.8868047,1.8866465 30.7516433,0.439881044 32.1771532,0.081105369 C33.6026632,-0.277670306 35.0490329,0.587404845 35.4077104,2.0133048 Z M418.037414,9.61494969 C418.608442,10.9698145 417.973318,12.5311862 416.618824,13.102371 L400.268633,19.9971815 C398.914138,20.5683663 397.353194,19.9330682 396.782165,18.5782034 C396.211137,17.2233386 396.846261,15.661967 398.200755,15.0907821 L414.550946,8.19597157 C415.905441,7.62478676 417.466385,8.2600849 418.037414,9.61494969 Z" id="Pattern" fill="#FFF"/></g></g></g><path d="M337.715658,2.73287338 C339.634458,2.73287338 291.388696,47.5791269 232.196194,2.21277312 C276.913339,-0.867353618 312.086494,-0.693986863 337.715658,2.73287338 Z" id="Skin" fill="#f7d3bb"/></g></g></g></g></g></g></svg>