<svg viewBox="72.67500000000007 36.262500000000045 605.625 749.4250000000002" xmlns="http://www.w3.org/2000/svg" xmlns:xlink="http://www.w3.org/1999/xlink" overflow="visible" width="605.625px" height="749.4250000000002px"><defs><path d="M275.684414,0.876652922 C298.838059,1.54914435 329.906472,9.13626937 355.7471,15.2297529 L355.731944,15.2730262 C397.943463,24.6870841 452.971125,41.5664426 466.9347,60.6071529 C489.4187,91.2671529 484.8307,126.127153 444.6317,165.644153 C415.2977,194.481153 386.9717,210.585153 372.4107,216.074153 C363.858947,207.086013 354.27259,195.452866 345.166172,184.184251 L345.5431,187.063753 C345.8052,205.151453 195.8084,217.517053 146.0664,197.369053 L149.907924,169.277823 C138.376043,183.58138 125.055547,200.37944 113.5941,212.425753 C99.0331,206.935753 70.7081,190.832753 41.3741,161.994753 C1.1741,122.477753 -11.4139,87.6187529 11.0701,56.9587529 C23.1971,40.4207529 69.0261,26.2177529 108.6751,16.6397529 C108.048715,16.8278037 108.709162,16.7365391 110.005927,16.5033439 C127.558487,12.2104677 191.200137,-1.57717031 275.684414,0.876652922 Z M162.310363,78.5613735 L87.8171,104.583753 C87.8171,104.583753 122.608609,134.324697 151.917069,154.584908 L162.310363,78.5613735 Z M332.466363,87.1363735 L341.108096,153.169863 C367.388419,133.830342 393.927617,109.395078 395.144211,108.27232 L395.1877,108.232153 L332.466363,87.1363735 Z" id="mastercharactersitting-path-1"/></defs><g id="Master/Character/Sitting" stroke="none" stroke-width="1" fill="none" fill-rule="evenodd"><g id="Bottom/Sitting" transform="translate(15.000000, 331.000000) scale(1 1)"><g id="Bottom/Sitting/Crossed 2" stroke="none" stroke-width="1" fill="none" fill-rule="evenodd"><g id="Crossed-2" transform="translate(65.000000, 110.000000)"><path d="M391,1.27329258e-11 L390.997181,10.5384946 C495.782485,19.8364681 658.933713,135.817305 559.020137,202 C495.735188,243.919914 467.03552,256.218825 428.053462,264.342361 L433.7133,307.3983 C418.7113,314.5763 407.1923,304.6803 399.6803,293.7943 C391.592301,282.075585 378.324742,275.081413 364.160606,275.246339 C354.385891,276.873514 343.720753,278.715149 331.9524,280.8944 L207.3214,297.2714 C183.8134,300.3604 161.0514,307.6044 140.0384,318.5884 C124.0334,326.9544 105.9864,335.5164 98.0924,336.1484 C82.3804,337.4054 81.7514,324.2074 81.7514,324.2074 L120.742214,261.014568 C115.140248,259.565605 109.761285,257.993605 104.6483,256.2893 C-63.2741842,173.510753 -28.4914464,92.2600912 208.996513,12.537314 L209,1.27329258e-11 L391,1.27329258e-11 Z M302.482523,166.892858 L301.670242,166.931682 C301.148326,167.009127 300.594729,167.057489 300.008662,167.075931 C257.903962,168.400884 201.2083,174.2053 201.2083,174.2053 L201.2083,174.2053 L306.449591,197.282008 C365.990085,182.982394 417.698345,169.388862 414.5854,166.2764 C411.68265,163.3728 327.632313,166.030283 302.482523,166.892858 Z" id="Pants" fill="#010101"/><path d="M165.0741,229.5837 C159.8881,256.8617 155.4651,284.6597 152.7191,312.5137 C148.4301,314.3917 144.1981,316.4137 140.0381,318.5877 C124.0331,326.9547 105.9861,335.5167 98.0921,336.1487 C82.69434,337.38056 81.7822932,324.729838 81.7519704,324.223316 L81.7511,324.2077 L131.3351,243.8467 C134.5841,238.5817 139.8561,234.8917 145.9171,233.6487 C150.5951,232.6887 157.1241,231.3037 165.0741,229.5837 Z M427.296427,258.594457 L433.7131,307.3986 C418.7111,314.5766 407.1921,304.6796 399.6801,293.7946 C391.3041,281.6586 377.3731,274.5886 362.6451,275.2916 C361.731028,275.335075 360.796899,275.378598 359.843446,275.422064 C385.256117,270.13175 407.613986,264.563476 427.296427,258.594457 Z" id="Shoes" fill="#2F6858"/><path d="M165.0744,229.5832 C159.8874,256.8612 155.4654,284.6592 152.7194,312.5142 C170.0954,304.9052 188.4684,299.7492 207.3214,297.2712 L243.8774,292.4682 C235.6014,267.5102 226.9904,242.6442 217.6254,217.9292 C197.2734,222.5262 178.9934,226.5692 165.0744,229.5832" id="Skin" fill="#c68e80"/><path d="M306.344594,197.306556 C306.473467,197.843594 306.142583,198.383422 305.605544,198.512294 C278.468119,205.024424 248.053045,212.079783 217.845568,218.904317 C217.30686,219.026023 216.771489,218.687976 216.649783,218.149268 C216.528077,217.61056 216.866124,217.075189 217.404832,216.953483 C247.604145,210.130794 278.010734,203.077403 305.138856,196.567506 C305.675894,196.438633 306.215722,196.769517 306.344594,197.306556 Z M164.980418,165.392645 L201.418418,173.227645 C201.958362,173.343746 202.301955,173.875574 202.185855,174.415518 C202.069754,174.955462 201.537926,175.299055 200.997982,175.182955 L164.559982,167.347955 C164.020038,167.231854 163.676445,166.700026 163.792545,166.160082 C163.908646,165.620138 164.440474,165.276545 164.980418,165.392645 Z M436.218831,161.02051 C436.34922,161.557182 436.019862,162.097942 435.48319,162.228331 L414.82119,167.248331 C414.284518,167.37872 413.743758,167.049362 413.613369,166.51269 C413.48298,165.976018 413.812338,165.435258 414.34901,165.304869 L435.01101,160.284869 C435.547682,160.15448 436.088442,160.483838 436.218831,161.02051 Z" id="Pants-details" fill="#B9B3B8"/></g></g></g><g id="Head" transform="translate(247.000000, 64.000000) scale(1 1)"><g id="Head/Bun" stroke="none" stroke-width="1" fill="none" fill-rule="evenodd"><g id="Bun" transform="translate(35.000000, -27.000000)"><path d="M141.3246,130.9252 C140.4626,130.9792 139.7316,130.3122 139.7486,129.4492 C139.7536,129.2052 139.7566,128.9602 139.7566,128.7162 C139.7566,101.0482 112.3456,78.6202 78.5336,78.6202 C44.7206,78.6202 17.3096,101.0482 17.3096,128.7162 C17.3096,128.9762 17.3126,129.2362 17.3176,129.4962 C17.3356,130.3682 16.5896,131.0442 15.7206,130.9632 C15.2276,130.9172 14.7276,130.8932 14.2196,130.8932 C6.3666,130.8932 -0.0004,136.2412 -0.0004,142.8372 C-0.0004,149.4342 6.3666,154.7812 14.2196,154.7812 C17.4056,154.7812 20.3406,153.8952 22.7096,152.4072 C23.4506,151.9412 24.4086,152.1342 24.8976,152.8592 C33.1426,165.0972 47.4506,174.2072 64.5166,177.4792 C65.9896,177.7622 67.0216,179.0972 66.9356,180.5942 L65.3136,209 L91.7526,209 L90.1316,180.5942 C90.0456,179.0962 91.0776,177.7622 92.5506,177.4792 C109.5186,174.2262 123.7616,165.2012 132.0286,153.0692 C132.5036,152.3722 133.4216,152.1612 134.1466,152.5922 C136.4606,153.9682 139.2786,154.7812 142.3286,154.7812 C150.1816,154.7812 156.5476,149.4342 156.5476,142.8372 C156.5476,136.2412 150.1816,130.8932 142.3286,130.8932 C141.9906,130.8932 141.6556,130.9042 141.3246,130.9252 Z" id="Skin" fill="#c68e80"/><path d="M139.7563,128.716 C139.7563,101.049 112.3453,78.62 78.5333,78.62 C77.9263,78.62 77.3243,78.634 76.7223,78.648 C93.3873,75.386 105.4363,65.191 104.7963,53.833 C104.1073,41.612 88.9723,32.374 70.1893,32.144 C77.7973,29.997 83.3013,23.799 83.3013,16.478 C83.3013,7.378 74.8043,0.001 64.3213,0.001 C53.8393,0.001 45.3413,7.378 45.3413,16.478 C45.3413,24.661 52.2213,31.432 61.2283,32.717 C43.0153,35.275 29.4453,46.004 30.1243,58.039 C30.8243,70.479 46.4943,79.823 65.7433,79.728 C38.0723,84.542 17.3103,104.639 17.3103,128.716 C17.3103,128.976 17.3133,129.236 17.3183,129.496 C17.3303,130.105 17.3823,130.023 17.3823,130.023 C23.0533,128.976 55.1763,127.349 69.0873,90.347 C69.1303,90.344 69.0443,90.349 69.0873,90.347 C79.8963,127.946 139.7483,129.449 139.7483,129.449" id="Hair" fill="#E58857"/></g></g></g><g id="Face" transform="translate(321.000000, 155.000000) scale(1 1)"><g id="Face/Glasses" stroke="none" stroke-width="1" fill="none" fill-rule="evenodd"><g id="Glasses" transform="translate(1.000000, 8.000000)"><path d="M21.2142,-2.13162821e-14 C32.9215177,-2.13162821e-14 42.4282,9.25219371 42.4282,20.686 C42.4282,21.4351623 42.3873869,22.1749587 42.307816,22.9034003 L49.3351964,22.8869478 C49.3019215,22.3925382 49.285,21.8933837 49.285,21.3901 C49.285,9.98731464 57.9713029,0.7041 68.737,0.7041 C79.5033656,0.7041 88.189,9.98695743 88.189,21.3901 C88.189,32.7932426 79.5033656,42.0761 68.737,42.0761 C59.4281564,42.0761 51.6740035,35.1353637 49.7458309,25.8851038 L41.7472963,25.9059033 C39.3744023,34.8083762 31.0748805,41.372 21.2142,41.372 C9.50688233,41.372 0.0002,32.1198063 0.0002,20.686 C0.0002,9.25219371 9.50688233,-2.13162821e-14 21.2142,-2.13162821e-14 Z M68.737,3.7041 C59.6743591,3.7041 52.285,11.6012466 52.285,21.3901 C52.285,31.1789534 59.6743591,39.0761 68.737,39.0761 C77.8002817,39.0761 85.189,31.1793344 85.189,21.3901 C85.189,11.6008656 77.8002817,3.7041 68.737,3.7041 Z M21.2142,3 C11.1457922,3 3.0002,10.9275392 3.0002,20.686 C3.0002,30.4444608 11.1457922,38.372 21.2142,38.372 C31.2826078,38.372 39.4282,30.4444608 39.4282,20.686 C39.4282,10.9275392 31.2826078,3 21.2142,3 Z" id="Combined-Shape" fill="#F3705A"/><path d="M31.5916697,41.5163389 C31.3065036,40.7385395 31.7058618,39.8768358 32.4836611,39.5916697 C33.2614605,39.3065036 34.1231642,39.7058618 34.4083303,40.4836611 C34.4613851,40.6283697 34.5845696,40.9185521 34.7778641,41.3038508 C35.1046798,41.9553008 35.5020079,42.6069701 35.9660446,43.2082416 C38.2079414,46.1131596 40.9296782,46.7915247 44.7966085,44.0076513 C45.4689316,43.5236336 46.4063311,43.6762854 46.8903487,44.3486085 C47.3743664,45.0209316 47.2217146,45.9583311 46.5493915,46.4423487 C41.2508857,50.2568394 36.7507163,49.1352182 33.5910775,45.041144 C32.5784937,43.7290974 31.9263137,42.4290906 31.5916697,41.5163389 Z" id="Stroke-7" fill="#010101"/><path d="M18.3701,26.9805 C18.3701,24.6420469 19.7129415,22.7462707 21.3701,22.7462707 C23.0272585,22.7462707 24.3701,24.6420469 24.3701,26.9805 C24.3701,29.3189531 23.0272585,31.2147293 21.3701,31.2147293 C19.7129415,31.2147293 18.3701,29.3189531 18.3701,26.9805" id="Fill-9" fill="#010101"/><path d="M64.1553,26.9805 C64.1553,24.6420469 65.4981415,22.7462707 67.1553,22.7462707 C68.8108129,22.7462707 70.1553,24.6420469 70.1553,26.9805 C70.1553,29.3189531 68.8108129,31.2147293 67.1553,31.2147293 C65.4981415,31.2147293 64.1553,29.3189531 64.1553,26.9805" id="Fill-11" fill="#010101"/></g></g></g><g id="Body" transform="translate(64.000000, 26.000000) scale(1 1)"><defs><path d="M18.0849,9.6994 C18.0849,9.6994 32.9029,11.2134 25.3719,21.6244 C25.3719,21.6244 41.3199,21.1814 30.0239,33.3644 C30.0239,33.3644 43.5359,35.5794 35.5609,45.9904 C35.5609,45.9904 50.1809,47.5414 39.9909,57.2874 C39.9909,57.2874 53.9459,56.4014 46.8589,66.8124 C46.8589,66.8124 61.2569,69.6914 54.6109,77.6664 L54.6109,77.6664 L138.4369,74.5414 L138.4369,143.3594 L142.5789,156.7764 L148.7519,174.8114 C137.614663,181.561685 129.043005,186.230222 123.036926,188.817011 C116.610976,191.584637 106.53459,194.947722 92.8077684,198.906267 C66.1372394,202.739267 38.2380593,202.930917 35.5148176,202.9405 L35.2979,202.941004 C35.2979,202.941004 37.3409,158.8434 36.8839,137.8254 C36.5019,120.2434 35.2979,90.4764 35.2979,90.4764 C22.8019,88.0954 29.5809,75.4514 29.5809,75.4514 C16.7329,75.6724 26.0369,63.9324 26.0369,63.9324 C10.3089,65.4834 20.0559,53.3004 20.0559,53.3004 C4.3289,53.3004 13.8539,42.6674 13.8539,42.6674 C-3.6451,40.8954 10.7529,29.3774 10.7529,29.3774 C-6.5251,29.1554 4.1299,16.4044 4.1299,16.4044 L4.1299,16.4044 L10.7349,12.9774 Z M144.5631,0.7582 L154.7051,3.6042 L164.1411,7.0882 C168.6671,8.7552 164.6171,13.0432 164.6171,13.0432 C177.0401,17.7352 166.7611,24.0022 166.7611,24.0022 C179.3871,30.4342 165.0941,37.8192 165.0941,37.8192 C179.6261,48.0632 162.8431,48.4312 162.8431,48.4312 C162.8431,48.4312 171.6881,52.5752 168.8421,54.9202 C163.1721,59.5922 143.4661,63.9672 141.5521,62.1052 C134.2851,55.0372 145.0831,51.1592 145.0831,51.1592 C128.4071,41.6312 145.3211,37.3422 145.3211,37.3422 C128.6451,28.2902 146.0361,25.4312 146.0361,25.4312 C131.0271,16.8552 146.9891,12.3292 146.9891,12.3292 C132.6951,7.8022 144.5631,0.7582 144.5631,0.7582 L144.5631,0.7582 Z" id="bodyreading-path-1"/></defs><g id="Body/Reading" stroke="none" stroke-width="1" fill="none" fill-rule="evenodd"><g id="Body" transform="translate(163.000000, 217.000000)"><path d="M82.7169,220.5702 C79.0629,221.8992 80.9859,205.7962 81.6719,193.2832 C81.7829,191.2652 83.5319,189.7352 85.5469,189.8912 L162.3979,195.8372 M320.0599,233.1762 C304.7629,172.3132 284.9739,112.8302 257.6219,55.9562 C225.4999,-10.8378 123.2159,0.5812 119.8409,0.9772 C119.7779,0.9842 119.7329,0.9882 119.6709,0.9922 C116.7509,1.1812 38.6379,6.6882 13.2989,56.8502 C-12.5251,107.9702 5.9209,228.3692 13.2989,254.1932 C19.0649,274.3732 43.7009,312.5432 106.0519,286.8672 C144.3299,271.1052 211.2889,227.9262 235.6999,201.6762 L239.2899,201.8482 C251.7899,228.4632 255.9899,252.2032 274.9189,321.6092 L289.1899,371.7752 C289.1899,371.7752 289.9249,372.4142 286.2539,379.2772 C284.7509,382.0882 279.3109,389.0122 276.7579,398.3492 C275.6289,402.4772 280.7639,405.7732 284.6499,402.5012 C291.7599,396.5132 294.7249,388.7212 294.7249,388.7212 C297.7999,401.0212 299.2409,417.5682 305.8979,431.5092 C309.4239,438.8932 316.3389,441.1372 319.0329,439.5052 C320.6129,438.5472 319.8439,436.6032 319.6049,434.4442 C319.3659,432.2832 318.6579,429.9072 318.3609,428.0842 C317.7509,424.3542 318.9919,430.3602 318.2979,427.6452 C318.3419,427.9592 318.4279,428.2622 318.5519,428.5542 C319.3749,430.4922 325.1969,437.8382 329.4069,435.0742 C329.5969,434.9492 329.9609,434.6072 330.1099,434.3312 C330.8069,433.0342 329.7559,426.6182 330.1909,428.0242 C331.5649,432.4642 336.9479,432.2072 338.1009,430.9652 C338.2149,430.8412 339.1379,430.4692 339.2459,430.2012 C339.7969,428.8272 340.2889,428.2912 341.7419,428.0122 C346.0859,427.1782 351.0019,427.9012 351.1839,411.9882 C351.9299,346.6422 335.9889,296.5562 320.0599,233.1762" id="Skin" fill="#c68e80"/><g id="Tshirt" transform="translate(45.000000, 5.000000)"><mask id="bodyreading-mask-2" fill="#ffffff"><use xlink:href="#bodyreading-path-1" fill="#ffffff"/></mask><use fill="#F2B08F" xlink:href="#bodyreading-path-1"/><g mask="url(#bodyreading-mask-2)"><g transform="translate(-7.000000, -4.000000) scale(1 1)" id="Patterns"><g id="Patterns/Pattern 2" stroke="none" stroke-width="1" fill="none" fill-rule="evenodd"><path d="M134.250169,148.207855 C134.66839,148.931953 134.591989,149.839803 134.058632,150.48382 L118.805286,168.901884 L147.241996,165.063971 C148.328866,164.917283 149.331128,165.673243 149.488737,166.758583 L152.957701,190.646875 L165.3222,161.566836 C165.901199,160.205089 167.707211,159.921832 168.675309,161.04093 L187.164849,182.414383 L189.641285,154.190323 C189.737797,153.090371 190.707443,152.276743 191.807443,152.372702 L214.725866,154.372014 L197.341494,136.888582 C196.925929,136.470649 196.715859,135.890699 196.767374,135.303579 L199.515072,103.987945 L174.415746,118.100563 C173.675931,118.516539 172.754134,118.420264 172.116239,117.860397 L148.480175,97.1155274 L152.984051,126.890854 C153.177684,128.17097 152.122514,129.294924 150.832734,129.182408 L121.798631,126.649589 L134.250169,148.207855 Z M217.814177,154.641426 L219.484263,156.321028 L219.271324,156.776137 L216.911689,156.570292 L214.725866,154.372014 L217.814177,154.641426 Z M169.003274,163.131987 L167.978728,163.292678 L167.162737,162.349412 L166.674709,163.497202 L165.650164,163.657893 L166.291275,164.399001 L152.004515,198 L147.509497,167.046001 L114,171.568555 L132.518287,149.208148 L118.145395,124.323299 L148.956747,127.011159 L149.029041,127.489097 L149.438293,127.053167 L151.006546,127.189975 L150.771106,125.633472 L151.180358,125.197542 L150.698813,125.155534 L145.683639,92 L173.435527,116.357241 L201.838713,100.386959 L198.759719,135.478392 L220,156.839704 L191.633631,154.365135 L188.744125,187.296965 L168.619839,164.033786 L169.003274,163.131987 Z M192.536842,71.7476361 C192.803386,72.2278117 192.860748,72.7964662 192.69547,73.3202007 L186.032533,94.4338401 L212.997441,89.4140616 C214.104509,89.2079702 215.163399,89.9560854 215.339004,91.0683963 L219.047229,114.556892 L236.140028,95.6680091 C236.646732,95.1080613 237.425628,94.8812648 238.153728,95.0816659 L264.095041,102.221706 L256.594325,82.2074947 C256.2898,81.3949299 256.543999,80.4786965 257.223645,79.9391791 L274.007978,66.6154054 L252.221901,58.2891423 C251.21775,57.9053728 250.696577,56.7964806 251.041899,55.7784665 L259.97679,29.4382597 L230.643008,35.2020307 C230.071172,35.3143904 229.478769,35.1717437 229.020756,34.8114027 L206.531807,17.1182722 L206.531807,44.8474979 C206.531807,45.8673502 205.764434,46.7238585 204.750709,46.8354823 L180.208278,49.5379103 L192.536842,71.7476361 Z M213.729503,93.3465018 L213.666905,93.3022759 L213.363472,91.3802817 L211.450537,91.7363929 L211.387939,91.6921671 L211.396509,91.7464507 L183.122349,97.0099592 L190.788188,72.7183099 L177,47.8790935 L204.531807,44.8474979 L204.531807,13 L230.257403,33.2395556 L262.980305,26.8098592 L252.935899,56.4209326 L278,66 L258.467125,81.5056263 L267.343359,105.190141 L237.622988,97.0099592 L217.72391,119 L213.675475,93.3565596 L213.729503,93.3465018 Z M247.839382,198.909336 C248.132634,198.505269 248.566413,198.225496 249.055462,198.125003 L266.493002,194.541828 L254.021152,183.441962 C253.282053,182.784168 253.135015,181.684806 253.675272,180.855901 L262.364095,167.524814 L241.651462,165.835335 C240.984409,165.780925 240.388783,165.396469 240.064504,164.81101 L230.952472,148.359951 L221.2747,168.01311 C221.012722,168.545121 220.52816,168.933441 219.951852,169.073217 L202.825547,173.226984 L214.965672,183.463506 C215.432656,183.857266 215.694094,184.442844 215.675497,185.053397 L215.060795,205.234029 L229.397862,197.332406 C230.44851,196.75336 231.769014,197.223111 232.21792,198.335603 L237.948626,212.53761 L247.839382,198.909336 Z M231.328582,200.835593 L231.026678,200.728194 L230.363222,199.083999 L228.810429,199.939794 L228.508525,199.832396 L228.598903,200.056373 L212.954956,208.67826 L213.676424,184.992506 L198.52056,172.21312 L219.480444,167.129567 L230.848333,144.044202 L241.814057,163.841955 L265.87274,165.804363 L255.350802,181.947963 L270.800855,195.698411 L249.458023,200.08407 L237.445597,216.635752 L231.117056,200.952172 L231.328582,200.835593 Z M111.874881,2.72196981 L107.984589,32.0098845 C107.904289,32.6144242 107.55255,33.149293 107.029299,33.462541 L83.1780966,47.7412224 L119.450295,56.7947903 C120.340985,57.0171071 120.965953,57.817242 120.965953,58.7352575 L120.965953,84.033896 L137.405099,62.2699065 C137.986161,61.5006312 139.03332,61.2553567 139.89557,61.6865671 L167.523847,75.5034429 L151.236235,42.9615123 C151.007769,42.5050456 150.962482,41.9784973 151.109652,41.4897234 L161.199393,7.98023586 L135.111364,27.174535 C134.265658,27.7967641 133.082775,27.6590993 132.402568,26.8592833 L111.874881,2.72196981 Z M106.002003,31.746539 L110.48453,-2 L133.926105,25.5635845 L164.842887,2.81652482 L153.024724,42.0663533 L172,79.9781194 L139.001001,63.4753506 L118.965953,90 L118.965953,58.7352575 L78,48.5101249 L106.002003,31.746539 Z M66.3882305,195.332239 C66.8502284,195.726595 67.1079723,196.309538 67.0887678,196.916654 L66.5244841,214.755498 L84.4387211,198.146341 C85.1104813,197.52352 86.1195067,197.436705 86.8877803,197.935628 L100.173411,206.563417 L94.2470652,190.491033 C93.9109838,189.579573 94.278466,188.55842 95.1182761,188.070127 L112.032002,178.235948 L88.6185601,175.499891 C88.1166928,175.441243 87.6556236,175.194809 87.3280212,174.810119 L72.6640337,157.590773 L73.9765467,178.177522 C74.0438795,179.233636 73.276845,180.159406 72.2266244,180.289585 L51.7403091,182.828947 L66.3882305,195.332239 Z M114.915631,176.559315 L117.567122,176.869164 L117.65288,177.281284 L115.345085,178.623109 L112.032002,178.235948 L114.915631,176.559315 Z M65.0897677,196.853421 L46.9887594,181.402615 L71.9805991,178.304774 L70.2852145,151.71269 L88.8506972,173.513408 L118.228714,176.946476 L96.1235642,189.799114 L104.132344,211.519104 L85.7985022,199.612969 L64.3741467,219.476525 L65.0897677,196.853421 Z M3.20754849,87.1187964 L18.1308539,114.015592 C18.397189,114.495617 18.4545059,115.064014 18.2893694,115.587548 L10.183856,141.284564 L42.837927,135.202825 C43.9450989,134.996617 45.004136,135.744826 45.1796796,136.857272 L49.7082278,165.555357 L70.5440379,142.519293 C71.0507824,141.959036 71.8299624,141.732109 72.5582853,141.932666 L104.090844,150.615725 L94.9197148,126.132794 C94.6154156,125.320448 94.8694844,124.404552 95.5487837,123.865055 L116.009355,107.615341 L89.5065786,97.4816587 C88.5027049,97.0978145 87.9816766,95.9892099 88.3267775,94.971367 L99.1517496,63.0441199 L63.6619026,70.0207804 C63.0898578,70.133234 62.4972203,69.9904868 62.0391149,69.6299034 L34.7110574,48.1194734 L34.7110574,81.8564598 C34.7110574,82.8762728 33.9437418,83.7327614 32.9300614,83.8444329 L3.20754849,87.1187964 Z M43.5703225,139.135203 L43.5073705,139.090728 L43.2041248,137.169014 L41.2915219,137.525232 L41.2285699,137.480756 L41.2371851,137.535352 L7.27407855,143.860895 L16.3820052,114.985915 L-2.84217094e-14,85.4600546 L32.7110574,81.8564598 L32.7110574,44 L63.2761223,68.0583396 L102.154818,60.415493 L90.22087,95.6135614 L120,107 L96.7926237,125.431216 L107.338644,153.584507 L72.0273126,143.860895 L48.3848434,170 L43.5159857,139.145323 L43.5703225,139.135203 Z" id="Pattern" fill="#010101"/></g></g></g></g><g id="Book" transform="translate(93.100200, 45.103900)"><path d="M1.77635684e-14,8.0415 L58.574,26.5205 L58.574,124.8395 L1.77635684e-14,106.3615 L1.77635684e-14,8.0415 Z M127.6066,8.0415 L127.4696,31.9105 C125.0636,32.8015 123.7576,33.6515 123.7576,33.6515 C114.5396,45.9685 119.6806,84.7155 119.6806,84.7155 C119.6806,84.7155 106.5946,52.6775 101.9806,51.4765 C84.3336,46.8795 100.6676,89.1485 106.7846,103.1235 L106.7846,103.1235 L109.7176,110.8085 L94.9776,116.6545 L69.0326,124.8395 L69.0326,26.5195 L127.6066,8.0415 Z" id="Combined-Shape" fill="#94C0E9"/><path d="M69.0332,124.8393 C69.0332,124.8393 67.0222,126.2673 63.5142,126.2673 C60.4942,126.2673 58.5742,124.8393 58.5742,124.8393 L58.5742,26.5203 C58.5742,26.5203 62.5522,27.5783 63.7142,27.5783 C65.1672,27.5783 69.0332,26.5203 69.0332,26.5203 L69.0332,124.8393 Z" id="Fill-10" fill="#3973B0"/><polyline id="Stroke-14" stroke="#FFF" stroke-width="2" stroke-linecap="round" stroke-linejoin="round" points="20.2275 1.77635684e-15 63.7135 27.578 8.5415 3.652"/><polyline id="Stroke-16" stroke="#FFF" stroke-width="2" stroke-linecap="round" stroke-linejoin="round" points="106.5625 1.77635684e-15 63.0755 27.578 118.2485 3.652"/></g><path d="M289.779604,369.698682 C290.048347,369.77972 290.272135,369.96946 290.403746,370.22485 C290.979911,371.342895 289.219143,375.449046 283.104432,386.267212 C277.428735,396.307366 276.795297,401.06602 278.994823,402.713293 C279.931729,403.414004 281.28526,403.434382 282.396976,402.774474 C285.627155,400.854597 289.534066,396.344662 293.842167,388.251225 C294.292588,387.405039 295.560374,387.61616 295.712267,388.562647 C295.727103,388.655097 295.756706,388.83608 295.800693,389.099685 C295.874199,389.540196 295.961323,390.051523 296.061681,390.627752 C296.348623,392.275295 296.683905,394.11161 297.064441,396.089367 C298.151446,401.738841 299.382623,407.387715 300.732679,412.655927 C303.476572,423.363189 306.360197,431.103981 309.193575,434.446318 C313.197561,439.167758 316.486038,439.909733 318.844336,438.382732 C318.897373,438.348386 318.970702,437.958156 318.893508,437.264543 C318.862041,436.981805 318.810798,436.678581 318.736539,436.313482 C318.710525,436.185584 318.705812,436.16339 318.637883,435.846014 L316.585968,425.740218 C315.497094,421.970103 314.454123,417.007558 313.459274,411.105047 C312.63761,406.230053 311.898666,401.010182 311.253679,395.790775 C311.027977,393.964337 310.830117,392.268239 310.661543,390.745792 C310.602509,390.212641 310.551343,389.739173 310.508225,389.330803 C310.4823,389.085276 310.464789,388.915695 310.455871,388.827476 C310.400324,388.277992 310.800739,387.787517 311.350224,387.731971 C311.899708,387.676424 312.390183,388.076839 312.445729,388.626324 C312.454353,388.711636 312.471561,388.87827 312.497169,389.120799 C312.539937,389.525855 312.59074,389.995961 312.649394,390.525686 C312.817071,392.040028 313.013957,393.727781 313.238581,395.545491 C313.880236,400.737933 314.615231,405.929911 315.431458,410.772642 C316.327957,416.091638 317.263415,420.632503 318.220954,424.166359 C318.299512,424.273883 318.3556,424.400671 318.383917,424.540186 L318.533604,425.281508 C318.845475,426.355233 319.159473,427.320541 319.475023,428.169636 C319.553761,428.35881 319.722373,428.713687 319.979411,429.177934 C320.411342,429.95806 320.929258,430.738492 321.529406,431.462813 C323.446843,433.776977 325.709403,434.973591 328.343339,434.571284 C329.229327,434.436443 329.575493,433.900455 329.516127,431.542463 C329.5017,430.978292 329.277948,429.650011 328.824107,427.401324 L328.857703,427.487715 C328.806277,427.374845 328.777587,427.257412 328.769707,427.140565 C328.70699,426.824254 328.63832,426.490338 328.565293,426.138752 C328.325428,424.983938 326.921777,418.408089 326.504173,416.398435 C326.221587,415.038537 325.964651,413.776473 325.725232,412.568218 C324.245023,405.098168 323.4498,399.75177 323.4498,396.3669 C323.4498,395.814615 323.897515,395.3669 324.4498,395.3669 C325.002085,395.3669 325.4498,395.814615 325.4498,396.3669 C325.4498,399.576584 326.232462,404.838534 327.687087,412.179471 C327.92522,413.381239 328.180945,414.637351 328.462342,415.99153 C328.878471,417.994084 330.282147,424.570046 330.523498,425.732017 C330.597034,426.086053 330.66621,426.422152 330.731117,426.741081 L330.74038,426.78844 C330.805507,426.91809 330.902683,427.09926 331.030565,427.317979 C331.332171,427.833817 331.687174,428.349851 332.089696,428.827437 C333.863158,430.93162 335.797968,431.558202 338.103322,430.038472 C338.200269,429.929755 338.339267,429.750069 338.480183,429.518649 C338.679423,429.191445 338.820632,428.850841 338.881753,428.515639 C338.908609,428.367566 338.703418,426.573011 338.308338,423.728025 C338.061756,421.95237 336.953332,414.270011 336.835797,413.444657 C336.737844,412.756815 336.645402,412.103523 336.556779,411.472414 C335.659581,405.08315 335.104887,400.604614 334.88052,397.623142 C334.839075,397.072414 335.251931,396.592364 335.802658,396.55092 C336.353386,396.509475 336.833436,396.922331 336.87488,397.473058 C337.094966,400.397627 337.646086,404.84731 338.537348,411.194297 C338.625781,411.82406 338.718043,412.476079 338.815821,413.162689 C338.932694,413.983392 340.041879,421.671035 340.289328,423.452928 C340.769386,426.909845 340.938065,428.385069 340.84948,428.873481 C340.740169,429.472976 340.506709,430.036092 340.188413,430.558818 C339.924302,430.992557 339.657331,431.316682 339.459807,431.514207 L339.314961,431.63406 C336.401161,433.615193 333.713133,433.135064 331.489239,431.091167 C331.50409,431.242947 331.51252,431.375842 331.515483,431.491731 C331.598002,434.769345 330.645655,436.243917 328.644789,436.548435 C325.245066,437.067709 322.37553,435.575437 320.065815,432.830414 L320.595716,435.437633 C320.663346,435.75334 320.668382,435.777051 320.69641,435.914855 C320.781599,436.333689 320.842106,436.691728 320.881236,437.043324 C321.036192,438.435649 320.841411,439.472198 319.931413,440.061501 C316.670235,442.173118 312.284758,441.183629 307.668104,435.73974 C304.566954,432.08153 301.616446,424.161199 298.795283,413.152413 C297.434036,407.840531 296.194563,402.153592 295.100465,396.467252 C294.772963,394.765127 294.47873,393.166879 294.219663,391.702014 C290.28121,398.553642 286.62282,402.589411 283.41834,404.494014 C281.634991,405.552599 279.40702,405.519056 277.796452,404.314514 C274.479661,401.830496 275.2406,396.113999 281.36334,385.283037 C284.671106,379.430928 286.739108,375.419878 287.801331,372.942751 C288.183897,372.050599 288.407211,371.422464 288.500649,371.030664 L288.514791,370.968584 L288.514791,370.968584 L288.52536,370.916875 L288.52536,370.916875 C288.47808,370.742476 288.477472,370.553138 288.533482,370.367396 C288.692928,369.838629 289.250836,369.539235 289.779604,369.698682 Z M236.248837,74.2511015 C238.035111,74.5327267 239.343621,76.643811 240.562783,80.0884636 C240.967468,81.2318704 241.328838,82.4496707 241.64366,83.6683429 C244.338012,81.3410146 246.993798,81.0614894 249.284378,83.0330201 C250.029928,83.6746015 250.755082,84.5995205 251.467354,85.7411321 C251.926942,86.4777462 252.354257,87.2620238 252.739972,88.0457702 C252.874845,88.3198232 252.995099,88.5746695 253.099387,88.8041296 C253.147854,88.910769 253.185358,88.9952509 253.21128,89.0548048 C253.236162,89.1003344 253.270757,89.1644368 253.314593,89.2468476 C253.415212,89.4360082 253.531399,89.6597092 253.661853,89.917222 C254.032424,90.6487217 254.444421,91.5066815 254.887427,92.485278 C256.149867,95.2739951 257.411078,98.4749621 258.587612,102.04167 C262.332915,113.3957 264.393877,125.784887 263.8902,138.720231 C263.234799,155.552121 258.2486,171.934773 248.057047,187.356386 C245.231331,191.632192 242.017655,195.809936 238.379304,199.907586 C238.264354,200.028307 238.041579,200.258945 237.714833,200.592179 C237.172286,201.145498 236.53349,201.786754 235.802297,202.508627 C233.715471,204.568852 231.305381,206.863578 228.602816,209.334242 C220.88285,216.391771 212.363486,223.448936 203.289983,230.037352 C199.410451,232.854342 195.50279,235.52948 191.578157,238.041269 C191.112985,238.338982 190.494544,238.20323 190.196831,237.738057 C189.899118,237.272885 190.03487,236.654444 190.500043,236.356731 C194.390737,233.866663 198.266185,231.213577 202.114864,228.418989 C211.123114,221.877955 219.585664,214.867853 227.253353,207.858115 C229.936466,205.405235 232.328081,203.128099 234.397183,201.085371 C235.120565,200.37121 235.751724,199.737621 236.286786,199.191935 C236.606605,198.865765 236.822599,198.642148 236.907254,198.554128 C240.459401,194.552667 243.615262,190.450082 246.38849,186.2537 C256.372021,171.146861 261.250136,155.11933 261.891715,138.642414 C262.385354,125.964861 260.363164,113.808751 256.688279,102.668195 C255.534755,99.1712437 254.299477,96.0360947 253.065426,93.3100895 C252.634661,92.3585332 252.235298,91.5268824 251.877727,90.821045 C251.66521,90.4015406 251.515237,90.1195965 251.438205,89.9811142 L251.392185,89.8871176 C251.312998,89.7013431 251.160082,89.364889 250.945513,88.9288993 C250.587356,88.2011477 250.191128,87.4739274 249.770534,86.7998102 C249.155841,85.8145978 248.544664,85.0350531 247.97975,84.5489181 C246.371206,83.1644238 244.523806,83.503545 242.231121,85.8574043 C242.298284,86.0519127 242.375955,86.2840115 242.463453,86.5548342 C242.812436,87.634995 243.199883,88.9758902 243.61606,90.5937627 C244.799714,95.1951687 245.981288,101.099087 247.082783,108.435547 C247.862673,113.629976 248.574513,119.372383 249.203182,125.687947 C249.257888,126.237515 248.856722,126.727377 248.307153,126.782082 C247.757585,126.836788 247.267723,126.435622 247.213018,125.886053 C246.587588,119.603029 245.87983,113.893551 245.104951,108.732499 C244.01336,101.462008 242.845199,95.6251068 241.679119,91.0920166 C241.272889,89.5128154 240.896673,88.2107899 240.560316,87.1697067 C240.361578,86.5545767 240.222379,86.1678463 240.152574,85.9932678 L240.143178,85.9691396 C240.135207,85.947525 240.127937,85.9255079 240.1214,85.9031095 L240.152574,85.9932678 C240.133588,85.9457846 240.118446,85.8974088 240.107073,85.8485509 C240.105418,85.841244 240.103694,85.8334238 240.102059,85.8255627 C240.086468,85.7506134 240.054701,85.6047284 240.00742,85.3981412 C239.927954,85.050925 239.834269,84.6633044 239.727053,84.2455666 C239.421104,83.0535151 239.069001,81.8622335 238.677388,80.7557595 C237.723374,78.0602624 236.657225,76.3401925 235.937351,76.2266967 C234.002889,75.9216842 232.409391,76.6592505 231.089232,78.1261151 C230.684955,78.575318 230.339374,79.0600149 230.054682,79.5439258 C229.886773,79.8293314 229.779493,80.0442079 229.732942,80.1518466 L229.657864,80.2931829 C229.622174,80.3490607 229.540834,80.4957124 229.428133,80.7345577 C229.229401,81.1557288 229.027923,81.671957 228.837978,82.284829 C228.121622,84.5962038 227.784407,87.4828136 228.01915,90.9685854 L232.501409,126.202829 C232.571091,126.7507 232.183442,127.251326 231.635571,127.321009 C231.0877,127.390691 230.587074,127.003042 230.517391,126.455171 L226.390098,94.0029648 C226.336134,93.9010745 226.299006,93.7880518 226.282874,93.6670775 C226.166877,92.7971952 226.08211,91.95588 226.026567,91.1429985 L224.834885,81.7644612 C224.631688,78.8878011 222.770312,77.7370677 220.049414,78.3045884 C219.893416,78.3365996 219.581573,78.5010961 219.164406,78.7928509 C216.872466,80.3994785 215.201651,82.8213388 214.42167,85.6215347 C211.18405,97.2353109 210.320695,113.333586 214.041334,128.426652 C214.32689,129.585035 212.70939,130.180287 212.175933,129.113133 L200.994492,106.736255 C200.968077,106.668932 200.912341,106.533552 200.828359,106.339961 C200.686174,106.012202 200.517824,105.64568 200.324451,105.25029 C199.771949,104.120594 199.132279,102.991307 198.416514,101.942546 C195.917768,98.2813032 193.253583,96.6215785 190.543002,97.7305595 C188.518484,98.5586936 187.814413,102.295155 188.40937,108.061874 C188.825506,112.095344 189.74504,116.327311 190.814594,120.218802 C191.663155,123.303954 193.651774,129.006562 196.458606,136.546131 C196.649264,137.058268 196.843058,137.577132 197.039825,138.102334 C198.507218,142.019039 200.079704,146.129214 201.652224,150.181452 C202.202628,151.599794 202.713704,152.909535 203.172329,154.07928 C203.332816,154.488611 203.475273,154.851177 203.598059,155.163055 C203.722417,155.478683 203.722417,155.478683 203.748429,155.544513 C203.951386,156.058154 203.699527,156.639071 203.185887,156.842029 C202.672246,157.044986 202.091329,156.793127 201.888371,156.279487 C201.861922,156.212549 201.861922,156.212549 201.73709,155.895718 C201.613965,155.58298 201.471165,155.21954 201.310329,154.809318 C200.850885,153.637485 200.338971,152.325594 199.787694,150.905005 C198.212552,146.846011 196.637376,142.728803 195.166951,138.804006 C194.969705,138.277523 194.775426,137.757361 194.584277,137.243907 C191.756395,129.647795 189.755829,123.910929 188.886156,120.749017 C187.78972,116.759717 186.849842,112.43412 186.41993,108.267126 C185.73533,101.631524 186.571451,97.1942767 189.785736,95.8794659 C193.632988,94.305438 197.099598,96.4650545 200.068455,100.81512 C200.84329,101.950432 201.529127,103.161223 202.12109,104.371605 C202.328279,104.795243 202.509251,105.189247 202.663151,105.54401 C202.75682,105.759933 202.821512,105.917062 202.819867,105.923867 L210.643093,121.573829 C208.626325,108.397981 209.692853,95.1366092 212.495073,85.0846701 C213.397121,81.8462404 215.338326,79.0324478 218.017282,77.154527 C218.642132,76.7175232 219.156663,76.4461091 219.644214,76.3460679 C223.470348,75.5480113 226.53457,77.4423648 226.824409,81.5678292 L226.865779,81.8964338 C226.886094,81.8281285 226.90671,81.7602372 226.927623,81.6927596 C227.285113,80.5392936 227.652601,79.740242 227.928545,79.2868878 C228.224726,78.6256255 228.774288,77.708593 229.602634,76.7881961 C231.338608,74.8593089 233.5664,73.8281535 236.248837,74.2511015 Z M84.003,221.9716 C84.5552847,221.9716 85.003,222.419315 85.003,222.9716 C85.003,223.523885 84.5552847,223.9716 84.003,223.9716 C83.9526209,223.9716 83.8283581,223.976259 83.6316584,223.991159 C83.2875467,224.017226 82.8739306,224.064703 82.392248,224.139184 C80.9947816,224.355269 79.3426206,224.746547 77.4472426,225.357937 C71.9856457,227.119678 65.6922786,230.301758 58.6607088,235.26555 C58.20952,235.584057 57.5855577,235.476498 57.2670502,235.025309 C56.9485427,234.57412 57.0561023,233.950158 57.5072912,233.63165 C64.7014714,228.553067 71.1761043,225.279335 76.8332574,223.454513 C78.8294419,222.810606 80.5847184,222.394908 82.086627,222.162673 C83.0073696,222.020301 83.650294,221.9716 84.003,221.9716 Z M193.844694,178.815252 L200.564694,179.444252 C201.114575,179.495722 201.518618,179.983213 201.467148,180.533094 C201.415678,181.082975 200.928187,181.487018 200.378306,181.435548 L193.658306,180.806548 C193.108425,180.755078 192.704382,180.267587 192.755852,179.717706 C192.807322,179.167825 193.294813,178.763782 193.844694,178.815252 Z" id="Skin-Shadows" fill="#371D0A"/></g></g></g></g></svg>