<svg viewBox="72.67500000000007 36.262500000000045 605.625 749.4250000000002" xmlns="http://www.w3.org/2000/svg" xmlns:xlink="http://www.w3.org/1999/xlink" overflow="visible" width="605.625px" height="749.4250000000002px"><defs><path d="M275.684414,0.876652922 C298.838059,1.54914435 329.906472,9.13626937 355.7471,15.2297529 L355.731944,15.2730262 C397.943463,24.6870841 452.971125,41.5664426 466.9347,60.6071529 C489.4187,91.2671529 484.8307,126.127153 444.6317,165.644153 C415.2977,194.481153 386.9717,210.585153 372.4107,216.074153 C363.858947,207.086013 354.27259,195.452866 345.166172,184.184251 L345.5431,187.063753 C345.8052,205.151453 195.8084,217.517053 146.0664,197.369053 L149.907924,169.277823 C138.376043,183.58138 125.055547,200.37944 113.5941,212.425753 C99.0331,206.935753 70.7081,190.832753 41.3741,161.994753 C1.1741,122.477753 -11.4139,87.6187529 11.0701,56.9587529 C23.1971,40.4207529 69.0261,26.2177529 108.6751,16.6397529 C108.048715,16.8278037 108.709162,16.7365391 110.005927,16.5033439 C127.558487,12.2104677 191.200137,-1.57717031 275.684414,0.876652922 Z M162.310363,78.5613735 L87.8171,104.583753 C87.8171,104.583753 122.608609,134.324697 151.917069,154.584908 L162.310363,78.5613735 Z M332.466363,87.1363735 L341.108096,153.169863 C367.388419,133.830342 393.927617,109.395078 395.144211,108.27232 L395.1877,108.232153 L332.466363,87.1363735 Z" id="mastercharactersitting-path-1"/></defs><g id="Master/Character/Sitting" stroke="none" stroke-width="1" fill="none" fill-rule="evenodd"><g id="Bottom/Sitting" transform="translate(15.000000, 331.000000) scale(1 1)"><g id="Bottom/Sitting/Crossed 2" stroke="none" stroke-width="1" fill="none" fill-rule="evenodd"><g id="Crossed-2" transform="translate(65.000000, 110.000000)"><path d="M391,1.27329258e-11 L390.997181,10.5384946 C495.782485,19.8364681 658.933713,135.817305 559.020137,202 C495.735188,243.919914 467.03552,256.218825 428.053462,264.342361 L433.7133,307.3983 C418.7113,314.5763 407.1923,304.6803 399.6803,293.7943 C391.592301,282.075585 378.324742,275.081413 364.160606,275.246339 C354.385891,276.873514 343.720753,278.715149 331.9524,280.8944 L207.3214,297.2714 C183.8134,300.3604 161.0514,307.6044 140.0384,318.5884 C124.0334,326.9544 105.9864,335.5164 98.0924,336.1484 C82.3804,337.4054 81.7514,324.2074 81.7514,324.2074 L120.742214,261.014568 C115.140248,259.565605 109.761285,257.993605 104.6483,256.2893 C-63.2741842,173.510753 -28.4914464,92.2600912 208.996513,12.537314 L209,1.27329258e-11 L391,1.27329258e-11 Z M302.482523,166.892858 L301.670242,166.931682 C301.148326,167.009127 300.594729,167.057489 300.008662,167.075931 C257.903962,168.400884 201.2083,174.2053 201.2083,174.2053 L201.2083,174.2053 L306.449591,197.282008 C365.990085,182.982394 417.698345,169.388862 414.5854,166.2764 C411.68265,163.3728 327.632313,166.030283 302.482523,166.892858 Z" id="Pants" fill="#010101"/><path d="M165.0741,229.5837 C159.8881,256.8617 155.4651,284.6597 152.7191,312.5137 C148.4301,314.3917 144.1981,316.4137 140.0381,318.5877 C124.0331,326.9547 105.9861,335.5167 98.0921,336.1487 C82.69434,337.38056 81.7822932,324.729838 81.7519704,324.223316 L81.7511,324.2077 L131.3351,243.8467 C134.5841,238.5817 139.8561,234.8917 145.9171,233.6487 C150.5951,232.6887 157.1241,231.3037 165.0741,229.5837 Z M427.296427,258.594457 L433.7131,307.3986 C418.7111,314.5766 407.1921,304.6796 399.6801,293.7946 C391.3041,281.6586 377.3731,274.5886 362.6451,275.2916 C361.731028,275.335075 360.796899,275.378598 359.843446,275.422064 C385.256117,270.13175 407.613986,264.563476 427.296427,258.594457 Z" id="Shoes" fill="#2F6858"/><path d="M165.0744,229.5832 C159.8874,256.8612 155.4654,284.6592 152.7194,312.5142 C170.0954,304.9052 188.4684,299.7492 207.3214,297.2712 L243.8774,292.4682 C235.6014,267.5102 226.9904,242.6442 217.6254,217.9292 C197.2734,222.5262 178.9934,226.5692 165.0744,229.5832" id="Skin" fill="#c68e80"/><path d="M306.344594,197.306556 C306.473467,197.843594 306.142583,198.383422 305.605544,198.512294 C278.468119,205.024424 248.053045,212.079783 217.845568,218.904317 C217.30686,219.026023 216.771489,218.687976 216.649783,218.149268 C216.528077,217.61056 216.866124,217.075189 217.404832,216.953483 C247.604145,210.130794 278.010734,203.077403 305.138856,196.567506 C305.675894,196.438633 306.215722,196.769517 306.344594,197.306556 Z M164.980418,165.392645 L201.418418,173.227645 C201.958362,173.343746 202.301955,173.875574 202.185855,174.415518 C202.069754,174.955462 201.537926,175.299055 200.997982,175.182955 L164.559982,167.347955 C164.020038,167.231854 163.676445,166.700026 163.792545,166.160082 C163.908646,165.620138 164.440474,165.276545 164.980418,165.392645 Z M436.218831,161.02051 C436.34922,161.557182 436.019862,162.097942 435.48319,162.228331 L414.82119,167.248331 C414.284518,167.37872 413.743758,167.049362 413.613369,166.51269 C413.48298,165.976018 413.812338,165.435258 414.34901,165.304869 L435.01101,160.284869 C435.547682,160.15448 436.088442,160.483838 436.218831,161.02051 Z" id="Pants-details" fill="#B9B3B8"/></g></g></g><g id="Head" transform="translate(247.000000, 64.000000) scale(1 1)"><g id="Head/Bun" stroke="none" stroke-width="1" fill="none" fill-rule="evenodd"><g id="Bun" transform="translate(35.000000, -27.000000)"><path d="M141.3246,130.9252 C140.4626,130.9792 139.7316,130.3122 139.7486,129.4492 C139.7536,129.2052 139.7566,128.9602 139.7566,128.7162 C139.7566,101.0482 112.3456,78.6202 78.5336,78.6202 C44.7206,78.6202 17.3096,101.0482 17.3096,128.7162 C17.3096,128.9762 17.3126,129.2362 17.3176,129.4962 C17.3356,130.3682 16.5896,131.0442 15.7206,130.9632 C15.2276,130.9172 14.7276,130.8932 14.2196,130.8932 C6.3666,130.8932 -0.0004,136.2412 -0.0004,142.8372 C-0.0004,149.4342 6.3666,154.7812 14.2196,154.7812 C17.4056,154.7812 20.3406,153.8952 22.7096,152.4072 C23.4506,151.9412 24.4086,152.1342 24.8976,152.8592 C33.1426,165.0972 47.4506,174.2072 64.5166,177.4792 C65.9896,177.7622 67.0216,179.0972 66.9356,180.5942 L65.3136,209 L91.7526,209 L90.1316,180.5942 C90.0456,179.0962 91.0776,177.7622 92.5506,177.4792 C109.5186,174.2262 123.7616,165.2012 132.0286,153.0692 C132.5036,152.3722 133.4216,152.1612 134.1466,152.5922 C136.4606,153.9682 139.2786,154.7812 142.3286,154.7812 C150.1816,154.7812 156.5476,149.4342 156.5476,142.8372 C156.5476,136.2412 150.1816,130.8932 142.3286,130.8932 C141.9906,130.8932 141.6556,130.9042 141.3246,130.9252 Z" id="Skin" fill="#c68e80"/><path d="M139.7563,128.716 C139.7563,101.049 112.3453,78.62 78.5333,78.62 C77.9263,78.62 77.3243,78.634 76.7223,78.648 C93.3873,75.386 105.4363,65.191 104.7963,53.833 C104.1073,41.612 88.9723,32.374 70.1893,32.144 C77.7973,29.997 83.3013,23.799 83.3013,16.478 C83.3013,7.378 74.8043,0.001 64.3213,0.001 C53.8393,0.001 45.3413,7.378 45.3413,16.478 C45.3413,24.661 52.2213,31.432 61.2283,32.717 C43.0153,35.275 29.4453,46.004 30.1243,58.039 C30.8243,70.479 46.4943,79.823 65.7433,79.728 C38.0723,84.542 17.3103,104.639 17.3103,128.716 C17.3103,128.976 17.3133,129.236 17.3183,129.496 C17.3303,130.105 17.3823,130.023 17.3823,130.023 C23.0533,128.976 55.1763,127.349 69.0873,90.347 C69.1303,90.344 69.0443,90.349 69.0873,90.347 C79.8963,127.946 139.7483,129.449 139.7483,129.449" id="Hair" fill="#E58857"/></g></g></g><g id="Face" transform="translate(321.000000, 155.000000) scale(1 1)"><g id="Face/Glasses" stroke="none" stroke-width="1" fill="none" fill-rule="evenodd"><g id="Glasses" transform="translate(1.000000, 8.000000)"><path d="M21.2142,-2.13162821e-14 C32.9215177,-2.13162821e-14 42.4282,9.25219371 42.4282,20.686 C42.4282,21.4351623 42.3873869,22.1749587 42.307816,22.9034003 L49.3351964,22.8869478 C49.3019215,22.3925382 49.285,21.8933837 49.285,21.3901 C49.285,9.98731464 57.9713029,0.7041 68.737,0.7041 C79.5033656,0.7041 88.189,9.98695743 88.189,21.3901 C88.189,32.7932426 79.5033656,42.0761 68.737,42.0761 C59.4281564,42.0761 51.6740035,35.1353637 49.7458309,25.8851038 L41.7472963,25.9059033 C39.3744023,34.8083762 31.0748805,41.372 21.2142,41.372 C9.50688233,41.372 0.0002,32.1198063 0.0002,20.686 C0.0002,9.25219371 9.50688233,-2.13162821e-14 21.2142,-2.13162821e-14 Z M68.737,3.7041 C59.6743591,3.7041 52.285,11.6012466 52.285,21.3901 C52.285,31.1789534 59.6743591,39.0761 68.737,39.0761 C77.8002817,39.0761 85.189,31.1793344 85.189,21.3901 C85.189,11.6008656 77.8002817,3.7041 68.737,3.7041 Z M21.2142,3 C11.1457922,3 3.0002,10.9275392 3.0002,20.686 C3.0002,30.4444608 11.1457922,38.372 21.2142,38.372 C31.2826078,38.372 39.4282,30.4444608 39.4282,20.686 C39.4282,10.9275392 31.2826078,3 21.2142,3 Z" id="Combined-Shape" fill="#F3705A"/><path d="M31.5916697,41.5163389 C31.3065036,40.7385395 31.7058618,39.8768358 32.4836611,39.5916697 C33.2614605,39.3065036 34.1231642,39.7058618 34.4083303,40.4836611 C34.4613851,40.6283697 34.5845696,40.9185521 34.7778641,41.3038508 C35.1046798,41.9553008 35.5020079,42.6069701 35.9660446,43.2082416 C38.2079414,46.1131596 40.9296782,46.7915247 44.7966085,44.0076513 C45.4689316,43.5236336 46.4063311,43.6762854 46.8903487,44.3486085 C47.3743664,45.0209316 47.2217146,45.9583311 46.5493915,46.4423487 C41.2508857,50.2568394 36.7507163,49.1352182 33.5910775,45.041144 C32.5784937,43.7290974 31.9263137,42.4290906 31.5916697,41.5163389 Z" id="Stroke-7" fill="#010101"/><path d="M18.3701,26.9805 C18.3701,24.6420469 19.7129415,22.7462707 21.3701,22.7462707 C23.0272585,22.7462707 24.3701,24.6420469 24.3701,26.9805 C24.3701,29.3189531 23.0272585,31.2147293 21.3701,31.2147293 C19.7129415,31.2147293 18.3701,29.3189531 18.3701,26.9805" id="Fill-9" fill="#010101"/><path d="M64.1553,26.9805 C64.1553,24.6420469 65.4981415,22.7462707 67.1553,22.7462707 C68.8108129,22.7462707 70.1553,24.6420469 70.1553,26.9805 C70.1553,29.3189531 68.8108129,31.2147293 67.1553,31.2147293 C65.4981415,31.2147293 64.1553,29.3189531 64.1553,26.9805" id="Fill-11" fill="#010101"/></g></g></g><g id="Body" transform="translate(64.000000, 26.000000) scale(1 1)"><defs><path d="M275.684414,0.876652922 C298.838059,1.54914435 329.906472,9.13626937 355.7471,15.2297529 L355.731944,15.2730262 C397.943463,24.6870841 452.971125,41.5664426 466.9347,60.6071529 C489.4187,91.2671529 484.8307,126.127153 444.6317,165.644153 C415.2977,194.481153 386.9717,210.585153 372.4107,216.074153 C363.858947,207.086013 354.27259,195.452866 345.166172,184.184251 L345.5431,187.063753 C345.8052,205.151453 195.8084,217.517053 146.0664,197.369053 L149.907924,169.277823 C138.376043,183.58138 125.055547,200.37944 113.5941,212.425753 C99.0331,206.935753 70.7081,190.832753 41.3741,161.994753 C1.1741,122.477753 -11.4139,87.6187529 11.0701,56.9587529 C23.1971,40.4207529 69.0261,26.2177529 108.6751,16.6397529 C108.048715,16.8278037 108.709162,16.7365391 110.005927,16.5033439 C127.558487,12.2104677 191.200137,-1.57717031 275.684414,0.876652922 Z M162.310363,78.5613735 L87.8171,104.583753 C87.8171,104.583753 122.608609,134.324697 151.917069,154.584908 L162.310363,78.5613735 Z M332.466363,87.1363735 L341.108096,153.169863 C367.388419,133.830342 393.927617,109.395078 395.144211,108.27232 L395.1877,108.232153 L332.466363,87.1363735 Z" id="bodyarms-down-path-1"/></defs><g id="Body/Arms Down" stroke="none" stroke-width="1" fill="none" fill-rule="evenodd"><g id="Body" transform="translate(57.000000, 217.000000)"><g id="Shirt" transform="translate(0.000000, 0.767647)"><mask id="bodyarms-down-mask-2" fill="#ffffff"><use xlink:href="#bodyarms-down-path-1" fill="#ffffff"/></mask><use fill="#94C0E9" xlink:href="#bodyarms-down-path-1"/><g mask="url(#bodyarms-down-mask-2)"><g transform="translate(-21.000000, 0.232353) scale(1 1)" id="Patterns"><g id="Patterns/Pattern 3" stroke="none" stroke-width="1" fill="none" fill-rule="evenodd"><path d="M195.45466,206.633988 L197.89474,216.33172 C198.096883,217.135107 197.609479,217.950249 196.806092,218.152392 C196.002706,218.354535 195.187563,217.867131 194.98542,217.063744 L192.54534,207.366012 C192.343197,206.562626 192.830602,205.747483 193.633988,205.54534 C194.437374,205.343197 195.252517,205.830602 195.45466,206.633988 Z M47.7680749,205.845845 L48.7957744,215.792897 C48.8809118,216.616937 48.2819123,217.353972 47.4578716,217.439109 C46.6338309,217.524247 45.8967963,216.925247 45.8116589,216.101206 L44.7839594,206.154155 C44.698822,205.330114 45.2978215,204.59308 46.1218622,204.507942 C46.945903,204.422805 47.6829375,205.021804 47.7680749,205.845845 Z M126.394944,212.020112 C126.660204,212.804923 126.239024,213.656174 125.454213,213.921434 L115.980703,217.123405 C115.195892,217.388665 114.344641,216.967485 114.079381,216.182674 C113.814121,215.397863 114.235301,214.546612 115.020112,214.281352 L124.493622,211.079381 C125.278433,210.814121 126.129684,211.235301 126.394944,212.020112 Z M12.4500167,202.041912 C12.703235,202.83069 12.2690774,203.675396 11.4802986,203.928614 L1.9588961,206.985229 C1.17011729,207.238447 0.325411757,206.80429 0.0721934812,206.015511 C-0.181024795,205.226732 0.253132797,204.382027 1.0419116,204.128808 L10.5633141,201.072193 C11.3520929,200.818975 12.1967984,201.253133 12.4500167,202.041912 Z M241.946268,180.749006 L243.796279,190.57639 C243.949539,191.390517 243.413801,192.174739 242.599673,192.327999 C241.785546,192.481259 241.001324,191.94552 240.848064,191.131393 L238.998053,181.30401 C238.844793,180.489883 239.380532,179.705661 240.194659,179.552401 C241.008786,179.399141 241.793008,179.934879 241.946268,180.749006 Z M73.8114171,177.417295 C74.1332364,178.180658 73.7752941,179.060373 73.0119306,179.382192 L63.797318,183.266895 C63.0339545,183.588714 62.15424,183.230772 61.8324207,182.467408 C61.5106014,181.704044 61.8685437,180.82433 62.6319072,180.502511 L71.8465198,176.617808 C72.6098833,176.295989 73.4895978,176.653931 73.8114171,177.417295 Z M182.869662,179.526508 C183.698089,179.526508 184.369662,180.198081 184.369662,181.026508 C184.369662,181.854935 183.698089,182.526508 182.869662,182.526508 L172.869662,182.526508 C172.041235,182.526508 171.369662,181.854935 171.369662,181.026508 C171.369662,180.198081 172.041235,179.526508 172.869662,179.526508 L182.869662,179.526508 Z M222.516424,167.357557 C223.047348,167.993491 222.962221,168.939416 222.326287,169.470339 L214.649891,175.879157 C214.013958,176.410081 213.068033,176.324954 212.537109,175.68902 C212.006185,175.053087 212.091313,174.107162 212.727246,173.576238 L220.403642,167.167421 C221.039576,166.636497 221.9855,166.721624 222.516424,167.357557 Z M139.45466,161.633988 L141.89474,171.33172 C142.096883,172.135107 141.609479,172.950249 140.806092,173.152392 C140.002706,173.354535 139.187563,172.867131 138.98542,172.063744 L136.54534,162.366012 C136.343197,161.562626 136.830602,160.747483 137.633988,160.54534 C138.437374,160.343197 139.252517,160.830602 139.45466,161.633988 Z M276.44646,166.884884 C276.519546,167.710081 275.909839,168.438282 275.084642,168.511368 L265.123633,169.393588 C264.298437,169.466673 263.570235,168.856966 263.497149,168.031769 C263.424064,167.206572 264.033771,166.478371 264.858968,166.405285 L274.819976,165.523065 C275.645173,165.44998 276.373375,166.059687 276.44646,166.884884 Z M103.946268,151.749006 L105.796279,161.57639 C105.949539,162.390517 105.413801,163.174739 104.599673,163.327999 C103.785546,163.481259 103.001324,162.94552 102.848064,162.131393 L100.998053,152.30401 C100.844793,151.489883 101.380532,150.705661 102.194659,150.552401 C103.008786,150.399141 103.793008,150.934879 103.946268,151.749006 Z M44.8696624,150.526508 C45.6980895,150.526508 46.3696624,151.198081 46.3696624,152.026508 C46.3696624,152.854935 45.6980895,153.526508 44.8696624,153.526508 L34.8696624,153.526508 C34.0412352,153.526508 33.3696624,152.854935 33.3696624,152.026508 C33.3696624,151.198081 34.0412352,150.526508 34.8696624,150.526508 L44.8696624,150.526508 Z M84.5164242,138.357557 C85.047348,138.993491 84.9622209,139.939416 84.3262874,140.470339 L76.6498913,146.879157 C76.0139578,147.410081 75.0680331,147.324954 74.5371093,146.68902 C74.0061854,146.053087 74.0913126,145.107162 74.727246,144.576238 L82.4036421,138.167421 C83.0395756,137.636497 83.9855003,137.721624 84.5164242,138.357557 Z M6.45465982,130.633988 L8.89474012,140.33172 C9.09688299,141.135107 8.60947878,141.950249 7.80609235,142.152392 C7.00270591,142.354535 6.18756335,141.867131 5.98542048,141.063744 L3.54534018,131.366012 C3.34319731,130.562626 3.83060152,129.747483 4.63398795,129.54534 C5.43737439,129.343197 6.25251695,129.830602 6.45465982,130.633988 Z M170.66012,130.500544 L173.319399,140.140474 C173.539701,140.939072 173.0709,141.765053 172.272302,141.985355 C171.473704,142.205657 170.647722,141.736855 170.427421,140.938257 L167.768141,131.298328 C167.54784,130.49973 168.016641,129.673749 168.815239,129.453447 C169.613837,129.233145 170.439818,129.701947 170.66012,130.500544 Z M138.44646,137.884884 C138.519546,138.710081 137.909839,139.438282 137.084642,139.511368 L127.123633,140.393588 C126.298437,140.466673 125.570235,139.856966 125.497149,139.031769 C125.424064,138.206572 126.033771,137.478371 126.858968,137.405285 L136.819976,136.523065 C137.645173,136.44998 138.373375,137.059687 138.44646,137.884884 Z M241.356156,115.78782 L249.860434,121.048737 C250.564952,121.484565 250.782767,122.408998 250.346938,123.113516 C249.91111,123.818033 248.986676,124.035849 248.282159,123.60002 L239.77788,118.339103 C239.073363,117.903274 238.855548,116.978841 239.291376,116.274324 C239.727205,115.569806 240.651638,115.351991 241.356156,115.78782 Z M204.768075,109.879074 L205.795774,119.826126 C205.880912,120.650167 205.281912,121.387201 204.457872,121.472338 C203.633831,121.557476 202.896796,120.958476 202.811659,120.134436 L201.783959,110.187384 C201.698822,109.363343 202.297822,108.626309 203.121862,108.541171 C203.945903,108.456034 204.682937,109.055034 204.768075,109.879074 Z M32.6601202,101.500544 L35.3193993,111.140474 C35.5397012,111.939072 35.0708997,112.765053 34.2723018,112.985355 C33.4737039,113.205657 32.6477224,112.736855 32.4274205,111.938257 L29.7681415,102.298328 C29.5478396,101.49973 30.0166411,100.673749 30.815239,100.453447 C31.6138369,100.233145 32.4398183,100.701947 32.6601202,101.500544 Z M167.949613,100.578387 C168.202831,101.367166 167.768674,102.211872 166.979895,102.46509 L157.458492,105.521705 C156.669713,105.774923 155.825008,105.340765 155.57179,104.551987 C155.318571,103.763208 155.752729,102.918502 156.541508,102.665284 L166.06291,99.6086691 C166.851689,99.3554508 167.696395,99.7896084 167.949613,100.578387 Z M280.394944,100.020112 C280.660204,100.804923 280.239024,101.656174 279.454213,101.921434 L269.980703,105.123405 C269.195892,105.388665 268.344641,104.967485 268.079381,104.182674 C267.814121,103.397863 268.235301,102.546612 269.020112,102.281352 L278.493622,99.0793813 C279.278433,98.8141214 280.129684,99.2353009 280.394944,100.020112 Z M103.356156,86.7878196 L111.860434,92.0487366 C112.564952,92.4845653 112.782767,93.4089984 112.346938,94.1135159 C111.91111,94.8180334 110.986676,95.0358488 110.282159,94.6000201 L101.77788,89.3391031 C101.073363,88.9032745 100.855548,87.9788413 101.291376,87.2743238 C101.727205,86.5698063 102.651638,86.3519909 103.356156,86.7878196 Z M66.7680749,80.8790743 L67.7957744,90.8261258 C67.8809118,91.6501665 67.2819123,92.387201 66.4578716,92.4723384 C65.6338309,92.5574759 64.8967963,91.9584764 64.8116589,91.1344356 L63.7839594,81.1873841 C63.698822,80.3633434 64.2978215,79.6263089 65.1218622,79.5411715 C65.945903,79.4560341 66.6829375,80.0550335 66.7680749,80.8790743 Z M145.893961,80.5529336 C146.159221,81.3377448 145.738041,82.1889957 144.95323,82.4542556 L135.479721,85.6562265 C134.694909,85.9214864 133.843659,85.5003069 133.578399,84.7154957 C133.313139,83.9306844 133.734318,83.0794336 134.519129,82.8141736 L143.992639,79.6122028 C144.77745,79.3469428 145.628701,79.7681223 145.893961,80.5529336 Z M230.811417,73.4172946 C231.133236,74.1806581 230.775294,75.0603726 230.011931,75.3821919 L220.797318,79.2668945 C220.033955,79.5887138 219.15424,79.2307715 218.832421,78.467408 C218.510601,77.7040445 218.868544,76.82433 219.631907,76.5025107 L228.84652,72.6178081 C229.609883,72.2959888 230.489598,72.6539311 230.811417,73.4172946 Z M29.9496128,71.5783872 C30.2028311,72.367166 29.7686735,73.2118715 28.9798947,73.4650898 L19.4584922,76.5217048 C18.6697134,76.7749231 17.8250079,76.3407655 17.5717896,75.5519867 C17.3185714,74.7632079 17.7527289,73.9185023 18.5415078,73.6652841 L28.0629102,70.6086691 C28.851689,70.3554508 29.6963946,70.7896084 29.9496128,71.5783872 Z M179.492058,54.8458451 L180.519757,64.7928966 C180.604895,65.6169373 180.005895,66.3539718 179.181854,66.4391092 C178.357814,66.5242467 177.620779,65.9252472 177.535642,65.1012064 L176.507942,55.1541549 C176.422805,54.3301142 177.021804,53.5930797 177.845845,53.5079423 C178.669886,53.4228049 179.40692,54.0218043 179.492058,54.8458451 Z M260.946268,47.7490065 L262.796279,57.5763896 C262.949539,58.3905167 262.413801,59.1747388 261.599673,59.3279987 C260.785546,59.4812586 260.001324,58.94552 259.848064,58.1313929 L257.998053,48.3040098 C257.844793,47.4898827 258.380532,46.7056606 259.194659,46.5524006 C260.008786,46.3991407 260.793008,46.9348794 260.946268,47.7490065 Z M92.8114171,44.4172946 C93.1332364,45.1806581 92.7752941,46.0603726 92.0119306,46.3821919 L82.797318,50.2668945 C82.0339545,50.5887138 81.15424,50.2307715 80.8324207,49.467408 C80.5106014,48.7040445 80.8685437,47.82433 81.6319072,47.5025107 L90.8465198,43.6178081 C91.6098833,43.2959888 92.4895978,43.6539311 92.8114171,44.4172946 Z M165.020677,22.4008098 L172.348612,29.2053208 C172.955678,29.7690249 172.990829,30.7181216 172.427125,31.3251876 C171.863421,31.9322536 170.914324,31.9674054 170.307258,31.4037012 L162.979323,24.5991902 C162.372257,24.0354861 162.337106,23.0863894 162.90081,22.4793234 C163.464514,21.8722573 164.413611,21.8371056 165.020677,22.4008098 Z M120.474107,13.7224984 L122.324118,23.5498815 C122.477378,24.3640086 121.94164,25.1482307 121.127513,25.3014906 C120.313386,25.4547505 119.529163,24.9190119 119.375904,24.1048848 L117.525893,14.2775016 C117.372633,13.4633746 117.908371,12.6791525 118.722498,12.5258925 C119.536625,12.3726326 120.320848,12.9083713 120.474107,13.7224984 Z M63.8696624,17.5265081 C64.6980895,17.5265081 65.3696624,18.198081 65.3696624,19.0265081 C65.3696624,19.8549352 64.6980895,20.5265081 63.8696624,20.5265081 L53.8696624,20.5265081 C53.0412352,20.5265081 52.3696624,19.8549352 52.3696624,19.0265081 C52.3696624,18.198081 53.0412352,17.5265081 53.8696624,17.5265081 L63.8696624,17.5265081 Z M19.9550164,1.13434449 L22.3950967,10.8320766 C22.5972395,11.635463 22.1098353,12.4506056 21.3064489,12.6527485 C20.5030625,12.8548913 19.6879199,12.3674871 19.485777,11.5641007 L17.0456967,1.86636858 C16.8435539,1.06298215 17.3309581,0.247839592 18.1343445,0.0456967215 C18.9377309,-0.156446149 19.7528735,0.33095806 19.9550164,1.13434449 Z M235.596805,5.41729461 C235.918624,6.18065811 235.560682,7.06037259 234.797318,7.38219189 L225.582705,11.2668945 C224.819342,11.5887138 223.939627,11.2307715 223.617808,10.467408 C223.295989,9.7040445 223.653931,8.82433002 224.417295,8.50251072 L233.631907,4.61780811 C234.395271,4.29598881 235.274985,4.65393111 235.596805,5.41729461 Z" id="Pattern" fill="#010101"/></g></g></g><g mask="url(#bodyarms-down-mask-2)"><g transform="translate(259.000000, 0.232353) scale(1 1)" id="Patterns"><g id="Patterns/Pattern 3" stroke="none" stroke-width="1" fill="none" fill-rule="evenodd"><path d="M195.45466,206.633988 L197.89474,216.33172 C198.096883,217.135107 197.609479,217.950249 196.806092,218.152392 C196.002706,218.354535 195.187563,217.867131 194.98542,217.063744 L192.54534,207.366012 C192.343197,206.562626 192.830602,205.747483 193.633988,205.54534 C194.437374,205.343197 195.252517,205.830602 195.45466,206.633988 Z M47.7680749,205.845845 L48.7957744,215.792897 C48.8809118,216.616937 48.2819123,217.353972 47.4578716,217.439109 C46.6338309,217.524247 45.8967963,216.925247 45.8116589,216.101206 L44.7839594,206.154155 C44.698822,205.330114 45.2978215,204.59308 46.1218622,204.507942 C46.945903,204.422805 47.6829375,205.021804 47.7680749,205.845845 Z M126.394944,212.020112 C126.660204,212.804923 126.239024,213.656174 125.454213,213.921434 L115.980703,217.123405 C115.195892,217.388665 114.344641,216.967485 114.079381,216.182674 C113.814121,215.397863 114.235301,214.546612 115.020112,214.281352 L124.493622,211.079381 C125.278433,210.814121 126.129684,211.235301 126.394944,212.020112 Z M12.4500167,202.041912 C12.703235,202.83069 12.2690774,203.675396 11.4802986,203.928614 L1.9588961,206.985229 C1.17011729,207.238447 0.325411757,206.80429 0.0721934812,206.015511 C-0.181024795,205.226732 0.253132797,204.382027 1.0419116,204.128808 L10.5633141,201.072193 C11.3520929,200.818975 12.1967984,201.253133 12.4500167,202.041912 Z M241.946268,180.749006 L243.796279,190.57639 C243.949539,191.390517 243.413801,192.174739 242.599673,192.327999 C241.785546,192.481259 241.001324,191.94552 240.848064,191.131393 L238.998053,181.30401 C238.844793,180.489883 239.380532,179.705661 240.194659,179.552401 C241.008786,179.399141 241.793008,179.934879 241.946268,180.749006 Z M73.8114171,177.417295 C74.1332364,178.180658 73.7752941,179.060373 73.0119306,179.382192 L63.797318,183.266895 C63.0339545,183.588714 62.15424,183.230772 61.8324207,182.467408 C61.5106014,181.704044 61.8685437,180.82433 62.6319072,180.502511 L71.8465198,176.617808 C72.6098833,176.295989 73.4895978,176.653931 73.8114171,177.417295 Z M182.869662,179.526508 C183.698089,179.526508 184.369662,180.198081 184.369662,181.026508 C184.369662,181.854935 183.698089,182.526508 182.869662,182.526508 L172.869662,182.526508 C172.041235,182.526508 171.369662,181.854935 171.369662,181.026508 C171.369662,180.198081 172.041235,179.526508 172.869662,179.526508 L182.869662,179.526508 Z M222.516424,167.357557 C223.047348,167.993491 222.962221,168.939416 222.326287,169.470339 L214.649891,175.879157 C214.013958,176.410081 213.068033,176.324954 212.537109,175.68902 C212.006185,175.053087 212.091313,174.107162 212.727246,173.576238 L220.403642,167.167421 C221.039576,166.636497 221.9855,166.721624 222.516424,167.357557 Z M139.45466,161.633988 L141.89474,171.33172 C142.096883,172.135107 141.609479,172.950249 140.806092,173.152392 C140.002706,173.354535 139.187563,172.867131 138.98542,172.063744 L136.54534,162.366012 C136.343197,161.562626 136.830602,160.747483 137.633988,160.54534 C138.437374,160.343197 139.252517,160.830602 139.45466,161.633988 Z M276.44646,166.884884 C276.519546,167.710081 275.909839,168.438282 275.084642,168.511368 L265.123633,169.393588 C264.298437,169.466673 263.570235,168.856966 263.497149,168.031769 C263.424064,167.206572 264.033771,166.478371 264.858968,166.405285 L274.819976,165.523065 C275.645173,165.44998 276.373375,166.059687 276.44646,166.884884 Z M103.946268,151.749006 L105.796279,161.57639 C105.949539,162.390517 105.413801,163.174739 104.599673,163.327999 C103.785546,163.481259 103.001324,162.94552 102.848064,162.131393 L100.998053,152.30401 C100.844793,151.489883 101.380532,150.705661 102.194659,150.552401 C103.008786,150.399141 103.793008,150.934879 103.946268,151.749006 Z M44.8696624,150.526508 C45.6980895,150.526508 46.3696624,151.198081 46.3696624,152.026508 C46.3696624,152.854935 45.6980895,153.526508 44.8696624,153.526508 L34.8696624,153.526508 C34.0412352,153.526508 33.3696624,152.854935 33.3696624,152.026508 C33.3696624,151.198081 34.0412352,150.526508 34.8696624,150.526508 L44.8696624,150.526508 Z M84.5164242,138.357557 C85.047348,138.993491 84.9622209,139.939416 84.3262874,140.470339 L76.6498913,146.879157 C76.0139578,147.410081 75.0680331,147.324954 74.5371093,146.68902 C74.0061854,146.053087 74.0913126,145.107162 74.727246,144.576238 L82.4036421,138.167421 C83.0395756,137.636497 83.9855003,137.721624 84.5164242,138.357557 Z M6.45465982,130.633988 L8.89474012,140.33172 C9.09688299,141.135107 8.60947878,141.950249 7.80609235,142.152392 C7.00270591,142.354535 6.18756335,141.867131 5.98542048,141.063744 L3.54534018,131.366012 C3.34319731,130.562626 3.83060152,129.747483 4.63398795,129.54534 C5.43737439,129.343197 6.25251695,129.830602 6.45465982,130.633988 Z M170.66012,130.500544 L173.319399,140.140474 C173.539701,140.939072 173.0709,141.765053 172.272302,141.985355 C171.473704,142.205657 170.647722,141.736855 170.427421,140.938257 L167.768141,131.298328 C167.54784,130.49973 168.016641,129.673749 168.815239,129.453447 C169.613837,129.233145 170.439818,129.701947 170.66012,130.500544 Z M138.44646,137.884884 C138.519546,138.710081 137.909839,139.438282 137.084642,139.511368 L127.123633,140.393588 C126.298437,140.466673 125.570235,139.856966 125.497149,139.031769 C125.424064,138.206572 126.033771,137.478371 126.858968,137.405285 L136.819976,136.523065 C137.645173,136.44998 138.373375,137.059687 138.44646,137.884884 Z M241.356156,115.78782 L249.860434,121.048737 C250.564952,121.484565 250.782767,122.408998 250.346938,123.113516 C249.91111,123.818033 248.986676,124.035849 248.282159,123.60002 L239.77788,118.339103 C239.073363,117.903274 238.855548,116.978841 239.291376,116.274324 C239.727205,115.569806 240.651638,115.351991 241.356156,115.78782 Z M204.768075,109.879074 L205.795774,119.826126 C205.880912,120.650167 205.281912,121.387201 204.457872,121.472338 C203.633831,121.557476 202.896796,120.958476 202.811659,120.134436 L201.783959,110.187384 C201.698822,109.363343 202.297822,108.626309 203.121862,108.541171 C203.945903,108.456034 204.682937,109.055034 204.768075,109.879074 Z M32.6601202,101.500544 L35.3193993,111.140474 C35.5397012,111.939072 35.0708997,112.765053 34.2723018,112.985355 C33.4737039,113.205657 32.6477224,112.736855 32.4274205,111.938257 L29.7681415,102.298328 C29.5478396,101.49973 30.0166411,100.673749 30.815239,100.453447 C31.6138369,100.233145 32.4398183,100.701947 32.6601202,101.500544 Z M167.949613,100.578387 C168.202831,101.367166 167.768674,102.211872 166.979895,102.46509 L157.458492,105.521705 C156.669713,105.774923 155.825008,105.340765 155.57179,104.551987 C155.318571,103.763208 155.752729,102.918502 156.541508,102.665284 L166.06291,99.6086691 C166.851689,99.3554508 167.696395,99.7896084 167.949613,100.578387 Z M280.394944,100.020112 C280.660204,100.804923 280.239024,101.656174 279.454213,101.921434 L269.980703,105.123405 C269.195892,105.388665 268.344641,104.967485 268.079381,104.182674 C267.814121,103.397863 268.235301,102.546612 269.020112,102.281352 L278.493622,99.0793813 C279.278433,98.8141214 280.129684,99.2353009 280.394944,100.020112 Z M103.356156,86.7878196 L111.860434,92.0487366 C112.564952,92.4845653 112.782767,93.4089984 112.346938,94.1135159 C111.91111,94.8180334 110.986676,95.0358488 110.282159,94.6000201 L101.77788,89.3391031 C101.073363,88.9032745 100.855548,87.9788413 101.291376,87.2743238 C101.727205,86.5698063 102.651638,86.3519909 103.356156,86.7878196 Z M66.7680749,80.8790743 L67.7957744,90.8261258 C67.8809118,91.6501665 67.2819123,92.387201 66.4578716,92.4723384 C65.6338309,92.5574759 64.8967963,91.9584764 64.8116589,91.1344356 L63.7839594,81.1873841 C63.698822,80.3633434 64.2978215,79.6263089 65.1218622,79.5411715 C65.945903,79.4560341 66.6829375,80.0550335 66.7680749,80.8790743 Z M145.893961,80.5529336 C146.159221,81.3377448 145.738041,82.1889957 144.95323,82.4542556 L135.479721,85.6562265 C134.694909,85.9214864 133.843659,85.5003069 133.578399,84.7154957 C133.313139,83.9306844 133.734318,83.0794336 134.519129,82.8141736 L143.992639,79.6122028 C144.77745,79.3469428 145.628701,79.7681223 145.893961,80.5529336 Z M230.811417,73.4172946 C231.133236,74.1806581 230.775294,75.0603726 230.011931,75.3821919 L220.797318,79.2668945 C220.033955,79.5887138 219.15424,79.2307715 218.832421,78.467408 C218.510601,77.7040445 218.868544,76.82433 219.631907,76.5025107 L228.84652,72.6178081 C229.609883,72.2959888 230.489598,72.6539311 230.811417,73.4172946 Z M29.9496128,71.5783872 C30.2028311,72.367166 29.7686735,73.2118715 28.9798947,73.4650898 L19.4584922,76.5217048 C18.6697134,76.7749231 17.8250079,76.3407655 17.5717896,75.5519867 C17.3185714,74.7632079 17.7527289,73.9185023 18.5415078,73.6652841 L28.0629102,70.6086691 C28.851689,70.3554508 29.6963946,70.7896084 29.9496128,71.5783872 Z M179.492058,54.8458451 L180.519757,64.7928966 C180.604895,65.6169373 180.005895,66.3539718 179.181854,66.4391092 C178.357814,66.5242467 177.620779,65.9252472 177.535642,65.1012064 L176.507942,55.1541549 C176.422805,54.3301142 177.021804,53.5930797 177.845845,53.5079423 C178.669886,53.4228049 179.40692,54.0218043 179.492058,54.8458451 Z M260.946268,47.7490065 L262.796279,57.5763896 C262.949539,58.3905167 262.413801,59.1747388 261.599673,59.3279987 C260.785546,59.4812586 260.001324,58.94552 259.848064,58.1313929 L257.998053,48.3040098 C257.844793,47.4898827 258.380532,46.7056606 259.194659,46.5524006 C260.008786,46.3991407 260.793008,46.9348794 260.946268,47.7490065 Z M92.8114171,44.4172946 C93.1332364,45.1806581 92.7752941,46.0603726 92.0119306,46.3821919 L82.797318,50.2668945 C82.0339545,50.5887138 81.15424,50.2307715 80.8324207,49.467408 C80.5106014,48.7040445 80.8685437,47.82433 81.6319072,47.5025107 L90.8465198,43.6178081 C91.6098833,43.2959888 92.4895978,43.6539311 92.8114171,44.4172946 Z M165.020677,22.4008098 L172.348612,29.2053208 C172.955678,29.7690249 172.990829,30.7181216 172.427125,31.3251876 C171.863421,31.9322536 170.914324,31.9674054 170.307258,31.4037012 L162.979323,24.5991902 C162.372257,24.0354861 162.337106,23.0863894 162.90081,22.4793234 C163.464514,21.8722573 164.413611,21.8371056 165.020677,22.4008098 Z M120.474107,13.7224984 L122.324118,23.5498815 C122.477378,24.3640086 121.94164,25.1482307 121.127513,25.3014906 C120.313386,25.4547505 119.529163,24.9190119 119.375904,24.1048848 L117.525893,14.2775016 C117.372633,13.4633746 117.908371,12.6791525 118.722498,12.5258925 C119.536625,12.3726326 120.320848,12.9083713 120.474107,13.7224984 Z M63.8696624,17.5265081 C64.6980895,17.5265081 65.3696624,18.198081 65.3696624,19.0265081 C65.3696624,19.8549352 64.6980895,20.5265081 63.8696624,20.5265081 L53.8696624,20.5265081 C53.0412352,20.5265081 52.3696624,19.8549352 52.3696624,19.0265081 C52.3696624,18.198081 53.0412352,17.5265081 53.8696624,17.5265081 L63.8696624,17.5265081 Z M19.9550164,1.13434449 L22.3950967,10.8320766 C22.5972395,11.635463 22.1098353,12.4506056 21.3064489,12.6527485 C20.5030625,12.8548913 19.6879199,12.3674871 19.485777,11.5641007 L17.0456967,1.86636858 C16.8435539,1.06298215 17.3309581,0.247839592 18.1343445,0.0456967215 C18.9377309,-0.156446149 19.7528735,0.33095806 19.9550164,1.13434449 Z M235.596805,5.41729461 C235.918624,6.18065811 235.560682,7.06037259 234.797318,7.38219189 L225.582705,11.2668945 C224.819342,11.5887138 223.939627,11.2307715 223.617808,10.467408 C223.295989,9.7040445 223.653931,8.82433002 224.417295,8.50251072 L233.631907,4.61780811 C234.395271,4.29598881 235.274985,4.65393111 235.596805,5.41729461 Z" id="Pattern" fill="#010101"/></g></g></g><path d="M215.9787,0.876652922 L246.316448,40.4314091 C246.503705,40.2981954 246.738955,40.2229093 246.991324,40.2323529 C247.191432,40.2404317 247.376173,40.3007655 247.531371,40.3988427 L275.684414,0.876652922 C275.684414,0.876652922 296.8047,7.09045292 297.5187,16.1924529 C298.839728,33.0408226 255.348015,40.0307247 247.986151,41.0920143 C247.998368,41.1480991 248.001442,41.2070922 247.998828,41.2671096 C247.993206,41.3962213 247.982279,41.6501087 247.966421,42.023197 C247.939982,42.6452094 247.909311,43.3763457 247.874759,44.2114904 C247.776032,46.5978498 247.666017,49.338862 247.547537,52.3936013 C247.209012,61.1217141 246.870482,70.613695 246.554523,80.5421086 C246.071757,95.7121256 245.686296,110.510633 245.433997,124.417277 C244.613138,169.662676 245.299388,199.518654 247.92762,205.876557 C248.138968,206.387825 247.871744,206.96421 247.330758,207.163949 C246.789772,207.363687 246.179884,207.111142 245.968536,206.599874 C243.181816,199.858576 242.499935,170.192639 243.331026,124.383201 C243.583495,110.467239 243.969172,95.660385 244.452194,80.4823532 C244.7683,70.5493404 245.106983,61.0530546 245.445669,52.3207894 C245.564213,49.2643964 245.674293,46.5217718 245.773086,44.1338311 C245.807666,43.2979707 245.838367,42.5661266 245.864836,41.9434133 C245.880722,41.5696662 245.891664,41.3154331 245.897328,41.1853695 C245.899839,41.1277135 245.907499,41.0714073 245.919872,41.0168297 C238.605076,39.3934942 194.063725,28.9545266 194.6677,15.4706529 C195.2087,3.38065292 215.9787,0.876652922 215.9787,0.876652922 Z M269.300244,190.391351 C269.794244,193.146351 267.905244,195.789351 265.082244,196.295351 C262.259244,196.800351 259.571244,194.976351 259.078244,192.221351 C258.585244,189.465351 260.473244,186.822351 263.296244,186.316351 C266.118244,185.811351 268.807244,187.635351 269.300244,190.391351 Z M266.3005,148.390651 C266.7935,151.145651 264.9055,153.788651 262.0825,154.294651 C259.2595,154.799651 256.5715,152.976651 256.0785,150.220651 C255.5845,147.464651 257.4735,144.821651 260.2965,144.316651 C263.1185,143.810651 265.8065,145.634651 266.3005,148.390651 Z M264.3005,106.390352 C264.7935,109.146352 262.9055,111.789352 260.0825,112.295352 C257.2595,112.800352 254.5715,110.976352 254.0785,108.221352 C253.5845,105.465352 255.4735,102.822352 258.2965,102.316352 C261.1185,101.811352 263.8065,103.635352 264.3005,106.390352 Z M414.1571,97.7411529 C414.709385,97.7411529 415.1571,98.1888682 415.1571,98.7411529 C415.1571,99.2934377 414.709385,99.7411529 414.1571,99.7411529 C412.509083,99.7411529 409.761725,100.7582 406.311233,102.562899 C405.282835,103.100779 404.208184,103.699826 403.099532,104.349446 C401.344956,105.377548 399.591665,106.480378 397.924178,107.583256 C397.340604,107.969232 396.809683,108.327481 396.341885,108.648701 C396.062285,108.840691 395.866624,108.977129 395.765344,109.048724 C395.314364,109.367528 394.690332,109.260377 394.371528,108.809397 C394.052725,108.358417 394.159876,107.734385 394.610856,107.415581 C394.719358,107.33888 394.922449,107.197261 395.209765,106.999972 C395.686824,106.672393 396.227305,106.307694 396.820866,105.915113 C398.516621,104.793537 400.299791,103.671914 402.088418,102.62386 C403.223452,101.958781 404.325812,101.344288 405.384308,100.790666 C409.111281,98.8413605 412.08328,97.7411529 414.1571,97.7411529 Z M73.4831,92.1977529 C75.236902,92.1977529 77.4538123,93.428327 80.1529472,95.620194 C81.0780941,96.3714714 82.0434512,97.2255012 83.0374155,98.163449 C84.3749115,99.4255681 85.6977429,100.775333 86.9486818,102.124887 C87.3864428,102.597158 87.7841773,103.035917 88.1346059,103.430106 C88.3458688,103.667751 88.4951323,103.83857 88.5750864,103.931483 C88.9353254,104.350107 88.8879947,104.9815 88.4693704,105.341739 C88.0507461,105.701978 87.4193526,105.654648 87.0591136,105.236023 C86.9859739,105.15103 86.843757,104.988275 86.6398597,104.758915 C86.2983547,104.374764 85.9098901,103.946231 85.4818932,103.484494 C84.2592384,102.165454 82.966726,100.846625 81.6647845,99.6180569 C80.7048118,98.7121851 79.775902,97.8903993 78.8921709,97.1727542 C76.5386561,95.2615524 74.6221944,94.1977529 73.4831,94.1977529 C72.9308153,94.1977529 72.4831,93.7500377 72.4831,93.1977529 C72.4831,92.6454682 72.9308153,92.1977529 73.4831,92.1977529 Z M259.3682,56.5078529 C262.2352,56.5078529 264.5602,58.7768529 264.5602,61.5768529 C264.5602,64.3758529 262.2352,66.6448529 259.3682,66.6448529 C256.5002,66.6448529 254.1752,64.3758529 254.1752,61.5768529 C254.1752,58.7768529 256.5002,56.5078529 259.3682,56.5078529 Z" id="Shirt-Details" fill="#3973B0"/></g><path d="M327.9926,163.7697 C340.8626,179.5347 353.6556,195.498856 367.00993,210.882404 C364.422002,211.777547 362.654645,211.836567 360.184742,212.612264 L359.6016,212.8047 L388.4716,242.5057 C389.4276,243.4887 390.4226,244.5417 390.7326,245.8777 C391.2926,248.2837 389.2996,250.6977 386.9496,251.4627 C384.6006,252.2287 382.0446,251.7627 379.6366,251.2057 C384.3716,255.0247 388.6256,259.4347 392.2806,264.2967 C393.8586,266.3947 395.9956,268.3007 393.9326,270.7087 C392.7276,272.1157 390.1146,272.2727 388.4376,272.0197 C384.0656,271.3597 379.9176,269.2797 376.7746,266.1697 C379.0156,268.6177 380.6206,271.6457 381.3876,274.8747 C381.6866,276.1317 381.8186,277.5867 381.0086,278.5937 C380.0466,279.7887 378.2386,279.7847 376.7286,279.5097 C373.6256,278.9437 370.6526,277.6717 368.1006,275.8177 C370.4886,278.6997 367.7836,283.4777 364.1356,284.3157 C360.4876,285.1537 356.7776,283.3377 353.6556,281.2727 C341.7786,273.4117 333.3266,261.4637 325.1576,249.7957 C328.2366,254.9147 330.5446,260.4967 331.9776,266.2957 C332.6446,268.9947 334.1966,272.2487 332.2276,274.2107 C330.5926,275.8387 326.6376,275.8807 324.5616,274.8757 C322.4846,273.8707 320.9546,272.0177 319.6446,270.1187 C315.0716,263.4937 312.4026,255.7617 310.1136,248.0437 C305.6936,233.1417 302.4696,217.5157 304.4756,202.1017 C306.4816,186.6867 314.4506,171.4027 327.9926,163.7697 Z M158.32,159.7107 C166.15,165.0557 171.814,171.4417 175.882,177.9567 C184.830684,192.289595 187.40742,209.694036 183.644882,226.153822 L183.491,226.8117 L177.329,259.6697 C176.402,264.6147 173.098,268.8737 168.417,270.7147 C166.588,271.4347 164.862,271.6907 163.799,270.8407 C160.611,268.2897 163.364,242.4197 163.364,242.4197 C163.364,242.4197 150.015,268.4637 139.177,276.7507 C128.34,285.0387 124.942,281.7057 124.479,280.3567 C123.134,276.4417 136.339,257.4677 139.447,251.9587 C139.447,251.9587 131.078,258.4247 128.52,261.8507 C125.603,265.7577 125.318,269.9757 117.987,278.2637 C114.321,282.4077 111.32,281.5507 109.235,279.6567 C106.995645,277.622506 106.213522,274.438261 106.968387,271.516907 L107.049,271.2257 L109.812,261.8647 C97.38,275.8907 89.891,267.9407 89.73,266.0087 C89.374,261.7457 101.524,245.2887 101.524,245.2887 C97.061,245.6077 90.686,241.1457 92.598,237.3197 C93.311,235.8947 126.435,209.1537 126.435,209.1537 C126.435,209.1537 124.115064,209.5696 118.722064,207.5366 C132.787378,191.582688 145.29,175.4737 158.32,159.7107 Z M215.9787,1.6443 C233.6117,-0.3147 275.684414,1.6443 275.684414,1.6443 L275.684414,1.6443 L246.9347,42.0043 Z" id="Skin" fill="#c68e80"/><path d="M346.739156,247.768211 C347.581548,249.969616 348.967412,252.441353 350.829295,255.129243 C352.612513,257.703569 354.79634,260.425535 357.291897,263.236311 C359.841853,266.108358 362.5765,268.918097 365.311286,271.547755 C366.268444,272.468118 367.156946,273.299944 367.953792,274.028649 C368.232193,274.283243 368.479084,274.506617 368.691592,274.696952 C368.818295,274.810434 368.904882,274.88725 368.948482,274.925582 C369.363257,275.290245 369.403882,275.922106 369.039218,276.336882 C368.674555,276.751657 368.042694,276.792282 367.627918,276.427618 C367.579767,276.385284 367.488587,276.304394 367.357241,276.186753 C367.139667,275.991881 366.887664,275.763882 366.604092,275.504559 C365.7953,274.76493 364.894662,273.921742 363.925054,272.989407 C361.154795,270.32564 358.384396,267.479166 355.79631,264.564173 C353.25111,261.697484 351.018535,258.914758 349.185207,256.268092 C347.239101,253.458614 345.778115,250.852892 344.871244,248.482989 C344.673864,247.967179 344.932002,247.389025 345.447811,247.191644 C345.963621,246.994264 346.541775,247.252402 346.739156,247.768211 Z M358.246686,244.423132 C359.414441,246.358256 361.153868,248.648698 363.36657,251.213942 C364.434322,252.451815 365.600598,253.740005 366.849848,255.066911 C369.134629,257.493718 371.584818,259.933827 374.035227,262.265886 C374.892979,263.082209 375.689296,263.826533 376.403604,264.483797 C376.653295,264.713548 376.874791,264.915909 377.065521,265.089 C377.179436,265.192381 377.257456,265.26274 377.297012,265.298201 C377.708243,265.666857 377.742756,266.299081 377.374099,266.710312 C377.005443,267.121543 376.373219,267.156056 375.961988,266.787399 C375.919452,266.749267 375.838419,266.67619 375.721452,266.57004 C375.527377,266.393914 375.302499,266.188462 375.049378,265.955555 C374.32708,265.290939 373.522608,264.538993 372.656433,263.714653 C370.181338,261.3591 367.706022,258.893969 365.393666,256.437872 C364.125443,255.090813 362.939906,253.781349 361.852125,252.520256 C359.572129,249.876995 357.769493,247.503322 356.534314,245.456468 C356.248966,244.983609 356.400974,244.368961 356.873832,244.083614 C357.346691,243.798266 357.961339,243.950274 358.246686,244.423132 Z M132.600983,236.313992 C132.922031,236.763376 132.817993,237.387936 132.368608,237.708983 C131.298637,238.473388 130.269785,239.096662 128.610164,240.023867 C122.993415,243.161861 121.021782,244.539482 117.626459,248.334186 C117.008827,249.024311 115.984817,250.830163 114.724317,253.404314 C114.478284,253.906754 114.224967,254.434741 113.965456,254.985327 C113.216811,256.573678 112.450157,258.277469 111.707654,259.981528 C111.447692,260.578146 111.209367,261.13207 110.997904,261.628984 C110.871253,261.926601 110.781868,262.138673 110.734965,262.250902 C110.522003,262.760476 109.936272,263.000927 109.426698,262.787965 C108.917124,262.575003 108.676673,261.989272 108.889635,261.479698 C108.938153,261.363605 109.029207,261.147571 109.157609,260.845842 C109.371235,260.343845 109.611808,259.784695 109.874147,259.182621 C110.623936,257.46184 111.398356,255.740792 112.15634,254.132627 C112.419938,253.573367 112.677529,253.036475 112.928107,252.524753 C114.275062,249.774045 115.349314,247.879591 116.136065,247.000499 C119.716721,242.99866 121.838488,241.516138 127.634706,238.277877 C129.234818,237.383918 130.210104,236.793094 131.205992,236.081617 C131.655376,235.760569 132.279936,235.864607 132.600983,236.313992 Z M146.672993,242.488787 C147.112066,242.823799 147.196425,243.451319 146.861413,243.890393 L140.242413,252.565393 C139.907401,253.004466 139.279881,253.088825 138.840807,252.753813 C138.401734,252.418801 138.317375,251.791281 138.652387,251.352207 L145.271387,242.677207 C145.606399,242.238134 146.233919,242.153775 146.672993,242.488787 Z M365.516932,235.28912 C365.55173,235.327512 365.621101,235.403793 365.721987,235.514334 C365.848427,235.652875 365.990527,235.808119 366.147437,235.97902 L366.309252,236.155101 C366.944711,236.845967 367.659331,237.615994 368.436982,238.44534 C370.658506,240.814542 372.93911,243.183554 375.149196,245.39319 C375.748679,245.992551 376.33594,246.573023 376.909366,247.132634 C378.145524,248.339012 379.307397,249.438746 380.381823,250.415897 C380.790405,250.787487 380.820393,251.419941 380.448803,251.828523 C380.077213,252.237105 379.444759,252.267093 379.036177,251.895503 C377.943119,250.901408 376.764508,249.785831 375.512499,248.563985 C374.933137,247.998581 374.340161,247.412459 373.735126,246.807548 C371.508205,244.581079 369.213212,242.197121 366.97803,239.813353 C366.326201,239.118192 365.718293,238.464354 365.163599,237.863277 L364.837243,237.509055 C364.613208,237.265486 364.415034,237.049163 364.244729,236.862559 C364.14228,236.750305 364.072072,236.673104 364.035068,236.63228 C363.664165,236.223075 363.695214,235.590672 364.10442,235.219768 C364.513625,234.848865 365.146028,234.879914 365.516932,235.28912 Z M323.474849,242.637679 C323.546154,243.136808 323.675458,243.69486 323.856855,244.300114 C324.073248,245.022137 324.358052,245.793252 324.694632,246.590292 C324.983476,247.274288 325.293636,247.938346 325.603616,248.555098 C325.788686,248.923324 325.931324,249.191702 326.010109,249.33355 C326.278271,249.816362 326.104262,250.425147 325.62145,250.693309 C325.138638,250.961471 324.529853,250.787462 324.261691,250.30465 C324.237482,250.261062 324.194629,250.182286 324.135779,250.071558 C324.039167,249.889779 323.931901,249.682602 323.816624,249.453241 C323.487935,248.799262 323.159425,248.09592 322.852177,247.368339 C322.489265,246.508944 322.180019,245.671655 321.941046,244.874288 C321.732828,244.179543 321.581527,243.526557 321.494951,242.920521 C321.416846,242.373787 321.796745,241.867255 322.343479,241.789151 C322.890213,241.711046 323.396745,242.090945 323.474849,242.637679 Z M119.901284,228.361679 C120.325561,228.715243 120.382885,229.345808 120.029321,229.770084 C119.011517,230.99145 116.077375,233.750259 111.723675,237.650835 C111.478085,237.870768 111.478085,237.870768 111.232303,238.090503 C109.251273,239.860868 107.129378,241.73153 105.00757,243.585058 C104.265002,244.233735 103.575451,244.833968 102.956561,245.371051 C102.585063,245.693444 102.319547,245.923254 102.177666,246.04577 C101.759658,246.406724 101.128184,246.360473 100.76723,245.942466 C100.406276,245.524458 100.452527,244.892984 100.870534,244.53203 C101.011211,244.410554 101.275492,244.181814 101.645707,243.860534 C102.263009,243.324829 102.950928,242.726017 103.691789,242.07883 C105.80835,240.229887 107.924824,238.364003 109.899606,236.599222 C110.144474,236.380305 110.144474,236.380305 110.389105,236.16123 C114.645867,232.347503 117.566403,229.601487 118.492879,228.489716 C118.846443,228.065439 119.477008,228.008115 119.901284,228.361679 Z M352.371351,201.934915 L360.359351,212.187915 C360.698777,212.623585 360.620755,213.251925 360.185085,213.591351 C359.749415,213.930777 359.121075,213.852755 358.781649,213.417085 L350.793649,203.164085 C350.454223,202.728415 350.532245,202.100075 350.967915,201.760649 C351.403585,201.421223 352.031925,201.499245 352.371351,201.934915 Z M136.410159,205.581972 C136.59635,206.101925 136.325782,206.674368 135.805828,206.860559 L126.771828,210.095559 C126.251875,210.28175 125.679432,210.011182 125.493241,209.491228 C125.30705,208.971275 125.577618,208.398832 126.097572,208.212641 L135.131572,204.977641 C135.651525,204.79145 136.223968,205.062018 136.410159,205.581972 Z" id="Skin-Shadows" fill="#9B7368"/></g></g></g></g></svg>