<svg viewBox="229.8269230769231 49.80000000000007 509.34615384615364 958.65" xmlns="http://www.w3.org/2000/svg" xmlns:xlink="http://www.w3.org/1999/xlink" overflow="visible" width="509.34615384615364px" height="958.65px"><defs><path d="M109.349893,53.900161 C113.481551,52.981688 144.970514,5.75600247 146.214144,3.88880036 C163.157042,7.1710553 179.732671,12.3563028 194.5425,20.2265561 L194.534447,20.342795 C194.273846,24.1150757 187.81006,118.481216 192.9335,124.393556 L192.941093,124.461309 C193.187039,126.661869 199.30416,181.841416 196.1515,198.396556 C192.9335,215.288556 179.5055,194.246556 179.5055,194.246556 L179.493372,194.278417 C179.199722,195.046486 173.626713,209.436596 168.5975,208.598556 C163.4305,207.737556 153.3835,197.403556 153.3835,197.403556 L153.374748,197.427811 C153.092349,198.206414 146.00353,217.45697 136.1595,215.488556 C126.1125,213.478556 123.8155,199.700556 123.8155,199.700556 C123.8155,199.700556 117.2135,215.488556 106.8795,214.914556 C96.5455,214.339556 94.5365,201.708556 94.5365,201.708556 C94.5365,201.708556 89.6555,215.488556 82.1925,216.349556 C74.7285,217.210556 64.3945,208.598556 59.2275,197.977556 C59.2275,197.977556 50.9025,219.219556 42.2905,213.191556 C41.3568107,212.537941 40.5007296,211.820191 39.716404,211.0599 C38.9866857,200.963205 35.9000145,191.098032 30.4518,182.371756 C26.2618,175.660756 20.3978,169.075756 12.1968,163.637756 C8.56443049,161.228971 4.79906388,158.622963 0.984865847,155.901702 C7.45275655,123.762488 15.5945,89.4685561 15.5945,89.4685561 C15.5945,89.4685561 15.7187488,88.7027664 15.9150545,87.2866042 L15.9209033,87.2444839 C15.9621048,86.9466774 16.0064153,86.6206568 16.0533622,86.2674675 L16.061829,86.2036969 C16.1839431,85.2828267 16.3234572,84.1811093 16.4722231,82.9165641 L16.4762129,82.8821812 C16.5146429,82.5550785 16.5536843,82.2171401 16.593197,81.8686756 L16.6018125,81.7932123 C16.7332875,80.6308248 16.8698493,79.3525911 17.0063666,77.9698586 L17.0193919,77.8362484 C17.0468205,77.5570243 17.0742406,77.2735942 17.1016106,76.9860501 C17.128757,76.7024642 17.1557798,76.4140875 17.1827134,76.121777 C17.1986225,75.9473205 17.2146122,75.7720128 17.2305619,75.5953311 C17.2689523,75.1720346 17.3069484,74.7407762 17.3445977,74.301888 L17.384953,73.8245171 C17.40566,73.5783419 17.4262475,73.3298533 17.4466958,73.0790951 C17.854834,68.0780381 18.2074801,62.1723804 18.3471595,55.7119559 C18.3506244,55.5268887 18.3544335,55.3420453 18.3580655,55.1567582 C18.5346699,46.1832394 18.2952384,36.1692225 17.2242013,26.0345559 L17.2229827,26.0342045 C16.5169108,19.3418341 15.4469567,12.5964969 13.8945,6.06355607 C13.8945,6.06355607 33.2123494,1.99203002 60.8377697,0.000117687701 C62.7598027,2.37434943 105.22942,54.8149529 109.349893,53.900161 Z" id="mastercharacterstanding-path-1"/></defs><g id="Master/Character/Standing" stroke="none" stroke-width="1" fill="none" fill-rule="evenodd"><g id="Bottom/Standing" transform="translate(0.000000, 443.000000) scale(1 1)"><defs><path d="M213.041571,1.01805387 L270.8354,161.130543 C270.8354,161.130543 232.2534,152.715309 138.5554,191.992846 C44.8574,231.2714 0.7634,144.29804 0.7634,144.29804 C0.7634,144.29804 28.4044,126.908662 60.0554,0.000101805387 L213.041571,1.01805387 Z" id="bottomstandingskirt-path-1"/></defs><g id="Bottom/Standing/Skirt" stroke="none" stroke-width="1" fill="none" fill-rule="evenodd"><g id="Skirt" transform="translate(258.000000, -1.000000)"><path d="M266.400455,146.10052 C266.400455,146.10052 407.911216,482.694019 428.740297,502.75309 C447.082488,520.419262 474.596275,528.202787 476.788179,539.346941 C478.981082,550.490079 464.145736,567.151925 432.354138,560.46523 C408.914171,555.535088 386.786147,539.526866 376.778588,531.456681 C373.209746,528.579918 370.312873,524.945844 368.270963,520.806558 L194.139641,167.868367 L266.400455,146.10052 Z M60.0590528,157.741957 L125.975146,180.287446 L119.199445,549.772616 L0.0256997597,551.04937 C-0.8302625,532.769217 19.8998235,525.760283 31.6563051,523.59407 C38.8699871,522.265473 44.2707489,516.135833 44.7157293,508.696909 C49.7565071,424.411812 60.0590528,157.741957 60.0590528,157.741957 L60.0590528,157.741957 Z" id="Skin" fill="#8d574d"/><g id="Shoes" transform="translate(-0.000000, 464.599653)"><path d="M44.7167589,43.5496966 C44.2717589,50.9734293 38.8707589,57.0924032 31.6567589,58.4184683 C19.9007589,60.5805531 -0.831241132,67.5761301 0.0257588678,85.8214471 L119.203759,84.5471259 L120.004759,24.8021591 C107.244759,24.8762239 83.7587589,37.7158217 71.0087589,37.8406159 C58.9827589,37.958308 57.2897589,31.8819468 45.3067589,31.8646988 C45.3067589,31.8646988 45.1557589,36.2223497 44.7167589,43.5496966" id="Fill-4" fill="#5BA092"/><path d="M43.7953869,32.8892276 C44.3632918,35.520208 44.7270805,38.3291326 44.9290773,41.1365551 C44.9997024,42.1181272 45.0451248,43.0299998 45.0703914,43.849381 C45.0792651,44.1371515 45.0849817,44.3931602 45.0881675,44.6145482 C45.0901033,44.7490722 45.0907589,44.843219 45.0907589,44.8941258 L45.0898434,44.9391567 C45.0891293,44.9562596 45.0880011,44.9733472 45.0864584,44.9904008 L45.0907589,44.8941258 C45.0907589,44.9454994 45.0871675,44.9955815 45.0802693,45.0442116 C45.0545345,45.225224 44.9811057,45.4008707 44.8594945,45.5473285 C44.8508092,45.5552207 44.8434793,45.5637228 44.8360178,45.5720914 C44.8197221,45.592845 44.801407,45.6118066 44.7821895,45.6301379 C44.7763503,45.6335966 44.7707701,45.6388379 44.7651343,45.6440129 C44.7463878,45.6631307 44.7255805,45.6806192 44.7038525,45.6973892 C44.6961532,45.7019819 44.6892176,45.7072532 44.6822183,45.7124328 C44.662922,45.7277429 44.6418293,45.7420014 44.6199705,45.7556016 C44.5870716,45.7757644 44.5536011,45.7943181 44.5192,45.8109258 C44.5168677,45.8119968 44.5151092,45.8128345 44.5133466,45.8136683 C44.4690698,45.8346116 44.3865287,45.8733822 44.265422,45.9298405 C44.0645761,46.0234721 43.8300132,46.1319514 43.5637644,46.2540431 C42.8041499,46.6023739 41.9422185,46.9903033 40.9942037,47.4079523 C38.2860449,48.6010346 35.429033,49.7940895 32.5524903,50.9081947 C30.5475015,51.6847409 28.6022728,52.3954252 26.7402898,53.0257537 C20.6973121,55.0714549 15.873985,56.1665245 12.6322739,56.029737 C8.21415677,55.8433097 6.57154637,53.193013 8.67754705,48.6147947 C11.5933197,42.2744478 17.7427988,39.6336556 26.015702,39.8581679 C29.8100923,39.9611411 33.8442758,40.6622184 37.8990852,41.7727252 C36.8355299,40.9670303 35.7902351,40.1342932 34.7817429,39.2848673 C32.2958548,37.1910705 30.2183271,35.1495909 28.6800381,33.2061232 C24.5268556,27.9590107 24.5269177,23.5081923 30.1603395,21.1359752 C37.3354288,18.1138061 41.6962333,23.1643035 43.7953869,32.8892276 Z M10.4899254,49.4728766 C8.99433324,52.7241326 9.70787656,53.8754108 12.7153809,54.0023157 C15.6435963,54.125875 20.2830154,53.0725592 26.1072794,51.100898 C27.9407217,50.4802313 29.8595229,49.7792022 31.8392169,49.0124528 C34.6854251,47.9100964 37.5153064,46.728371 40.1976239,45.5466731 C40.6337596,45.354533 41.0513868,45.168794 41.4488669,44.9904504 C40.3284363,44.6024493 39.1113447,44.2177526 37.8206894,43.8547031 C33.7571141,42.7116568 29.7156974,41.988479 25.9622249,41.8866163 C18.4022179,41.6814508 13.0076651,43.9980523 10.4899254,49.4728766 Z M30.9270959,23.0101028 C26.8058859,24.7455321 26.8058461,27.5975644 30.2394426,31.9355551 C31.6815486,33.7575055 33.6681636,35.7096499 36.0592308,37.7235816 C37.9312052,39.3002954 39.9405554,40.8234761 41.9502288,42.2340563 C42.3273484,42.4987547 42.6899352,42.7492006 43.035367,42.9842812 C43.0104796,42.4481443 42.9772173,41.8795884 42.9343852,41.2842927 C42.7388131,38.5661623 42.3869777,35.8495339 41.8416895,33.3233317 C39.9714277,24.6588133 36.515465,20.656265 30.9270959,23.0101028 Z" id="Combined-Shape" fill="#010101"/><path d="M476.809059,74.140812 C474.617059,63.0178953 447.102059,55.2502176 428.758059,37.6177111 C425.945059,34.9138369 420.927059,26.4379776 414.356059,13.8134723 C414.350059,14.2690218 414.129059,22.8788066 397.699059,29.6846558 C382.861059,35.8310235 366.270059,34.9645663 358.569059,36.0197367 L368.288059,55.6367753 C370.330059,59.7671587 373.226059,63.394307 376.794059,66.2655881 C386.803059,74.3214084 408.931059,90.2991236 432.372059,95.2188557 C464.165059,101.893823 479.002059,85.2637286 476.809059,74.140812" id="Fill-13" fill="#5BA092"/><path d="M435.38053,1.4184911 C441.443888,5.24597103 439.522023,11.9887967 432.013146,20.4584185 C429.599705,23.180654 426.643594,26.0432404 423.263348,28.9918219 C419.892673,31.9320542 416.284547,34.8004141 412.676732,37.4825428 C411.414125,38.4211918 410.241432,39.2697462 409.188476,40.0137652 C408.819433,40.2745308 408.491543,40.5037201 408.208536,40.6995246 C408.037895,40.8175859 407.919615,40.8986337 407.857428,40.9408577 L407.84634,40.9485929 C407.798298,40.9805184 407.747546,41.008377 407.694625,41.0316871 C407.426492,41.151638 407.144057,41.1371073 406.903981,41.0296876 C406.855566,41.0077239 406.758157,40.9647084 406.618389,40.9019257 C406.387594,40.7982546 406.120487,40.6761043 405.820077,40.5361126 C404.964001,40.1371783 404.011013,39.6745967 402.985166,39.1534334 C400.053566,37.6640859 397.121453,36.0019503 394.380056,34.2059673 C386.049481,28.7483228 381.166378,23.2522051 381.565645,17.8168297 C381.712451,15.8182935 382.595348,13.9208302 384.229076,12.1596112 C387.689789,8.42915659 391.485005,8.59317005 395.085006,11.996851 C397.847476,14.6086746 400.485038,19.058821 402.99533,24.8520813 C404.415933,28.1305535 405.707117,31.637395 406.845811,35.1434985 C407.006379,35.6378983 407.159252,36.1181177 407.304229,36.5822681 C407.588379,35.6664206 407.899578,34.6955365 408.236053,33.6789276 C409.75881,29.0781476 411.485307,24.4766318 413.384002,20.1764456 C420.318826,4.47037845 427.702502,-3.4287795 435.38053,1.4184911 Z M385.685471,13.550341 C384.354103,14.9856053 383.671385,16.4528564 383.560113,17.9676429 C383.236171,22.3775952 387.72634,27.4314504 395.464967,32.5012895 C398.139272,34.2533181 401.009697,35.8804849 403.880635,37.3390139 C404.526398,37.6670823 405.142352,37.9712914 405.722051,38.2502424 C405.488731,37.4789009 405.229738,36.6513386 404.946278,35.7785481 C403.826175,32.3296875 402.556611,28.8815649 401.164453,25.6687372 C398.75493,20.1080338 396.236931,15.8596148 393.721512,13.4813698 C390.881865,10.7965788 388.341942,10.6868139 385.685471,13.550341 Z M415.209224,21.0060327 C413.339807,25.2399083 411.635594,29.7820301 410.132009,34.3248877 C409.747817,35.4856649 409.39709,36.585753 409.081483,37.6102882 C409.83827,37.0664987 410.645789,36.4767882 411.494634,35.8457387 C415.063454,33.1926004 418.631963,30.3557344 421.959482,27.4531472 C425.279641,24.5569798 428.176155,21.752104 430.526186,19.1013912 C437.304564,11.4557343 438.858493,6.00380846 434.323946,3.14138695 C428.278222,-0.675381786 421.652768,6.41262051 415.209224,21.0060327 Z" id="Combined-Shape" fill="#010101"/></g><g transform="translate(9.000000, 0.000000)"><mask id="bottomstandingskirt-mask-2" fill="#ffffff"><use xlink:href="#bottomstandingskirt-path-1" fill="#ffffff"/></mask><use fill="#F3705A" xlink:href="#bottomstandingskirt-path-1"/><g mask="url(#bottomstandingskirt-mask-2)"><g transform="translate(-4.000000, 0.000000) scale(1 1.0180550458715596)" id="Patterns"><g id="Patterns/Pattern 5" stroke="none" stroke-width="1" fill="none" fill-rule="evenodd"><path d="M217.409367,0.00415373877 C218.193368,-0.0520138171 218.880095,0.468018146 218.943213,1.16567764 C220.522991,18.6271511 221.066625,26.9584181 220.993599,36.9438787 C220.897282,50.1139055 219.405315,61.6622496 216.100929,72.5077376 C213.808823,80.0316099 212.222446,84.4649331 206.137501,100.858669 C202.245413,111.344527 199.838687,118.121655 197.828675,124.565722 C199.019469,127.204959 200.127964,129.907698 201.159563,132.686486 C210.223253,157.100519 213.617697,184.263479 211.288803,211.382108 C212.802176,212.884428 214.406526,214.363482 216.102552,215.821111 C216.668308,216.307343 216.683992,217.109639 216.137584,217.613089 C215.591176,218.116539 214.689589,218.130496 214.123833,217.644264 C213.033818,216.707463 211.980241,215.761671 210.962676,214.806753 L210.868326,215.711114 L210.868326,215.711114 L210.741154,216.852936 C210.660876,217.554932 209.963512,218.065438 209.183549,217.993185 C208.403587,217.920932 207.83638,217.293279 207.916658,216.591283 C208.081535,215.149513 208.230005,213.707101 208.362077,212.26448 C197.341979,201.055634 191.072092,188.614769 188.893799,174.73468 C186.746409,161.051515 188.517998,146.320758 193.674237,128.570792 C194.050716,127.274794 194.432342,125.998371 194.82765,124.715038 C190.260518,114.772235 184.494491,105.725197 177.258043,96.8014536 C170.538129,88.5146834 163.925244,81.6759885 151.360841,69.6964531 C153.216927,74.5999764 155.47429,80.2445116 158.27426,87.0919361 C164.660803,102.710449 167.249539,109.457881 169.878602,118.039712 C173.204791,128.898734 174.936338,135.615077 176.070363,143.435028 C177.610934,154.058422 177.295805,163.696296 174.681304,172.541685 C168.09568,194.822195 147.349686,210.484544 108.745172,217.968741 C107.981189,218.116853 107.216761,217.724422 107.037775,217.09222 C106.858789,216.460019 107.333023,215.82745 108.097006,215.679338 C145.700531,208.389201 165.601045,193.365154 171.921129,171.983021 C174.44579,163.441578 174.751932,154.078586 173.249064,143.715191 C172.133427,136.022033 170.422269,129.384774 167.124179,118.617491 C164.519575,110.115499 161.945088,103.405205 155.582637,87.8456097 C151.765434,78.5105091 148.949617,71.3944261 146.779651,65.3367013 C137.245658,56.1328858 128.903423,45.6277506 121.991642,34.203113 C114.322084,42.8441016 105.453206,50.9574017 95.5388715,58.3781915 C96.2960258,63.0294989 97.3236986,67.4975096 98.6481384,71.844519 C100.92116,79.3057426 102.500878,83.7204591 108.567091,100.063729 C113.414135,113.122378 115.970671,120.463564 118.325763,128.570792 C123.482002,146.320758 125.253591,161.051515 123.106201,174.73468 C120.573145,190.875316 112.507235,205.069763 97.876167,217.644264 C97.3104109,218.130496 96.4088238,218.116539 95.8624157,217.613089 C95.3160077,217.109639 95.3316924,216.307343 95.8974485,215.821111 C110.068921,203.641605 117.839866,189.966238 120.285272,174.384114 C122.3731,161.080474 120.638975,146.661233 115.568105,129.205143 C113.233215,121.167461 110.690807,113.86684 105.862499,100.858669 C99.777554,84.4649331 98.1911774,80.0316099 95.8990706,72.5077376 C94.6888231,68.5355244 93.7216983,64.4690283 92.9772202,60.2631068 C90.0707963,62.3661286 87.0773696,64.411245 84.0018927,66.3937683 C68.8384773,76.1687627 59.0978394,82.6859049 50.9680376,88.7677722 C55.4513047,105.671398 56.8169374,123.848498 55.5483001,143.948754 C54.2486244,164.540783 51.005716,182.776536 43.4376364,217.035098 C43.2965237,217.673876 42.5550711,218.097239 41.7815556,217.980706 C41.0080402,217.864174 40.4953764,217.251875 40.6364891,216.613097 C48.1834452,182.450155 51.4133746,164.287387 52.704782,143.826362 C53.9272805,124.457126 52.6814268,106.918327 48.5355376,90.6122942 C45.8326231,92.6872185 43.2761646,94.7445393 40.7090179,96.899686 C27.0175789,108.393793 16.9103671,120.08615 9.53250193,133.615586 C-4.47167987,159.295692 -9.13068987,188.083352 -4.33691919,216.621012 C-4.22599001,217.281381 -4.76497972,217.893261 -5.54078641,217.987685 C-6.3165931,218.082108 -7.03543456,217.623318 -7.14636375,216.962949 C-12.0166172,187.969982 -7.28117199,158.710035 6.95829276,132.598479 C14.4883573,118.789942 24.7955708,106.866216 38.7161622,95.1797332 C41.6890184,92.6839891 44.6443023,90.3203894 47.8180298,87.9139944 C46.380612,82.7054675 44.6382039,77.6217889 42.5780972,72.6425763 C40.7314403,68.1792141 38.6835997,63.8391359 35.3607136,57.1764476 C34.9715184,56.3960758 34.6862399,55.8257981 33.9431771,54.3417694 C27.4559075,41.385536 24.7784637,35.5181097 22.3769241,28.1507943 C19.1911314,18.3775886 18.1891577,9.59154975 19.6716983,1.00979985 C19.7827472,0.366988488 20.5037883,-0.0797711836 21.2821886,0.0119341969 C22.060589,0.103639577 22.6015842,0.699083048 22.4905353,1.34189441 C21.0676146,9.57853196 22.0340518,18.052961 25.1264244,27.5395775 C27.4852316,34.7758007 30.1344657,40.5814074 36.5744852,53.4432738 L36.8329598,53.9595223 C37.3910981,55.0743669 37.6523909,55.5969556 37.9935361,56.2809827 C41.3369831,62.9848976 43.4024922,67.3624212 45.2725425,71.8823253 C47.1957069,76.5305527 48.8457154,81.266323 50.2341551,86.1052434 C58.1948341,80.2173094 67.7723218,73.8257286 82.2885014,64.4679703 C85.8074666,62.1995643 89.2171298,59.8483187 92.5118662,57.4203384 C91.5377292,50.9856879 91.0595534,44.2117125 91.0064015,36.9438787 C90.9333747,26.9584181 91.4770087,18.6271511 93.0567867,1.16567764 C93.1199054,0.468018146 93.8066318,-0.0520138171 94.5906329,0.00415373877 C95.3746339,0.0603212946 95.9590245,0.671418859 95.8959057,1.36907835 C94.3226539,18.7584175 93.7823293,27.0389669 93.8546464,36.927384 C93.9026288,43.4883572 94.3013309,49.6320296 95.1025496,55.4760815 C104.655279,48.1855986 113.190797,40.2395466 120.565597,31.7954088 C115.035095,22.2784008 110.48823,12.1546487 107.057861,1.63806611 C106.836992,0.960939554 107.267827,0.250868216 108.020159,0.0520773892 C108.772491,-0.146713437 109.561427,0.24105429 109.782296,0.918180849 C113.034677,10.8891005 117.305786,20.5000329 122.476595,29.5626829 C130.139898,20.4483003 136.461581,10.7806593 141.266684,0.752040787 C141.562642,0.134352152 142.390832,-0.162161009 143.116497,0.0897601052 C143.331075,0.164252908 143.512662,0.278358283 143.654353,0.418106461 C144.013008,0.0644028749 144.609683,-0.0939108835 145.175514,0.0570050979 C145.922349,0.256197594 146.332642,0.918672054 146.091928,1.53668322 C140.949515,14.7393523 140.375321,28.5539847 143.625818,44.2023774 C144.978434,50.7140778 146.6243,56.5513246 149.26011,63.9822068 L149.885105,64.5788364 C164.877821,78.7757922 172.133954,86.1477071 179.551557,95.2948443 C186.204148,103.498593 191.642679,111.816272 196.064271,120.81588 C197.898453,115.184216 200.135735,108.9468 203.432909,100.063729 C209.499122,83.7204591 211.07884,79.3057426 213.351862,71.844519 C216.585959,61.2297285 218.050529,49.893446 218.145354,36.927384 C218.217671,27.0389669 217.677346,18.7584175 216.104094,1.36907835 C216.040976,0.671418859 216.625366,0.0603212946 217.409367,0.00415373877 Z M279.717811,11.011332 C280.496212,10.924254 281.217253,11.3484707 281.328302,11.9588466 C282.810842,20.1075725 281.808869,28.4502791 278.623076,37.7303414 C276.221536,44.7259115 273.544092,50.297275 267.056823,62.5997535 C266.31376,64.0089 266.028482,64.5504023 265.639286,65.2913975 C262.3164,71.6178951 260.26856,75.7389785 258.421903,79.9771252 C249.610762,100.198792 246.611279,122.235028 248.295218,147.569068 C249.586625,166.997656 252.816555,184.243955 260.363511,216.683078 C260.504624,217.289624 259.99196,217.871028 259.218444,217.98168 C258.444929,218.092332 257.703476,217.690331 257.562364,217.083786 C249.994284,184.553867 246.751376,167.238266 245.4517,147.685284 C243.750163,122.086494 246.787424,99.7727119 255.727457,79.2552355 C257.597508,74.9633999 259.663017,70.8067606 263.006464,64.4411166 C263.396344,63.6988172 263.681927,63.1567365 264.425515,61.7465949 C270.865534,49.5337217 273.514768,44.0210585 275.873576,37.1499657 C278.965948,28.1420318 279.932385,20.0952115 278.509465,12.2741841 C278.398416,11.6638082 278.939411,11.0984101 279.717811,11.011332 Z M196.577547,128.703258 L196.561838,128.759322 L196.561838,128.759322 L196.431895,129.205143 C191.361025,146.661233 189.6269,161.080474 191.714728,174.384114 C193.691808,186.982063 199.149935,198.333657 208.657208,208.656042 C210.541632,182.713032 207.125296,156.819777 198.466504,133.496379 C197.863853,131.873036 197.234535,130.276275 196.577547,128.703258 Z M141.466653,6.46459073 L141.105558,7.13769965 C136.442042,15.768877 130.67019,24.100328 123.903819,32.0096623 C129.822363,41.9582135 136.837464,51.2099265 144.785143,59.5074347 C143.087801,54.2676668 141.871707,49.6380466 140.825349,44.6007172 C137.959379,30.8034951 138.003707,18.3505618 141.466653,6.46459073 Z" id="Pattern" fill="#010101"/></g></g></g></g></g></g></g><g id="Head" transform="translate(268.000000, 82.000000) scale(1 1)"><g id="Head/Bun" stroke="none" stroke-width="1" fill="none" fill-rule="evenodd"><g id="Bun" transform="translate(35.000000, -27.000000)"><path d="M141.3246,130.9252 C140.4626,130.9792 139.7316,130.3122 139.7486,129.4492 C139.7536,129.2052 139.7566,128.9602 139.7566,128.7162 C139.7566,101.0482 112.3456,78.6202 78.5336,78.6202 C44.7206,78.6202 17.3096,101.0482 17.3096,128.7162 C17.3096,128.9762 17.3126,129.2362 17.3176,129.4962 C17.3356,130.3682 16.5896,131.0442 15.7206,130.9632 C15.2276,130.9172 14.7276,130.8932 14.2196,130.8932 C6.3666,130.8932 -0.0004,136.2412 -0.0004,142.8372 C-0.0004,149.4342 6.3666,154.7812 14.2196,154.7812 C17.4056,154.7812 20.3406,153.8952 22.7096,152.4072 C23.4506,151.9412 24.4086,152.1342 24.8976,152.8592 C33.1426,165.0972 47.4506,174.2072 64.5166,177.4792 C65.9896,177.7622 67.0216,179.0972 66.9356,180.5942 L65.3136,209 L91.7526,209 L90.1316,180.5942 C90.0456,179.0962 91.0776,177.7622 92.5506,177.4792 C109.5186,174.2262 123.7616,165.2012 132.0286,153.0692 C132.5036,152.3722 133.4216,152.1612 134.1466,152.5922 C136.4606,153.9682 139.2786,154.7812 142.3286,154.7812 C150.1816,154.7812 156.5476,149.4342 156.5476,142.8372 C156.5476,136.2412 150.1816,130.8932 142.3286,130.8932 C141.9906,130.8932 141.6556,130.9042 141.3246,130.9252 Z" id="Skin" fill="#8d574d"/><path d="M139.7563,128.716 C139.7563,101.049 112.3453,78.62 78.5333,78.62 C77.9263,78.62 77.3243,78.634 76.7223,78.648 C93.3873,75.386 105.4363,65.191 104.7963,53.833 C104.1073,41.612 88.9723,32.374 70.1893,32.144 C77.7973,29.997 83.3013,23.799 83.3013,16.478 C83.3013,7.378 74.8043,0.001 64.3213,0.001 C53.8393,0.001 45.3413,7.378 45.3413,16.478 C45.3413,24.661 52.2213,31.432 61.2283,32.717 C43.0153,35.275 29.4453,46.004 30.1243,58.039 C30.8243,70.479 46.4943,79.823 65.7433,79.728 C38.0723,84.542 17.3103,104.639 17.3103,128.716 C17.3103,128.976 17.3133,129.236 17.3183,129.496 C17.3303,130.105 17.3823,130.023 17.3823,130.023 C23.0533,128.976 55.1763,127.349 69.0873,90.347 C69.1303,90.344 69.0443,90.349 69.0873,90.347 C79.8963,127.946 139.7483,129.449 139.7483,129.449" id="Hair" fill="#E58857"/></g></g></g><g id="Face" transform="translate(351.000000, 173.000000) scale(1 1)"><g id="Face/Glasses" stroke="none" stroke-width="1" fill="none" fill-rule="evenodd"><g id="Glasses" transform="translate(1.000000, 8.000000)"><path d="M21.2142,-2.13162821e-14 C32.9215177,-2.13162821e-14 42.4282,9.25219371 42.4282,20.686 C42.4282,21.4351623 42.3873869,22.1749587 42.307816,22.9034003 L49.3351964,22.8869478 C49.3019215,22.3925382 49.285,21.8933837 49.285,21.3901 C49.285,9.98731464 57.9713029,0.7041 68.737,0.7041 C79.5033656,0.7041 88.189,9.98695743 88.189,21.3901 C88.189,32.7932426 79.5033656,42.0761 68.737,42.0761 C59.4281564,42.0761 51.6740035,35.1353637 49.7458309,25.8851038 L41.7472963,25.9059033 C39.3744023,34.8083762 31.0748805,41.372 21.2142,41.372 C9.50688233,41.372 0.0002,32.1198063 0.0002,20.686 C0.0002,9.25219371 9.50688233,-2.13162821e-14 21.2142,-2.13162821e-14 Z M68.737,3.7041 C59.6743591,3.7041 52.285,11.6012466 52.285,21.3901 C52.285,31.1789534 59.6743591,39.0761 68.737,39.0761 C77.8002817,39.0761 85.189,31.1793344 85.189,21.3901 C85.189,11.6008656 77.8002817,3.7041 68.737,3.7041 Z M21.2142,3 C11.1457922,3 3.0002,10.9275392 3.0002,20.686 C3.0002,30.4444608 11.1457922,38.372 21.2142,38.372 C31.2826078,38.372 39.4282,30.4444608 39.4282,20.686 C39.4282,10.9275392 31.2826078,3 21.2142,3 Z" id="Combined-Shape" fill="#F3705A"/><path d="M31.5916697,41.5163389 C31.3065036,40.7385395 31.7058618,39.8768358 32.4836611,39.5916697 C33.2614605,39.3065036 34.1231642,39.7058618 34.4083303,40.4836611 C34.4613851,40.6283697 34.5845696,40.9185521 34.7778641,41.3038508 C35.1046798,41.9553008 35.5020079,42.6069701 35.9660446,43.2082416 C38.2079414,46.1131596 40.9296782,46.7915247 44.7966085,44.0076513 C45.4689316,43.5236336 46.4063311,43.6762854 46.8903487,44.3486085 C47.3743664,45.0209316 47.2217146,45.9583311 46.5493915,46.4423487 C41.2508857,50.2568394 36.7507163,49.1352182 33.5910775,45.041144 C32.5784937,43.7290974 31.9263137,42.4290906 31.5916697,41.5163389 Z" id="Stroke-7" fill="#010101"/><path d="M18.3701,26.9805 C18.3701,24.6420469 19.7129415,22.7462707 21.3701,22.7462707 C23.0272585,22.7462707 24.3701,24.6420469 24.3701,26.9805 C24.3701,29.3189531 23.0272585,31.2147293 21.3701,31.2147293 C19.7129415,31.2147293 18.3701,29.3189531 18.3701,26.9805" id="Fill-9" fill="#010101"/><path d="M64.1553,26.9805 C64.1553,24.6420469 65.4981415,22.7462707 67.1553,22.7462707 C68.8108129,22.7462707 70.1553,24.6420469 70.1553,26.9805 C70.1553,29.3189531 68.8108129,31.2147293 67.1553,31.2147293 C65.4981415,31.2147293 64.1553,29.3189531 64.1553,26.9805" id="Fill-11" fill="#010101"/></g></g></g><g id="Body" transform="translate(87.000000, 44.000000) scale(1 1)"><defs><path d="M157.909496,0.276579678 C160.742045,0.471846064 163.387482,0.718541623 165.776939,1.02156319 C214.992939,7.26256319 256.702,39.4749 276.325,90.5039 C278.584,96.3759 208.161,117.0109 207.581,108.7149 C207.304,104.7569 208.634,97.1649 206.762,87.1829 C204.891,77.2019 196.157,73.8749 196.157,73.8749 L196.157,73.8749 L193.661,99.4519 C193.661,99.4519 186.176,104.8589 166.42,105.6909 C146.665,106.5229 125.247,99.0359 125.247,99.0359 L125.247,99.0359 L122.959,84.4799 C122.959,84.4799 115.681,78.8649 109.235,90.9259 C102.788,102.9869 113.81,113.7999 113.81,113.7999 C113.81,113.7999 110.636,115.3659 109.814,121.7579 C108.633,130.9459 116.929,135.4269 116.929,135.4269 C114.849,137.0909 114.849,139.7939 114.849,139.7939 C113.602,151.8549 123.809,154.4679 123.809,154.4679 C123.684,165.8319 131.901,168.0749 131.901,168.0749 C143.13,171.8179 169.699,169.5279 169.699,169.5279 C173.442,175.9849 192.211,202.591 196.157,208.5 C171.541,211.518 118.094,212.158 69.895,199.497 C68.71,199.186 64.3920388,198.359501 63.1960388,198.032501 L63.1960388,198.032501 L70.882,114.5209 C70.882,114.5209 24.452,120.1009 -9.09494702e-13,87.8169 C12.558,42.6069 33.063489,24.8222018 47.8862319,16.8672 C68.7252212,7.15237242 69.895,6.81250847 90.0894217,2.7839 C94.0094841,2.00188224 100.170945,1.30390384 107.462771,0.768965039 C137.822888,22.0394277 158.000493,0.284693538 158.000493,0.284693538 L158.000493,0.284693538 Z" id="bodydrinking-path-1"/></defs><g id="Body/Drinking" stroke="none" stroke-width="1" fill="none" fill-rule="evenodd"><g id="Body" transform="translate(154.000000, 210.000000)"><path d="M69.1462,24.8672 L93.8462,102.5292 C90.0592,144.1862 74.6612,240.8532 74.6612,240.8532 C74.6612,240.8532 99.1772,329.9922 108.2582,352.4422 C117.3392,374.8922 110.1242,400.7112 97.4242,416.2802 C89.8552,425.5582 83.6232,430.4872 78.9812,431.7832 C75.4952,432.7542 72.2982,430.4462 71.4972,429.3762 C69.3872,426.5642 69.8932,422.8272 69.8932,422.8272 C69.8932,422.8272 67.3242,425.6762 61.7412,427.9072 C51.9302,431.8252 49.1212,422.3792 49.1212,422.3792 C49.1212,422.3792 43.3342,426.8792 38.1212,425.4192 C33.1874679,424.037414 32.9231608,418.920447 32.9090015,418.376166 L32.9082,418.3292 C32.9082,418.3292 22.8992,426.8792 15.6842,420.3362 C10.1472,415.3152 39.2372,365.9882 39.2372,365.9882 C39.2372,365.9882 36.2182,359.9782 23.8792,332.0362 C-5.1828,266.2262 0.4372,207.5522 0.4372,207.5522 C10.4262,68.9482 34.3872,41.8422 69.1462,24.8672 L69.1462,24.8672 Z M212.8547,81.8748 C212.8547,81.8748 221.5887,85.2018 223.4597,95.1828 C225.3317,105.1648 224.2787,116.7148 224.2787,116.7148 L292.1247,98.4248 C292.1247,98.4248 295.9197,94.0548 336.1967,243.1708 C340.0747,257.5268 346.0827,284.2108 305.1917,285.4088 C289.5947,285.8658 274.4387,280.1558 262.6967,269.8798 C244.5317,253.9818 212.2897,222.1998 186.3967,177.5278 C186.3967,177.5278 159.8277,179.8178 148.5987,176.0748 C148.5987,176.0748 140.3817,173.8318 140.5067,162.4678 C140.5067,162.4678 130.2997,159.8548 131.5467,147.7938 C131.5467,147.7938 131.5467,145.0908 133.6267,143.4268 C133.6267,143.4268 125.3307,138.9458 126.5117,129.7568 C127.3337,123.3658 130.5077,121.8008 130.5077,121.8008 L130.456618,121.74951 C129.65389,120.933762 119.74358,110.50532 125.9327,98.9258 C132.3787,86.8648 139.6567,92.4798 139.6567,92.4798 L141.9447,107.0358 C141.9447,107.0358 163.3627,114.5228 183.1187,113.6908 C202.8737,112.8588 210.3587,107.4518 210.3587,107.4518 L212.8547,81.8748 Z M174.698193,8.28469354 C174.698193,8.28469354 154.449,30.1166108 124,8.65761081 C124,8.65761081 152.327804,6.42339267 174.698193,8.28469354 Z" id="Skin" fill="#8d574d"/><g id="Tshirt" transform="translate(16.697700, 8.000000)"><mask id="bodydrinking-mask-2" fill="#ffffff"><use xlink:href="#bodydrinking-path-1" fill="#ffffff"/></mask><use fill="#F3705A" xlink:href="#bodydrinking-path-1"/><g mask="url(#bodydrinking-mask-2)"><g transform="translate(0.302300, 2.000000) scale(1 1)" id="Patterns"><g id="Patterns/Pattern 5" stroke="none" stroke-width="1" fill="none" fill-rule="evenodd"><path d="M217.409367,0.00415373877 C218.193368,-0.0520138171 218.880095,0.468018146 218.943213,1.16567764 C220.522991,18.6271511 221.066625,26.9584181 220.993599,36.9438787 C220.897282,50.1139055 219.405315,61.6622496 216.100929,72.5077376 C213.808823,80.0316099 212.222446,84.4649331 206.137501,100.858669 C202.245413,111.344527 199.838687,118.121655 197.828675,124.565722 C199.019469,127.204959 200.127964,129.907698 201.159563,132.686486 C210.223253,157.100519 213.617697,184.263479 211.288803,211.382108 C212.802176,212.884428 214.406526,214.363482 216.102552,215.821111 C216.668308,216.307343 216.683992,217.109639 216.137584,217.613089 C215.591176,218.116539 214.689589,218.130496 214.123833,217.644264 C213.033818,216.707463 211.980241,215.761671 210.962676,214.806753 L210.868326,215.711114 L210.868326,215.711114 L210.741154,216.852936 C210.660876,217.554932 209.963512,218.065438 209.183549,217.993185 C208.403587,217.920932 207.83638,217.293279 207.916658,216.591283 C208.081535,215.149513 208.230005,213.707101 208.362077,212.26448 C197.341979,201.055634 191.072092,188.614769 188.893799,174.73468 C186.746409,161.051515 188.517998,146.320758 193.674237,128.570792 C194.050716,127.274794 194.432342,125.998371 194.82765,124.715038 C190.260518,114.772235 184.494491,105.725197 177.258043,96.8014536 C170.538129,88.5146834 163.925244,81.6759885 151.360841,69.6964531 C153.216927,74.5999764 155.47429,80.2445116 158.27426,87.0919361 C164.660803,102.710449 167.249539,109.457881 169.878602,118.039712 C173.204791,128.898734 174.936338,135.615077 176.070363,143.435028 C177.610934,154.058422 177.295805,163.696296 174.681304,172.541685 C168.09568,194.822195 147.349686,210.484544 108.745172,217.968741 C107.981189,218.116853 107.216761,217.724422 107.037775,217.09222 C106.858789,216.460019 107.333023,215.82745 108.097006,215.679338 C145.700531,208.389201 165.601045,193.365154 171.921129,171.983021 C174.44579,163.441578 174.751932,154.078586 173.249064,143.715191 C172.133427,136.022033 170.422269,129.384774 167.124179,118.617491 C164.519575,110.115499 161.945088,103.405205 155.582637,87.8456097 C151.765434,78.5105091 148.949617,71.3944261 146.779651,65.3367013 C137.245658,56.1328858 128.903423,45.6277506 121.991642,34.203113 C114.322084,42.8441016 105.453206,50.9574017 95.5388715,58.3781915 C96.2960258,63.0294989 97.3236986,67.4975096 98.6481384,71.844519 C100.92116,79.3057426 102.500878,83.7204591 108.567091,100.063729 C113.414135,113.122378 115.970671,120.463564 118.325763,128.570792 C123.482002,146.320758 125.253591,161.051515 123.106201,174.73468 C120.573145,190.875316 112.507235,205.069763 97.876167,217.644264 C97.3104109,218.130496 96.4088238,218.116539 95.8624157,217.613089 C95.3160077,217.109639 95.3316924,216.307343 95.8974485,215.821111 C110.068921,203.641605 117.839866,189.966238 120.285272,174.384114 C122.3731,161.080474 120.638975,146.661233 115.568105,129.205143 C113.233215,121.167461 110.690807,113.86684 105.862499,100.858669 C99.777554,84.4649331 98.1911774,80.0316099 95.8990706,72.5077376 C94.6888231,68.5355244 93.7216983,64.4690283 92.9772202,60.2631068 C90.0707963,62.3661286 87.0773696,64.411245 84.0018927,66.3937683 C68.8384773,76.1687627 59.0978394,82.6859049 50.9680376,88.7677722 C55.4513047,105.671398 56.8169374,123.848498 55.5483001,143.948754 C54.2486244,164.540783 51.005716,182.776536 43.4376364,217.035098 C43.2965237,217.673876 42.5550711,218.097239 41.7815556,217.980706 C41.0080402,217.864174 40.4953764,217.251875 40.6364891,216.613097 C48.1834452,182.450155 51.4133746,164.287387 52.704782,143.826362 C53.9272805,124.457126 52.6814268,106.918327 48.5355376,90.6122942 C45.8326231,92.6872185 43.2761646,94.7445393 40.7090179,96.899686 C27.0175789,108.393793 16.9103671,120.08615 9.53250193,133.615586 C-4.47167987,159.295692 -9.13068987,188.083352 -4.33691919,216.621012 C-4.22599001,217.281381 -4.76497972,217.893261 -5.54078641,217.987685 C-6.3165931,218.082108 -7.03543456,217.623318 -7.14636375,216.962949 C-12.0166172,187.969982 -7.28117199,158.710035 6.95829276,132.598479 C14.4883573,118.789942 24.7955708,106.866216 38.7161622,95.1797332 C41.6890184,92.6839891 44.6443023,90.3203894 47.8180298,87.9139944 C46.380612,82.7054675 44.6382039,77.6217889 42.5780972,72.6425763 C40.7314403,68.1792141 38.6835997,63.8391359 35.3607136,57.1764476 C34.9715184,56.3960758 34.6862399,55.8257981 33.9431771,54.3417694 C27.4559075,41.385536 24.7784637,35.5181097 22.3769241,28.1507943 C19.1911314,18.3775886 18.1891577,9.59154975 19.6716983,1.00979985 C19.7827472,0.366988488 20.5037883,-0.0797711836 21.2821886,0.0119341969 C22.060589,0.103639577 22.6015842,0.699083048 22.4905353,1.34189441 C21.0676146,9.57853196 22.0340518,18.052961 25.1264244,27.5395775 C27.4852316,34.7758007 30.1344657,40.5814074 36.5744852,53.4432738 L36.8329598,53.9595223 C37.3910981,55.0743669 37.6523909,55.5969556 37.9935361,56.2809827 C41.3369831,62.9848976 43.4024922,67.3624212 45.2725425,71.8823253 C47.1957069,76.5305527 48.8457154,81.266323 50.2341551,86.1052434 C58.1948341,80.2173094 67.7723218,73.8257286 82.2885014,64.4679703 C85.8074666,62.1995643 89.2171298,59.8483187 92.5118662,57.4203384 C91.5377292,50.9856879 91.0595534,44.2117125 91.0064015,36.9438787 C90.9333747,26.9584181 91.4770087,18.6271511 93.0567867,1.16567764 C93.1199054,0.468018146 93.8066318,-0.0520138171 94.5906329,0.00415373877 C95.3746339,0.0603212946 95.9590245,0.671418859 95.8959057,1.36907835 C94.3226539,18.7584175 93.7823293,27.0389669 93.8546464,36.927384 C93.9026288,43.4883572 94.3013309,49.6320296 95.1025496,55.4760815 C104.655279,48.1855986 113.190797,40.2395466 120.565597,31.7954088 C115.035095,22.2784008 110.48823,12.1546487 107.057861,1.63806611 C106.836992,0.960939554 107.267827,0.250868216 108.020159,0.0520773892 C108.772491,-0.146713437 109.561427,0.24105429 109.782296,0.918180849 C113.034677,10.8891005 117.305786,20.5000329 122.476595,29.5626829 C130.139898,20.4483003 136.461581,10.7806593 141.266684,0.752040787 C141.562642,0.134352152 142.390832,-0.162161009 143.116497,0.0897601052 C143.331075,0.164252908 143.512662,0.278358283 143.654353,0.418106461 C144.013008,0.0644028749 144.609683,-0.0939108835 145.175514,0.0570050979 C145.922349,0.256197594 146.332642,0.918672054 146.091928,1.53668322 C140.949515,14.7393523 140.375321,28.5539847 143.625818,44.2023774 C144.978434,50.7140778 146.6243,56.5513246 149.26011,63.9822068 L149.885105,64.5788364 C164.877821,78.7757922 172.133954,86.1477071 179.551557,95.2948443 C186.204148,103.498593 191.642679,111.816272 196.064271,120.81588 C197.898453,115.184216 200.135735,108.9468 203.432909,100.063729 C209.499122,83.7204591 211.07884,79.3057426 213.351862,71.844519 C216.585959,61.2297285 218.050529,49.893446 218.145354,36.927384 C218.217671,27.0389669 217.677346,18.7584175 216.104094,1.36907835 C216.040976,0.671418859 216.625366,0.0603212946 217.409367,0.00415373877 Z M279.717811,11.011332 C280.496212,10.924254 281.217253,11.3484707 281.328302,11.9588466 C282.810842,20.1075725 281.808869,28.4502791 278.623076,37.7303414 C276.221536,44.7259115 273.544092,50.297275 267.056823,62.5997535 C266.31376,64.0089 266.028482,64.5504023 265.639286,65.2913975 C262.3164,71.6178951 260.26856,75.7389785 258.421903,79.9771252 C249.610762,100.198792 246.611279,122.235028 248.295218,147.569068 C249.586625,166.997656 252.816555,184.243955 260.363511,216.683078 C260.504624,217.289624 259.99196,217.871028 259.218444,217.98168 C258.444929,218.092332 257.703476,217.690331 257.562364,217.083786 C249.994284,184.553867 246.751376,167.238266 245.4517,147.685284 C243.750163,122.086494 246.787424,99.7727119 255.727457,79.2552355 C257.597508,74.9633999 259.663017,70.8067606 263.006464,64.4411166 C263.396344,63.6988172 263.681927,63.1567365 264.425515,61.7465949 C270.865534,49.5337217 273.514768,44.0210585 275.873576,37.1499657 C278.965948,28.1420318 279.932385,20.0952115 278.509465,12.2741841 C278.398416,11.6638082 278.939411,11.0984101 279.717811,11.011332 Z M196.577547,128.703258 L196.561838,128.759322 L196.561838,128.759322 L196.431895,129.205143 C191.361025,146.661233 189.6269,161.080474 191.714728,174.384114 C193.691808,186.982063 199.149935,198.333657 208.657208,208.656042 C210.541632,182.713032 207.125296,156.819777 198.466504,133.496379 C197.863853,131.873036 197.234535,130.276275 196.577547,128.703258 Z M141.466653,6.46459073 L141.105558,7.13769965 C136.442042,15.768877 130.67019,24.100328 123.903819,32.0096623 C129.822363,41.9582135 136.837464,51.2099265 144.785143,59.5074347 C143.087801,54.2676668 141.871707,49.6380466 140.825349,44.6007172 C137.959379,30.8034951 138.003707,18.3505618 141.466653,6.46459073 Z" id="Pattern" fill="#010101"/></g></g></g></g><g id="Drink" transform="translate(131.453900, 0.000500)"><path d="M10.4907,107.0357 L4.0607,58.9627 L83.1037,58.9627 L78.9057,107.4517 C78.9057,107.4517 56.7127,124.5197 10.4907,107.0357" id="Fill-9" fill="#94C0E9"/><polygon id="Fill-11" fill="#3973B0" points="88.788 59.2339 1.42108547e-14 59.2339 2 47.3229 86.788 47.3229"/><path d="M54.415,-8.52651283e-14 L49.516,-8.52651283e-14 C48.073,-8.52651283e-14 46.888,1.137 46.827,2.577 L44.936,47.372 L55.222,47.372 L57.103,2.804 C57.168,1.275 55.946,-8.52651283e-14 54.415,-8.52651283e-14" id="Fill-13" fill="#2F6858"/></g><path d="M92.2819494,393.525633 C92.7840134,393.755742 93.0044764,394.349285 92.7743673,394.851349 C91.602988,397.407125 89.8821534,400.277471 87.6882758,403.411496 C86.1563595,405.599887 84.4138384,407.887858 82.4997462,410.246093 C79.8967993,413.453023 77.1100474,416.629505 74.3234355,419.634567 C73.3481374,420.686321 72.4422855,421.641773 71.628934,422.48318 C71.3438785,422.778068 71.0906166,423.037766 70.8720318,423.260052 C70.7402585,423.394057 70.6489401,423.486198 70.6009612,423.534252 C70.2107433,423.925082 69.5775785,423.925579 69.1867481,423.535361 C68.7959176,423.145143 68.7954209,422.511979 69.1856388,422.121148 C69.2300819,422.076635 69.3178311,421.988096 69.4459946,421.857762 C69.6606379,421.639484 69.9099205,421.383867 70.1909497,421.093144 C70.994983,420.261376 71.8913599,419.315918 72.8569235,418.274661 C75.6156307,415.299692 78.3741981,412.155336 80.9468824,408.985691 C82.8327601,406.662217 84.5470513,404.411313 86.0498268,402.26455 C88.1799477,399.221604 89.8416783,396.449843 90.9562327,394.018051 C91.1863419,393.515987 91.7798854,393.295524 92.2819494,393.525633 Z M72.4439485,391.601765 C72.9219703,391.878376 73.085246,392.490127 72.8086349,392.968149 C72.7728342,393.030017 72.703933,393.148276 72.6036399,393.319173 C72.4370806,393.602985 72.2425522,393.931918 72.0217623,394.302219 C71.3915536,395.359183 70.6768348,396.536516 69.8912468,397.804222 C67.6463046,401.426895 65.2822009,405.049932 62.9071976,408.434279 C61.3385472,410.669584 59.8157805,412.726754 58.3553789,414.568534 C54.984698,418.819456 52.0555655,421.794998 49.6329356,423.238383 C49.158477,423.521062 48.5446956,423.365594 48.2620166,422.891136 C47.9793376,422.416677 48.1348057,421.802896 48.6092644,421.520217 C50.7674835,420.234365 53.5583899,417.399239 56.7882507,413.325912 C58.222587,411.517004 59.7225703,409.490613 61.2700895,407.28542 C63.6209151,403.935526 65.9649101,400.343306 68.1912072,396.750721 C68.9705529,395.493087 69.6793794,394.325461 70.3039365,393.277976 C70.5223146,392.911719 70.7144876,392.586769 70.8787392,392.306889 C70.9769327,392.139571 71.0437797,392.024837 71.0775651,391.966451 C71.3541761,391.48843 71.9659268,391.325154 72.4439485,391.601765 Z M55.4393742,383.959029 C55.9277436,384.216932 56.1145737,384.821905 55.8566709,385.310274 C55.8207389,385.378316 55.7513847,385.508978 55.6504608,385.698091 C55.4826468,386.012544 55.2869718,386.3771 55.0652876,386.787589 C54.4323066,387.959673 53.7175411,389.265402 52.9357919,390.671445 C50.7018668,394.689351 48.3780669,398.707578 46.0821884,402.460251 C45.0461064,404.153753 44.0371123,405.757352 43.061388,407.256956 C39.0872925,413.364801 35.8501183,417.487214 33.4826833,419.147957 C33.0305517,419.465125 32.4069113,419.355715 32.0897434,418.903583 C31.7725755,418.451452 31.8819851,417.827811 32.3341167,417.510643 C34.4155964,416.050496 37.5550128,412.052574 41.3850022,406.166209 C42.3501007,404.682935 43.3493196,403.094872 44.3761465,401.416497 C46.6559651,397.690075 48.9663839,393.694986 51.1878016,389.699576 C51.9654224,388.300958 52.6762839,387.00236 53.305512,385.837226 C53.525601,385.42969 53.7197168,385.068039 53.8860017,384.756452 L53.9901859,384.560943 C54.0345894,384.477474 54.0673708,384.415634 54.0881291,384.376326 C54.3460318,383.887956 54.9510048,383.701126 55.4393742,383.959029 Z M58.3428005,233.496104 C61.3143341,234.067719 63.9241266,234.717656 66.1960396,235.432262 C69.3838871,236.434965 71.7736525,237.518465 73.4817462,238.615863 C74.5579222,239.307273 75.1809293,239.87735 75.4627768,240.255611 C75.7927611,240.698475 75.7012538,241.324992 75.2583894,241.654977 C74.8155251,241.984961 74.1890075,241.893454 73.8590232,241.450589 C73.7248258,241.270486 73.2799702,240.863425 72.4006925,240.298516 C70.8496966,239.302049 68.6212355,238.291683 65.5959464,237.340111 C63.399226,236.649156 60.863466,236.017656 57.9649995,235.460096 C57.422658,235.355769 57.0675769,234.831541 57.1719038,234.2892 C57.2762306,233.746858 57.8004589,233.391777 58.3428005,233.496104 Z M224.228498,115.716151 C224.780092,115.688536 225.249634,116.113304 225.277249,116.664898 L225.279069,116.701143 C225.280885,116.737051 225.283459,116.787053 225.293754,116.987062 C225.307413,117.25048 225.323564,117.556141 225.342124,117.900522 C225.395173,118.884804 225.456877,119.981713 225.526581,121.163049 C225.725707,124.537859 225.948955,127.912473 226.191007,131.060806 C226.337828,132.970487 226.487275,134.738185 226.638648,136.335771 C226.742501,136.419133 226.86477,136.517384 227.004929,136.630153 C227.572208,137.086572 228.230096,137.618069 228.971047,138.219297 C231.087495,139.936642 233.445595,141.868712 235.984989,143.972746 C243.240822,149.984621 250.496874,156.17069 257.270834,162.189433 C259.298736,163.991248 261.256554,165.75465 263.136423,167.474082 C271.064121,174.725192 277.407396,181.008822 281.771575,186.050415 C282.133037,186.467984 282.087554,187.099513 281.669985,187.460975 C281.252416,187.822437 280.620887,187.776954 280.259425,187.359385 C275.956039,182.388022 269.661873,176.153039 261.786587,168.949868 C259.914043,167.237136 257.963342,165.480144 255.942422,163.684532 C249.187513,157.682716 241.948349,151.511045 234.708966,145.5128 C232.175034,143.413292 229.822189,141.485526 227.710865,139.77234 C226.972097,139.172882 226.316356,138.64312 225.751196,138.188406 C225.412427,137.915841 225.179339,137.729025 225.059482,137.63331 C224.848167,137.464558 224.714207,137.217416 224.688152,136.948247 C224.521648,135.228106 224.357641,133.304963 224.196892,131.214119 C223.953825,128.052581 223.729826,124.666619 223.530053,121.280852 C223.460142,120.095987 223.398247,118.995709 223.345023,118.008156 C223.326388,117.662395 223.310165,117.355379 223.296437,117.090627 C223.282614,116.822092 223.282614,116.822092 223.279751,116.764902 C223.252136,116.213308 223.676904,115.743766 224.228498,115.716151 Z M140.855047,161.530472 C140.914813,161.552689 141.041766,161.597654 141.233661,161.662139 C141.55955,161.771651 141.945919,161.894243 142.390527,162.02669 C143.66799,162.407242 145.151643,162.788608 146.823519,163.145041 C151.339309,164.107776 156.35025,164.709436 161.732385,164.772869 C162.284632,164.779378 162.727039,165.232339 162.720601,165.784585 C162.714022,166.336832 162.261061,166.779239 161.708815,166.772731 C156.188201,166.707665 151.046579,166.090314 146.406504,165.101082 C144.681568,164.733338 143.146678,164.338801 141.819531,163.943449 C141.352525,163.804329 140.944138,163.674752 140.596585,163.557959 C140.384415,163.486661 140.237533,163.434638 140.158153,163.405128 C139.640481,163.212686 139.37683,162.637025 139.569272,162.119353 C139.761714,161.601681 140.337375,161.33803 140.855047,161.530472 Z M134.179179,142.593773 C134.275113,142.65736 134.519538,142.793412 134.924509,142.979148 C135.631315,143.303317 136.522456,143.63122 137.610046,143.939872 C143.099641,145.497786 150.97405,145.941496 161.592286,144.566579 C162.139998,144.495658 162.641499,144.882174 162.712421,145.429886 C162.783342,145.977598 162.396826,146.479099 161.849114,146.550021 C150.972757,147.958361 142.826862,147.499353 137.064021,145.863893 C135.016607,145.282849 133.716628,144.686628 133.074221,144.260827 C132.613877,143.955701 132.488047,143.335165 132.793173,142.874821 C133.098299,142.414477 133.718835,142.288647 134.179179,142.593773 Z M130.968726,120.912965 C131.05213,120.956308 131.231668,121.044277 131.506226,121.170555 C131.972857,121.385174 132.53229,121.625476 133.183414,121.885146 C135.055121,122.631589 137.280318,123.379785 139.850164,124.079262 C145.412469,125.593245 151.776172,126.662229 158.907212,127.088078 C159.458514,127.121001 159.878744,127.594609 159.845822,128.145912 C159.812899,128.697214 159.339291,129.117444 158.787988,129.084522 C151.517089,128.65032 145.01758,127.558523 139.324901,126.009054 C136.680717,125.289343 134.383647,124.516981 132.44255,123.742865 C131.759192,123.47034 131.168147,123.21646 130.670515,122.987583 C130.366515,122.847763 130.158135,122.745662 130.046474,122.687635 C129.556413,122.432962 129.365592,121.829235 129.620265,121.339174 C129.874938,120.849113 130.478665,120.658292 130.968726,120.912965 Z M138.204353,100.891082 C138.225275,101.162995 138.463802,101.790469 139.163107,102.681988 C140.428915,104.295723 142.661102,105.948755 146.11204,107.517862 C152.658257,110.49436 162.657719,112.74318 176.737098,113.941402 C177.287394,113.988235 177.695531,114.472303 177.648698,115.022598 C177.601865,115.572894 177.117797,115.981031 176.567502,115.934198 C162.277974,114.718092 152.063281,112.420868 145.284216,109.338496 C141.55682,107.643686 139.066732,105.799667 137.589464,103.916349 C136.642922,102.709637 136.261079,101.705153 136.210247,101.044518 C136.167877,100.493861 136.579925,100.013117 137.130582,99.9707472 C137.681239,99.928377 138.161983,100.340425 138.204353,100.891082 Z" id="Skin-Shadows" fill="#6d4038"/></g></g></g></g></svg>