<svg viewBox="28.950000000000045 -20.205882352941103 2287.05 1414.4117647058827" xmlns="http://www.w3.org/2000/svg" overflow="visible" xmlns:xlink="http://www.w3.org/1999/xlink" width="2287.05px" height="1414.4117647058827px"><g id="Master/Holidays Scenes/Outdoors Celebration" stroke="none" stroke-width="1" fill="none" fill-rule="evenodd"><g id="Object/Floor" transform="translate(1356.000000, 892.000000) scale(1 1)"><defs><path d="M0.2288,0 L157.5878,2.467 L139.6958,150.317 C138.4498,160.618 134.3088,170.429 127.4358,178.202 C118.4958,188.314 103.0808,197.81 77.1818,195.344 C51.0968,192.859 34.0198,181.742 23.4938,171.317 C14.3728,162.283 9.0308,150.118 8.2788,137.302 L0.2288,0 Z" id="objectfloorplant-2-path-1"/></defs><g id="Object/Floor/Plant 2" stroke="none" stroke-width="1" fill="none" fill-rule="evenodd"><g id="Plant-2" transform="translate(58.000000, 0.000000)"><path d="M24.6592,46.7744 C24.9622,46.8654 55.2902,56.3264 85.9432,90.2654 C103.9082,110.1574 118.5042,134.4604 129.3262,162.5004 C142.8322,197.4944 150.4632,238.4424 152.008059,284.2064 C152.0342,284.9884 151.4212,285.6444 150.6392,285.6714 L150.5902,285.6714 C149.8292,285.6714 149.2002,285.0674 149.1742,284.3024 C147.6412,238.8564 140.0732,198.2194 126.6822,163.5214 C115.9862,135.8064 101.5702,111.7994 83.8382,92.1654 C53.7092,58.8054 24.1342,49.5764 23.8392,49.4864 C23.0892,49.2604 22.6662,48.4694 22.8932,47.7204 C23.1202,46.9704 23.9162,46.5434 24.6592,46.7744 Z M231.5852,59.9691 C232.3512,60.1351 232.8352,60.8901 232.6692,61.6551 C220.5232,117.5321 159.2822,282.4751 158.6652,284.1351 C158.4532,284.7051 157.9122,285.0591 157.3372,285.0591 C157.1732,285.0591 157.0062,285.0301 156.8432,284.9691 C156.1092,284.6971 155.7352,283.8801 156.0092,283.1471 C156.6252,281.4901 217.7952,116.7341 229.9002,61.0531 C230.0652,60.2881 230.8162,59.7971 231.5852,59.9691 Z M33.5507,165.8888 C33.7227,165.9898 50.9527,176.1708 70.4047,195.5468 C88.3647,213.4358 111.9857,243.0728 122.5217,282.6638 C122.7227,283.4198 122.2727,284.1958 121.5157,284.3978 C121.3937,284.4298 121.2717,284.4458 121.1507,284.4458 C120.5237,284.4458 119.9507,284.0268 119.7817,283.3918 C99.9227,208.7678 32.7957,168.7308 32.1197,168.3348 C31.4437,167.9388 31.2167,167.0708 31.6127,166.3958 C32.0067,165.7188 32.8767,165.4938 33.5507,165.8888 Z" id="Combined-Shape" fill="#5BA092"/><path d="M130.2509,252.1354 C133.301866,252.780047 134.997644,253.898272 135.710079,255.310949 C136.1495,254.883775 136.637501,254.453278 137.1731,254.0201 C145.597286,247.205696 151.611694,258.383145 155.073017,268.40315 C161.004344,262.960212 170.14069,256.814107 171.344,269.1933 C171.41999,269.975062 171.431913,270.688296 171.386143,271.337977 C178.88709,267.686294 187.724946,265.97632 192.1411,274.5634 C202.1351,293.9964 158.5491,279.8384 158.5491,279.8384 C158.5491,279.8384 159.812031,278.735906 161.867409,277.213785 C160.379647,277.041394 158.860661,276.716916 157.427684,276.33087 C158.173312,279.253802 158.5491,281.2261 158.5491,281.2261 C158.5491,281.2261 151.248041,279.060848 144.322903,275.395262 C137.885143,276.99664 128.077996,278.051175 126.78809,270.118835 C122.824186,273.621565 119.0999,276.2124 119.0999,276.2124 L119.096687,276.180425 C118.994287,275.14335 116.57108,249.24538 130.2509,252.1354 Z M90.803,272.0408 C95.966,256.3168 118.847,278.2398 118.847,278.2398 C118.847,278.2398 84.445,291.4048 90.803,272.0408 Z M78.5492,256.1904 C76.7762,237.6894 109.2162,251.6284 109.2162,251.6284 C109.2162,251.6284 80.3232,274.6904 78.5492,256.1904 Z M167.1556,256.7964 C167.1556,256.7964 201.0246,222.3714 206.8546,247.9124 C211.4266,267.9414 167.1556,256.7964 167.1556,256.7964 Z M155.387796,222.722146 C161.174344,216.494192 167.83344,212.7328 169.4394,225.8116 C169.959947,230.048331 167.243041,232.457525 163.498746,233.800311 C166.70163,243.710695 167.1556,256.7964 167.1556,256.7964 C167.1556,256.7964 142.76879,246.105962 142.322159,234.572402 C138.251772,235.818603 131.302125,237.572154 125.838485,237.036755 C121.619888,244.817314 109.2162,251.6284 109.2162,251.6284 C109.2162,251.6284 109.637826,221.700415 119.513993,223.347282 C124.187102,217.89749 137.162311,226.775958 142.921978,231.181043 C143.81796,228.957593 145.7681,226.738188 149.1106,224.5924 C151.394615,223.126184 153.391863,222.677131 155.137998,222.99254 Z M90.2074,220.9624 C90.2074,220.9624 95.7834,251.1214 79.8164,242.5044 C63.8504,233.8874 90.2074,220.9624 90.2074,220.9624 Z M71.1996,198.6597 C71.1996,198.6597 80.8306,230.8467 63.8496,227.0447 C46.8696,223.2427 71.1996,198.6597 71.1996,198.6597 Z M217.4041,213.7653 C226.8251,237.9333 179.9261,222.0943 179.9261,222.0943 C179.9261,222.0943 211.0191,197.3863 217.4041,213.7653 Z M166.0451,188.2253 C181.0081,179.7273 179.0931,222.0943 179.0931,222.0943 C179.0931,222.0943 143.5581,200.9953 166.0451,188.2253 Z M103.3874,197.3924 C118.0864,198.9124 90.2074,220.9624 90.2074,220.9624 C90.2074,220.9624 78.9644,194.8654 103.3874,197.3924 Z M50.1644,179.398 C50.1644,179.398 64.8634,218.681 45.8554,211.332 C26.8484,203.982 50.1644,179.398 50.1644,179.398 Z M139.8138,200.8413 C139.8138,200.8413 110.1878,217.1363 110.1878,199.1493 C110.1878,181.1613 139.8138,200.8413 139.8138,200.8413 Z M156.7429,171.8506 C177.6929,178.6226 139.3909,199.9956 139.3909,199.9956 C139.3909,199.9956 135.7929,165.0786 156.7429,171.8506 Z M85.1386,170.2737 C101.8656,175.5967 71.1996,198.6597 71.1996,198.6597 C71.1996,198.6597 68.4116,164.9517 85.1386,170.2737 Z M33.2593124,167.475236 C31.5756414,162.481226 18.9602346,123.089048 41.0408,126.1757 C62.7121779,129.20528 38.1038689,162.015192 33.9987288,167.281374 C34.1295278,167.249204 34.1976,167.2329 34.1976,167.2329 C34.1976,167.2329 29.8886,207.5299 10.6276,190.2949 C-3.1928,177.9298 26.95522,169.14166 33.123028,167.507683 Z M193.2513,183.2281 C193.2513,183.2281 226.0103,153.8001 229.0643,180.4521 C231.0933,198.1581 193.2513,183.2281 193.2513,183.2281 Z M172.9853,157.1321 C186.3063,147.5641 193.2513,183.2281 193.2513,183.2281 C193.2513,183.2281 153.2743,171.2901 172.9853,157.1321 Z M62.3294,149.492 C84.6324,153.8 50.1644,179.398 50.1644,179.398 C50.1644,179.398 45.4064,146.222 62.3294,149.492 Z M129.4447,166.5601 C129.4447,166.5601 109.3407,188.7801 104.4737,169.9461 C101.0057,156.5221 129.4447,166.5601 129.4447,166.5601 Z M147.0077,135.6641 C164.5727,141.1661 129.4447,166.5601 129.4447,166.5601 C129.4447,166.5601 129.4447,130.1631 147.0077,135.6641 Z M117.806,139.6851 L117.790108,139.716812 C117.27272,140.743933 104.20738,166.28924 91.143,153.0171 C77.811,139.4741 117.806,139.6851 117.806,139.6851 Z M239.8911,137.4216 C249.8851,158.7976 205.4661,147.4156 205.4661,147.4156 C205.4661,147.4156 229.8971,116.0446 239.8911,137.4216 Z M177.4271,121.8746 C189.5201,107.7996 205.4661,147.4156 205.4661,147.4156 C205.4661,147.4156 160.4921,141.5856 177.4271,121.8746 Z M131.9834,104.5569 C149.7594,107.7319 116.7484,137.5689 116.7484,137.5689 C116.7484,137.5689 111.0224,100.8149 131.9834,104.5569 Z M99.6068,109.6363 C99.6068,109.6363 97.9148,144.1293 79.9268,131.2213 C65.1568,120.6203 99.6068,109.6363 99.6068,109.6363 Z M256.2695,104.9396 C260.4345,133.8116 218.0355,109.5826 218.0355,109.5826 C218.0355,109.5826 251.4405,71.4586 256.2695,104.9396 Z M82.6781,88.687 C82.6781,88.687 78.5951,126.573 62.9981,114.503 C45.2231,100.749 82.6781,88.687 82.6781,88.687 Z M110.3998,74.9323 C130.0798,77.8943 99.6068,109.6363 99.6068,109.6363 C99.6068,109.6363 90.3008,71.9063 110.3998,74.9323 Z M190.7532,79.3997 C209.9702,67.5117 218.2962,108.4077 218.2962,108.4077 C218.2962,108.4077 163.8242,96.0557 190.7532,79.3997 Z M53.264,63.2935 C53.264,63.2935 54.534,108.3665 34.854,97.3625 C15.173,86.3585 53.264,63.2935 53.264,63.2935 Z M82.2552,87.6284 C82.2552,87.6284 61.1382,49.0124 80.3502,48.6914 C105.7442,48.2684 82.2552,87.6284 82.2552,87.6284 Z M25.5423,48.6919 C25.5423,48.6919 24.2723,97.9979 3.5343,79.7989 C-11.3397,66.7459 25.5423,48.6919 25.5423,48.6919 Z M197.4155,29.7071 C225.4545,10.8291 230.4525,64.6861 230.4525,64.6861 C230.4525,64.6861 177.9485,42.8131 197.4155,29.7071 Z M277.3695,47.196 C290.9725,71.904 231.2845,61.354 231.2845,61.354 C231.2845,61.354 263.7655,22.488 277.3695,47.196 Z M53.264,63.2935 C53.264,63.2935 30.943,22.0035 54.956,21.1825 C79.715,20.3355 53.264,63.2935 53.264,63.2935 Z M25.5423,48.6919 L25.4444552,48.594186 C23.3646057,46.5062569 -10.92083,11.5535 14.3273,1.2909 C40.3553,-9.2901 25.5423,48.6919 25.5423,48.6919 Z" id="Combined-Shape" fill="#2F6858"/><g id="Base" transform="translate(51.000000, 280.998600)"><mask id="objectfloorplant-2-mask-2" fill="#ffffff"><use xlink:href="#objectfloorplant-2-path-1" fill="#ffffff"/></mask><use id="Mask" fill="#E58857" xlink:href="#objectfloorplant-2-path-1"/><path d="M21.8821454,166.976155 C29.6034071,169.861751 37.7851393,172.227187 46.3965987,173.959199 C48.3643527,174.355249 50.3545312,174.717943 52.3667804,175.046212 C53.3957809,175.213799 54.4297732,175.372547 55.4694793,175.522127 C59.4296778,176.092158 63.4734845,176.528949 67.5975009,176.822705 C68.7118205,176.902078 69.8290063,176.970747 70.9490324,177.028605 C72.021164,177.083699 73.0951927,177.129149 74.1717983,177.164614 C74.1844544,177.165321 74.1977965,177.165759 74.211139,177.166195 L75.3194863,177.198609 C93.442461,177.67526 112.290864,175.323008 131.756413,169.705029 C131.852891,169.677185 131.94976,169.65693 132.046382,169.643911 L132.190939,169.630068 C132.192275,169.629987 132.193611,169.629907 132.194947,169.629828 C133.107002,169.575292 133.968339,170.156487 134.232571,171.072013 C134.381,171.586301 134.313772,172.111711 134.084271,172.551545 C134.077118,172.565375 134.069549,172.57948 134.061813,172.593494 L133.990248,172.712992 C133.829049,172.962389 133.612155,173.176802 133.351,173.335519 C133.203123,173.425705 133.040412,173.497984 132.865498,173.548467 L131.919,173.8174 L131.650013,173.89506 L131.650013,173.89506 L130.435922,174.233946 C113.045819,179.027668 96.126901,181.270215 79.7621296,181.258842 C79.3775376,181.258275 78.9935929,181.256765 78.6099548,181.254017 C77.1739056,181.244018 75.7428113,181.216385 74.3160652,181.171611 C72.3478645,181.109564 70.3874765,181.015158 68.4355168,180.888648 L67.3132991,180.812595 L67.3132991,180.812595 L66.158,180.7254 L66.0719918,180.719501 C66.0409249,180.717068 66.0098625,180.714627 65.9788046,180.712178 C63.9456447,180.552126 61.9322948,180.357864 59.9384034,180.130766 L58.7258362,179.988055 C57.5158767,179.841597 56.3131638,179.683038 55.1177678,179.512635 L53.9249337,179.338587 C42.0196812,177.555892 30.8484653,174.5976 20.4817546,170.723345 C19.4470795,170.336665 18.9217753,169.18443 19.3084549,168.149755 L19.3688074,168.005452 L19.3688074,168.005452 L19.3085549,168.149455 C19.3822082,167.952374 19.4836367,167.773773 19.6067376,167.616436 L19.7029314,167.502763 C19.8483931,167.343168 20.0177535,167.209621 20.2031277,167.105717 C20.4003391,166.994839 20.6163336,166.917644 20.8409914,166.878558 L20.9869881,166.858968 C21.0360243,166.85413 21.0853662,166.8511 21.1349182,166.84992 C21.3827785,166.843722 21.6357941,166.884088 21.8821454,166.976155 Z M8.66604521,127.059905 L8.768,127.1094 L9.48978463,127.461357 C13.8996504,129.59426 18.5661762,131.569941 23.4784347,133.348357 L24.4024602,133.679789 C26.4318599,134.399758 28.5025662,135.086054 30.6138229,135.735904 C34.5502808,136.947275 38.6273522,138.032138 42.8404675,138.972366 C43.1693811,139.046048 43.4998449,139.118728 43.831139,139.190513 C48.7498124,140.256011 53.8514019,141.124717 59.1283533,141.768233 C60.8227695,141.974864 62.5242807,142.156626 64.23279,142.313126 L65.2588346,142.404292 C67.6675083,142.610323 70.0900075,142.766153 72.5260622,142.87069 C72.8597618,142.884713 73.1928535,142.898036 73.5261975,142.910399 L74.5671489,142.946153 C76.3032635,143.000039 78.0461825,143.02788 79.7958092,143.029282 L80.8462894,143.026648 C100.121654,142.92558 120.206302,139.616064 140.971358,132.57629 C141.170613,132.508738 141.373113,132.47439 141.572842,132.470277 L141.722126,132.473114 C142.167557,132.497456 142.591353,132.671102 142.925007,132.960236 L143.032693,133.060545 C143.241211,133.270131 143.406283,133.529376 143.50761,133.828258 L143.50771,133.828558 C143.862355,134.874646 143.30183,136.010165 142.255742,136.36481 C121.239574,143.489717 100.880085,146.871695 81.3194144,147.023951 L80.2721863,147.028721 C79.9233989,147.029383 79.574867,147.029018 79.2265914,147.027629 L78.1826346,147.020693 C73.3449311,146.97292 68.5569905,146.727546 63.8209918,146.292437 C63.4507925,146.258137 63.0800126,146.22288 62.7095528,146.186463 L61.6908655,146.083603 C60.6728877,145.977517 59.6573408,145.862663 58.6442467,145.739117 C56.8288368,145.517731 55.0335791,145.270293 53.258763,144.997888 C52.0635499,144.814163 50.8768517,144.619268 49.6995243,144.413368 C45.7721585,143.726781 41.9497806,142.917621 38.2349236,141.998349 C37.2486136,141.754004 36.2698882,141.502173 35.2988037,141.242811 L34.2989888,140.972655 C30.3971392,139.904012 26.6203411,138.713738 22.9726474,137.417023 C21.6487785,136.946145 20.3412943,136.461271 19.051026,135.96309 L18.1458247,135.61056 C14.2351935,134.072193 10.4851352,132.411627 6.90115479,130.649495 C5.90991667,130.162134 5.50144359,128.963493 5.98880462,127.972255 L6.049,127.8594 L6.06306707,127.834348 C6.4317463,127.210996 7.09710711,126.853278 7.78694692,126.853953 C8.08269255,126.854542 8.38283432,126.920659 8.66604521,127.059905 Z M6.4772319,89.1655667 C20.7964789,96.5464164 38.2288465,102.329849 58.3338627,104.879187 C85.7169638,108.351394 114.933234,105.327189 145.579437,94.1650688 C146.617307,93.7870501 147.765112,94.3219659 148.143131,95.3598366 C148.52115,96.3977073 147.986234,97.5455125 146.948363,97.9235312 C115.692487,109.30771 85.8345579,112.398334 57.8306873,108.847413 C37.2332985,106.235641 19.3590591,100.305611 4.6445681,92.7210333 C3.66275309,92.2149572 3.27709052,91.0087831 3.78316665,90.0269681 C4.28924278,89.0451531 5.49541688,88.6594905 6.4772319,89.1655667 Z M2.72307192,41.4769231 L2.87081084,41.4783038 C3.16614839,41.4918004 3.46303683,41.5712595 3.73974434,41.7230186 C4.06442535,41.9010885 4.3910409,42.0784012 4.71958453,42.2549325 C6.75363398,43.3479025 8.86118408,44.4106663 11.0410716,45.4377167 C16.3287349,47.9290011 22.0428417,50.2104707 28.1607494,52.1993806 C33.807286,54.0350226 39.7974903,55.6213886 46.1143838,56.8938109 C49.6230524,57.6006297 53.2332532,58.2106549 56.9413269,58.7126816 C59.7940463,59.098904 62.6664881,59.4145888 65.5582001,59.6578897 C65.851002,59.6824488 66.1433012,59.7062852 66.4357967,59.7293811 L67.3933255,59.8023682 C69.9477973,59.9896811 72.5171483,60.1205223 75.1010695,60.1936294 L76.0704223,60.2182358 C76.717312,60.2328993 77.3651099,60.2439446 78.0138112,60.2513519 L78.9878401,60.2598319 C79.3126419,60.2617141 79.6376689,60.2626843 79.9629205,60.2627402 L80.9390487,60.260062 C103.412369,60.1375548 126.95232,55.6497666 151.36052,45.9869198 C151.605048,45.8901148 151.857237,45.8448712 152.105065,45.845986 L152.253442,45.8522762 C152.668774,45.8851675 153.064757,46.0476549 153.383251,46.314576 C153.430468,46.3543275 153.475753,46.3959949 153.519165,46.4398541 C153.584291,46.5054491 153.644939,46.5758315 153.700787,46.6508324 C153.79811,46.7819329 153.880749,46.926558 153.94555,47.0837619 C153.94926,47.0921218 153.95295,47.1012498 153.95658,47.1104196 C154.363161,48.1374374 153.860198,49.299599 152.83318,49.7061802 C126.289635,60.2143789 100.708189,64.7247998 76.3613557,64.2255309 C74.1948249,64.1810138 72.0379899,64.0969164 69.891124,63.973843 L68.9190816,63.9154959 C68.6162097,63.8964472 68.3135373,63.8766228 68.0110651,63.8560244 C66.0193964,63.7203238 64.0357098,63.5510797 62.0608593,63.3488214 C61.4811124,63.2895117 60.9027316,63.2273556 60.3251146,63.1623743 C59.973966,63.1228061 59.6225003,63.0821889 59.2713187,63.0405273 L58.3145559,62.9244176 C57.6769846,62.8452213 57.0403552,62.7625818 56.4046731,62.6765184 C51.9890048,62.0786923 47.7080167,61.3311268 43.5662909,60.4515233 C40.7952505,59.8629854 38.0867746,59.2154393 35.4419984,58.5140986 C33.79234,58.0766632 32.1671732,57.6181912 30.5671313,57.1400693 C30.2279508,57.038706 29.89003,56.9365101 29.5532405,56.8334441 C29.0711306,56.685912 28.5918004,56.5367348 28.1147932,56.3858139 C27.0406344,56.0459604 25.9778058,55.6971171 24.9268731,55.3398338 C23.7155652,54.9280261 22.5197689,54.5049003 21.3399465,54.0711839 C14.798249,51.6663988 8.74775713,48.9360808 3.21601528,45.9871342 C2.75127112,45.7393213 2.28989323,45.4898632 1.83219803,45.2389235 C1.82723256,45.2362657 1.82159383,45.2331737 1.81595566,45.2300814 C0.847479379,44.6989247 0.49296184,43.4832319 1.02411857,42.5147557 C1.37822306,41.8691048 2.03656578,41.4963245 2.72307192,41.4769231 Z M-2.79290394,5.27216639 C12.5918456,13.8223797 31.9883852,20.7814444 54.8086353,23.9122182 C86.7780402,28.29819 121.035163,24.3930034 157.03695,9.95037597 C158.148905,9.50429916 159.407182,10.0561206 159.847389,11.1829037 C160.287596,12.3096867 159.743036,13.5847416 158.63108,14.0308184 C121.925791,28.7556657 86.9197245,32.7462292 54.2275983,28.2611052 C30.8450316,25.0531856 10.9505392,17.915466 -4.87547185,9.12001771 C-5.9240445,8.53726401 -6.30788188,7.20347793 -5.73279663,6.14092313 C-5.15771138,5.07836833 -3.84147659,4.68941268 -2.79290394,5.27216639 Z" id="Combined-Shape" fill="#F4F0F0" mask="url(#objectfloorplant-2-mask-2)"/></g></g></g></g><g id="Small Tree" transform="translate(731.500000, 855.000000) scale(-1, 1) translate(-731.500000, -855.000000) translate(216.000000, 336.000000) scale(1 1.0048402710551791)"><g id="Small Tree/Pine Trees 1" stroke="none" stroke-width="1" fill="none" fill-rule="evenodd"><g id="Small-Tree" transform="translate(0.000000, 227.000000)"><polygon id="Union" fill="#FFFAF6" points="269.347 0.97 119.612 300.439 163.69 300.439 60.2429 507.36 103.861 507.36 0 715.15 227.98 715.15 227.98 804 325.458 804 325.458 715.15 552.664 715.15 439.113 507.36 492.42 507.36 379.322 300.439 433.05 300.439"/><polygon id="Union_2" fill="#E3D4C5" points="532.969 225.699 425.138 441.36 456.881 441.36 382.384 590.38 413.795 590.38 339 740.02 503.179 740.02 503.179 804 573.378 804 573.378 740.02 737 740.02 655.227 590.38 693.616 590.38 612.168 441.36 650.86 441.36"/></g></g></g><g transform="translate(451.000000, 378.000000) scale(1 1)" id="Master/Holidays Character/Standing"><g id="Master/Holidays Character/Standing" stroke="none" stroke-width="1" fill="none" fill-rule="evenodd"><g id="Holidays Bottom/Standing" transform="translate(0.000000, 443.000000) scale(1 1)"><g id="Holidays Bottom/Standing/Skating" stroke="none" stroke-width="1" fill="none" fill-rule="evenodd"><g id="Ice-Skating" transform="translate(221.000000, -3.000000)"><g id="Skating" transform="translate(16.000000, 0.000000)"><path d="M357.693,478.223 C349.737,474.194 344.191,466.631 342.788,457.849 L331.693,384.036 C300.671,391.328 269.539,394.246 239.471,394.194 L255.399,505.299 C256.418,512.401 262.589,517.635 269.788,517.501 L394.683,515.182 C391.337,497.955 371.238,485.082 357.693,478.223 Z" id="Fill-1" fill="#94C0E9"/><path d="M0.399,479.198 C-1.259,485.538 2.394,492.054 8.682,493.971 L125.405,529.559 C125.948,511.716 113.542,496.638 102.726,486.942 C93.748,478.895 90.742,466.135 95.071,454.901 L126.541,373.24 C88.761,364.944 56.999,354.21 35.275,345.846 L0.399,479.198 Z" id="Fill-3" fill="#94C0E9"/><g id="Skirt" transform="translate(3.000000, 0.000000)" fill="#F3705A"><path d="M95.539,0 C95.539,0 75.981,0 54.233,85.6104 C54.233,85.6104 35.579,240.954 0.935,340.532 C0.935,340.532 166.725,422.404 329.283,383.901 C329.283,383.901 275.419,98.2514 259.43,0 L95.539,0 Z" id="Skirt_2"/></g><g id="Roller-2" transform="translate(245.000000, 404.000000)"><path d="M24.788,113.501 L149.684,111.182 C146.337,93.955 126.239,81.082 112.693,74.223 C104.738,70.194 99.191,62.631 97.788,53.849 L92.13,16.202 C88.866,8.88 82.955,1.014 72.568,0.691 C52.975,0.081 49.301,45.84 49.301,45.84 C24.945,10.784 8.059,24.862 0.853,34.708 L10.399,101.299 C11.418,108.401 17.589,113.635 24.788,113.501 Z" id="Fill-8" fill="#3973B0"/><path d="M98.555,56.242 C98.478,56.24 98.372,56.236 98.238,56.231 C97.922,56.218 97.556,56.199 97.145,56.173 C95.975,56.097 94.673,55.977 93.272,55.802 C89.264,55.302 85.255,54.464 81.503,53.204 C71.345,49.793 64.87,43.954 64.069,35.113 C63.581,29.731 65.914,27.588 70.119,29.044 C73.205,30.113 77.399,33.093 82.492,37.592 C83.928,38.861 85.418,40.237 86.951,41.702 C89.898,44.522 92.863,47.54 95.701,50.558 C96.59,51.503 97.409,52.387 98.145,53.194 C98.434,52.081 98.764,50.858 99.13,49.549 C100.275,45.455 101.545,41.361 102.906,37.535 C106.415,27.678 109.854,21.333 113.386,19.836 C115.503,18.939 117.52,19.792 119.184,22.268 C121.425,25.602 121.556,29.481 119.896,33.707 C118.21,38.003 114.748,42.524 110.036,47.11 C107.671,49.411 105.141,51.581 102.611,53.556 C101.725,54.247 100.902,54.865 100.163,55.401 C99.903,55.589 99.673,55.754 99.473,55.895 C99.393,55.951 99.328,55.996 99.281,56.029 C99.19,56.102 99.086,56.159 98.969,56.196 C98.831,56.243 98.69,56.257 98.555,56.242 Z M94.242,51.921 C91.426,48.927 88.485,45.933 85.566,43.14 C84.052,41.692 82.581,40.334 81.165,39.083 C76.26,34.75 72.226,31.884 69.463,30.927 C66.717,29.976 65.696,30.913 66.061,34.934 C66.776,42.829 72.654,48.129 82.141,51.315 C85.754,52.528 89.636,53.34 93.52,53.825 C94.493,53.946 95.417,54.04 96.278,54.111 C95.651,53.428 94.97,52.695 94.242,51.921 Z M101.378,51.987 C103.854,50.054 106.33,47.931 108.639,45.684 C113.166,41.279 116.471,36.961 118.034,32.981 C119.472,29.319 119.364,26.117 117.522,23.378 C116.349,21.631 115.304,21.189 114.169,21.67 C111.394,22.846 108.081,28.958 104.791,38.202 C103.447,41.979 102.19,46.031 101.056,50.084 C100.789,51.04 100.541,51.951 100.315,52.804 C100.657,52.545 101.012,52.272 101.378,51.987 Z M108.336,72.522 C108.884,72.652 109.423,72.321 109.551,71.786 C109.678,71.253 109.351,70.719 108.819,70.588 C95.944,67.534 82.215,68.787 68.947,72.722 C66.135,73.556 63.574,74.45 61.311,75.344 C60.65,75.606 60.054,75.852 59.527,76.078 L50.258,45.551 C50.098,45.024 49.54,44.726 49.011,44.886 C48.483,45.045 48.184,45.601 48.344,46.128 L57.941,77.738 C58.118,78.321 58.775,78.611 59.328,78.349 C59.443,78.294 59.676,78.188 60.02,78.037 C60.599,77.784 61.278,77.502 62.049,77.197 C64.258,76.323 66.764,75.449 69.517,74.632 C82.479,70.788 95.874,69.566 108.346,72.524 L108.336,72.522 Z" id="Combined-Shape" fill="#94C0E9"/></g><g id="Roller-1" transform="translate(0.000000, 394.000000)"><path d="M8.682,99.971 L125.405,135.559 C125.948,117.716 113.542,102.638 102.726,92.942 C93.748,84.895 90.743,72.134 95.071,60.901 L109.894,22.437 C109.278,13.702 106.158,5.215 97.142,2.081 C70.814,-7.072 53.057,42.959 53.057,42.959 C53.057,42.959 50.608,16.724 40.199,10.013 C34.073,6.063 25.179,11.273 18.249,16.95 L0.399,85.198 C-1.259,91.538 2.394,98.054 8.682,99.971 Z" id="Fill-11" fill="#3973B0"/><path d="M91.781,68.78 C91.708,68.668 91.577,68.46 91.395,68.161 C91.094,67.668 90.76,67.098 90.4,66.46 C89.375,64.639 88.349,62.626 87.392,60.476 C85.135,55.404 83.605,50.374 83.139,45.643 C82.445,38.603 84.172,32.737 88.867,28.556 C92.543,25.281 95.465,25.696 96.785,29.443 C97.752,32.187 97.917,36.783 97.449,42.922 C97.083,47.712 96.348,53.202 95.37,58.996 C95.013,61.115 94.642,63.158 94.273,65.075 C94.23,65.299 94.188,65.515 94.148,65.725 C95.518,64.744 97.024,63.694 98.633,62.607 C103.287,59.46 107.951,56.568 112.345,54.205 C118.008,51.16 122.825,49.21 126.559,48.635 C131.282,47.907 134.374,49.439 135.031,53.512 C136.201,60.775 128.377,65.09 114.751,67.366 C110.088,68.144 105.025,68.627 99.896,68.874 C98.076,68.962 96.369,69.014 94.814,69.038 C94.167,69.048 93.626,69.052 93.201,69.052 C92.77,69.354 92.116,69.296 91.781,68.78 Z M93.398,58.665 C93.043,60.769 92.675,62.797 92.309,64.7 C92.256,64.978 92.204,65.245 92.154,65.501 L92.144,65.484 C91.148,63.715 90.151,61.757 89.221,59.668 C87.043,54.775 85.572,49.938 85.129,45.449 C84.493,38.99 86.036,33.75 90.2,30.042 C92.892,27.644 94.092,27.815 94.898,30.103 C95.745,32.507 95.903,36.896 95.454,42.77 C95.094,47.492 94.367,52.926 93.398,58.665 Z M99.799,66.884 C104.855,66.639 109.844,66.164 114.42,65.4 C127,63.3 133.963,59.459 133.056,53.828 C132.602,51.01 130.617,50.026 126.865,50.604 C123.408,51.137 118.774,53.013 113.295,55.959 C108.968,58.285 104.359,61.144 99.755,64.256 C98.334,65.217 96.993,66.148 95.758,67.027 C97.021,66.999 98.375,66.953 99.799,66.884 Z M59.526,72.89 C57.077,72.485 54.802,72.171 52.759,71.937 C52.183,71.871 51.66,71.815 51.191,71.769 L54.052,43.058 C54.107,42.51 53.706,42.022 53.156,41.968 C52.607,41.913 52.117,42.313 52.062,42.861 L49.101,72.572 C49.046,73.129 49.461,73.622 50.02,73.664 C50.13,73.673 50.349,73.691 50.668,73.721 C51.205,73.772 51.828,73.836 52.53,73.917 C54.541,74.147 56.783,74.456 59.198,74.856 C66.096,75.998 72.993,77.634 79.421,79.849 C87.891,82.768 94.887,86.475 99.901,91.044 C100.309,91.416 100.942,91.387 101.314,90.981 C101.687,90.575 101.659,89.945 101.251,89.574 C96.006,84.795 88.781,80.965 80.074,77.965 C73.53,75.71 66.527,74.05 59.526,72.89 Z" id="Combined-Shape_2" fill="#94C0E9"/></g></g><g id="Group-23" transform="translate(276.000000, 516.000000)" fill="#000"><rect id="Rectangle-7" fill-rule="nonzero" x="21" y="1" width="12" height="17"/><rect id="Rectangle-8" fill-rule="nonzero" x="94" y="0" width="12" height="17"/><path d="M137.973,23.392 C132.641,24.325 126.928,24.819 123.262,24.993 L123.131,25 L0,25 L0,14 L122.867,14 C126.206,13.835 131.37,13.38 136.077,12.557 C138.468,12.139 140.604,11.649 142.271,11.103 C143.8,10.603 155.355,8.089 155.5,8 C155.533,7.98 155.513,7.986 155.5,8 C156.398,9.858 156.113,12.161 154.869,13.808 C153.028,16.247 150.33,19.475 145.691,21.558 C143.333,22.33 140.632,22.927 137.973,23.392 Z" id="Vector-98-(Stroke)"/></g><g id="Group-22" transform="translate(0.000000, 494.000000)" fill="#000"><rect id="Rectangle-7_2" fill-rule="nonzero" transform="translate(31.091255, 10.417874) rotate(17.829500) translate(-31.091255, -10.417874)" x="25.091" y="1.918" width="12" height="17"/><rect id="Rectangle-8_2" fill-rule="nonzero" transform="translate(100.891255, 31.816874) rotate(17.829500) translate(-100.891255, -31.816874)" x="94.891" y="23.317" width="12" height="17"/><path d="M132.481,57.621 C127.119,56.876 121.53,55.597 117.986,54.641 L117.86,54.607 L0.643,16.906 L4.011,6.434 L120.977,44.054 C124.205,44.92 129.261,46.068 133.994,46.726 C136.398,47.059 138.582,47.247 140.336,47.238 C141.944,47.23 153.714,48.375 153.879,48.334 C153.917,48.325 153.896,48.326 153.879,48.334 C154.165,50.378 153.188,52.483 151.5,53.671 C149.001,55.428 145.444,57.675 140.39,58.2384682 C137.909,58.251 135.155,57.992 132.481,57.621 Z" id="Vector-98-(Stroke)_2"/></g></g></g></g><g id="Holidays Head" transform="translate(268.000000, 82.000000) scale(1 1)"><g id="Holidays Head/Elf Hat" stroke="none" stroke-width="1" fill="none" fill-rule="evenodd"><g id="Group-6" transform="translate(11.000000, -5.000000)"><path d="M97.706,55.4370231 C66.152,55.4370231 40.5728,78.1970231 40.5728,106.277023 C40.5728,110.957023 41.296,115.497023 42.6341,119.807023 L15.5001,88.8770231 C14.5001,114.377023 23.0001,135.377023 31.4999,142.877023 C31.4999,142.877023 35.5001,147.377023 42.0001,147.377023 C48.5,147.377023 55,142.877023 55,142.877023 L54.962,142.717023 C55.933,142.097023 57.204,142.127023 58.113,142.907023 C65.833,149.517023 75.63,154.217023 86.554,156.137023 C87.958,156.387023 88.95,157.657023 88.868,159.077023 L87.308,186.877023 L113.747,186.877023 L112.523,164.937023 C112.226,159.757023 115.263,154.897023 120.12,153.047023 C140.533,145.297023 154.839,127.267023 154.839,106.277023 C154.839,78.1970231 129.26,55.4370231 97.706,55.4370231 Z" id="Path" fill="#c68e80"/><path d="M126.425,41.4070231 C45.199,35.2270231 37.6951,84.6770231 37.6951,84.6770231 C37.6951,84.6770231 33.9181,105.537023 43.9731,122.697023 C45.092,124.607023 46.057,126.017023 46.892,127.037023 L49.178,130.437023 C50.365,132.207023 52.384,133.227023 54.511,133.147023 L58.01,133.017023 C60.217,132.817023 61.702,130.667023 61.111,128.527023 L57.057,113.907023 C65.154,104.957023 65.637,82.0170231 65.637,82.0170231 C68.436,83.4170231 71.88,84.4970231 75.734,85.3070231 C113.404,96.5370231 140.071,92.6070231 153.516,88.7970231 C161.543,86.5270231 168.524,81.3370231 172.587,74.0570231 C179.049,62.4670231 178.883,45.4070231 126.425,41.4070231 Z" id="Path" fill="#F2B08F"/><path d="M149.5,44.3770231 L40,114.877023 L16.5,17.8770231 C35.3,16.6770231 111.833,24.8770231 149.5,44.3770231 Z" id="Path" fill="#2F6858" fill-rule="nonzero"/><circle id="Oval" fill="#E58857" fill-rule="nonzero" cx="17.029" cy="21.147" r="17.029"/><path d="M0.0306,22.1770231 C0.0103,21.8370231 0,21.4970231 0,21.1470231 C0,18.8770231 0.4428,16.7170231 1.2466,14.7370231 L5.2982,16.4470231 C7.1282,17.2170231 8.009,19.3070231 7.2826,21.1570231 C6.5336,23.0570231 4.3667,23.9770231 2.4762,23.1970231 L0.0306,22.1770231 Z" id="Path" fill="#583318"/><rect id="Rectangle" fill="#E58857" fill-rule="nonzero" transform="translate(17.012984, 20.709050) rotate(19.230100) translate(-17.012984, -20.709050)" x="13.301" y="1" width="7.424" height="39.418" rx="1"/></g></g></g><g id="Face" transform="translate(351.000000, 173.000000) scale(1 1)"><g id="Face/Santa" stroke="none" stroke-width="1" fill="none" fill-rule="evenodd"><g id="Santa" transform="translate(0.000000, -0.000000)"><path d="M77.5817,22.2237 C77.2573,19.0313 74.4078,16.7062 71.2163,17.0304 L55.2522,18.6494 C52.0607,18.9729 49.7359,21.8228 50.0594,25.0148 C50.3828,28.2067 53.2329,30.532 56.4246,30.2077 L72.3885,28.5887 C75.5802,28.2644 77.9051,25.4144 77.5817,22.2237 Z" id="Path-Copy-2" fill="#F4F0F0"/><path d="M77.5817,22.2237 C77.2573,19.0313 74.4078,16.7062 71.2163,17.0304 L55.2522,18.6494 C52.0607,18.9729 49.7358,21.8228 50.0593,25.0148 C50.3828,28.2067 53.2329,30.532 56.4246,30.2077 L72.3885,28.5888 C75.5802,28.2644 77.9051,25.4145 77.5817,22.2237 Z M72.6916,31.5734 L56.7276,33.1924 C51.8874,33.6841 47.5652,30.1578 47.0746,25.3173 C46.5841,20.477 50.1097,16.1552 54.9496,15.6647 L70.9134,14.0458 C75.7532,13.5541 80.0745,17.08 80.5663,21.9208 C81.0569,26.7601 77.5314,31.0817 72.6916,31.5734 Z" id="Stroke-8-Copy" fill="#010101"/><path d="M71.0646,15.5377 L66.1946,16.3357 L64.9216,30.7527 L72.5396,30.0807 C76.5556,29.6737 79.4816,26.0877 79.0736,22.0717 C78.6666,18.0557 75.0806,15.1307 71.0646,15.5377 Z" id="Fill-10-Copy" fill="#010101"/><path d="M35.3729,30.0146 C38.5718,30.2554 41.3608,27.8574 41.6024,24.6587 C41.8432,21.4597 39.4453,18.6707 36.2464,18.4291 L20.2455,17.2231 C17.0463,16.9822 14.2577,19.3803 14.0169,22.5799 C13.7761,25.779 16.174,28.5677 19.3729,28.8086 L35.3729,30.0146 Z" id="Path-Copy" fill="#F4F0F0"/><path d="M35.3728,30.0146 C38.5717,30.2554 41.3607,27.8574 41.6023,24.6587 C41.8431,21.4597 39.4452,18.6707 36.2463,18.4291 L20.2454,17.2231 C17.0462,16.9823 14.2576,19.3803 14.0168,22.5799 C13.776,25.779 16.1739,28.5678 19.3728,28.8086 L35.3728,30.0146 Z M35.1474,33.0061 L19.1474,31.8001 C14.2964,31.4349 10.6601,27.2059 11.0253,22.3548 C11.3904,17.5029 15.6193,13.8663 20.4708,14.2316 L36.472,15.4376 C41.3229,15.804 44.959,20.033 44.5938,24.8843 C44.2274,29.7352 39.9984,33.3713 35.1474,33.0061 Z" id="Stroke-12-Copy" fill="#010101"/><path d="M36.3587,16.9337 L28.4707,16.3387 L28.6297,30.9347 L35.2597,31.5107 C39.2857,31.8137 42.7947,28.7967 43.0977,24.7707 C43.4007,20.7467 40.3837,17.2367 36.3587,16.9337 Z" id="Fill-14-Copy" fill="#010101"/><g id="Moustache" transform="translate(13.000000, 32.000000)"><path d="M8.1962,15.8133 C4.6524,10.7955 10.6949,8.7751 14.2322,7.0166 C15.4017,-0.592 22.1271,1.9264 25.8462,4.1207 C27.7585,-1.0449 34.491,-0.339 36.5232,3.9857 C40.2555,-1.1241 45.1963,1.7666 47.2001,3.8508 C51.9454,3.7908 53.1651,6.4122 53.1818,7.7304 C58.8721,7.3421 58.229,10.6988 57.1961,12.4258 C62.6061,14.8886 60.8417,19.2351 59.2833,21.1005 C64.7093,24.8288 59.5284,30.0622 56.2597,32.2129 C62.3224,36.2495 55.1816,40.7958 50.8534,42.5644 C54.7216,48.2108 48.0501,50.2462 44.2308,50.5582 C41.8039,58.8154 33.4787,55.1765 29.6194,52.3249 C24.9341,57.1301 18.6772,52.3313 16.1344,49.3312 C12.3861,53.1754 6.6438,49.4511 6.5638,43.1241 C1.1938,43.8247 2.1007,34.2157 3.2254,29.3235 C-3.1737,23.7091 3.873,17.9774 8.1962,15.8133 Z" id="Vector-120" fill="#F4F0F0" fill-rule="nonzero"/><path d="M25,11.9999 C27.9333,15.0184 35.24,19.2443 41,11.9999" id="Vector-121" stroke="#000" stroke-width="2.5" stroke-linecap="round"/></g></g></g></g><g id="Holidays Body" transform="translate(87.000000, 44.000000) scale(1 1)"><g id="Holidays Body/Dialogue" stroke="none" stroke-width="1" fill="none" fill-rule="evenodd"><g id="Scarf" transform="translate(51.000000, 203.000000)"><g id="Body" transform="translate(0.000000, 14.000000)"><path d="M216,1.426 C216,1.426 228.059,26.646 258.033,25.575 C288.007,24.505 295.876,2.322 295.876,2.322 C295.876,2.322 261.13,-2.24 216,1.426 Z M132.052,15.511 C132.052,15.511 132.427,15.367 133.157,15.109 C90.459,24.171 25.4426,40.881 10.6396,61.067 C-11.8443,91.727 2.4636,121.706 42.6627,161.224 C82.862,200.741 126.005,212.494 126.005,212.494 C126.005,212.494 92.882,239.236 92.169,240.66 C90.256,244.486 96.632,248.948 101.094,248.63 C101.094,248.63 88.944,265.086 89.3,269.35 C89.461,271.281 96.95,279.232 109.382,265.205 L106.618,274.567 C105.733,277.565 106.491,280.896 108.805,282.997 C110.89,284.891 113.891,285.748 117.556,281.605 C122.278,276.267 124.077,272.616 125.539,269.651 C126.347,268.012 127.052,266.582 128.091,265.192 C130.648,261.765 139.017,255.299 139.017,255.299 C138.273,256.617 136.952,258.705 135.39,261.173 C130.424,269.024 123.025,280.718 124.049,283.698 C124.512,285.047 127.91,288.38 138.748,280.092 C149.586,271.804 162.934,245.761 162.934,245.761 C162.934,245.761 160.181,271.631 163.369,274.181 C164.431,275.032 166.157,274.775 167.987,274.056 C172.669,272.215 175.972,267.954 176.899,263.01 L183.061,230.152 C187.046,213.5 184.52,195.821 175.452,181.297 C171.262,174.587 165.398,168.002 157.197,162.563 C126.914,142.481 87.387,108.692 87.387,108.692 L166.053,81.212 L165.827,80.095 L132.052,15.511 Z M653.251,190.881 C654.55,192.117 654.325,196.026 653.616,197.445 C651.47,201.737 645.228,204.293 645.228,204.293 C645.228,204.293 652.772,204.532 653.012,207.406 C653.159,209.178 653.027,213.187 649.18,215.668 C642.951,219.684 629.078,223.757 612.895,224.94 C586.716,226.856 543.994,223.541 543.994,223.541 C543.994,223.541 452.408,227.924 406.989,188.559 C406.989,188.559 352.484,136.326 341.129,103.018 L339.938,99.616 L369.867,34.44 C369.767,34.328 369.665,34.219 369.563,34.111 C369.479,34.022 369.395,33.934 369.313,33.843 C390.219,51.621 417.555,82.836 442.563,122.209 L546.75,165.528 L603.18,153.914 C603.18,153.914 624.084,149.715 621.645,157.569 C620.728,160.519 618.524,162.893 615.755,164.265 C610.98,166.632 602.241,170.849 598.782,171.785 C603.449,170.758 610.343,169.26 616.502,167.922 C622.216,166.681 627.299,165.577 629.384,165.113 C630.441,164.878 632.105,164.403 634.045,163.849 C639.986,162.151 648.517,159.713 650.128,161.178 C652.751,163.562 652.449,170.89 648.012,173.541 C648.012,173.541 655.374,171.67 656.289,174.748 C657.795,179.81 654.329,186.211 645.588,189.444 C645.588,189.444 650.89,188.633 653.251,190.881 Z" id="Skin" fill="#c68e80"/><path d="M216,1.426 C216,1.426 228.059,26.646 258.033,25.575 C286.633,24.554 295.108,4.31 295.825,2.457 C325.481,6.041 349.868,14.797 369.867,34.44 L356.639,63.246 L339.265,101.081 L359.064,196.512 C359.064,196.512 280.598,227.311 184,201.409 C183.635,201.077 182.869,198.93 181.848,196.07 C180.077,191.104 177.538,183.99 175,180.5 L171.27,175.5 L165.894,81.267 L87.387,108.691 C87.387,108.691 126.914,142.48 157.197,162.562 L116.5,214 C116.5,214 82.862,200.74 42.6627,161.223 C2.4636,121.705 -11.8443,91.726 10.6396,61.066 C25.4426,40.88 90.459,24.17 133.157,15.108 C132.427,15.366 132.052,15.511 132.052,15.511 C132.052,15.511 164.074,4.522 219.068,1.188 C218.051,1.263 217.028,1.342 216,1.426 Z M219.068,1.188 C262.695,-2.035 295.876,2.322 295.876,2.322 C295.876,2.322 295.859,2.368 295.825,2.457 C281.928,0.778 266.875,0.235 250.574,0.24 C239.378,0.243 228.859,0.594 219.068,1.188 Z M356.639,63.246 L339.938,99.616 L341.129,103.018 C352.484,136.326 406.989,188.559 406.989,188.559 C452.408,227.924 536.5,229 536.5,229 L542,163 L442.563,122.209 C417.555,82.836 390.219,51.621 369.313,33.843 C369.395,33.933 369.478,34.021 369.561,34.109 L369.563,34.111 C369.665,34.219 369.768,34.328 369.867,34.44 L356.639,63.246 Z" id="Exclude" fill="#F3705A"/><path d="M590.277,191.961 C591.122,186.361 591.268,180.448 591.013,175.129 C590.998,174.806 590.981,174.506 590.965,174.23 L605.315,170.941 C605.854,170.818 606.19,170.281 606.067,169.743 C605.943,169.205 605.407,168.868 604.868,168.992 L589.685,172.472 C589.2,172.583 588.871,173.034 588.912,173.53 C588.918,173.603 588.93,173.751 588.944,173.967 C588.968,174.33 588.993,174.751 589.015,175.225 C589.265,180.423 589.122,186.214 588.299,191.662 C587.675,195.794 586.697,199.361 585.324,202.188 C585.083,202.684 585.29,203.283 585.787,203.524 C586.284,203.765 586.882,203.558 587.123,203.061 C588.596,200.029 589.625,196.277 590.277,191.961 Z M605.737,184.385 C605.765,184.937 606.235,185.361 606.787,185.333 C618.808,184.723 643.737,177.97 649.552,173.512 C649.991,173.176 650.073,172.549 649.737,172.11 C649.401,171.672 648.774,171.589 648.335,171.925 C642.901,176.091 618.339,182.744 606.685,183.336 C606.134,183.364 605.709,183.834 605.737,184.385 Z M646.545,189.155 C646.385,188.626 645.827,188.327 645.299,188.487 C645.17,188.526 644.915,188.6 644.543,188.705 C643.919,188.881 643.196,189.078 642.38,189.29 C640.047,189.896 637.451,190.502 634.658,191.067 C626.996,192.62 619.353,193.577 612.234,193.647 C611.637,193.653 611.045,193.652 610.459,193.645 C609.907,193.638 609.454,194.081 609.446918,194.633 C609.44,195.185 609.883,195.638 610.435,195.645 C611.036,195.652 611.642,195.653 612.253,195.647 C619.515,195.576 627.279,194.603 635.056,193.028 C637.885,192.454 640.517,191.84 642.883,191.225 C643.712,191.01 644.45,190.81 645.086,190.63 C645.471,190.522 645.737,190.444 645.877,190.401 C646.406,190.241 646.705,189.683 646.545,189.155 Z M644.914,203.343 C645.439,203.17 646.004,203.454 646.178,203.978 C646.351,204.503 646.067,205.068 645.543,205.242 C645.447,205.274 645.267,205.331 645.008,205.412 C644.58,205.544 644.086,205.691 643.53,205.849 C641.945,206.301 640.185,206.752 638.295,207.172 C633.24,208.298 628.199,209.006 623.477,209.092 C619.804,209.158 616.461,208.84 613.522,208.082 C612.987,207.944 612.665,207.399 612.803,206.864 C612.941,206.329 613.487,206.007 614.021,206.145 C616.769,206.854 619.936,207.155 623.44,207.092 C628.012,207.009 632.926,206.319 637.861,205.22 C639.711,204.808 641.433,204.367 642.982,203.926 C643.523,203.772 644.003,203.629 644.417,203.501 L644.517,203.47 L644.588,203.448 C644.742,203.399 644.852,203.364 644.914,203.343 Z M130.776,239.422 C131.225,239.101 131.85,239.205 132.171,239.655 C132.492,240.104 132.388,240.729 131.938,241.05 C130.869,241.814 129.84,242.436 128.182,243.363 C122.564,246.501 120.592,247.879 117.196,251.675 C116.579,252.365 115.554,254.172 114.293,256.747 C114.048,257.249 113.795,257.776 113.536,258.326 C112.787,259.914 112.02,261.618 111.277,263.321 C111.017,263.918 110.779,264.472 110.568,264.969 C110.441,265.266 110.352,265.479 110.305,265.591 C110.092,266.1 109.506,266.341 108.996,266.128 C108.487,265.915 108.246,265.329 108.459,264.819 C108.508,264.703 108.599,264.487 108.727,264.186 C108.941,263.684 109.182,263.124 109.444,262.522 C110.194,260.802 110.968,259.081 111.726,257.473 C111.99,256.914 112.247,256.378 112.497,255.867 C113.845,253.116 114.919,251.221 115.706,250.341 C119.287,246.339 121.409,244.856 127.207,241.617 C128.806,240.724 129.78,240.133 130.776,239.422 Z M100.337,249.283 C100.698,249.701 101.329,249.747 101.747,249.387 C101.889,249.264 102.155,249.034 102.526,248.712 C103.145,248.175 103.835,247.574 104.577,246.926 C106.699,245.072 108.821,243.201 110.802,241.431 L111.109,241.157 L111.294,240.991 C115.647,237.09 118.581,234.331 119.599,233.11 C119.953,232.685 119.895,232.055 119.471,231.701 C119.046,231.348 118.416,231.405 118.062,231.83 C117.136,232.942 114.216,235.688 109.959,239.501 L109.853,239.596 L109.469,239.94 C107.494,241.705 105.378,243.571 103.261,245.42 C102.521,246.067 101.833,246.666 101.215,247.201 C100.845,247.523 100.581,247.751 100.44,247.873 C100.022,248.234 99.976,248.865 100.337,249.283 Z M139.812,255.905 C139.477,256.344 138.85,256.429 138.411,256.093 C137.971,255.758 137.887,255.131 138.222,254.692 L144.842,246.017 C145.177,245.578 145.805,245.494 146.244,245.829 C146.683,246.164 146.767,246.791 146.432,247.23 L139.812,255.905 Z M125.063,212.831 C125.249,213.351 125.822,213.621 126.342,213.435 L135.376,210.2 C135.896,210.014 136.166,209.442 135.98,208.922 C135.794,208.402 135.221,208.131 134.701,208.317 L125.667,211.552 C125.147,211.739 124.877,212.311 125.063,212.831 Z" id="Skin-Shadows" fill="#D7A17C"/></g><path d="M87.716,121.747 C88.238,121.929 88.513,122.499 88.331,123.02 C88.15,123.542 87.579,123.817 87.058,123.635 L74.818,119.367 C74.297,119.186 74.021,118.615 74.203,118.094 C74.385,117.572 74.955,117.297 75.476,117.479 L87.716,121.747 Z" id="Stroke-27" fill="#F2B08F" fill-rule="nonzero"/><path d="M200.487,155.27 C195.406,134.549 203.208,61.325 207.745,27.303 C220.972,20.395 247.065,25.505 244.775,29.101 C236.385,42.277 253.305,185.791 245.944,191.273 C238.582,196.756 206.838,181.172 200.487,155.27 Z" id="Vector-109" fill="#2F6858" fill-rule="nonzero"/><path d="M245.64,119.688 C238.007,99.765 236.71,53.138 236.956,18.817 C249.215,10.308 274.835,17.17 273.013,21.024 C266.337,35.146 295.487,98.69 293.966,109.584 C292.997,116.523 252.243,136.924 245.64,119.688 Z" id="Vector-114" fill="#2F6858" fill-rule="nonzero"/><path d="M201.87,142.49 C202.088,152.04 207.5,181.5 206.051,186.819" id="Vector-110" stroke="#2F6858" stroke-width="6" stroke-linecap="round"/><path d="M250.488,98 C250.706,107.55 256.118,137.01 254.669,142.329" id="Vector-115" stroke="#2F6858" stroke-width="6" stroke-linecap="round"/><path d="M214.492,154.984 C214.71,164.534 216.5,188.5 217.676,194.904" id="Vector-111" stroke="#2F6858" stroke-width="6" stroke-linecap="round"/><path d="M264.755,99 C264.973,108.55 269.284,132.5 267.285,140.5" id="Vector-116" stroke="#2F6858" stroke-width="6" stroke-linecap="round"/><path d="M227.896,157.296 C228.114,166.846 231.512,196.656 230.979,204.286" id="Vector-112" stroke="#2F6858" stroke-width="6" stroke-linecap="round"/><path d="M275.904,88 C276.122,97.55 279.52,127.36 278.987,134.99" id="Vector-117" stroke="#2F6858" stroke-width="6" stroke-linecap="round"/><path d="M243.51,168.397 C243.728,177.947 243.414,195.127 245.921,202.871" id="Vector-113" stroke="#2F6858" stroke-width="6" stroke-linecap="round"/><path d="M284.357,87 C286.218,96.369 293,107 291.5,124" id="Vector-118" stroke="#2F6858" stroke-width="6" stroke-linecap="round"/><path d="M190.5,26 C189.3,5.2 198,0.667 202.5,1 C233.667,1 298.3,2.3 307.5,7.5 C319,14 308,38.5 301,48 C294,57.5 192,52 190.5,26 Z" id="Vector-108" fill="#2F6858" fill-rule="nonzero"/><path d="M443.355,135.482 C443.641,135.954 443.491,136.569 443.018,136.855 L426.518,146.855 C426.046,147.141 425.431,146.991 425.145,146.518 C424.858,146.046 425.009,145.431 425.482,145.145 L441.982,135.145 C442.454,134.858 443.069,135.009 443.355,135.482 Z" id="Vector-119-(Stroke)" fill="#F2B08F"/></g></g></g></g></g><g id="Ornaments" transform="translate(-0.000000, 0.000000) scale(1 1)"><g id="Ornaments/Ornaments 2" stroke="none" stroke-width="1" fill="none" fill-rule="evenodd"><g id="Clipped" transform="translate(36.000000, 0.000000)" fill-rule="nonzero"><g id="Group"><path d="M1163.75337,2.52568909 L1167.24663,4.47431091 C1088.97014,144.799239 992.639874,236.661293 880.743413,284.231204 C781.287046,326.512529 670.968394,333.212543 552.532289,308.708521 C450.839643,287.668663 345.436127,244.096351 239.816904,182.839453 C154.67106,133.456679 72.6813446,74.4156777 0.874782633,13.3719496 L-1.29804957,11.5215345 L1.29804957,8.47846548 C73.4462064,70.0294081 156.037949,129.625378 241.823721,179.379297 C347.096653,240.435353 452.111965,283.847187 553.342711,304.791479 C671.026531,329.139856 780.526047,322.489591 879.178462,280.550046 C989.105736,233.817284 1083.97605,143.928424 1161.41216,6.69866167 L1163.75337,2.52568909 Z" id="Path" fill="#B9B3B8"/><path d="M608.777646,5.65737495 C714.153079,50.1291242 824.790447,92.1362197 940.287074,129.997949 C1084.93763,177.416826 1228.7039,215.456142 1369.42945,241.721451 C1533.45881,272.336232 1689.16901,286.137734 1834.1038,280.634253 C1995.31623,274.512675 2140.87573,244.572056 2268.32825,188.384329 L2272.1849,186.673634 L2273.8151,190.326366 C2144.94528,247.84049 1997.57856,278.429653 1834.25558,284.631372 C1689.00137,290.146982 1532.99998,276.31967 1368.69555,245.653549 C1227.78492,219.353696 1083.85047,181.269878 939.041051,133.798926 C825.06134,96.4344671 715.814483,55.0385878 611.682041,11.221958 L607.222354,9.34262505 L608.777646,5.65737495 Z" id="Path" fill="#B9B3B8"/><path d="M2133.7588,-0.983975411 L2137.2412,0.983975411 C2118.48748,34.1698339 2099.45289,64.9888045 2077.67628,96.2070804 C2049.61997,136.427743 2019.39556,173.680914 1986.52361,207.352861 C1903.82846,292.060554 1810.45465,348.155189 1705.15093,366.922972 C1649.50804,376.840127 1592.39254,369.125233 1535.63989,345.767166 C1484.65309,324.78219 1434.8962,291.49695 1389.28389,249.202801 C1307.72914,173.580927 1245.61066,73.6628266 1234.83158,5.83252744 L1234.52069,3.78694373 L1238.47931,3.21305627 C1248.16856,70.0485473 1310.24088,170.454976 1392.00361,246.269699 C1437.28352,288.25562 1486.64547,321.276663 1537.1623,342.068209 C1593.24269,365.149588 1649.59563,372.761481 1704.44908,362.985027 C1808.84568,344.378917 1901.50723,288.712173 1983.66139,204.558639 C2016.37029,171.053702 2046.45829,133.968669 2074.3956,93.9186071 C2095.53618,63.6121174 2114.08824,33.674989 2132.32006,1.55629018 L2133.7588,-0.983975411 Z" id="Path" fill="#B9B3B8"/><circle id="Oval" fill="#F3705A" cx="18" cy="46" r="17"/><circle id="Oval" fill="#5BA092" cx="172" cy="157" r="17"/><circle id="Oval" fill="#F2B08F" cx="356" cy="258" r="17"/><circle id="Oval" fill="#F3705A" cx="563" cy="327" r="17"/><circle id="Oval" fill="#5BA092" cx="813" cy="318" r="17"/><circle id="Oval" fill="#F2B08F" cx="1008" cy="224" r="17"/><circle id="Oval" fill="#F3705A" cx="1165" cy="37" r="17"/><circle id="Oval" fill="#F2B08F" cx="620" cy="29" r="17"/><circle id="Oval" fill="#F3705A" cx="890" cy="131" r="17"/><circle id="Oval" fill="#5BA092" cx="1191" cy="220" r="17"/><circle id="Oval" fill="#F2B08F" cx="1253" cy="97" r="17"/><circle id="Oval" fill="#F3705A" cx="1389" cy="267" r="17"/><circle id="Oval" fill="#5BA092" cx="1634" cy="385" r="17"/><circle id="Oval" fill="#F2B08F" cx="1899" cy="301" r="17"/><circle id="Oval" fill="#F3705A" cx="2060" cy="148" r="17"/><circle id="Oval" fill="#F2B08F" cx="1500" cy="277" r="17"/><circle id="Oval" fill="#E74B33" cx="1773" cy="301" r="17"/><circle id="Oval" fill="#5BA092" cx="2043" cy="277" r="17"/><circle id="Oval" fill="#F2B08F" cx="2247" cy="220" r="17"/></g></g></g></g><g id="Floating Object" transform="translate(109.000000, 483.000000) scale(1 1)"><g id="Floating Object/Snow Flakes 1" stroke="none" stroke-width="1" fill="none" fill-rule="evenodd"><g id="Group-17" transform="translate(0.000000, 36.000000)" fill-rule="nonzero"><g id="Group-13"><path d="M98,25.93025 C101.276043,25.93025 103.945899,28.5256497 104.065563,31.7724468 L104.06975,32 L104.069,54.918 L117.820031,40.0228967 C120.093844,37.5597237 123.93393,37.4062174 126.397103,39.6800308 C128.797118,41.8955413 129.004392,45.5980326 126.910092,48.0649623 L126.739969,48.2571033 L104.069,72.815 L104.069,86.135 L113.93772,76.2663568 C116.307929,73.8957963 120.151083,73.8955113 122.521643,76.2657204 C124.83142,78.5751549 124.890916,82.2829662 122.699928,84.6644375 L122.52228,84.8496432 L104.069,103.305 L104.06975,129.116 C104.06975,132.46823 101.35223,135.18575 98,135.18575 C94.7239567,135.18575 92.0541015,132.59035 91.9344366,129.343553 L91.93025,129.116 L91.93,103.305 L73.4777204,84.8496432 C71.1075113,82.4790826 71.1077963,78.6359295 73.4783568,76.2657204 C75.7881338,73.9562859 79.4959539,73.8973402 81.8771003,76.0886811 L82.0622796,76.2663568 L91.93,86.135 L91.93,72.815 L69.2600308,48.2571033 C66.9862174,45.7939304 67.1397237,41.9538442 69.6028967,39.6800308 C72.0029114,37.4645203 75.7101336,37.5534474 78.0020208,39.8379794 L78.1799692,40.0228967 L91.93,54.918 L91.93025,32 C91.93025,28.6477696 94.6477696,25.93025 98,25.93025 Z" id="Shape" fill="#94C0E9"/><path d="M98,102.81425 C101.276043,102.81425 103.945899,105.40965 104.065563,108.656447 L104.06975,108.884 L104.069,134.694 L122.522067,153.148145 C124.892394,155.518588 124.892299,159.361741 122.521855,161.732067 C120.212193,164.041616 116.504375,164.100745 114.123121,161.909522 L113.937933,161.731855 L104.069,151.863 L104.069,165.186 L126.739813,189.742728 C129.01372,192.205814 128.860359,196.045906 126.397272,198.319813 C123.997342,200.535415 120.290116,200.446628 117.998142,198.162183 L117.820187,197.977272 L104.069,183.082 L104.06975,206 C104.06975,209.35223 101.35223,212.06975 98,212.06975 C94.7239567,212.06975 92.0541015,209.47435 91.9344366,206.227553 L91.93025,206 L91.93,183.082 L78.1798131,197.977272 C75.9059064,200.440359 72.0658144,200.59372 69.6027276,198.319813 C67.2027969,196.104212 66.9956633,192.401713 69.0900565,189.934862 L69.2601869,189.742728 L91.93,165.186 L91.93,151.863 L82.0620675,161.731855 C79.6917412,164.102299 75.8485881,164.102394 73.4781447,161.732067 C71.1684819,159.422519 71.1091696,155.714705 73.3002751,153.333342 L73.4779325,153.148145 L91.93,134.694 L91.93025,108.884 C91.93025,105.53177 94.6477696,102.81425 98,102.81425 Z" id="Shape" fill="#94C0E9"/><path d="M59.08,153.69025 C62.3560433,153.69025 65.0258985,156.28565 65.1455634,159.532447 L65.14975,159.76 L65.14975,182.2 C65.14975,185.55223 62.4322304,188.26975 59.08,188.26975 C55.8039567,188.26975 53.1341015,185.67435 53.0144366,182.427553 L53.01025,182.2 L53.01,165.829 L36.64,165.82975 C33.3639567,165.82975 30.6941015,163.23435 30.5744366,159.987553 L30.57025,159.76 C30.57025,156.483957 33.1656497,153.814101 36.4124468,153.694437 L36.64,153.69025 L59.08,153.69025 Z" id="Path" fill="#94C0E9"/><path d="M162,153.69025 C165.35223,153.69025 168.06975,156.40777 168.06975,159.76 C168.06975,163.036043 165.47435,165.705899 162.227553,165.825563 L162,165.82975 L145.639,165.829 L145.63975,182.2 C145.63975,185.476043 143.04435,188.145899 139.797553,188.265563 L139.57,188.26975 C136.293957,188.26975 133.624101,185.67435 133.504437,182.427553 L133.50025,182.2 L133.50025,159.76 C133.50025,156.483957 136.09565,153.814101 139.342447,153.694437 L139.57,153.69025 L162,153.69025 Z" id="Path" fill="#94C0E9"/><path d="M57.72,42.11625 C60.9960433,42.11625 63.6658985,44.7116497 63.7855634,47.9584468 L63.78975,48.186 L63.78975,70.624 C63.78975,73.9000433 61.1943503,76.5698985 57.9475532,76.6895634 L57.72,76.69375 L35.28,76.69375 C31.9277696,76.69375 29.21025,73.9762304 29.21025,70.624 C29.21025,67.3479567 31.8056497,64.6781015 35.0524468,64.5584366 L35.28,64.55425 L51.65,64.554 L51.65025,48.186 C51.65025,44.9099567 54.2456497,42.2401015 57.4924468,42.1204366 L57.72,42.11625 Z" id="Path" fill="#94C0E9"/><path d="M140.93,42.11625 C144.206043,42.11625 146.875899,44.7116497 146.995563,47.9584468 L146.99975,48.186 L146.999,64.554 L163.37,64.55425 C166.646043,64.55425 169.315899,67.1496497 169.435563,70.3964468 L169.43975,70.624 C169.43975,73.9000433 166.84435,76.5698985 163.597553,76.6895634 L163.37,76.69375 L140.93,76.69375 C137.653957,76.69375 134.984101,74.0983503 134.864437,70.8515532 L134.86025,70.624 L134.86025,48.186 C134.86025,44.8337696 137.57777,42.11625 140.93,42.11625 Z" id="Path" fill="#94C0E9"/><path d="M27.0650427,90.0909759 L27.2571808,90.2611023 L51.813,112.93 L65.138,112.93 L55.2677204,103.058643 C52.8975113,100.688083 52.8977963,96.8449295 55.2683568,94.4747204 C57.5781338,92.1652859 61.2859539,92.1063402 63.6671003,94.2976811 L63.8522796,94.4753568 L82.304,112.93 L108.12,112.93025 C111.47223,112.93025 114.18975,115.64777 114.18975,119 C114.18975,122.276043 111.59435,124.945899 108.347553,125.065563 L108.12,125.06975 L82.304,125.069 L63.8522796,143.524643 C61.4820705,145.895204 57.6389174,145.895489 55.2683568,143.52528 C52.9585799,141.215845 52.8990843,137.508034 55.0900722,135.126563 L55.2677204,134.941357 L65.138,125.069 L51.813,125.069 L27.2571808,147.738898 C24.7940473,150.012754 20.9539585,149.859314 18.6801023,147.396181 C16.4645502,144.996205 16.5534129,141.288981 18.837905,138.997054 L19.0228192,138.819102 L33.917,125.069 L11,125.06975 C7.64776964,125.06975 4.93025,122.35223 4.93025,119 C4.93025,115.723957 7.5256497,113.054101 10.7724468,112.934437 L11,112.93025 L33.917,112.93 L19.0228192,99.1808977 C16.5596857,96.9070415 16.4062462,93.0669527 18.6801023,90.6038192 C20.8373505,88.2670003 24.404311,88.0090577 26.8677706,89.9304127 L27.0650427,90.0909759 Z" id="Shape" fill="#94C0E9"/><path d="M140.73228,134.941357 C143.102489,137.311917 143.102204,141.155071 140.731643,143.52528 C138.421866,145.834714 134.714046,145.89366 132.3329,143.702319 L132.14772,143.524643 L113.695,125.069 L87.88,125.06975 C84.5277696,125.06975 81.81025,122.35223 81.81025,119 C81.81025,115.723957 84.4056497,113.054101 87.6524468,112.934437 L87.88,112.93025 L113.695,112.93 L132.14772,94.4753568 C134.517929,92.1047963 138.361083,92.1045113 140.731643,94.4747204 C143.04142,96.7841549 143.100916,100.491966 140.909928,102.873437 L140.73228,103.058643 L130.861,112.93 L144.186,112.93 L168.742819,90.2611023 C171.205953,87.9872462 175.046041,88.1406857 177.319898,90.6038192 C179.53545,93.0037954 179.446587,96.7110192 177.162095,99.0029461 L176.977181,99.1808977 L162.082,112.93 L185,112.93025 C188.35223,112.93025 191.06975,115.64777 191.06975,119 C191.06975,122.276043 188.47435,124.945899 185.227553,125.065563 L185,125.06975 L162.082,125.069 L176.977181,138.819102 C179.440314,141.092959 179.593754,144.933047 177.319898,147.396181 C175.104345,149.796157 171.401851,150.003367 168.934957,147.909024 L168.742819,147.738898 L144.186,125.069 L130.861,125.069 L140.73228,134.941357 Z" id="Shape" fill="#94C0E9"/><path d="M229,178.32558 C231.509899,178.32558 233.557776,180.303737 233.66961,182.786032 L233.67442,183 L233.674,200.647 L244.26587,189.17873 C246.017315,187.282112 248.974653,187.164426 250.87127,188.91587 C252.710415,190.614241 252.876808,193.446528 251.288205,195.345992 L251.13413,195.52127 L233.674,214.428 L233.674,224.694 L241.274686,217.094686 C243.10016,215.269211 246.05984,215.269211 247.885314,217.094686 C249.653743,218.863114 249.709006,221.695967 248.051104,223.530922 L247.885314,223.705314 L233.674,237.916 L233.67442,257.79 C233.67442,260.371611 231.581611,262.46442 229,262.46442 C226.490101,262.46442 224.442224,260.486263 224.33039,258.003968 L224.32558,257.79 L224.325,237.916 L210.114686,223.705314 C208.289211,221.87984 208.289211,218.92016 210.114686,217.094686 C211.883114,215.326257 214.715967,215.270994 216.550922,216.928896 L216.725314,217.094686 L224.325,224.694 L224.325,214.428 L206.86587,195.52127 C205.114426,193.624653 205.232112,190.667315 207.12873,188.91587 C208.967874,187.2175 211.804427,187.276696 213.571649,189.011213 L213.73413,189.17873 L224.325,200.647 L224.32558,183 C224.32558,180.418389 226.418389,178.32558 229,178.32558 Z" id="Shape" fill="#3973B0"/><path d="M229,237.53558 C231.509899,237.53558 233.557776,239.513737 233.66961,241.996032 L233.67442,242.21 L233.674,262.083 L247.885314,276.294686 C249.710789,278.12016 249.710789,281.07984 247.885314,282.905314 C246.116886,284.673743 243.284033,284.729006 241.449078,283.071104 L241.274686,282.905314 L233.674,275.305 L233.674,285.571 L251.13413,304.47873 C252.885574,306.375347 252.767888,309.332685 250.87127,311.08413 C249.032126,312.7825 246.195573,312.723304 244.428351,310.988787 L244.26587,310.82127 L233.674,299.352 L233.67442,317 C233.67442,319.581611 231.581611,321.67442 229,321.67442 C226.490101,321.67442 224.442224,319.696263 224.33039,317.213968 L224.32558,317 L224.325,299.352 L213.73413,310.82127 C211.982685,312.717888 209.025347,312.835574 207.12873,311.08413 C205.289585,309.385759 205.123192,306.553472 206.711795,304.654008 L206.86587,304.47873 L224.325,285.571 L224.325,275.305 L216.725314,282.905314 C214.89984,284.730789 211.94016,284.730789 210.114686,282.905314 C208.346257,281.136886 208.290994,278.304033 209.948896,276.469078 L210.114686,276.294686 L224.325,262.083 L224.32558,242.21 C224.32558,239.628389 226.418389,237.53558 229,237.53558 Z" id="Shape" fill="#3973B0"/><path d="M199.02,276.71558 C201.529899,276.71558 203.577776,278.693737 203.68961,281.176032 L203.69442,281.39 L203.69442,298.67 C203.69442,301.251611 201.601611,303.34442 199.02,303.34442 C196.510101,303.34442 194.462224,301.366263 194.35039,298.883968 L194.34558,298.67 L194.345,286.064 L181.74,286.06442 C179.230101,286.06442 177.182224,284.086263 177.07039,281.603968 L177.06558,281.39 C177.06558,278.880101 179.043737,276.832224 181.526032,276.72039 L181.74,276.71558 L199.02,276.71558 Z" id="Path" fill="#3973B0"/><path d="M278.29,276.71558 C280.871611,276.71558 282.96442,278.808389 282.96442,281.39 C282.96442,283.899899 280.986263,285.947776 278.503968,286.05961 L278.29,286.06442 L265.684,286.064 L265.68442,298.67 C265.68442,301.179899 263.706263,303.227776 261.223968,303.33961 L261.01,303.34442 C258.500101,303.34442 256.452224,301.366263 256.34039,298.883968 L256.33558,298.67 L256.33558,281.39 C256.33558,278.880101 258.313737,276.832224 260.796032,276.72039 L261.01,276.71558 L278.29,276.71558 Z" id="Path" fill="#3973B0"/><path d="M197.98,190.79558 C200.489899,190.79558 202.537776,192.773737 202.64961,195.256032 L202.65442,195.47 L202.65442,212.74 C202.65442,215.249899 200.676263,217.297776 198.193968,217.40961 L197.98,217.41442 L180.7,217.41442 C178.118389,217.41442 176.02558,215.321611 176.02558,212.74 C176.02558,210.230101 178.003737,208.182224 180.486032,208.07039 L180.7,208.06558 L193.305,208.065 L193.30558,195.47 C193.30558,192.960101 195.283737,190.912224 197.766032,190.80039 L197.98,190.79558 Z" id="Path" fill="#3973B0"/><path d="M262.06,190.79558 C264.569899,190.79558 266.617776,192.773737 266.72961,195.256032 L266.73442,195.47 L266.734,208.065 L279.34,208.06558 C281.849899,208.06558 283.897776,210.043737 284.00961,212.526032 L284.01442,212.74 C284.01442,215.249899 282.036263,217.297776 279.553968,217.40961 L279.34,217.41442 L262.06,217.41442 C259.550101,217.41442 257.502224,215.436263 257.39039,212.953968 L257.38558,212.74 L257.38558,195.47 C257.38558,192.888389 259.478389,190.79558 262.06,190.79558 Z" id="Path" fill="#3973B0"/><path d="M174.345992,227.711795 L174.52127,227.86587 L193.428,245.325 L203.694,245.325 L196.094686,237.725314 C194.269211,235.89984 194.269211,232.94016 196.094686,231.114686 C197.863114,229.346257 200.695967,229.290994 202.530922,230.948896 L202.705314,231.114686 L216.916,245.325 L236.79,245.32558 C239.371611,245.32558 241.46442,247.418389 241.46442,250 C241.46442,252.509899 239.486263,254.557776 237.003968,254.66961 L236.79,254.67442 L216.916,254.674 L202.705314,268.885314 C200.87984,270.710789 197.92016,270.710789 196.094686,268.885314 C194.326257,267.116886 194.270994,264.284033 195.928896,262.449078 L196.094686,262.274686 L203.694,254.674 L193.428,254.674 L174.52127,272.13413 C172.624653,273.885574 169.667315,273.767888 167.91587,271.87127 C166.2175,270.032126 166.276696,267.195573 168.011213,265.428351 L168.17873,265.26587 L179.647,254.674 L162,254.67442 C159.418389,254.67442 157.32558,252.581611 157.32558,250 C157.32558,247.490101 159.303737,245.442224 161.786032,245.33039 L162,245.32558 L179.647,245.325 L168.17873,234.73413 C166.282112,232.982685 166.164426,230.025347 167.91587,228.12873 C169.561166,226.347059 172.270617,226.135225 174.165247,227.568002 L174.345992,227.711795 Z" id="Shape" fill="#3973B0"/><path d="M261.905314,262.274686 C263.730789,264.10016 263.730789,267.05984 261.905314,268.885314 C260.136886,270.653743 257.304033,270.709006 255.469078,269.051104 L255.294686,268.885314 L241.083,254.674 L221.21,254.67442 C218.628389,254.67442 216.53558,252.581611 216.53558,250 C216.53558,247.490101 218.513737,245.442224 220.996032,245.33039 L221.21,245.32558 L241.083,245.325 L255.294686,231.114686 C257.12016,229.289211 260.07984,229.289211 261.905314,231.114686 C263.673743,232.883114 263.729006,235.715967 262.071104,237.550922 L261.905314,237.725314 L254.305,245.325 L264.571,245.325 L283.47873,227.86587 C285.375347,226.114426 288.332685,226.232112 290.08413,228.12873 C291.7825,229.967874 291.723304,232.804427 289.988787,234.571649 L289.82127,234.73413 L278.352,245.325 L296,245.32558 C298.581611,245.32558 300.67442,247.418389 300.67442,250 C300.67442,252.509899 298.696263,254.557776 296.213968,254.66961 L296,254.67442 L278.352,254.674 L289.82127,265.26587 C291.717888,267.017315 291.835574,269.974653 290.08413,271.87127 C288.385759,273.710415 285.553472,273.876808 283.654008,272.288205 L283.47873,272.13413 L264.571,254.674 L254.305,254.674 L261.905314,262.274686 Z" id="Shape" fill="#3973B0"/><circle id="Oval" fill="#94C0E9" cx="233" cy="128" r="15"/><circle id="Oval" fill="#94C0E9" cx="113" cy="314" r="23"/><circle id="Oval" fill="#3973B0" cx="271" cy="59" r="23"/><circle id="Oval" fill="#94C0E9" cx="193.5" cy="34.5" r="13.5"/><circle id="Oval" fill="#94C0E9" cx="328.5" cy="300.5" r="13.5"/><circle id="Oval" fill="#3973B0" cx="10.5" cy="10.5" r="10.5"/><circle id="Oval" fill="#3973B0" cx="69.5" cy="264.5" r="14.5"/></g></g></g></g><g id="Floating Object" transform="translate(1869.000000, 402.000000) scale(1 1)"><g id="Floating Object/Xmas Boot 2" stroke="none" stroke-width="1" fill="none" fill-rule="evenodd"><g id="Group-18" transform="translate(70.000000, 16.000000)"><path d="M171.602642,47.1353749 L48.822642,94.5133749 L80.732642,276.697375 L40.202642,284.036375 C4.92264203,290.426375 -11.697358,331.379375 9.16264203,360.551375 C27.082642,385.622375 58.592642,397.069375 88.432642,389.348375 L142.282642,375.414375 C177.712642,366.246375 201.112642,332.562375 197.352642,296.163375 L171.602642,47.1353749 Z" id="Path" fill="#2F6858" fill-rule="nonzero"/><path d="M51.152642,132.082375 C45.632642,129.705375 39.472642,118.413375 39.832642,107.806375 C40.102642,99.8733749 47.382642,94.8323749 54.712642,91.7913749 C96.182642,74.5893749 159.492642,48.9833749 166.732642,47.8993749 C176.642642,46.4163749 187.482642,76.3313749 183.072642,85.1563749 C176.962642,97.3833749 60.702642,136.194375 51.152642,132.082375 Z" id="Path" fill="#5BA092" fill-rule="nonzero"/><path d="M155.346325,-0.93581186 C153.365441,2.04093818 152.977773,6.83400905 153.583069,13.7061116 C154.460559,23.6685225 157.633719,38.1781842 161.573683,51.9074262 L164.08198,60.561465 L168.886817,54.017799 C173.651255,47.5291516 177.640158,38.6954307 178.993761,30.1166654 C180.807653,18.6207046 177.94096,8.23003154 169.406166,0.349433721 C166.921021,-1.94517887 164.694287,-3.34976658 162.506371,-3.82436271 C159.600257,-4.45474839 156.958324,-3.35822542 155.346325,-0.93581186 Z M161.670946,4.46493763 L161.684,4.407 L161.707584,4.42101702 C162.28897,4.78464878 163.060221,5.37866967 163.979089,6.2270893 C170.391101,12.147618 172.515227,19.8467637 171.091524,28.8698093 L170.991132,29.4731889 C170.327958,33.2648015 169.042972,37.1571667 167.384437,40.7792239 L167.036,41.524 L166.829598,40.7181039 C164.186947,30.3541083 162.191269,20.2595561 161.552216,13.0041882 C161.315694,10.3188881 161.266952,8.06544819 161.408216,6.31888088 C161.469264,5.56409704 161.564039,4.94075132 161.670946,4.46493763 Z" id="Path" fill="#2F6858" fill-rule="nonzero"/><path d="M195.642642,279.623375 C193.302642,280.210375 190.862642,280.887375 188.312642,281.660375 C126.752642,300.301375 135.852642,341.295375 156.462642,370.157375 C183.752642,356.726375 200.582642,327.447375 197.352642,296.163375 L195.642642,279.623375 Z" id="Path" fill="#5BA092"/></g></g></g></g></svg>