<svg viewBox="232.5 240 135.0000000000001 120.00000000000011" fill="none" xmlns="http://www.w3.org/2000/svg" xmlns:xlink="http://www.w3.org/1999/xlink" overflow="visible" width="135.0000000000001px" height="120.00000000000011px"><g id="Master/Stickers/Cart"><g id="cart"><g id="stickers_expanded"><path id="Shape" fill-rule="evenodd" clip-rule="evenodd" d="M361 262.61C360.92 261.769 360.319 261.068 359.5 260.86C355.55 259.86 350.83 259.86 346.25 259.86C344.32 259.86 342.5 259.86 340.82 259.78C334.819 259.49 328.715 259.631 322.798 259.767L322.21 259.78C316.97 259.91 311.56 260.04 306.27 259.89C299.293 259.691 292.315 259.671 285.536 259.651L285.47 259.65C280.39 259.65 275.13 259.65 269.97 259.52C268.746 259.52 267.562 259.467 266.401 259.415C266.14 259.403 265.879 259.392 265.62 259.38C262.78 259.26 260.06 259.17 257.16 259.32L257.07 258.6C256.45 253.99 255.82 250.34 253.79 248.8C252.3 247.65 249.33 247.16 244.98 246.54C243.633 246.391 242.297 246.158 240.98 245.84C240.33 245.544 239.571 245.617 238.989 246.032C238.407 246.447 238.09 247.14 238.159 247.852C238.227 248.563 238.67 249.184 239.32 249.48C240.968 250.01 242.673 250.346 244.4 250.48L244.505 250.496L244.505 250.496L244.505 250.496L244.505 250.496C246.668 250.809 250.543 251.37 251.34 251.95C252.15 252.54 252.82 257.18 253.08 259.11C253.24 260.3 253.38 261.33 253.55 262.11C254.342 265.696 255.127 269.329 255.908 272.94L255.908 272.941L255.908 272.944C256.458 275.485 257.005 278.016 257.55 280.51L257.72 281.26C257.969 282.438 258.221 283.611 258.473 284.781L258.473 284.782L258.473 284.783L258.473 284.783L258.473 284.784L258.474 284.786C258.636 285.542 258.799 286.297 258.96 287.05L258.987 287.177C261.737 299.9 264.333 311.913 265.41 324.7C265.468 325.348 265.414 326.772 265.356 328.293L265.35 328.45C265.07 335.52 265.05 340.67 267.45 342.45C268.009 342.847 268.685 343.044 269.37 343.01C271.466 342.815 273.529 342.355 275.51 341.64C276.32 341.39 277.44 341.06 277.73 341.02L278.93 340.88C277.671 342.437 276.967 344.369 276.93 346.37C276.93 348.2 277.72 351.58 282.62 353.57C283.697 354.007 284.848 354.231 286.01 354.23C289.175 354.201 292.105 352.556 293.78 349.87C296.04 346.609 295.645 342.198 292.84 339.39C296.49 339.11 300.15 338.85 303.84 338.59C311.91 338.01 320.23 337.41 328.45 336.65C327.832 337.397 327.308 338.216 326.89 339.09C324.969 343.094 326.21 347.899 329.83 350.47C331.309 351.614 333.121 352.243 334.99 352.26C337.118 352.236 339.157 351.407 340.7 349.94C343.262 347.63 344.123 343.972 342.86 340.76C342.25 339.075 341.237 337.565 339.91 336.36C341.31 336.36 342.72 336.27 344.11 336.13C345.214 336.015 346.016 335.025 345.9 333.92C345.784 332.816 344.794 332.015 343.69 332.13C341.266 332.34 338.832 332.416 336.4 332.36C333.944 332.307 331.488 332.377 329.04 332.57C320.56 333.36 311.92 333.98 303.55 334.57C299.423 334.864 295.293 335.167 291.16 335.48C288.03 335.72 284.88 336.1 281.83 336.48C280.33 336.667 278.83 336.847 277.33 337.02C276.338 337.195 275.361 337.449 274.41 337.78C272.897 338.262 271.358 338.656 269.8 338.96C269.068 337.184 269.288 331.251 269.383 328.71L269.39 328.53C269.48 327.149 269.5 325.764 269.45 324.38C273.89 324.06 287.5 323.07 294.94 322.38C306.6 321.26 320.15 320.01 333.37 319.38C334.9 319.31 336.44 319.25 337.98 319.2L338.165 319.194L338.165 319.194C341.208 319.086 344.353 318.975 347.44 318.68C347.663 318.68 347.934 318.659 348.237 318.634C348.476 318.615 348.736 318.594 349.01 318.58C352.85 318.39 356.17 318.1 357.83 316.44C359.74 314.53 360.22 310.44 360.54 306.36C360.54 306.078 360.573 305.817 360.602 305.587C360.612 305.508 360.622 305.432 360.63 305.36C360.73 304.294 360.84 303.214 360.96 302.12L360.984 301.885C361.356 298.188 361.742 294.36 361.86 290.56C362.157 281.235 361.87 271.9 361 262.61ZM337.93 347.08C336.355 348.634 333.863 348.75 332.15 347.35C330.095 345.912 329.366 343.207 330.42 340.93C331.37 338.93 332.58 337.93 334 337.93H334.17C336.08 338.03 338.22 339.88 339.03 342.15C339.763 343.867 339.302 345.86 337.89 347.08H337.93ZM284.1 349.95C286.443 350.849 289.093 349.939 290.39 347.79H290.35C291.631 345.987 291.347 343.507 289.69 342.04C288.923 341.265 287.88 340.826 286.79 340.82C286.1 340.837 285.42 340.99 284.79 341.27C282.58 342.23 280.9 344.49 280.9 346.41C280.92 347.9 282 349.1 284.1 349.95ZM357.79 290.52C357.68 294.25 357.29 298.08 356.91 301.78C356.79 302.88 356.68 303.96 356.58 305.05C356.58 305.233 356.558 305.438 356.533 305.661L356.533 305.661L356.533 305.662C356.518 305.804 356.501 305.954 356.49 306.11C356.36 307.73 355.96 312.65 354.93 313.68C354.31 314.25 351.53 314.49 349.78 314.6C350.462 314.159 350.81 313.349 350.66 312.55C350.012 309.659 348.89 306.895 347.34 304.37C350.24 301.28 352.69 298.52 352.87 298.31C353.343 297.775 353.495 297.027 353.267 296.349C353.04 295.671 352.468 295.166 351.767 295.024C351.066 294.882 350.343 295.125 349.87 295.66C349.87 295.66 347.75 298.04 345.18 300.82L343.97 298.92C342.66 296.92 341.41 294.92 340.4 293.08C343.55 289.26 346.81 285.51 350.28 282.08C350.574 282.801 350.825 283.539 351.03 284.29C351.265 285.163 352.056 285.77 352.96 285.77C353.135 285.771 353.31 285.748 353.48 285.7C354.545 285.413 355.176 284.316 354.89 283.25C354.493 281.833 353.977 280.452 353.35 279.12C353.883 278.504 353.988 277.626 353.617 276.901C353.245 276.176 352.471 275.748 351.66 275.82C351.264 275.106 350.853 274.4 350.447 273.701L350.25 273.36C348.972 271.274 347.84 269.102 346.86 266.86C346.59 266.198 345.987 265.729 345.278 265.632C344.57 265.534 343.862 265.822 343.423 266.387C342.984 266.951 342.88 267.708 343.15 268.37C344.203 270.784 345.419 273.122 346.79 275.37C347.168 276.034 347.542 276.697 347.902 277.337L347.902 277.338L347.903 277.339L347.903 277.339C348.086 277.663 348.265 277.981 348.44 278.29C344.957 281.719 341.653 285.323 338.54 289.09C337.13 285.69 335.54 282.09 333.72 278.52C336.53 275.65 339.38 272.85 342.29 270.16C342.838 269.682 343.084 268.944 342.931 268.232C342.778 267.521 342.25 266.949 341.554 266.738C340.857 266.528 340.101 266.713 339.58 267.22C336.94 269.66 334.36 272.22 331.81 274.76C330.55 272.34 329.24 269.93 327.89 267.57C327.337 266.612 326.113 266.283 325.155 266.835C324.197 267.388 323.867 268.612 324.42 269.57C325.96 272.26 327.42 275.02 328.87 277.78C325.04 281.78 321.29 285.89 317.53 290.08C315.495 286.606 313.649 283.024 312 279.35L312.2 279.15L312.489 278.867L312.489 278.866C315.64 275.775 318.898 272.577 322.11 268.88C322.742 268.044 322.622 266.861 321.833 266.17C321.045 265.479 319.856 265.514 319.11 266.25C316.16 269.63 313.26 272.51 310.24 275.48L310 275C308.74 272.2 307.43 269.31 306 266.51C305.477 265.588 304.324 265.233 303.373 265.704C302.422 266.174 302.004 267.305 302.42 268.28C303.77 271.02 305.07 273.88 306.32 276.65L307.16 278.5C305.32 280.32 303.44 282.21 301.54 284.25C300.16 285.74 298.44 287.44 296.66 289.14C296.093 287.94 295.523 286.75 294.95 285.57L294.922 285.514C293.631 282.851 292.292 280.091 291.15 277.31L291.39 277.09C294.07 274.66 300.65 268.76 300.66 268.76L297.99 265.76C297.99 265.76 292.78 270.42 289.74 273.17C289.674 272.975 289.616 272.772 289.558 272.574L289.52 272.44C288.911 270.195 288.108 268.007 287.12 265.9C286.803 265.246 286.155 264.815 285.429 264.775C284.702 264.735 284.011 265.093 283.625 265.71C283.239 266.326 283.217 267.104 283.57 267.74C284.44 269.634 285.15 271.598 285.69 273.61L285.839 274.092L285.839 274.093C286.049 274.775 286.261 275.461 286.48 276.14C283.34 279 280.15 281.94 277.12 284.94C276.833 285.227 276.555 285.523 276.278 285.818L276.278 285.818C276.139 285.966 276 286.114 275.86 286.26C274.5 282.78 273.22 279.26 272.02 275.77C273.944 273.95 275.655 271.917 277.12 269.71C277.533 269.102 277.579 268.317 277.24 267.664C276.901 267.012 276.231 266.598 275.496 266.587C274.761 266.576 274.079 266.969 273.72 267.61C272.802 269.015 271.747 270.325 270.57 271.52C270.353 270.864 270.138 270.216 269.927 269.578L269.926 269.576C269.493 268.271 269.073 267.002 268.67 265.76C268.48 265.045 267.911 264.492 267.19 264.324C266.468 264.156 265.714 264.401 265.228 264.959C264.742 265.518 264.604 266.299 264.87 266.99C265.449 268.787 266.066 270.636 266.708 272.563C266.942 273.265 267.18 273.977 267.42 274.7C266.23 275.87 265.04 277.08 264.01 278.28C263.501 278.875 263.386 279.712 263.715 280.422C264.044 281.132 264.757 281.584 265.54 281.58C266.126 281.578 266.682 281.318 267.06 280.87C267.46 280.398 267.897 279.925 268.352 279.433C268.522 279.248 268.695 279.061 268.87 278.87C270.12 282.4 271.45 285.98 272.87 289.47L272.1 290.32C271.41 291.1 270.72 291.87 270.02 292.64C269.661 293.033 269.473 293.551 269.497 294.082C269.522 294.613 269.756 295.113 270.15 295.47C270.965 296.211 272.226 296.153 272.97 295.34C273.51 294.75 274.04 294.16 274.57 293.56L275.3 295.3L275.303 295.308L275.303 295.308L275.303 295.308C276.662 298.486 278.111 301.873 279.3 305.25L278.05 306.38C272.9 311.02 272.05 311.85 271.66 312.38C271.011 313.275 271.21 314.527 272.105 315.175C272.999 315.824 274.251 315.625 274.9 314.73C275.307 314.269 277.568 312.232 279.944 310.092L279.945 310.092L280.69 309.42C281.245 311.2 281.686 313.014 282.01 314.85C282.177 315.821 283.025 316.525 284.01 316.51C284.123 316.52 284.237 316.52 284.35 316.51C285.437 316.327 286.171 315.298 285.99 314.21C285.515 311.591 284.847 309.011 283.99 306.49C286.67 304.07 289.45 301.49 291.56 299.49C292.589 298.498 293.75 297.406 294.961 296.268L295.32 295.93C297.47 301.25 299.39 305.72 301.25 309.66C300.854 310.128 300.408 310.551 299.92 310.92C299.004 311.253 298.461 312.197 298.634 313.156C298.807 314.115 299.645 314.809 300.62 314.8C300.856 314.801 301.09 314.757 301.31 314.67C301.974 314.383 302.575 313.968 303.08 313.45L303.6 314.45C303.841 314.925 304.262 315.284 304.769 315.447C305.276 315.61 305.827 315.565 306.3 315.32C307.279 314.814 307.663 313.611 307.16 312.63C306.87 312.058 306.579 311.468 306.285 310.87C306.184 310.664 306.082 310.458 305.98 310.25C307.36 308.58 309.1 306.38 311.35 303.48C311.576 303.188 311.801 302.898 312.021 302.613C313.31 300.946 314.473 299.443 315.19 298.64C315.76 298 316.33 297.36 316.89 296.71C319.07 300.34 321.22 304.02 323.07 307.71L322.992 307.799L322.787 308.034L322.786 308.035C322.38 308.499 321.971 308.966 321.55 309.42C320.801 310.235 320.855 311.502 321.67 312.25C322.484 312.999 323.751 312.945 324.5 312.13C324.533 312.092 324.567 312.053 324.601 312.014C324.708 311.89 324.816 311.764 324.93 311.65C324.972 311.746 325.016 311.843 325.06 311.941L325.06 311.941L325.061 311.942C325.141 312.119 325.222 312.3 325.3 312.48C325.767 313.407 326.865 313.822 327.828 313.437C328.792 313.052 329.3 311.994 329 311C328.64 310.15 328.25 309.29 327.85 308.43C330.51 305.34 333.09 302.14 335.61 299.01L337.68 296.44C338.467 297.798 339.336 299.156 340.197 300.5L340.197 300.501C340.331 300.711 340.466 300.921 340.6 301.13C341.193 302.044 341.773 302.954 342.34 303.86C340.6 305.67 338.87 307.39 337.53 308.56C336.702 309.29 336.622 310.552 337.35 311.38C337.729 311.812 338.275 312.06 338.85 312.06C339.335 312.063 339.804 311.888 340.17 311.57C341.39 310.5 342.9 309.02 344.44 307.44C345.489 309.276 346.258 311.258 346.72 313.32C346.837 313.937 347.237 314.463 347.8 314.74L346.97 314.8C343.97 315.1 340.8 315.21 337.76 315.31C337.373 315.325 336.987 315.34 336.601 315.354C335.428 315.397 334.256 315.44 333.09 315.5C319.9 316.155 306.405 317.4 294.761 318.474L294.47 318.5C287.02 319.21 273.28 320.21 268.98 320.5C267.7 308.78 265.24 297.34 262.84 286.24C262.66 285.397 262.478 284.552 262.295 283.705L262.295 283.704L262.295 283.703C262.062 282.623 261.829 281.542 261.6 280.46L261.44 279.7L261.074 277.987L261.074 277.986C260.04 273.138 258.983 268.181 257.91 263.28C260.292 263.186 262.622 263.27 265.007 263.355L265.45 263.37C266.89 263.43 268.36 263.49 269.89 263.52C275.031 263.61 280.25 263.63 285.305 263.65H285.306H285.306H285.306L285.45 263.65C292.23 263.65 299.25 263.65 306.15 263.89C311.11 264.029 316.138 263.913 321.03 263.8L321.033 263.8L321.036 263.799C321.458 263.79 321.88 263.78 322.3 263.77C328.3 263.62 334.57 263.47 340.62 263.77C342.39 263.85 344.26 263.86 346.24 263.86C349.886 263.763 353.535 263.96 357.15 264.45C357.855 273.122 358.055 281.826 357.75 290.52H357.79ZM332.5 296.45L335.68 292.52L335.64 292.53C335.54 292.31 335.44 292.08 335.39 291.81C334.06 288.49 332.49 285.03 330.78 281.49C327.05 285.41 323.38 289.45 319.71 293.57C321.79 297.03 323.97 300.72 325.92 304.45C328.16 301.84 330.36 299.12 332.5 296.45ZM291.181 286.982L291.181 286.983L291.33 287.29L291.575 287.797C292.247 289.184 292.929 290.593 293.58 292.01L292.58 292.92L292.166 293.31C290.936 294.468 289.762 295.574 288.71 296.59C286.96 298.27 284.71 300.34 282.46 302.39C281.33 299.44 280.09 296.52 278.91 293.76L277.45 290.31C278.25 289.44 279.07 288.58 279.88 287.77C282.55 285.19 285.3 282.64 288 280.14C289.003 282.473 290.107 284.759 291.181 286.982ZM314.12 292.1C312.25 288.932 310.541 285.671 309 282.33C307.48 283.8 306 285.33 304.5 286.91C302.78 288.72 300.61 290.84 298.42 292.91C298.63 293.37 298.84 293.88 299.04 294.37C300.85 298.88 302.51 302.76 304.09 306.22C305.55 304.41 307.08 302.43 308.18 301C308.497 300.595 308.806 300.197 309.106 299.813C310.364 298.197 311.445 296.808 312.18 296L314.76 293.16L314.12 292.1Z" fill="#5F8083"/></g></g></g></svg>