<svg viewBox="-2.3421052631579187 7.800000000000011 382.54385964912274 592.8000000000002" fill="none" xmlns="http://www.w3.org/2000/svg" xmlns:xlink="http://www.w3.org/1999/xlink" overflow="visible" width="382.54385964912274px" height="592.8000000000002px"><g id="Master/Character/Standing"><g id="Head" transform="translate(205 13) scale(1 1)"><g id="Head/Afro"><g id="Head"><path id="SKIN" fill-rule="evenodd" clip-rule="evenodd" d="M92.3241 53.1185C92.3251 53.5975 92.3701 54.0825 92.3171 54.5555C92.1031 56.4855 92.1381 57.8975 94.3371 59.1725C97.7941 61.1785 97.3241 66.2745 93.4801 68.2145C91.0941 69.4195 90.5541 71.0155 90.0841 73.3295C88.7391 79.9265 86.4601 86.2395 83.3841 92.2435C81.9421 95.0565 79.8961 97.4185 77.5201 99.4605C76.0951 100.686 75.2251 102.015 75.3041 103.961C75.3691 105.554 75.0561 107.175 75.2381 108.746C75.6321 112.159 73.5861 114.337 70.5781 115.047C65.5951 116.223 60.4991 116.782 55.3601 115.996C53.7831 115.756 52.2101 115.515 50.7111 114.892C49.9061 114.559 49.6161 114.226 49.8341 113.296C50.4931 110.495 50.9761 107.658 51.1731 104.781C51.2111 104.223 51.2511 103.664 51.3001 103.107C51.5801 99.8985 50.6261 97.4475 47.6181 95.7405C44.1921 93.7955 41.8991 90.6245 40.0881 87.2075C37.4281 82.1915 35.0901 77.0345 33.9321 71.4065C33.4621 69.1245 33.1311 66.8355 32.9921 64.5275C32.7021 59.6655 32.0571 54.8165 32.5661 49.9245C33.3661 42.2255 37.0911 36.1325 43.0861 31.5115C49.0751 26.8945 55.9011 23.8775 63.5151 23.3755C69.2001 23.0005 74.8591 23.6315 80.1661 26.0285C83.2611 27.4275 85.5921 29.6395 87.2061 32.6295C90.6561 39.0255 92.2851 45.8725 92.3241 53.1185" fill="#6a4728"/><g id="Group 5"><path id="Fill 3" fill-rule="evenodd" clip-rule="evenodd" d="M72.1583 10.9467C73.0413 10.5087 73.6523 10.1387 74.3083 9.8927C75.9453 9.2787 77.5723 8.6017 79.2593 8.1687C81.9543 7.4747 84.3153 8.3197 86.3213 10.1737C88.7353 12.4067 89.8833 15.2407 90.0733 18.4787C90.1423 19.6647 90.0853 20.8587 90.0853 22.2767C91.1663 22.1027 92.0653 21.9407 92.9703 21.8147C97.3313 21.2087 100.372 23.4237 101.203 27.7877C101.684 30.3137 101.345 32.7167 100.176 35.0047C99.8503 35.6417 99.5273 36.2797 99.1243 37.0757C100.593 37.7327 102.04 38.3687 102.567 40.0637C103.341 42.5537 103.679 45.0567 103.04 47.6187C102.166 51.1257 100.338 54.1067 97.7773 56.6107C95.9073 58.4387 93.4943 59.0757 90.9523 59.0637C88.8393 59.0527 87.2553 57.7167 86.7453 55.4667C86.4163 54.0107 86.4343 52.4777 86.2733 50.7207C83.6243 50.8897 81.2323 49.8867 79.4463 47.5597C77.6753 45.2517 77.8863 42.6197 78.1463 39.7077C72.7323 40.1037 69.1733 37.6047 67.3573 32.4557C63.5063 35.7147 59.4073 36.1417 54.8433 33.6547C54.7783 34.6527 54.7273 35.4027 54.6823 36.1517C54.5303 38.6487 53.3113 40.4197 50.9353 41.1917C49.1993 41.7567 47.3873 42.0967 45.5983 42.4827C44.8293 42.6477 44.0313 42.6737 42.9463 42.7967C43.7413 46.2327 42.2653 48.9087 40.2913 51.4157C38.1413 54.1467 35.2373 55.5657 31.8763 55.9897C28.0993 56.4657 23.3313 53.1637 22.2413 49.5107C21.7053 47.7117 22.0093 46.0277 22.9173 44.4367C23.3503 43.6777 23.8693 42.9677 24.4023 42.1547C22.5403 38.2847 22.3773 34.3947 24.4103 30.4647C26.4023 26.6147 29.1033 23.8107 33.8463 23.6077C34.0263 22.3027 34.1493 21.0517 34.3783 19.8207C34.8553 17.2547 35.9793 14.9667 37.6163 12.9527C40.7053 9.1527 44.8483 8.3497 49.1783 10.6507C49.6533 10.9037 50.1303 11.1527 50.7903 11.4987C51.0053 10.8237 51.1373 10.3077 51.3303 9.8157C52.9983 5.5717 55.8253 2.4687 60.2493 1.0717C64.4633 -0.2583 67.9093 1.1947 69.8453 5.1367C70.7183 6.9137 71.3233 8.8217 72.1583 10.9467" fill="#020c1f"/></g></g></g></g><g id="Expression" transform="translate(235 54) scale(1 1)"><g id="Expression/Blush 1"><g id="Group 26"><path id="Fill 1" fill-rule="evenodd" clip-rule="evenodd" d="M22.1626 45.5266C24.3296 44.5636 26.2716 43.6576 28.1826 42.6636C31.3086 41.0386 34.6296 40.9986 37.9056 42.3246C39.4526 42.9516 40.9856 42.5896 42.9466 42.7936C40.8096 45.3386 38.5841 48.2827 35.5736 49.0116C27.8392 50.8844 22.1626 45.5266 22.1626 45.5266Z" fill="#BE5A36"/><g id="Group 5"><path id="Fill 3" fill-rule="evenodd" clip-rule="evenodd" d="M20.53 15.1819C17.587 15.4959 14.145 15.3379 10.82 16.2899C10.285 16.4429 9.742 16.5689 9.212 16.7369C8.775 16.8739 8.408 16.7659 8.157 16.4229C7.893 16.0629 7.998 15.6379 8.207 15.2969C8.967 14.0619 9.913 12.9859 11.164 12.2349C14.455 10.2629 18.065 9.9289 21.765 10.3899C23.382 10.5919 24.047 11.3699 24.151 12.6109C24.347 14.9489 23.748 15.4419 20.53 15.1819" fill="#0A0A0A"/></g><path id="Fill 6" fill-rule="evenodd" clip-rule="evenodd" d="M53.6203 11.614C52.0523 12.547 50.3963 12.342 48.8743 12.499C46.0063 12.797 43.1803 13.242 40.3813 13.91C39.8403 14.04 39.2783 14.122 38.7243 14.142C37.6823 14.181 36.6003 14.297 36.3063 12.843C36.0143 11.403 36.4833 10.236 37.7723 9.67501C38.2743 9.45601 38.8393 9.31501 39.3863 9.27101C42.4933 9.02601 45.6103 8.80901 48.7133 9.27201C50.5123 9.54001 52.2363 10.057 53.6203 11.614" fill="#0A0A0A"/><path id="Fill 8" fill-rule="evenodd" clip-rule="evenodd" d="M45.2805 36.1379C44.0965 36.0729 42.8855 36.3089 41.7325 35.8559C40.8115 35.4949 39.9425 35.0299 39.8345 33.9279C39.7405 32.9729 40.2405 32.2249 41.0485 31.7519C44.0165 30.0109 47.1335 29.5579 50.4035 30.8149C51.4875 31.2319 52.0155 32.1319 52.0885 33.2219C52.1635 34.3519 51.3135 34.8869 50.4185 35.3139C48.7875 36.0919 47.0495 36.2079 45.2805 36.1379" fill="#EFB49F"/><path id="Fill 10" fill-rule="evenodd" clip-rule="evenodd" d="M17.6985 30.9509C18.9775 30.8779 20.2935 31.0629 21.3865 32.0249C22.3925 32.9109 22.4845 33.6519 21.6105 34.6819C21.2615 35.0939 20.7855 35.4259 20.3135 35.7009C18.5705 36.7149 16.6415 37.2099 14.6685 37.4609C12.7745 37.7009 10.8105 36.7619 10.3575 35.5529C9.99152 34.5759 11.2115 32.8039 12.9815 31.9489C14.4215 31.2529 15.9705 30.8949 17.6985 30.9509" fill="#EFB49F"/><path id="Fill 12" fill-rule="evenodd" clip-rule="evenodd" d="M42.7455 59.7693C40.7335 61.8853 38.2795 62.3613 35.8295 62.4403C31.1755 62.5913 26.8965 61.2083 23.0165 58.6283C22.8355 58.5073 22.7305 58.2713 22.5405 58.0253C23.2885 57.3623 23.8775 57.9763 24.4435 58.2373C27.1225 59.4763 29.8575 60.4423 32.8365 60.7533C35.5085 61.0323 38.0605 60.5703 40.6205 59.9813C41.2335 59.8403 41.8105 59.5043 42.7455 59.7693" fill="black"/><path id="Fill 14" fill-rule="evenodd" clip-rule="evenodd" d="M49.6527 17.2468C45.8157 15.3288 41.1437 16.1678 38.2497 19.2978C38.0887 19.4728 37.9147 19.6478 37.8017 19.8538C37.6567 20.1208 37.4297 20.4088 37.6717 20.7278C37.8797 21.0038 38.1807 21.1328 38.5077 20.9888C39.0177 20.7648 39.5357 20.5408 40.0017 20.2418C40.9627 19.6258 41.9817 19.1358 43.0437 18.7398C43.3627 18.6508 43.6817 18.5628 44.0057 18.4878C44.0097 18.4868 44.0137 18.4818 44.0197 18.4808C44.0897 18.4828 44.1537 18.4688 44.2137 18.4368C44.2147 18.4368 44.2147 18.4358 44.2157 18.4358H44.2177C44.6117 18.3348 45.0107 18.2688 45.4197 18.2338C45.5927 18.1808 45.7707 18.1788 45.9467 18.2078C46.0497 18.2068 46.1557 18.1888 46.2577 18.1928C46.6507 18.2078 47.0647 18.2648 47.4507 18.3888C47.7257 18.3628 48.0377 18.4978 48.2987 18.5498C49.4277 18.7738 50.5307 19.1548 51.7947 19.0678C50.8477 17.8448 50.8477 17.8448 49.6527 17.2468" fill="#0D0D0D"/><path id="Fill 16" fill-rule="evenodd" clip-rule="evenodd" d="M18.3942 19.3288C18.1102 19.3288 17.6142 19.4848 17.2992 19.5548C17.0422 19.6118 15.2202 20.0908 14.7112 20.2928C13.3902 20.8198 12.1232 21.4838 10.8222 22.0648C10.5442 22.1888 10.1862 22.2788 9.9592 21.9558C9.7542 21.6618 9.8712 21.3548 10.0572 21.0838C12.4222 17.6558 18.8482 16.3948 22.3042 18.6798C22.6372 18.8988 22.9702 19.1178 23.0192 19.7278C22.2082 20.1248 21.2452 19.4568 20.6592 19.3388C20.1062 19.2278 18.3942 19.3288 18.3942 19.3288" fill="black"/><path id="Fill 18" fill-rule="evenodd" clip-rule="evenodd" d="M33.5451 32.9392C32.1331 35.1762 29.7461 35.9612 27.7641 34.9622C25.9861 34.0662 25.2771 31.8592 26.2581 30.3042C26.4821 29.9482 26.7841 29.6072 27.1861 29.6622C27.6431 29.7262 27.7351 30.1632 27.6911 30.5982C27.6681 30.8352 27.6331 31.0792 27.6591 31.3132C27.8361 32.8852 28.4321 33.3612 30.0581 33.1952C31.1421 33.0852 32.1831 32.5242 33.5451 32.9392" fill="black"/><path id="Fill 20" fill-rule="evenodd" clip-rule="evenodd" d="M28.471 22.9729C27.298 20.0809 27.246 17.4089 27.292 14.7249C27.3 14.2349 27.408 13.6939 27.982 13.6489C28.383 13.6179 28.635 14.0309 28.789 14.4159C29.448 16.0629 29.71 17.7889 29.494 19.5299C29.365 20.5779 29.445 21.7419 28.471 22.9729" fill="black"/><path id="Fill 22" fill-rule="evenodd" clip-rule="evenodd" d="M47.5053 20.2258C47.4743 20.1168 47.4013 20.0288 47.3193 19.9448C47.2563 19.7918 47.1473 19.6568 46.9983 19.5518C46.7713 19.3908 46.4773 19.3688 46.2093 19.3438C45.7193 19.2988 45.2213 19.3238 44.7403 19.4378C44.6503 19.4588 44.5753 19.5178 44.5123 19.5888C44.5013 19.5898 44.4893 19.5888 44.4783 19.5898C44.3263 19.7108 44.1413 19.8138 44.0473 19.9608C43.3243 21.0928 43.3193 21.9978 44.0813 22.7488C44.7663 23.4248 45.9133 23.5318 46.7003 22.9918C47.5283 22.4248 47.8043 21.2958 47.5053 20.2258" fill="#0D0D0D"/><path id="Fill 24" fill-rule="evenodd" clip-rule="evenodd" d="M20.1591 22.0783C20.1591 22.0733 20.1541 22.0373 20.1521 22.0173C20.1491 22.0023 20.1461 21.9823 20.1461 21.9803C20.1361 21.9283 20.1261 21.8753 20.1141 21.8243C20.0891 21.7123 20.0561 21.6033 20.0171 21.4963C20.0141 21.4873 19.9761 21.3953 19.9961 21.4403C20.0181 21.4903 19.9821 21.4143 19.9811 21.4113C19.9581 21.3663 19.9351 21.3213 19.9091 21.2773C19.8841 21.2333 19.8571 21.1913 19.8281 21.1503C19.8181 21.1343 19.8151 21.1283 19.8121 21.1243C19.8091 21.1223 19.8041 21.1173 19.7891 21.1013C19.7061 21.0103 19.6361 20.9523 19.5631 20.9013C19.3101 20.6473 18.9521 20.5973 18.6091 20.5993C18.2701 20.6003 17.9431 20.6663 17.6331 20.8023C17.6211 20.8073 17.6121 20.8163 17.6001 20.8213C17.5441 20.8363 17.4861 20.8453 17.4321 20.8663C17.4241 20.8683 17.4151 20.8693 17.4071 20.8713C17.4071 20.8733 17.4061 20.8753 17.4051 20.8773C17.2311 20.9473 17.0661 21.0383 16.9271 21.1703C16.7651 21.3223 16.6441 21.5213 16.5791 21.7333C16.5441 21.8483 16.5391 21.9643 16.5491 22.0783C16.5381 22.1543 16.5261 22.2303 16.5241 22.3063C16.5201 22.4603 16.5261 22.6143 16.5571 22.7663C16.5601 22.7783 16.5691 22.7883 16.5721 22.8003C16.5761 22.8603 16.5781 22.9203 16.5841 22.9793C16.5911 23.0473 16.5981 23.1143 16.6061 23.1813C16.6171 23.2783 16.6071 23.2223 16.6241 23.3023C16.6391 23.3713 16.6571 23.4393 16.6801 23.5063C16.6861 23.5253 16.6871 23.5293 16.6871 23.5323C16.6891 23.5363 16.6881 23.5353 16.6911 23.5413C16.7031 23.5673 16.7171 23.5933 16.7301 23.6183C16.8071 23.7593 16.8151 23.7653 16.9361 23.8843C17.0361 23.9833 17.2621 24.1063 17.4081 24.1523C17.6451 24.2263 17.7881 24.2373 18.0141 24.2363C18.0491 24.2363 18.0841 24.2363 18.1191 24.2353C18.3491 24.2313 18.5791 24.2223 18.8081 24.2003C18.8181 24.1993 18.9201 24.1863 18.8771 24.1923C18.8251 24.2003 18.9151 24.1863 18.9161 24.1863C18.9701 24.1773 19.0241 24.1673 19.0781 24.1563C19.1831 24.1333 19.2861 24.1033 19.3881 24.0693C19.4031 24.0643 19.4201 24.0583 19.4281 24.0553C19.4341 24.0533 19.4391 24.0503 19.4451 24.0473C19.6751 23.8073 19.8641 23.5983 20.0141 23.4143C20.0291 23.3733 20.0471 23.3383 20.0601 23.2933C20.0901 23.1883 20.1151 23.0813 20.1341 22.9743C20.1381 22.9563 20.1471 22.8973 20.1491 22.8853C20.1551 22.8403 20.1591 22.7963 20.1631 22.7513C20.1821 22.5273 20.1801 22.3023 20.1591 22.0783" fill="black"/></g></g></g><g id="Lower Body" transform="translate(69 123) scale(1 1)"><g id="Lower Body/Cross Legged"><rect id="Rectangle" x="100" y="205" width="191" height="271" fill="#4B458C"/><g id="Group 25"><g id="Group 3"><path id="Fill 1" fill-rule="evenodd" clip-rule="evenodd" d="M156.87 137.469C156.821 137.414 156.775 137.32 156.722 137.315C156.668 137.309 156.605 137.393 156.547 137.438C156.596 137.493 156.641 137.587 156.695 137.592C156.749 137.597 156.811 137.513 156.87 137.469M201.936 193.52C202.231 192.663 202.843 192.391 203.341 192.018C207.183 189.138 211.261 186.607 215.278 183.989C221.305 180.059 227.379 176.203 233.425 172.303C233.826 172.046 234.439 171.902 234.388 171.212C233.801 171.047 233.361 171.299 232.934 171.47C231.526 172.036 230.086 172.555 228.75 173.264C218.635 178.627 208.845 184.505 199.991 191.819C198.836 192.772 197.724 193.008 196.259 192.765C192.161 192.087 188.051 191.381 183.916 191.037C175.712 190.355 167.489 189.891 159.271 189.388C158.21 189.323 157.06 189.067 156.056 189.743C156.203 190.155 156.44 190.336 156.782 190.392C161.748 191.209 166.704 192.057 171.737 192.433C176.756 192.807 181.779 193.113 186.778 193.803C197.639 195.303 208.369 197.363 218.928 200.353C224.692 201.985 230.483 203.555 236.384 204.652C236.886 204.745 237.408 204.973 237.842 204.657C237.841 204.073 237.501 203.999 237.22 203.884C225.878 199.225 213.932 196.619 201.936 193.52M234.215 243.979C232.998 247.863 231.81 251.757 230.555 255.628C229.754 258.098 228.844 258.634 226.264 258.326C220.797 257.675 215.354 256.815 209.86 256.404C206.596 256.16 203.323 256.135 200.055 255.853C194.408 255.367 188.785 254.694 183.16 254.021C181.258 253.794 179.348 253.573 177.436 253.507C171.133 253.289 164.828 253.143 158.523 252.97C157.879 252.586 157.154 252.587 156.442 252.55C151.837 252.307 147.236 251.981 142.621 251.967C140.794 251.962 138.964 251.897 137.143 251.757C131.768 251.342 126.397 250.875 121.024 250.428C117.651 249.811 114.259 249.282 110.909 248.557C104.488 247.168 98.3513 244.851 92.2213 242.548C89.7343 241.614 87.4883 240.181 85.6443 238.245C82.5503 234.995 82.3243 230.979 82.7313 226.8C83.9663 214.14 89.0953 202.98 95.8523 192.429C101.069 184.283 107.62 177.316 114.724 170.819C119.686 166.28 125.222 162.446 130.291 158.043C132.583 156.052 134.831 154.009 137.069 151.955C141.368 148.01 145.592 143.98 149.952 140.102C152.574 137.77 155.504 135.793 158.069 133.381C158.34 133.126 158.721 132.802 159.11 133.154C159.494 133.501 159.218 133.882 159.004 134.216C158.416 135.134 157.434 135.814 157.257 136.948C157.649 137.356 158.061 137.292 158.417 137.138C162.237 135.495 166.327 135.149 170.379 134.93C180.191 134.4 190.002 133.524 199.84 133.905C206.304 134.156 212.759 134.642 219.211 135.117C223.359 135.422 227.515 135.312 231.667 135.63C236.302 135.985 240.842 136.692 245.385 137.668C255.298 139.799 265.285 141.603 275.029 144.46C281.768 146.436 288.649 147.97 295.132 150.762C298.738 152.315 302.293 153.934 305.026 156.922C308.172 160.364 309.734 164.335 310.083 169.025C310.747 177.948 308.519 186.103 304.447 193.923C302.105 198.419 298.942 202.341 296.128 206.511C291.957 212.693 286.328 217.435 280.949 222.437C279.138 224.121 277.303 225.779 275.48 227.449C274.832 227.575 274.212 227.395 273.587 227.274C266.854 225.972 260.122 224.656 253.385 223.373C250.036 222.735 246.674 222.159 243.254 221.543C243.307 221.075 243.286 220.747 243.386 220.462C244.573 217.071 245.785 213.692 247.665 210.6C248.12 209.852 248.521 209.069 248.914 208.286C249.061 207.994 249.065 207.639 248.775 207.417C248.498 207.205 248.139 207.228 247.905 207.469C247.238 208.15 246.541 208.819 245.976 209.582C243.654 212.715 242.401 216.326 241.411 220.047C241.226 220.739 241.111 221.473 240.792 222.101C237.621 228.35 235.99 235.098 234.343 241.842C234.172 242.541 234.088 243.257 234.215 243.979" fill="#81969C"/></g><path id="Fill 4" fill-rule="evenodd" clip-rule="evenodd" d="M244.717 243.674C245.242 241.938 245.842 240.22 246.278 238.462C247.291 234.371 248.251 230.269 249.664 226.291C249.717 226.141 249.79 225.995 249.824 225.841C249.958 225.24 250.324 224.5 249.503 224.193C248.705 223.895 248.462 224.716 248.112 225.203C247.881 225.524 247.715 225.893 247.536 226.247C246.091 229.115 245.245 232.17 244.724 235.325C244.272 238.061 243.761 240.793 244.717 243.674M270.925 250.797C270.447 249.099 270.097 248.602 268.495 247.82C265.209 246.215 261.769 245.903 258.235 246.815C257.312 247.053 256.394 247.385 255.654 248.029C255.248 248.383 254.677 248.748 254.979 249.402C255.286 250.07 255.848 249.884 256.417 249.695C260.08 248.483 263.662 249.008 267.221 250.203C268.409 250.602 269.591 251.188 270.925 250.797M239.894 242.431C241.069 240.895 241.419 239.267 241.809 237.693C242.823 233.589 243.842 229.493 245.4 225.55C245.697 224.796 246.422 223.747 245.355 223.238C244.259 222.715 243.922 223.97 243.528 224.675C240.944 229.282 239.785 234.305 239.374 239.523C239.303 240.43 239.297 241.377 239.894 242.431M285.144 250.202C286.366 249.418 286.899 248.434 287.428 247.457C290.12 242.493 292.817 237.53 295.475 232.548C295.895 231.761 296.868 230.662 295.843 230.03C294.852 229.42 294.256 230.778 293.719 231.479C290.06 236.252 287.338 241.543 285.253 247.171C284.92 248.069 284.799 248.994 285.144 250.202M234.216 243.98C234.089 243.257 234.173 242.541 234.344 241.842C235.99 235.099 237.622 228.351 240.793 222.102C241.112 221.474 241.227 220.739 241.411 220.047C242.402 216.326 243.655 212.715 245.977 209.582C246.542 208.82 247.238 208.151 247.905 207.469C248.14 207.229 248.499 207.205 248.776 207.417C249.066 207.64 249.062 207.994 248.915 208.286C248.522 209.07 248.121 209.853 247.666 210.601C245.785 213.693 244.573 217.071 243.387 220.462C243.286 220.747 243.308 221.075 243.255 221.543C246.675 222.159 250.036 222.736 253.386 223.373C260.123 224.656 266.855 225.973 273.588 227.275C274.213 227.396 274.833 227.575 275.481 227.449C278.805 228.471 282.246 228.646 285.675 228.665C290.712 228.695 295.75 228.541 300.787 228.435C302.716 228.394 304.627 228.484 306.504 228.941C309.677 229.712 310.536 232.116 308.563 234.691C307.728 235.78 306.694 236.663 305.565 237.433C304.64 238.064 303.715 238.696 302.764 239.284C300.852 240.467 299.536 242.064 298.867 244.254C298.082 246.825 296.696 249.014 294.524 250.713C292.594 252.223 290.48 252.879 288.06 252.77C285.339 252.647 282.635 252.34 279.973 251.811C276.766 251.174 273.955 251.891 271.415 253.867C269.231 255.567 266.826 256.692 264.046 257.096C261.531 257.462 259.298 257.065 257.257 255.513C256.105 254.637 255.046 253.667 254.056 252.622C251.126 249.533 247.647 247.409 243.499 246.342C240.407 245.546 237.356 244.591 234.216 243.98" fill="#151515"/><g id="Group 8"><path id="Fill 6" fill-rule="evenodd" clip-rule="evenodd" d="M107.214 267.672C106.417 266.254 105.507 265.377 104.574 264.567C101.025 261.482 97.4434 258.434 93.8394 255.411C93.3004 254.959 92.6934 253.819 91.9234 254.625C91.2104 255.371 92.2594 256.049 92.7624 256.551C96.2644 260.046 99.9804 263.304 103.949 266.26C104.804 266.897 105.742 267.465 107.214 267.672M142.077 261.819C140.514 260.639 139.245 260.319 136.958 260.756C132.895 261.531 129.601 263.712 126.709 266.573C126.488 266.792 126.28 267.058 126.163 267.342C126.047 267.625 125.998 267.996 126.326 268.198C126.508 268.311 126.77 268.357 126.987 268.337C127.668 268.276 128.111 267.759 128.616 267.384C131.869 264.969 135.332 263.109 139.503 262.86C140.406 262.807 141.435 262.702 142.077 261.819M121.024 250.429C126.397 250.875 131.768 251.342 137.143 251.757C138.964 251.898 140.794 251.962 142.621 251.967C147.236 251.982 151.837 252.308 156.442 252.55C157.153 252.587 157.879 252.586 158.523 252.971C154.926 255.028 151.365 257.154 147.715 259.114C145.899 260.089 145.133 261.361 145.555 263.382C146.01 265.561 144.973 267.082 143.26 268.24C142.121 269.011 140.833 269.433 139.487 269.697C135.702 270.443 131.881 270.582 128.034 270.469C123.082 270.323 118.127 270.287 113.176 270.133C111.011 270.066 109.084 270.61 107.308 271.824C105.915 272.776 104.408 273.519 102.777 273.961C99.6354 274.814 97.1154 273.8 95.4384 270.981C94.7464 269.818 94.0734 268.622 93.5804 267.367C92.7304 265.205 91.2584 263.817 89.0784 263.056C87.3474 262.451 85.6264 261.791 83.9644 261.019C81.6484 259.942 80.7684 258.584 81.0504 256.855C81.3374 255.096 82.8614 253.763 85.1294 253.34C87.8184 252.838 90.5454 252.938 93.2584 252.925C96.4544 252.91 99.6514 253.059 102.846 253.022C107.659 252.966 112.363 251.965 117.09 251.195C118.405 250.982 119.786 251.054 121.024 250.429" fill="#151515"/></g><path id="Fill 9" fill-rule="evenodd" clip-rule="evenodd" d="M201.936 193.521C213.932 196.62 225.878 199.226 237.22 203.884C237.501 204 237.841 204.074 237.842 204.658C237.408 204.974 236.886 204.746 236.384 204.653C230.483 203.556 224.692 201.986 218.928 200.354C208.369 197.364 197.639 195.304 186.778 193.804C181.779 193.114 176.756 192.808 171.737 192.434C166.705 192.058 161.748 191.209 156.782 190.393C156.44 190.336 156.204 190.156 156.056 189.744C157.06 189.068 158.21 189.324 159.271 189.389C167.489 189.892 175.712 190.356 183.916 191.038C188.051 191.381 192.161 192.087 196.259 192.766C197.724 193.008 198.836 192.773 199.991 191.82C208.845 184.506 218.635 178.627 228.75 173.265C230.086 172.556 231.526 172.037 232.934 171.471C233.361 171.299 233.801 171.047 234.388 171.213C234.439 171.903 233.826 172.046 233.425 172.304C227.379 176.204 221.305 180.06 215.278 183.989C211.261 186.608 207.183 189.139 203.341 192.019C202.843 192.392 202.231 192.664 201.936 193.521" fill="#191A1B"/><path id="Fill 11" fill-rule="evenodd" clip-rule="evenodd" d="M156.87 137.469C156.811 137.513 156.749 137.597 156.695 137.592C156.641 137.587 156.596 137.493 156.547 137.438C156.605 137.393 156.668 137.309 156.722 137.315C156.775 137.32 156.821 137.414 156.87 137.469" fill="white"/><path id="Fill 13" fill-rule="evenodd" clip-rule="evenodd" d="M285.143 250.202C284.798 248.994 284.919 248.068 285.252 247.171C287.337 241.543 290.059 236.252 293.718 231.478C294.255 230.778 294.851 229.42 295.842 230.03C296.868 230.662 295.894 231.761 295.474 232.548C292.816 237.53 290.12 242.493 287.427 247.457C286.898 248.433 286.366 249.418 285.143 250.202" fill="#EFEFEF"/><path id="Fill 15" fill-rule="evenodd" clip-rule="evenodd" d="M239.893 242.431C239.296 241.377 239.302 240.43 239.373 239.523C239.785 234.305 240.943 229.283 243.527 224.675C243.921 223.97 244.258 222.715 245.354 223.239C246.421 223.747 245.697 224.796 245.399 225.55C243.841 229.493 242.823 233.589 241.808 237.693C241.418 239.267 241.068 240.895 239.893 242.431" fill="#EDEDED"/><path id="Fill 17" fill-rule="evenodd" clip-rule="evenodd" d="M270.924 250.797C269.59 251.188 268.408 250.602 267.22 250.203C263.661 249.008 260.079 248.483 256.416 249.695C255.847 249.884 255.285 250.069 254.978 249.401C254.676 248.748 255.247 248.383 255.653 248.029C256.393 247.385 257.311 247.053 258.234 246.815C261.768 245.902 265.208 246.215 268.494 247.82C270.096 248.602 270.446 249.099 270.924 250.797" fill="#ECECEC"/><path id="Fill 19" fill-rule="evenodd" clip-rule="evenodd" d="M244.716 243.674C243.76 240.793 244.271 238.061 244.723 235.325C245.244 232.17 246.09 229.115 247.535 226.247C247.714 225.893 247.88 225.524 248.111 225.203C248.461 224.716 248.704 223.895 249.502 224.193C250.323 224.5 249.957 225.24 249.823 225.841C249.789 225.995 249.716 226.141 249.663 226.291C248.25 230.269 247.29 234.371 246.277 238.462C245.841 240.22 245.241 241.938 244.716 243.674" fill="#EDEDED"/><path id="Fill 21" fill-rule="evenodd" clip-rule="evenodd" d="M142.077 261.82C141.435 262.703 140.407 262.807 139.503 262.861C135.332 263.109 131.869 264.969 128.616 267.384C128.111 267.759 127.668 268.276 126.987 268.338C126.77 268.357 126.508 268.311 126.326 268.199C125.998 267.997 126.047 267.626 126.163 267.342C126.28 267.058 126.488 266.793 126.709 266.574C129.601 263.713 132.895 261.532 136.958 260.757C139.245 260.32 140.515 260.639 142.077 261.82" fill="#ECECEC"/><path id="Fill 23" fill-rule="evenodd" clip-rule="evenodd" d="M107.214 267.672C105.742 267.465 104.804 266.897 103.949 266.26C99.9804 263.304 96.2644 260.046 92.7624 256.551C92.2594 256.049 91.2104 255.371 91.9234 254.625C92.6934 253.819 93.3004 254.959 93.8394 255.411C97.4434 258.434 101.025 261.482 104.574 264.567C105.507 265.377 106.417 266.254 107.214 267.672" fill="#E7E7E7"/></g></g></g><g id="Upper Body" transform="scale(1 1)"><g id="Upper Body/Tote Bag 1"><g id="Group 28"><g id="Group 3"><path id="Fill 1" fill-rule="evenodd" clip-rule="evenodd" d="M136.353 256.195C135.759 255.309 135.713 254.681 136.715 254.022C142.548 250.185 147.14 245.085 151.22 239.501C160.467 226.843 169.666 214.155 176.534 199.965C178.38 196.15 180.673 192.573 182.953 188.997C185.447 185.087 187.94 181.175 190.333 177.203C193.068 172.667 196.265 168.468 199.576 164.359C204.289 158.508 208.772 152.455 214.322 147.319C220.734 141.384 227.53 135.939 234.778 131.065C239.612 127.815 244.999 126.231 250.786 125.974C252.885 125.881 254.882 126.404 256.84 127.159C262.89 129.492 268.993 129.612 275.134 127.492C276.52 127.014 277.775 126.321 278.747 125.219C279.922 123.888 281.284 123.75 282.876 124.309C287.551 125.951 292.255 127.528 296.735 129.657C301.427 131.887 306.038 134.286 310.709 136.56C315.689 138.985 320.33 141.992 324.829 145.166C329.879 148.729 333.432 153.68 336.328 159.105C339.773 165.562 341.323 172.504 342.066 179.745C342.795 186.839 343.395 193.919 343.004 201.045C342.749 205.674 342.31 210.292 341.953 214.915C341.706 218.102 341.346 221.285 341.228 224.477C340.863 234.385 340.106 244.285 340.333 254.208C340.48 260.682 340.856 267.151 340.985 273.626C341.131 280.904 341.57 288.165 342.021 295.427C342.104 296.768 341.976 298.129 342.553 299.435C343.006 300.462 342.401 301.274 341.67 301.971C340.85 302.751 339.944 303.392 338.86 303.748C335.281 305.452 331.255 305.362 327.548 306.556C327.394 306.604 327.245 306.667 327.089 306.696C323.365 307.375 322.825 307.092 322.487 303.385C321.957 297.575 319.754 292.233 318.115 286.732C315.467 277.845 313.004 268.92 311.881 259.682C311.747 258.576 311.489 257.486 311.229 256.062C310.427 257.2 310.456 258.267 310.357 259.281C310.165 261.252 309.306 262.605 307.185 262.848C306.348 262.54 305.521 262.454 304.609 262.596C302.565 262.915 300.503 263.125 298.443 263.335C294.085 263.78 289.725 264.225 285.362 264.618C280.361 265.069 275.366 265.655 270.338 265.685C258.846 265.755 247.351 265.561 235.871 266.268C231.499 266.538 227.131 266.854 222.761 267.148C220.844 266.944 220.236 265.44 219.706 263.952C218.845 261.527 218.617 258.967 218.32 256.432C217.12 246.188 216.855 235.884 216.294 225.596C215.955 219.381 215.273 213.185 213.973 207.079C213.91 206.781 213.801 206.493 213.719 206.218C212.868 206.025 212.732 206.711 212.46 207.124C208.967 212.415 204.808 217.158 200.42 221.704C197.587 224.639 194.884 227.682 192.248 230.792C188.784 234.879 185.189 238.85 181.001 242.226C173.877 247.967 168.091 255.057 161.588 261.425C159.307 263.658 157.132 265.985 154.504 267.862C153.4 268.65 152.436 268.882 151.222 268.531C150.756 268.396 150.287 268.313 149.819 268.533C149.647 268.177 149.478 267.823 149.106 267.616C145.679 265.718 142.887 263.04 140.135 260.31C139.581 259.761 139.116 259.079 138.278 258.896C138.026 257.721 136.97 257.115 136.353 256.195Z" fill="#4A448C"/></g><path id="Fill 4" fill-rule="evenodd" clip-rule="evenodd" d="M138.558 292.506C141.471 297.524 143.18 302.829 142.529 308.729C142.149 312.174 140.575 315.109 138.761 317.956C134.501 324.645 129.757 330.969 124.587 336.98C123.65 338.069 122.779 339.22 121.942 340.389C120.946 341.78 120.969 341.811 122.161 342.877C126.21 346.504 130.3 350.089 134.309 353.76C137.539 356.717 138.809 356.233 134.458 360.708C127.434 367.935 119.94 374.68 112.687 381.672C104.85 389.228 97.2247 396.982 90.2627 405.344C84.8797 411.81 78.3197 416.389 70.3237 418.849C66.4947 420.027 62.5457 420.531 58.4997 419.913C56.5297 419.612 54.5347 419.483 52.5697 419.099C47.1897 418.049 42.8297 415.151 38.9427 411.485C30.2127 403.254 22.0387 394.49 14.3247 385.302C11.0387 381.389 7.85074 377.393 4.62074 373.434C4.21674 372.939 3.80774 372.446 3.42474 371.936C-0.508262 366.708 -1.11826 361.184 1.92974 355.322C4.62774 350.133 7.83974 345.268 11.2207 340.508C21.4667 326.085 32.8307 312.559 44.3807 299.181C46.9937 296.154 49.5637 293.087 52.5247 290.384C53.9247 289.106 53.9627 289.117 55.5517 290.13C59.7297 292.792 63.9217 295.433 68.0517 298.17C69.1127 298.873 69.7297 298.833 70.6647 297.928C73.1477 295.527 75.1857 292.749 77.4927 290.201C81.5147 285.757 85.3267 281.121 89.7897 277.086C94.5437 272.788 99.9907 270.573 106.464 271.415C109.982 271.873 113.285 273.04 116.401 274.734C115.404 276.538 113.885 278.073 113.571 280.229C111.246 279.092 108.84 278.376 106.204 278.473C102.275 278.617 98.8067 280.05 95.9677 282.614C91.4657 286.681 87.1667 290.976 82.8377 295.231C80.2277 297.796 77.7237 300.467 75.0857 303.179C80.1647 307.481 84.6347 312.166 89.8317 316.032C95.5407 320.278 101.043 324.779 106.364 329.504C108.629 331.515 110.939 333.474 113.268 335.489C113.604 335.174 113.856 334.984 114.053 334.746C117.661 330.369 121.319 326.031 124.848 321.592C127.484 318.275 129.919 314.773 131.588 310.867C133.706 305.908 134.333 300.864 131.269 295.96C132.891 295.236 134.688 294.974 136.219 293.983C136.991 293.483 137.466 292.495 138.558 292.506" fill="#010101"/><path id="SKIN" fill-rule="evenodd" clip-rule="evenodd" d="M127.544 285.588C126.966 284.355 125.98 284.094 125.207 283.588C124.948 283.419 124.567 283.485 124.367 283.802C124.185 284.089 124.173 284.429 124.398 284.69C125.184 285.596 126.136 286.002 127.544 285.588M132.386 290.213C131.647 289.151 130.904 288.446 130.021 287.908C129.762 287.751 129.373 287.739 129.179 288.075C129.072 288.259 129.011 288.535 129.062 288.736C129.363 289.924 130.665 290.551 132.386 290.213M122.631 281.421C121.557 280.778 120.351 280.568 119.568 279.667C119.325 279.387 118.948 279.097 118.571 279.481C118.266 279.793 118.324 280.218 118.487 280.586C119.056 281.865 120.685 282.234 122.631 281.421M113.57 280.229C113.884 278.073 115.403 276.538 116.401 274.734C116.545 274.671 116.731 274.648 116.828 274.543C121.092 269.93 126.527 266.916 131.777 263.668C134.08 262.243 136.105 260.48 138.277 258.897C139.116 259.079 139.581 259.761 140.134 260.31C142.886 263.04 145.679 265.717 149.106 267.616C149.478 267.822 149.647 268.177 149.818 268.533C149.744 268.673 149.696 268.839 149.59 268.95C145.116 273.66 142.814 279.488 140.951 285.562C140.345 287.538 139.731 289.531 138.7 291.347C138.481 291.734 138.583 292.118 138.558 292.506C137.466 292.495 136.99 293.483 136.218 293.983C134.688 294.974 132.89 295.236 131.269 295.961C130.718 295.463 130.035 295.218 129.331 295.148C126.125 294.827 124.234 292.855 123.432 289.987C122.628 287.117 120.979 285.452 118.105 284.902C117.874 284.858 117.658 284.736 117.433 284.656C115.32 283.901 113.929 282.516 113.57 280.229" fill="#6A4729"/><path id="SKIN_2" fill-rule="evenodd" clip-rule="evenodd" d="M334.074 330.905C334.491 330.917 334.766 330.791 334.746 330.568C334.658 329.61 333.803 329.435 333.117 329.154C332.825 329.033 332.479 329.274 332.532 329.657C332.667 330.634 333.472 330.759 334.074 330.905M330.858 319.509C330.014 320.377 329.638 321.294 329.27 322.207C329.151 322.502 329.161 322.864 329.461 323.044C329.76 323.223 330.064 323.076 330.244 322.785C330.817 321.863 331.322 320.921 330.858 319.509M337.16 330.999C336.719 331.058 336.43 331.147 336.364 331.531C336.247 332.217 337.108 333.055 338.083 333.137C338.569 333.177 339.208 332.988 339.05 332.445C338.787 331.546 337.798 331.384 337.16 330.999M334.375 340.774C335.636 338.717 335.769 336.428 335.691 334.106C335.685 333.937 335.411 333.679 335.221 333.635C334.871 333.554 334.624 333.83 334.547 334.141C334.006 336.305 333.636 338.484 334.375 340.774M327.548 306.556C331.255 305.363 335.281 305.452 338.86 303.748C340.107 308.079 340.336 312.555 340.553 317.005C340.802 322.105 340.81 327.221 340.805 332.33C340.802 336.28 339.906 340.08 338.416 343.737C337.929 344.931 337.293 346.038 336.359 346.937C334.95 348.296 333.39 348.092 332.428 346.36C332.01 345.606 331.77 344.737 331.543 343.896C330.096 338.552 329.486 333.089 329.193 327.577C329.059 325.045 329.034 325.047 326.508 324.671C324.319 324.344 323.448 323.168 323.975 320.688C324.687 317.337 325.603 314.027 326.483 310.713C326.85 309.33 327.367 307.987 327.548 306.556" fill="#6A4729"/><path id="Fill 10" fill-rule="evenodd" clip-rule="evenodd" d="M222.761 267.149C227.131 266.855 231.5 266.539 235.871 266.269C247.351 265.562 258.847 265.756 270.338 265.686C275.366 265.656 280.362 265.069 285.363 264.619C289.726 264.226 294.085 263.781 298.444 263.336C300.503 263.126 302.566 262.916 304.61 262.597C305.522 262.455 306.349 262.541 307.186 262.849C306.684 263.868 305.615 263.962 304.738 264.119C301.205 264.753 297.683 265.42 294.085 265.703C288.674 266.128 283.289 266.885 277.88 267.347C272.55 267.803 267.214 268.024 261.846 267.886C256.903 267.759 251.942 267.643 246.991 267.957C240.29 268.382 233.581 268.561 226.867 268.505C225.396 268.493 223.827 268.509 222.761 267.149" fill="#0E0E11"/><path id="Fill 12" fill-rule="evenodd" clip-rule="evenodd" d="M311.117 230.387C312.429 233.845 311.99 250.878 310.88 253.753C310.756 253.458 310.93 253.918 310.643 253.775C310.589 253.748 310.521 253.68 310.519 253.628C310.355 249.334 310.106 245.039 310.074 240.743C310.055 238.203 310.347 235.658 310.568 233.12C310.648 232.2 310.929 231.298 311.117 230.387" fill="#0E0E11"/><path id="Fill 14" fill-rule="evenodd" clip-rule="evenodd" d="M122.632 281.421C120.685 282.235 119.057 281.866 118.488 280.586C118.324 280.218 118.267 279.794 118.572 279.482C118.948 279.097 119.326 279.387 119.569 279.668C120.351 280.569 121.558 280.778 122.632 281.421" fill="#0E0E11"/><path id="Fill 16" fill-rule="evenodd" clip-rule="evenodd" d="M132.386 290.213C130.665 290.551 129.364 289.925 129.062 288.736C129.011 288.535 129.072 288.26 129.179 288.075C129.373 287.739 129.762 287.751 130.021 287.908C130.905 288.446 131.647 289.151 132.386 290.213" fill="#0E0E11"/><path id="Fill 18" fill-rule="evenodd" clip-rule="evenodd" d="M127.544 285.588C126.136 286.002 125.184 285.596 124.398 284.69C124.173 284.429 124.185 284.089 124.367 283.802C124.567 283.485 124.948 283.419 125.207 283.588C125.98 284.094 126.966 284.355 127.544 285.588" fill="#0E0E11"/><path id="Fill 20" fill-rule="evenodd" clip-rule="evenodd" d="M334.374 340.774C333.635 338.484 334.005 336.305 334.546 334.141C334.623 333.83 334.87 333.554 335.221 333.635C335.41 333.679 335.685 333.937 335.69 334.106C335.769 336.428 335.635 338.716 334.374 340.774" fill="#0E0E11"/><path id="Fill 22" fill-rule="evenodd" clip-rule="evenodd" d="M337.16 330.999C337.798 331.385 338.787 331.546 339.05 332.445C339.208 332.988 338.569 333.178 338.083 333.138C337.108 333.056 336.247 332.218 336.364 331.531C336.431 331.147 336.719 331.059 337.16 330.999" fill="#0E0E11"/><path id="Fill 24" fill-rule="evenodd" clip-rule="evenodd" d="M330.858 319.508C331.322 320.92 330.817 321.862 330.244 322.784C330.064 323.075 329.759 323.223 329.461 323.043C329.161 322.863 329.151 322.501 329.27 322.206C329.638 321.293 330.014 320.376 330.858 319.508" fill="#0E0E11"/><path id="Fill 26" fill-rule="evenodd" clip-rule="evenodd" d="M334.074 330.905C333.472 330.759 332.667 330.634 332.532 329.657C332.479 329.274 332.825 329.033 333.117 329.154C333.803 329.435 334.658 329.61 334.746 330.568C334.766 330.791 334.491 330.917 334.074 330.905" fill="#0E0E11"/></g></g></g><g id="Facial Hair" transform="translate(237 72) scale(66 62)"><g id="Facial Hair/None" stroke="none" stroke-width="1" fill="none" fill-rule="evenodd" fill-opacity="0"/></g><g id="Accessories" transform="translate(223 24) scale(1 1)"><g id="Accessories/Glasses"><path id="Accesories" fill-rule="evenodd" clip-rule="evenodd" d="M48.8649 47.6211C49.4694 51.5343 50.1676 55.3745 51.6947 58.9888C52.6004 61.1334 54.4019 62.3611 56.713 62.5581C59.088 62.7621 60.9333 61.5913 62.0893 59.6087C64.1361 56.0994 65.1665 52.2671 65.2274 48.181C65.2453 47.0452 64.8274 46.3093 63.6923 46.1344C62.3566 45.9284 61.0141 45.7045 59.6675 45.6555C55.9808 45.5235 52.365 45.8744 48.8649 47.6211M21.6091 48.6479C22.1538 52.4451 22.8241 56.1934 24.429 59.6977C25.2818 61.5603 26.6902 62.981 28.5186 63.9088C31.3684 65.3535 34.4026 64.6177 36.0844 62.0342C38.4214 58.4419 39.371 54.4637 39.0478 50.1976C38.8962 48.202 38.7077 47.83 36.6799 47.5041C33.6286 47.0132 30.5365 46.6633 27.4493 46.5333C25.3596 46.4453 23.4305 47.3151 21.6091 48.6479M41.0757 46.3813C42.5719 46.2263 44.3823 46.0674 46.1837 45.8374C46.7882 45.7614 47.3956 45.5635 47.9582 45.3205C53.8822 42.758 59.9109 42.1971 66.1111 44.2457C66.6847 44.4347 67.349 44.4597 67.9594 44.4077C69.8626 44.2427 71.7568 43.9798 73.6599 43.8058C74.431 43.7348 75.212 43.7938 76 43.7938C75.9003 45.7704 75.7606 46.0144 74.2784 46.2213C72.2366 46.5073 70.1808 46.7033 67.9135 46.9622C67.8507 47.825 67.7579 48.5969 67.748 49.3687C67.6951 53.137 66.531 56.5983 64.8044 59.8826C63.1107 63.103 60.4864 65.0306 56.7539 64.9066C53.172 64.7867 50.0778 62.2572 48.9687 58.4749C48.1388 55.6505 47.5971 52.7371 47.0106 49.8456C46.6126 47.89 46.3313 47.5991 44.3364 47.743C43.9404 47.771 43.5404 47.824 43.1554 47.919C42.6228 48.052 42.1041 48.2359 41.4308 48.4439C41.4308 49.7347 41.4059 50.9984 41.4348 52.2611C41.5216 56.1574 40.2249 59.6467 38.2259 62.89C35.7223 66.9522 31.2008 68.132 27.0034 65.8504C24.4589 64.4677 22.5358 62.4071 21.659 59.6447C20.8171 56.9962 20.3124 54.2378 19.688 51.5213C19.5145 50.7694 19.4357 49.9956 19.313 49.2248C17.1096 49.2058 15.3101 51.1024 13 49.6277C13.7641 49.1568 14.4852 48.5859 15.3002 48.2339C17.8557 47.1302 20.4052 45.9874 23.0375 45.0996C24.82 44.4977 26.7281 44.0558 28.5964 43.9858C30.8068 43.9028 33.068 44.1268 35.2465 44.5387C37.1646 44.9006 38.998 45.7045 41.0757 46.3813" fill="black"/></g></g></g></svg>