<svg viewBox="122.5701754385965 234 257.6315789473683 390" fill="none" xmlns="http://www.w3.org/2000/svg" xmlns:xlink="http://www.w3.org/1999/xlink" overflow="visible" width="257.6315789473683px" height="390px"><g id="Master/Character/Sitting on Floor"><g id="Head" transform="translate(205 240) scale(1 1)"><g id="Head/Afro"><g id="Head"><path id="SKIN" fill-rule="evenodd" clip-rule="evenodd" d="M92.3241 53.1185C92.3251 53.5975 92.3701 54.0825 92.3171 54.5555C92.1031 56.4855 92.1381 57.8975 94.3371 59.1725C97.7941 61.1785 97.3241 66.2745 93.4801 68.2145C91.0941 69.4195 90.5541 71.0155 90.0841 73.3295C88.7391 79.9265 86.4601 86.2395 83.3841 92.2435C81.9421 95.0565 79.8961 97.4185 77.5201 99.4605C76.0951 100.686 75.2251 102.015 75.3041 103.961C75.3691 105.554 75.0561 107.175 75.2381 108.746C75.6321 112.159 73.5861 114.337 70.5781 115.047C65.5951 116.223 60.4991 116.782 55.3601 115.996C53.7831 115.756 52.2101 115.515 50.7111 114.892C49.9061 114.559 49.6161 114.226 49.8341 113.296C50.4931 110.495 50.9761 107.658 51.1731 104.781C51.2111 104.223 51.2511 103.664 51.3001 103.107C51.5801 99.8985 50.6261 97.4475 47.6181 95.7405C44.1921 93.7955 41.8991 90.6245 40.0881 87.2075C37.4281 82.1915 35.0901 77.0345 33.9321 71.4065C33.4621 69.1245 33.1311 66.8355 32.9921 64.5275C32.7021 59.6655 32.0571 54.8165 32.5661 49.9245C33.3661 42.2255 37.0911 36.1325 43.0861 31.5115C49.0751 26.8945 55.9011 23.8775 63.5151 23.3755C69.2001 23.0005 74.8591 23.6315 80.1661 26.0285C83.2611 27.4275 85.5921 29.6395 87.2061 32.6295C90.6561 39.0255 92.2851 45.8725 92.3241 53.1185" fill="#8f7240"/><g id="Group 5"><path id="Fill 3" fill-rule="evenodd" clip-rule="evenodd" d="M72.1583 10.9467C73.0413 10.5087 73.6523 10.1387 74.3083 9.8927C75.9453 9.2787 77.5723 8.6017 79.2593 8.1687C81.9543 7.4747 84.3153 8.3197 86.3213 10.1737C88.7353 12.4067 89.8833 15.2407 90.0733 18.4787C90.1423 19.6647 90.0853 20.8587 90.0853 22.2767C91.1663 22.1027 92.0653 21.9407 92.9703 21.8147C97.3313 21.2087 100.372 23.4237 101.203 27.7877C101.684 30.3137 101.345 32.7167 100.176 35.0047C99.8503 35.6417 99.5273 36.2797 99.1243 37.0757C100.593 37.7327 102.04 38.3687 102.567 40.0637C103.341 42.5537 103.679 45.0567 103.04 47.6187C102.166 51.1257 100.338 54.1067 97.7773 56.6107C95.9073 58.4387 93.4943 59.0757 90.9523 59.0637C88.8393 59.0527 87.2553 57.7167 86.7453 55.4667C86.4163 54.0107 86.4343 52.4777 86.2733 50.7207C83.6243 50.8897 81.2323 49.8867 79.4463 47.5597C77.6753 45.2517 77.8863 42.6197 78.1463 39.7077C72.7323 40.1037 69.1733 37.6047 67.3573 32.4557C63.5063 35.7147 59.4073 36.1417 54.8433 33.6547C54.7783 34.6527 54.7273 35.4027 54.6823 36.1517C54.5303 38.6487 53.3113 40.4197 50.9353 41.1917C49.1993 41.7567 47.3873 42.0967 45.5983 42.4827C44.8293 42.6477 44.0313 42.6737 42.9463 42.7967C43.7413 46.2327 42.2653 48.9087 40.2913 51.4157C38.1413 54.1467 35.2373 55.5657 31.8763 55.9897C28.0993 56.4657 23.3313 53.1637 22.2413 49.5107C21.7053 47.7117 22.0093 46.0277 22.9173 44.4367C23.3503 43.6777 23.8693 42.9677 24.4023 42.1547C22.5403 38.2847 22.3773 34.3947 24.4103 30.4647C26.4023 26.6147 29.1033 23.8107 33.8463 23.6077C34.0263 22.3027 34.1493 21.0517 34.3783 19.8207C34.8553 17.2547 35.9793 14.9667 37.6163 12.9527C40.7053 9.1527 44.8483 8.3497 49.1783 10.6507C49.6533 10.9037 50.1303 11.1527 50.7903 11.4987C51.0053 10.8237 51.1373 10.3077 51.3303 9.8157C52.9983 5.5717 55.8253 2.4687 60.2493 1.0717C64.4633 -0.2583 67.9093 1.1947 69.8453 5.1367C70.7183 6.9137 71.3233 8.8217 72.1583 10.9467" fill="#020c1f"/></g></g></g></g><g id="Expression" transform="translate(235 281) scale(1 1)"><g id="Expression/Happy 2"><g id="Group 26"><g id="Group 5"><path id="Fill 3" fill-rule="evenodd" clip-rule="evenodd" d="M52.6674 11.291C52.0964 11.705 51.4274 11.657 50.8144 11.566C47.1994 11.025 43.8554 11.993 40.5654 13.318C39.7534 13.645 38.9434 13.95 38.0324 13.955C37.0754 13.959 36.3224 13.574 35.6944 12.929C34.8914 12.103 34.8804 11.003 35.8914 10.494C38.7494 9.05601 41.7454 7.92001 45.0214 8.00401C47.8204 8.07601 50.2564 9.22201 52.4794 10.858C52.5874 10.938 52.6054 11.142 52.6674 11.291" fill="black"/></g><path id="Fill 6" fill-rule="evenodd" clip-rule="evenodd" d="M19.6013 10.4521C20.6013 10.3751 21.6673 10.6131 22.6393 11.2501C23.5453 11.8451 23.8393 12.6781 23.6883 13.7251C23.5453 14.7241 22.7343 14.9621 21.9833 15.1601C21.3833 15.3171 20.7074 15.3561 20.0934 15.2631C17.1054 14.8071 14.2284 15.3751 11.3514 16.0671C10.5454 16.2611 9.48135 16.8971 8.97135 15.9051C8.47235 14.9351 9.57935 14.3931 10.1984 13.8441C12.4154 11.8751 16.3163 10.4741 19.6013 10.4521" fill="black"/><g id="Group 10"><path id="Fill 8" fill-rule="evenodd" clip-rule="evenodd" d="M21.2827 58.2577C25.1057 59.0247 28.1707 60.6057 31.5867 61.0427C34.9547 61.4727 38.1527 60.4787 41.6427 60.2817C40.8697 61.5787 39.8037 61.9747 38.7657 62.2297C32.7757 63.7027 27.2227 62.4537 22.0047 59.3567C21.8287 59.2527 21.7507 58.9847 21.2827 58.2577" fill="black"/></g><path id="Fill 11" fill-rule="evenodd" clip-rule="evenodd" d="M52.8315 21.2558C49.9155 21.0558 47.6035 20.1378 45.1965 20.6098C42.8575 21.0668 40.8365 22.4898 38.5485 22.9078C38.2725 22.6028 38.2445 22.3228 38.4285 22.1838C41.0615 20.1868 43.8175 18.4868 47.2905 18.4458C49.4125 18.4208 51.1395 19.1468 52.8315 21.2558" fill="black"/><path id="Fill 13" fill-rule="evenodd" clip-rule="evenodd" d="M23.9062 24.1054C21.6462 23.3934 19.4012 22.6434 17.0262 22.5924C14.6692 22.5424 12.7102 24.0384 10.3452 24.5444C13.5762 19.8014 20.8312 19.4934 23.9062 24.1054" fill="black"/><path id="Fill 15" fill-rule="evenodd" clip-rule="evenodd" d="M37.5002 32.6529C36.0082 35.2409 31.6132 36.5159 29.2982 35.1569C28.4792 34.6759 27.9952 33.9299 28.0132 33.0009C28.0372 31.7399 28.2662 30.5029 29.1382 29.3029C29.8632 30.1909 29.5342 31.0559 29.5342 31.8649C29.5342 33.5659 29.8942 33.9649 31.6252 34.0279C32.9912 34.0779 34.3162 33.8799 35.5792 33.2879C36.1312 33.0279 36.5962 32.4919 37.5002 32.6529" fill="black"/><path id="Fill 17" fill-rule="evenodd" clip-rule="evenodd" d="M29.5084 23.4399C27.7584 21.1509 27.4554 18.5039 27.2244 15.8439C27.1894 15.4479 27.3284 14.9679 27.7304 14.8569C28.2964 14.7009 28.5954 15.1999 28.7634 15.6279C29.7514 18.1499 30.0484 20.7529 29.5084 23.4399" fill="black"/><path id="Fill 19" fill-rule="evenodd" clip-rule="evenodd" d="M10.54 26.749C10.041 27.829 9.269 28.404 8.352 28.7C7.682 28.916 6.809 29.237 7.451 27.773C8.035 26.439 6.153 27.395 6 26.477C7.519 24.699 8.94 26.689 10.54 26.749" fill="black"/><g id="Group 23"><path id="Fill 21" fill-rule="evenodd" clip-rule="evenodd" d="M57.223 20.4164C57.036 21.3854 55.962 21.2764 55.476 21.8614C54.827 22.6424 56.136 22.9964 55.999 23.7144C54.084 23.3854 54.037 23.3114 54.369 21.3174C54.521 20.4074 55.358 20.1394 57.223 20.4164" fill="black"/></g></g><path id="Fill 24" fill-rule="evenodd" clip-rule="evenodd" d="M42.5981 41.5287C36.9751 43.8417 31.1361 46.1807 25.8861 44.1957C25.2781 43.9657 24.9601 45.7157 25.5641 45.9437C30.8941 47.9597 36.8391 45.6107 42.5481 43.2617C43.2091 42.9907 43.2661 41.2537 42.5981 41.5287" fill="black"/></g></g><g id="Lower Body Sitting" transform="translate(69 123) scale(1 1)"><g id="Lower Body Sitting/Cross Legged 4"><g id="Group 25"><g id="Group 3"><path id="Fill 1" fill-rule="evenodd" clip-rule="evenodd" d="M156.87 361.469C156.821 361.414 156.775 361.32 156.722 361.315C156.668 361.309 156.605 361.393 156.547 361.438C156.596 361.493 156.641 361.587 156.695 361.592C156.749 361.597 156.811 361.513 156.87 361.469M201.936 417.52C202.231 416.663 202.843 416.391 203.341 416.018C207.183 413.138 211.261 410.607 215.278 407.989C221.305 404.059 227.379 400.203 233.425 396.303C233.826 396.046 234.439 395.902 234.388 395.212C233.801 395.047 233.361 395.299 232.934 395.47C231.526 396.036 230.086 396.555 228.75 397.264C218.635 402.627 208.845 408.505 199.991 415.819C198.836 416.772 197.724 417.008 196.259 416.765C192.161 416.087 188.051 415.381 183.916 415.037C175.712 414.355 167.489 413.891 159.271 413.388C158.21 413.323 157.06 413.067 156.056 413.743C156.203 414.155 156.44 414.336 156.782 414.392C161.748 415.209 166.704 416.057 171.737 416.433C176.756 416.807 181.779 417.113 186.778 417.803C197.639 419.303 208.369 421.363 218.928 424.353C224.692 425.985 230.483 427.555 236.384 428.652C236.886 428.745 237.408 428.973 237.842 428.657C237.841 428.073 237.501 427.999 237.22 427.884C225.878 423.225 213.932 420.619 201.936 417.52M234.215 467.979C232.998 471.863 231.81 475.757 230.555 479.628C229.754 482.098 228.844 482.634 226.264 482.326C220.797 481.675 215.354 480.815 209.86 480.404C206.596 480.16 203.323 480.135 200.055 479.853C194.408 479.367 188.785 478.694 183.16 478.021C181.258 477.794 179.348 477.573 177.436 477.507C171.133 477.289 164.828 477.143 158.523 476.97C157.879 476.586 157.154 476.587 156.442 476.55C151.837 476.307 147.236 475.981 142.621 475.967C140.794 475.962 138.964 475.897 137.143 475.757C131.768 475.342 126.397 474.875 121.024 474.428C117.651 473.811 114.259 473.282 110.909 472.557C104.488 471.168 98.3513 468.851 92.2213 466.548C89.7343 465.614 87.4883 464.181 85.6443 462.245C82.5503 458.995 82.3243 454.979 82.7313 450.8C83.9663 438.14 89.0953 426.98 95.8523 416.429C101.069 408.283 107.62 401.316 114.724 394.819C119.686 390.28 125.222 386.446 130.291 382.043C132.583 380.052 134.831 378.009 137.069 375.955C141.368 372.01 145.592 367.98 149.952 364.102C152.574 361.77 155.504 359.793 158.069 357.381C158.34 357.126 158.721 356.802 159.11 357.154C159.494 357.501 159.218 357.882 159.004 358.216C158.416 359.134 157.434 359.814 157.257 360.948C157.649 361.356 158.061 361.292 158.417 361.138C162.237 359.495 166.327 359.149 170.379 358.93C180.191 358.4 190.002 357.524 199.84 357.905C206.304 358.156 212.759 358.642 219.211 359.117C223.359 359.422 227.515 359.312 231.667 359.63C236.302 359.985 240.842 360.692 245.385 361.668C255.298 363.799 265.285 365.603 275.029 368.46C281.768 370.436 288.649 371.97 295.132 374.762C298.738 376.315 302.293 377.934 305.026 380.922C308.172 384.364 309.734 388.335 310.083 393.025C310.747 401.948 308.519 410.103 304.447 417.923C302.105 422.419 298.942 426.341 296.128 430.511C291.957 436.693 286.328 441.435 280.949 446.437C279.138 448.121 277.303 449.779 275.48 451.449C274.832 451.575 274.212 451.395 273.587 451.274C266.854 449.972 260.122 448.656 253.385 447.373C250.036 446.735 246.674 446.159 243.254 445.543C243.307 445.075 243.286 444.747 243.386 444.462C244.573 441.071 245.785 437.692 247.665 434.6C248.12 433.852 248.521 433.069 248.914 432.286C249.061 431.994 249.065 431.639 248.775 431.417C248.498 431.205 248.139 431.228 247.905 431.469C247.238 432.15 246.541 432.819 245.976 433.582C243.654 436.715 242.401 440.326 241.411 444.047C241.226 444.739 241.111 445.473 240.792 446.101C237.621 452.35 235.99 459.098 234.343 465.842C234.172 466.541 234.088 467.257 234.215 467.979" fill="#EEB39C"/></g><path id="Fill 4" fill-rule="evenodd" clip-rule="evenodd" d="M244.717 467.674C245.242 465.938 245.842 464.22 246.278 462.462C247.291 458.371 248.251 454.269 249.664 450.291C249.717 450.141 249.79 449.995 249.824 449.841C249.958 449.24 250.324 448.5 249.503 448.193C248.705 447.895 248.462 448.716 248.112 449.203C247.881 449.524 247.715 449.893 247.536 450.247C246.091 453.115 245.245 456.17 244.724 459.325C244.272 462.061 243.761 464.793 244.717 467.674M270.925 474.797C270.447 473.099 270.097 472.602 268.495 471.82C265.209 470.215 261.769 469.903 258.235 470.815C257.312 471.053 256.394 471.385 255.654 472.029C255.248 472.383 254.677 472.748 254.979 473.402C255.286 474.07 255.848 473.884 256.417 473.695C260.08 472.483 263.662 473.008 267.221 474.203C268.409 474.602 269.591 475.188 270.925 474.797M239.894 466.431C241.069 464.895 241.419 463.267 241.809 461.693C242.823 457.589 243.842 453.493 245.4 449.55C245.697 448.796 246.422 447.747 245.355 447.238C244.259 446.715 243.922 447.97 243.528 448.675C240.944 453.282 239.785 458.305 239.374 463.523C239.303 464.43 239.297 465.377 239.894 466.431M285.144 474.202C286.366 473.418 286.899 472.434 287.428 471.457C290.12 466.493 292.817 461.53 295.475 456.548C295.895 455.761 296.868 454.662 295.843 454.03C294.852 453.42 294.256 454.778 293.719 455.479C290.06 460.252 287.338 465.543 285.253 471.171C284.92 472.069 284.799 472.994 285.144 474.202M234.216 467.98C234.089 467.257 234.173 466.541 234.344 465.842C235.99 459.099 237.622 452.351 240.793 446.102C241.112 445.474 241.227 444.739 241.411 444.047C242.402 440.326 243.655 436.715 245.977 433.582C246.542 432.82 247.238 432.151 247.905 431.469C248.14 431.229 248.499 431.205 248.776 431.417C249.066 431.64 249.062 431.994 248.915 432.286C248.522 433.07 248.121 433.853 247.666 434.601C245.785 437.693 244.573 441.071 243.387 444.462C243.286 444.747 243.308 445.075 243.255 445.543C246.675 446.159 250.036 446.736 253.386 447.373C260.123 448.656 266.855 449.973 273.588 451.275C274.213 451.396 274.833 451.575 275.481 451.449C278.805 452.471 282.246 452.646 285.675 452.665C290.712 452.695 295.75 452.541 300.787 452.435C302.716 452.394 304.627 452.484 306.504 452.941C309.677 453.712 310.536 456.116 308.563 458.691C307.728 459.78 306.694 460.663 305.565 461.433C304.64 462.064 303.715 462.696 302.764 463.284C300.852 464.467 299.536 466.064 298.867 468.254C298.082 470.825 296.696 473.014 294.524 474.713C292.594 476.223 290.48 476.879 288.06 476.77C285.339 476.647 282.635 476.34 279.973 475.811C276.766 475.174 273.955 475.891 271.415 477.867C269.231 479.567 266.826 480.692 264.046 481.096C261.531 481.462 259.298 481.065 257.257 479.513C256.105 478.637 255.046 477.667 254.056 476.622C251.126 473.533 247.647 471.409 243.499 470.342C240.407 469.546 237.356 468.591 234.216 467.98" fill="#151515"/><g id="Group 8"><path id="Fill 6" fill-rule="evenodd" clip-rule="evenodd" d="M107.214 491.672C106.417 490.254 105.507 489.377 104.574 488.567C101.025 485.482 97.4434 482.434 93.8394 479.411C93.3004 478.959 92.6934 477.819 91.9234 478.625C91.2104 479.371 92.2594 480.049 92.7624 480.551C96.2644 484.046 99.9804 487.304 103.949 490.26C104.804 490.897 105.742 491.465 107.214 491.672M142.077 485.819C140.514 484.639 139.245 484.319 136.958 484.756C132.895 485.531 129.601 487.712 126.709 490.573C126.488 490.792 126.28 491.058 126.163 491.342C126.047 491.625 125.998 491.996 126.326 492.198C126.508 492.311 126.77 492.357 126.987 492.337C127.668 492.276 128.111 491.759 128.616 491.384C131.869 488.969 135.332 487.109 139.503 486.86C140.406 486.807 141.435 486.702 142.077 485.819M121.024 474.429C126.397 474.875 131.768 475.342 137.143 475.757C138.964 475.898 140.794 475.962 142.621 475.967C147.236 475.982 151.837 476.308 156.442 476.55C157.153 476.587 157.879 476.586 158.523 476.971C154.926 479.028 151.365 481.154 147.715 483.114C145.899 484.089 145.133 485.361 145.555 487.382C146.01 489.561 144.973 491.082 143.26 492.24C142.121 493.011 140.833 493.433 139.487 493.697C135.702 494.443 131.881 494.582 128.034 494.469C123.082 494.323 118.127 494.287 113.176 494.133C111.011 494.066 109.084 494.61 107.308 495.824C105.915 496.776 104.408 497.519 102.777 497.961C99.6354 498.814 97.1154 497.8 95.4384 494.981C94.7464 493.818 94.0734 492.622 93.5804 491.367C92.7304 489.205 91.2584 487.817 89.0784 487.056C87.3474 486.451 85.6264 485.791 83.9644 485.019C81.6484 483.942 80.7684 482.584 81.0504 480.855C81.3374 479.096 82.8614 477.763 85.1294 477.34C87.8184 476.838 90.5454 476.938 93.2584 476.925C96.4544 476.91 99.6514 477.059 102.846 477.022C107.659 476.966 112.363 475.965 117.09 475.195C118.405 474.982 119.786 475.054 121.024 474.429" fill="#151515"/></g><path id="Fill 9" fill-rule="evenodd" clip-rule="evenodd" d="M201.936 417.521C213.932 420.62 225.878 423.226 237.22 427.884C237.501 428 237.841 428.074 237.842 428.658C237.408 428.974 236.886 428.746 236.384 428.653C230.483 427.556 224.692 425.986 218.928 424.354C208.369 421.364 197.639 419.304 186.778 417.804C181.779 417.114 176.756 416.808 171.737 416.434C166.705 416.058 161.748 415.209 156.782 414.393C156.44 414.336 156.204 414.156 156.056 413.744C157.06 413.068 158.21 413.324 159.271 413.389C167.489 413.892 175.712 414.356 183.916 415.038C188.051 415.381 192.161 416.087 196.259 416.766C197.724 417.008 198.836 416.773 199.991 415.82C208.845 408.506 218.635 402.627 228.75 397.265C230.086 396.556 231.526 396.037 232.934 395.471C233.361 395.299 233.801 395.047 234.388 395.213C234.439 395.903 233.826 396.046 233.425 396.304C227.379 400.204 221.305 404.06 215.278 407.989C211.261 410.608 207.183 413.139 203.341 416.019C202.843 416.392 202.231 416.664 201.936 417.521" fill="#191A1B"/><path id="Fill 11" fill-rule="evenodd" clip-rule="evenodd" d="M156.87 361.469C156.811 361.513 156.749 361.597 156.695 361.592C156.641 361.587 156.596 361.493 156.547 361.438C156.605 361.393 156.668 361.309 156.722 361.315C156.775 361.32 156.821 361.414 156.87 361.469" fill="white"/><path id="Fill 13" fill-rule="evenodd" clip-rule="evenodd" d="M285.143 474.202C284.798 472.994 284.919 472.068 285.252 471.171C287.337 465.543 290.059 460.252 293.718 455.478C294.255 454.778 294.851 453.42 295.842 454.03C296.868 454.662 295.894 455.761 295.474 456.548C292.816 461.53 290.12 466.493 287.427 471.457C286.898 472.433 286.366 473.418 285.143 474.202" fill="#EFEFEF"/><path id="Fill 15" fill-rule="evenodd" clip-rule="evenodd" d="M239.893 466.431C239.296 465.377 239.302 464.43 239.373 463.523C239.785 458.305 240.943 453.283 243.527 448.675C243.921 447.97 244.258 446.715 245.354 447.239C246.421 447.747 245.697 448.796 245.399 449.55C243.841 453.493 242.823 457.589 241.808 461.693C241.418 463.267 241.068 464.895 239.893 466.431" fill="#EDEDED"/><path id="Fill 17" fill-rule="evenodd" clip-rule="evenodd" d="M270.924 474.797C269.59 475.188 268.408 474.602 267.22 474.203C263.661 473.008 260.079 472.483 256.416 473.695C255.847 473.884 255.285 474.069 254.978 473.401C254.676 472.748 255.247 472.383 255.653 472.029C256.393 471.385 257.311 471.053 258.234 470.815C261.768 469.902 265.208 470.215 268.494 471.82C270.096 472.602 270.446 473.099 270.924 474.797" fill="#ECECEC"/><path id="Fill 19" fill-rule="evenodd" clip-rule="evenodd" d="M244.716 467.674C243.76 464.793 244.271 462.061 244.723 459.325C245.244 456.17 246.09 453.115 247.535 450.247C247.714 449.893 247.88 449.524 248.111 449.203C248.461 448.716 248.704 447.895 249.502 448.193C250.323 448.5 249.957 449.24 249.823 449.841C249.789 449.995 249.716 450.141 249.663 450.291C248.25 454.269 247.29 458.371 246.277 462.462C245.841 464.22 245.241 465.938 244.716 467.674" fill="#EDEDED"/><path id="Fill 21" fill-rule="evenodd" clip-rule="evenodd" d="M142.077 485.82C141.435 486.703 140.407 486.807 139.503 486.861C135.332 487.109 131.869 488.969 128.616 491.384C128.111 491.759 127.668 492.276 126.987 492.338C126.77 492.357 126.508 492.311 126.326 492.199C125.998 491.997 126.047 491.626 126.163 491.342C126.28 491.058 126.488 490.793 126.709 490.574C129.601 487.713 132.895 485.532 136.958 484.757C139.245 484.32 140.515 484.639 142.077 485.82" fill="#ECECEC"/><path id="Fill 23" fill-rule="evenodd" clip-rule="evenodd" d="M107.214 491.672C105.742 491.465 104.804 490.897 103.949 490.26C99.9804 487.304 96.2644 484.046 92.7624 480.551C92.2594 480.049 91.2104 479.371 91.9234 478.625C92.6934 477.819 93.3004 478.959 93.8394 479.411C97.4434 482.434 101.025 485.482 104.574 488.567C105.507 489.377 106.417 490.254 107.214 491.672" fill="#E7E7E7"/></g></g></g><g id="Upper Body" transform="translate(0 227) scale(1 1)"><g id="Upper Body/Wave"><g id="Group 21"><path id="Fill 1" fill-rule="evenodd" clip-rule="evenodd" d="M276.4 148.742C276.693 147.856 276.073 147.628 275.677 147.286C274.47 146.242 273.242 145.224 272.041 144.175C271.633 143.82 271.057 143.425 271.544 142.792C272.491 141.561 273.15 140.175 274.963 139.68C279.448 138.458 283.208 135.915 286.435 132.584C286.877 132.127 287.391 131.719 287.573 131.071C287.729 130.51 287.787 129.9 287.261 129.534C286.653 129.111 286.172 129.581 285.853 130.027C285.146 131.015 284.121 131.687 283.362 132.599C280.513 136.025 276.765 137.825 272.504 138.642C264.806 140.117 257.729 139.077 251.863 133.329C251.134 132.616 250.249 132.062 249.305 131.332C249.281 131.748 249.242 131.85 249.277 131.901C252.666 136.774 257.115 139.99 263.132 140.745C264.003 140.855 264.905 140.854 265.737 141.094C267.028 141.465 267.951 142.47 268.468 143.607C268.857 144.461 267.879 145.162 267.42 145.883C266.518 147.296 265.581 148.685 264.676 150.096C264.296 150.689 263.796 151.281 264.396 152.184C265.349 151.882 265.907 151.114 266.439 150.341C267.345 149.027 268.21 147.683 269.11 146.365C270.147 144.846 270.146 144.864 271.594 146.003C272.408 146.644 273.231 147.283 274.104 147.838C274.802 148.282 275.505 148.843 276.4 148.742M256.317 185.678H256.264C256.264 184.239 256.268 182.8 256.263 181.361C256.259 179.842 256.26 178.323 256.236 176.804C256.198 174.32 255.601 173.732 253.018 173.946C249.755 174.216 246.494 174.536 243.25 174.969C238.977 175.537 234.715 176.198 230.461 176.896C228.377 177.239 228.029 177.702 228.024 179.723C228.009 184.762 228.127 189.796 228.697 194.809C228.925 196.817 229.678 198.464 231.429 199.63C234.289 201.534 237.116 203.489 239.918 205.477C241.469 206.577 242.878 206.324 244.336 205.33C247.569 203.125 250.8 200.914 254.075 198.771C255.722 197.693 256.367 196.233 256.331 194.314C256.276 191.436 256.317 188.556 256.317 185.678M316.491 205.571C316.02 205.649 315.548 205.72 315.08 205.806C314.091 205.99 313.591 206.487 313.583 207.595C313.57 209.35 313.371 211.103 313.273 212.859C312.703 223.067 312.25 233.284 311.522 243.482C311.182 248.255 310.09 252.949 308.963 257.609C308.684 258.767 308.281 259.811 306.729 259.404C304.428 259.39 302.126 259.318 299.825 259.374C293.757 259.522 287.689 259.682 281.624 259.92C276.119 260.136 270.616 260.414 265.117 260.753C259.703 261.086 254.303 261.652 248.876 261.738C242.245 261.842 235.613 261.893 228.983 261.97C227.874 261.982 226.725 261.812 225.774 262.616C224.589 262.893 223.386 262.792 222.196 262.724C219.945 262.595 219.308 261.965 219 259.661C218.841 258.474 218.71 257.282 218.624 256.087C218.031 247.805 217.46 239.519 216.534 231.266C215.796 224.68 215.071 218.096 214.456 211.497C213.619 202.516 212.29 193.58 212.128 184.54C212.096 182.788 212.042 182.755 210.344 183.054C207.284 183.593 204.288 184.479 201.171 184.711C200.218 184.782 199.273 184.992 198.312 184.825C197.569 182.059 196.486 179.404 195.765 176.623C194.747 172.703 193.795 168.765 192.707 164.859C191.712 161.284 190.622 157.681 190.659 153.894C191.455 152.532 192.817 151.79 194.02 150.894C199.879 146.529 206.33 143.159 212.888 140.018C223.342 135.012 234.104 130.739 245.122 127.138C247.698 126.297 250.373 125.763 252.975 124.997C254.129 124.657 255.049 124.769 256.092 125.429C261.121 128.612 266.622 128.842 272.261 127.703C274.396 127.271 276.364 126.339 277.93 124.755C279.398 123.269 280.9 123.128 282.915 123.851C287.567 125.521 292.339 126.856 297.053 128.359C306.057 131.229 314.817 134.657 322.794 139.831C326.11 141.983 328.952 144.667 331.386 147.769C337.704 155.818 341.399 164.975 342.786 175.082C343.504 180.32 343.798 185.579 343.335 190.86C343.257 191.734 343.089 192.6 343.028 193.474C342.801 196.654 341.229 198.669 338.052 199.332C335.676 200 333.296 200.65 330.926 201.339C326.111 202.738 321.302 204.159 316.491 205.571" fill="#747b44"/><g id="Group 5"><path id="SKIN" fill-rule="evenodd" clip-rule="evenodd" d="M190.659 153.894C190.622 157.682 191.712 161.285 192.707 164.859C193.795 168.765 194.747 172.703 195.765 176.623C196.487 179.404 197.569 182.06 198.312 184.825C191.38 185.471 184.43 185.418 177.477 185.447C172.07 185.471 166.84 184.503 161.575 183.483C156.846 182.568 153.476 179.898 150.813 176.099C148.498 172.797 147.005 169.102 145.636 165.334C141.174 153.054 139.438 140.267 138.297 127.339C137.735 120.977 137.658 114.568 136.492 108.256C135.778 104.388 134.555 100.683 133.29 96.9808C132.077 93.4298 130.747 89.9168 129.86 86.2598C128.438 80.4008 128.02 74.4358 128 68.4358C127.994 66.7538 128.333 65.0988 129.057 63.5488C130.899 59.6048 134.948 58.8208 138.057 61.8368C139.563 63.2978 140.721 65.0168 141.612 66.9188C142.324 68.4378 143.079 69.9358 143.785 71.4578C144.449 72.8888 145.073 74.3378 145.735 75.8258C146.799 75.5288 147.375 74.7098 148.125 74.1488C149.086 73.4308 150.012 72.6358 151.179 72.2888C152.101 72.0138 153.106 71.8188 153.878 72.6348C154.591 73.3898 154.774 74.3438 154.401 75.3128C153.913 76.5778 153.446 77.8688 152.782 79.0418C151.404 81.4768 151.026 84.0538 150.843 86.8288C150.191 96.7618 152.45 106.199 155.359 115.532C158.792 126.549 163.723 136.943 168.81 147.268C169.833 149.345 170.778 151.466 171.649 153.611C172.052 154.604 172.687 155.064 173.659 155.435C176.513 156.522 179.368 155.907 182.193 155.523C185.036 155.136 187.839 154.449 190.659 153.894" fill="#6A4929"/></g><g id="Group 8"><path id="SKIN_2" fill-rule="evenodd" clip-rule="evenodd" d="M316.49 205.571C321.302 204.159 326.11 202.738 330.926 201.339C333.295 200.651 335.676 200 338.052 199.333C337.713 201.14 338.794 202.684 338.983 204.406C339.692 210.847 340.355 217.295 340.728 223.761C341.106 230.31 342.251 236.797 342.26 243.372C342.275 254.653 343.322 265.911 343.135 277.193C342.97 287.113 342.77 297.027 343.051 306.95C343.172 311.268 344.167 315.291 345.772 319.269C349.452 328.382 351.422 337.758 349.606 347.635C349.155 350.089 348.506 352.477 347.275 354.653C346.126 356.685 344.797 356.91 342.965 355.477C341.082 354.004 339.855 352.058 339.054 349.832C337.859 346.509 337.158 343.066 336.59 339.589C336.414 338.515 336.168 337.451 335.954 336.386C335.067 336.39 334.955 337.031 334.659 337.444C334.053 338.286 333.573 339.237 332.88 339.994C331.233 341.795 329.095 341.417 328.05 339.198C327.494 338.019 327.32 336.744 327.323 335.457C327.33 332.577 327.319 329.696 327.414 326.819C327.748 316.654 327.557 306.507 326.665 296.371C325.676 285.137 324.182 273.963 322.909 262.762C321.058 246.477 318.356 230.296 316.997 213.953C316.764 211.164 316.656 208.365 316.49 205.571" fill="#6B4929"/></g><path id="Fill 9" fill-rule="evenodd" clip-rule="evenodd" d="M225.773 262.615C226.724 261.812 227.873 261.982 228.982 261.969C235.613 261.892 242.244 261.842 248.875 261.737C254.302 261.652 259.703 261.085 265.116 260.752C270.615 260.413 276.118 260.136 281.623 259.92C287.689 259.681 293.757 259.522 299.824 259.374C302.125 259.318 304.428 259.389 306.729 259.404C306.922 260.105 306.787 260.614 306.046 260.949C305.352 261.262 304.648 261.217 303.937 261.23C301.623 261.275 299.309 261.4 296.998 261.348C287.257 261.13 277.546 261.84 267.824 262.222C256.747 262.659 245.674 263.259 234.58 263.151C231.63 263.122 228.711 262.749 225.773 262.615" fill="#090A05"/><path id="Fill 11" fill-rule="evenodd" clip-rule="evenodd" d="M254.08 179.687C253.971 175.459 253.983 175.551 249.963 176.089C243.959 176.893 237.938 177.567 231.92 178.264C229.445 178.55 229.394 178.539 229.516 181.014C229.694 184.627 229.383 184.283 232.927 183.873C238.955 183.176 245.013 183.029 251.055 182.607C252.007 182.541 253.165 182.834 253.866 182.39C254.885 181.744 253.768 180.481 254.08 179.687V179.687ZM254.457 190.596H254.479C254.479 188.92 254.454 187.244 254.488 185.568C254.512 184.403 253.924 183.996 252.852 184.088C252.535 184.116 252.219 184.193 251.902 184.193C245.913 184.199 240.003 185.331 234.023 185.463C233.147 185.482 232.274 185.583 231.399 185.63C230.283 185.689 229.872 186.261 230.021 187.357C230.324 189.566 230.665 191.773 230.835 193.993C230.97 195.767 231.852 196.959 233.247 197.895C235.831 199.627 238.434 201.333 240.982 203.114C241.827 203.705 242.527 203.773 243.368 203.178C244.278 202.535 245.224 201.935 246.185 201.37C248.317 200.119 250.457 198.883 252.615 197.677C253.906 196.955 254.662 196.033 254.485 194.424C254.347 193.162 254.457 191.873 254.457 190.596V190.596ZM256.318 185.678C256.318 188.557 256.277 191.437 256.332 194.314C256.368 196.233 255.723 197.693 254.076 198.771C250.802 200.915 247.571 203.125 244.337 205.331C242.879 206.324 241.471 206.578 239.919 205.477C237.118 203.489 234.29 201.535 231.431 199.63C229.679 198.464 228.927 196.817 228.699 194.81C228.128 189.796 228.011 184.762 228.025 179.724C228.031 177.703 228.378 177.239 230.462 176.896C234.716 176.198 238.978 175.538 243.251 174.969C246.495 174.536 249.757 174.216 253.019 173.946C255.602 173.732 256.2 174.32 256.238 176.804C256.261 178.323 256.26 179.842 256.265 181.361C256.269 182.8 256.266 184.239 256.266 185.678H256.318Z" fill="#090A05"/><path id="Fill 13" fill-rule="evenodd" clip-rule="evenodd" d="M270.753 140.958C270.058 140.734 269.421 140.715 268.707 141.022C269.947 142.305 269.947 142.305 270.753 140.958M276.4 148.742C275.506 148.842 274.803 148.282 274.105 147.837C273.232 147.282 272.408 146.644 271.595 146.003C270.147 144.864 270.148 144.846 269.11 146.365C268.21 147.683 267.346 149.026 266.44 150.341C265.907 151.113 265.35 151.881 264.397 152.184C263.797 151.28 264.297 150.688 264.677 150.096C265.581 148.685 266.519 147.295 267.42 145.883C267.88 145.162 268.857 144.46 268.469 143.606C267.951 142.47 267.028 141.464 265.737 141.093C264.905 140.854 264.003 140.854 263.133 140.745C257.115 139.989 252.667 136.773 249.278 131.9C249.243 131.85 249.282 131.748 249.305 131.332C250.25 132.062 251.135 132.615 251.863 133.329C257.73 139.077 264.807 140.117 272.505 138.642C276.766 137.825 280.514 136.025 283.362 132.599C284.121 131.687 285.147 131.015 285.854 130.027C286.173 129.581 286.653 129.111 287.262 129.534C287.787 129.9 287.73 130.51 287.573 131.07C287.392 131.718 286.877 132.127 286.436 132.583C283.208 135.915 279.448 138.458 274.964 139.68C273.15 140.174 272.491 141.561 271.544 142.791C271.058 143.424 271.634 143.819 272.041 144.175C273.242 145.224 274.471 146.242 275.678 147.286C276.073 147.627 276.693 147.856 276.4 148.742" fill="#090A05"/><path id="Fill 15" fill-rule="evenodd" clip-rule="evenodd" d="M254.456 190.596C254.456 191.873 254.346 193.162 254.484 194.424C254.66 196.033 253.904 196.955 252.613 197.678C250.456 198.884 248.315 200.119 246.184 201.37C245.222 201.935 244.277 202.535 243.366 203.179C242.525 203.773 241.826 203.705 240.981 203.115C238.432 201.333 235.83 199.628 233.246 197.895C231.851 196.959 230.969 195.767 230.833 193.993C230.664 191.774 230.322 189.566 230.02 187.358C229.87 186.261 230.281 185.69 231.397 185.63C232.272 185.584 233.146 185.483 234.021 185.463C240.002 185.331 245.912 184.2 251.901 184.194C252.218 184.193 252.534 184.116 252.851 184.089C253.923 183.996 254.51 184.403 254.486 185.569C254.453 187.244 254.478 188.92 254.478 190.596H254.456Z" fill="#4A448C"/><path id="Fill 17" fill-rule="evenodd" clip-rule="evenodd" d="M254.079 179.687C253.767 180.481 254.884 181.744 253.865 182.39C253.164 182.834 252.006 182.541 251.054 182.607C245.012 183.029 238.954 183.176 232.926 183.873C229.382 184.283 229.693 184.627 229.515 181.014C229.393 178.539 229.444 178.55 231.919 178.264C237.937 177.567 243.958 176.893 249.962 176.089C253.982 175.551 253.97 175.459 254.079 179.687" fill="#4A448C"/><path id="Fill 19" fill-rule="evenodd" clip-rule="evenodd" d="M270.753 140.958C269.947 142.305 269.947 142.305 268.707 141.022C269.421 140.715 270.058 140.734 270.753 140.958" fill="#4A448C"/></g></g></g><g id="Facial Hair" transform="translate(237 299) scale(66 62)"><g id="Facial Hair/None" stroke="none" stroke-width="1" fill="none" fill-rule="evenodd" fill-opacity="0"/></g><g id="Accessories" transform="translate(223 251) scale(1 1)"><g id="Accessories/Glasses"><path id="Accesories" fill-rule="evenodd" clip-rule="evenodd" d="M48.8649 47.6211C49.4694 51.5343 50.1676 55.3745 51.6947 58.9888C52.6004 61.1334 54.4019 62.3611 56.713 62.5581C59.088 62.7621 60.9333 61.5913 62.0893 59.6087C64.1361 56.0994 65.1665 52.2671 65.2274 48.181C65.2453 47.0452 64.8274 46.3093 63.6923 46.1344C62.3566 45.9284 61.0141 45.7045 59.6675 45.6555C55.9808 45.5235 52.365 45.8744 48.8649 47.6211M21.6091 48.6479C22.1538 52.4451 22.8241 56.1934 24.429 59.6977C25.2818 61.5603 26.6902 62.981 28.5186 63.9088C31.3684 65.3535 34.4026 64.6177 36.0844 62.0342C38.4214 58.4419 39.371 54.4637 39.0478 50.1976C38.8962 48.202 38.7077 47.83 36.6799 47.5041C33.6286 47.0132 30.5365 46.6633 27.4493 46.5333C25.3596 46.4453 23.4305 47.3151 21.6091 48.6479M41.0757 46.3813C42.5719 46.2263 44.3823 46.0674 46.1837 45.8374C46.7882 45.7614 47.3956 45.5635 47.9582 45.3205C53.8822 42.758 59.9109 42.1971 66.1111 44.2457C66.6847 44.4347 67.349 44.4597 67.9594 44.4077C69.8626 44.2427 71.7568 43.9798 73.6599 43.8058C74.431 43.7348 75.212 43.7938 76 43.7938C75.9003 45.7704 75.7606 46.0144 74.2784 46.2213C72.2366 46.5073 70.1808 46.7033 67.9135 46.9622C67.8507 47.825 67.7579 48.5969 67.748 49.3687C67.6951 53.137 66.531 56.5983 64.8044 59.8826C63.1107 63.103 60.4864 65.0306 56.7539 64.9066C53.172 64.7867 50.0778 62.2572 48.9687 58.4749C48.1388 55.6505 47.5971 52.7371 47.0106 49.8456C46.6126 47.89 46.3313 47.5991 44.3364 47.743C43.9404 47.771 43.5404 47.824 43.1554 47.919C42.6228 48.052 42.1041 48.2359 41.4308 48.4439C41.4308 49.7347 41.4059 50.9984 41.4348 52.2611C41.5216 56.1574 40.2249 59.6467 38.2259 62.89C35.7223 66.9522 31.2008 68.132 27.0034 65.8504C24.4589 64.4677 22.5358 62.4071 21.659 59.6447C20.8171 56.9962 20.3124 54.2378 19.688 51.5213C19.5145 50.7694 19.4357 49.9956 19.313 49.2248C17.1096 49.2058 15.3101 51.1024 13 49.6277C13.7641 49.1568 14.4852 48.5859 15.3002 48.2339C17.8557 47.1302 20.4052 45.9874 23.0375 45.0996C24.82 44.4977 26.7281 44.0558 28.5964 43.9858C30.8068 43.9028 33.068 44.1268 35.2465 44.5387C37.1646 44.9006 38.998 45.7045 41.0757 46.3813" fill="black"/></g></g></g></svg>