<svg viewBox="53.92500000000007 62.91250000000002 611.1500000000001 611.1500000000001" fill="none" xmlns="http://www.w3.org/2000/svg" xmlns:xlink="http://www.w3.org/1999/xlink" overflow="visible" width="611.1500000000001px" height="611.1500000000001px"><g id="Master/Spot Illustrations/Morning Coffee"><g id="Background"><g id="Background" transform="translate(0 -6) scale(1 1)"><g id="Background/Nature 1"><g id="Group 79"><g id="Group 3"><path id="Fill 1" fill-rule="evenodd" clip-rule="evenodd" d="M329.674 559.968C330.145 560.031 330.378 559.66 330.688 559.429C335.48 555.849 339.273 551.339 342.585 546.422C348.26 537.998 352.915 528.99 357.533 519.963C359.642 515.84 361.674 511.669 363.966 507.648C368.869 499.046 373.61 490.359 378.112 481.546C381.205 475.493 384.649 469.667 388.257 463.918C390.204 460.814 392.283 457.765 393.57 454.296C393.848 453.544 394.617 452.523 393.479 451.975C392.404 451.457 392.045 452.611 391.586 453.301C389.949 455.757 388.388 458.265 386.694 460.68C383.485 465.254 380.402 469.907 377.701 474.801C375.385 478.993 373.185 483.25 370.858 487.436C366.709 494.896 362.345 502.241 358.359 509.786C353.808 518.401 349.61 527.2 344.846 535.706C341.255 542.12 337.378 548.336 332.466 553.848C331.12 555.357 330.205 557.13 329.406 558.966C329.252 559.323 329.183 559.743 329.674 559.968M552.481 366.257C554.612 366.355 556.963 365.822 559.126 364.748C563.297 362.677 566.233 359.399 567.962 355.066C568.457 353.823 568.547 352.617 567.624 351.459C564.783 347.897 562.554 343.888 559.511 340.463C557.922 338.674 556.555 336.687 555.084 334.793C550.857 329.356 546.158 324.353 541.235 319.546C537.09 315.496 532.035 314.126 526.476 314.736C518.961 315.562 512.388 318.729 506.617 323.574C493.471 334.611 481.656 346.981 470.341 359.848C469.552 360.747 468.866 361.739 468.168 362.713C467.892 363.096 467.676 363.535 467.507 363.977C467.361 364.356 467.362 364.794 467.71 365.082C468.052 365.366 468.485 365.281 468.832 365.091C469.175 364.903 469.444 364.582 469.771 364.355C472.951 362.148 476.369 360.453 480.182 359.659C483.421 358.986 486.289 359.497 488.802 361.934C491.151 364.212 493.712 366.281 496.257 368.345C499.944 371.334 504.201 373.045 508.885 373.768C512.962 374.398 516.473 373.368 519.445 370.478C521.411 368.566 523.026 366.396 524.423 364.048C525.24 362.675 526.048 361.294 526.914 359.951C527.823 358.541 529.118 357.744 530.796 357.394C533.156 356.901 535.268 357.371 537.147 358.771C538.554 359.819 539.843 361.026 541.167 362.184C544.316 364.94 547.996 366.243 552.481 366.257M301.44 393.802C300.56 393.802 299.679 393.765 298.801 393.808C285.038 394.475 272.01 398.098 259.589 403.898C250.073 408.341 241.414 414.271 232.716 420.104C230.46 421.616 228.264 423.221 226.068 424.821C225.56 425.191 225.011 425.722 225.442 426.43C225.786 426.993 226.435 426.83 226.98 426.705C227.524 426.58 228.06 426.416 228.591 426.242C230.793 425.522 232.986 424.773 235.193 424.068C241.319 422.108 247.582 420.964 254.034 420.921C256.343 420.906 258.226 421.711 259.765 423.424C261.376 425.218 262.743 427.177 263.962 429.252C265.094 431.182 266.185 433.143 267.435 434.995C270.07 438.902 273.405 442.079 277.617 444.268C282.749 446.934 287.61 446.51 292.21 442.983C294.394 441.307 296.116 439.214 297.757 437.039C299.443 434.807 301.081 432.535 302.825 430.349C304.175 428.657 305.727 427.145 307.61 426.028C310.491 424.32 312.332 424.446 314.774 426.708C316.414 428.228 317.916 429.897 319.468 431.511C321.767 433.902 324.403 435.811 327.431 437.177C333.069 439.72 335.705 438.777 338.37 433.202C339.338 431.18 340.344 429.196 341.694 427.386C343.039 425.581 344.719 424.37 346.913 423.806C350.094 422.989 353.292 422.336 356.591 422.304C356.909 422.301 357.236 422.3 357.545 422.235C358.181 422.101 358.832 421.913 359.011 421.182C359.161 420.571 358.81 420.118 358.37 419.726C357.654 419.088 356.958 418.428 356.237 417.794C350.145 412.434 343.27 408.211 336.377 403.989C325.635 397.408 314.19 393.409 301.44 393.802M252.548 396.656C253.427 396.913 254.071 396.329 254.775 396.009C266.912 390.476 279.538 386.523 292.761 384.723C300.684 383.644 308.688 382.892 316.633 384.51C323.522 385.912 330.277 387.838 336.8 390.527C347.764 395.047 358.059 400.865 368.262 406.833C378.192 412.64 388.166 418.381 397.863 424.581C400.487 426.26 403.241 427.684 406.357 428.351C408.69 428.851 410.612 428.267 412.349 426.77C413.63 425.667 414.66 424.335 415.674 422.998C420.991 415.991 426.592 409.218 432.208 402.447C440.529 392.415 448.235 381.895 455.442 371.035C465.455 355.948 476.596 341.76 488.662 328.275C496.009 320.063 504.453 313.371 514.661 309.05C517.955 307.852 521.308 306.968 524.804 306.468C531.09 305.568 536.659 306.978 541.636 310.892C547.623 315.599 552.876 321.04 557.784 326.838C560.928 330.551 563.688 334.553 566.657 338.398C568.719 341.724 570.627 345.16 572.873 348.357C580.411 359.088 586 370.771 590.973 382.879C595.869 394.798 599.872 407.012 604.26 419.098C607.18 427.139 610.287 435.101 613.923 442.849C616.198 447.698 618.21 452.662 620.117 457.664C622.684 464.401 625.766 470.887 629.293 477.171C633.757 485.127 638.548 492.874 643.916 500.258C646.561 503.897 649.63 507.15 652.878 510.247C654.682 511.969 656.733 513.347 658.81 514.71C660.713 515.958 660.719 517.283 658.888 518.661C650.066 525.3 640.977 531.569 631.61 537.4C622.874 542.838 613.251 546.399 603.484 549.485C582.881 555.993 561.845 560.744 540.587 564.532C528.455 566.694 516.225 568.127 503.946 569.089C492.298 570 480.631 570.472 468.949 569.632C459.852 568.977 450.805 567.858 441.759 566.742C433.264 565.696 424.749 564.914 416.208 564.363C402.947 563.506 389.673 563.2 376.393 563.584C364.116 563.939 352.061 565.956 340.179 569.012C331.978 571.12 323.819 573.396 315.599 575.432C305.338 577.974 294.888 579.389 284.372 580.426C274.795 581.369 265.222 581.563 255.616 581.114C235.049 580.155 215.359 575.311 196.117 568.187C180.152 562.276 164.392 555.864 148.649 549.401C140.887 546.212 132.984 543.395 125.098 540.534C119.611 538.543 114.214 536.345 108.931 533.858C100.035 529.669 90.918 526.002 81.785 522.365C78.232 520.951 73.892 517.981 70.668 515.036C77.607 512.586 84.167 509.506 90.71 506.385C93.239 505.208 95.741 503.968 98.302 502.864C108.38 498.523 118.035 493.397 127.179 487.332C136.366 481.239 145.17 474.614 153.955 467.958C161.782 462.028 169.441 455.884 177.144 449.8C184.537 443.961 191.937 438.133 199.433 432.428C206.105 427.351 212.836 422.355 219.643 417.46C229.575 410.318 239.67 403.445 250.679 398.025C251.37 397.684 252.239 397.536 252.548 396.656" fill="#3C2917"/></g><g id="Group 6"><path id="Fill 4" fill-rule="evenodd" clip-rule="evenodd" d="M207.712 411.436C207.406 410.165 207.162 409.311 206.522 408.623C206.41 408.503 206.05 408.482 205.894 408.572C205.749 408.655 205.606 408.989 205.661 409.138C205.985 410.006 206.526 410.71 207.712 411.436M219.205 407.083C219.685 404.771 218.859 403.146 218.014 401.533C217.792 401.108 217.473 400.663 216.912 400.954C216.4 401.218 216.456 401.761 216.611 402.211C217.171 403.835 217.675 405.496 219.205 407.083M175.045 192.855C175.463 190.332 174.484 188.543 173.392 186.797C173.187 186.469 172.832 186.204 172.379 186.378C171.927 186.552 171.79 186.989 171.932 187.358C172.655 189.249 173.349 191.168 175.045 192.855M192.938 332.125C192.558 329.437 191.433 327.469 190.163 325.568C189.944 325.241 189.578 324.983 189.148 325.241C188.762 325.473 188.647 325.854 188.852 326.264C189.872 328.301 190.876 330.352 192.938 332.125M127.306 465.24C126.184 467.483 125.293 469.579 124.638 471.779C124.42 472.513 124.225 473.306 125.106 473.597C126.04 473.906 126.284 472.977 126.556 472.361C127.265 470.754 127.613 469.038 127.947 467.324C128.073 466.677 127.912 466.065 127.306 465.24M139.155 396.071C140.626 393.862 141.143 391.356 141.447 388.793C141.514 388.232 141.391 387.604 140.695 387.524C140.005 387.444 139.777 388.059 139.612 388.582C138.843 391.001 138.454 393.46 139.155 396.071M215.862 409.984C215.651 408.964 215.598 408.337 215.389 407.767C214.733 405.975 213.947 404.238 212.762 402.721C212.459 402.333 212.005 402.103 211.498 402.352C211.001 402.596 210.821 403.066 211.035 403.55C212.085 405.925 213.248 408.225 215.862 409.984M144.06 252.563C144.321 252.71 144.608 252.753 144.737 252.547C145.979 250.562 146.922 248.47 146.9 246.06C146.895 245.397 146.852 244.699 146.043 244.57C145.217 244.439 144.969 245.138 144.779 245.744C144.078 247.975 143.839 250.258 144.06 252.563M114.182 458.173C111.728 460.54 110.522 463.106 109.567 465.824C109.514 465.972 109.493 466.137 109.486 466.295C109.467 466.786 109.473 467.307 110.044 467.48C110.598 467.649 110.981 467.268 111.197 466.839C111.663 465.913 112.11 464.97 112.466 463.998C113.108 462.247 113.913 460.535 114.182 458.173M204.157 325.054C204.572 321.653 202.715 319.171 200.706 316.76C200.502 316.514 200.177 316.396 199.856 316.595C199.566 316.774 199.411 317.056 199.474 317.395C199.546 317.782 199.599 318.197 199.78 318.535C201.006 320.825 202.102 323.202 204.157 325.054M156.64 255.488C157.107 255.664 157.315 255.557 157.455 255.354C159.215 252.816 159.477 249.883 159.631 246.934C159.661 246.362 159.427 245.791 158.722 245.745C158.177 245.708 157.822 246.1 157.659 246.559C156.62 249.493 156.276 252.497 156.64 255.488M152.674 393.907C154.955 390.497 155.171 387.18 154.76 383.736C154.742 383.584 154.656 383.436 154.587 383.294C154.406 382.92 154.155 382.618 153.694 382.64C153.238 382.661 152.942 382.972 152.844 383.359C152.631 384.203 152.397 385.061 152.349 385.923C152.212 388.399 151.333 390.903 152.674 393.907M201.018 329.991C201.254 328.643 200.564 327.514 200.042 326.388C199.035 324.215 197.943 322.079 196.824 319.96C196.418 319.191 196.199 317.776 194.909 318.407C193.832 318.933 194.317 320.115 194.681 320.972C195.937 323.923 197.426 326.744 199.629 329.125C199.995 329.52 200.249 330.086 201.018 329.991M123.428 459.957C122.487 460.202 122.115 461.035 121.657 461.726C119.985 464.249 118.66 466.966 117.338 469.679C116.987 470.399 115.996 471.334 116.956 471.977C117.927 472.627 118.688 471.514 119.258 470.822C121.259 468.396 122.576 465.601 123.306 462.551C123.495 461.76 124.065 460.94 123.428 459.957M146.428 396.62C147.135 396.665 147.201 396.324 147.324 396.045C149.072 392.114 149.754 387.974 149.711 383.697C149.706 383.14 149.683 382.577 149.591 382.03C149.508 381.535 149.225 381.134 148.664 381.088C148.106 381.041 147.752 381.384 147.588 381.858C147.434 382.302 147.37 382.783 147.31 383.253C147.018 385.546 146.687 387.836 146.473 390.136C146.271 392.307 146.158 394.49 146.428 396.62M172.431 199.056C172.603 198.662 172.67 198.584 172.661 198.517C171.956 193.15 169.488 188.408 167.344 183.55C167.313 183.478 167.258 183.417 167.212 183.352C166.96 183.001 166.614 182.799 166.193 182.911C165.764 183.025 165.592 183.397 165.55 183.817C165.476 184.54 165.581 185.241 165.817 185.928C166.929 189.162 168.153 192.354 169.626 195.437C170.257 196.757 170.99 198.092 172.431 199.056M149.559 258.973C150.394 258.273 150.79 257.352 151.122 256.401C152.579 252.232 153.114 247.858 153.948 243.551C154.007 243.245 153.998 242.907 153.941 242.598C153.796 241.819 153.092 241.594 152.544 242.195C152.177 242.596 151.868 243.103 151.698 243.618C151.248 244.981 150.796 246.354 150.509 247.758C149.76 251.42 148.837 255.073 149.559 258.973M252.548 396.656C252.239 397.537 251.37 397.684 250.679 398.025C239.67 403.445 229.575 410.318 219.643 417.46C212.836 422.355 206.105 427.351 199.433 432.428C191.937 438.133 184.537 443.961 177.144 449.8C169.441 455.884 161.782 462.028 153.955 467.958C145.17 474.615 136.366 481.24 127.179 487.332C118.035 493.397 108.379 498.523 98.302 502.865C95.741 503.968 93.239 505.208 90.71 506.385C90.244 505.39 89.342 505.749 88.609 505.773C85.226 505.889 81.974 506.705 78.755 507.699C75.092 508.83 71.481 510.148 67.717 510.934C65.653 511.365 63.586 511.425 61.558 510.738C59.265 509.959 58.054 508.305 58.003 505.884C57.943 503.014 58.797 500.346 60.026 497.813C62.941 491.802 66.752 486.377 71.14 481.36C77.669 473.893 84.376 466.578 90.759 458.989C98.089 450.274 104.606 440.988 109.176 430.461C110.646 427.076 111.917 423.64 112.525 419.985C112.564 419.749 112.621 419.514 112.652 419.277C113.126 415.632 111.825 414.306 108.225 414.827C105.047 415.288 101.975 416.166 98.99 417.341C95.421 418.747 91.876 420.215 88.299 421.605C85.762 422.59 83.19 423.458 80.405 423.425C76.058 423.374 73.569 420.651 74.032 416.305C74.338 413.431 75.105 410.659 76.13 407.955C78.29 402.258 81.016 396.832 83.942 391.501C90.954 378.735 98.966 366.572 106.472 354.103C111.544 345.677 116.88 337.407 121.447 328.683C123.417 324.92 125.189 321.079 126.387 316.995C126.719 315.862 127.086 314.713 126.605 313.429C124.918 313.696 123.627 314.664 122.314 315.528C117.761 318.526 113.59 322.019 109.471 325.575C106.989 327.718 104.546 329.909 101.86 331.803C100.155 333.006 98.376 334.067 96.354 334.668C91.751 336.038 88.506 333.373 89.005 328.584C89.238 326.35 89.853 324.194 90.517 322.053C92.374 316.07 95.067 310.449 97.943 304.911C103.177 294.835 108.676 284.899 113.658 274.69C119.91 261.879 124.811 248.516 129.951 235.249C134.051 224.665 138.445 214.196 142.224 203.487C146.143 192.379 148.914 180.975 151.168 169.432C151.507 167.694 151.581 165.942 151.617 164.181C151.766 156.916 153.492 149.941 155.584 143.043C156.024 141.592 156.707 140.216 157.877 139.16C159.609 137.596 161.29 137.606 162.941 139.24C163.393 139.686 163.808 140.188 164.153 140.721C164.848 141.793 165.579 142.858 166.127 144.006C171.36 154.982 177.512 165.48 182.893 176.378C184.31 179.249 185.895 182.025 187.617 184.726C192.179 191.879 196.281 199.302 200.204 206.814C204.495 215.033 209.075 223.11 212.791 231.622C214.265 234.997 215.62 238.405 216.159 242.089C216.396 243.703 216.336 245.278 215.996 246.853C215.477 249.258 214.19 250.297 211.747 250.088C208.331 249.796 205.222 248.55 202.384 246.666C201.054 245.783 199.827 244.747 198.554 243.778C197.932 243.304 197.391 242.7 196.404 242.414C196.577 245.352 197.109 248.057 198.006 250.679C200.082 256.75 202.722 262.572 206.074 268.046C213.676 280.465 221.708 292.597 230.284 304.372C235.793 311.935 241.104 319.641 246.489 327.292C247.962 329.387 249.467 331.453 251.105 333.425C255.599 338.836 258.9 344.935 261.326 351.509C262.962 355.944 263.447 360.518 262.557 365.198C261.855 368.893 260.11 370.597 256.356 371.132C252.813 371.637 249.348 370.937 245.89 370.306C244.083 369.976 242.296 369.534 240.496 369.163C239.678 368.994 239.246 369.302 239.443 370.186C239.669 371.199 239.868 372.223 240.177 373.211C241.279 376.734 242.723 380.104 244.674 383.253C246.99 386.992 249.266 390.757 251.532 394.527C251.935 395.197 252.535 395.792 252.548 396.656" fill="#747B44"/></g><path id="Fill 7" fill-rule="evenodd" clip-rule="evenodd" d="M557.784 326.837C552.876 321.04 547.623 315.599 541.636 310.892C536.659 306.978 531.09 305.567 524.804 306.467C521.308 306.968 517.955 307.852 514.661 309.05C514.614 308.644 514.471 308.286 514.196 307.971C509.225 302.298 506.794 295.544 505.816 288.183C504.461 277.982 505.94 268.262 510.943 259.196C514.726 252.34 520.194 247.001 526.439 242.409C534.743 236.304 544.046 232.857 554.289 231.7C562.006 230.829 569.425 231.688 576.602 234.624C582.741 237.134 587.763 241.221 591.968 246.221C599.052 254.649 604.225 264.142 606.905 274.894C608.423 280.987 608.992 287.188 608.58 293.444C608.193 299.294 606.212 304.694 603.239 309.7C599.963 315.215 596.09 320.306 591.598 324.896C585.17 331.464 577.418 335.716 568.498 337.872C567.878 338.022 567.27 338.221 566.657 338.398C563.688 334.553 560.928 330.55 557.784 326.837Z" fill="#D5BB67"/><path id="Fill 9" fill-rule="evenodd" clip-rule="evenodd" d="M554.876 208.115C554.876 206.519 554.866 204.924 554.88 203.328C554.888 202.472 555.115 201.679 556.092 201.532C557.199 201.365 557.659 202.091 557.843 203.057C558.412 206.067 558.222 209.097 557.997 212.114C557.873 213.774 557.485 215.415 557.205 217.063C557.15 217.382 557.017 217.721 556.669 217.785C556.163 217.878 556.006 217.461 555.884 217.086C555.337 215.414 554.886 213.72 554.872 211.945C554.862 210.668 554.87 209.391 554.87 208.115H554.876Z" fill="#D5BB67"/><path id="Fill 11" fill-rule="evenodd" clip-rule="evenodd" d="M622.865 351.946C621.077 351.301 619.936 350.291 618.941 349.184C616.923 346.939 615.012 344.595 613.069 342.282C612.814 341.98 612.614 341.63 612.407 341.291C612.097 340.784 611.923 340.264 612.46 339.791C612.917 339.387 613.348 339.63 613.76 339.892C614.094 340.106 614.442 340.311 614.74 340.571C617.322 342.825 619.817 345.175 621.699 348.066C622.398 349.14 623.302 350.248 622.865 351.946" fill="#D5BB67"/><path id="Fill 13" fill-rule="evenodd" clip-rule="evenodd" d="M475.555 276.11C474.92 277.14 473.805 277.427 472.787 277.763C469.403 278.879 465.895 278.955 462.376 278.816C461.992 278.801 461.576 278.697 461.242 278.513C460.278 277.985 460.241 277.011 461.157 276.436C461.483 276.231 461.884 276.091 462.268 276.039C466.549 275.457 470.846 275.415 475.15 275.745C475.269 275.755 475.374 275.942 475.555 276.11" fill="#D5BB67"/><path id="Fill 15" fill-rule="evenodd" clip-rule="evenodd" d="M653.256 288.892C651.779 290.214 650.166 290.621 648.534 290.768C645.672 291.025 642.794 290.936 639.922 290.807C639.763 290.8 639.602 290.798 639.445 290.769C638.645 290.623 637.687 290.437 637.662 289.499C637.634 288.406 638.699 288.541 639.456 288.4C643.095 287.719 646.765 287.875 650.432 287.984C651.382 288.012 652.255 288.289 653.256 288.892" fill="#D5BB67"/><path id="Fill 17" fill-rule="evenodd" clip-rule="evenodd" d="M625.212 216.76C625.706 218.047 625.071 219.2 624.363 220.216C622.713 222.578 620.598 224.522 618.375 226.337C617.84 226.774 617.147 227.223 616.461 226.527C615.947 226.006 615.887 225.363 616.372 224.804C618.82 221.988 621.213 219.112 624.215 216.842C624.462 216.655 624.775 216.531 625.212 216.76" fill="#D5BB67"/><path id="Fill 19" fill-rule="evenodd" clip-rule="evenodd" d="M593.592 203.574C593.932 204.211 593.781 204.85 593.571 205.441C592.487 208.493 590.636 211.079 588.543 213.504C588.292 213.794 587.925 214.018 587.57 214.175C586.781 214.522 586.125 214.038 586.187 213.177C586.203 212.946 586.29 212.709 586.389 212.495C587.905 209.22 589.693 206.133 592.51 203.773C592.749 203.572 593.036 203.407 593.592 203.574" fill="#D5BB67"/><path id="Fill 21" fill-rule="evenodd" clip-rule="evenodd" d="M503.756 231.186C499.377 229.663 496.235 226.91 493.442 223.686C493.186 223.391 493.017 223.013 492.843 222.656C492.621 222.198 492.54 221.695 493.002 221.357C493.436 221.04 493.913 221.19 494.339 221.471C494.405 221.515 494.464 221.57 494.525 221.623C497.28 224.047 500.232 226.259 502.676 229.02C503.133 229.537 503.668 230.068 503.756 231.186" fill="#D5BB67"/><path id="Fill 23" fill-rule="evenodd" clip-rule="evenodd" d="M529.761 216.991C528.465 216.428 528.248 215.525 527.942 214.75C526.945 212.228 526.012 209.679 525.057 207.141C524.861 206.619 524.617 206.108 524.711 205.523C524.859 204.604 525.723 204.21 526.493 204.736C526.966 205.058 527.259 205.542 527.508 206.049C529.157 209.405 529.708 212.98 529.761 216.991" fill="#D5BB67"/><path id="Fill 25" fill-rule="evenodd" clip-rule="evenodd" d="M600.492 370.933C600.396 371.632 600.552 372.188 599.956 372.395C599.43 372.578 599.019 372.285 598.706 371.92C598.295 371.442 597.861 370.953 597.585 370.396C596.485 368.188 595.693 365.855 594.915 363.52C594.739 362.994 594.555 362.358 595.129 362.007C595.781 361.608 596.382 361.981 596.788 362.512C598.754 365.082 599.903 368.007 600.492 370.933" fill="#D5BB67"/><path id="Fill 27" fill-rule="evenodd" clip-rule="evenodd" d="M639.039 326.25C637.862 326.526 636.895 325.882 636.004 325.297C633.796 323.85 631.897 322.024 630.067 320.129C629.733 319.784 629.426 319.412 629.348 318.917C629.298 318.599 629.31 318.275 629.568 318.032C629.831 317.786 630.176 317.736 630.436 317.948C633.209 320.193 636.407 321.937 638.608 324.853C638.886 325.222 639.196 325.612 639.039 326.25" fill="#D5BB67"/><path id="Fill 29" fill-rule="evenodd" clip-rule="evenodd" d="M474.399 327.616C473.621 327.584 473.276 327.211 473.22 326.568C473.168 325.967 473.457 325.492 473.856 325.076C475.628 323.232 477.451 321.445 479.725 320.206C480.073 320.016 480.435 319.837 480.811 319.719C481.104 319.626 481.454 319.556 481.707 319.829C481.961 320.104 481.87 320.435 481.703 320.7C481.278 321.374 480.866 322.066 480.36 322.677C478.977 324.346 477.245 325.643 475.576 327.002C475.216 327.295 474.74 327.443 474.399 327.616" fill="#D5BB67"/><path id="Fill 31" fill-rule="evenodd" clip-rule="evenodd" d="M484.506 251.278C482.569 251.026 481.121 250.17 479.675 249.333C478.713 248.777 477.782 248.156 476.877 247.51C476.333 247.122 475.974 246.555 476.258 245.857C476.573 245.085 477.315 245.117 477.896 245.327C480.608 246.302 483.192 247.52 485.162 249.727C485.422 250.018 485.677 250.351 485.527 250.788C485.414 251.123 484.896 251.306 484.506 251.278" fill="#D5BB67"/><path id="Fill 33" fill-rule="evenodd" clip-rule="evenodd" d="M644.944 248.423C644.871 249.455 644.207 250.073 643.416 250.64C641.642 251.909 639.608 252.56 637.555 253.168C636.907 253.36 636.246 253.344 635.982 252.568C635.789 251.998 635.924 251.383 636.502 251.132C639.094 250.003 641.515 248.39 644.452 248.197C644.586 248.189 644.729 248.32 644.944 248.423" fill="#D5BB67"/><path id="Fill 35" fill-rule="evenodd" clip-rule="evenodd" d="M478.823 298.443C476.934 300.421 474.608 301.685 472.157 302.747C471.358 303.092 470.531 303.38 469.7 303.642C469.313 303.765 468.894 303.707 468.682 303.274C468.468 302.832 468.736 302.503 469.032 302.241C469.94 301.44 471.061 301.014 472.148 300.532C474.285 299.584 476.428 298.654 478.823 298.443" fill="#D5BB67"/><path id="Fill 37" fill-rule="evenodd" clip-rule="evenodd" d="M640.895 274.623C640.85 274.347 640.997 274.18 641.245 274.153C641.365 274.141 641.56 274.233 641.617 274.336C641.736 274.555 641.659 274.809 641.431 274.899C641.207 274.987 641 274.859 640.895 274.623" fill="#D5BB67"/><path id="Fill 39" fill-rule="evenodd" clip-rule="evenodd" d="M301.439 393.803C314.189 393.409 325.635 397.409 336.377 403.989C343.269 408.212 350.144 412.434 356.237 417.795C356.957 418.428 357.653 419.089 358.37 419.726C358.809 420.119 359.16 420.571 359.01 421.182C358.831 421.914 358.181 422.101 357.544 422.235C357.235 422.301 356.909 422.302 356.59 422.304C353.291 422.337 350.093 422.99 346.913 423.806C344.718 424.371 343.039 425.582 341.693 427.386C340.344 429.196 339.337 431.18 338.37 433.203C335.705 438.777 333.068 439.72 327.431 437.178C324.403 435.811 321.767 433.902 319.467 431.511C317.915 429.897 316.413 428.228 314.773 426.709C312.331 424.446 310.49 424.32 307.609 426.028C305.726 427.145 304.175 428.658 302.825 430.349C301.08 432.536 299.442 434.807 297.757 437.04C296.115 439.215 294.394 441.307 292.209 442.983C287.609 446.511 282.749 446.934 277.616 444.268C273.405 442.08 270.069 438.902 267.435 434.996C266.185 433.143 265.094 431.182 263.961 429.253C262.743 427.178 261.375 425.219 259.764 423.425C258.225 421.712 256.343 420.906 254.034 420.922C247.581 420.965 241.319 422.108 235.192 424.068C232.985 424.773 230.792 425.522 228.59 426.243C228.06 426.417 227.523 426.581 226.979 426.706C226.434 426.831 225.785 426.994 225.441 426.43C225.011 425.722 225.559 425.191 226.067 424.821C228.264 423.221 230.46 421.617 232.716 420.104C241.414 414.271 250.072 408.342 259.588 403.898C272.009 398.098 285.038 394.475 298.801 393.808C299.678 393.766 300.56 393.803 301.439 393.803" fill="#FEFDFD"/><path id="Fill 41" fill-rule="evenodd" clip-rule="evenodd" d="M552.481 366.256C547.996 366.242 544.316 364.939 541.167 362.184C539.843 361.026 538.554 359.818 537.147 358.77C535.268 357.371 533.156 356.9 530.795 357.393C529.118 357.744 527.823 358.541 526.914 359.951C526.047 361.294 525.24 362.674 524.422 364.048C523.026 366.396 521.411 368.565 519.445 370.477C516.473 373.367 512.961 374.398 508.885 373.768C504.201 373.044 499.944 371.334 496.257 368.345C493.711 366.281 491.151 364.212 488.802 361.934C486.289 359.497 483.42 358.985 480.182 359.659C476.369 360.452 472.951 362.147 469.771 364.355C469.444 364.582 469.175 364.902 468.832 365.09C468.485 365.28 468.052 365.365 467.71 365.081C467.362 364.793 467.361 364.356 467.507 363.976C467.676 363.534 467.892 363.095 468.168 362.712C468.866 361.738 469.552 360.746 470.341 359.848C481.656 346.98 493.471 334.61 506.617 323.574C512.388 318.728 518.96 315.561 526.476 314.736C532.035 314.125 537.089 315.496 541.235 319.545C546.158 324.353 550.857 329.356 555.084 334.793C556.555 336.686 557.921 338.673 559.511 340.463C562.554 343.887 564.783 347.896 567.624 351.458C568.546 352.616 568.457 353.822 567.961 355.065C566.233 359.398 563.296 362.676 559.126 364.748C556.962 365.822 554.612 366.355 552.481 366.256" fill="#FEFDFD"/><path id="Fill 43" fill-rule="evenodd" clip-rule="evenodd" d="M329.674 559.968C329.183 559.743 329.252 559.323 329.406 558.966C330.205 557.13 331.12 555.357 332.466 553.848C337.378 548.336 341.255 542.12 344.846 535.706C349.61 527.2 353.808 518.401 358.359 509.786C362.345 502.241 366.709 494.896 370.858 487.436C373.185 483.25 375.385 478.993 377.701 474.801C380.402 469.907 383.485 465.254 386.694 460.68C388.388 458.265 389.949 455.757 391.586 453.301C392.045 452.611 392.404 451.457 393.479 451.975C394.617 452.523 393.848 453.544 393.57 454.296C392.283 457.765 390.204 460.814 388.257 463.918C384.649 469.667 381.205 475.493 378.112 481.546C373.61 490.359 368.869 499.046 363.966 507.648C361.674 511.669 359.642 515.84 357.533 519.963C352.915 528.99 348.26 537.998 342.585 546.422C339.273 551.339 335.48 555.849 330.688 559.429C330.378 559.66 330.145 560.031 329.674 559.968" fill="#020201"/><path id="Fill 45" fill-rule="evenodd" clip-rule="evenodd" d="M149.559 258.972C148.836 255.073 149.76 251.419 150.509 247.757C150.796 246.354 151.247 244.98 151.698 243.618C151.868 243.103 152.177 242.596 152.543 242.195C153.092 241.593 153.796 241.818 153.94 242.597C153.997 242.906 154.007 243.244 153.948 243.551C153.114 247.858 152.579 252.232 151.121 256.401C150.789 257.351 150.394 258.273 149.559 258.972" fill="#020201"/><path id="Fill 47" fill-rule="evenodd" clip-rule="evenodd" d="M172.431 199.056C170.99 198.092 170.257 196.757 169.626 195.437C168.153 192.354 166.929 189.161 165.817 185.928C165.58 185.241 165.476 184.54 165.55 183.817C165.592 183.397 165.764 183.025 166.193 182.91C166.614 182.799 166.96 183.001 167.212 183.352C167.258 183.417 167.312 183.478 167.344 183.55C169.488 188.408 171.955 193.15 172.661 198.517C172.67 198.584 172.603 198.662 172.431 199.056" fill="#020201"/><path id="Fill 49" fill-rule="evenodd" clip-rule="evenodd" d="M146.428 396.619C146.157 394.489 146.271 392.306 146.472 390.136C146.686 387.835 147.017 385.546 147.309 383.253C147.369 382.783 147.433 382.302 147.587 381.857C147.751 381.383 148.105 381.041 148.664 381.087C149.225 381.134 149.508 381.535 149.591 382.03C149.683 382.577 149.705 383.14 149.711 383.696C149.754 387.973 149.072 392.113 147.324 396.045C147.2 396.323 147.135 396.665 146.428 396.619" fill="#020201"/><path id="Fill 51" fill-rule="evenodd" clip-rule="evenodd" d="M123.428 459.956C124.064 460.939 123.494 461.76 123.305 462.551C122.576 465.601 121.259 468.395 119.258 470.821C118.688 471.514 117.927 472.627 116.955 471.977C115.995 471.334 116.987 470.398 117.337 469.679C118.659 466.966 119.985 464.249 121.657 461.726C122.115 461.034 122.487 460.201 123.428 459.956" fill="#020201"/><path id="Fill 53" fill-rule="evenodd" clip-rule="evenodd" d="M201.018 329.99C200.248 330.086 199.995 329.519 199.629 329.124C197.426 326.743 195.936 323.922 194.681 320.971C194.317 320.115 193.831 318.932 194.909 318.406C196.199 317.775 196.418 319.191 196.824 319.96C197.943 322.078 199.035 324.214 200.042 326.387C200.563 327.513 201.254 328.642 201.018 329.99" fill="#020201"/><path id="Fill 55" fill-rule="evenodd" clip-rule="evenodd" d="M152.674 393.906C151.333 390.903 152.212 388.398 152.349 385.923C152.397 385.061 152.631 384.202 152.844 383.359C152.943 382.971 153.238 382.66 153.695 382.639C154.155 382.617 154.406 382.919 154.587 383.293C154.656 383.436 154.742 383.583 154.76 383.736C155.172 387.179 154.955 390.496 152.674 393.906" fill="#020201"/><path id="Fill 57" fill-rule="evenodd" clip-rule="evenodd" d="M156.64 255.488C156.276 252.497 156.62 249.492 157.659 246.558C157.822 246.099 158.178 245.708 158.722 245.744C159.428 245.791 159.661 246.362 159.631 246.933C159.477 249.883 159.215 252.816 157.455 255.354C157.315 255.557 157.107 255.664 156.64 255.488" fill="#020201"/><path id="Fill 59" fill-rule="evenodd" clip-rule="evenodd" d="M204.157 325.053C202.101 323.201 201.006 320.824 199.78 318.534C199.598 318.196 199.546 317.782 199.474 317.395C199.411 317.055 199.566 316.774 199.856 316.595C200.177 316.395 200.501 316.513 200.706 316.759C202.715 319.171 204.572 321.653 204.157 325.053" fill="#020201"/><path id="Fill 61" fill-rule="evenodd" clip-rule="evenodd" d="M114.182 458.173C113.913 460.534 113.108 462.246 112.467 463.997C112.11 464.97 111.663 465.912 111.197 466.839C110.981 467.268 110.599 467.649 110.044 467.48C109.474 467.307 109.467 466.785 109.487 466.295C109.493 466.137 109.515 465.972 109.567 465.823C110.522 463.106 111.728 460.539 114.182 458.173" fill="#020201"/><path id="Fill 63" fill-rule="evenodd" clip-rule="evenodd" d="M144.06 252.563C143.839 250.257 144.078 247.974 144.779 245.743C144.969 245.137 145.217 244.438 146.043 244.57C146.852 244.699 146.894 245.396 146.9 246.06C146.922 248.47 145.979 250.561 144.737 252.546C144.608 252.753 144.321 252.709 144.06 252.563" fill="#020201"/><path id="Fill 65" fill-rule="evenodd" clip-rule="evenodd" d="M215.862 409.984C213.248 408.225 212.085 405.925 211.035 403.55C210.821 403.066 211.001 402.596 211.498 402.352C212.005 402.103 212.459 402.334 212.762 402.721C213.947 404.238 214.733 405.975 215.389 407.767C215.598 408.338 215.651 408.964 215.862 409.984" fill="#020201"/><path id="Fill 67" fill-rule="evenodd" clip-rule="evenodd" d="M139.155 396.07C138.453 393.459 138.843 391 139.612 388.581C139.777 388.058 140.005 387.443 140.695 387.523C141.391 387.604 141.513 388.232 141.447 388.793C141.142 391.356 140.625 393.861 139.155 396.07" fill="#020201"/><path id="Fill 69" fill-rule="evenodd" clip-rule="evenodd" d="M127.306 465.24C127.912 466.065 128.073 466.677 127.947 467.324C127.614 469.038 127.265 470.755 126.556 472.361C126.285 472.977 126.04 473.906 125.106 473.597C124.225 473.306 124.42 472.513 124.639 471.779C125.293 469.579 126.184 467.483 127.306 465.24" fill="#020201"/><path id="Fill 71" fill-rule="evenodd" clip-rule="evenodd" d="M192.938 332.125C190.876 330.352 189.872 328.301 188.852 326.264C188.647 325.854 188.763 325.473 189.148 325.241C189.578 324.983 189.945 325.241 190.164 325.568C191.433 327.469 192.559 329.437 192.938 332.125" fill="#020201"/><path id="Fill 73" fill-rule="evenodd" clip-rule="evenodd" d="M175.044 192.855C173.348 191.168 172.654 189.249 171.931 187.358C171.79 186.989 171.926 186.552 172.378 186.378C172.831 186.204 173.186 186.469 173.392 186.797C174.483 188.543 175.463 190.332 175.044 192.855" fill="#020201"/><path id="Fill 75" fill-rule="evenodd" clip-rule="evenodd" d="M219.205 407.083C217.675 405.495 217.171 403.835 216.611 402.211C216.456 401.761 216.4 401.218 216.913 400.953C217.474 400.662 217.792 401.107 218.015 401.532C218.859 403.145 219.685 404.77 219.205 407.083" fill="#020201"/><path id="Fill 77" fill-rule="evenodd" clip-rule="evenodd" d="M207.712 411.436C206.526 410.71 205.985 410.006 205.661 409.138C205.606 408.989 205.749 408.655 205.894 408.572C206.05 408.482 206.41 408.503 206.522 408.623C207.162 409.311 207.406 410.165 207.712 411.436" fill="#020201"/></g></g></g></g><g id="Character"><g id="Head" transform="translate(294 55) scale(1 1)"><g id="Head/Braids"><g id="Head"><path id="SKIN" fill-rule="evenodd" clip-rule="evenodd" d="M92.3246 53.1185C92.3256 53.5975 92.3706 54.0825 92.3176 54.5555C92.1036 56.4855 92.1386 57.8975 94.3376 59.1725C97.7946 61.1785 97.3246 66.2745 93.4806 68.2145C91.0946 69.4195 90.5546 71.0155 90.0846 73.3295C88.7396 79.9265 86.4606 86.2395 83.3846 92.2435C81.9426 95.0565 79.8966 97.4185 77.5206 99.4605C76.0956 100.686 75.2256 102.015 75.3046 103.961C75.3696 105.554 75.0566 107.176 75.2386 108.747C75.6326 112.16 73.5866 114.337 70.5786 115.047C65.5956 116.223 60.4996 116.783 55.3606 115.997C53.7836 115.757 52.2106 115.515 50.7116 114.892C49.9066 114.559 49.6166 114.226 49.8346 113.296C50.4936 110.495 50.9766 107.658 51.1736 104.781C51.2116 104.223 51.2516 103.665 51.3006 103.108C51.5806 99.8985 50.6266 97.4475 47.6186 95.7405C44.1926 93.7955 41.8996 90.6245 40.0886 87.2075C37.4286 82.1915 35.0906 77.0345 33.9326 71.4065C33.4626 69.1245 33.1316 66.8355 32.9926 64.5275C32.7026 59.6655 32.0576 54.8165 32.5666 49.9245C33.3666 42.2255 37.0916 36.1325 43.0866 31.5115C49.0756 26.8945 55.9016 23.8775 63.5156 23.3755C69.2006 23.0005 74.8596 23.6315 80.1666 26.0285C83.2616 27.4275 85.5926 29.6395 87.2066 32.6295C90.6566 39.0255 92.2856 45.8725 92.3246 53.1185" fill="#eedab7"/></g><g id="Group 3"><path id="Fill 1" fill-rule="evenodd" clip-rule="evenodd" d="M96.3071 85.2667C97.0561 86.2307 98.1381 86.8597 98.6021 88.0277C99.4641 90.2037 99.3331 92.2757 97.9471 94.1697C97.1631 95.2387 97.0901 96.0997 98.0701 97.0997C98.6721 97.7167 99.1391 98.5057 99.5281 99.2877C100.425 101.092 99.6891 102.31 97.6631 102.207C96.8851 102.167 96.4511 102.237 96.1791 102.947C96.1511 103.02 96.0941 103.082 96.0481 103.148C95.8111 103.492 95.3261 103.922 95.1011 103.745C93.3891 102.392 92.2151 105.014 90.6741 104.302C89.4551 103.738 89.6891 102.399 89.3101 101.322C88.2721 101.421 87.7831 102.406 86.9321 102.789C86.0811 103.172 85.2311 103.46 84.5251 102.634C83.8911 101.89 84.2811 101.131 84.7191 100.428C84.8031 100.292 84.8771 100.133 84.9971 100.039C87.4561 98.1237 88.0041 95.3267 88.5911 92.5037C88.9321 90.8637 89.5671 89.2767 90.4781 87.8557C91.1981 86.7357 91.2461 85.6307 90.7791 84.4467C90.5431 83.8527 90.3631 83.2217 90.0361 82.6817C87.8461 79.0487 88.4841 75.4177 90.2491 71.9377C90.9611 70.5347 90.9661 69.5387 90.2201 68.2057C88.5351 65.1957 88.1141 61.8177 88.1651 58.4547C88.2001 56.2647 87.3231 54.9967 85.6501 53.7497C82.4391 51.3577 79.6541 48.4827 77.0281 45.4447C71.9001 39.5087 66.8911 33.4927 62.7581 26.7937C61.7721 25.1937 61.6171 25.2347 60.4371 26.8117C55.2451 33.7537 49.2771 39.9847 43.0171 45.9527C40.8631 48.0067 38.3491 49.5877 35.9041 51.2457C34.9001 51.9257 34.6031 52.6567 34.7211 53.8287C35.1361 57.9667 35.4141 62.1167 35.1791 66.2807C35.0081 69.3127 34.8961 72.3597 33.6151 75.1907C33.3151 75.8557 33.4881 76.4147 33.7251 77.0247C34.4751 78.9577 34.6951 80.9127 33.7121 82.8317C33.3051 83.6267 33.6601 84.1707 34.0801 84.7877C36.0631 87.7037 36.1661 90.7967 34.5971 93.8657C33.9521 95.1247 34.3131 95.6457 35.3321 96.3097C36.3291 96.9587 37.2631 97.7507 38.0841 98.6137C39.2221 99.8087 38.9861 101.064 37.4381 101.553C36.4571 101.862 36.3331 102.384 36.1321 103.206C35.8131 104.506 34.9461 104.886 33.7861 104.224C33.0611 103.81 32.6111 103.526 31.7241 104.015C30.4961 104.69 30.0091 103.245 29.2061 102.724C28.3841 103.06 27.7591 104.324 26.6961 103.41C25.7451 102.592 26.4481 101.621 26.7401 100.753C27.0511 99.8257 27.7481 99.1467 28.4111 98.4427C29.7171 97.0587 29.7061 96.7617 28.5191 95.1857C28.1351 94.6747 27.7091 94.1947 27.3351 93.6767C25.7711 91.5147 25.7221 89.9987 27.1341 87.7127C27.3441 87.3737 27.5631 87.0307 27.8331 86.7407C29.4131 85.0457 29.7291 83.3637 28.1091 81.4427C27.2291 80.3997 27.3661 79.0197 27.6221 77.7477C27.8581 76.5747 28.1361 75.3817 28.7871 74.3637C29.2991 73.5637 29.1611 72.9397 28.7011 72.1897C27.2601 69.8427 26.5021 67.2367 25.9421 64.5617C24.3951 57.1667 23.5271 49.6897 24.2681 42.1587C25.0981 33.7397 28.6431 26.5187 34.9401 20.7747C36.6491 19.2157 38.4981 17.7987 40.3641 16.4257C45.9671 12.2997 52.3321 11.8767 58.9111 12.8707C60.1291 13.0547 61.2031 13.0907 62.4151 12.8087C67.9071 11.5307 73.3671 11.7527 78.7211 13.5817C79.6971 13.9157 80.6761 14.3427 81.5321 14.9107C90.4581 20.8387 97.3691 28.3797 100.146 39.0207C102.04 46.2807 102.043 53.4427 97.9781 60.1157C97.4401 60.9997 97.5881 61.7777 97.7841 62.6297C98.3861 65.2547 98.6811 67.8537 97.1231 70.2857C96.7701 70.8377 96.8581 71.3347 97.1611 71.8477C99.6851 76.1287 98.8261 80.2827 96.6981 84.3927C96.5521 84.6727 96.4391 84.9707 96.3071 85.2667" fill="#020c1f"/></g></g></g><g id="Expression" transform="translate(324 96) scale(1 1)"><g id="Expression/Happy 1"><g id="Expression"><path id="Fill 6" fill-rule="evenodd" clip-rule="evenodd" d="M20.3842 14.6693C17.2442 14.6593 14.1952 15.3643 11.1172 15.8313C10.7252 15.8903 10.3472 16.0433 9.95524 16.1103C9.42724 16.2013 8.99424 15.9773 8.74224 15.5303C8.52024 15.1383 8.71624 14.7253 8.98624 14.4403C9.53124 13.8623 10.0742 13.2523 10.7242 12.8103C14.1962 10.4543 18.0852 9.38027 22.2462 9.37227C24.5482 9.36727 25.7682 10.5603 25.7052 12.4483C25.6582 13.8893 25.1752 14.5073 23.7362 14.6483C22.6282 14.7553 21.5022 14.6693 20.3842 14.6693" fill="black"/><path id="Fill 8" fill-rule="evenodd" clip-rule="evenodd" d="M55.6507 9.81868C55.5447 10.4017 54.9627 10.5917 54.4397 10.6977C53.1927 10.9507 51.9307 11.1767 50.6647 11.2857C47.3277 11.5727 43.9937 11.8307 40.8577 13.1687C39.7727 13.6307 38.9397 13.1427 38.4417 12.2357C37.9527 11.3457 37.9957 10.3607 38.7547 9.58268C39.0777 9.25368 39.5137 8.94268 39.9517 8.83268C44.3657 7.72368 48.7887 6.60668 53.3517 8.04668C53.9567 8.23668 54.5507 8.47268 55.1247 8.74268C55.5057 8.92268 55.6997 9.27768 55.6507 9.81868" fill="black"/><path id="Fill 10" fill-rule="evenodd" clip-rule="evenodd" d="M25.6006 58.5106C31.1366 60.1386 36.7606 60.1236 42.6646 59.6356C41.0866 61.4326 37.7266 62.0626 33.8596 61.5406C29.2386 60.9176 27.4166 60.2956 25.6006 58.5106" fill="black"/><path id="Fill 12" fill-rule="evenodd" clip-rule="evenodd" d="M26.2104 31.4989C26.2104 32.3139 26.2064 32.6289 26.2104 32.9429C26.2464 35.5039 27.5554 36.6279 30.0994 36.2539C31.4604 36.0539 32.6594 35.4289 33.8394 34.7599C34.2364 34.5339 34.6494 34.3339 35.1524 34.0729C34.5554 36.1739 33.1034 37.4229 30.8554 37.9459C28.8214 38.4199 27.0364 37.9239 25.6064 36.4569C24.5334 35.3569 24.7014 33.9829 26.2104 31.4989" fill="#050505"/><path id="Fill 14" fill-rule="evenodd" clip-rule="evenodd" d="M28.9322 25.6522C27.7242 21.9692 28.2972 18.8322 28.7162 15.7022C28.7812 15.2222 29.0882 14.7962 29.6682 14.8372C30.1092 14.8672 30.4042 15.2272 30.4742 15.6032C31.0942 18.9332 31.0052 22.1662 28.9322 25.6522" fill="black"/><path id="Fill 16" fill-rule="evenodd" clip-rule="evenodd" d="M45.4888 15.4193C43.1248 15.6383 40.8788 16.3533 39.5918 19.0943C41.4068 18.8553 42.6338 17.7203 44.1278 17.4733C44.3568 17.4043 44.5898 17.3433 44.8258 17.3003C45.8368 16.9843 46.8348 16.9833 47.8138 17.4463C47.9918 17.4983 48.1668 17.5513 48.3368 17.6253C49.5458 17.9393 50.6578 18.8573 52.3018 18.5023C50.4448 16.0123 48.1218 15.1763 45.4888 15.4193" fill="black"/><path id="Fill 18" fill-rule="evenodd" clip-rule="evenodd" d="M20.5867 20.8607C20.5827 20.8447 20.5867 20.8287 20.5847 20.8127C20.3297 20.6017 20.1197 20.2107 19.8497 20.1157C18.6227 19.6817 17.2837 19.9487 16.3747 20.9757C15.5777 21.8757 15.3737 23.1727 15.8867 24.0777C16.4117 25.0067 17.6777 25.5577 18.7737 25.3367C19.6517 25.1587 20.3727 24.5467 20.7537 23.7067C20.9197 22.7707 20.7957 21.7787 20.5867 20.8607" fill="black"/><path id="Fill 20" fill-rule="evenodd" clip-rule="evenodd" d="M23.7905 19.6361C23.3945 19.2571 22.9645 18.8841 22.4845 18.6261C19.5615 17.0531 14.3065 17.9111 12.0435 20.3031C11.9885 20.3611 11.9075 20.4201 11.8965 20.4881C11.8615 20.7091 11.7905 20.9531 11.8515 21.1541C11.9245 21.3991 12.2185 21.4961 12.4335 21.4111C13.2425 21.0921 14.0355 20.7301 14.8315 20.3791C16.8245 19.4981 18.8515 18.9091 21.0045 19.7581C21.0105 19.7591 21.0185 19.7571 21.0235 19.7591C21.3445 19.8651 21.6705 19.9831 21.9465 20.1781C22.4035 20.1091 22.8485 20.7201 23.3225 20.5671C23.5355 20.4981 23.8275 20.5511 23.8885 20.2981C23.9385 20.0911 23.9215 19.7611 23.7905 19.6361" fill="black"/><path id="Fill 22" fill-rule="evenodd" clip-rule="evenodd" d="M47.3098 18.5897C46.1068 18.2277 44.1228 18.6357 43.6778 19.9737C43.6618 20.0237 43.6318 20.0577 43.6078 20.0967C43.4138 21.3847 44.0848 22.5477 45.2848 22.8737C46.6738 23.2517 48.1988 22.3197 48.5818 20.8697C48.7578 20.2037 48.6348 19.6417 48.3148 19.1467C48.0208 18.8997 47.6908 18.7047 47.3098 18.5897" fill="black"/><path id="Fill 24" fill-rule="evenodd" clip-rule="evenodd" d="M42.5981 44.5287C36.9751 46.8417 31.1361 49.1807 25.8861 47.1957C25.2781 46.9657 24.9601 48.7157 25.5641 48.9437C30.8941 50.9597 36.8391 48.6107 42.5481 46.2617C43.2091 45.9907 43.2661 44.2537 42.5981 44.5287" fill="black"/></g></g></g><g id="Lower Body" transform="translate(158 165) scale(1 1)"><g id="Lower Body/Leg Up"><g id="Group 58"><path id="Fill 1" fill-rule="evenodd" clip-rule="evenodd" d="M238.358 305.179C237.947 304.62 237.452 304.966 237.029 305.01C231.876 305.546 226.724 306.102 221.574 306.667C220.84 306.747 219.679 306.409 219.623 307.447C219.569 308.429 220.748 308.465 221.487 308.514C226.8 308.869 231.997 308.316 236.958 306.249C237.496 306.025 238.19 305.912 238.358 305.179M143.414 237.202C143.173 237.542 143.364 237.82 143.501 238.101C146.111 243.487 149.009 248.717 152.071 253.855C152.538 254.639 152.996 256.198 154.247 255.415C155.378 254.708 154.383 253.533 153.925 252.673C151.296 247.738 148.309 243.026 144.898 238.591C144.488 238.058 144.232 237.313 143.414 237.202M58.4655 249.099C58.4315 249.275 58.3975 249.451 58.3625 249.627C58.4535 249.836 58.4935 250.097 58.6455 250.241C58.9875 250.566 59.3535 250.892 59.7645 251.115C62.6625 252.68 65.6965 253.338 68.9835 252.575C72.5975 251.739 75.5755 249.831 78.1965 247.292C78.5345 246.965 79.1015 246.701 78.9625 245.775C72.4895 249.625 66.0015 252.521 58.4655 249.099M144.045 353.578C145.87 354.198 147.251 353.793 148.58 353.263C151.634 352.045 154.581 350.595 157.241 348.65C167.082 341.455 174.812 332.385 180.879 321.86C181.353 321.039 181.633 320.105 181.968 319.209C182.085 318.898 181.994 318.527 181.715 318.351C181.252 318.06 180.983 318.44 180.776 318.775C178.922 321.781 176.541 324.39 174.433 327.205C167.161 336.915 158.687 345.288 147.715 350.826C146.435 351.474 145.241 352.254 144.045 353.578M246.847 168.242C245.315 167.551 244.045 167.494 242.766 167.435C239.17 167.268 235.618 166.805 232.121 165.912C228.489 164.986 226.035 162.868 225.079 159.171C224.799 158.091 224.476 157.014 224.3 155.915C223.2 149.039 222.848 142.107 222.846 135.152C222.846 133.954 222.897 132.751 222.801 131.56C222.738 130.759 222.781 129.808 221.787 129.371C221.132 130.078 221.18 130.912 221.061 131.679C219.97 138.663 219.932 145.677 220.593 152.697C220.9 155.959 221.389 159.189 222.755 162.227C223.964 164.919 225.908 166.893 228.636 167.886C233.333 169.594 238.188 170.459 243.211 169.799C244.447 169.636 245.677 169.341 246.847 168.242M123.789 164.013C124.394 165.69 125.502 166.338 126.582 166.989C128.457 168.117 130.553 168.648 132.654 169.156C139.802 170.885 146.107 169.275 151.598 164.399C153.638 162.587 155.524 160.633 157.132 158.428C162.586 150.951 166.236 142.477 170.408 134.294C170.694 133.732 171.329 132.822 170.54 132.357C169.676 131.847 169.47 132.972 169.039 133.452C168.828 133.686 168.701 133.994 168.525 134.261C165.623 138.674 163.19 143.363 160.53 147.918C157.907 152.41 155.128 156.793 151.4 160.5C146.397 165.473 140.562 167.655 133.503 166.246C130.381 165.623 127.272 164.963 123.789 164.013M188.443 403.711C190.319 405.45 193.318 406.887 196.509 407.897C202.076 409.658 207.7 409.354 213.375 408.673C225.857 407.177 237.732 403.475 249.351 398.846C252.245 397.693 255.047 396.308 257.63 394.536C258.028 394.264 258.753 394.08 258.32 393.247C258.095 393.28 257.852 393.26 257.66 393.352C252.948 395.589 247.964 397.063 242.995 398.574C233.429 401.483 223.825 404.242 213.845 405.332C209.165 405.844 204.47 406.551 199.753 405.634C196.772 405.055 193.792 404.479 190.815 403.879C190.064 403.727 189.328 403.532 188.443 403.711M183.32 218.336C183.32 215.788 183.258 213.554 183.333 211.325C183.542 205.093 183.736 198.861 184.068 192.636C184.566 183.3 185.211 173.972 185.726 164.637C186.043 158.892 186.222 153.141 186.819 147.412C187.275 143.042 187.585 138.657 187.915 134.275C187.981 133.408 187.876 132.522 187.783 131.652C187.75 131.34 187.465 131.101 187.109 131.086C186.755 131.071 186.482 131.261 186.372 131.582C186.245 131.955 186.152 132.35 186.109 132.742C185.323 140.051 184.393 147.347 183.809 154.672C183.205 162.237 182.922 169.829 182.528 177.41C182.122 185.231 181.724 193.052 181.375 200.875C181.164 205.584 181.037 210.298 180.908 215.011C180.867 216.528 180.805 218.063 180.995 219.559C181.212 221.273 182.586 221.794 183.96 220.777C184.527 220.356 185.001 219.785 185.449 219.229C186.877 217.454 187.722 215.394 188.332 213.22C190.129 206.805 190.861 200.209 191.629 193.624C192.769 183.857 193.19 174.032 193.947 164.234C194.754 153.796 195.181 143.329 196.347 132.92C196.374 132.681 196.404 132.443 196.414 132.204C196.444 131.495 196.226 130.888 195.46 130.766C194.686 130.643 194.286 131.191 194.107 131.848C193.898 132.615 193.748 133.402 193.623 134.188C193.009 138.061 192.771 141.967 192.549 145.879C192.052 154.655 191.422 163.424 190.994 172.202C190.549 181.304 190.016 190.395 188.802 199.43C188.206 203.862 187.619 208.305 186.375 212.619C185.784 214.665 185.117 216.689 183.32 218.336M207.77 417.6C207.236 416.473 206.206 416.493 205.169 416.396C200.802 415.986 196.461 415.431 192.339 413.798C191.673 413.534 190.995 413.296 190.354 412.982C186.587 411.13 186.679 411.117 186.342 406.923C185.991 402.545 186.017 398.166 185.945 393.784C185.933 393.041 186.303 392.163 185.436 391.604C187.13 387.671 189.26 384.088 193.024 381.731C196.248 379.712 198.815 376.984 201.242 374.083C204.016 370.769 204.96 366.902 205.061 362.72C205.114 360.576 204.294 358.83 202.652 357.467C201.355 356.391 199.942 355.48 198.477 354.655C193.888 352.065 190.689 348.094 187.719 343.891C187.474 343.543 187.307 343.197 187.854 342.957C187.706 340.006 187.513 337.055 187.419 334.102C187.153 325.791 187.469 317.475 186.993 309.159C186.582 301.983 186.331 294.793 186.031 287.609C185.625 277.865 184.677 268.162 184.132 258.434C183.649 249.819 182.987 241.208 182.859 232.572C182.828 230.495 182.817 228.367 182.294 226.06C181.87 226.521 181.63 226.729 181.453 226.982C175.641 235.251 168.883 242.712 161.827 249.916C159.98 251.802 158.16 253.717 156.252 255.538C155.386 256.366 155.085 257.071 155.681 258.227C156.668 260.143 157.488 262.145 158.375 264.113C165.205 279.273 172.167 294.369 179.792 309.153C181.695 312.843 183.55 316.561 185.046 320.454C185.875 322.612 185.812 324.628 185.005 326.725C184.053 329.2 182.816 331.519 181.406 333.757C180.911 334.544 180.201 335.313 180.671 336.388C178.898 336.298 178.225 337.74 177.481 338.879C176.114 340.969 174.455 342.762 172.62 344.427C168.847 347.853 164.96 351.143 161.005 354.355C160.128 355.068 159.26 355.785 159.465 357.105C158.669 356.916 158.104 357.395 157.492 357.769C154.731 359.458 151.708 360.491 148.575 361.193C146.912 361.566 145.379 361.371 143.761 360.488C140.122 358.501 137.171 355.709 134.155 352.971C124.949 344.615 117.028 335.069 108.926 325.689C102.915 318.73 96.8805 311.789 90.7735 304.914C81.5815 294.568 72.7835 283.896 64.0815 273.139C58.3215 266.02 53.4145 258.37 49.1075 250.309C47.6695 247.615 46.5575 244.789 45.6555 241.891C44.2325 237.323 45.2485 233.049 47.5265 228.992C50.0455 224.512 53.1205 220.434 56.4775 216.551C61.8305 210.358 67.9085 204.924 74.0665 199.566C77.5655 196.522 80.9695 193.37 84.4505 190.306C89.8595 185.544 95.5945 181.205 101.542 177.136C106.503 173.742 110.893 169.637 115.442 165.73C124.065 158.325 132.298 150.517 140.277 142.421C144.536 138.099 149.454 134.451 153.549 129.932C154.489 128.894 154.708 128.938 155.169 130.296C155.51 131.296 156.152 130.961 156.687 130.861C159.277 130.377 161.858 129.839 164.438 129.296C173.585 127.372 182.791 125.788 192.031 124.388C192.582 124.305 193.147 124.29 193.706 124.282C201.618 124.158 209.535 123.716 217.443 124.278C221.504 124.567 225.55 125.051 229.598 125.503C231.738 125.742 233.917 125.586 236.021 126.215C237.702 126.717 237.747 126.67 237.723 128.545C237.717 129.007 237.906 129.292 238.152 129.597C240.766 132.844 242.154 136.69 243.288 140.602C245.268 147.435 246.641 154.408 247.854 161.42C250.061 174.171 251.991 186.959 253.73 199.784C254.891 208.342 255.552 216.942 256.512 225.514C257.304 232.579 258.253 239.627 259.072 246.69C259.533 250.658 260.057 254.631 260.231 258.616C260.703 269.478 261.589 280.314 261.945 291.186C262.367 304.069 262.222 316.946 262.005 329.817C261.811 341.337 261.655 352.857 261.943 364.367C262.183 373.966 262.301 383.557 262.274 393.157C262.264 396.695 260.673 399.287 258.199 401.444C255.465 403.827 252.273 405.53 248.895 406.826C245.241 408.229 241.542 409.514 237.863 410.856C237.275 411.07 236.596 411.152 236.292 411.828C235.143 411.297 234.028 411.492 232.839 411.806C227.386 413.248 221.941 414.773 216.316 415.396C214.269 415.622 212.186 415.505 210.124 415.613C208.371 415.704 208.231 415.868 207.77 417.6" fill="#81969C"/><g id="Group 5"><path id="Fill 3" fill-rule="evenodd" clip-rule="evenodd" d="M256.054 484.97C253.615 486.536 251.479 488.422 249.769 490.776C249.676 490.904 249.566 491.021 249.453 491.134C249.016 491.572 248.598 492.29 247.895 491.918C247.04 491.467 247.514 490.651 247.701 490.008C248.325 487.869 249.706 486.225 251.322 484.768C252.27 483.911 253.339 483.212 254.517 482.696C255.609 482.216 256.66 482.139 257.634 482.97C257.545 484.019 256.783 484.502 256.054 484.97M244.776 485.601C244.143 485.471 243.55 485.2 243.084 484.741C236.808 478.549 228.925 474.969 221.131 471.253C216.798 469.188 213.144 466.269 210.053 462.629C209.303 461.745 208.53 460.821 208.366 459.039C209.967 460.423 211.138 461.502 212.377 462.493C215.7 465.148 219.24 467.41 223.217 469.027C227.436 470.741 231.495 472.818 235.468 475.06C238.492 476.766 241.122 478.957 243.591 481.366C244.517 482.269 245.238 483.326 245.698 484.538C246 485.336 245.616 485.772 244.776 485.601M224.616 439.47C224.847 439.414 225.092 439.274 225.307 439.312C227.04 439.615 228.627 440.368 230.03 441.354C231.276 442.23 231.477 443.756 231.571 445.035C231.586 448.295 229.442 450.953 226.789 451.143C223.667 451.366 220.551 449.042 220.126 446.176C219.687 443.211 221.732 440.157 224.616 439.47M244.643 469.441C245.112 469.151 245.732 468.949 246.149 469.52C246.501 470.004 246.101 470.447 245.786 470.772C244.694 471.902 243.56 472.991 242.077 474.457C241.925 471.822 243.001 470.455 244.643 469.441M247.256 472.944C247.853 472.476 248.616 472.337 249.161 473.008C249.599 473.545 249.191 474.045 248.785 474.451C247.908 475.333 247.021 476.207 245.716 477.502C245.506 475.278 245.99 473.936 247.256 472.944M252.093 475.647C252.72 476.214 252.3 476.834 251.903 477.327C251.016 478.43 250.052 479.461 248.429 480.568C248.68 478.529 249.221 477.168 250.253 476.037C250.742 475.501 251.379 475.001 252.093 475.647M265.037 491.498C263.45 487.239 260.947 483.566 258.148 480.047C255.308 476.477 252.272 473.078 249.187 469.726C246.731 467.056 245.251 463.922 244.484 460.43C243.008 453.711 241.927 446.923 241.152 440.09C240.278 432.383 239.286 424.693 237.767 417.084C237.412 415.31 237.348 413.421 236.292 411.829C235.144 411.298 234.028 411.492 232.839 411.807C227.386 413.249 221.942 414.774 216.317 415.397C214.27 415.623 212.187 415.506 210.124 415.614C208.371 415.705 208.232 415.869 207.771 417.601C207.862 418.869 207.952 420.139 208.043 421.408C208.283 421.708 208.385 422.017 208.109 422.352C208.241 424.278 208.374 426.204 208.507 428.13C208.743 428.467 208.836 428.819 208.621 429.203C208.747 430.926 208.873 432.649 208.998 434.371C209.366 436.924 209.452 439.478 209.001 442.031C208.955 445.246 208.493 448.407 207.726 451.527C207.743 451.562 207.743 451.593 207.756 451.627C207.7 451.71 207.659 451.801 207.659 451.906V452.38C207.615 452.452 207.565 452.524 207.507 452.593C207.098 454.219 206.675 455.842 206.281 457.473C204.799 463.595 206.417 468.025 211.484 471.735C214.657 474.059 218.031 476.032 221.71 477.44C229.279 480.337 236.051 484.415 241.523 490.504C244.865 494.224 249.128 496.555 253.773 498.22C255.741 498.926 257.819 499.226 259.908 499.104C264.679 498.824 266.968 496.684 265.037 491.498" fill="#040404"/></g><path id="Fill 6" fill-rule="evenodd" clip-rule="evenodd" d="M201.31 365.048C200.43 368.016 198.76 370.524 196.733 372.825C194.871 374.94 192.592 376.58 190.428 378.338C187.504 380.712 185.35 383.594 183.878 387.048C182.402 390.51 180.429 393.711 178.404 396.869C176.051 400.539 172.595 402.996 168.855 405.035C166.904 406.1 164.866 407.062 162.695 407.646C161.326 408.015 159.949 408.212 158.666 407.41C164.554 405.788 169.271 402.421 173.688 398.582C176.578 396.07 178.44 392.718 180.036 389.357C183.144 382.808 187.309 377.221 192.995 372.697C195.379 370.801 197.138 368.278 198.516 365.531C198.767 365.032 199.028 364.532 199.348 364.077C199.751 363.507 200.242 362.693 200.999 363.08C201.706 363.442 201.513 364.363 201.31 365.048M171.693 375.813C170.278 376.026 168.803 375.751 167.524 376.33C166.629 376.385 166.266 375.86 166.626 375.12C166.761 374.844 166.963 374.573 167.198 374.378C168.203 373.544 170.909 373.522 171.99 374.312C172.329 374.56 172.567 374.861 172.438 375.314C172.333 375.682 172.002 375.766 171.693 375.813M171.325 379.677C170.617 379.756 169.892 379.694 169.175 379.694C169.015 379.702 168.856 379.723 168.697 379.723C168.118 379.723 167.254 380.428 167.032 379.57C166.789 378.632 167.789 378.318 168.537 378.103C169.644 377.786 170.774 377.703 171.643 378.659C172.004 379.056 172.05 379.597 171.325 379.677M165.849 384.445C165.662 384.471 165.351 384.348 165.263 384.197C165.096 383.911 165.198 383.589 165.467 383.367C166.227 382.739 167.091 382.435 168.081 382.575C169.003 382.705 169.264 382.949 170.106 384.557C168.499 384.455 167.176 384.261 165.849 384.445M179.559 352.691C180.53 352.354 181.508 352.092 182.448 351.615C183.799 350.93 185.366 351.325 186.345 352.525C188.237 354.844 188.943 357.468 187.824 360.348C186.662 363.337 184.72 365.614 181.377 366.116C177.603 366.684 174.173 363.628 174.183 359.884C174.192 356.702 176.342 353.806 179.559 352.691M202.653 357.468C201.356 356.392 199.943 355.481 198.478 354.655C193.889 352.066 190.689 348.095 187.72 343.892C187.514 343.6 187.369 343.31 187.649 343.082C187.205 343.276 186.987 342.841 186.752 342.54C185.877 341.423 185.056 340.262 184.156 339.166C183.197 337.999 182.066 337.021 180.671 336.389C178.897 336.299 178.226 337.74 177.481 338.88C176.115 340.97 174.456 342.763 172.621 344.428C168.848 347.854 164.959 351.144 161.005 354.356C160.127 355.069 159.26 355.786 159.466 357.106C160.302 358.822 161.141 360.537 161.975 362.255C164.208 366.859 165.205 371.755 165.051 376.83C164.923 381.061 164.067 385.201 162.666 389.213C162.666 389.23 162.665 389.239 162.665 389.255C162.502 389.534 162.41 389.85 162.395 390.173C162.383 390.177 162.372 390.183 162.357 390.182C162.311 391.061 162.045 391.87 161.605 392.627C163.012 392.698 164.409 392.423 165.825 392.602C168.052 392.882 169.974 393.736 171.534 395.36C171.87 395.708 172.224 396.152 171.905 396.624C171.667 396.978 171.152 396.935 170.801 396.735C168.387 395.368 165.74 394.819 163.036 394.455C162.51 394.384 162.248 393.958 161.902 393.631C161.534 393.281 161.435 393.86 161.169 393.899C160.571 396.156 159.549 398.232 158.42 400.26C158.419 400.271 158.416 400.279 158.416 400.29C158.386 400.319 158.352 400.345 158.336 400.382C158.174 400.754 158.012 401.125 157.85 401.496C157.842 401.509 157.843 401.524 157.837 401.536C157.824 401.549 157.814 401.563 157.801 401.575C156.948 403.961 156.039 406.334 156.119 408.933C156.146 409.001 156.173 409.069 156.2 409.137C156.107 409.659 156.608 410.133 157.001 410.442C157.317 410.69 157.668 410.877 158.034 411.036C158.046 411.045 158.059 411.054 158.07 411.063C158.079 411.062 158.086 411.063 158.094 411.061C158.227 411.116 158.354 411.183 158.493 411.227C159.571 411.563 160.73 411.484 161.756 411.023C161.783 411.011 161.8 410.986 161.823 410.968C162.454 410.73 163.087 410.497 163.708 410.236C166.941 408.879 170.332 407.866 173.262 405.845C178.58 402.174 182.48 397.294 185.435 391.605C187.13 387.672 189.261 384.089 193.025 381.732C196.248 379.713 198.815 376.985 201.242 374.084C204.016 370.77 204.96 366.902 205.062 362.721C205.115 360.577 204.294 358.831 202.653 357.468" fill="#060606"/><path id="Fill 8" fill-rule="evenodd" clip-rule="evenodd" d="M187.648 343.082C187.711 343.055 187.779 343.014 187.853 342.958C187.765 342.997 187.701 343.039 187.648 343.082" fill="#060606"/><path id="Fill 10" fill-rule="evenodd" clip-rule="evenodd" d="M161.605 392.627C163.011 392.698 164.409 392.423 165.825 392.602C168.051 392.882 169.973 393.736 171.534 395.359C171.869 395.708 172.223 396.151 171.905 396.624C171.667 396.978 171.152 396.935 170.8 396.735C168.387 395.368 165.74 394.819 163.035 394.455C162.509 394.384 162.248 393.958 161.902 393.631C161.534 393.281 161.435 393.859 161.168 393.898C160.961 393.354 160.893 392.856 161.605 392.627" fill="#EAE7E5"/><path id="Fill 12" fill-rule="evenodd" clip-rule="evenodd" d="M183.321 218.337C185.117 216.69 185.785 214.666 186.375 212.62C187.619 208.306 188.207 203.862 188.802 199.431C190.017 190.396 190.55 181.305 190.994 172.203C191.423 163.424 192.053 154.655 192.55 145.879C192.772 141.968 193.01 138.062 193.623 134.189C193.748 133.402 193.899 132.616 194.108 131.849C194.286 131.192 194.687 130.644 195.46 130.767C196.227 130.889 196.445 131.496 196.414 132.205C196.404 132.444 196.374 132.682 196.348 132.92C195.182 143.33 194.755 153.797 193.947 164.234C193.191 174.032 192.77 183.858 191.63 193.625C190.862 200.21 190.13 206.806 188.332 213.221C187.723 215.395 186.877 217.455 185.449 219.23C185.001 219.786 184.528 220.357 183.96 220.777C182.587 221.795 181.213 221.274 180.995 219.56C180.805 218.064 180.867 216.528 180.909 215.012C181.038 210.299 181.165 205.585 181.375 200.876C181.724 193.053 182.123 185.232 182.529 177.411C182.923 169.83 183.206 162.238 183.809 154.672C184.394 147.348 185.323 140.051 186.11 132.743C186.153 132.351 186.245 131.956 186.373 131.583C186.483 131.262 186.756 131.072 187.11 131.087C187.466 131.102 187.751 131.341 187.784 131.653C187.876 132.523 187.981 133.408 187.916 134.275C187.585 138.657 187.276 143.043 186.82 147.413C186.222 153.142 186.044 158.893 185.727 164.637C185.211 173.973 184.567 183.301 184.069 192.637C183.737 198.861 183.542 205.094 183.333 211.325C183.259 213.555 183.321 215.789 183.321 218.337" fill="#080909"/><path id="Fill 14" fill-rule="evenodd" clip-rule="evenodd" d="M188.444 403.712C189.328 403.532 190.064 403.728 190.816 403.88C193.792 404.48 196.773 405.056 199.753 405.635C204.471 406.552 209.165 405.845 213.846 405.333C223.825 404.242 233.43 401.483 242.995 398.574C247.965 397.064 252.947 395.59 257.659 393.353C257.852 393.261 258.096 393.28 258.32 393.248C258.753 394.081 258.028 394.265 257.631 394.537C255.048 396.309 252.245 397.693 249.352 398.847C237.733 403.476 225.858 407.178 213.375 408.674C207.7 409.355 202.076 409.659 196.51 407.898C193.319 406.888 190.319 405.451 188.444 403.712" fill="#080909"/><path id="Fill 16" fill-rule="evenodd" clip-rule="evenodd" d="M123.789 164.013C127.272 164.964 130.382 165.624 133.503 166.246C140.562 167.656 146.397 165.473 151.4 160.5C155.129 156.794 157.907 152.411 160.531 147.918C163.191 143.363 165.623 138.675 168.526 134.262C168.702 133.994 168.829 133.687 169.039 133.453C169.471 132.973 169.676 131.848 170.54 132.357C171.33 132.823 170.694 133.732 170.408 134.294C166.237 142.477 162.587 150.951 157.133 158.428C155.524 160.633 153.638 162.588 151.598 164.399C146.107 169.276 139.803 170.886 132.655 169.157C130.554 168.648 128.457 168.118 126.582 166.989C125.502 166.339 124.394 165.691 123.789 164.013" fill="#080909"/><path id="Fill 18" fill-rule="evenodd" clip-rule="evenodd" d="M246.848 168.243C245.678 169.342 244.448 169.637 243.211 169.8C238.189 170.46 233.333 169.595 228.637 167.887C225.909 166.894 223.965 164.92 222.756 162.228C221.39 159.19 220.901 155.96 220.594 152.698C219.933 145.678 219.971 138.664 221.062 131.68C221.181 130.913 221.133 130.079 221.787 129.372C222.782 129.809 222.739 130.76 222.802 131.561C222.898 132.752 222.847 133.955 222.847 135.153C222.849 142.108 223.201 149.04 224.301 155.916C224.477 157.015 224.8 158.092 225.079 159.172C226.036 162.869 228.49 164.987 232.121 165.913C235.619 166.806 239.171 167.269 242.767 167.436C244.046 167.495 245.316 167.552 246.848 168.243" fill="#080909"/><path id="Fill 20" fill-rule="evenodd" clip-rule="evenodd" d="M144.045 353.579C145.241 352.255 146.435 351.475 147.715 350.827C158.687 345.289 167.161 336.916 174.433 327.206C176.541 324.391 178.922 321.781 180.776 318.775C180.983 318.44 181.252 318.06 181.715 318.351C181.994 318.527 182.085 318.898 181.968 319.21C181.633 320.105 181.353 321.04 180.879 321.86C174.812 332.386 167.082 341.456 157.241 348.65C154.581 350.596 151.634 352.046 148.58 353.264C147.251 353.794 145.87 354.198 144.045 353.579" fill="#080909"/><path id="Fill 22" fill-rule="evenodd" clip-rule="evenodd" d="M58.4658 249.099C66.0008 252.521 72.4898 249.625 78.9628 245.775C79.1008 246.702 78.5338 246.965 78.1958 247.292C75.5758 249.831 72.5968 251.739 68.9838 252.576C65.6968 253.338 62.6628 252.68 59.7648 251.115C59.3528 250.892 58.9868 250.566 58.6458 250.242C58.4938 250.097 58.4538 249.836 58.3628 249.627C58.3978 249.452 58.4318 249.275 58.4658 249.099" fill="#080909"/><path id="Fill 24" fill-rule="evenodd" clip-rule="evenodd" d="M143.414 237.203C144.232 237.313 144.488 238.058 144.898 238.592C148.309 243.026 151.296 247.738 153.925 252.674C154.383 253.534 155.377 254.709 154.247 255.416C152.996 256.198 152.538 254.64 152.071 253.855C149.009 248.718 146.111 243.487 143.5 238.101C143.364 237.82 143.173 237.543 143.414 237.203" fill="#080909"/><path id="Fill 26" fill-rule="evenodd" clip-rule="evenodd" d="M238.357 305.18C238.189 305.913 237.495 306.026 236.957 306.25C231.996 308.317 226.799 308.87 221.486 308.515C220.747 308.466 219.568 308.43 219.622 307.448C219.678 306.41 220.839 306.748 221.573 306.668C226.723 306.103 231.875 305.547 237.028 305.011C237.451 304.967 237.946 304.621 238.357 305.18" fill="#080909"/><path id="Fill 28" fill-rule="evenodd" clip-rule="evenodd" d="M208.365 459.039C209.967 460.423 211.137 461.502 212.377 462.493C215.699 465.148 219.239 467.41 223.217 469.026C227.435 470.74 231.495 472.817 235.468 475.06C238.491 476.766 241.122 478.957 243.591 481.365C244.516 482.268 245.237 483.327 245.697 484.538C246 485.336 245.616 485.771 244.775 485.601C244.142 485.471 243.55 485.2 243.084 484.741C236.807 478.549 228.925 474.969 221.131 471.253C216.798 469.187 213.143 466.268 210.052 462.629C209.302 461.745 208.529 460.82 208.365 459.039" fill="#EAE7E5"/><path id="Fill 30" fill-rule="evenodd" clip-rule="evenodd" d="M228.816 445.047C228.9 443.842 227.819 443.027 226.737 442.166C225.354 441.067 224.771 441.09 223.81 442.519C223.269 443.322 222.937 444.225 222.963 445.209C223.004 446.774 224.667 448.196 226.419 448.2C227.725 448.203 228.776 446.984 228.816 445.047M231.571 445.035C231.587 448.296 229.442 450.953 226.79 451.143C223.668 451.365 220.551 449.042 220.127 446.176C219.687 443.211 221.732 440.157 224.616 439.47C224.847 439.414 225.092 439.274 225.307 439.312C227.041 439.614 228.628 440.368 230.03 441.354C231.276 442.23 231.477 443.756 231.571 445.035" fill="#EAE7E5"/><path id="Fill 32" fill-rule="evenodd" clip-rule="evenodd" d="M257.634 482.97C257.545 484.019 256.783 484.502 256.054 484.97C253.614 486.536 251.479 488.422 249.769 490.776C249.676 490.904 249.566 491.022 249.453 491.134C249.016 491.573 248.598 492.29 247.895 491.918C247.04 491.468 247.514 490.651 247.701 490.008C248.325 487.869 249.706 486.225 251.322 484.768C252.27 483.911 253.339 483.212 254.517 482.696C255.609 482.216 256.66 482.139 257.634 482.97" fill="#EAE7E5"/><path id="Fill 34" fill-rule="evenodd" clip-rule="evenodd" d="M248.429 480.567C248.68 478.528 249.221 477.169 250.253 476.037C250.742 475.501 251.379 475.001 252.093 475.646C252.72 476.213 252.3 476.834 251.903 477.327C251.016 478.429 250.052 479.461 248.429 480.567" fill="#EAE7E5"/><path id="Fill 36" fill-rule="evenodd" clip-rule="evenodd" d="M242.077 474.457C241.925 471.821 243.001 470.455 244.642 469.44C245.111 469.15 245.731 468.949 246.148 469.52C246.501 470.004 246.1 470.446 245.786 470.771C244.693 471.901 243.559 472.992 242.077 474.457" fill="#EAE7E5"/><path id="Fill 38" fill-rule="evenodd" clip-rule="evenodd" d="M245.716 477.502C245.506 475.277 245.989 473.936 247.256 472.943C247.853 472.476 248.615 472.337 249.161 473.008C249.599 473.545 249.191 474.045 248.785 474.451C247.907 475.333 247.021 476.207 245.716 477.502" fill="#EAE7E5"/><path id="Fill 40" fill-rule="evenodd" clip-rule="evenodd" d="M158.666 407.41C164.553 405.788 169.27 402.421 173.687 398.582C176.577 396.07 178.44 392.718 180.035 389.356C183.144 382.807 187.309 377.221 192.994 372.697C195.379 370.801 197.138 368.278 198.516 365.531C198.767 365.032 199.027 364.532 199.348 364.077C199.751 363.507 200.241 362.692 200.999 363.08C201.705 363.441 201.513 364.363 201.31 365.048C200.43 368.015 198.76 370.523 196.732 372.825C194.87 374.939 192.592 376.58 190.427 378.338C187.504 380.712 185.35 383.594 183.878 387.048C182.402 390.51 180.428 393.711 178.403 396.869C176.05 400.539 172.594 402.996 168.854 405.035C166.903 406.099 164.866 407.061 162.694 407.645C161.325 408.014 159.949 408.212 158.666 407.41" fill="#EAE7E5"/><path id="Fill 42" fill-rule="evenodd" clip-rule="evenodd" d="M185.962 357.599C185.895 355.212 183.723 353.178 181.734 353.895C179.479 354.708 177.75 356.278 177.187 358.747C176.625 361.217 178.371 363.216 180.895 363.11C183.4 363.004 186.034 360.14 185.962 357.599M174.183 359.883C174.192 356.702 176.342 353.805 179.559 352.69C180.53 352.353 181.508 352.091 182.448 351.615C183.799 350.929 185.366 351.325 186.345 352.524C188.237 354.843 188.943 357.467 187.824 360.347C186.662 363.336 184.72 365.615 181.378 366.116C177.603 366.683 174.173 363.627 174.183 359.883" fill="#EAE7E5"/><path id="Fill 44" fill-rule="evenodd" clip-rule="evenodd" d="M167.523 376.33C166.628 376.385 166.265 375.859 166.625 375.12C166.76 374.844 166.962 374.573 167.197 374.378C168.202 373.544 170.908 373.521 171.989 374.311C172.328 374.559 172.566 374.86 172.437 375.313C172.332 375.682 172.001 375.766 171.692 375.812C170.277 376.025 168.802 375.751 167.523 376.33" fill="#EAE7E5"/><path id="Fill 46" fill-rule="evenodd" clip-rule="evenodd" d="M170.106 384.556C168.5 384.454 167.176 384.26 165.849 384.445C165.662 384.47 165.351 384.347 165.263 384.197C165.096 383.91 165.198 383.588 165.467 383.367C166.227 382.739 167.091 382.434 168.082 382.575C169.003 382.705 169.264 382.949 170.106 384.556" fill="#EAE7E5"/><path id="Fill 48" fill-rule="evenodd" clip-rule="evenodd" d="M169.174 379.693C169.015 379.702 168.856 379.722 168.696 379.722C168.117 379.722 167.254 380.427 167.032 379.57C166.789 378.631 167.788 378.317 168.537 378.102C169.644 377.786 170.774 377.703 171.643 378.659C172.004 379.055 172.049 379.596 171.325 379.676C170.616 379.755 169.892 379.694 169.174 379.693" fill="#EAE7E5"/><path id="Fill 50" fill-rule="evenodd" clip-rule="evenodd" d="M228.815 445.047C228.775 446.984 227.724 448.203 226.418 448.2C224.666 448.196 223.003 446.774 222.962 445.209C222.936 444.225 223.268 443.322 223.809 442.519C224.77 441.09 225.353 441.067 226.736 442.166C227.818 443.027 228.899 443.842 228.815 445.047" fill="#080909"/><path id="Fill 52" fill-rule="evenodd" clip-rule="evenodd" d="M185.962 357.599C186.034 360.14 183.4 363.004 180.895 363.11C178.371 363.216 176.625 361.217 177.187 358.747C177.75 356.278 179.479 354.708 181.734 353.895C183.723 353.178 185.895 355.212 185.962 357.599" fill="#080909"/><path id="Fill 54" fill-rule="evenodd" clip-rule="evenodd" d="M208.9 420.902C208.813 420.815 208.671 420.751 208.546 420.756C208.418 420.761 208.283 420.804 208.193 420.902C208.103 421 208.046 421.121 208.046 421.256V422.254C208.046 422.381 208.102 422.516 208.193 422.607C208.28 422.694 208.422 422.759 208.546 422.754C208.675 422.748 208.81 422.705 208.9 422.607C208.99 422.509 209.046 422.389 209.046 422.254V421.256C209.046 421.128 208.991 420.993 208.9 420.902" fill="#060606"/><path id="Fill 56" fill-rule="evenodd" clip-rule="evenodd" d="M209.399 427.886C209.312 427.799 209.17 427.735 209.045 427.74C208.916 427.745 208.782 427.788 208.692 427.886C208.602 427.984 208.545 428.105 208.545 428.24V429.072C208.545 429.199 208.601 429.334 208.692 429.425C208.779 429.511 208.92 429.576 209.045 429.572C209.174 429.566 209.309 429.523 209.399 429.425C209.489 429.326 209.545 429.206 209.545 429.072V428.24C209.545 428.112 209.49 427.977 209.399 427.886" fill="#060606"/></g></g></g><g id="Upper"><g id="Upper "><path id="Fill 85" fill-rule="evenodd" clip-rule="evenodd" d="M379.557 171.153C387.073 172.227 394.306 174.308 401.294 177.26C400.499 177.812 400.628 178.655 400.663 179.43C400.845 183.464 400.862 187.51 400.971 191.538C401.15 198.118 402.063 204.635 402.17 211.206C402.177 213.987 402.196 216.768 402.189 219.549C402.166 229.173 402.135 238.797 402.108 248.422C399.964 250.164 397.805 251.881 395.294 253.09C393.391 254.006 391.59 254.123 389.697 252.889C388.174 251.897 386.464 251.191 384.544 251.396C383.562 250.24 382.153 250.121 380.828 250.069C375.251 249.85 369.682 250.084 364.13 250.638C362.656 250.785 362.247 251.236 362.152 252.815C361.958 255.992 361.699 259.169 361.831 262.358C360.976 262.784 360.161 263.247 359.469 263.943C356.333 267.095 356.851 270.814 360.744 272.933C361.359 273.268 362.106 273.443 362.396 274.205C362.833 275.473 363.245 276.75 363.716 278.006C364.169 279.216 364.878 280.248 365.939 281.035C368.353 282.826 377.65 283.499 380.616 281.026C380.733 280.928 380.809 280.78 380.905 280.655C383.835 280.627 386.735 280.704 389.622 279.786C393.709 278.486 397.695 276.942 401.681 275.385C401.706 281.065 401.178 286.716 400.862 292.38C400.702 295.25 400.744 298.132 400.587 301.003C400.321 305.902 400.211 305.632 395.994 306.359C393.316 306.82 390.614 307.086 387.901 307.249C379.689 307.741 371.518 308.893 363.283 308.956C351.778 309.043 340.263 309.265 328.778 308.415C322.907 307.98 317.035 307.356 311.271 306.024C310.245 305.787 309.858 305 309.582 304.184C308.967 302.362 308.643 300.467 308.523 298.548C308.065 291.282 308.221 284.013 308.435 276.742C308.71 267.397 309.509 258.081 309.948 248.745C309.789 248.179 309.964 247.656 310.107 247.11C311.655 241.182 313.286 235.291 315.274 229.48C317.491 222.998 318.073 216.136 319.049 209.38C319.628 205.376 320.233 201.376 320.8 197.37C321.2 194.541 321.767 191.715 321.88 188.872C322.055 184.485 321.905 180.084 321.893 175.689C322.117 174.995 322.76 174.787 323.32 174.537C327.726 172.566 332.175 170.702 336.871 169.515C337.168 169.44 337.491 169.469 337.802 169.45C337.969 170.905 337.206 172.238 337.287 173.698C337.554 178.498 338.5 183.139 340.454 187.543C340.936 188.628 341.362 189.778 342.182 190.671C346.554 195.437 351.569 198.804 358.45 198.07C360.84 197.815 363.105 197.286 365.191 195.951C368.395 193.901 370.858 191.146 373.312 188.297C377.586 183.336 379.078 177.45 379.557 171.153" fill="#747b44"/><g id="Group 89"><path id="SKIN" fill-rule="evenodd" clip-rule="evenodd" d="M258.874 341.809C259.029 341.253 258.892 340.997 258.689 340.943C257.713 340.684 256.713 340.51 255.75 340.97C255.457 341.11 255.35 341.459 255.483 341.781C255.792 342.527 256.46 342.838 257.175 342.789C257.962 342.736 258.683 342.393 258.874 341.809M262.555 340.942C262.403 340.895 262.253 340.842 262.099 340.803C261.479 340.646 260.927 340.788 260.762 341.435C260.599 342.068 261.1 342.46 261.581 342.753C262.486 343.302 263.918 343.103 264.666 342.345C265.005 342.001 265.352 341.598 265.171 341.089C264.953 340.476 264.395 340.694 263.95 340.755C263.486 340.82 263.051 341.098 262.555 340.942M269.144 336.575C269.188 337.367 269.019 338.186 269.364 338.94C269.527 339.297 270.05 339.757 270.222 339.319C270.695 338.11 270.814 336.736 272.347 336.278C272.398 336.263 272.417 335.965 272.369 335.828C272.104 335.078 271.908 334.282 271.51 333.608C270.945 332.651 269.992 332.753 269.492 333.748C269.041 334.647 269.178 335.622 269.144 336.575M261.03 354.3C262.104 351.605 262.83 348.825 263.301 345.978C263.37 345.561 263.167 345.158 262.707 345.093C262.263 345.029 261.973 345.357 261.822 345.741C260.747 348.478 260.112 351.273 261.03 354.3M257.375 345.176C255.792 347.789 255.064 350.816 254.407 353.864C254.32 354.267 254.574 354.696 254.977 354.809C255.426 354.936 255.696 354.551 255.858 354.185C257.051 351.494 258.044 348.746 258.046 345.746C258.047 345.529 258.021 345.259 257.375 345.176M321.893 175.689C321.905 180.084 322.055 184.485 321.88 188.872C321.767 191.715 321.199 194.541 320.799 197.371C320.233 201.376 319.627 205.376 319.049 209.38C318.072 216.136 317.491 222.998 315.273 229.48C313.286 235.291 311.654 241.182 310.107 247.11C309.964 247.656 309.789 248.18 309.948 248.746C308.624 250.682 308.051 252.94 307.324 255.115C302.553 269.384 296.46 283.117 290.245 296.786C287.404 303.034 284.115 309.084 281.429 315.412C280.014 318.743 278.921 322.185 279.394 325.877C279.65 327.876 279.81 329.829 279.361 331.827C278.705 334.749 277.132 337.002 274.447 338.248C271.958 339.402 270.478 341.131 269.52 343.725C267.586 348.962 264.388 353.462 260.512 357.469C259.906 358.095 259.219 358.676 258.482 359.14C255.137 361.245 251.224 359.266 251.025 355.3C250.876 352.33 251.4 349.407 252.185 346.538C252.989 343.603 254.049 340.753 255.28 337.98C258.234 331.325 260.151 324.283 262.995 317.589C264.269 314.591 264.188 311.327 264.67 308.179C267.075 292.452 270.036 276.837 274.03 261.431C277.558 247.822 280.96 234.17 285.459 220.842C288.783 210.995 292.606 201.348 298.318 192.547C301.404 187.792 305.322 184.075 310.284 181.401C314.083 179.353 317.937 177.417 321.893 175.689" fill="#6A4828"/></g><path id="SKIN" fill-rule="evenodd" clip-rule="evenodd" d="M381.991 276.079C382.039 276.685 381.784 277.539 382.66 277.615C383.546 277.691 383.814 276.941 383.833 276.16C383.85 275.403 383.676 274.579 382.835 274.524C381.726 274.451 382.113 275.467 381.991 276.079M381.728 268.14C381.374 269.328 381.531 270.202 381.642 271.062C381.706 271.554 381.993 271.979 382.579 271.961C383.147 271.943 383.447 271.511 383.538 271.037C383.803 269.657 383.077 268.845 381.728 268.14M381.002 262.677C381.158 263.562 381.291 264.254 381.397 264.949C381.466 265.395 381.343 265.981 381.988 266.045C382.503 266.095 382.844 265.694 383.085 265.28C383.648 264.315 383.217 262.833 382.202 262.166C381.923 261.983 381.601 261.901 381.312 262.051C381.004 262.212 380.989 262.55 381.002 262.677M440.514 225.575C438.13 226.037 436.844 227.629 435.249 228.682C434.85 228.945 434.556 229.426 434.929 229.9C435.298 230.373 435.798 230.155 436.212 229.908C437.906 228.894 439.297 227.579 440.514 225.575M364.709 266.128C365.33 266.929 366.08 267.027 366.843 267.201C369.96 267.914 373.154 268.03 376.304 268.494C376.763 268.561 377.367 268.643 377.49 268.031C377.62 267.39 377.031 267.301 376.566 267.23C373.342 266.739 370.118 266.235 366.887 265.795C366.234 265.706 365.499 265.623 364.709 266.128M365.499 269.68C365.599 270.262 365.967 270.398 366.343 270.531C369.037 271.48 371.737 272.416 374.422 273.392C375.782 273.887 377.22 273.919 378.619 274.177C378.782 274.206 379.049 273.995 379.174 273.825C379.355 273.58 379.135 273.374 378.944 273.256C378.609 273.047 378.262 272.83 377.89 272.715C375.543 271.987 373.205 271.211 370.826 270.6C369.102 270.158 367.382 269.527 365.499 269.68M401.68 275.385C397.694 276.942 393.709 278.486 389.622 279.786C386.734 280.704 383.835 280.626 380.904 280.655C376.054 278.958 371.08 277.626 366.338 275.604C365.062 275.06 363.883 274.177 362.395 274.205C362.105 273.442 361.358 273.267 360.743 272.933C356.85 270.814 356.333 267.095 359.469 263.943C360.16 263.247 360.975 262.784 361.831 262.358C363.057 262.001 364.318 261.883 365.587 261.798C371.166 261.425 376.598 260.582 381.617 257.813C385.288 255.788 385.365 255.928 384.597 251.627C384.584 251.549 384.561 251.473 384.544 251.395C386.464 251.19 388.174 251.896 389.696 252.889C391.59 254.123 393.39 254.005 395.294 253.089C397.804 251.881 399.964 250.164 402.107 248.421C403.814 247.401 405.51 246.36 407.23 245.363C415.094 240.808 422.678 235.762 430.962 231.95C431.876 231.529 432.718 230.95 433.837 230.303C431.104 228.659 428.559 227.217 426.104 225.636C418.595 220.8 410.501 216.917 403.264 211.635C402.959 211.412 402.538 211.346 402.17 211.206C402.062 204.635 401.149 198.118 400.97 191.537C400.861 187.51 400.845 183.463 400.663 179.43C400.628 178.655 400.499 177.812 401.294 177.26C402.871 177.582 404.378 178.108 405.769 178.919C422.657 188.764 438.742 199.775 453.927 212.094C457.106 214.674 459.899 217.648 462.7 220.615C467.032 225.204 467.767 232.085 464.771 237.515C463.278 240.22 461.314 242.514 459 244.51C455.123 247.855 451.102 251.025 446.949 254.02C444.207 255.996 441.177 257.463 438.029 258.648C427.461 262.624 417.371 267.639 407.3 272.699C405.445 273.631 403.554 274.492 401.68 275.385" fill="#eedab7"/><path id="SKIN_2" fill-rule="evenodd" clip-rule="evenodd" d="M379.557 171.153C379.078 177.45 377.586 183.336 373.312 188.297C370.858 191.146 368.395 193.901 365.191 195.951C363.105 197.286 360.84 197.815 358.45 198.07C351.569 198.804 346.554 195.437 342.182 190.671C341.362 189.778 340.936 188.628 340.454 187.543C338.5 183.139 337.554 178.498 337.287 173.698C337.206 172.238 337.969 170.905 337.802 169.45C341.821 168.475 344.891 166.31 346.749 162.513C347.463 161.053 347.817 161.321 349.409 161.39C352.507 161.525 355.422 163.219 358.699 162.202C359.744 161.877 360.348 161.507 360.81 160.665C360.961 160.388 361.015 160.06 361.151 159.773C361.535 158.97 362.182 158.585 363.074 158.62C363.977 158.655 364.578 159.155 364.907 159.943C365.181 160.601 365.359 161.303 365.545 161.996C365.707 162.598 366.017 163.02 366.684 163.016C367.794 163.009 368.36 163.644 368.873 164.558C369.51 165.694 370.635 166.385 371.712 167.083C374.196 168.692 376.86 169.954 379.557 171.153" fill="#6A4828"/><path id="Fill 94" fill-rule="evenodd" clip-rule="evenodd" d="M373.89 251.371V251.406C372.214 251.406 370.535 251.344 368.863 251.43C367.919 251.478 366.978 251.729 366.055 251.964C365.584 252.084 365.175 252.422 365.176 252.974C365.176 253.532 365.631 253.777 366.069 253.983C366.282 254.083 366.519 254.142 366.751 254.19C370.871 255.047 374.99 255.065 379.099 254.119C379.562 254.012 380.02 253.848 380.452 253.65C380.9 253.446 381.33 253.111 381.258 252.578C381.193 252.093 380.799 251.733 380.327 251.576C379.955 251.453 379.549 251.384 379.158 251.38C377.402 251.36 375.646 251.371 373.89 251.371M384.544 251.396C384.562 251.474 384.584 251.55 384.598 251.628C385.366 255.929 385.288 255.789 381.618 257.814C376.599 260.583 371.166 261.426 365.587 261.799C364.319 261.884 363.058 262.002 361.831 262.359C361.699 259.17 361.958 255.993 362.152 252.815C362.247 251.237 362.656 250.786 364.13 250.639C369.682 250.085 375.251 249.851 380.828 250.07C382.153 250.121 383.562 250.241 384.544 251.396" fill="#F7F6F5"/><path id="Fill 96" fill-rule="evenodd" clip-rule="evenodd" d="M362.396 274.205C363.883 274.177 365.063 275.06 366.338 275.604C371.081 277.626 376.055 278.958 380.905 280.655C380.809 280.78 380.733 280.928 380.616 281.026C377.65 283.499 368.353 282.826 365.939 281.035C364.878 280.248 364.169 279.215 363.716 278.005C363.246 276.75 362.833 275.473 362.396 274.205" fill="#F8F7F5"/><path id="Fill 98" fill-rule="evenodd" clip-rule="evenodd" d="M257.376 345.176C258.022 345.259 258.048 345.529 258.047 345.746C258.045 348.746 257.052 351.494 255.859 354.186C255.697 354.551 255.427 354.937 254.978 354.81C254.575 354.697 254.321 354.267 254.408 353.864C255.065 350.817 255.793 347.789 257.376 345.176" fill="#0C0804"/><path id="Fill 100" fill-rule="evenodd" clip-rule="evenodd" d="M261.03 354.3C260.113 351.274 260.747 348.479 261.822 345.741C261.973 345.357 262.263 345.029 262.708 345.093C263.167 345.158 263.37 345.562 263.301 345.978C262.83 348.825 262.104 351.606 261.03 354.3" fill="#0C0804"/><path id="Fill 102" fill-rule="evenodd" clip-rule="evenodd" d="M269.145 336.575C269.178 335.622 269.041 334.647 269.493 333.749C269.992 332.754 270.946 332.652 271.51 333.608C271.908 334.283 272.105 335.078 272.37 335.828C272.418 335.965 272.398 336.263 272.348 336.278C270.815 336.737 270.696 338.111 270.222 339.319C270.051 339.757 269.528 339.298 269.364 338.94C269.019 338.186 269.188 337.367 269.145 336.575" fill="#0E0905"/><path id="Fill 104" fill-rule="evenodd" clip-rule="evenodd" d="M262.556 340.942C263.052 341.098 263.487 340.82 263.951 340.755C264.396 340.694 264.954 340.476 265.172 341.089C265.353 341.598 265.006 342.002 264.666 342.345C263.919 343.103 262.487 343.302 261.582 342.753C261.1 342.461 260.6 342.068 260.763 341.435C260.928 340.789 261.48 340.646 262.1 340.803C262.254 340.842 262.404 340.896 262.556 340.942" fill="#0C0804"/><path id="Fill 106" fill-rule="evenodd" clip-rule="evenodd" d="M258.874 341.809C258.683 342.393 257.962 342.736 257.175 342.789C256.46 342.838 255.792 342.527 255.483 341.781C255.35 341.459 255.457 341.11 255.75 340.97C256.713 340.51 257.713 340.684 258.689 340.943C258.892 340.997 259.029 341.253 258.874 341.809" fill="#0C0804"/><path id="Fill 108" fill-rule="evenodd" clip-rule="evenodd" d="M365.499 269.68C367.382 269.527 369.103 270.158 370.826 270.6C373.205 271.211 375.543 271.987 377.891 272.715C378.263 272.83 378.609 273.047 378.944 273.256C379.135 273.374 379.355 273.58 379.174 273.825C379.049 273.994 378.782 274.206 378.619 274.177C377.221 273.919 375.782 273.887 374.422 273.392C371.737 272.416 369.037 271.48 366.343 270.531C365.967 270.398 365.6 270.262 365.499 269.68" fill="#0D0805"/><path id="Fill 110" fill-rule="evenodd" clip-rule="evenodd" d="M364.709 266.129C365.499 265.624 366.234 265.707 366.887 265.796C370.118 266.236 373.342 266.739 376.566 267.231C377.031 267.302 377.62 267.39 377.49 268.031C377.367 268.644 376.764 268.562 376.304 268.494C373.154 268.03 369.96 267.915 366.843 267.202C366.08 267.027 365.33 266.93 364.709 266.129" fill="#0E0905"/><path id="Fill 112" fill-rule="evenodd" clip-rule="evenodd" d="M440.515 225.575C439.297 227.579 437.907 228.894 436.212 229.908C435.798 230.156 435.298 230.373 434.929 229.901C434.557 229.426 434.851 228.946 435.249 228.682C436.844 227.63 438.13 226.037 440.515 225.575" fill="#0E0A05"/><path id="Fill 114" fill-rule="evenodd" clip-rule="evenodd" d="M381.002 262.678C380.989 262.551 381.004 262.213 381.313 262.052C381.602 261.902 381.923 261.984 382.202 262.167C383.217 262.834 383.648 264.316 383.085 265.281C382.844 265.695 382.503 266.096 381.988 266.046C381.343 265.982 381.466 265.396 381.398 264.95C381.291 264.255 381.158 263.563 381.002 262.678" fill="#080603"/><path id="Fill 116" fill-rule="evenodd" clip-rule="evenodd" d="M381.729 268.141C383.078 268.846 383.803 269.658 383.539 271.038C383.448 271.512 383.148 271.944 382.58 271.962C381.994 271.98 381.707 271.555 381.643 271.063C381.532 270.203 381.375 269.329 381.729 268.141" fill="#0C0804"/><path id="Fill 118" fill-rule="evenodd" clip-rule="evenodd" d="M381.991 276.079C382.113 275.467 381.726 274.451 382.835 274.524C383.676 274.579 383.85 275.403 383.833 276.16C383.814 276.941 383.546 277.691 382.66 277.615C381.784 277.539 382.039 276.685 381.991 276.079" fill="#160F08"/><path id="Fill 120" fill-rule="evenodd" clip-rule="evenodd" d="M373.89 251.371C375.646 251.371 377.402 251.36 379.158 251.38C379.549 251.384 379.955 251.453 380.327 251.576C380.799 251.733 381.193 252.093 381.258 252.578C381.33 253.111 380.9 253.446 380.452 253.65C380.02 253.848 379.562 254.012 379.099 254.119C374.99 255.065 370.871 255.047 366.751 254.19C366.519 254.142 366.282 254.083 366.069 253.983C365.631 253.777 365.176 253.532 365.176 252.974C365.175 252.422 365.584 252.084 366.055 251.964C366.978 251.729 367.919 251.478 368.863 251.43C370.535 251.344 372.214 251.406 373.89 251.406V251.371Z" fill="#0B0B0B"/><path id="Fill 122" fill-rule="evenodd" clip-rule="evenodd" d="M394.467 305.828C384.497 306.809 374.511 307.418 364.519 307.644C354.482 307.871 344.44 307.716 334.407 307.177C328.761 306.874 323.118 306.447 317.48 305.904C316.756 305.834 316.759 307.486 317.48 307.556C327.451 308.517 337.439 309.107 347.43 309.313C357.468 309.521 367.51 309.345 377.542 308.787C383.188 308.473 388.83 308.035 394.467 307.48C395.187 307.41 395.193 305.757 394.467 305.828" fill="#020202"/></g></g><g id="Facial Hair" transform="translate(326 114) scale(66 62)"><g id="Facial Hair/None" stroke="none" stroke-width="1" fill="none" fill-rule="evenodd" fill-opacity="0"/></g><g id="Accessories" transform="translate(312 66) scale(1 1)"><g id="Accessories/Glasses"><path id="Accesories" fill-rule="evenodd" clip-rule="evenodd" d="M48.8649 47.6211C49.4694 51.5343 50.1676 55.3745 51.6947 58.9888C52.6004 61.1334 54.4019 62.3611 56.713 62.5581C59.088 62.7621 60.9333 61.5913 62.0893 59.6087C64.1361 56.0994 65.1665 52.2671 65.2274 48.181C65.2453 47.0452 64.8274 46.3093 63.6923 46.1344C62.3566 45.9284 61.0141 45.7045 59.6675 45.6555C55.9808 45.5235 52.365 45.8744 48.8649 47.6211M21.6091 48.6479C22.1538 52.4451 22.8241 56.1934 24.429 59.6977C25.2818 61.5603 26.6902 62.981 28.5186 63.9088C31.3684 65.3535 34.4026 64.6177 36.0844 62.0342C38.4214 58.4419 39.371 54.4637 39.0478 50.1976C38.8962 48.202 38.7077 47.83 36.6799 47.5041C33.6286 47.0132 30.5365 46.6633 27.4493 46.5333C25.3596 46.4453 23.4305 47.3151 21.6091 48.6479M41.0757 46.3813C42.5719 46.2263 44.3823 46.0674 46.1837 45.8374C46.7882 45.7614 47.3956 45.5635 47.9582 45.3205C53.8822 42.758 59.9109 42.1971 66.1111 44.2457C66.6847 44.4347 67.349 44.4597 67.9594 44.4077C69.8626 44.2427 71.7568 43.9798 73.6599 43.8058C74.431 43.7348 75.212 43.7938 76 43.7938C75.9003 45.7704 75.7606 46.0144 74.2784 46.2213C72.2366 46.5073 70.1808 46.7033 67.9135 46.9622C67.8507 47.825 67.7579 48.5969 67.748 49.3687C67.6951 53.137 66.531 56.5983 64.8044 59.8826C63.1107 63.103 60.4864 65.0306 56.7539 64.9066C53.172 64.7867 50.0778 62.2572 48.9687 58.4749C48.1388 55.6505 47.5971 52.7371 47.0106 49.8456C46.6126 47.89 46.3313 47.5991 44.3364 47.743C43.9404 47.771 43.5404 47.824 43.1554 47.919C42.6228 48.052 42.1041 48.2359 41.4308 48.4439C41.4308 49.7347 41.4059 50.9984 41.4348 52.2611C41.5216 56.1574 40.2249 59.6467 38.2259 62.89C35.7223 66.9522 31.2008 68.132 27.0034 65.8504C24.4589 64.4677 22.5358 62.4071 21.659 59.6447C20.8171 56.9962 20.3124 54.2378 19.688 51.5213C19.5145 50.7694 19.4357 49.9956 19.313 49.2248C17.1096 49.2058 15.3101 51.1024 13 49.6277C13.7641 49.1568 14.4852 48.5859 15.3002 48.2339C17.8557 47.1302 20.4052 45.9874 23.0375 45.0996C24.82 44.4977 26.7281 44.0558 28.5964 43.9858C30.8068 43.9028 33.068 44.1268 35.2465 44.5387C37.1646 44.9006 38.998 45.7045 41.0757 46.3813" fill="black"/></g></g></g></g></svg>