<svg viewBox="169.4122807017543 93.60000000000002 226.40350877192975 390" fill="none" xmlns="http://www.w3.org/2000/svg" xmlns:xlink="http://www.w3.org/1999/xlink" overflow="visible" width="226.40350877192975px" height="390px"><g id="Master/Character/Torso"><g id="Head" transform="translate(189 91) scale(1.52 1.5299145299145298)"><g id="Head/Bun"><g id="Head"><path id="SKIN" fill-rule="evenodd" clip-rule="evenodd" d="M92.3246 53.1185C92.3256 53.5975 92.3706 54.0825 92.3176 54.5555C92.1036 56.4855 92.1386 57.8975 94.3376 59.1725C97.7946 61.1785 97.3246 66.2745 93.4806 68.2145C91.0946 69.4195 90.5546 71.0155 90.0846 73.3295C88.7396 79.9265 86.4606 86.2395 83.3846 92.2435C81.9426 95.0565 79.8966 97.4185 77.5206 99.4605C76.0956 100.686 75.2256 102.015 75.3046 103.961C75.3696 105.554 75.0566 107.176 75.2386 108.747C75.6326 112.16 73.5866 114.337 70.5786 115.047C65.5956 116.223 60.4996 116.783 55.3606 115.997C53.7836 115.757 52.2106 115.515 50.7116 114.892C49.9066 114.559 49.6166 114.226 49.8346 113.296C50.4936 110.495 50.9766 107.658 51.1736 104.781C51.2116 104.223 51.2516 103.665 51.3006 103.108C51.5806 99.8985 50.6266 97.4475 47.6186 95.7405C44.1926 93.7955 41.8996 90.6245 40.0886 87.2075C37.4286 82.1915 35.0906 77.0345 33.9326 71.4065C33.4626 69.1245 33.1316 66.8355 32.9926 64.5275C32.7026 59.6655 32.0576 54.8165 32.5666 49.9245C33.3666 42.2255 37.0916 36.1325 43.0866 31.5115C49.0756 26.8945 55.9016 23.8775 63.5156 23.3755C69.2006 23.0005 74.8596 23.6315 80.1666 26.0285C83.2616 27.4275 85.5926 29.6395 87.2066 32.6295C90.6566 39.0255 92.2856 45.8725 92.3246 53.1185" fill="#b69865"/></g><g id="Group 6"><g id="Group 3"><path id="Fill 1" fill-rule="evenodd" clip-rule="evenodd" d="M55.0725 18.7477C55.1065 19.0157 55.1405 19.2827 55.1745 19.5497C60.9535 19.5497 66.7305 19.5587 72.5095 19.5277C72.8425 19.5257 73.1735 19.1977 73.5335 19.0067C72.2665 17.6727 72.2735 17.5187 68.7575 17.3697C64.1355 17.1737 59.5095 17.3087 55.0725 18.7477M76.4905 19.0927C79.9855 21.5207 83.4085 23.4977 86.3525 26.0307C92.0545 30.9357 95.8335 37.0537 96.2945 44.7857C96.4795 47.8907 96.4265 51.0167 96.3505 54.1297C96.3195 55.3907 96.0335 56.6707 95.6825 57.8907C95.4045 58.8607 94.8435 59.5717 93.5465 59.0547C92.2555 58.5397 91.4985 59.5187 90.7335 60.3647C89.0775 62.1977 88.5365 62.2767 86.4895 60.9487C82.9265 58.6337 80.2845 55.3927 77.9745 51.9347C74.5585 46.8217 70.9455 41.8117 68.4205 36.1547C67.5105 34.1207 66.6255 32.0757 65.7095 29.9877C58.0665 43.5447 46.1095 52.4837 33.2235 60.4177C32.6605 60.7647 31.9185 60.8207 31.2665 61.0097C27.0105 47.6437 33.2395 25.9557 53.6205 19.4137C51.0735 14.9577 51.5475 11.6977 55.5055 8.22072C59.6605 4.57072 64.3435 2.90372 69.9035 4.77172C75.0475 6.50072 78.8555 13.4997 76.6535 18.3717C76.5285 18.6477 76.5155 18.9757 76.4905 19.0927" fill="#a13c29"/></g><path id="Fill 4" fill-rule="evenodd" clip-rule="evenodd" d="M55.0728 18.7477C59.5098 17.3087 64.1358 17.1737 68.7578 17.3697C72.2738 17.5187 72.2668 17.6727 73.5338 19.0067C73.1738 19.1977 72.8428 19.5257 72.5098 19.5277C66.7308 19.5587 60.9538 19.5497 55.1748 19.5497C55.1408 19.2827 55.1068 19.0157 55.0728 18.7477" fill="white"/></g></g></g><g id="Expression" transform="translate(234 153) scale(1.515625 1.536231884057971)"><g id="Expression/Happy 2"><g id="Group 26"><g id="Group 5"><path id="Fill 3" fill-rule="evenodd" clip-rule="evenodd" d="M52.6674 11.291C52.0964 11.705 51.4274 11.657 50.8144 11.566C47.1994 11.025 43.8554 11.993 40.5654 13.318C39.7534 13.645 38.9434 13.95 38.0324 13.955C37.0754 13.959 36.3224 13.574 35.6944 12.929C34.8914 12.103 34.8804 11.003 35.8914 10.494C38.7494 9.05601 41.7454 7.92001 45.0214 8.00401C47.8204 8.07601 50.2564 9.22201 52.4794 10.858C52.5874 10.938 52.6054 11.142 52.6674 11.291" fill="black"/></g><path id="Fill 6" fill-rule="evenodd" clip-rule="evenodd" d="M19.6013 10.4521C20.6013 10.3751 21.6673 10.6131 22.6393 11.2501C23.5453 11.8451 23.8393 12.6781 23.6883 13.7251C23.5453 14.7241 22.7343 14.9621 21.9833 15.1601C21.3833 15.3171 20.7074 15.3561 20.0934 15.2631C17.1054 14.8071 14.2284 15.3751 11.3514 16.0671C10.5454 16.2611 9.48135 16.8971 8.97135 15.9051C8.47235 14.9351 9.57935 14.3931 10.1984 13.8441C12.4154 11.8751 16.3163 10.4741 19.6013 10.4521" fill="black"/><g id="Group 10"><path id="Fill 8" fill-rule="evenodd" clip-rule="evenodd" d="M21.2827 58.2577C25.1057 59.0247 28.1707 60.6057 31.5867 61.0427C34.9547 61.4727 38.1527 60.4787 41.6427 60.2817C40.8697 61.5787 39.8037 61.9747 38.7657 62.2297C32.7757 63.7027 27.2227 62.4537 22.0047 59.3567C21.8287 59.2527 21.7507 58.9847 21.2827 58.2577" fill="black"/></g><path id="Fill 11" fill-rule="evenodd" clip-rule="evenodd" d="M52.8315 21.2558C49.9155 21.0558 47.6035 20.1378 45.1965 20.6098C42.8575 21.0668 40.8365 22.4898 38.5485 22.9078C38.2725 22.6028 38.2445 22.3228 38.4285 22.1838C41.0615 20.1868 43.8175 18.4868 47.2905 18.4458C49.4125 18.4208 51.1395 19.1468 52.8315 21.2558" fill="black"/><path id="Fill 13" fill-rule="evenodd" clip-rule="evenodd" d="M23.9062 24.1054C21.6462 23.3934 19.4012 22.6434 17.0262 22.5924C14.6692 22.5424 12.7102 24.0384 10.3452 24.5444C13.5762 19.8014 20.8312 19.4934 23.9062 24.1054" fill="black"/><path id="Fill 15" fill-rule="evenodd" clip-rule="evenodd" d="M37.5002 32.6529C36.0082 35.2409 31.6132 36.5159 29.2982 35.1569C28.4792 34.6759 27.9952 33.9299 28.0132 33.0009C28.0372 31.7399 28.2662 30.5029 29.1382 29.3029C29.8632 30.1909 29.5342 31.0559 29.5342 31.8649C29.5342 33.5659 29.8942 33.9649 31.6252 34.0279C32.9912 34.0779 34.3162 33.8799 35.5792 33.2879C36.1312 33.0279 36.5962 32.4919 37.5002 32.6529" fill="black"/><path id="Fill 17" fill-rule="evenodd" clip-rule="evenodd" d="M29.5084 23.4399C27.7584 21.1509 27.4554 18.5039 27.2244 15.8439C27.1894 15.4479 27.3284 14.9679 27.7304 14.8569C28.2964 14.7009 28.5954 15.1999 28.7634 15.6279C29.7514 18.1499 30.0484 20.7529 29.5084 23.4399" fill="black"/><path id="Fill 19" fill-rule="evenodd" clip-rule="evenodd" d="M10.54 26.749C10.041 27.829 9.269 28.404 8.352 28.7C7.682 28.916 6.809 29.237 7.451 27.773C8.035 26.439 6.153 27.395 6 26.477C7.519 24.699 8.94 26.689 10.54 26.749" fill="black"/><g id="Group 23"><path id="Fill 21" fill-rule="evenodd" clip-rule="evenodd" d="M57.223 20.4164C57.036 21.3854 55.962 21.2764 55.476 21.8614C54.827 22.6424 56.136 22.9964 55.999 23.7144C54.084 23.3854 54.037 23.3114 54.369 21.3174C54.521 20.4074 55.358 20.1394 57.223 20.4164" fill="black"/></g></g><path id="Fill 24" fill-rule="evenodd" clip-rule="evenodd" d="M42.5981 41.5287C36.9751 43.8417 31.1361 46.1807 25.8861 44.1957C25.2781 43.9657 24.9601 45.7157 25.5641 45.9437C30.8941 47.9597 36.8391 45.6107 42.5481 43.2617C43.2091 42.9907 43.2661 41.2537 42.5981 41.5287" fill="black"/></g></g><g id="Upper Body" transform="translate(-126 71) scale(1.529832935560859 1.5298329985339965)"><g id="Upper Body/Folded Arms 1"><g id="Group 36"><g id="Group 3"><path id="Fill 1" fill-rule="evenodd" clip-rule="evenodd" d="M219.815 262.298C219.472 261.07 219.16 259.822 218.974 258.562C217.312 247.298 216.964 235.969 217.362 224.606C217.368 224.446 217.386 224.286 217.389 224.127C217.429 222.38 217.426 222.344 215.724 222.445C212.284 222.649 208.857 222.71 205.448 222.047C201.35 221.251 198.327 219.323 196.668 215.199C194.835 210.641 194.883 206.002 195.113 201.278C195.774 187.716 198.766 174.545 201.779 161.378C203.118 155.53 205.64 150.278 209.289 145.469C214.181 139.023 220.71 135.009 228.146 132.439C236.145 129.674 244.29 127.33 252.36 124.768C253.586 124.38 254.68 124.395 255.786 125.091C256.46 125.514 257.216 125.803 257.918 126.184C264.17 129.57 270.516 129.11 276.909 126.654C278.122 126.188 279.096 125.338 280.11 124.562C280.925 123.939 281.56 123.801 282.664 124.313C290.707 128.043 298.705 131.852 306.474 136.137C309.269 137.679 312.21 138.944 314.922 140.66C322.34 145.355 327.54 151.944 330.939 159.899C334.962 169.311 336.322 179.217 335.856 189.445C335.538 196.42 334.681 203.293 333.164 210.096C332.019 215.235 329.644 219.857 327.026 224.349C325.662 226.691 323.491 228.231 320.97 229.23C320.303 229.495 319.6 229.666 318.924 229.911C317.806 230.317 316.357 230.142 315.573 231.007C314.706 231.963 315.116 233.45 314.929 234.698C314.035 240.623 313.172 246.552 312.316 252.482C312.043 254.38 311.808 256.284 311.584 258.189C311.217 261.3 311.183 261.343 308.131 261.511C307.891 261.525 307.651 261.52 307.413 261.524C305.084 260.896 302.699 260.922 300.316 260.931C292.638 260.964 284.959 260.987 277.28 261.035C271.601 261.07 265.916 260.6 260.248 261.055C253.47 261.598 246.671 261.448 239.886 261.832C235.335 262.09 230.808 262.541 226.276 262.954C224.888 263.081 223.378 263.037 222.118 263.889C220.853 264.078 220.128 263.417 219.815 262.298Z" fill="#4A448C"/></g><path id="Fill 4" fill-rule="evenodd" clip-rule="evenodd" d="M222.118 263.89C223.379 263.038 224.889 263.082 226.277 262.955C230.808 262.541 235.335 262.09 239.887 261.832C246.672 261.449 253.47 261.599 260.248 261.056C265.916 260.6 271.602 261.071 277.281 261.036C284.959 260.988 292.638 260.964 300.317 260.932C302.7 260.922 305.084 260.897 307.413 261.524C307.769 261.875 307.864 262.236 307.254 262.33C306.072 262.514 304.88 262.713 303.688 262.744C296.254 262.938 288.819 263.121 281.383 263.242C275.227 263.342 269.059 263.148 262.914 263.453C256.124 263.79 249.338 264.215 242.54 264.228C236.94 264.239 231.35 264.473 225.757 264.631C224.511 264.666 223.193 264.808 222.118 263.89" fill="#0F0F0D"/><path id="Fill 6" fill-rule="evenodd" clip-rule="evenodd" d="M292.121 201.649C285.614 203.437 279.078 205.123 272.611 207.04C266.215 208.936 259.889 211.065 253.514 213.339C263.195 218.245 273.422 221.397 283.852 223.993C294.309 226.596 304.972 227.88 315.709 229.076C314.56 229.883 313.287 230.018 311.991 230.104C308.699 230.322 305.448 229.834 302.194 229.499C296.632 228.925 291.188 227.598 285.665 226.766C283.682 226.467 281.789 225.822 279.864 225.296C273.242 223.49 266.528 221.976 260.226 219.145C257.168 217.771 254.075 216.462 251.174 214.771C250.239 214.225 249.423 214.268 248.449 214.572C240.451 217.077 232.287 219.035 224.389 221.885C222.747 222.478 220.982 222.73 219.271 223.127C218.806 223.235 218.219 223.372 218.08 222.75C217.95 222.168 218.538 221.982 218.969 221.809C221.565 220.765 224.223 219.899 226.919 219.154C238.162 216.048 249.25 212.446 260.344 208.854C267.18 206.641 273.963 204.235 280.982 202.625C283.315 202.089 285.656 201.584 288.007 201.127C289.321 200.871 290.658 200.807 291.975 201.026C292.023 201.234 292.072 201.441 292.121 201.649" fill="#090A05"/><path id="SKIN" fill-rule="evenodd" clip-rule="evenodd" d="M302.932 190.849C303.005 191.886 303.931 191.991 304.605 192.318C306.685 193.326 308.588 194.581 310.465 195.936C312.428 197.353 313.623 199.2 314.453 201.38C314.413 201.541 314.375 201.702 314.336 201.864C312.108 201.856 309.873 201.752 307.651 201.863C303.588 202.068 299.568 201.486 295.526 201.342C293.785 201.28 293.024 200.743 292.675 199.04C292.185 196.647 291.282 194.326 291.375 191.813C291.411 190.857 291.77 190.386 292.667 190.127C294.006 189.741 295.31 189.838 296.666 190.035C298.462 190.296 300.212 190.915 302.061 190.786C302.351 190.807 302.641 190.828 302.932 190.849" fill="#694827"/><path id="SKIN_2" fill-rule="evenodd" clip-rule="evenodd" d="M220.239 188.59C221.935 186.918 223.98 185.756 226.017 184.568C227.021 183.982 228.13 183.485 228.78 182.426C229.527 182.687 229.76 181.937 230.243 181.677C231.007 181.477 231.803 181.358 232.53 181.064C235.826 179.727 239.054 180.137 242.257 181.366C245.751 182.707 245.743 182.714 243.256 185.448C242.507 186.271 241.836 187.151 241.498 188.235C241.355 188.431 241.212 188.629 241.068 188.827C240.421 189.153 239.76 189.361 239.011 189.353C233.278 189.296 227.569 190.125 221.828 189.84C221.564 189.085 220.808 188.956 220.239 188.59" fill="#694827"/><path id="Fill 12" fill-rule="evenodd" clip-rule="evenodd" d="M240.674 132.815C241.431 132.845 241.648 133.416 241.997 133.836C244.172 136.453 246.781 138.505 249.828 140.041C259.191 144.759 268.925 145.465 278.955 142.741C282.054 141.899 284.923 140.471 287.614 138.702C289.261 137.62 290.982 136.683 293.122 135.86C292.883 137.097 292.288 137.573 291.674 138.054C285.118 143.187 277.774 145.929 269.362 146.237C262.114 146.502 255.423 145.028 249.046 141.69C245.993 140.092 243.652 137.724 241.499 135.132C240.978 134.505 240.348 133.799 240.674 132.815" fill="#0B0B06"/><path id="Fill 14" fill-rule="evenodd" clip-rule="evenodd" d="M241.068 188.827C241.212 188.629 241.355 188.431 241.498 188.235C244.102 187.821 246.724 187.587 249.358 187.48C252.948 187.333 256.546 187.234 260.13 187.219C266.19 187.191 272.258 187.399 278.292 188.119C280.827 188.421 283.364 188.686 285.845 189.324C286.68 189.538 287.545 189.655 288.396 190.324C287.546 190.991 286.662 190.766 285.869 190.704C280.777 190.302 275.695 189.774 270.599 189.443C267.094 189.216 263.572 189.281 260.061 189.145C254.552 188.932 249.052 189.348 243.547 189.304C242.709 189.297 241.768 189.631 241.068 188.827" fill="#090A05"/><path id="Fill 16" fill-rule="evenodd" clip-rule="evenodd" d="M302.931 190.849C302.64 190.828 302.35 190.807 302.06 190.786C301.494 186.892 302.576 183.291 303.872 179.307C304.474 180.18 304.344 180.734 304.309 181.233C304.143 183.622 303.972 186.012 303.736 188.394C303.651 189.251 303.573 190.155 302.931 190.849" fill="#0B0B06"/><path id="Fill 18" fill-rule="evenodd" clip-rule="evenodd" d="M230.243 181.677C229.76 181.937 229.527 182.687 228.78 182.426C228.628 179.946 229.534 177.594 229.659 175.144C229.715 174.045 229.98 172.957 230.162 171.793C231.252 173.345 231.261 177.586 230.243 181.677" fill="#0F0F0D"/><path id="Fill 20" fill-rule="evenodd" clip-rule="evenodd" d="M314.336 201.864C314.375 201.702 314.413 201.541 314.452 201.38C317.834 201.256 321.133 202.141 323.332 203.766C323.103 204.38 322.545 204.235 322.144 204.171C319.444 203.741 316.675 203.522 314.336 201.864" fill="#0F0F0D"/><path id="Fill 22" fill-rule="evenodd" clip-rule="evenodd" d="M220.239 188.59C220.808 188.956 221.564 189.085 221.828 189.84C219.15 190.806 216.691 189.715 214.198 189C214.04 188.954 213.858 188.629 213.865 188.441C213.88 188.066 214.206 187.966 214.545 187.937C216.488 187.769 218.339 188.388 220.239 188.59" fill="#0F0F0D"/><path id="Fill 24" fill-rule="evenodd" clip-rule="evenodd" d="M253.861 136.117C253.851 133.89 255.203 132.638 256.342 131.289C256.546 131.048 256.886 130.955 257.209 131.142C257.598 131.367 257.809 131.747 257.615 132.14C256.813 133.765 255.896 135.303 253.861 136.117" fill="#0F0F0D"/><path id="Fill 26" fill-rule="evenodd" clip-rule="evenodd" d="M277.871 138.059C275.768 136.749 274.899 135.248 274.6 133.372C274.55 133.056 274.628 132.725 274.958 132.572C275.312 132.409 275.61 132.632 275.784 132.878C276.781 134.286 277.761 135.709 277.871 138.059" fill="#0B0B06"/><path id="Fill 28" fill-rule="evenodd" clip-rule="evenodd" d="M261.691 138.989C260.623 137.29 260.676 134.759 261.635 133.742C261.868 133.495 262.155 133.39 262.479 133.541C262.882 133.729 263.036 134.089 263.035 134.505C263.032 136.032 262.641 137.446 261.691 138.989" fill="#0F0F0D"/><path id="Fill 30" fill-rule="evenodd" clip-rule="evenodd" d="M284.723 133.634C284.675 134.302 284.276 134.509 283.755 134.186C282.428 133.36 281.447 132.219 281.036 130.678C280.917 130.231 281.187 129.875 281.677 129.915C282.664 129.995 284.739 132.566 284.723 133.634" fill="#0F0F0D"/><path id="Fill 32" fill-rule="evenodd" clip-rule="evenodd" d="M247.997 131.274C249.294 129.4 250.677 128.541 252.279 127.993C252.66 127.862 253.105 127.916 253.331 128.316C253.56 128.722 253.381 129.127 253.037 129.362C251.668 130.299 250.268 131.184 247.997 131.274" fill="#0F0F0D"/><path id="Fill 34" fill-rule="evenodd" clip-rule="evenodd" d="M269.662 139.591C268.06 137.996 267.949 136.276 268.312 134.445C268.37 134.151 268.576 133.813 268.967 133.917C269.158 133.968 269.412 134.182 269.448 134.361C269.776 136.003 270.474 137.641 269.662 139.591" fill="#0B0B06"/></g></g></g><g id="Facial Hair" transform="translate(236 180) scale(101 95)"><g id="Facial Hair/None" stroke="none" stroke-width="1" fill="none" fill-rule="evenodd" fill-opacity="0"/></g><g id="Accessories" transform="translate(216 108) scale(1.5222222222222221 1.5268817204301075)"><g id="Accessories/Shades"><path id="Accesories" fill-rule="evenodd" clip-rule="evenodd" d="M48.8649 47.6211C49.4694 51.5343 50.1676 55.3745 51.6947 58.9888C52.6004 61.1334 54.4019 62.3611 56.713 62.5581C59.088 62.7621 60.9333 61.5913 62.0893 59.6087C64.1361 56.0994 65.1665 52.2671 65.2274 48.181C65.2453 47.0452 64.8274 46.3093 63.6923 46.1344C62.3566 45.9284 61.0141 45.7045 59.6675 45.6555C55.9808 45.5235 52.365 45.8744 48.8649 47.6211M21.6091 48.6479C22.1538 52.4451 22.8241 56.1934 24.429 59.6977C25.2818 61.5603 26.6902 62.981 28.5186 63.9088C31.3684 65.3535 34.4026 64.6177 36.0844 62.0342C38.4214 58.4419 39.371 54.4637 39.0478 50.1976C38.8962 48.202 38.7077 47.83 36.6799 47.5041C33.6286 47.0132 30.5365 46.6633 27.4493 46.5333C25.3596 46.4453 23.4305 47.3151 21.6091 48.6479M41.0757 46.3813C42.5719 46.2263 44.3823 46.0674 46.1837 45.8374C46.7882 45.7614 47.3956 45.5635 47.9582 45.3205C53.8822 42.758 59.9109 42.1971 66.1111 44.2457C66.6847 44.4347 67.349 44.4597 67.9594 44.4077C69.8626 44.2427 71.7568 43.9798 73.6599 43.8058C74.431 43.7348 75.212 43.7938 76 43.7938C75.9003 45.7704 75.7606 46.0144 74.2784 46.2213C72.2366 46.5073 70.1808 46.7033 67.9135 46.9622C67.8507 47.825 67.7579 48.5969 67.748 49.3687C67.6951 53.137 66.531 56.5983 64.8044 59.8826C63.1107 63.103 60.4864 65.0306 56.7539 64.9066C53.172 64.7867 50.0778 62.2572 48.9687 58.4749C48.1388 55.6505 47.5971 52.7371 47.0106 49.8456C46.6126 47.89 46.3313 47.5991 44.3364 47.743C43.9404 47.771 43.5404 47.824 43.1554 47.919C42.6228 48.052 42.1041 48.2359 41.4308 48.4439C41.4308 49.7347 41.4059 50.9984 41.4348 52.2611C41.5216 56.1574 40.2249 59.6467 38.2259 62.89C35.7223 66.9522 31.2008 68.132 27.0034 65.8504C24.4589 64.4677 22.5358 62.4071 21.659 59.6447C20.8171 56.9962 20.3124 54.2378 19.688 51.5213C19.5145 50.7694 19.4357 49.9956 19.313 49.2248C17.1096 49.2058 15.3101 51.1024 13 49.6277C13.7641 49.1568 14.4852 48.5859 15.3002 48.2339C17.8557 47.1302 20.4052 45.9874 23.0375 45.0996C24.82 44.4977 26.7281 44.0558 28.5964 43.9858C30.8068 43.9028 33.068 44.1268 35.2465 44.5387C37.1646 44.9006 38.998 45.7045 41.0757 46.3813" fill="black"/><path id="Path 2" fill-rule="evenodd" clip-rule="evenodd" d="M20 47.4806C20 47.4806 29.6708 42.5194 40 47.4806C40 47.4806 39.5683 65.208 31.291 65.9709C23.0137 66.7337 20 47.4806 20 47.4806Z" fill="black"/><path id="Path 3" fill-rule="evenodd" clip-rule="evenodd" d="M48 46.412C48 46.412 57.6681 42.0993 67 45.4978C67 45.4978 65.7301 63.1037 58.179 63.9618C50.6278 64.8199 48 46.412 48 46.412Z" fill="black"/></g></g></g></svg>