<svg viewBox="114.74999999999989 114.74999999999989 841.5000000000002 816.0000000000001" xmlns="http://www.w3.org/2000/svg" xmlns:xlink="http://www.w3.org/1999/xlink" overflow="visible" width="841.5000000000002px" height="816.0000000000001px"><defs><polygon id="masterspot-illustrationplanning-path-1" points="0.6017 0.148 107.7217 0.148 107.7217 265 0.6017 265"/><polygon id="masterspot-illustrationplanning-path-3" points="0.302904145 0.494 189.197939 0.494 189.197939 192.743236 0.302904145 192.743236"/></defs><g id="Master/Spot Illustration/Planning" stroke="none" stroke-width="1" fill="none" fill-rule="evenodd"><g id="Planning" transform="translate(25.000000, 63.000000) scale(1 1)"><defs><polygon id="planningorganizer-path-1" points="0 0.4389 619.6408 0.4389 619.6408 503.3349 0 503.3349"/><polygon id="planningorganizer-path-3" points="0.749994555 0.451650553 685.027 0.451650553 685.027 544 0.749994555 544"/></defs><g id="Planning/Organizer" stroke="none" stroke-width="1" fill="none" fill-rule="evenodd"><g id="Group-27" transform="translate(569.000000, 417.500000) scale(-1, 1) translate(-569.000000, -417.500000) translate(211.000000, 68.000000)"><g id="Group-3" transform="translate(0.000000, 142.785000)"><mask id="planningorganizer-mask-2" fill="#ffffff"><use xlink:href="#planningorganizer-path-1" fill="#ffffff"/></mask><g id="Clip-2"/><path d="M0.3908,486.5739 C0.3908,486.5739 0.4398,502.6999 11.6308,503.1389 C22.8208,503.5799 68.1208,503.1389 68.1208,503.1389 L619.6408,254.0649 L619.6408,0.4389 L0.0418,0.4389 C-0.1522,153.4699 0.3908,486.5739 0.3908,486.5739" id="Fill-1" fill="#70A0E6" mask="url(#planningorganizer-mask-2)"/></g><path d="M593.0314,46.0269 C563.7844,46.6859 23.2604,49.1049 23.2604,49.1049 C23.2604,49.1049 1.2704,46.8339 0.3904,68.6399 C0.2024,73.3019 0.0954,101.6119 0.0424,143.2239 L619.6404,143.2239 L619.6404,72.8549 C619.6404,72.8549 622.2794,45.3669 593.0314,46.0269" id="Fill-4" fill="#FF0048"/><path d="M88.7077,101.3501 L88.6877,101.0751 C88.3527,96.4831 91.3557,92.3581 95.7967,91.1401 C107.2117,88.0121 126.5207,78.2761 125.2467,48.2611 C124.3577,27.3591 109.2407,19.7561 96.5647,19.5971 C82.1557,19.4321 67.0877,27.9181 65.7177,48.1651 L46.1397,48.2541 C48.2457,17.1491 72.7907,9.99999999e-05 96.1727,9.99999999e-05 C96.3857,9.99999999e-05 96.5977,9.99999999e-05 96.8117,0.0031 C118.9757,0.2821 143.4547,15.2421 144.8247,47.4291 C146.6527,90.4821 117.5807,105.0401 100.8587,109.8401 C95.0317,111.5131 89.1487,107.3961 88.7077,101.3501" id="Fill-6" fill="#232E68"/><path d="M229.508,101.3501 L229.487,101.0751 C229.153,96.4831 232.156,92.3581 236.597,91.1401 C248.012,88.0121 267.321,78.2761 266.046,48.2611 C265.157,27.3591 250.04,19.7561 237.364,19.5971 C222.956,19.4321 207.887,27.9181 206.518,48.1651 L186.94,48.2541 C189.045,17.1491 213.591,9.99999999e-05 236.973,9.99999999e-05 C237.186,9.99999999e-05 237.398,9.99999999e-05 237.611,0.0031 C259.775,0.2821 284.254,15.2421 285.624,47.4291 C287.453,90.4821 258.381,105.0401 241.658,109.8401 C235.831,111.5131 229.948,107.3961 229.508,101.3501" id="Fill-8" fill="#232E68"/><path d="M372.0734,101.3501 L372.0524,101.0751 C371.7184,96.4831 374.7214,92.3581 379.1624,91.1401 C390.5774,88.0121 409.8864,78.2761 408.6114,48.2611 C407.7224,27.3591 392.6064,19.7561 379.9304,19.5971 C365.5214,19.4321 350.4534,27.9181 349.0834,48.1651 L329.5054,48.2541 C331.6114,17.1491 356.1564,9.99999999e-05 379.5384,9.99999999e-05 C379.7514,9.99999999e-05 379.9634,9.99999999e-05 380.1774,0.0031 C402.3414,0.2821 426.8204,15.2421 428.1894,47.4291 C430.0184,90.4821 400.9464,105.0401 384.2244,109.8401 C378.3974,111.5131 372.5144,107.3961 372.0734,101.3501" id="Fill-10" fill="#232E68"/><path d="M512.8732,101.3501 L512.8522,101.0751 C512.5182,96.4831 515.5212,92.3581 519.9622,91.1401 C531.3772,88.0121 550.6862,78.2761 549.4112,48.2611 C548.5222,27.3591 533.4062,19.7561 520.7302,19.5971 C506.3212,19.4321 491.2532,27.9181 489.8832,48.1651 L470.3052,48.2541 C472.4112,17.1491 496.9562,9.99999999e-05 520.3382,9.99999999e-05 C520.5512,9.99999999e-05 520.7632,9.99999999e-05 520.9772,0.0031 C543.1412,0.2821 567.6202,15.2421 568.9892,47.4291 C570.8182,90.4821 541.7462,105.0401 525.0242,109.8401 C519.1972,111.5131 513.3142,107.3961 512.8732,101.3501" id="Fill-12" fill="#232E68"/><path d="M30.7497,143.2241 L54.0477,639.0351 C54.0477,639.0351 58.7387,667.1821 86.2997,663.0771 C113.8617,658.9721 144.9407,650.1761 144.9407,650.1761 L72.4917,234.4101 L619.6407,187.4981 L619.7027,143.2241 L30.7497,143.2241 Z" id="Fill-14" fill="#AFDCFD"/><g id="Group-18" transform="translate(30.000000, 154.785000)"><mask id="planningorganizer-mask-4" fill="#ffffff"><use xlink:href="#planningorganizer-path-3" fill="#ffffff"/></mask><g id="Clip-17"/><path d="M591.2687,19.8454 C589.0567,7.6214 577.7477,-0.7826 565.4037,0.6004 L17.0107,62.0334 C17.0107,62.0334 -2.3413,62.0334 1.1777,87.8354 C4.6957,113.6384 48.0907,385.7324 107.3177,521.1934 C107.3177,521.1934 116.7007,549.9274 151.2977,542.8904 C185.8967,535.8534 608.1127,451.4104 634.5007,447.3054 C660.8887,443.2004 674.3767,438.5094 674.3767,438.5094 C674.3767,438.5094 692.5557,436.7494 681.4137,403.3244 C671.0087,372.1114 611.5117,131.7434 591.2687,19.8454" id="Fill-16" fill="#F8FBF8" mask="url(#planningorganizer-mask-4)"/></g><path d="M156.0827,398.606 C156.0827,398.606 120.3117,402.125 127.9357,440.241 C135.5587,478.358 178.3667,609.713 178.3667,609.713 C178.3667,609.713 183.6437,626.719 206.5137,624.961 C229.3837,623.202 599.4097,538.171 599.4097,538.171 C599.4097,538.171 622.9887,533.48 619.7027,504.16 C616.4147,474.839 577.1247,341.724 571.2617,329.41 C565.3977,317.095 556.0147,305.367 526.6947,311.231 C497.3747,317.095 156.0827,398.606 156.0827,398.606" id="Fill-19" fill="#D5E1D5"/><path d="M162.028,358.5083 L303.272,327.0643 C303.272,327.0643 334.938,321.1993 329.074,291.8793 C323.21,262.5593 286.266,269.5963 286.266,269.5963 C286.266,269.5963 168.103,289.6143 140.307,297.9973 C95.481,311.5153 111.295,371.3943 162.028,358.5083" id="Fill-21" fill="#EFD638"/><path d="M501.4787,213.8872 C458.0207,222.1162 469.9827,288.8682 514.9657,281.9282 C556.8947,275.4592 551.0307,204.5042 501.4787,213.8872" id="Fill-23" fill="#FF0048"/><path d="M0.0421,143.2241 L46.1391,143.2241 C46.1391,143.2241 49.8881,52.4761 23.2611,49.1051 C-1.1479,46.0151 0.3911,68.6401 0.3911,68.6401 L0.0421,143.2241 Z" id="Fill-25" fill="#B02D1C"/></g></g></g><g transform="translate(-28.000000, 174.000000) scale(1 1)" id="Master/Character/Standing"><g id="Master/Character/Standing" stroke="none" stroke-width="1" fill="none" fill-rule="evenodd"><g id="Standing/Lower Body" transform="translate(14.000000, 442.000000) scale(1 1)"><g id="Standing/Lower Body/Sstanding" stroke="none" stroke-width="1" fill="none" fill-rule="evenodd"><g id="Group-332" transform="translate(236.000000, -1.000000)"><g id="Group-126" transform="translate(0.000000, 0.142000)"><path d="M72.0978,172.4369 L35.7948,172.4369 C9.5208,172.4369 8.5178,190.2879 8.5178,190.2879 L10.6818,271.3909 C10.6818,271.3909 12.9308,287.5639 39.4058,287.5639 L75.7078,287.5639 C102.1828,287.5639 103.8888,268.5599 103.8888,268.5599 L103.928158,189.2869 C103.928158,189.2869 104.3898,172.4369 72.0978,172.4369" id="Fill-98" fill="#feb1cd"/><polygon id="Fill-100" fill="#F8FBF8" points="9.7379 236.017 103.9279 236.017 103.8879 268.56 10.3719 267.807"/><path d="M64.5915,242.2348 L9.7375,242.2348 L10.1225,250.2568 C10.1225,250.2568 55.2505,250.4588 63.6745,250.2568 C72.0975,250.0568 103.9285,250.3468 103.9285,250.3468 L103.9285,242.3848 C103.9285,242.3848 67.9165,242.2348 64.5915,242.2348" id="Fill-102" fill="#FE5C4F"/><path d="M126.7531,268.56 L103.8891,267.689 L61.9691,267.689 C61.9691,267.689 16.9911,267.306 10.3721,267.807 C8.3621,267.959 7.3131,268.61 6.9201,271.391 C6.9201,271.391 6.2101,285.107 8.7681,296.539 L46.8391,296.539 L122.4711,296.539 L162.5351,296.539 C162.5431,296.339 162.5551,296.144 162.5551,295.937 C162.5551,284.806 139.5391,273.975 126.7531,268.56" id="Fill-104" fill="#FE5C4F"/><path d="M122.4709,296.5385 L46.8389,296.5385 L8.7679,296.5385 C8.7679,296.5385 5.8129,302.8815 6.9899,307.2315 L47.0539,307.2315 L111.2079,307.2315 L151.2729,307.2315 C151.2729,307.2315 162.1319,307.0665 162.5349,296.5385 L122.4709,296.5385 Z" id="Fill-106" fill="#D5E1D5"/><path d="M110.0558,249.7562 C110.0558,249.7562 101.7828,254.8702 102.8348,264.6492 C103.8888,274.4262 116.5408,278.9392 123.8948,273.3732 C141.8798,259.7632 123.4438,242.2352 110.0558,249.7562" id="Fill-108" fill="#FF9786"/><path d="M126.151,281.8949 C125.678,281.8949 125.205,281.7199 124.836,281.3679 C124.076,280.6409 124.049,279.4369 124.776,278.6769 C128.102,275.1999 135.7,268.4719 136.022,268.1869 C136.809,267.4909 138.012,267.5639 138.708,268.3519 C139.405,269.1389 139.331,270.3409 138.544,271.0379 C138.466,271.1069 130.743,277.9449 127.526,281.3069 C127.152,281.6989 126.652,281.8949 126.151,281.8949" id="Fill-110" fill="#000"/><path d="M133.6945,284.9115 C133.2225,284.9115 132.7485,284.7355 132.3795,284.3835 C131.6205,283.6565 131.5925,282.4515 132.3195,281.6925 C135.6465,278.2155 143.2435,271.4885 143.5655,271.2035 C144.3525,270.5075 145.5555,270.5805 146.2525,271.3675 C146.9485,272.1545 146.8745,273.3575 146.0875,274.0545 C146.0095,274.1235 138.2865,280.9615 135.0705,284.3235 C134.6965,284.7145 134.1955,284.9115 133.6945,284.9115" id="Fill-112" fill="#000"/><path d="M140.4128,288.0736 C139.9398,288.0736 139.4658,287.8986 139.0978,287.5466 C138.3378,286.8196 138.3108,285.6146 139.0378,284.8546 C142.3638,281.3786 149.9618,274.6506 150.2838,274.3656 C151.0708,273.6696 152.2738,273.7436 152.9698,274.5306 C153.6658,275.3176 153.5928,276.5206 152.8058,277.2176 C152.7278,277.2856 145.0048,284.1246 141.7878,287.4856 C141.4138,287.8766 140.9138,288.0736 140.4128,288.0736" id="Fill-114" fill="#000"/><path d="M103.9274,300.5482 C103.4944,300.5482 103.0594,300.4012 102.7024,300.1012 C101.8984,299.4232 101.7954,298.2232 102.4724,297.4192 C102.6664,297.1852 107.2884,291.4682 103.1174,285.2662 C98.6294,278.5912 100.8634,272.4132 100.9604,272.1532 C101.3284,271.1692 102.4234,270.6692 103.4104,271.0382 C104.3904,271.4062 104.8894,272.4962 104.5294,273.4782 C104.4524,273.6912 102.9274,278.1612 106.2764,283.1422 C110.9104,290.0332 107.7194,297.0982 105.3844,299.8702 C105.0074,300.3182 104.4694,300.5482 103.9274,300.5482" id="Fill-116" fill="#000"/><path d="M106.7956,23.5502 L106.7956,23.5502 C106.7956,10.8472 96.4976,0.5492 83.7946,0.5492 L26.5036,0.5492 C13.8006,0.5492 3.5026,10.8472 3.5026,23.5502 C3.5026,23.5502 4.4566,174.5932 4.4566,184.7952 C4.4566,184.7952 4.1056,190.2872 8.5176,190.2872 L103.8376,190.2872 C103.8376,190.2872 109.7546,190.2872 109.7546,182.7662 C109.7546,175.3452 106.7956,23.5502 106.7956,23.5502" id="Fill-118" fill="#70A0E6"/><path d="M4.6588,34.9222 L27.6088,34.9222 C29.7318,34.9222 31.4508,36.6402 31.4458109,38.7632 C31.4258,47.1692 30.0098,66.4942 17.4608,67.0342 C5.0078,67.5692 1.6968,47.9422 0.8388,39.1172 C0.6198,36.8652 2.3968,34.9222 4.6588,34.9222" id="Fill-120" fill="#3164CF"/><path d="M66.0016,34.9222 L88.9516,34.9222 C91.0746,34.9222 92.7936,36.6402 92.7886109,38.7632 C92.7686,47.1692 91.3526,66.4942 78.8036,67.0342 C66.3506,67.5692 63.0396,47.9422 62.1816,39.1172 C61.9626,36.8652 63.7396,34.9222 66.0016,34.9222" id="Fill-122" fill="#3164CF"/><path d="M44.4865,306.7152 C43.4355,306.7152 42.5835,305.8632 42.5835,304.8122 C42.5835,304.1522 42.6145,303.8222 42.6445,303.4922 C42.6675,303.2502 42.6905,303.0092 42.6905,302.5262 C42.6905,301.9622 42.6875,301.6812 42.6845,301.4002 C42.6815,301.1092 42.6785,300.8182 42.6785,300.2362 C42.6785,299.7852 42.6535,299.5852 42.6215,299.3322 C42.5815,299.0242 42.5325,298.6402 42.5325,297.9452 C42.5325,297.1642 42.6485,296.7042 42.7785,296.2652 C42.8445,296.0392 42.8695,295.9552 42.8695,295.6562 C42.8695,294.9042 42.9485,294.4882 43.0125,294.1542 C43.0605,293.9082 43.0885,293.7602 43.0885,293.3692 C43.0885,293.1642 43.0795,293.1422 42.9965,292.9332 C42.8115,292.4712 42.6315,291.9482 42.6315,291.0822 L42.6285,288.7952 C42.6285,287.7992 42.9085,287.2012 43.0765,286.8432 C43.1645,286.6552 43.1645,286.6552 43.1645,286.5072 C43.1645,285.7522 43.2455,285.3352 43.3105,285.0002 C43.3585,284.7562 43.3865,284.6082 43.3865,284.2192 C43.3865,283.7002 43.3725,283.4412 43.3575,283.1812 C43.3405,282.8682 43.3225,282.5552 43.3225,281.9292 C43.3195,281.9092 43.2875,281.8662 43.2585,281.8212 C43.0205,281.4562 42.5785,280.7762 42.5785,279.6392 C42.5785,278.4672 43.0625,277.7762 43.3225,277.4032 C43.3385,277.3812 43.3555,277.3582 43.3715,277.3352 C43.3555,277.2562 43.3295,277.2182 43.3065,277.1782 C43.0795,276.7962 42.6995,276.1572 42.6995,275.0632 C42.6995,274.2652 42.8255,273.7962 42.9665,273.3482 C43.0355,273.1282 43.0585,273.0542 43.0585,272.7742 C43.0585,272.1052 43.0955,271.7492 43.1275,271.4362 C43.1515,271.1972 43.1755,270.9602 43.1755,270.4852 C43.1755,270.2032 43.1535,270.1282 43.0835,269.9072 C42.9435,269.4602 42.8175,268.9912 42.8175,268.1942 C42.8175,267.4042 42.9235,266.9512 42.9995,266.6202 C43.0535,266.3872 43.0835,266.2592 43.0835,265.9042 C43.0835,265.1162 43.1875,264.6632 43.2625,264.3342 C43.3155,264.1062 43.3445,263.9792 43.3455,263.6422 C43.3275,263.6142 43.3075,263.5882 43.2895,263.5622 C43.0285,263.1912 42.5445,262.4982 42.5445,261.3262 C42.5445,260.6232 42.5985,260.2342 42.6415,259.9212 C42.6765,259.6642 42.7025,259.4792 42.7025,259.0362 C42.7025,258.5912 42.6775,258.4032 42.6425,258.1452 C42.6005,257.8332 42.5485,257.4452 42.5485,256.7452 C42.5485,255.9702 42.6605,255.5142 42.7855,255.0772 C42.8485,254.8542 42.8755,254.7612 42.8755,254.4552 C42.8755,253.8082 42.9015,253.4842 42.9265,253.1592 C42.9465,252.9112 42.9665,252.6632 42.9665,252.1662 C42.9665,251.9822 42.9635,251.9732 42.8755,251.7662 C42.6745,251.2952 42.4795,250.7622 42.4795,249.8752 C42.4795,248.7672 42.8735,248.1222 43.1085,247.7372 C43.1365,247.6922 43.1675,247.6482 43.1915,247.5962 C43.1795,247.2202 43.1505,247.0882 43.0975,246.8512 C43.0255,246.5232 42.9255,246.0752 42.9255,245.2942 C42.9255,244.6982 42.9335,244.4002 42.9415,244.1022 C42.9475,243.8272 42.9545,243.5532 42.9545,243.0042 C42.9545,242.2292 43.0495,241.7822 43.1205,241.4572 C43.1715,241.2242 43.2005,241.0822 43.2005,240.7122 C43.2005,240.6422 43.1945,240.6132 43.1945,240.6132 C43.1765,240.5692 43.1475,240.5242 43.1215,240.4762 C42.9195,240.1032 42.5815,239.4802 42.5815,238.4252 C42.5815,237.5112 42.7815,236.9742 42.9135,236.6182 C42.9925,236.4062 43.0075,236.3682 43.0075,236.1392 C43.0075,235.9802 43.0075,235.9802 42.9175,235.7842 C42.6995,235.3052 42.4865,234.7612 42.4865,233.8522 C42.4865,232.7302 42.8955,232.0812 43.1395,231.6942 C43.1685,231.6482 43.1995,231.6052 43.2245,231.5542 C43.2075,231.1632 43.1775,231.0042 43.1335,230.7632 C43.0715,230.4312 42.9955,230.0182 42.9955,229.2712 C42.9955,228.6052 43.0305,228.2512 43.0625,227.9392 C43.0865,227.6992 43.1095,227.4612 43.1095,226.9832 C43.1095,226.3552 43.1285,226.0402 43.1465,225.7262 C43.1615,225.4682 43.1765,225.2102 43.1765,224.6942 C43.1765,224.1032 43.1815,223.8082 43.1875,223.5132 C43.1925,223.2352 43.1975,222.9572 43.1975,222.4012 C43.1875,222.3502 43.1565,222.3062 43.1285,222.2612 C42.8875,221.8742 42.4855,221.2272 42.4855,220.1112 C42.4855,219.2862 42.6115,218.8162 42.7045,218.4712 C42.7655,218.2442 42.7935,218.1402 42.7935,217.8192 C42.7935,217.2752 42.7845,217.0032 42.7765,216.7322 C42.7665,216.4312 42.7575,216.1292 42.7575,215.5272 C42.7575,214.7052 42.8825,214.2362 42.9735,213.8922 C43.0335,213.6632 43.0615,213.5592 43.0615,213.2342 C43.0615,213.0682 43.0615,213.0682 42.9705,212.8662 C42.7575,212.3882 42.5485,211.8462 42.5485,210.9422 C42.5485,210.0682 42.7335,209.5402 42.9235,209.0752 C43.0075,208.8692 43.0165,208.8482 43.0165,208.6492 C43.0165,208.2922 42.9865,208.1632 42.9325,207.9312 C42.8555,207.5992 42.7505,207.1462 42.7505,206.3542 C42.7505,205.7192 42.7715,205.4022 42.7915,205.0852 C42.8085,204.8302 42.8255,204.5752 42.8255,204.0652 C42.8255,203.1812 43.0005,202.6582 43.1165,202.3132 C43.1885,202.0992 43.2105,202.0342 43.2105,201.7732 C43.2105,201.4972 43.1865,201.4242 43.1165,201.2082 C43.0075,200.8662 42.8405,200.3502 42.8405,199.4782 C42.8405,198.7532 42.9045,198.3522 42.9565,198.0292 C42.9955,197.7832 43.0245,197.6052 43.0245,197.1822 C43.0245,196.3942 43.1435,195.9312 43.2765,195.4872 C43.3435,195.2652 43.3685,195.1812 43.3685,194.8862 C43.3685,194.7372 43.3685,194.7372 43.2785,194.5492 C43.1095,194.1902 42.8255,193.5882 42.8255,192.5872 C42.8255,192.1742 42.7975,192.0092 42.7545,191.7602 C42.6975,191.4322 42.6275,191.0252 42.6275,190.2872 C42.6275,189.3712 42.8275,188.8332 42.9595,188.4772 C43.0375,188.2672 43.0535,188.2232 43.0535,187.9902 C43.0535,187.3702 43.0685,187.0612 43.0845,186.7502 C43.0965,186.4862 43.1095,186.2232 43.1095,185.6942 C43.1095,185.0902 43.1195,184.7872 43.1295,184.4852 C43.1375,184.2132 43.1465,183.9422 43.1465,183.3992 C43.1465,182.9472 43.1205,182.7482 43.0875,182.4952 C43.0475,182.1852 42.9975,181.7982 42.9975,181.1012 C42.9975,180.8372 42.9755,180.7722 42.9035,180.5572 C42.7875,180.2102 42.6115,179.6872 42.6115,178.8012 C42.6115,178.3152 42.5885,178.0712 42.5665,177.8282 C42.5355,177.4972 42.5045,177.1652 42.5045,176.5022 C42.5045,175.8312 42.5405,175.4762 42.5725,175.1612 C42.5965,174.9222 42.6215,174.6832 42.6215,174.2042 C42.6215,173.6422 42.6175,173.3602 42.6145,173.0782 C42.6115,172.7852 42.6075,172.4922 42.6075,171.9062 C42.6075,171.2712 42.6285,170.9522 42.6495,170.6352 C42.6655,170.3782 42.6825,170.1222 42.6825,169.6102 C42.6825,168.8312 42.7965,168.3722 42.9235,167.9342 C42.9875,167.7102 43.0135,167.6172 43.0135,167.3122 C43.0135,166.5632 43.0905,166.1492 43.1525,165.8172 C43.1965,165.5732 43.2265,165.4132 43.2265,165.0122 C43.2265,164.5732 43.1995,164.3892 43.1625,164.1342 C43.1165,163.8182 43.0605,163.4242 43.0605,162.7122 C43.0605,162.0762 43.0805,161.7592 43.1015,161.4412 C43.1175,161.1842 43.1345,160.9272 43.1345,160.4142 C43.1345,160.0452 43.1055,159.9132 43.0525,159.6722 C42.9815,159.3452 42.8835,158.8972 42.8835,158.1162 C42.8835,157.2562 43.0575,156.7362 43.2365,156.2772 C43.3185,156.0672 43.3315,156.0342 43.3315,155.8182 C43.3315,155.4732 43.3025,155.3562 43.2445,155.1222 C43.1615,154.7852 43.0475,154.3222 43.0475,153.5172 C43.0475,153.2302 43.0225,153.1482 42.9545,152.9302 C42.8165,152.4822 42.6925,152.0142 42.6925,151.2182 C42.6925,150.4292 42.8125,149.9652 42.9455,149.5222 C43.0125,149.2982 43.0375,149.2142 43.0375,148.9192 C43.0375,148.4972 43.0085,148.3192 42.9685,148.0732 C42.9165,147.7502 42.8515,147.3482 42.8515,146.6202 C42.8515,145.7112 43.0625,145.1662 43.2785,144.6872 C43.3575,144.5132 43.3685,144.4882 43.3695,144.3792 C43.3535,144.3582 43.3365,144.3372 43.3195,144.3152 C43.0355,143.9362 42.5045,143.2322 42.5045,142.0212 C42.5045,141.3752 42.5285,141.0522 42.5525,140.7292 C42.5715,140.4772 42.5905,140.2252 42.5905,139.7212 C42.5905,139.0642 42.6185,138.7352 42.6475,138.4062 C42.6685,138.1602 42.6905,137.9132 42.6905,137.4202 C42.6905,136.6222 42.8155,136.1532 42.9545,135.7062 C43.0245,135.4832 43.0475,135.4082 43.0475,135.1232 C43.0475,134.8452 43.0245,134.7712 42.9545,134.5512 C42.8125,134.1012 42.6835,133.6302 42.6835,132.8292 C42.6835,132.0132 42.8045,131.5462 42.8925,131.2052 C42.9515,130.9792 42.9805,130.8652 42.9805,130.5322 C42.9805,130.0612 42.9545,129.8242 42.9285,129.5892 C42.8945,129.2712 42.8555,128.9102 42.8555,128.2332 C42.8555,127.3222 43.0685,126.7782 43.2865,126.2962 C43.3775,126.0972 43.3775,126.0972 43.3775,125.9342 C43.3765,125.9282 43.3435,125.8852 43.3145,125.8402 C43.0685,125.4722 42.6115,124.7862 42.6115,123.6362 C42.6115,122.7562 42.8005,122.2262 42.9945,121.7572 C43.0815,121.5502 43.0885,121.5322 43.0885,121.3372 C43.0885,120.7212 43.1015,120.4132 43.1145,120.1052 C43.1255,119.8372 43.1375,119.5692 43.1375,119.0352 C43.1375,118.5482 43.1145,118.3042 43.0925,118.0612 C43.0625,117.7292 43.0315,117.3992 43.0315,116.7362 C43.0315,116.2222 43.0155,115.9642 42.9985,115.7062 C42.9785,115.3892 42.9585,115.0702 42.9585,114.4352 C42.9585,114.2642 42.9585,114.2642 42.8665,114.0572 C42.6545,113.5792 42.4465,113.0372 42.4465,112.1342 C42.4465,111.0532 42.8095,110.4182 43.0265,110.0382 C43.0535,109.9912 43.0845,109.9452 43.1065,109.8922 C43.1045,109.3862 43.0785,109.1982 43.0435,108.9402 C42.9995,108.6262 42.9465,108.2362 42.9465,107.5302 C42.9465,106.8372 42.9935,106.4532 43.0315,106.1462 C43.0635,105.8892 43.0885,105.6862 43.0885,105.2282 C43.0885,105.1012 43.0885,105.1012 43.0015,104.9262 C42.8195,104.5612 42.5135,103.9492 42.5135,102.9242 C42.5135,102.3902 42.5025,102.1222 42.4915,101.8562 C42.4785,101.5482 42.4655,101.2402 42.4655,100.6262 C42.4655,99.5352 42.8395,98.8962 43.0625,98.5142 C43.0895,98.4682 43.1205,98.4232 43.1435,98.3692 C43.1385,97.6872 43.1595,97.3672 43.1805,97.0472 C43.1975,96.7912 43.2145,96.5342 43.2145,96.0202 C43.2145,95.5162 43.1945,95.2642 43.1755,95.0122 C43.1525,94.6882 43.1275,94.3632 43.1275,93.7162 C43.1275,92.9892 43.1915,92.5882 43.2415,92.2662 C43.2815,92.0172 43.3095,91.8372 43.3095,91.4112 C43.2975,91.3512 43.2665,91.3062 43.2375,91.2602 C42.9965,90.8712 42.5935,90.2222 42.5935,89.1032 C42.5935,88.2332 42.7735,87.7082 42.9575,87.2442 C43.0415,87.0332 43.0525,87.0062 43.0525,86.7942 C43.0525,85.7422 43.9045,84.8912 44.9555,84.8912 C46.0065,84.8912 46.8585,85.7422 46.8585,86.7942 C46.8585,87.6622 46.6785,88.1882 46.4945,88.6512 C46.4105,88.8622 46.3995,88.8902 46.3995,89.1032 C46.4115,89.1622 46.4425,89.2072 46.4715,89.2532 C46.7125,89.6422 47.1155,90.2912 47.1155,91.4112 C47.1155,92.1372 47.0525,92.5382 47.0015,92.8612 C46.9615,93.1102 46.9335,93.2892 46.9335,93.7162 C46.9335,94.2212 46.9525,94.4732 46.9715,94.7252 C46.9955,95.0492 47.0205,95.3732 47.0205,96.0202 C47.0205,96.6582 46.9995,96.9782 46.9785,97.2972 C46.9615,97.5542 46.9445,97.8112 46.9445,98.3242 C46.9445,99.4152 46.5705,100.0542 46.3475,100.4362 C46.3205,100.4832 46.2895,100.5282 46.2665,100.5812 C46.2715,101.1602 46.2825,101.4282 46.2945,101.6952 C46.3075,102.0032 46.3195,102.3102 46.3195,102.9242 C46.3195,103.0522 46.3195,103.0522 46.4075,103.2272 C46.5895,103.5922 46.8945,104.2032 46.8945,105.2282 C46.8945,105.9202 46.8475,106.3042 46.8095,106.6122 C46.7775,106.8692 46.7525,107.0712 46.7525,107.5302 C46.7525,107.9762 46.7785,108.1622 46.8145,108.4222 C46.8575,108.7362 46.9105,109.1262 46.9105,109.8312 C46.9105,110.9122 46.5475,111.5482 46.3305,111.9272 C46.3035,111.9752 46.2735,112.0202 46.2505,112.0742 C46.2525,112.3052 46.2525,112.3052 46.3445,112.5112 C46.5565,112.9882 46.7645,113.5302 46.7645,114.4352 C46.7645,114.9492 46.7805,115.2072 46.7975,115.4642 C46.8175,115.7822 46.8375,116.1002 46.8375,116.7362 C46.8375,117.2242 46.8605,117.4682 46.8825,117.7112 C46.9125,118.0422 46.9435,118.3732 46.9435,119.0352 C46.9435,119.6522 46.9305,119.9592 46.9175,120.2682 C46.9055,120.5352 46.8945,120.8022 46.8945,121.3372 C46.8945,122.2172 46.7045,122.7472 46.5105,123.2152 C46.4245,123.4232 46.4175,123.4412 46.4175,123.6362 C46.4185,123.6412 46.4515,123.6842 46.4805,123.7292 C46.7265,124.0972 47.1835,124.7822 47.1835,125.9342 C47.1835,126.8442 46.9705,127.3892 46.7525,127.8692 C46.6615,128.0692 46.6615,128.0692 46.6615,128.2332 C46.6615,128.7052 46.6875,128.9412 46.7125,129.1772 C46.7475,129.4942 46.7865,129.8552 46.7865,130.5322 C46.7865,131.3492 46.6655,131.8162 46.5775,132.1562 C46.5195,132.3832 46.4895,132.4962 46.4895,132.8292 C46.4895,133.1092 46.5135,133.1822 46.5835,133.4012 C46.7255,133.8512 46.8545,134.3212 46.8545,135.1232 C46.8545,135.9212 46.7285,136.3902 46.5895,136.8382 C46.5195,137.0612 46.4965,137.1362 46.4965,137.4202 C46.4965,138.0772 46.4675,138.4052 46.4395,138.7352 C46.4185,138.9812 46.3965,139.2282 46.3965,139.7212 C46.3965,140.3662 46.3725,140.6902 46.3485,141.0122 C46.3305,141.2542 46.3125,141.4962 46.3105,141.9602 C46.3275,141.9822 46.3445,142.0032 46.3615,142.0262 C46.6455,142.4032 47.1765,143.1092 47.1765,144.3192 C47.1765,145.2282 46.9655,145.7732 46.7485,146.2522 C46.6575,146.4542 46.6575,146.4542 46.6575,146.6202 C46.6575,147.0412 46.6865,147.2192 46.7265,147.4652 C46.7785,147.7882 46.8435,148.1922 46.8435,148.9192 C46.8435,149.7082 46.7235,150.1722 46.5905,150.6162 C46.5235,150.8392 46.4985,150.9232 46.4985,151.2182 C46.4985,151.5052 46.5235,151.5872 46.5915,151.8052 C46.7295,152.2522 46.8545,152.7202 46.8545,153.5172 C46.8545,153.8612 46.8825,153.9782 46.9405,154.2122 C47.0235,154.5492 47.1375,155.0112 47.1375,155.8182 C47.1375,156.6782 46.9625,157.1982 46.7835,157.6572 C46.7015,157.8672 46.6895,157.9002 46.6895,158.1162 C46.6895,158.4862 46.7185,158.6172 46.7715,158.8592 C46.8425,159.1862 46.9405,159.6342 46.9405,160.4142 C46.9405,161.0512 46.9205,161.3682 46.8995,161.6862 C46.8825,161.9442 46.8665,162.1992 46.8665,162.7122 C46.8665,163.1522 46.8925,163.3352 46.9305,163.5912 C46.9755,163.9072 47.0325,164.3012 47.0325,165.0122 C47.0325,165.7612 46.9565,166.1752 46.8945,166.5082 C46.8495,166.7502 46.8195,166.9112 46.8195,167.3122 C46.8195,168.0902 46.7065,168.5492 46.5795,168.9882 C46.5155,169.2122 46.4885,169.3042 46.4885,169.6102 C46.4885,170.2462 46.4675,170.5642 46.4475,170.8822 C46.4305,171.1392 46.4135,171.3952 46.4135,171.9062 C46.4135,172.4712 46.4175,172.7522 46.4205,173.0332 C46.4235,173.3262 46.4275,173.6192 46.4275,174.2042 C46.4275,174.8752 46.3915,175.2322 46.3595,175.5462 C46.3355,175.7842 46.3105,176.0242 46.3105,176.5022 C46.3105,176.9882 46.3335,177.2332 46.3555,177.4762 C46.3865,177.8072 46.4175,178.1392 46.4175,178.8012 C46.4175,179.0662 46.4395,179.1312 46.5115,179.3472 C46.6275,179.6932 46.8035,180.2162 46.8035,181.1012 C46.8035,181.5522 46.8295,181.7512 46.8625,182.0042 C46.9025,182.3142 46.9525,182.7002 46.9525,183.3992 C46.9525,184.0032 46.9435,184.3062 46.9335,184.6092 C46.9245,184.8802 46.9155,185.1522 46.9155,185.6942 C46.9155,186.3152 46.9015,186.6252 46.8855,186.9352 C46.8735,187.1992 46.8605,187.4632 46.8605,187.9902 C46.8605,188.9062 46.6605,189.4442 46.5285,189.8012 C46.4505,190.0112 46.4335,190.0552 46.4335,190.2872 C46.4335,190.6992 46.4625,190.8642 46.5055,191.1132 C46.5615,191.4422 46.6325,191.8492 46.6325,192.5872 C46.6325,192.7362 46.6325,192.7362 46.7205,192.9252 C46.8905,193.2832 47.1745,193.8852 47.1745,194.8862 C47.1745,195.6742 47.0555,196.1382 46.9225,196.5812 C46.8555,196.8042 46.8305,196.8872 46.8305,197.1822 C46.8305,197.9072 46.7665,198.3082 46.7145,198.6312 C46.6745,198.8772 46.6465,199.0552 46.6465,199.4782 C46.6465,199.7522 46.6705,199.8252 46.7395,200.0412 C46.8495,200.3832 47.0165,200.9002 47.0165,201.7732 C47.0165,202.6562 46.8405,203.1792 46.7245,203.5242 C46.6535,203.7382 46.6315,203.8032 46.6315,204.0652 C46.6315,204.6992 46.6105,205.0162 46.5905,205.3332 C46.5735,205.5882 46.5565,205.8432 46.5565,206.3542 C46.5565,206.7102 46.5865,206.8392 46.6405,207.0712 C46.7175,207.4032 46.8225,207.8572 46.8225,208.6492 C46.8225,209.5232 46.6365,210.0502 46.4465,210.5152 C46.3615,210.7252 46.3545,210.7412 46.3545,210.9422 C46.3545,211.1072 46.3545,211.1072 46.4445,211.3092 C46.6585,211.7872 46.8675,212.3292 46.8675,213.2342 C46.8675,214.0552 46.7425,214.5262 46.6525,214.8682 C46.5915,215.0972 46.5635,215.2012 46.5635,215.5272 C46.5635,216.0692 46.5715,216.3422 46.5805,216.6122 C46.5905,216.9142 46.5995,217.2152 46.5995,217.8192 C46.5995,218.6422 46.4725,219.1132 46.3805,219.4572 C46.3195,219.6852 46.2915,219.7882 46.2915,220.1112 C46.3015,220.1622 46.3325,220.2062 46.3605,220.2512 C46.6015,220.6382 47.0035,221.2842 47.0035,222.4012 C47.0035,222.9902 46.9985,223.2852 46.9925,223.5812 C46.9885,223.8602 46.9835,224.1372 46.9835,224.6942 C46.9835,225.3212 46.9645,225.6352 46.9455,225.9502 C46.9315,226.2082 46.9155,226.4662 46.9155,226.9832 C46.9155,227.6502 46.8805,228.0032 46.8495,228.3162 C46.8255,228.5552 46.8015,228.7932 46.8015,229.2712 C46.8015,229.6692 46.8315,229.8282 46.8765,230.0702 C46.9375,230.4022 47.0135,230.8152 47.0135,231.5622 C47.0135,232.6842 46.6055,233.3332 46.3605,233.7212 C46.3325,233.7662 46.3005,233.8102 46.2765,233.8612 C46.2925,234.0112 46.2925,234.0112 46.3825,234.2072 C46.6005,234.6872 46.8135,235.2312 46.8135,236.1392 C46.8135,237.0532 46.6135,237.5902 46.4815,237.9452 C46.4025,238.1572 46.3875,238.1952 46.3875,238.4252 C46.3875,238.4952 46.3945,238.5242 46.3945,238.5252 C46.4125,238.5692 46.4425,238.6142 46.4675,238.6632 C46.6695,239.0352 47.0075,239.6582 47.0075,240.7122 C47.0075,241.4872 46.9115,241.9342 46.8415,242.2592 C46.7905,242.4922 46.7605,242.6342 46.7605,243.0042 C46.7605,243.6002 46.7535,243.8992 46.7455,244.1962 C46.7395,244.4712 46.7325,244.7452 46.7325,245.2942 C46.7325,245.6582 46.7605,245.7902 46.8145,246.0282 C46.8865,246.3562 46.9855,246.8042 46.9855,247.5842 C46.9855,248.6932 46.5915,249.3372 46.3555,249.7222 C46.3275,249.7682 46.2975,249.8122 46.2735,249.8632 C46.2855,250.0602 46.2885,250.0682 46.3765,250.2762 C46.5765,250.7462 46.7725,251.2792 46.7725,252.1662 C46.7725,252.8142 46.7475,253.1382 46.7205,253.4612 C46.7015,253.7102 46.6815,253.9582 46.6815,254.4552 C46.6815,255.2312 46.5695,255.6862 46.4445,256.1232 C46.3815,256.3472 46.3545,256.4402 46.3545,256.7452 C46.3545,257.1912 46.3795,257.3782 46.4145,257.6372 C46.4565,257.9482 46.5085,258.3362 46.5085,259.0362 C46.5085,259.7392 46.4545,260.1292 46.4125,260.4422 C46.3775,260.6942 46.3515,260.8772 46.3505,261.3002 C46.3695,261.3262 46.3885,261.3532 46.4075,261.3792 C46.6675,261.7512 47.1525,262.4432 47.1525,263.6152 C47.1525,264.4032 47.0485,264.8562 46.9725,265.1862 C46.9195,265.4192 46.8895,265.5482 46.8895,265.9042 C46.8895,266.6942 46.7845,267.1482 46.7075,267.4802 C46.6535,267.7112 46.6245,267.8392 46.6245,268.1942 C46.6245,268.4772 46.6475,268.5512 46.7165,268.7722 C46.8565,269.2192 46.9825,269.6882 46.9825,270.4852 C46.9825,271.1542 46.9455,271.5102 46.9135,271.8232 C46.8895,272.0622 46.8645,272.2992 46.8645,272.7742 C46.8645,273.5712 46.7385,274.0392 46.5975,274.4882 C46.5285,274.7082 46.5055,274.7812 46.5055,275.0632 C46.5205,275.1442 46.5505,275.1892 46.5785,275.2352 C46.8055,275.6162 47.1855,276.2552 47.1855,277.3502 C47.1855,278.5222 46.7005,279.2142 46.4415,279.5852 C46.4255,279.6082 46.4095,279.6292 46.3945,279.6522 C46.4055,279.6842 46.4285,279.7152 46.4495,279.7472 C46.6875,280.1122 47.1295,280.7922 47.1295,281.9292 C47.1295,282.4482 47.1435,282.7082 47.1585,282.9682 C47.1755,283.2802 47.1935,283.5942 47.1935,284.2192 C47.1935,284.9752 47.1115,285.3922 47.0465,285.7272 C46.9995,285.9712 46.9705,286.1192 46.9705,286.5072 C46.9705,287.5032 46.6905,288.1022 46.5225,288.4592 C46.4345,288.6472 46.4345,288.6472 46.4345,288.7952 L46.4375,291.0822 C46.4375,291.2872 46.4455,291.3092 46.5295,291.5192 C46.7145,291.9802 46.8945,292.5032 46.8945,293.3692 C46.8945,294.1212 46.8155,294.5372 46.7515,294.8712 C46.7035,295.1172 46.6755,295.2662 46.6755,295.6562 C46.6755,296.4392 46.5595,296.8992 46.4295,297.3392 C46.3635,297.5642 46.3385,297.6482 46.3385,297.9452 C46.3385,298.3982 46.3645,298.5972 46.3965,298.8502 C46.4355,299.1582 46.4855,299.5432 46.4855,300.2362 C46.4855,300.8002 46.4875,301.0802 46.4905,301.3622 C46.4935,301.6532 46.4965,301.9442 46.4965,302.5262 C46.4965,303.1852 46.4655,303.5152 46.4345,303.8452 C46.4125,304.0872 46.3895,304.3282 46.3895,304.8122 C46.3895,305.8632 45.5375,306.7152 44.4865,306.7152" id="Fill-124" fill="#000"/></g></g></g></g><g id="Upper Body" transform="translate(-1.000000, 0.000000) scale(1 1)"><g id="Upper Body/Laptop" stroke="none" stroke-width="1" fill="none" fill-rule="evenodd"><g id="Group-691" transform="translate(152.500000, 272.500000)"><g id="Group-453" transform="translate(0.000000, 0.095000)"><path d="M241.5489,174.4264 L262.3799,74.3814 C262.3799,74.3814 252.8759,47.1744 212.0979,39.9614 C212.0979,39.9614 211.5509,15.4834 160.0019,15.4834 C108.4529,15.4834 106.8899,38.6954 106.8899,38.6954 C106.8899,38.6954 -4.3451,56.6524 0.2789,139.0164 C0.2789,139.0164 6.1749,190.7654 71.0239,182.9044 C70.9179,185.7814 71.5209,189.0814 73.9719,191.7894 C79.9819,198.4274 91.6929,197.6654 98.3559,196.5624 C101.1019,196.1074 103.8799,196.8674 106.1169,198.5244 C108.6669,200.4134 113.3329,202.5834 121.5689,203.0954 C127.8529,203.4864 132.4689,202.2684 135.7249,200.6984 C139.4069,198.9254 143.7659,199.4444 146.8579,202.1154 C150.5619,205.3184 157.1519,208.6544 168.7689,209.4994 C182.7509,210.5184 189.9819,205.5454 193.5739,201.2484 C196.0219,198.3214 199.8399,196.8864 203.5659,197.7124 C207.7369,198.6374 213.2789,199.0844 218.4979,197.0464 C220.6419,196.2094 223.0059,196.1594 225.1979,196.8604 C230.4509,198.5374 240.5249,200.6714 249.3079,196.2434 C257.8439,191.9404 255.8429,175.1594 241.5489,174.4264" id="Fill-429" fill="#00A378"/><path d="M273.8741,181.274 C273.8741,181.274 301.1821,179.927 301.8441,150.795 C302.5221,120.91 284.6001,114.814 273.8741,114.071 L273.8741,181.274 Z" id="Fill-431" fill="#feb1cd"/><path d="M119.8228,61.6696 C119.6548,61.6696 119.4838,61.6416 119.3168,61.5816 C119.0848,61.4986 118.7918,61.4476 118.4808,61.3946 C117.9548,61.3036 117.3568,61.2006 116.7638,60.8986 C116.5298,60.7806 116.2918,60.6726 116.0558,60.5656 C115.5038,60.3156 114.9328,60.0556 114.3888,59.6776 C114.1598,59.5186 113.9158,59.3746 113.6738,59.2316 C113.1808,58.9396 112.6238,58.6076 112.1398,58.1576 C111.4738,57.5356 110.9048,56.8446 110.3308,56.1316 C109.8228,55.4986 109.6678,54.7816 109.5438,54.2056 C109.4948,53.9796 109.4268,53.6686 109.3678,53.5696 C109.2548,53.3816 109.0548,53.1666 108.8438,52.9396 C108.4708,52.5366 108.0478,52.0806 107.7658,51.4486 C107.4638,50.7696 107.4328,50.0936 107.4078,49.5516 C107.3948,49.2736 107.3828,48.9876 107.3338,48.8346 C107.2928,48.7406 107.0658,48.4956 106.9168,48.3326 C106.5068,47.8896 105.9968,47.3386 105.8268,46.5416 C105.6688,45.8046 105.7738,45.1216 105.8578,44.5726 C105.8978,44.3146 105.9428,44.0216 105.9268,43.8866 C105.8138,42.9666 105.7868,42.1636 105.7628,41.4546 L105.7588,41.3186 C105.7388,40.7736 105.6888,40.5656 105.6348,40.3466 C105.5308,39.9116 105.4568,39.5126 105.5358,38.6786 C105.6128,37.8536 106.3368,37.2416 107.1708,37.3256 C107.9948,37.4036 108.5998,38.1356 108.5218,38.9606 C108.4838,39.3616 108.4998,39.4276 108.5518,39.6426 C108.6428,40.0226 108.7278,40.4286 108.7568,41.2136 L108.7608,41.3526 C108.7828,41.9996 108.8078,42.7326 108.9048,43.5226 C108.9708,44.0676 108.8928,44.5786 108.8228,45.0296 C108.7708,45.3666 108.7178,45.7156 108.7598,45.9126 C108.7828,45.9326 108.9858,46.1516 109.1198,46.2966 C109.4958,46.7036 109.9638,47.2106 110.1908,47.9216 C110.3608,48.4536 110.3848,48.9636 110.4048,49.4136 C110.4198,49.7346 110.4348,50.0666 110.5078,50.2306 C110.5858,50.4046 110.8178,50.6556 111.0438,50.8986 C111.3348,51.2126 111.6648,51.5676 111.9378,52.0216 C112.2548,52.5476 112.3778,53.1156 112.4758,53.5726 C112.5258,53.8066 112.6018,54.1596 112.6708,54.2536 C113.1908,54.8996 113.6658,55.4776 114.1858,55.9646 C114.4318,56.1926 114.8068,56.4156 115.2038,56.6496 C115.5078,56.8306 115.8118,57.0136 116.0998,57.2136 C116.4218,57.4366 116.8468,57.6296 117.2988,57.8346 C117.5718,57.9596 117.8488,58.0856 118.1218,58.2246 C118.3118,58.3206 118.6418,58.3776 118.9908,58.4386 C119.3938,58.5076 119.8508,58.5866 120.3288,58.7576 C121.1078,59.0366 121.5138,59.8956 121.2348,60.6756 C121.0148,61.2876 120.4378,61.6696 119.8228,61.6696" id="Fill-433" fill="#000"/><path d="M202.3526,60.4244 C201.7886,60.4244 201.2476,60.1044 200.9926,59.5584 C200.6416,58.8074 200.9666,57.9144 201.7176,57.5654 C201.9406,57.4604 202.1656,57.3614 202.3886,57.2634 C202.8976,57.0404 203.3766,56.8304 203.7446,56.5864 C203.9586,56.4444 204.1846,56.1544 204.4226,55.8484 C204.6536,55.5524 204.9156,55.2174 205.2426,54.9144 C205.5096,54.6664 205.7946,54.4434 206.0796,54.2234 C206.4166,53.9614 206.7356,53.7144 206.9256,53.4724 C207.1016,53.2484 207.2406,52.8994 207.3886,52.5294 C207.5216,52.1964 207.6716,51.8204 207.8796,51.4514 C208.1536,50.9714 208.4946,50.6014 208.7946,50.2754 C209.0036,50.0484 209.2416,49.7914 209.3006,49.6414 C209.4206,49.3444 209.5536,49.0514 209.6856,48.7604 C209.8926,48.3054 210.0876,47.8754 210.1886,47.5014 C210.2196,47.3834 210.1416,46.9934 210.0946,46.7614 C209.9966,46.2714 209.8846,45.7164 209.9816,45.1084 C210.0636,44.5904 210.2006,44.1354 210.3206,43.7334 C210.4216,43.3934 210.5176,43.0724 210.5306,42.8684 C210.5716,42.1714 210.6306,41.8004 210.6746,41.5294 C210.7196,41.2504 210.7346,41.1554 210.6896,40.6284 C210.6776,40.4924 210.5116,40.1934 210.3786,39.9514 C210.1566,39.5484 209.9036,39.0904 209.7826,38.5264 C209.6616,37.9584 209.6936,37.4174 209.7186,36.9834 C209.7336,36.7274 209.7546,36.3774 209.7116,36.2594 L209.5776,35.8744 C209.3606,35.2564 209.1566,34.6724 208.8986,34.1674 C208.8186,34.0124 208.5716,33.7864 208.3316,33.5704 C208.0116,33.2784 207.6476,32.9474 207.3456,32.5064 C207.1256,32.1844 206.9406,31.8404 206.7576,31.4964 C206.5706,31.1434 206.3936,30.8094 206.1956,30.5794 C205.8216,30.1504 205.5926,29.6754 205.3916,29.2574 C205.2576,28.9824 205.1076,28.6694 204.9916,28.5614 C204.9346,28.5314 204.6316,28.4564 204.4316,28.4064 C203.9176,28.2784 203.2776,28.1194 202.7206,27.6844 C202.4046,27.4364 202.1146,27.1574 201.8266,26.8764 C201.5396,26.5974 201.2676,26.3324 200.9996,26.1554 C200.7706,26.0024 200.4426,25.8764 200.0946,25.7414 C199.7226,25.5984 199.2996,25.4354 198.8836,25.1974 L198.3266,24.8754 C197.8446,24.5954 197.3686,24.3174 196.8656,24.0684 C196.2176,23.7484 195.7966,23.2294 195.4576,22.8124 C195.3276,22.6514 195.1286,22.4064 195.0406,22.3504 C194.8906,22.2874 194.5616,22.2544 194.2426,22.2234 C193.7736,22.1764 193.2416,22.1224 192.6986,21.9184 C192.3556,21.7884 191.9706,21.6934 191.5626,21.5914 C191.1786,21.4954 190.7976,21.3994 190.4266,21.2764 C190.1306,21.1784 189.7736,21.1234 189.3956,21.0674 C189.0016,21.0074 188.5556,20.9394 188.1076,20.8094 C187.7906,20.7174 187.4816,20.6204 187.1746,20.5254 C186.7296,20.3864 186.2906,20.2484 185.8486,20.1364 C185.1716,19.9644 184.6496,19.5904 184.2286,19.2904 C184.0546,19.1654 183.7896,18.9764 183.6886,18.9454 C183.5266,18.9104 183.2046,18.9534 182.8926,18.9974 C182.4066,19.0654 181.8556,19.1404 181.2556,19.0284 C180.5956,18.9034 180.0516,18.6114 179.6156,18.3754 C179.4176,18.2694 179.1206,18.1094 179.0126,18.0914 C178.4136,17.9974 177.8526,17.9354 177.3466,17.8784 L176.6526,17.7984 C176.2116,17.7444 176.1376,17.7744 175.9746,17.8374 C175.5666,17.9984 175.1026,18.1514 174.2786,18.0964 C173.4526,18.0404 172.8276,17.3244 172.8836,16.4984 C172.9386,15.6714 173.6406,15.0434 174.4816,15.1034 C174.6976,15.1164 174.7116,15.1104 174.8726,15.0474 C175.3516,14.8584 175.9146,14.6854 177.0206,14.8204 L177.6806,14.8984 C178.2256,14.9584 178.8306,15.0274 179.4766,15.1274 C180.0916,15.2244 180.5946,15.4954 181.0396,15.7354 C181.3316,15.8934 181.6086,16.0414 181.8106,16.0794 C181.9246,16.1014 182.2486,16.0574 182.4826,16.0254 C183.0016,15.9534 183.6456,15.8644 184.3376,16.0174 C185.0186,16.1664 185.5486,16.5454 185.9746,16.8504 C186.1786,16.9964 186.4576,17.1954 186.5856,17.2284 C187.0796,17.3534 187.5706,17.5064 188.0696,17.6614 C188.3566,17.7514 188.6466,17.8424 188.9416,17.9274 C189.2016,18.0024 189.5136,18.0504 189.8456,18.1004 C190.3076,18.1704 190.8316,18.2504 191.3696,18.4284 C191.6676,18.5274 191.9776,18.6024 192.2886,18.6804 C192.7616,18.7984 193.2506,18.9194 193.7576,19.1114 C193.9316,19.1764 194.2416,19.2074 194.5406,19.2374 C195.0616,19.2894 195.6526,19.3484 196.2536,19.6084 C196.9716,19.9174 197.4226,20.4744 197.7866,20.9214 C197.9176,21.0834 198.1186,21.3284 198.2066,21.3854 C198.7586,21.6574 199.2946,21.9684 199.8346,22.2824 L200.3696,22.5914 C200.5896,22.7174 200.8746,22.8274 201.1756,22.9444 C201.6356,23.1214 202.1576,23.3224 202.6596,23.6554 C203.1596,23.9874 203.5636,24.3814 203.9186,24.7284 C204.1296,24.9334 204.3386,25.1414 204.5696,25.3204 C204.6476,25.3684 204.9546,25.4454 205.1566,25.4954 C205.7346,25.6394 206.4546,25.8194 207.0446,26.3734 C207.5666,26.8624 207.8586,27.4674 208.0926,27.9534 C208.2186,28.2154 208.3496,28.4864 208.4606,28.6134 C208.8846,29.1024 209.1636,29.6274 209.4096,30.0914 C209.5396,30.3374 209.6666,30.5844 209.8236,30.8144 C209.9256,30.9644 210.1316,31.1514 210.3496,31.3494 C210.7466,31.7094 211.2406,32.1584 211.5696,32.8014 C211.9206,33.4884 212.1686,34.1974 212.4096,34.8844 L212.5386,35.2524 C212.7856,35.9454 212.7456,36.6184 212.7136,37.1594 C212.6976,37.4404 212.6796,37.7304 212.7156,37.8994 C212.7446,38.0284 212.8826,38.2794 213.0046,38.5014 C213.2756,38.9904 213.6116,39.6004 213.6776,40.3704 C213.7496,41.2074 213.7106,41.5474 213.6356,42.0084 C213.6016,42.2244 213.5566,42.5024 213.5246,43.0444 C213.4926,43.5974 213.3406,44.1034 213.1946,44.5934 C213.0916,44.9354 212.9956,45.2594 212.9446,45.5784 C212.9356,45.6734 212.9966,45.9724 213.0366,46.1694 C213.1536,46.7554 213.2996,47.4854 213.0846,48.2814 C212.9206,48.8924 212.6656,49.4554 212.4166,50.0004 C212.3026,50.2514 212.1876,50.5044 212.0846,50.7594 C211.8206,51.4194 211.3666,51.9124 211.0006,52.3094 C210.7906,52.5364 210.5916,52.7524 210.4896,52.9324 C210.3656,53.1524 210.2726,53.3974 210.1746,53.6424 C209.9646,54.1664 209.7276,54.7614 209.2856,55.3244 C208.8666,55.8594 208.3616,56.2494 207.9156,56.5944 C207.7016,56.7614 207.4826,56.9284 207.2796,57.1154 C207.1306,57.2534 206.9646,57.4674 206.7896,57.6934 C206.4486,58.1294 206.0256,58.6724 205.4046,59.0854 C204.8206,59.4734 204.1976,59.7464 203.5946,60.0114 C203.3926,60.1004 203.1886,60.1894 202.9856,60.2834 C202.7806,60.3794 202.5646,60.4244 202.3526,60.4244" id="Fill-435" fill="#000"/><path d="M159.5821,72.0865 C159.5451,72.0865 159.5091,72.0845 159.4731,72.0825 C158.6461,72.0235 158.0241,71.3055 158.0841,70.4785 L158.9271,58.7765 C158.9861,57.9495 159.7451,57.3345 160.5301,57.3885 C161.3561,57.4475 161.9781,58.1655 161.9191,58.9925 L161.0761,70.6935 C161.0191,71.4835 160.3611,72.0865 159.5821,72.0865" id="Fill-437" fill="#000"/><path d="M175.6026,72.0865 C174.9206,72.0865 174.3046,71.6195 174.1426,70.9285 L171.4016,59.2275 C171.2126,58.4205 171.7136,57.6125 172.5206,57.4245 C173.3196,57.2345 174.1336,57.7355 174.3236,58.5425 L177.0646,70.2435 C177.2526,71.0505 176.7516,71.8575 175.9456,72.0465 C175.8316,72.0735 175.7156,72.0865 175.6026,72.0865" id="Fill-439" fill="#000"/><path d="M60.378,185.4069 C59.747,185.4069 59.191,185.2019 58.739,185.0359 C58.474,184.9379 58.173,184.8279 58.02,184.8279 L58.018,184.8279 C57.75,184.8289 57.437,184.8689 57.106,184.9119 C56.654,184.9699 56.16,185.0339 55.59,185.0249 L54.933,185.0139 C54.353,185.0059 53.762,184.9959 53.158,184.9689 C52.883,184.9559 52.606,184.9469 52.327,184.9379 C51.799,184.9219 51.265,184.9029 50.723,184.8639 C50.444,184.8449 50.125,184.8609 49.784,184.8789 C49.328,184.9029 48.813,184.9289 48.271,184.8749 C48.048,184.8519 47.745,184.8859 47.424,184.9229 C46.938,184.9769 46.387,185.0389 45.79,184.9589 C45.23,184.8849 44.728,184.7109 44.284,184.5569 C43.964,184.4459 43.661,184.3419 43.404,184.2989 C42.776,184.1919 42.265,183.9349 41.813,183.7089 C41.533,183.5679 41.27,183.4349 41.082,183.3959 C40.819,183.3429 40.506,183.3219 40.174,183.3019 C39.708,183.2709 39.181,183.2379 38.634,183.0999 C38.028,182.9479 37.538,182.6669 37.106,182.4189 C36.834,182.2629 36.577,182.1159 36.377,182.0549 C36.277,182.0339 35.962,182.0679 35.755,182.0909 C35.205,182.1519 34.519,182.2259 33.805,181.9699 C33.152,181.7349 32.665,181.3179 32.274,180.9839 C32.068,180.8079 31.835,180.6089 31.695,180.5499 C31.537,180.4809 31.241,180.4429 30.955,180.4049 C30.452,180.3399 29.827,180.2589 29.224,179.9499 C28.996,179.8339 28.706,179.7329 28.399,179.6269 C27.922,179.4609 27.383,179.2739 26.87,178.9599 C26.164,178.5259 25.942,177.6019 26.376,176.8959 C26.809,176.1899 27.732,175.9699 28.439,176.4019 C28.674,176.5469 29.019,176.6659 29.382,176.7929 C29.755,176.9219 30.178,177.0679 30.59,177.2789 C30.73,177.3509 31.055,177.3929 31.342,177.4299 C31.809,177.4909 32.337,177.5599 32.879,177.7929 C33.438,178.0319 33.873,178.4039 34.223,178.7029 C34.44,178.8879 34.686,179.0979 34.822,179.1479 C34.906,179.1649 35.221,179.1319 35.428,179.1089 C35.941,179.0529 36.578,178.9819 37.244,179.1829 C37.773,179.3429 38.211,179.5949 38.598,179.8159 C38.888,179.9819 39.161,180.1389 39.365,180.1909 C39.646,180.2609 39.995,180.2839 40.365,180.3069 C40.767,180.3329 41.222,180.3619 41.691,180.4589 C42.264,180.5779 42.739,180.8159 43.159,181.0269 C43.435,181.1659 43.72,181.3089 43.902,181.3399 C44.405,181.4249 44.862,181.5829 45.266,181.7219 C45.606,181.8399 45.926,181.9509 46.186,181.9849 C46.419,182.0169 46.746,181.9799 47.09,181.9409 C47.534,181.8919 48.038,181.8359 48.573,181.8899 C48.885,181.9219 49.245,181.9019 49.627,181.8829 C50.044,181.8609 50.478,181.8399 50.94,181.8719 C51.441,181.9089 51.936,181.9239 52.424,181.9399 C52.716,181.9489 53.007,181.9589 53.295,181.9709 C53.867,181.9979 54.428,182.0069 54.979,182.0139 L55.651,182.0259 C55.967,182.0339 56.339,181.9859 56.721,181.9359 C57.129,181.8839 57.551,181.8299 58.005,181.8279 L58.021,181.8279 C58.708,181.8279 59.3,182.0459 59.776,182.2209 C59.975,182.2939 60.274,182.4039 60.377,182.4069 C60.596,182.4009 60.9,182.2939 61.224,182.1809 C61.657,182.0289 62.149,181.8569 62.708,181.8279 C63.194,181.8019 63.653,181.8079 64.082,181.8149 C64.432,181.8209 64.758,181.8279 65.055,181.8039 C65.716,181.7529 66.036,181.7359 66.279,181.7219 C66.576,181.7069 66.747,181.6969 67.379,181.6269 C68.306,181.5219 68.877,181.6999 69.253,181.8179 C69.511,181.8989 69.597,181.9279 69.9,181.8929 C70.151,181.8669 70.198,181.8359 70.427,181.6849 C70.778,181.4529 71.311,181.1019 72.285,180.9979 C72.958,180.9259 73.297,180.9159 73.636,180.9059 C73.916,180.8979 74.197,180.8889 74.754,180.8299 C75.541,180.7469 75.986,180.8019 76.345,180.8469 C76.618,180.8819 76.8,180.9069 77.239,180.8579 C77.783,180.7999 78.052,180.7449 78.321,180.6899 C78.66,180.6209 78.999,180.5519 79.684,180.4779 C80.36,180.4059 80.702,180.3979 81.044,180.3899 C81.322,180.3839 81.601,180.3779 82.152,180.3179 C82.438,180.2879 82.507,180.2469 82.737,180.1079 C83.082,179.9019 83.603,179.5909 84.543,179.4889 C85.197,179.4199 85.527,179.4029 85.857,179.3859 C86.145,179.3709 86.433,179.3559 87.006,179.2949 C88.062,179.1809 88.723,179.5159 89.117,179.7169 C89.374,179.8469 89.382,179.8469 89.55,179.8309 C90.199,179.7609 90.524,179.7409 90.85,179.7209 C91.143,179.7029 91.435,179.6849 92.016,179.6229 L94.474,179.3619 C94.891,179.3169 95.046,179.2569 95.303,179.1559 C95.652,179.0199 96.087,178.8499 96.901,178.7629 C97.171,178.7339 97.232,178.6959 97.46,178.5529 C97.81,178.3309 98.338,177.9969 99.3,177.8939 C100.129,177.8129 100.863,178.4019 100.951,179.2259 C101.04,180.0499 100.443,180.7889 99.62,180.8779 C99.351,180.9059 99.289,180.9449 99.062,181.0889 C98.712,181.3089 98.184,181.6429 97.222,181.7469 C96.805,181.7909 96.649,181.8509 96.393,181.9519 C96.043,182.0879 95.608,182.2579 94.794,182.3439 L92.335,182.6059 C91.686,182.6759 91.36,182.6959 91.035,182.7159 C90.742,182.7339 90.45,182.7519 89.869,182.8139 C88.818,182.9289 88.153,182.5919 87.759,182.3909 C87.502,182.2609 87.496,182.2599 87.325,182.2779 C86.67,182.3479 86.34,182.3649 86.01,182.3819 C85.722,182.3959 85.435,182.4109 84.862,182.4719 C84.578,182.5029 84.509,182.5449 84.278,182.6819 C83.934,182.8879 83.412,183.2009 82.472,183.3019 C81.795,183.3739 81.454,183.3819 81.113,183.3889 C80.834,183.3959 80.556,183.4019 80.003,183.4619 C79.459,183.5199 79.19,183.5749 78.921,183.6299 C78.582,183.6989 78.243,183.7679 77.559,183.8419 C76.772,183.9269 76.324,183.8689 75.968,183.8239 C75.693,183.7899 75.513,183.7659 75.072,183.8129 C74.4,183.8859 74.062,183.8949 73.723,183.9049 C73.442,183.9129 73.161,183.9219 72.605,183.9809 C72.354,184.0079 72.307,184.0389 72.078,184.1889 C71.727,184.4219 71.194,184.7719 70.22,184.8769 C69.298,184.9769 68.731,184.7989 68.357,184.6809 C68.101,184.6009 68.018,184.5739 67.713,184.6079 C66.981,184.6899 66.783,184.6999 66.44,184.7189 C66.211,184.7299 65.91,184.7469 65.29,184.7959 C64.905,184.8259 64.489,184.8209 64.035,184.8149 C63.672,184.8079 63.28,184.8019 62.864,184.8239 C62.735,184.8309 62.459,184.9279 62.215,185.0119 C61.739,185.1789 61.147,185.3859 60.458,185.4059 C60.431,185.4069 60.404,185.4069 60.378,185.4069" id="Fill-441" fill="#000"/><path d="M62.0967,114.5406 C61.2357,114.5406 60.7447,114.3706 60.3877,114.2476 C60.1417,114.1616 60.0177,114.1186 59.6607,114.1186 C59.2727,114.1186 59.1307,114.1616 58.8737,114.2386 C58.5277,114.3436 58.0527,114.4856 57.2227,114.4856 C56.1767,114.4856 55.5647,114.0966 55.1997,113.8636 C54.9637,113.7136 54.9587,113.7106 54.7867,113.7106 C54.2157,113.7106 53.9307,113.7256 53.6447,113.7386 C53.3227,113.7556 52.9987,113.7706 52.3537,113.7706 C52.0637,113.7706 51.9837,113.8076 51.7447,113.9126 C51.3867,114.0726 50.8447,114.3136 49.9167,114.3136 C49.1617,114.3136 48.7437,114.2316 48.4097,114.1656 C48.1387,114.1126 47.9437,114.0736 47.4807,114.0736 C47.1257,114.0736 47.0027,114.1166 46.7577,114.2026 C46.4007,114.3266 45.9097,114.4976 45.0477,114.4976 C44.1707,114.4976 43.6737,114.3126 43.3107,114.1796 C43.0677,114.0886 42.9557,114.0476 42.6177,114.0476 C41.9447,114.0476 41.6087,114.0186 41.2727,113.9896 C40.9997,113.9666 40.7277,113.9426 40.1837,113.9426 C39.7937,113.9426 39.6527,113.9846 39.3947,114.0616 C39.0487,114.1646 38.5757,114.3066 37.7467,114.3066 C36.8787,114.3066 36.3857,114.1316 36.0267,114.0036 C35.7757,113.9136 35.6607,113.8736 35.3107,113.8736 C34.4827,113.8736 33.8107,113.2016 33.8107,112.3736 C33.8107,111.5446 34.4827,110.8736 35.3107,110.8736 C36.1777,110.8736 36.6707,111.0486 37.0307,111.1766 C37.2817,111.2656 37.3967,111.3066 37.7467,111.3066 C38.1377,111.3066 38.2797,111.2636 38.5367,111.1866 C38.8827,111.0836 39.3557,110.9426 40.1837,110.9426 C40.8567,110.9426 41.1927,110.9716 41.5287,111.0006 C41.8007,111.0236 42.0737,111.0476 42.6177,111.0476 C43.4927,111.0476 43.9907,111.2306 44.3527,111.3656 C44.5977,111.4556 44.7087,111.4976 45.0477,111.4976 C45.4027,111.4976 45.5267,111.4546 45.7717,111.3686 C46.1287,111.2446 46.6187,111.0736 47.4807,111.0736 C48.2367,111.0736 48.6547,111.1566 48.9897,111.2226 C49.2597,111.2756 49.4547,111.3136 49.9167,111.3136 C50.2067,111.3136 50.2857,111.2786 50.5247,111.1726 C50.8827,111.0136 51.4247,110.7706 52.3537,110.7706 C52.9247,110.7706 53.2097,110.7576 53.4957,110.7426 C53.8187,110.7276 54.1417,110.7106 54.7867,110.7106 C55.8327,110.7106 56.4457,111.1006 56.8107,111.3336 C57.0457,111.4826 57.0507,111.4856 57.2227,111.4856 C57.6117,111.4856 57.7517,111.4436 58.0087,111.3666 C58.3557,111.2626 58.8297,111.1186 59.6607,111.1186 C60.5227,111.1186 61.0127,111.2886 61.3697,111.4126 C61.6167,111.4976 61.7407,111.5406 62.0967,111.5406 C62.6357,111.5406 62.9057,111.5156 63.1747,111.4896 C63.5147,111.4586 63.8547,111.4266 64.5347,111.4266 C65.1177,111.4266 65.4097,111.4156 65.7007,111.4056 C66.0177,111.3946 66.3357,111.3836 66.9717,111.3836 C67.4397,111.3836 67.6367,111.3456 67.9087,111.2936 C68.2427,111.2286 68.6587,111.1496 69.4107,111.1496 L71.8487,111.1546 C72.2087,111.1546 72.3327,111.1116 72.5817,111.0266 C72.9397,110.9046 73.4287,110.7366 74.2877,110.7366 C75.1347,110.7366 75.6177,110.8936 75.9697,111.0076 C76.2177,111.0876 76.3547,111.1326 76.7287,111.1326 C77.5647,111.1326 78.0417,111.2806 78.3907,111.3896 C78.6437,111.4676 78.7827,111.5116 79.1627,111.5116 C79.4577,111.5116 79.5387,111.4756 79.7807,111.3696 C80.1377,111.2136 80.6777,110.9776 81.6017,110.9776 C82.4507,110.9776 82.9347,111.1346 83.2867,111.2496 C83.5427,111.3326 83.6707,111.3746 84.0417,111.3746 C84.6677,111.3746 84.9807,111.3816 85.2937,111.3886 C85.5907,111.3946 85.8887,111.3996 86.4837,111.3996 C86.6867,111.3996 86.7107,111.3866 86.9467,111.2486 C87.3287,111.0236 87.9087,110.6856 88.9257,110.6856 C90.0017,110.6856 90.6237,111.1116 90.9957,111.3666 C91.2247,111.5226 91.2247,111.5226 91.3707,111.5226 C91.7647,111.5226 91.9077,111.4796 92.1667,111.4026 C92.5137,111.3006 92.9887,111.1586 93.8177,111.1586 C94.6457,111.1586 95.3177,111.8306 95.3177,112.6586 C95.3177,113.4876 94.6457,114.1586 93.8177,114.1586 C93.4247,114.1586 93.2817,114.2016 93.0227,114.2786 C92.6757,114.3816 92.2007,114.5226 91.3707,114.5226 C90.2947,114.5226 89.6727,114.0966 89.3007,113.8416 C89.0727,113.6856 89.0727,113.6856 88.9257,113.6856 C88.7217,113.6856 88.6977,113.6986 88.4617,113.8366 C88.0787,114.0616 87.5007,114.3996 86.4837,114.3996 C85.8577,114.3996 85.5447,114.3946 85.2317,114.3876 C84.9347,114.3816 84.6367,114.3746 84.0417,114.3746 C83.1937,114.3746 82.7097,114.2176 82.3577,114.1026 C82.1017,114.0196 81.9737,113.9776 81.6017,113.9776 C81.3057,113.9776 81.2247,114.0126 80.9837,114.1176 C80.6257,114.2746 80.0867,114.5116 79.1627,114.5116 C78.3257,114.5116 77.8487,114.3616 77.4987,114.2536 C77.2467,114.1756 77.1087,114.1326 76.7287,114.1326 C75.8807,114.1326 75.3987,113.9766 75.0457,113.8616 C74.7977,113.7816 74.6607,113.7366 74.2877,113.7366 C73.9277,113.7366 73.8037,113.7796 73.5547,113.8646 C73.1977,113.9876 72.7077,114.1546 71.8487,114.1546 L69.4107,114.1496 C68.9437,114.1496 68.7457,114.1866 68.4737,114.2396 C68.1397,114.3036 67.7237,114.3836 66.9717,114.3836 C66.3887,114.3836 66.0967,114.3936 65.8057,114.4036 C65.4887,114.4146 65.1697,114.4266 64.5347,114.4266 C63.9947,114.4266 63.7257,114.4516 63.4557,114.4776 C63.1167,114.5096 62.7767,114.5406 62.0967,114.5406" id="Fill-443" fill="#000"/><path d="M88.6358,105.8483 C88.6358,105.8483 63.4068,110.9093 59.4538,135.1013 C55.9698,156.4213 64.5138,178.4283 90.6048,181.2743 L88.6358,105.8483 Z" id="Fill-445" fill="#feb1cd"/><path d="M86.0939984,74.0543 L88.4808,185.8853 C88.5198,187.7163 90.0148,189.1803 91.8468,189.1803 L270.5068,189.1803 C272.3668,189.1803 273.8738,187.6733 273.8738,185.8143 L273.8738,75.5063 C273.8738,73.6583 272.3838,72.1553 270.5358,72.1393 L89.4898,70.6161621 C87.5908,70.5993 86.0538,72.1563 86.0939984,74.0543" id="Fill-447" fill="#F8FBF8"/><path d="M94.8738,74.0543 L97.1490047,185.8853 C97.1861813,187.7163 98.6112813,189.1803 100.357625,189.1803 L270.664227,189.1803 C272.437261,189.1803 273.8738,187.6733 273.8738,185.8143 L273.8738,75.5063 C273.8738,73.6583 272.453466,72.1553 270.691871,72.1393 L98.1108281,70.6161621 C96.3006174,70.5993 94.8354811,72.1563 94.8738,74.0543" id="Fill-447-Copy" fill="#AFDCFD"/><path d="M176.1475,0.9069 L164.7485,0.9069 C159.5945,0.9069 155.2085,4.6009 154.2925,9.6419 C154.2825,9.7049 154.2735,9.7649 154.2635,9.8289 L154.2585,9.8619 L154.2585,9.8629 C154.2215,10.1079 154.1835,10.3579 154.1455,10.6069 C152.8195,19.3479 151.1815,30.0589 151.1815,30.0589 L186.6145,30.0589 L186.6865,22.2939 L186.7845,11.6419 C186.8385,5.7289 182.0605,0.9069 176.1475,0.9069" id="Fill-449" fill="#feb1cd"/><path d="M186.6143,30.0592 C172.7393,29.0832 168.9483,26.1082 169.0823,23.6312 C169.2013,21.4132 171.2863,21.7222 172.1973,21.7432 C176.2113,21.8322 186.6863,22.2932 186.6863,22.2932" id="Fill-451" fill="#430000"/></g></g><circle id="Oval" fill="#F8FBF8" cx="342.5" cy="405.5" r="11.5"/><path d="M223.5,449 L248,449 L248,449 L248,462 L223.5,462 C219.910149,462 217,459.089851 217,455.5 C217,451.910149 219.910149,449 223.5,449 Z" id="Rectangle" fill="#F8FBF8"/></g></g><g id="Head" transform="translate(204.000000, 145.000000) scale(1 1)"><g id="Head/Bald" stroke="none" stroke-width="1" fill="none" fill-rule="evenodd"><g id="Group-183" transform="translate(100.000000, 94.000000)"><g id="Group-35" transform="translate(0.000000, 0.738000)"><path d="M54.2635,25.4479 C53.2995,20.0999 44.0205,22.4259 42.6645,22.7949 C41.2955,16.8799 39.8015,11.5029 38.4505,8.9759 C35.7455,3.9189 27.4985,-1.3961 14.3095,0.6449 C5.5525,1.9999 -3.7735,10.1689 2.2845,24.3889 C2.2845,24.3889 4.0165,27.8379 3.1875,33.5219 C3.0965,34.1479 2.9665,35.0219 2.8095,36.0639 L2.8085,36.0709 C2.5455,37.8319 2.2045,40.0879 1.8315,42.5519 C1.8225,42.6149 1.8125,42.6759 1.8035,42.7379 L1.7985,42.7719 L1.7985,42.7729 C1.7605,43.0179 1.7225,43.2679 1.6845,43.5169 C1.4555,46.1069 2.1615,54.5829 21.2395,54.6779 L34.2255,55.2039 L34.4235,55.2129 C34.4235,55.2129 38.7745,55.1639 41.4085,55.1639 C46.8825,55.1639 47.8225,49.9449 47.2085,46.0829 C46.9585,44.5149 46.0565,39.2069 44.8345,33.0059 C45.9565,32.7689 55.2025,30.6539 54.2635,25.4479" id="Fill-31" fill="#feb1cd"/><path d="M6.84902363,25.4590535 C8.41903185,23.2154055 11.1945553,22.9991124 14.8931423,24.5805224 C15.4009558,24.7976489 15.6366041,25.3853289 15.4194776,25.8931423 C15.2023511,26.4009558 14.6146711,26.6366041 14.1068577,26.4194776 C11.1766142,25.1665893 9.39770368,25.3052177 8.48767457,26.6057108 C6.41692941,29.5649458 7.51344578,32.9704669 13.1077714,35.46231 C13.6122722,35.6870264 13.8390822,36.2781737 13.6143658,36.7826744 C13.3896494,37.2871751 12.7985021,37.5139852 12.2940014,37.2892688 C5.58568252,34.3012271 4.03396589,29.4819615 6.84902363,25.4590535 Z" id="Path" fill="#000" fill-rule="nonzero"/></g></g></g></g><g id="Expression" transform="translate(315.000000, 246.000000) scale(1 1)"><defs><path d="M2.973,1.055 C-0.453,2.37 -2.944,13.004 10.567,16.001 L10.567,16.001 C16.271,17.266 19.387,14.583 19.536,11.9 L19.536,11.9 C19.665,9.554 17.527,7.208 12.869,7.501 L12.869,7.501 C11.822,7.568 10.572,7.073 9.905,5.972 L9.905,5.972 C8.651,3.902 7.906,0.626 4.999,0.626 L4.999,0.626 C4.417,0.626 3.749,0.757 2.973,1.055" id="expressionlaugh-path-1"/></defs><g id="Expression/Laugh" stroke="none" stroke-width="1" fill="none" fill-rule="evenodd"><g id="Group-77" transform="translate(13.400000, 13.300000)"><g id="Group-3" transform="translate(0.000000, 0.116900)"><g id="Group" transform="translate(0.000000, 15.000000)"><path d="M2.973,1.0549 C-0.453,2.3699 -2.944,13.0039 10.567,15.9999 C21.261,18.3719 22.855,6.8709 12.869,7.5009 C11.822,7.5679 10.571,7.0739 9.904,5.9719 C8.4,3.4879 7.63,-0.7321 2.973,1.0549" id="Fill-37" fill="#000"/><g id="Group-41"><mask id="expressionlaugh-mask-2" fill="#ffffff"><use xlink:href="#expressionlaugh-path-1" fill="#ffffff"/></mask><g id="Clip-40"/><path d="M-3.2101,3.4943 C-3.2101,3.4943 1.3509,2.7393 5.4389,7.3023 C9.5279,11.8643 9.1349,18.8593 9.1349,18.8593 C9.1349,18.8593 -6.6571,11.2823 -3.2101,3.4943" id="Fill-39" fill="#FF71DB" mask="url(#expressionlaugh-mask-2)"/></g></g><g id="Group-46" transform="translate(3.000000, 0.000000)"><path d="M3.1312,6.052 C3.7892,6.555 4.7312,6.427 5.2332,5.769 C7.2772,3.086 9.8032,4.136 10.1002,4.271 C10.8412,4.624 11.7342,4.313 12.0932,3.571 C12.4552,2.825 12.1432,1.928 11.3982,1.566 C10.3642,1.065 8.4892,0.66 6.5312,1.268 C5.2702,1.659 3.9732,2.472 2.8462,3.95 C2.3442,4.61 2.4722,5.55 3.1312,6.052" id="Fill-42" fill="#000"/><path d="M4.6669,6.3596 C4.6669,7.0556 3.7149,7.6196 2.5399,7.6196 C1.3649,7.6196 0.4129,7.0556 0.4129,6.3596 C0.4129,5.6646 1.3649,5.0996 2.5399,5.0996 C3.7149,5.0996 4.6669,5.6646 4.6669,6.3596" id="Fill-44" fill="#F8FBF8"/></g></g></g></g></g><g id="Facial Hair" transform="translate(311.300000, 250.950000) scale(1 1)"><g id="Facial Hair/None" stroke="none" stroke-width="1" fill="none" fill-rule="evenodd" fill-opacity="0"/></g><g id="Accesories" transform="translate(311.300000, 250.950000) scale(1 1)"><g id="Accesories/None" stroke="none" stroke-width="1" fill="none" fill-rule="evenodd" fill-opacity="0"/></g></g></g></g></svg>