<svg viewBox="165.75 114.74999999999989 790.5000000000001 816.0000000000001" xmlns="http://www.w3.org/2000/svg" xmlns:xlink="http://www.w3.org/1999/xlink" overflow="visible" width="790.5000000000001px" height="816.0000000000001px"><defs><polygon id="masterspot-illustrationplanning-path-1" points="0.6017 0.148 107.7217 0.148 107.7217 265 0.6017 265"/><polygon id="masterspot-illustrationplanning-path-3" points="0.302904145 0.494 189.197939 0.494 189.197939 192.743236 0.302904145 192.743236"/></defs><g id="Master/Spot Illustration/Planning" stroke="none" stroke-width="1" fill="none" fill-rule="evenodd"><g id="Planning" transform="translate(25.000000, 63.000000) scale(1 1)"><defs><polygon id="planningorganizer-path-1" points="0 0.4389 619.6408 0.4389 619.6408 503.3349 0 503.3349"/><polygon id="planningorganizer-path-3" points="0.749994555 0.451650553 685.027 0.451650553 685.027 544 0.749994555 544"/></defs><g id="Planning/Organizer" stroke="none" stroke-width="1" fill="none" fill-rule="evenodd"><g id="Group-27" transform="translate(569.000000, 417.500000) scale(-1, 1) translate(-569.000000, -417.500000) translate(211.000000, 68.000000)"><g id="Group-3" transform="translate(0.000000, 142.785000)"><mask id="planningorganizer-mask-2" fill="#ffffff"><use xlink:href="#planningorganizer-path-1" fill="#ffffff"/></mask><g id="Clip-2"/><path d="M0.3908,486.5739 C0.3908,486.5739 0.4398,502.6999 11.6308,503.1389 C22.8208,503.5799 68.1208,503.1389 68.1208,503.1389 L619.6408,254.0649 L619.6408,0.4389 L0.0418,0.4389 C-0.1522,153.4699 0.3908,486.5739 0.3908,486.5739" id="Fill-1" fill="#70A0E6" mask="url(#planningorganizer-mask-2)"/></g><path d="M593.0314,46.0269 C563.7844,46.6859 23.2604,49.1049 23.2604,49.1049 C23.2604,49.1049 1.2704,46.8339 0.3904,68.6399 C0.2024,73.3019 0.0954,101.6119 0.0424,143.2239 L619.6404,143.2239 L619.6404,72.8549 C619.6404,72.8549 622.2794,45.3669 593.0314,46.0269" id="Fill-4" fill="#FF0048"/><path d="M88.7077,101.3501 L88.6877,101.0751 C88.3527,96.4831 91.3557,92.3581 95.7967,91.1401 C107.2117,88.0121 126.5207,78.2761 125.2467,48.2611 C124.3577,27.3591 109.2407,19.7561 96.5647,19.5971 C82.1557,19.4321 67.0877,27.9181 65.7177,48.1651 L46.1397,48.2541 C48.2457,17.1491 72.7907,9.99999999e-05 96.1727,9.99999999e-05 C96.3857,9.99999999e-05 96.5977,9.99999999e-05 96.8117,0.0031 C118.9757,0.2821 143.4547,15.2421 144.8247,47.4291 C146.6527,90.4821 117.5807,105.0401 100.8587,109.8401 C95.0317,111.5131 89.1487,107.3961 88.7077,101.3501" id="Fill-6" fill="#232E68"/><path d="M229.508,101.3501 L229.487,101.0751 C229.153,96.4831 232.156,92.3581 236.597,91.1401 C248.012,88.0121 267.321,78.2761 266.046,48.2611 C265.157,27.3591 250.04,19.7561 237.364,19.5971 C222.956,19.4321 207.887,27.9181 206.518,48.1651 L186.94,48.2541 C189.045,17.1491 213.591,9.99999999e-05 236.973,9.99999999e-05 C237.186,9.99999999e-05 237.398,9.99999999e-05 237.611,0.0031 C259.775,0.2821 284.254,15.2421 285.624,47.4291 C287.453,90.4821 258.381,105.0401 241.658,109.8401 C235.831,111.5131 229.948,107.3961 229.508,101.3501" id="Fill-8" fill="#232E68"/><path d="M372.0734,101.3501 L372.0524,101.0751 C371.7184,96.4831 374.7214,92.3581 379.1624,91.1401 C390.5774,88.0121 409.8864,78.2761 408.6114,48.2611 C407.7224,27.3591 392.6064,19.7561 379.9304,19.5971 C365.5214,19.4321 350.4534,27.9181 349.0834,48.1651 L329.5054,48.2541 C331.6114,17.1491 356.1564,9.99999999e-05 379.5384,9.99999999e-05 C379.7514,9.99999999e-05 379.9634,9.99999999e-05 380.1774,0.0031 C402.3414,0.2821 426.8204,15.2421 428.1894,47.4291 C430.0184,90.4821 400.9464,105.0401 384.2244,109.8401 C378.3974,111.5131 372.5144,107.3961 372.0734,101.3501" id="Fill-10" fill="#232E68"/><path d="M512.8732,101.3501 L512.8522,101.0751 C512.5182,96.4831 515.5212,92.3581 519.9622,91.1401 C531.3772,88.0121 550.6862,78.2761 549.4112,48.2611 C548.5222,27.3591 533.4062,19.7561 520.7302,19.5971 C506.3212,19.4321 491.2532,27.9181 489.8832,48.1651 L470.3052,48.2541 C472.4112,17.1491 496.9562,9.99999999e-05 520.3382,9.99999999e-05 C520.5512,9.99999999e-05 520.7632,9.99999999e-05 520.9772,0.0031 C543.1412,0.2821 567.6202,15.2421 568.9892,47.4291 C570.8182,90.4821 541.7462,105.0401 525.0242,109.8401 C519.1972,111.5131 513.3142,107.3961 512.8732,101.3501" id="Fill-12" fill="#232E68"/><path d="M30.7497,143.2241 L54.0477,639.0351 C54.0477,639.0351 58.7387,667.1821 86.2997,663.0771 C113.8617,658.9721 144.9407,650.1761 144.9407,650.1761 L72.4917,234.4101 L619.6407,187.4981 L619.7027,143.2241 L30.7497,143.2241 Z" id="Fill-14" fill="#AFDCFD"/><g id="Group-18" transform="translate(30.000000, 154.785000)"><mask id="planningorganizer-mask-4" fill="#ffffff"><use xlink:href="#planningorganizer-path-3" fill="#ffffff"/></mask><g id="Clip-17"/><path d="M591.2687,19.8454 C589.0567,7.6214 577.7477,-0.7826 565.4037,0.6004 L17.0107,62.0334 C17.0107,62.0334 -2.3413,62.0334 1.1777,87.8354 C4.6957,113.6384 48.0907,385.7324 107.3177,521.1934 C107.3177,521.1934 116.7007,549.9274 151.2977,542.8904 C185.8967,535.8534 608.1127,451.4104 634.5007,447.3054 C660.8887,443.2004 674.3767,438.5094 674.3767,438.5094 C674.3767,438.5094 692.5557,436.7494 681.4137,403.3244 C671.0087,372.1114 611.5117,131.7434 591.2687,19.8454" id="Fill-16" fill="#F8FBF8" mask="url(#planningorganizer-mask-4)"/></g><path d="M156.0827,398.606 C156.0827,398.606 120.3117,402.125 127.9357,440.241 C135.5587,478.358 178.3667,609.713 178.3667,609.713 C178.3667,609.713 183.6437,626.719 206.5137,624.961 C229.3837,623.202 599.4097,538.171 599.4097,538.171 C599.4097,538.171 622.9887,533.48 619.7027,504.16 C616.4147,474.839 577.1247,341.724 571.2617,329.41 C565.3977,317.095 556.0147,305.367 526.6947,311.231 C497.3747,317.095 156.0827,398.606 156.0827,398.606" id="Fill-19" fill="#D5E1D5"/><path d="M162.028,358.5083 L303.272,327.0643 C303.272,327.0643 334.938,321.1993 329.074,291.8793 C323.21,262.5593 286.266,269.5963 286.266,269.5963 C286.266,269.5963 168.103,289.6143 140.307,297.9973 C95.481,311.5153 111.295,371.3943 162.028,358.5083" id="Fill-21" fill="#EFD638"/><path d="M501.4787,213.8872 C458.0207,222.1162 469.9827,288.8682 514.9657,281.9282 C556.8947,275.4592 551.0307,204.5042 501.4787,213.8872" id="Fill-23" fill="#FF0048"/><path d="M0.0421,143.2241 L46.1391,143.2241 C46.1391,143.2241 49.8881,52.4761 23.2611,49.1051 C-1.1479,46.0151 0.3911,68.6401 0.3911,68.6401 L0.0421,143.2241 Z" id="Fill-25" fill="#B02D1C"/></g></g></g><g transform="translate(-28.000000, 174.000000) scale(1 1)" id="Master/Character/Standing"><g id="Master/Character/Standing" stroke="none" stroke-width="1" fill="none" fill-rule="evenodd"><g id="Standing/Lower Body" transform="translate(14.000000, 442.000000) scale(1 1)"><g id="Standing/Lower Body/Green Pants" stroke="none" stroke-width="1" fill="none" fill-rule="evenodd"><g id="Group-332" transform="translate(187.000000, -1.000000)"><g id="Group-139" transform="translate(0.000000, 0.142000)"><path d="M161.5988,264.0726 C161.5988,264.0726 164.0338,290.4566 168.5818,299.8206 C172.3508,307.5796 177.7268,307.3156 177.7268,307.3156 L185.0968,307.3156 C185.0968,307.3156 191.8598,307.9686 192.5248,303.3116 C193.1898,298.6566 193.6888,294.9986 193.6888,294.9986 C193.6888,294.9986 194.1878,291.0086 196.3488,291.0086 C198.5658,291.0086 201.7368,296.7296 201.7368,296.7296 C201.7368,296.7296 207.8208,307.3156 215.8028,307.3156 C225.1138,307.3156 263.3558,307.8016 270.6718,303.4776 C277.9878,299.1556 280.9808,288.1806 265.3508,284.5236 C249.7218,280.8656 226.5908,279.0366 219.1188,264.0726 L161.5988,264.0726 Z" id="Fill-127" fill="#000"/><path d="M6.3669,264.0726 C6.3669,264.0726 0.8699,289.1786 3.6559,299.8206 C5.8389,308.1656 12.7999,307.3156 12.7999,307.3156 L20.1699,307.3156 C20.1699,307.3156 26.9329,307.9686 27.5979,303.3116 C28.2629,298.6566 27.6399,291.7566 31.4229,291.0086 C34.3419,290.4306 36.8099,296.7296 36.8099,296.7296 C36.8099,296.7296 40.9409,307.3156 47.0099,307.3156 C56.3209,307.3156 96.4459,307.8006 104.9559,305.1406 C114.2669,302.2316 113.6019,290.5096 99.9679,287.0176 C84.4179,283.0356 66.5749,284.1906 58.7329,264.0726 L6.3669,264.0726 Z" id="Fill-129" fill="#000"/><path d="M248.6134,285.7094 C248.6134,285.7094 263.7854,287.0594 270.0074,290.4534 C273.4984,292.3584 273.3464,297.9084 266.3634,297.5754 C259.3794,297.2434 254.7654,289.5534 249.8604,290.9254 C242.9014,292.8714 241.9624,285.1054 248.6134,285.7094" id="Fill-131" fill="#F8FBF8"/><path d="M84.0929,288.2103 C84.0929,288.2103 97.8009,289.3703 103.4219,292.2873 C106.5759,293.9253 106.4389,298.6943 100.1299,298.4093 C93.8199,298.1233 89.6509,291.5143 85.2189,292.6923 C78.9319,294.3653 78.0839,287.6903 84.0929,288.2103" id="Fill-133" fill="#F8FBF8"/><path d="M241.047,253.2416 C232.499,215.1706 196.802,82.7256 154.107,25.8826 C154.108,25.8826 154.107,25.8826 154.107,25.8826 C154.107,25.8826 155.797,0.5496 130.201,0.5496 L81.496,0.5496 C68.788,0.5496 58.258,9.8736 56.374,22.0536 L56.373,22.0536 L56.368,22.0846 C56.367,22.0946 56.365,22.1026 56.364,22.1116 L55.135,29.9066 L0.171,260.7586 C-0.717,264.4846 2.11,268.0626 5.94,268.0626 L78.237,268.0626 C83.896,268.0626 88.753,264.0336 89.797,258.4716 L116.227,117.7326 C132.805,161.2626 149.213,213.2346 153.488,257.1906 C153.867,261.0886 157.113,264.0726 161.028,264.0726 L232.37,264.0726 C238.065,264.0726 242.295,258.7976 241.047,253.2416" id="Fill-135" fill="#3D6C48"/><path d="M104.9328,178.4721 C104.8378,178.4721 104.7418,178.4631 104.6448,178.4451 C103.8318,178.2861 103.3008,177.4991 103.4578,176.6861 C103.5978,175.9661 103.7458,175.5811 103.8638,175.2731 C103.9588,175.0221 104.0358,174.8241 104.1248,174.3601 C104.1298,174.2341 104.0728,174.1161 104.0348,174.0371 C103.8278,173.6151 103.4818,172.9081 103.6928,171.8231 C103.8998,170.7601 104.4548,170.2351 104.7878,169.9201 C104.9758,169.7431 104.9758,169.7431 104.9978,169.6261 C105.0878,169.1631 105.0918,168.9511 105.0978,168.6831 C105.1038,168.3531 105.1118,167.9431 105.2508,167.2251 C105.2978,166.9841 105.2838,166.9321 105.2118,166.6801 C105.1008,166.2841 104.9318,165.6871 105.1158,164.7451 C105.3148,163.7241 105.8148,163.2011 106.1138,162.8891 C106.3038,162.6911 106.3038,162.6911 106.3338,162.5321 C106.4268,162.0571 106.4348,161.8401 106.4458,161.5651 C106.4568,161.2251 106.4718,160.8391 106.6088,160.1341 C106.6518,159.9151 106.6388,159.8771 106.5608,159.6251 C106.4328,159.2211 106.2418,158.6091 106.4288,157.6451 C106.6388,156.5641 107.2208,156.0371 107.5688,155.7231 C107.7558,155.5531 107.7558,155.5531 107.7758,155.4521 C107.8008,155.3241 107.8008,155.3241 107.6958,155.0831 C107.5138,154.6711 107.2098,153.9831 107.4138,152.9311 C107.5828,152.0661 107.8668,151.6141 108.0738,151.2841 C108.2108,151.0651 108.2678,150.9741 108.3288,150.6571 C108.3978,150.3081 108.3798,150.1801 108.3448,149.9241 C108.2948,149.5551 108.2258,149.0501 108.3878,148.2161 C108.4998,147.6421 108.5498,147.3541 108.5988,147.0651 C108.6518,146.7601 108.7038,146.4541 108.8218,145.8471 C108.9888,144.9921 109.2628,144.5421 109.4618,144.2141 C109.5958,143.9951 109.6568,143.8961 109.7198,143.5691 C109.8628,142.8351 110.0198,142.4461 110.1468,142.1331 C110.2478,141.8801 110.3228,141.6991 110.4098,141.2481 C110.5428,140.5641 110.6598,140.2091 110.7628,139.8981 C110.8488,139.6371 110.9228,139.4111 111.0198,138.9131 C111.1288,138.3521 111.1738,138.0681 111.2188,137.7841 C111.2688,137.4721 111.3188,137.1611 111.4388,136.5411 C111.5508,135.9671 111.5988,135.6811 111.6468,135.3921 C111.6968,135.0861 111.7478,134.7791 111.8658,134.1721 C111.9828,133.5731 112.0468,133.2711 112.1108,132.9731 C112.1728,132.6821 112.2348,132.3941 112.3478,131.8111 C112.4068,131.5121 112.3868,131.4181 112.3348,131.1661 C112.2548,130.7741 112.1448,130.2351 112.3168,129.3511 C112.3968,128.9431 112.3868,128.7711 112.3708,128.5101 C112.3518,128.1511 112.3268,127.7021 112.4768,126.9271 C112.6898,125.8391 113.2798,125.3141 113.6328,124.9991 C113.6978,124.9421 113.7948,124.8551 113.8138,124.8261 L113.8468,124.6701 C113.8378,124.6431 113.7798,124.5331 113.7378,124.4521 C113.5088,124.0211 113.1248,123.2981 113.3418,122.1861 C113.5088,121.3301 113.7848,120.8801 113.9848,120.5521 C114.1188,120.3331 114.1788,120.2341 114.2428,119.9081 C114.3908,119.1471 114.5708,118.7451 114.7158,118.4231 C114.8258,118.1791 114.8978,118.0171 114.9798,117.5971 C115.0468,117.2511 115.0298,117.1231 114.9948,116.8681 C114.9428,116.4971 114.8708,115.9901 115.0348,115.1531 C115.1848,114.3841 115.3708,113.9811 115.5218,113.6571 C115.6318,113.4181 115.7048,113.2601 115.7858,112.8491 C115.9338,112.0871 116.1138,111.6881 116.2578,111.3661 C116.3678,111.1211 116.4408,110.9601 116.5218,110.5401 C116.5758,110.2671 116.5578,110.1911 116.4978,109.9381 C116.4098,109.5581 116.2748,108.9841 116.4508,108.0771 C116.5368,107.6361 116.5348,107.4431 116.5308,107.1751 C116.5268,106.8321 116.5218,106.4071 116.6648,105.6651 C116.8028,104.9581 116.9348,104.5961 117.0498,104.2761 C117.1438,104.0171 117.2178,103.8121 117.3108,103.3351 C117.4368,102.6921 117.5238,102.3741 117.6098,102.0571 C117.6818,101.7921 117.7538,101.5281 117.8588,100.9911 C117.9338,100.6071 117.9198,100.4511 117.8968,100.1941 C117.8668,99.8411 117.8238,99.3591 117.9788,98.5591 C118.1868,97.4941 118.7438,96.9681 119.0768,96.6551 C119.2658,96.4761 119.2658,96.4761 119.2878,96.3581 C119.3818,95.8811 119.3898,95.6631 119.4008,95.3881 C119.4128,95.0481 119.4278,94.6621 119.5648,93.9571 C119.6758,93.3881 119.7228,93.1021 119.7698,92.8161 C119.8198,92.5061 119.8708,92.1981 119.9898,91.5831 C120.0888,91.0751 120.1088,90.8331 120.1298,90.5541 C120.1568,90.2311 120.1848,89.8661 120.3158,89.1931 C120.3928,88.7951 120.3818,88.6361 120.3628,88.3711 C120.3358,88.0051 120.3028,87.5491 120.4558,86.7611 C120.6408,85.8131 121.0298,85.3221 121.2858,84.9951 C121.4468,84.7911 121.4798,84.7491 121.5258,84.5141 C121.6018,84.1211 121.5898,83.9621 121.5698,83.7011 C121.5408,83.3311 121.5058,82.8731 121.6598,82.0811 C121.7158,81.7901 121.6978,81.7041 121.6438,81.4491 C121.5628,81.0751 121.4418,80.5081 121.6158,79.6151 C121.8218,78.5581 122.3688,78.0341 122.6948,77.7191 C122.8818,77.5381 122.8818,77.5381 122.9068,77.4131 C122.9408,77.2411 122.9368,77.2311 122.8398,76.9771 C122.6888,76.5791 122.4368,75.9141 122.6328,74.9031 C122.7948,74.0711 123.0458,73.6281 123.2288,73.3051 C123.3578,73.0771 123.4218,72.9631 123.4908,72.6111 C123.6298,71.8921 123.7768,71.5081 123.8938,71.1991 C123.9908,70.9471 124.0658,70.7461 124.1568,70.2811 C124.1938,70.0901 124.1868,70.0691 124.0968,69.8151 C123.9498,69.3981 123.7258,68.7691 123.9188,67.7751 C124.1178,66.7571 124.6078,66.2341 124.9008,65.9201 C125.0898,65.7181 125.0928,65.7141 125.1258,65.5441 C125.1668,65.3341 125.1568,65.3021 125.0738,65.0461 C124.9398,64.6371 124.7368,64.0181 124.9268,63.0411 C125.0858,62.2281 125.8828,61.7001 126.6868,61.8571 C127.4998,62.0151 128.0308,62.8031 127.8718,63.6161 C127.8298,63.8261 127.8408,63.8601 127.9248,64.1151 C128.0588,64.5241 128.2608,65.1421 128.0718,66.1181 C127.8728,67.1351 127.3828,67.6591 127.0898,67.9711 C126.9008,68.1731 126.8978,68.1771 126.8648,68.3471 C126.8278,68.5381 126.8338,68.5591 126.9238,68.8141 C127.0718,69.2301 127.2948,69.8601 127.1018,70.8541 C126.9618,71.5731 126.8158,71.9561 126.6988,72.2651 C126.6018,72.5181 126.5268,72.7181 126.4358,73.1841 C126.2738,74.0161 126.0228,74.4591 125.8398,74.7831 C125.7108,75.0091 125.6468,75.1231 125.5788,75.4761 C125.5438,75.6491 125.5478,75.6591 125.6448,75.9121 C125.7958,76.3101 126.0478,76.9751 125.8518,77.9871 C125.6468,79.0431 125.0998,79.5691 124.7738,79.8821 C124.5848,80.0641 124.5848,80.0641 124.5608,80.1891 C124.5038,80.4801 124.5228,80.5661 124.5778,80.8221 C124.6578,81.1961 124.7788,81.7621 124.6048,82.6551 C124.5278,83.0471 124.5398,83.2051 124.5608,83.4681 C124.5888,83.8361 124.6248,84.2951 124.4708,85.0861 C124.2868,86.0341 123.8988,86.5281 123.6418,86.8531 C123.4808,87.0581 123.4468,87.1001 123.4018,87.3341 C123.3248,87.7311 123.3348,87.8911 123.3548,88.1561 C123.3808,88.5221 123.4138,88.9781 123.2608,89.7651 C123.1618,90.2721 123.1428,90.5131 123.1208,90.7911 C123.0948,91.1151 123.0658,91.4811 122.9348,92.1571 C122.8238,92.7261 122.7768,93.0131 122.7298,93.2991 C122.6798,93.6081 122.6288,93.9161 122.5098,94.5311 C122.4158,95.0081 122.4088,95.2261 122.3978,95.5011 C122.3848,95.8411 122.3698,96.2261 122.2338,96.9321 C122.0258,97.9961 121.4688,98.5221 121.1358,98.8361 C120.9468,99.0141 120.9468,99.0141 120.9238,99.1331 C120.8488,99.5161 120.8628,99.6721 120.8858,99.9291 C120.9158,100.2821 120.9588,100.7641 120.8038,101.5641 C120.6778,102.2101 120.5908,102.5281 120.5038,102.8471 C120.4318,103.1111 120.3598,103.3751 120.2558,103.9091 C120.1188,104.6151 119.9868,104.9771 119.8708,105.2971 C119.7778,105.5561 119.7038,105.7611 119.6108,106.2381 C119.5248,106.6761 119.5278,106.8701 119.5308,107.1381 C119.5358,107.4811 119.5398,107.9081 119.3958,108.6511 C119.3418,108.9251 119.3598,109.0011 119.4188,109.2541 C119.5078,109.6341 119.6428,110.2081 119.4668,111.1151 C119.3188,111.8751 119.1388,112.2751 118.9948,112.5961 C118.8848,112.8401 118.8118,113.0011 118.7308,113.4211 C118.5808,114.1911 118.3938,114.5941 118.2438,114.9181 C118.1328,115.1581 118.0598,115.3161 117.9798,115.7271 C117.9118,116.0721 117.9298,116.2001 117.9648,116.4541 C118.0168,116.8261 118.0878,117.3331 117.9248,118.1711 C117.7768,118.9321 117.5958,119.3311 117.4518,119.6541 C117.3418,119.8981 117.2698,120.0591 117.1878,120.4801 C117.0208,121.3371 116.7458,121.7871 116.5448,122.1161 C116.4118,122.3341 116.3508,122.4341 116.2868,122.7601 C116.2868,122.8571 116.3448,122.9661 116.3878,123.0461 C116.6168,123.4781 116.9988,124.2001 116.7838,125.3111 C116.5708,126.4001 115.9808,126.9261 115.6268,127.2401 C115.5628,127.2971 115.4648,127.3851 115.4468,127.4131 C115.3418,127.9091 115.3518,128.0801 115.3678,128.3411 C115.3868,128.7011 115.4118,129.1491 115.2618,129.9241 C115.2038,130.2201 115.2228,130.3141 115.2748,130.5661 C115.3558,130.9591 115.4648,131.4981 115.2928,132.3841 C115.1738,132.9941 115.1098,133.2961 115.0438,133.6011 C114.9838,133.8861 114.9218,134.1731 114.8108,134.7451 C114.7008,135.3101 114.6538,135.5971 114.6058,135.8821 C114.5548,136.1921 114.5038,136.4991 114.3838,137.1161 C114.2728,137.6841 114.2278,137.9691 114.1818,138.2551 C114.1328,138.5641 114.0838,138.8731 113.9648,139.4871 C113.8308,140.1711 113.7148,140.5251 113.6118,140.8371 C113.5258,141.0981 113.4518,141.3241 113.3548,141.8221 C113.2118,142.5541 113.0548,142.9441 112.9278,143.2571 C112.8268,143.5091 112.7518,143.6921 112.6648,144.1411 C112.4988,144.9961 112.2248,145.4471 112.0248,145.7751 C111.8908,145.9931 111.8298,146.0941 111.7668,146.4211 C111.6548,146.9941 111.6048,147.2831 111.5558,147.5721 C111.5028,147.8761 111.4518,148.1821 111.3328,148.7891 C111.2658,149.1361 111.2838,149.2641 111.3178,149.5201 C111.3688,149.8891 111.4368,150.3961 111.2748,151.2301 C111.1068,152.0941 110.8228,152.5461 110.6158,152.8771 C110.4778,153.0961 110.4208,153.1871 110.3598,153.5041 C110.3338,153.6321 110.3338,153.6321 110.4408,153.8731 C110.6218,154.2851 110.9258,154.9741 110.7208,156.0271 C110.5098,157.1081 109.9278,157.6341 109.5808,157.9491 C109.3938,158.1181 109.3938,158.1181 109.3738,158.2171 C109.3308,158.4371 109.3438,158.4751 109.4218,158.7271 C109.5498,159.1311 109.7418,159.7431 109.5538,160.7071 C109.4608,161.1831 109.4538,161.4011 109.4428,161.6751 C109.4308,162.0151 109.4158,162.4011 109.2798,163.1061 C109.0788,164.1291 108.5788,164.6511 108.2818,164.9631 C108.0908,165.1611 108.0908,165.1611 108.0608,165.3201 C108.0138,165.5601 108.0288,165.6131 108.0998,165.8651 C108.2108,166.2601 108.3798,166.8571 108.1968,167.7981 C108.1068,168.2601 108.1018,168.4721 108.0968,168.7411 C108.0908,169.0701 108.0828,169.4811 107.9438,170.1991 C107.7368,171.2621 107.1808,171.7871 106.8478,172.1021 C106.6608,172.2791 106.6608,172.2791 106.6378,172.3961 C106.6328,172.5241 106.6908,172.6411 106.7288,172.7191 C106.9358,173.1421 107.2818,173.8491 107.0708,174.9341 C106.9298,175.6531 106.7838,176.0361 106.6648,176.3441 C106.5698,176.5961 106.4938,176.7941 106.4038,177.2571 C106.2638,177.9741 105.6358,178.4721 104.9328,178.4721" id="Fill-137" fill="#000"/></g></g></g></g><g id="Upper Body" transform="translate(-1.000000, 0.000000) scale(1 1)"><g id="Upper Body/Scientist" stroke="none" stroke-width="1" fill="none" fill-rule="evenodd"><g id="Group-691" transform="translate(202.500000, 272.500000)"><g id="Group-508" transform="translate(0.000000, 0.095000)"><path d="M88.4009,29.9342 C88.4009,29.9342 -11.6231,99.6842 1.9399,159.4312 C9.2159,191.4822 33.1019,194.6812 33.1019,194.6812 L88.4009,29.9342 Z" id="Fill-454" fill="#D5E1D5"/><path d="M44.3399,139.7135 C44.3399,139.7135 12.2059,140.0225 9.8999,168.1835 L39.0989,165.5065 L44.3399,139.7135 Z" id="Fill-456" fill="#FEF864"/><path d="M42.8428,147.1959 C42.8428,147.1959 15.1448,142.5239 8.6348,172.8829 C2.0128,203.7679 30.2768,208.6559 30.2768,208.6559 L42.8428,147.1959 Z" id="Fill-458" fill="#feb1cd"/><path d="M32.4244,198.1764 C32.2964,198.1764 32.1664,198.1594 32.0364,198.1254 C28.7364,197.2454 13.8514,192.9854 13.2184,192.8044 C12.4224,192.5754 11.9614,191.7454 12.1894,190.9494 C12.4174,190.1534 13.2414,189.6924 14.0444,189.9204 C14.1984,189.9644 29.5354,194.3544 32.8104,195.2274 C33.6104,195.4404 34.0864,196.2624 33.8724,197.0634 C33.6944,197.7344 33.0874,198.1764 32.4244,198.1764" id="Fill-460" fill="#000"/><path d="M36.1529,185.5983 C36.0549,185.5983 35.9569,185.5883 35.8569,185.5693 C30.6109,184.5203 13.9479,180.0363 13.2419,179.8463 C12.4409,179.6303 11.9669,178.8073 12.1829,178.0073 C12.3979,177.2073 13.2209,176.7343 14.0209,176.9503 C14.1939,176.9953 31.2959,181.5983 36.4449,182.6273 C37.2569,182.7893 37.7839,183.5793 37.6219,184.3923 C37.4789,185.1053 36.8529,185.5983 36.1529,185.5983" id="Fill-462" fill="#000"/><path d="M37.9498,172.6344 C37.8388,172.6344 37.7258,172.6214 37.6128,172.5964 C33.3048,171.6054 15.7878,167.9864 15.6108,167.9494 C14.8008,167.7814 14.2778,166.9884 14.4458,166.1774 C14.6138,165.3654 15.4038,164.8474 16.2188,165.0114 C16.3948,165.0484 33.9448,168.6744 38.2848,169.6724 C39.0928,169.8584 39.5958,170.6624 39.4108,171.4704 C39.2508,172.1644 38.6338,172.6344 37.9498,172.6344" id="Fill-464" fill="#000"/><path d="M40.4859,160.2281 C40.3789,160.2281 40.2689,160.2161 40.1599,160.1921 L35.8049,159.2211 C30.8039,158.1041 25.1349,156.8381 23.7319,156.5841 C22.9169,156.4381 22.3759,155.6581 22.5219,154.8421 C22.6699,154.0271 23.4449,153.4911 24.2649,153.6321 C25.7289,153.8971 31.1839,155.1151 36.4589,156.2931 L40.8099,157.2631 C41.6189,157.4431 42.1289,158.2451 41.9489,159.0531 C41.7939,159.7521 41.1739,160.2281 40.4859,160.2281" id="Fill-466" fill="#000"/><path d="M225.0865,68.861 L213.9595,66.424 C213.9595,66.424 205.2635,64.18 203.1565,71.442 C200.6415,80.116 209.4005,82.479 209.4005,82.479 L223.5745,85.904 L224.0685,75.518 C224.0685,75.518 224.0485,71.955 225.0865,68.861" id="Fill-468" fill="#3164CF"/><path d="M235.8672,82.5905 C235.8672,82.5905 239.4922,77.2475 242.9442,72.7715 L234.7032,70.9665 C235.9472,76.1785 235.8672,82.5905 235.8672,82.5905" id="Fill-470" fill="#3164CF"/><path d="M247.397,91.7408 C247.397,91.7408 247.407,91.7118 247.423,91.6678 L247.508,91.6878 C247.436,91.7208 247.397,91.7408 247.397,91.7408 M248.425,91.9098 L248.424,91.9098 C248.731,91.0628 250.963,84.3738 253.674,80.1668 C255.394,77.4968 255.899,76.7578 256.636,75.7688 C261.367,69.4318 266.351,62.6348 263.888,59.6598 C259.834,54.7628 252.447,62.1228 247.531,67.4738 C246.481,68.6168 244.676,70.5258 242.944,72.7708 C239.492,77.2478 235.867,82.5908 235.867,82.5908 C235.867,82.5908 235.947,76.1778 234.703,70.9668 C233.851,67.3968 232.378,64.3898 229.834,64.3898 C227.302,64.3898 225.883,66.4878 225.086,68.8608 C224.049,71.9548 224.069,75.5178 224.069,75.5178 L223.574,85.9038 L222.862,100.8568 L236.299,138.3958 L260.402,123.3818 C272.889,114.4738 273.965,104.3188 271.109,97.3918 L249.377,92.1398 C249.306,92.1738 248.425,91.9098 248.425,91.9098" id="Fill-472" fill="#feb1cd"/><path d="M247.397,91.7408 C247.397,91.7408 247.436,91.7208 247.508,91.6878 L247.423,91.6678 C247.407,91.7118 247.397,91.7408 247.397,91.7408" id="Fill-474" fill="#feb1cd"/><path d="M249.377,92.1403 L271.109,97.3923 L249.377,92.1403 Z" id="Fill-476" fill="#feb1cd"/><path d="M248.9029,102.3375 C248.3909,102.3375 247.8929,102.0755 247.6129,101.6055 C247.1879,100.8935 247.4219,99.9735 248.1329,99.5485 C248.4799,99.3425 256.7149,94.4565 263.8499,92.1815 C264.6459,91.9285 265.4839,92.3655 265.7349,93.1545 C265.9869,93.9435 265.5509,94.7875 264.7619,95.0395 C257.9589,97.2085 249.7509,102.0765 249.6689,102.1255 C249.4279,102.2695 249.1639,102.3375 248.9029,102.3375" id="Fill-478" fill="#000"/><path d="M253.8795,113.2946 C253.3905,113.2946 252.9105,113.0556 252.6225,112.6146 C252.1695,111.9216 252.3645,110.9916 253.0585,110.5386 C253.5435,110.2226 265.0235,102.7476 271.7365,100.2526 C272.5095,99.9626 273.3765,100.3576 273.6655,101.1356 C273.9535,101.9116 273.5585,102.7746 272.7815,103.0646 C266.3795,105.4436 254.8155,112.9756 254.6985,113.0506 C254.4455,113.2166 254.1605,113.2946 253.8795,113.2946" id="Fill-480" fill="#000"/><path d="M281.191,81.1461 L256.636,75.7691 C255.899,76.7571 255.394,77.4971 253.674,80.1671 C250.963,84.3741 248.731,91.0631 248.424,91.9101 L248.425,91.9101 L249.377,92.1401 L271.109,97.3921 L277.333,98.8961 C277.848,99.0211 278.37,99.1141 278.893,99.1921 C276.681,90.5841 279.147,84.4341 281.191,81.1461" id="Fill-482" fill="#3164CF"/><path d="M284.3174,99.1696 L295.7184,97.3416 C296.5654,97.2056 297.2564,96.5936 297.4934,95.7706 L298.1184,93.5996 C298.3774,92.7006 298.0424,91.7356 297.2814,91.1906 L286.3144,83.3316 C284.9034,82.3206 283.3024,81.6076 281.6074,81.2366 L281.1914,81.1466 C279.1464,84.4346 276.6804,90.5836 278.8924,99.1916 C280.6894,99.4596 282.5184,99.4576 284.3174,99.1696" id="Fill-484" fill="#FEF864"/><path d="M296.5626,91.6647 C295.7706,91.5617 294.8246,91.5107 294.1606,93.7607 C293.4956,96.0097 296.0006,96.6227 296.0006,96.6227 L300.5076,97.7467 C300.5076,97.7467 302.1856,98.3037 302.7476,97.0537 C303.3106,95.8047 304.0226,93.6357 302.5406,93.1757 C301.0586,92.7157 298.0846,91.8607 296.5626,91.6647" id="Fill-486" fill="#000"/><path d="M63.3399,46.7877 L21.5539,246.8657 C20.8709,250.2077 23.4239,253.3357 26.8349,253.3357 L195.0019,253.3357 C198.2529,253.3357 200.7639,250.4787 200.3479,247.2547 L165.2179,29.9337 L83.9879,29.9337 C73.9759,29.9337 65.3449,36.9787 63.3399,46.7877" id="Fill-488" fill="#F8FBF8"/><path d="M88.4009,29.9342 C88.4009,29.9342 122.6519,48.0302 135.2889,49.6932 C147.9259,51.3562 165.8829,51.7442 165.2179,29.9342 L88.4009,29.9342 Z" id="Fill-490" fill="#D5E1D5"/><path d="M144.9835,72.8092 L170.1795,120.2212 C170.5725,120.9592 171.4605,121.2812 172.2345,120.9642 L207.4505,106.5572 L226.3675,159.4062 C227.5025,162.5752 225.9255,166.0752 222.7995,167.3252 L173.5315,187.0332 C173.5315,187.0332 139.6125,198.3382 121.9875,164.0872 C104.3625,129.8352 88.4005,98.2442 88.4005,98.2442 C88.4005,98.2442 73.0575,64.3562 102.3675,56.5572 C136.2865,47.5322 144.9835,72.8092 144.9835,72.8092" id="Fill-492" fill="#F8FBF8"/><path d="M192.3199,162.0084 C193.3829,167.0114 201.3769,166.4974 201.381904,161.4264 C201.3889,154.0284 190.9069,155.3584 192.3199,162.0084" id="Fill-494" fill="#D5E1D5"/><path d="M80.7525,253.3356 L96.4945,204.8506 C97.0225,203.2256 98.5365,202.1246 100.2445,202.1246 L155.9525,202.1246 C157.5805,202.1246 158.8995,203.4436 158.8995,205.0716 L158.8995,253.3356 L80.7525,253.3356 Z" id="Fill-496" fill="#D5E1D5"/><path d="M207.4507,106.5573 L223.1527,100.4263 L239.5737,146.3013 C240.2957,148.3183 239.3137,150.5473 237.3387,151.3753 L225.3007,156.4243 L207.4507,106.5573 Z" id="Fill-498" fill="#FEF864"/><path d="M159.3912,190.2731 C158.6912,190.2731 158.0942,190.0441 157.6142,189.8611 C157.3832,189.7731 157.0962,189.6641 156.9682,189.6581 C156.8422,189.6561 156.5342,189.7471 156.2902,189.8231 C155.7982,189.9771 155.1862,190.1691 154.4952,190.1061 C154.2342,190.0831 153.9162,190.1051 153.5812,190.1271 C153.1092,190.1611 152.5732,190.2001 152.0092,190.1191 C151.2102,190.0051 150.6262,189.5661 150.1572,189.2121 C150.0052,189.0981 149.7762,188.9251 149.6852,188.8911 C149.6202,188.8911 149.3132,188.9611 149.1092,189.0091 C148.5632,189.1341 147.8862,189.2901 147.1532,189.1021 C146.5762,188.9541 146.0762,188.7111 145.6342,188.4981 C145.3482,188.3591 145.0782,188.2281 144.8482,188.1541 C144.1672,187.9351 143.6642,187.5221 143.2592,187.1901 C143.0722,187.0361 142.8372,186.8441 142.7192,186.7971 C142.5892,186.7471 142.2732,186.7351 142.0182,186.7261 C141.4952,186.7081 140.8462,186.6851 140.2102,186.3851 C139.6282,186.1111 139.1012,185.8061 138.5912,185.5121 L138.0252,185.1881 C137.3892,184.8341 136.9772,184.3191 136.6452,183.9061 C136.4952,183.7191 136.3082,183.4871 136.2072,183.4211 C136.0402,183.3121 135.7632,183.2191 135.4702,183.1211 C134.9842,182.9581 134.4322,182.7731 133.9192,182.3811 C133.4162,181.9981 133.0512,181.5571 132.7282,181.1691 C132.5372,180.9401 132.3582,180.7231 132.1952,180.5791 C131.9562,180.3671 131.7042,180.1791 131.4612,179.9971 C131.0652,179.6981 130.6552,179.3901 130.2792,179.0001 C130.0862,178.8001 129.8272,178.6101 129.5522,178.4081 C129.1622,178.1221 128.7202,177.7961 128.3592,177.3551 C127.8192,176.6961 127.6382,175.9461 127.5072,175.3991 C127.4662,175.2311 127.4112,175.0011 127.3752,174.9271 C127.1132,174.5441 126.9452,174.3161 126.8232,174.1511 C126.5372,173.7641 126.4182,173.5911 126.0352,172.8361 C125.9512,172.6691 125.9422,172.6651 125.7122,172.5211 C125.3402,172.2891 124.7782,171.9371 124.3122,171.0481 C123.8542,170.1701 123.8712,169.5241 123.8832,169.0951 C123.8902,168.8331 123.8912,168.7991 123.7942,168.6141 C123.4992,168.0511 123.3662,167.7631 123.2322,167.4741 C123.1142,167.2201 122.9952,166.9641 122.7362,166.4671 C122.4262,165.8771 122.2992,165.5661 122.1722,165.2541 C122.0722,165.0091 121.9722,164.7641 121.7272,164.2971 C121.6742,164.1971 121.6742,164.1971 121.4492,164.0841 C121.0392,163.8781 120.3562,163.5371 119.8542,162.5781 C119.4942,161.8881 119.3882,161.4601 119.3032,161.1161 C119.2412,160.8621 119.2002,160.6951 119.0062,160.3261 C118.7472,159.8321 118.6062,159.5911 118.4632,159.3511 C118.3012,159.0781 118.1392,158.8031 117.8452,158.2411 C117.5132,157.6071 117.3912,157.2431 117.2832,156.9211 C117.1962,156.6641 117.1272,156.4601 116.9062,156.0361 C116.6252,155.4991 116.4882,155.2281 116.3512,154.9591 C116.2182,154.6961 116.0852,154.4331 115.8122,153.9111 C115.3952,153.1141 115.3472,152.5441 115.3152,152.1671 C115.2932,151.9101 115.2862,151.8231 115.1502,151.5621 C115.0902,151.4471 115.0902,151.4471 114.8622,151.3271 C114.4662,151.1191 113.8042,150.7711 113.3112,149.8271 C112.9672,149.1701 112.8482,148.7711 112.7512,148.4511 C112.6742,148.1921 112.6192,148.0061 112.4092,147.6041 C111.9762,146.7771 111.9522,146.1771 111.9362,145.7811 C111.9252,145.5261 111.9222,145.4571 111.8022,145.2251 C111.6522,144.9391 111.5722,144.8681 111.3792,144.6951 C111.0932,144.4391 110.7032,144.0881 110.3002,143.3191 C110.0422,142.8261 109.9002,142.5861 109.7572,142.3471 C109.5942,142.0721 109.4312,141.7971 109.1352,141.2321 C108.8232,140.6341 108.6902,140.3001 108.5732,140.0051 C108.4762,139.7631 108.3792,139.5211 108.1392,139.0601 C107.9862,138.7681 107.9002,138.6901 107.7132,138.5191 C107.4322,138.2631 107.0472,137.9131 106.6482,137.1491 C106.1942,136.2811 106.2062,135.6411 106.2142,135.2171 C106.2192,134.9541 106.2202,134.9201 106.1212,134.7321 C106.0042,134.5081 105.9552,134.4711 105.7482,134.3181 C105.4262,134.0791 104.9402,133.7171 104.5042,132.8841 C104.0372,131.9931 104.0732,131.3301 104.0962,130.8911 C104.1102,130.6261 104.1112,130.6101 104.0252,130.4471 C103.9082,130.2211 103.8592,130.1851 103.6522,130.0321 C103.3312,129.7931 102.8472,129.4321 102.4122,128.6011 C102.2312,128.2521 102.1232,128.1391 101.9482,127.9501 C101.6982,127.6821 101.3872,127.3491 101.0172,126.6411 C100.5852,125.8171 100.5602,125.2191 100.5422,124.8251 C100.5322,124.5691 100.5292,124.5001 100.4072,124.2671 C100.0212,123.5281 99.9372,123.0361 99.8762,122.6771 C99.8332,122.4211 99.8112,122.2931 99.6452,121.9751 C99.4302,121.5621 99.3092,121.4061 99.1412,121.1881 C98.9412,120.9281 98.6922,120.6051 98.3562,119.9611 C98.2772,119.8111 98.2732,119.8091 98.0402,119.6711 C97.6772,119.4571 97.0692,119.0961 96.5952,118.1891 C96.1812,117.3981 96.1312,116.8551 96.0952,116.4601 C96.0732,116.2071 96.0642,116.1131 95.9252,115.8471 C95.7582,115.5281 95.6642,115.4361 95.4792,115.2531 C95.2202,114.9991 94.8652,114.6491 94.4792,113.9121 C94.1592,113.2981 94.0302,112.9521 93.9172,112.6451 C93.8192,112.3801 93.7422,112.1711 93.5092,111.7281 C93.2992,111.3241 93.1772,111.1711 93.0102,110.9601 C92.8012,110.6991 92.5422,110.3731 92.2002,109.7161 C91.7152,108.7921 91.7872,108.0671 91.8312,107.6331 C91.8582,107.3711 91.8582,107.3711 91.7892,107.2411 C91.6332,106.9411 91.5472,106.8611 91.3592,106.6871 C91.0822,106.4311 90.7042,106.0821 90.3082,105.3241 C89.9282,104.5961 89.8382,104.1161 89.7722,103.7651 C89.7252,103.5111 89.6992,103.3721 89.5262,103.0421 C89.4342,102.8661 89.4152,102.8541 89.1912,102.7101 C88.8272,102.4771 88.2772,102.1251 87.8162,101.2431 C87.4822,100.6041 87.3562,100.2201 87.2542,99.9121 C87.1712,99.6571 87.1052,99.4551 86.8862,99.0361 C86.5022,98.3011 86.7862,97.3951 87.5212,97.0111 C88.2522,96.6291 89.1612,96.9121 89.5442,97.6461 C89.8782,98.2851 90.0042,98.6691 90.1062,98.9771 C90.1892,99.2331 90.2552,99.4341 90.4742,99.8531 C90.5662,100.0291 90.5842,100.0411 90.8092,100.1841 C91.1732,100.4181 91.7232,100.7701 92.1842,101.6521 C92.5652,102.3781 92.6552,102.8601 92.7212,103.2111 C92.7682,103.4641 92.7942,103.6041 92.9672,103.9341 C93.1222,104.2311 93.2082,104.3111 93.3972,104.4851 C93.6732,104.7411 94.0522,105.0911 94.4492,105.8501 C94.9332,106.7761 94.8602,107.5011 94.8172,107.9341 C94.7892,108.1971 94.7892,108.1971 94.8582,108.3271 C95.0682,108.7301 95.1902,108.8821 95.3572,109.0931 C95.5662,109.3551 95.8252,109.6811 96.1672,110.3371 C96.4902,110.9511 96.6182,111.2981 96.7312,111.6061 C96.8252,111.8601 96.9062,112.0801 97.1372,112.5221 C97.3042,112.8401 97.3972,112.9321 97.5822,113.1151 C97.8422,113.3701 98.1982,113.7191 98.5832,114.4581 C98.9972,115.2491 99.0472,115.7921 99.0832,116.1871 C99.1062,116.4401 99.1152,116.5341 99.2532,116.7991 C99.3322,116.9501 99.3362,116.9531 99.5692,117.0891 C99.9322,117.3051 100.5402,117.6651 101.0142,118.5721 C101.2292,118.9831 101.3502,119.1391 101.5182,119.3571 C101.7182,119.6171 101.9672,119.9401 102.3042,120.5851 C102.6902,121.3231 102.7732,121.8161 102.8342,122.1751 C102.8772,122.4311 102.9002,122.5591 103.0652,122.8771 C103.4962,123.7021 103.5232,124.2991 103.5392,124.6951 C103.5512,124.9511 103.5542,125.0191 103.6752,125.2521 C103.8572,125.5991 103.9632,125.7131 104.1402,125.9021 C104.3902,126.1691 104.7012,126.5021 105.0712,127.2111 C105.1882,127.4351 105.2372,127.4711 105.4432,127.6251 C105.7642,127.8641 106.2482,128.2241 106.6832,129.0561 C107.1502,129.9471 107.1152,130.6111 107.0912,131.0491 C107.0782,131.3141 107.0772,131.3301 107.1622,131.4941 C107.2802,131.7181 107.3292,131.7551 107.5362,131.9091 C107.8582,132.1481 108.3442,132.5091 108.7802,133.3421 C109.2342,134.2101 109.2222,134.8501 109.2132,135.2741 C109.2082,135.5371 109.2082,135.5701 109.3072,135.7581 C109.4602,136.0531 109.5462,136.1311 109.7342,136.3021 C110.0142,136.5571 110.3982,136.9081 110.7972,137.6701 C111.1102,138.2681 111.2432,138.6021 111.3602,138.8971 C111.4562,139.1391 111.5532,139.3811 111.7932,139.8421 C112.0512,140.3351 112.1942,140.5751 112.3362,140.8141 C112.4992,141.0881 112.6622,141.3631 112.9582,141.9281 C113.1092,142.2161 113.1892,142.2891 113.3812,142.4601 C113.6662,142.7161 114.0572,143.0671 114.4602,143.8351 C114.8932,144.6641 114.9172,145.2621 114.9332,145.6591 C114.9442,145.9151 114.9472,145.9831 115.0672,146.2141 C115.4112,146.8701 115.5302,147.2691 115.6252,147.5901 C115.7032,147.8481 115.7592,148.0351 115.9692,148.4361 C116.0302,148.5511 116.0302,148.5511 116.2582,148.6711 C116.6532,148.8791 117.3152,149.2271 117.8082,150.1711 C118.2252,150.9681 118.2732,151.5391 118.3052,151.9161 C118.3272,152.1721 118.3332,152.2591 118.4702,152.5201 C118.7522,153.0601 118.8902,153.3311 119.0282,153.6021 C119.1602,153.8641 119.2922,154.1261 119.5642,154.6451 C119.8962,155.2791 120.0182,155.6431 120.1262,155.9641 C120.2132,156.2221 120.2822,156.4261 120.5032,156.8511 C120.7612,157.3431 120.9032,157.5841 121.0452,157.8231 C121.2072,158.0971 121.3702,158.3711 121.6642,158.9351 C122.0262,159.6251 122.1312,160.0531 122.2162,160.3981 C122.2792,160.6521 122.3202,160.8191 122.5122,161.1881 C122.5652,161.2881 122.5652,161.2881 122.7912,161.4011 C123.2002,161.6051 123.8842,161.9481 124.3852,162.9071 C124.6952,163.4991 124.8222,163.8091 124.9492,164.1211 C125.0492,164.3661 125.1492,164.6111 125.3942,165.0781 C125.6862,165.6371 125.8202,165.9241 125.9532,166.2111 C126.0722,166.4671 126.1902,166.7231 126.4532,167.2231 C126.9112,168.1011 126.8932,168.7491 126.8812,169.1761 C126.8742,169.4391 126.8732,169.4731 126.9702,169.6591 C127.0572,169.8241 127.0762,169.8361 127.3012,169.9761 C127.6782,170.2111 128.2472,170.5671 128.7092,171.4771 C128.9992,172.0481 129.0362,172.0971 129.2372,172.3691 C129.3722,172.5541 129.5612,172.8091 129.8762,173.2731 C130.1942,173.7401 130.3162,174.2491 130.4242,174.6981 C130.4952,174.9921 130.5752,175.3261 130.6802,175.4541 C130.8022,175.6031 131.0582,175.7921 131.3292,175.9911 C131.6762,176.2461 132.0692,176.5351 132.4392,176.9191 C132.6482,177.1351 132.9472,177.3601 133.2632,177.5981 C133.5722,177.8301 133.8862,178.0681 134.1892,178.3361 C134.5212,178.6321 134.7942,178.9611 135.0362,179.2521 C135.2782,179.5441 135.5072,179.8191 135.7412,179.9981 C135.8582,180.0861 136.1582,180.1871 136.4232,180.2761 C136.8402,180.4171 137.3602,180.5901 137.8512,180.9121 C138.3492,181.2381 138.7012,181.6751 138.9842,182.0271 C139.1532,182.2381 139.3632,182.5001 139.4882,182.5691 C139.6872,182.6801 139.8882,182.7961 140.0912,182.9141 C140.5482,183.1781 141.0212,183.4511 141.4902,183.6711 C141.5842,183.7101 141.9092,183.7201 142.1232,183.7281 C142.6082,183.7461 143.2102,183.7661 143.8182,184.0061 C144.3742,184.2251 144.8112,184.5831 145.1622,184.8711 C145.3812,185.0501 145.6292,185.2541 145.7682,185.2981 C146.1972,185.4371 146.5762,185.6201 146.9412,185.7971 C147.2872,185.9641 147.6142,186.1231 147.9012,186.1971 C147.9582,186.1951 148.2452,186.1291 148.4362,186.0861 C148.9532,185.9661 149.5972,185.8171 150.3032,185.9581 C151.0032,186.0951 151.5342,186.4951 151.9602,186.8151 C152.1222,186.9371 152.3702,187.1231 152.4672,187.1561 C152.6772,187.1831 153.0152,187.1601 153.3732,187.1351 C153.7912,187.1061 154.2652,187.0731 154.7682,187.1191 C154.8562,187.1181 155.1852,187.0251 155.3922,186.9601 C155.8592,186.8141 156.4382,186.6311 157.1002,186.6611 C157.7142,186.6871 158.2522,186.8931 158.6852,187.0591 C158.9482,187.1601 159.2452,187.2731 159.3902,187.2731 C159.6582,187.2731 159.9922,187.2101 160.3462,187.1451 C160.7472,187.0701 161.2032,186.9861 161.6922,186.9651 C162.0862,186.9491 162.4842,186.9661 162.8872,186.9861 C163.2882,187.0051 163.6672,187.0231 164.0142,186.9971 L164.7792,186.9421 C165.2902,186.9071 165.8102,186.8721 166.3332,186.8101 C166.4512,186.7971 166.7432,186.6461 166.9552,186.5361 C167.3832,186.3141 167.9142,186.0391 168.5542,185.9431 C169.1042,185.8621 169.6102,185.9071 170.0552,185.9461 C170.3862,185.9761 170.6982,186.0041 170.9162,185.9641 C171.4392,185.8701 171.9472,185.8831 172.3912,185.8961 C172.7122,185.9051 173.0152,185.9141 173.2452,185.8791 C173.5892,185.7531 173.7262,185.6621 173.9422,185.5171 C174.2312,185.3241 174.5912,185.0841 175.2862,184.8101 C176.0302,184.5161 176.4802,184.4601 176.8412,184.4141 C177.1072,184.3791 177.2822,184.3571 177.6762,184.2021 C178.2732,183.9661 178.5762,183.8611 178.8782,183.7551 C179.1542,183.6591 179.4292,183.5621 179.9712,183.3491 C180.2272,183.2491 180.2762,183.1961 180.4592,183.0001 C180.7372,182.7041 181.1552,182.2561 182.0392,181.9081 C182.6892,181.6521 183.0502,181.5551 183.3692,181.4701 C183.6442,181.3971 183.8812,181.3341 184.3712,181.1401 C185.1422,180.8361 186.0132,181.2141 186.3172,181.9861 C186.6202,182.7571 186.2422,183.6281 185.4712,183.9311 C184.8212,184.1871 184.4602,184.2841 184.1422,184.3691 C183.8682,184.4421 183.6292,184.5051 183.1392,184.6991 C182.8832,184.7991 182.8342,184.8521 182.6512,185.0481 C182.3732,185.3441 181.9552,185.7921 181.0712,186.1401 C180.4742,186.3761 180.1712,186.4811 179.8692,186.5861 C179.5932,186.6831 179.3182,186.7801 178.7762,186.9931 C178.0322,187.2861 177.5822,187.3431 177.2202,187.3891 C176.9552,187.4231 176.7812,187.4451 176.3852,187.6011 C175.9902,187.7561 175.8302,187.8631 175.6102,188.0111 C175.2982,188.2191 174.9122,188.4771 174.1272,188.7501 C174.0682,188.7701 174.0082,188.7871 173.9472,188.8001 C173.3602,188.9251 172.8002,188.9091 172.3072,188.8951 C171.9762,188.8841 171.6652,188.8771 171.4542,188.9161 C170.8392,189.0281 170.2812,188.9781 169.7892,188.9341 C169.4832,188.9081 169.1962,188.8831 168.9982,188.9101 C168.8522,188.9321 168.5782,189.0741 168.3352,189.2001 C167.8922,189.4281 167.3422,189.7131 166.6792,189.7911 C166.1092,189.8571 165.5422,189.8961 164.9842,189.9341 L164.2522,189.9871 C163.7112,190.0301 163.1952,190.0041 162.7402,189.9831 C162.4292,189.9671 162.1222,189.9501 161.8162,189.9621 C161.5412,189.9741 161.2272,190.0331 160.8952,190.0941 C160.4452,190.1781 159.9352,190.2731 159.3912,190.2731" id="Fill-500" fill="#000"/><path d="M170.8365,121.9586 C170.4825,121.9586 170.0785,121.8916 169.6135,121.7156 C168.1435,121.1576 167.9005,120.1296 167.7565,119.5156 C167.7015,119.2836 167.6575,119.1006 167.5475,118.8926 C167.1445,118.1326 167.0675,117.6186 167.0125,117.2436 C166.9745,116.9846 166.9575,116.8676 166.7965,116.5646 C166.6825,116.3506 166.6375,116.3186 166.4245,116.1686 C166.0885,115.9316 165.5805,115.5736 165.1305,114.7276 C164.8575,114.2156 164.7155,113.9586 164.5745,113.7056 C164.4235,113.4336 164.2735,113.1646 163.9815,112.6136 L162.8485,110.4956 C162.5575,109.9486 162.4185,109.6756 162.2775,109.3996 C162.1465,109.1406 162.0135,108.8786 161.7395,108.3636 C161.3955,107.7176 161.2705,107.3236 161.1685,107.0086 C161.0845,106.7456 161.0235,106.5566 160.8065,106.1456 C160.3975,105.3776 160.3275,104.8556 160.2765,104.4756 C160.2425,104.2236 160.2275,104.1076 160.0725,103.8156 C159.8045,103.3116 159.6595,103.0626 159.5165,102.8156 C159.3575,102.5436 159.2005,102.2716 158.9055,101.7166 C158.7665,101.4536 158.6975,101.3986 158.4955,101.2336 C158.1065,100.9166 157.7245,100.5696 157.3325,99.8336 C157.0825,99.3636 156.9365,99.1406 156.7895,98.9176 C156.6065,98.6366 156.4215,98.3546 156.1075,97.7646 C155.7435,97.0786 155.6335,96.6526 155.5435,96.3116 C155.4775,96.0546 155.4335,95.8846 155.2335,95.5106 C154.8895,94.8606 154.7645,94.4676 154.6625,94.1496 C154.5795,93.8876 154.5195,93.6976 154.3015,93.2876 C154.1515,93.0076 154.0715,92.9386 153.8785,92.7716 C153.5815,92.5176 153.1765,92.1676 152.7625,91.3896 C152.3855,90.6796 152.2865,90.2316 152.2065,89.8716 C152.1495,89.6166 152.1155,89.4636 151.9305,89.1136 C151.7135,88.7056 151.5895,88.5506 151.4195,88.3356 C151.2125,88.0746 150.9545,87.7506 150.6075,87.0996 C150.3005,86.5196 150.1685,86.2166 150.0365,85.9146 C149.9285,85.6656 149.8205,85.4176 149.5665,84.9396 C149.3545,84.5396 149.2315,84.3886 149.0605,84.1786 C148.8475,83.9166 148.5825,83.5906 148.2325,82.9316 C147.8165,82.1486 147.7575,81.6136 147.7135,81.2226 C147.6855,80.9636 147.6745,80.8656 147.5265,80.5896 C147.4045,80.3596 147.3505,80.3186 147.1445,80.1666 C146.8245,79.9286 146.3405,79.5696 145.9005,78.7426 C145.5125,78.0116 145.7895,77.1026 146.5215,76.7136 C147.2465,76.3236 148.1595,76.6016 148.5495,77.3336 C148.6725,77.5636 148.7275,77.6046 148.9335,77.7576 C149.2525,77.9956 149.7365,78.3546 150.1765,79.1816 C150.5925,79.9656 150.6515,80.5006 150.6955,80.8916 C150.7245,81.1506 150.7345,81.2476 150.8825,81.5236 C151.0955,81.9256 151.2185,82.0766 151.3885,82.2866 C151.6015,82.5486 151.8655,82.8736 152.2155,83.5306 C152.5245,84.1116 152.6555,84.4146 152.7875,84.7166 C152.8965,84.9656 153.0035,85.2136 153.2575,85.6906 C153.4755,86.1006 153.5985,86.2556 153.7695,86.4706 C153.9755,86.7306 154.2325,87.0556 154.5785,87.7046 C154.9565,88.4156 155.0555,88.8626 155.1355,89.2236 C155.1915,89.4786 155.2265,89.6316 155.4115,89.9806 C155.5615,90.2626 155.6415,90.3316 155.8355,90.4976 C156.1315,90.7526 156.5365,91.1026 156.9495,91.8806 C157.2955,92.5296 157.4205,92.9236 157.5225,93.2406 C157.6055,93.5036 157.6655,93.6926 157.8835,94.1036 C158.2475,94.7886 158.3575,95.2146 158.4475,95.5566 C158.5145,95.8126 158.5585,95.9826 158.7575,96.3566 C159.0065,96.8256 159.1525,97.0496 159.2995,97.2726 C159.4825,97.5546 159.6675,97.8346 159.9815,98.4266 C160.1205,98.6876 160.1895,98.7436 160.3915,98.9076 C160.7805,99.2266 161.1625,99.5716 161.5545,100.3086 C161.8225,100.8136 161.9675,101.0616 162.1105,101.3096 C162.2695,101.5806 162.4265,101.8536 162.7215,102.4086 C163.1295,103.1766 163.1995,103.6976 163.2505,104.0776 C163.2835,104.3306 163.2995,104.4456 163.4545,104.7376 C163.7995,105.3856 163.9245,105.7776 164.0255,106.0936 C164.1095,106.3556 164.1705,106.5456 164.3895,106.9566 C164.6755,107.4946 164.8145,107.7686 164.9515,108.0396 C165.0865,108.3036 165.2195,108.5646 165.4965,109.0876 L166.6305,111.2066 C166.9085,111.7316 167.0515,111.9876 167.1955,112.2466 C167.3445,112.5136 167.4935,112.7816 167.7785,113.3176 C167.8935,113.5336 167.9385,113.5646 168.1505,113.7156 C168.4865,113.9516 168.9945,114.3096 169.4445,115.1566 C169.8495,115.9166 169.9255,116.4306 169.9815,116.8066 C170.0195,117.0636 170.0355,117.1826 170.1965,117.4846 C170.4885,118.0346 170.6025,118.5126 170.6765,118.8276 C170.6835,118.8576 170.6905,118.8886 170.6955,118.9166 C170.7385,118.9326 170.7715,118.9426 170.7955,118.9496 C170.8575,118.9186 170.9185,118.8796 170.9875,118.8396 C171.2405,118.6946 171.5875,118.4966 172.0665,118.3206 C172.3195,118.2286 172.3695,118.1776 172.5545,117.9886 C172.8365,117.7016 173.2625,117.2686 174.1495,116.9426 C175.0645,116.6076 175.6935,116.6876 176.1085,116.7416 C176.3685,116.7756 176.4235,116.7826 176.6505,116.6996 C176.9805,116.5796 177.0735,116.5016 177.2785,116.3316 C177.5715,116.0886 177.9745,115.7556 178.7865,115.4576 C179.2235,115.2976 179.3945,115.1936 179.6305,115.0516 C179.9215,114.8756 180.2835,114.6566 180.9895,114.3976 C181.6815,114.1456 182.0865,114.0696 182.4125,114.0096 C182.6825,113.9586 182.8965,113.9196 183.3495,113.7536 C183.9505,113.5326 184.2555,113.4356 184.5605,113.3376 C184.8355,113.2486 185.1115,113.1596 185.6545,112.9606 C186.4335,112.6766 187.2935,113.0746 187.5795,113.8536 C187.8645,114.6306 187.4655,115.4926 186.6885,115.7766 C186.0865,115.9976 185.7815,116.0956 185.4775,116.1926 C185.2015,116.2816 184.9255,116.3706 184.3825,116.5696 C183.6915,116.8226 183.2855,116.8976 182.9595,116.9586 C182.6905,117.0096 182.4765,117.0486 182.0235,117.2146 C181.5875,117.3746 181.4175,117.4776 181.1815,117.6196 C180.8895,117.7956 180.5265,118.0156 179.8185,118.2736 C179.4915,118.3946 179.3985,118.4716 179.1925,118.6416 C178.8995,118.8846 178.4975,119.2186 177.6845,119.5166 C176.7685,119.8526 176.1405,119.7706 175.7255,119.7176 C175.4655,119.6836 175.4105,119.6766 175.1835,119.7596 C174.9305,119.8526 174.8805,119.9026 174.6955,120.0916 C174.4135,120.3786 173.9875,120.8126 173.1005,121.1376 C172.8575,121.2276 172.6805,121.3276 172.4755,121.4446 C172.0915,121.6636 171.5745,121.9586 170.8365,121.9586" id="Fill-502" fill="#000"/><path d="M126.1665,0.7819 L114.7675,0.7819 C109.6135,0.7819 105.2275,4.4759 104.3115,9.5169 C104.3015,9.5799 104.2925,9.6409 104.2835,9.7039 L104.2775,9.7379 C104.2405,9.9829 104.2025,10.2339 104.1655,10.4829 C102.8385,19.2239 101.2005,29.9339 101.2005,29.9339 L136.6335,29.9339 L136.7055,22.1699 L136.8035,11.5179 C136.8585,5.6049 132.0805,0.7819 126.1665,0.7819" id="Fill-504" fill="#feb1cd"/><path d="M136.6334,29.9342 C122.7584,28.9582 118.9674,25.9842 119.1014,23.5072 C119.2204,21.2882 121.3054,21.5972 122.2164,21.6182 C126.2304,21.7082 136.7054,22.1692 136.7054,22.1692" id="Fill-506" fill="#000"/></g></g></g></g><g id="Head" transform="translate(204.000000, 145.000000) scale(1 1)"><g id="Head/Bob 1" stroke="none" stroke-width="1" fill="none" fill-rule="evenodd"><g id="Group-183" transform="translate(95.000000, 87.000000)"><g id="Group-42" transform="translate(0.000000, 0.738000)"><path d="M54.9296,31.2038 C53.3886,28.1558 48.8196,28.7868 47.4916,28.9828 C46.1766,23.4008 44.7596,18.4058 43.4726,15.9998 C40.7686,10.9418 32.5216,5.6278 19.3326,7.6688 C10.5756,9.0238 1.2496,17.1928 7.3066,31.4138 C7.3066,31.4138 9.0396,34.8608 8.2096,40.5458 C8.1186,41.1718 7.9886,42.0468 7.8326,43.0878 L7.8316,43.0958 C7.5686,44.8548 7.2276,47.1118 6.8546,49.5758 C6.8446,49.6388 6.8356,49.6988 6.8256,49.7628 L6.8206,49.7968 C6.7836,50.0418 6.7456,50.2918 6.7076,50.5408 C6.4786,53.1308 7.1846,61.6058 26.2626,61.7028 L39.2476,62.2278 L39.4456,62.2358 C39.4456,62.2358 43.7976,62.1878 46.4306,62.1878 C51.9056,62.1878 52.8456,56.9698 52.2306,53.1058 C51.9786,51.5178 51.0556,46.0908 49.8096,39.7868 C55.9216,37.8338 56.1566,33.6288 54.9296,31.2038" id="Fill-36" fill="#feb1cd"/><path d="M10.4984,5.7702 C0.0364,11.0572 0.0754,22.8722 0.8104,30.3042 C2.3514,45.8942 -2.3876,53.9892 4.3744,56.2762 C10.3324,58.2292 15.1654,53.3402 18.6454,48.0412 C19.4354,46.8392 19.8264,45.5922 20.0024,44.4802 C20.2894,42.6742 18.9954,41.0402 17.1864,40.7702 C14.9274,40.4322 12.0904,39.2672 12.0904,35.5432 C12.0904,29.3832 18.0174,29.8792 18.0174,29.8792 C18.0174,29.8792 21.2484,30.0412 23.8354,27.3912 C25.3734,25.8152 27.3364,24.7272 29.5024,24.3282 C34.1374,23.4712 41.6724,21.7402 45.6884,18.9882 C48.1094,17.3302 51.6834,10.6742 45.8084,4.7992 C38.6134,-2.3958 19.9924,0.9742 10.4984,5.7702" id="Fill-38" fill="#150656"/><path d="M47.4222,37.0495 C47.5852,38.8315 50.7462,38.3315 50.4832,36.5565 C50.1752,34.4785 47.2312,34.9615 47.4222,37.0495" id="Fill-40" fill="#000"/></g></g></g></g><g id="Expression" transform="translate(315.000000, 246.000000) scale(1 1)"><defs><path d="M2.973,1.055 C-0.453,2.37 -2.944,13.004 10.567,16.001 L10.567,16.001 C16.271,17.266 19.387,14.583 19.536,11.9 L19.536,11.9 C19.665,9.554 17.527,7.208 12.869,7.501 L12.869,7.501 C11.822,7.568 10.572,7.073 9.905,5.972 L9.905,5.972 C8.651,3.902 7.906,0.626 4.999,0.626 L4.999,0.626 C4.417,0.626 3.749,0.757 2.973,1.055" id="expressionlaugh-path-1"/></defs><g id="Expression/Laugh" stroke="none" stroke-width="1" fill="none" fill-rule="evenodd"><g id="Group-77" transform="translate(13.400000, 13.300000)"><g id="Group-3" transform="translate(0.000000, 0.116900)"><g id="Group" transform="translate(0.000000, 15.000000)"><path d="M2.973,1.0549 C-0.453,2.3699 -2.944,13.0039 10.567,15.9999 C21.261,18.3719 22.855,6.8709 12.869,7.5009 C11.822,7.5679 10.571,7.0739 9.904,5.9719 C8.4,3.4879 7.63,-0.7321 2.973,1.0549" id="Fill-37" fill="#000"/><g id="Group-41"><mask id="expressionlaugh-mask-2" fill="#ffffff"><use xlink:href="#expressionlaugh-path-1" fill="#ffffff"/></mask><g id="Clip-40"/><path d="M-3.2101,3.4943 C-3.2101,3.4943 1.3509,2.7393 5.4389,7.3023 C9.5279,11.8643 9.1349,18.8593 9.1349,18.8593 C9.1349,18.8593 -6.6571,11.2823 -3.2101,3.4943" id="Fill-39" fill="#FF71DB" mask="url(#expressionlaugh-mask-2)"/></g></g><g id="Group-46" transform="translate(3.000000, 0.000000)"><path d="M3.1312,6.052 C3.7892,6.555 4.7312,6.427 5.2332,5.769 C7.2772,3.086 9.8032,4.136 10.1002,4.271 C10.8412,4.624 11.7342,4.313 12.0932,3.571 C12.4552,2.825 12.1432,1.928 11.3982,1.566 C10.3642,1.065 8.4892,0.66 6.5312,1.268 C5.2702,1.659 3.9732,2.472 2.8462,3.95 C2.3442,4.61 2.4722,5.55 3.1312,6.052" id="Fill-42" fill="#000"/><path d="M4.6669,6.3596 C4.6669,7.0556 3.7149,7.6196 2.5399,7.6196 C1.3649,7.6196 0.4129,7.0556 0.4129,6.3596 C0.4129,5.6646 1.3649,5.0996 2.5399,5.0996 C3.7149,5.0996 4.6669,5.6646 4.6669,6.3596" id="Fill-44" fill="#F8FBF8"/></g></g></g></g></g><g id="Facial Hair" transform="translate(311.300000, 250.950000) scale(1 1)"><g id="Facial Hair/None" stroke="none" stroke-width="1" fill="none" fill-rule="evenodd" fill-opacity="0"/></g><g id="Accesories" transform="translate(311.300000, 250.950000) scale(1 1)"><g id="Accesories/None" stroke="none" stroke-width="1" fill="none" fill-rule="evenodd" fill-opacity="0"/></g></g></g></g></svg>