<svg viewBox="38.25 114.74999999999989 918.0000000000002 816.0000000000001" xmlns="http://www.w3.org/2000/svg" xmlns:xlink="http://www.w3.org/1999/xlink" overflow="visible" width="918.0000000000002px" height="816.0000000000001px"><defs><polygon id="masterspot-illustrationplanning-path-1" points="0.6017 0.148 107.7217 0.148 107.7217 265 0.6017 265"/><polygon id="masterspot-illustrationplanning-path-3" points="0.302904145 0.494 189.197939 0.494 189.197939 192.743236 0.302904145 192.743236"/></defs><g id="Master/Spot Illustration/Planning" stroke="none" stroke-width="1" fill="none" fill-rule="evenodd"><g id="Planning" transform="translate(25.000000, 63.000000) scale(1 1)"><defs><polygon id="planningorganizer-path-1" points="0 0.4389 619.6408 0.4389 619.6408 503.3349 0 503.3349"/><polygon id="planningorganizer-path-3" points="0.749994555 0.451650553 685.027 0.451650553 685.027 544 0.749994555 544"/></defs><g id="Planning/Organizer" stroke="none" stroke-width="1" fill="none" fill-rule="evenodd"><g id="Group-27" transform="translate(569.000000, 417.500000) scale(-1, 1) translate(-569.000000, -417.500000) translate(211.000000, 68.000000)"><g id="Group-3" transform="translate(0.000000, 142.785000)"><mask id="planningorganizer-mask-2" fill="#ffffff"><use xlink:href="#planningorganizer-path-1" fill="#ffffff"/></mask><g id="Clip-2"/><path d="M0.3908,486.5739 C0.3908,486.5739 0.4398,502.6999 11.6308,503.1389 C22.8208,503.5799 68.1208,503.1389 68.1208,503.1389 L619.6408,254.0649 L619.6408,0.4389 L0.0418,0.4389 C-0.1522,153.4699 0.3908,486.5739 0.3908,486.5739" id="Fill-1" fill="#70A0E6" mask="url(#planningorganizer-mask-2)"/></g><path d="M593.0314,46.0269 C563.7844,46.6859 23.2604,49.1049 23.2604,49.1049 C23.2604,49.1049 1.2704,46.8339 0.3904,68.6399 C0.2024,73.3019 0.0954,101.6119 0.0424,143.2239 L619.6404,143.2239 L619.6404,72.8549 C619.6404,72.8549 622.2794,45.3669 593.0314,46.0269" id="Fill-4" fill="#FF0048"/><path d="M88.7077,101.3501 L88.6877,101.0751 C88.3527,96.4831 91.3557,92.3581 95.7967,91.1401 C107.2117,88.0121 126.5207,78.2761 125.2467,48.2611 C124.3577,27.3591 109.2407,19.7561 96.5647,19.5971 C82.1557,19.4321 67.0877,27.9181 65.7177,48.1651 L46.1397,48.2541 C48.2457,17.1491 72.7907,9.99999999e-05 96.1727,9.99999999e-05 C96.3857,9.99999999e-05 96.5977,9.99999999e-05 96.8117,0.0031 C118.9757,0.2821 143.4547,15.2421 144.8247,47.4291 C146.6527,90.4821 117.5807,105.0401 100.8587,109.8401 C95.0317,111.5131 89.1487,107.3961 88.7077,101.3501" id="Fill-6" fill="#232E68"/><path d="M229.508,101.3501 L229.487,101.0751 C229.153,96.4831 232.156,92.3581 236.597,91.1401 C248.012,88.0121 267.321,78.2761 266.046,48.2611 C265.157,27.3591 250.04,19.7561 237.364,19.5971 C222.956,19.4321 207.887,27.9181 206.518,48.1651 L186.94,48.2541 C189.045,17.1491 213.591,9.99999999e-05 236.973,9.99999999e-05 C237.186,9.99999999e-05 237.398,9.99999999e-05 237.611,0.0031 C259.775,0.2821 284.254,15.2421 285.624,47.4291 C287.453,90.4821 258.381,105.0401 241.658,109.8401 C235.831,111.5131 229.948,107.3961 229.508,101.3501" id="Fill-8" fill="#232E68"/><path d="M372.0734,101.3501 L372.0524,101.0751 C371.7184,96.4831 374.7214,92.3581 379.1624,91.1401 C390.5774,88.0121 409.8864,78.2761 408.6114,48.2611 C407.7224,27.3591 392.6064,19.7561 379.9304,19.5971 C365.5214,19.4321 350.4534,27.9181 349.0834,48.1651 L329.5054,48.2541 C331.6114,17.1491 356.1564,9.99999999e-05 379.5384,9.99999999e-05 C379.7514,9.99999999e-05 379.9634,9.99999999e-05 380.1774,0.0031 C402.3414,0.2821 426.8204,15.2421 428.1894,47.4291 C430.0184,90.4821 400.9464,105.0401 384.2244,109.8401 C378.3974,111.5131 372.5144,107.3961 372.0734,101.3501" id="Fill-10" fill="#232E68"/><path d="M512.8732,101.3501 L512.8522,101.0751 C512.5182,96.4831 515.5212,92.3581 519.9622,91.1401 C531.3772,88.0121 550.6862,78.2761 549.4112,48.2611 C548.5222,27.3591 533.4062,19.7561 520.7302,19.5971 C506.3212,19.4321 491.2532,27.9181 489.8832,48.1651 L470.3052,48.2541 C472.4112,17.1491 496.9562,9.99999999e-05 520.3382,9.99999999e-05 C520.5512,9.99999999e-05 520.7632,9.99999999e-05 520.9772,0.0031 C543.1412,0.2821 567.6202,15.2421 568.9892,47.4291 C570.8182,90.4821 541.7462,105.0401 525.0242,109.8401 C519.1972,111.5131 513.3142,107.3961 512.8732,101.3501" id="Fill-12" fill="#232E68"/><path d="M30.7497,143.2241 L54.0477,639.0351 C54.0477,639.0351 58.7387,667.1821 86.2997,663.0771 C113.8617,658.9721 144.9407,650.1761 144.9407,650.1761 L72.4917,234.4101 L619.6407,187.4981 L619.7027,143.2241 L30.7497,143.2241 Z" id="Fill-14" fill="#AFDCFD"/><g id="Group-18" transform="translate(30.000000, 154.785000)"><mask id="planningorganizer-mask-4" fill="#ffffff"><use xlink:href="#planningorganizer-path-3" fill="#ffffff"/></mask><g id="Clip-17"/><path d="M591.2687,19.8454 C589.0567,7.6214 577.7477,-0.7826 565.4037,0.6004 L17.0107,62.0334 C17.0107,62.0334 -2.3413,62.0334 1.1777,87.8354 C4.6957,113.6384 48.0907,385.7324 107.3177,521.1934 C107.3177,521.1934 116.7007,549.9274 151.2977,542.8904 C185.8967,535.8534 608.1127,451.4104 634.5007,447.3054 C660.8887,443.2004 674.3767,438.5094 674.3767,438.5094 C674.3767,438.5094 692.5557,436.7494 681.4137,403.3244 C671.0087,372.1114 611.5117,131.7434 591.2687,19.8454" id="Fill-16" fill="#F8FBF8" mask="url(#planningorganizer-mask-4)"/></g><path d="M156.0827,398.606 C156.0827,398.606 120.3117,402.125 127.9357,440.241 C135.5587,478.358 178.3667,609.713 178.3667,609.713 C178.3667,609.713 183.6437,626.719 206.5137,624.961 C229.3837,623.202 599.4097,538.171 599.4097,538.171 C599.4097,538.171 622.9887,533.48 619.7027,504.16 C616.4147,474.839 577.1247,341.724 571.2617,329.41 C565.3977,317.095 556.0147,305.367 526.6947,311.231 C497.3747,317.095 156.0827,398.606 156.0827,398.606" id="Fill-19" fill="#D5E1D5"/><path d="M162.028,358.5083 L303.272,327.0643 C303.272,327.0643 334.938,321.1993 329.074,291.8793 C323.21,262.5593 286.266,269.5963 286.266,269.5963 C286.266,269.5963 168.103,289.6143 140.307,297.9973 C95.481,311.5153 111.295,371.3943 162.028,358.5083" id="Fill-21" fill="#EFD638"/><path d="M501.4787,213.8872 C458.0207,222.1162 469.9827,288.8682 514.9657,281.9282 C556.8947,275.4592 551.0307,204.5042 501.4787,213.8872" id="Fill-23" fill="#FF0048"/><path d="M0.0421,143.2241 L46.1391,143.2241 C46.1391,143.2241 49.8881,52.4761 23.2611,49.1051 C-1.1479,46.0151 0.3911,68.6401 0.3911,68.6401 L0.0421,143.2241 Z" id="Fill-25" fill="#B02D1C"/></g></g></g><g transform="translate(-28.000000, 174.000000) scale(1 1)" id="Master/Character/Standing"><g id="Master/Character/Standing" stroke="none" stroke-width="1" fill="none" fill-rule="evenodd"><g id="Standing/Lower Body" transform="translate(14.000000, 442.000000) scale(1 1)"><g id="Standing/Lower Body/Stylish" stroke="none" stroke-width="1" fill="none" fill-rule="evenodd"><g id="Group-332" transform="translate(224.000000, -1.000000)"><g id="Group-314" transform="translate(0.000000, 0.142000)"><path d="M206.4518,258.6049 C206.3008,258.3949 206.1368,258.1889 205.9928,257.9759 L177.8498,210.1629 L121.9708,212.4189 L150.3058,258.5359 C165.3268,258.4999 187.5938,258.5469 206.4518,258.6049" id="Fill-280" fill="#B2C7B2"/><polygon id="Fill-282" fill="#B2C7B2" points="68.2101 213.0824 16.6661 213.0824 11.9541 258.6044 63.3181 258.6044"/><path d="M22.3044,259.9975 C22.2514,259.9975 22.1984,259.9955 22.1444,259.9895 C21.3204,259.9015 20.7234,259.1635 20.8114,258.3395 C20.8704,257.7745 21.0564,257.2795 21.2204,256.8435 C21.3394,256.5245 21.4524,256.2245 21.4784,255.9905 C21.5044,255.7405 21.4834,255.4185 21.4604,255.0765 C21.4294,254.6255 21.3954,254.1125 21.4544,253.5645 C21.4804,253.3325 21.4504,253.0175 21.4174,252.6835 C21.3724,252.2225 21.3234,251.6985 21.3844,251.1335 C21.4314,250.6985 21.5174,250.2645 21.6064,249.8255 C21.6784,249.4735 21.7524,249.1175 21.7914,248.7555 C21.8534,248.1925 22.0254,247.6965 22.1764,247.2595 C22.2884,246.9365 22.3944,246.6335 22.4194,246.3955 C22.4644,245.9825 22.5264,245.5695 22.5864,245.1555 C22.6434,244.7735 22.7004,244.3915 22.7424,244.0045 C22.7594,243.8555 22.6894,243.5465 22.6284,243.2735 C22.5204,242.7945 22.3864,242.1985 22.4574,241.5485 C22.5334,240.8585 22.8384,240.2935 23.0834,239.8385 C23.1924,239.6385 23.3554,239.3345 23.3674,239.2245 C23.3714,239.1215 23.2734,238.8105 23.2074,238.6025 C23.0464,238.0975 22.8474,237.4665 22.9254,236.7545 C23.0154,235.9395 23.4704,235.3415 23.8354,234.8605 C23.9514,234.7085 24.1264,234.4785 24.1624,234.3875 C24.1894,234.0765 24.2234,233.6845 24.2574,233.2935 C24.2924,232.8845 24.3284,232.4775 24.3724,232.0755 C24.4004,231.8285 24.3664,231.5055 24.3304,231.1635 C24.2834,230.7105 24.2304,230.1975 24.2894,229.6485 C24.3254,229.3365 24.3164,228.9865 24.3074,228.6165 C24.2964,228.1765 24.2854,227.7215 24.3394,227.2365 C24.3844,226.8385 24.4104,226.4435 24.4384,226.0555 C24.4674,225.6435 24.4954,225.2385 24.5394,224.8405 C24.6154,224.1655 24.8844,223.6015 25.1004,223.1485 C25.2104,222.9195 25.3464,222.6345 25.3604,222.5115 C25.3964,222.1905 25.3834,221.8355 25.3694,221.4585 C25.3544,221.0235 25.3384,220.5735 25.3904,220.0995 C25.4114,219.9115 25.3354,219.5955 25.2634,219.2885 C25.1484,218.8065 25.0174,218.2595 25.0844,217.6495 C25.1724,216.8545 25.5354,216.2135 25.8004,215.7455 C25.8854,215.5955 26.0134,215.3675 26.0374,215.2855 C26.1754,214.0185 26.0414,212.8145 26.0394,212.8035 C25.9464,211.9805 26.5354,211.2365 27.3584,211.1425 C28.1764,211.0475 28.9224,211.6345 29.0204,212.4565 C29.0274,212.5185 29.1964,213.9955 29.0114,215.6655 C28.9424,216.2845 28.6594,216.7825 28.4114,217.2225 C28.2594,217.4915 28.0874,217.7965 28.0674,217.9795 C28.0594,218.0825 28.1324,218.3895 28.1814,218.5925 C28.3014,219.0965 28.4504,219.7245 28.3724,220.4305 C28.3444,220.6845 28.3564,221.0095 28.3674,221.3515 C28.3834,221.7975 28.4024,222.3035 28.3424,222.8425 C28.2724,223.4705 28.0254,223.9865 27.8074,224.4425 C27.6764,224.7175 27.5404,225.0015 27.5224,225.1695 C27.4824,225.5265 27.4574,225.8935 27.4314,226.2655 C27.4014,226.6935 27.3694,227.1285 27.3224,227.5665 C27.2894,227.8515 27.2984,228.1885 27.3064,228.5455 C27.3174,228.9775 27.3284,229.4675 27.2724,229.9765 C27.2464,230.2045 27.2804,230.5185 27.3144,230.8515 C27.3634,231.3125 27.4174,231.8365 27.3554,232.4035 C27.3134,232.7845 27.2804,233.1685 27.2454,233.5545 C27.2094,233.9675 27.1734,234.3835 27.1274,234.7995 C27.0384,235.6055 26.5864,236.1995 26.2234,236.6775 C26.1064,236.8325 25.9274,237.0655 25.8924,237.1595 C25.9054,237.1845 26.0024,237.4925 26.0674,237.6965 C26.2284,238.2045 26.4284,238.8365 26.3504,239.5525 C26.2744,240.2415 25.9694,240.8075 25.7244,241.2615 C25.6164,241.4625 25.4524,241.7665 25.4404,241.8765 C25.4234,242.0285 25.4924,242.3405 25.5554,242.6155 C25.6624,243.0925 25.7954,243.6855 25.7254,244.3305 C25.6784,244.7545 25.6174,245.1765 25.5544,245.5955 C25.4984,245.9725 25.4434,246.3475 25.4024,246.7225 C25.3394,247.2955 25.1644,247.7995 25.0114,248.2425 C24.9024,248.5575 24.7984,248.8545 24.7744,249.0785 C24.7254,249.5325 24.6364,249.9795 24.5464,250.4225 C24.4764,250.7685 24.4044,251.1125 24.3674,251.4565 C24.3384,251.7185 24.3694,252.0475 24.4044,252.3965 C24.4474,252.8435 24.4944,253.3505 24.4374,253.8875 C24.4064,254.1745 24.4294,254.5155 24.4534,254.8755 C24.4834,255.3095 24.5154,255.8005 24.4604,256.3105 C24.3954,256.9225 24.2004,257.4395 24.0294,257.8975 C23.9184,258.1925 23.8134,258.4715 23.7934,258.6555 C23.7124,259.4265 23.0614,259.9975 22.3044,259.9975" id="Fill-284" fill="#D5E1D5"/><path d="M34.3366,260.0199 C34.3136,260.0199 34.2896,260.0189 34.2666,260.0179 C33.4396,259.9799 32.7996,259.2779 32.8376,258.4509 C32.8586,257.9729 32.8996,257.1119 32.9996,255.9579 C33.0306,255.5919 33.0836,255.1979 33.1406,254.7769 C33.1926,254.3859 33.2496,253.9689 33.2916,253.5269 C33.3356,253.0489 33.4486,252.6049 33.5586,252.1759 C33.6526,251.8039 33.7416,251.4529 33.7746,251.1209 C33.7896,250.9659 33.7276,250.6559 33.6726,250.3809 C33.5766,249.8989 33.4566,249.2979 33.5226,248.6419 C33.5556,248.2969 33.5626,247.9429 33.5706,247.5819 C33.5806,247.1269 33.5936,246.6649 33.6406,246.1989 C33.6916,245.6739 33.8316,245.1899 33.9536,244.7629 C34.0546,244.4149 34.1486,244.0839 34.1776,243.7999 C34.2206,243.3779 34.2836,242.9559 34.3486,242.5299 C34.4066,242.1489 34.4656,241.7649 34.5056,241.3759 C34.5676,240.7619 34.7806,240.2409 34.9696,239.7799 C35.0936,239.4759 35.2116,239.1889 35.2316,238.9949 C35.2466,238.8409 35.1736,238.5269 35.1086,238.2489 C34.9966,237.7659 34.8576,237.1639 34.9246,236.5069 C34.9706,236.0649 35.0466,235.6239 35.1246,235.1839 C35.1906,234.8199 35.2556,234.4559 35.2936,234.0889 C35.3186,233.8489 35.2796,233.5259 35.2396,233.1839 C35.1856,232.7189 35.1226,232.1919 35.1816,231.6239 C35.2226,231.2339 35.2496,230.8429 35.2776,230.4549 C35.3076,230.0309 35.3386,229.6089 35.3816,229.1919 C35.4266,228.7629 35.4826,228.3349 35.5366,227.9119 C35.5866,227.5289 35.6366,227.1489 35.6756,226.7719 C35.7216,226.3369 35.7806,225.9099 35.8406,225.4869 C35.8946,225.1039 35.9466,224.7259 35.9856,224.3519 C36.0596,223.6619 36.3386,223.0869 36.5646,222.6249 C36.6706,222.4059 36.8166,222.1049 36.8306,221.9839 C36.8516,221.7879 36.7816,221.4649 36.7156,221.1529 C36.6116,220.6659 36.4946,220.1149 36.5606,219.5039 C36.5956,219.1679 36.5766,218.8029 36.5576,218.4159 C36.5346,217.9779 36.5126,217.5269 36.5616,217.0539 C36.6326,216.3849 36.8316,215.8109 36.9926,215.3489 C37.0846,215.0849 37.1796,214.8129 37.1946,214.6659 C37.2966,213.7069 37.4606,213.2699 37.6336,212.8709 C37.7076,212.6999 37.7406,212.6229 37.7776,212.2819 C37.8646,211.4569 38.5936,210.8629 39.4286,210.9489 C40.2516,211.0369 40.8486,211.7749 40.7606,212.5989 C40.6826,213.3359 40.5446,213.6999 40.3856,214.0649 C40.3046,214.2529 40.2396,214.4009 40.1776,214.9839 C40.1256,215.4739 39.9736,215.9119 39.8256,216.3339 C39.6986,216.6999 39.5796,217.0439 39.5446,217.3689 C39.5206,217.6079 39.5356,217.9259 39.5536,218.2629 C39.5766,218.7259 39.6036,219.2499 39.5436,219.8189 C39.5286,219.9569 39.5966,220.2739 39.6496,220.5289 C39.7546,221.0189 39.8846,221.6279 39.8146,222.2989 C39.7446,222.9459 39.4766,223.4969 39.2606,223.9399 C39.1326,224.2029 38.9866,224.5009 38.9706,224.6639 C38.9276,225.0719 38.8696,225.4849 38.8116,225.9039 C38.7566,226.2919 38.7006,226.6849 38.6596,227.0839 C38.6176,227.4849 38.5656,227.8899 38.5116,228.2979 C38.4596,228.6969 38.4076,229.0979 38.3656,229.5029 C38.3246,229.8889 38.2976,230.2779 38.2706,230.6669 C38.2396,231.0879 38.2096,231.5119 38.1656,231.9349 C38.1416,232.1709 38.1786,232.4919 38.2196,232.8309 C38.2746,233.2969 38.3366,233.8269 38.2776,234.3989 C38.2326,234.8369 38.1556,235.2729 38.0786,235.7089 C38.0136,236.0769 37.9466,236.4439 37.9086,236.8139 C37.8926,236.9729 37.9666,237.2909 38.0306,237.5699 C38.1436,238.0509 38.2826,238.6499 38.2156,239.3009 C38.1506,239.9249 37.9366,240.4519 37.7456,240.9159 C37.6296,241.2019 37.5086,241.4969 37.4896,241.6789 C37.4446,242.1189 37.3796,242.5519 37.3146,242.9819 C37.2576,243.3579 37.1996,243.7309 37.1616,244.1019 C37.1076,244.6529 36.9636,245.1509 36.8376,245.5899 C36.7416,245.9249 36.6506,246.2419 36.6246,246.4989 C36.5856,246.8869 36.5786,247.2729 36.5696,247.6519 C36.5606,248.0879 36.5486,248.5189 36.5076,248.9379 C36.4856,249.1499 36.5486,249.4629 36.6146,249.7939 C36.7106,250.2729 36.8176,250.8149 36.7606,251.4119 C36.7056,251.9699 36.5776,252.4729 36.4656,252.9159 C36.3806,253.2479 36.3016,253.5609 36.2776,253.8059 C36.2326,254.2929 36.1716,254.7489 36.1126,255.1779 C36.0636,255.5479 36.0166,255.8949 35.9876,256.2169 C35.8936,257.3149 35.8556,258.1339 35.8336,258.5879 C35.7966,259.3929 35.1336,260.0199 34.3366,260.0199" id="Fill-286" fill="#D5E1D5"/><path d="M46.111,261.3383 C46.069,261.3383 46.026,261.3363 45.984,261.3323 C45.159,261.2643 44.546,260.5383 44.614,259.7133 C44.674,258.9973 44.804,258.6293 44.944,258.2843 C45.015,258.1073 45.072,257.9663 45.118,257.4083 C45.158,256.9253 45.299,256.4953 45.437,256.0813 C45.552,255.7333 45.661,255.4043 45.685,255.1053 C45.68,255.0323 45.594,254.7643 45.538,254.5863 C45.375,254.0803 45.174,253.4513 45.232,252.7193 C45.28,252.1183 45.495,251.6123 45.684,251.1663 C45.802,250.8893 45.924,250.6033 45.938,250.4273 C45.926,250.3813 45.822,250.1223 45.753,249.9513 C45.544,249.4363 45.284,248.7933 45.343,248.0313 C45.401,247.2983 45.753,246.7223 46.036,246.2583 C46.14,246.0873 46.298,245.8293 46.322,245.7313 C46.319,245.6593 46.222,245.3643 46.158,245.1693 C45.997,244.6793 45.797,244.0693 45.849,243.3703 C45.901,242.6813 46.2,242.1143 46.439,241.6583 C46.538,241.4713 46.687,241.1883 46.702,241.0833 C46.694,241.0133 46.587,240.7373 46.515,240.5553 C46.321,240.0533 46.078,239.4283 46.132,238.6963 C46.163,238.2733 46.226,237.8503 46.292,237.4263 C46.345,237.0763 46.401,236.7273 46.426,236.3743 C46.46,235.9023 46.54,235.4693 46.616,235.0493 C46.677,234.7163 46.742,234.3833 46.765,234.0463 C46.781,233.8233 46.732,233.5183 46.68,233.1953 C46.608,232.7463 46.527,232.2373 46.565,231.6813 C46.617,230.9343 46.961,230.3453 47.237,229.8723 C47.335,229.7063 47.481,229.4543 47.505,229.3593 C47.525,229.0233 47.525,228.6513 47.526,228.2833 C47.527,227.8683 47.53,227.4573 47.555,227.0503 C47.574,226.7563 47.547,226.4193 47.517,226.0623 C47.484,225.6503 47.445,225.1823 47.475,224.6973 C47.494,224.3873 47.47,224.0393 47.445,223.6733 C47.417,223.2523 47.387,222.8173 47.413,222.3533 C47.453,221.6613 47.714,221.0863 47.923,220.6233 C48.009,220.4353 48.138,220.1503 48.149,220.0473 C48.134,219.9933 47.998,219.7233 47.907,219.5443 C47.655,219.0463 47.34,218.4263 47.373,217.6753 C47.407,216.8833 47.77,216.2363 48.035,215.7643 C48.119,215.6133 48.247,215.3873 48.27,215.3033 C48.27,215.0323 48.21,214.6663 48.146,214.2793 C48.082,213.8953 48.016,213.4983 48.016,213.0823 C48.016,212.2543 48.688,211.5823 49.516,211.5823 C50.344,211.5823 51.016,212.2543 51.016,213.0823 C51.016,213.2513 51.059,213.5123 51.105,213.7893 C51.182,214.2533 51.278,214.8303 51.258,215.4723 C51.237,216.1873 50.913,216.7663 50.651,217.2323 C50.559,217.3963 50.425,217.6353 50.382,217.7653 C50.423,217.8733 50.517,218.0593 50.584,218.1893 C50.839,218.6923 51.187,219.3823 51.145,220.2033 C51.112,220.8583 50.859,221.4153 50.655,221.8633 C50.548,222.0993 50.416,222.3913 50.409,222.5213 C50.393,222.7983 50.415,223.1243 50.438,223.4703 C50.467,223.8943 50.5,224.3743 50.469,224.8793 C50.453,225.1513 50.479,225.4753 50.507,225.8173 C50.543,226.2443 50.582,226.7293 50.549,227.2403 C50.527,227.5873 50.527,227.9393 50.526,228.2923 C50.525,228.7243 50.522,229.1583 50.494,229.5933 C50.444,230.3313 50.102,230.9163 49.827,231.3873 C49.727,231.5573 49.577,231.8153 49.554,231.9123 C49.543,232.1003 49.591,232.4013 49.642,232.7213 C49.715,233.1753 49.798,233.6913 49.757,234.2583 C49.724,234.7313 49.644,235.1673 49.567,235.5903 C49.507,235.9223 49.443,236.2533 49.419,236.5873 C49.387,237.0223 49.323,237.4533 49.257,237.8833 C49.204,238.2283 49.149,238.5703 49.124,238.9153 C49.13,238.9993 49.24,239.2813 49.312,239.4693 C49.506,239.9673 49.747,240.5873 49.693,241.3113 C49.64,242.0183 49.338,242.5943 49.094,243.0563 C49,243.2353 48.857,243.5063 48.84,243.6073 C48.835,243.7063 48.939,244.0233 49.007,244.2333 C49.166,244.7123 49.362,245.3103 49.31,245.9863 C49.251,246.7513 48.887,247.3453 48.596,247.8223 C48.499,247.9823 48.352,248.2213 48.327,248.3123 C48.34,248.3493 48.457,248.6353 48.534,248.8253 C48.735,249.3223 48.986,249.9423 48.928,250.6633 C48.877,251.3263 48.637,251.8883 48.446,252.3403 C48.355,252.5523 48.232,252.8433 48.222,252.9583 C48.212,253.1003 48.312,253.4153 48.394,253.6693 C48.543,254.1313 48.727,254.7073 48.675,255.3463 C48.622,256.0053 48.435,256.5693 48.286,257.0233 C48.207,257.2603 48.119,257.5273 48.108,257.6553 C48.032,258.5893 47.883,259.0183 47.725,259.4093 C47.658,259.5733 47.631,259.6423 47.604,259.9633 C47.539,260.7463 46.882,261.3383 46.111,261.3383" id="Fill-288" fill="#D5E1D5"/><path d="M57.1686,260.0414 C57.1086,260.0414 57.0496,260.0374 56.9886,260.0304 C56.1666,259.9324 55.5786,259.1864 55.6776,258.3634 C55.7206,258.0044 55.8126,257.6504 55.9006,257.3084 C56.0026,256.9194 56.1066,256.5184 56.1406,256.1104 C56.1576,255.9024 56.1286,255.6044 56.0986,255.2874 C56.0546,254.8394 56.0056,254.3314 56.0446,253.7694 C56.0706,253.3694 56.1416,252.9574 56.2156,252.5344 C56.2826,252.1554 56.3456,251.7984 56.3666,251.4524 C56.3786,251.2644 56.3266,250.9744 56.2726,250.6674 C56.1916,250.2074 56.1006,249.6864 56.1326,249.1024 C56.1626,248.5804 56.2856,248.1054 56.3956,247.6864 C56.4816,247.3534 56.5636,247.0404 56.5766,246.7824 C56.5856,246.6194 56.5176,246.3284 56.4506,246.0474 C56.3456,245.5984 56.2136,245.0374 56.2446,244.4244 C56.2656,244.0154 56.3126,243.6014 56.3616,243.1854 C56.4036,242.8244 56.4476,242.4614 56.4656,242.0944 C56.4876,241.6214 56.5616,241.1874 56.6316,240.7664 C56.6906,240.4074 56.7476,240.0694 56.7626,239.7624 C56.7836,239.2904 56.8546,238.8544 56.9236,238.4334 C56.9816,238.0754 57.0366,237.7374 57.0496,237.4324 C57.0596,237.2134 57.0036,236.9114 56.9436,236.5924 C56.8596,236.1444 56.7656,235.6354 56.7886,235.0744 C56.8016,234.7914 56.7676,234.4614 56.7316,234.1114 C56.6896,233.6954 56.6406,233.2244 56.6606,232.7294 C56.6926,231.9764 57.0296,231.3764 57.3016,230.8954 C57.3946,230.7294 57.5356,230.4784 57.5576,230.3844 C57.5596,230.2494 57.4826,229.9524 57.4086,229.6654 C57.2886,229.1994 57.1516,228.6704 57.1756,228.0674 C57.1986,227.4664 57.3626,226.9484 57.5076,226.4914 C57.5956,226.2114 57.6876,225.9224 57.6936,225.7444 C57.7046,225.4674 57.6626,225.1394 57.6176,224.7914 C57.5636,224.3714 57.5016,223.8954 57.5216,223.3954 C57.5346,223.0254 57.5196,222.6584 57.5046,222.2994 C57.4876,221.8744 57.4726,221.4584 57.4876,221.0514 C57.4936,220.8894 57.4026,220.5964 57.3146,220.3134 C57.1676,219.8434 57.0006,219.3114 57.0226,218.6954 C57.0396,218.2324 57.0776,217.7884 57.1156,217.3604 C57.1466,217.0144 57.1756,216.6804 57.1876,216.3604 C57.2166,215.5204 57.5916,214.8474 57.8656,214.3554 C57.9336,214.2354 58.0296,214.0624 58.0686,213.9704 C58.0936,213.2454 58.0976,212.9844 58.1016,212.7294 C58.1056,212.4954 58.1076,212.2654 58.1266,211.7164 C58.1536,210.8884 58.8936,210.2564 59.6746,210.266283 C60.5026,210.2924 61.1516,210.9854 61.1246,211.8134 C61.1076,212.3354 61.1046,212.5544 61.1016,212.7764 C61.0966,213.0524 61.0926,213.3344 61.0646,214.1524 C61.0416,214.8204 60.7336,215.3734 60.4856,215.8164 C60.3756,216.0164 60.1896,216.3484 60.1856,216.4664 C60.1726,216.8364 60.1396,217.2224 60.1046,217.6224 C60.0706,218.0004 60.0356,218.3944 60.0216,218.8034 C60.0186,218.9074 60.1136,219.2154 60.1776,219.4194 C60.3256,219.8954 60.5116,220.4854 60.4856,221.1634 C60.4736,221.4954 60.4886,221.8344 60.5026,222.1794 C60.5206,222.6154 60.5356,223.0594 60.5196,223.5094 C60.5096,223.7614 60.5496,224.0744 60.5926,224.4074 C60.6486,224.8404 60.7116,225.3304 60.6916,225.8594 C60.6686,226.4424 60.5096,226.9484 60.3676,227.3954 C60.2726,227.6994 60.1816,227.9864 60.1736,228.1864 C60.1666,228.3484 60.2416,228.6364 60.3146,228.9154 C60.4306,229.3654 60.5746,229.9264 60.5506,230.5444 C60.5206,231.2914 60.1856,231.8874 59.9156,232.3654 C59.8196,232.5354 59.6766,232.7914 59.6546,232.8884 C59.6476,233.1334 59.6806,233.4594 59.7156,233.8064 C59.7586,234.2264 59.8076,234.7014 59.7866,235.2014 C59.7766,235.4214 59.8336,235.7234 59.8936,236.0424 C59.9766,236.4914 60.0716,237.0004 60.0476,237.5624 C60.0256,238.0454 59.9536,238.4874 59.8846,238.9164 C59.8266,239.2684 59.7726,239.6014 59.7586,239.8984 C59.7356,240.3874 59.6586,240.8524 59.5896,241.2624 C59.5306,241.6114 59.4766,241.9414 59.4616,242.2364 C59.4406,242.6724 59.3916,243.1054 59.3406,243.5354 C59.2996,243.8844 59.2586,244.2294 59.2406,244.5744 C59.2316,244.7654 59.2996,245.0554 59.3716,245.3614 C59.4806,245.8244 59.6036,246.3484 59.5726,246.9374 C59.5436,247.5014 59.4136,248.0004 59.2986,248.4414 C59.2176,248.7534 59.1406,249.0484 59.1286,249.2704 C59.1146,249.5074 59.1696,249.8174 59.2286,250.1464 C59.3056,250.5894 59.3946,251.0914 59.3606,251.6354 C59.3296,252.1514 59.2446,252.6324 59.1696,253.0554 C59.1146,253.3704 59.0576,253.6764 59.0366,253.9744 C59.0156,254.2894 59.0486,254.6344 59.0836,254.9984 C59.1256,255.4334 59.1696,255.8814 59.1306,256.3544 C59.0756,257.0204 58.9256,257.6004 58.8046,258.0644 C58.7416,258.3044 58.6796,258.5214 58.6556,258.7194 C58.5646,259.4804 57.9176,260.0414 57.1686,260.0414" id="Fill-290" fill="#D5E1D5"/><path d="M159.0915,260.225 C158.5595,260.225 158.0425,259.94 157.7705,259.44 C157.4845,258.917 157.4015,258.377 157.3285,257.901 C157.2805,257.594 157.2325,257.277 157.1435,257.119 C156.9685,256.811 156.7725,256.499 156.5705,256.178 C156.3545,255.835 156.1325,255.482 155.9185,255.112 C155.8275,254.953 155.6225,254.744 155.4055,254.522 C155.0705,254.18 154.6925,253.793 154.3885,253.273 C154.1095,252.795 153.9615,252.303 153.8305,251.87 C153.7345,251.546 153.6425,251.241 153.5235,251.039 C153.2895,250.644 153.1115,250.248 152.9395,249.866 C152.7835,249.523 152.6385,249.199 152.4705,248.917 C152.3285,248.679 152.1195,248.422 151.8995,248.151 C151.6295,247.819 151.3235,247.443 151.0615,247.004 C150.7855,246.544 150.6185,246.069 150.4715,245.65 C150.3585,245.329 150.2515,245.025 150.1225,244.81 C149.9105,244.459 149.7145,244.093 149.5185,243.725 C149.3425,243.396 149.1665,243.064 148.9715,242.742 C148.8815,242.593 148.6535,242.386 148.4355,242.186 C148.0735,241.857 147.6645,241.484 147.3455,240.959 C147.0415,240.457 146.8895,239.944 146.7555,239.491 C146.6635,239.181 146.5765,238.889 146.4715,238.716 C146.3575,238.529 146.1395,238.309 145.9075,238.076 C145.5825,237.747 145.2135,237.376 144.9155,236.89 C144.6185,236.406 144.4545,235.91 144.3095,235.473 C144.2055,235.162 144.1085,234.868 143.9925,234.679 C143.7845,234.34 143.5805,233.999 143.3765,233.659 C143.1755,233.324 142.9755,232.99 142.7715,232.658 C142.6655,232.488 142.4455,232.279 142.2115,232.057 C141.8675,231.733 141.4795,231.365 141.1715,230.867 C141.0385,230.652 140.8195,230.417 140.5865,230.168 C140.2835,229.844 139.9405,229.478 139.6575,229.022 C139.3145,228.467 139.1805,227.875 139.0725,227.4 C139.0165,227.151 138.9455,226.84 138.8755,226.727 C138.8015,226.607 138.5455,226.407 138.3395,226.245 C137.9575,225.946 137.4825,225.573 137.1395,225.025 C136.7395,224.385 136.6685,223.703 136.6125,223.154 C136.5915,222.962 136.5615,222.674 136.5245,222.584 C136.4075,222.402 136.1825,222.171 135.9435,221.928 C135.6315,221.611 135.2785,221.251 134.9925,220.796 C134.6985,220.33 134.5095,219.857 134.3425,219.44 C134.2195,219.133 134.1045,218.845 133.9805,218.649 C133.8535,218.448 133.6185,218.229 133.3715,217.997 C133.0405,217.689 132.6655,217.338 132.3705,216.875 C132.2375,216.666 131.9955,216.447 131.7395,216.214 C131.4095,215.913 131.0345,215.573 130.7425,215.121 C130.3115,214.454 130.1915,213.737 130.1035,213.213 C130.0755,213.049 130.0345,212.802 130.0035,212.725 C129.5305,212.022 129.1025,211.848 129.0845,211.841 L130.1715,209.045 C130.6695,209.239 131.6345,209.765 132.5345,211.123 C132.8825,211.648 132.9785,212.216 133.0625,212.717 C133.1125,213.012 133.1675,213.346 133.2615,213.492 C133.3415,213.616 133.5545,213.809 133.7595,213.996 C134.1125,214.317 134.5515,214.716 134.8995,215.261 C134.9905,215.405 135.2085,215.609 135.4205,215.806 C135.7595,216.123 136.1825,216.519 136.5145,217.042 C136.7865,217.473 136.9675,217.926 137.1275,218.326 C137.2585,218.653 137.3825,218.962 137.5305,219.198 C137.6465,219.38 137.8595,219.597 138.0835,219.827 C138.4085,220.158 138.7775,220.533 139.0815,221.02 C139.4695,221.637 139.5385,222.305 139.5955,222.842 C139.6165,223.046 139.6495,223.356 139.6925,223.45 C139.7475,223.537 140.0035,223.738 140.1915,223.884 C140.5815,224.191 141.0695,224.573 141.4225,225.141 C141.7605,225.684 141.8935,226.269 141.9985,226.739 C142.0605,227.008 142.1295,227.315 142.2085,227.442 C142.3345,227.645 142.5495,227.875 142.7775,228.12 C143.0855,228.449 143.4345,228.822 143.7235,229.29 C143.8245,229.454 144.0425,229.661 144.2735,229.878 C144.6195,230.206 145.0125,230.578 145.3245,231.084 C145.5355,231.427 145.7425,231.772 145.9495,232.117 C146.1485,232.448 146.3465,232.779 146.5485,233.109 C146.8465,233.593 147.0115,234.09 147.1565,234.528 C147.2605,234.839 147.3585,235.134 147.4735,235.324 C147.5885,235.51 147.8065,235.73 148.0365,235.962 C148.3635,236.292 148.7355,236.665 149.0325,237.154 C149.3425,237.662 149.4955,238.181 149.6315,238.639 C149.7225,238.945 149.8075,239.234 149.9095,239.403 C150.0045,239.557 150.2345,239.767 150.4555,239.969 C150.8165,240.297 151.2235,240.668 151.5375,241.19 C151.7605,241.557 151.9635,241.936 152.1645,242.312 C152.3365,242.634 152.5065,242.954 152.6925,243.262 C152.9805,243.741 153.1515,244.227 153.3015,244.655 C153.4115,244.967 153.5155,245.262 153.6355,245.462 C153.7875,245.717 154.0015,245.981 154.2285,246.259 C154.4935,246.586 154.7945,246.957 155.0475,247.382 C155.3025,247.81 155.4995,248.246 155.6735,248.632 C155.8105,248.936 155.9425,249.237 156.1065,249.514 C156.4105,250.029 156.5665,250.548 156.7035,251.006 C156.7945,251.307 156.8795,251.591 156.9785,251.759 C157.0945,251.958 157.3165,252.185 157.5495,252.423 C157.8715,252.753 158.2375,253.126 158.5175,253.613 C158.7105,253.948 158.9135,254.269 159.1105,254.58 C159.3375,254.943 159.5575,255.294 159.7545,255.642 C160.1135,256.279 160.2135,256.925 160.2935,257.445 C160.3225,257.635 160.3665,257.923 160.4065,258.01 C160.8035,258.737 160.5335,259.645 159.8065,260.041 C159.5795,260.165 159.3335,260.225 159.0915,260.225" id="Fill-292" fill="#D5E1D5"/><path d="M171.1113,261.4217 C170.6703,261.4217 170.2353,261.2287 169.9383,260.8577 C169.8693,260.7717 169.7763,260.6747 169.6693,260.5597 C169.3233,260.1857 168.7973,259.6217 168.3203,258.8437 C168.1163,258.5117 167.9283,258.1347 167.7303,257.7307 C167.5703,257.4037 167.4003,257.0547 167.1953,256.7037 C166.8843,256.1727 166.7813,255.6187 166.6903,255.1307 C166.6333,254.8277 166.5753,254.5137 166.4843,254.3537 C166.4493,254.3217 166.2163,254.1647 166.0633,254.0607 C165.5913,253.7427 165.0053,253.3457 164.6223,252.6637 C164.3893,252.2487 164.2223,251.8327 164.0613,251.4297 C163.9223,251.0857 163.7913,250.7597 163.6363,250.4787 C163.3873,250.0307 163.2273,249.5667 163.0853,249.1577 C162.9703,248.8227 162.8613,248.5067 162.7253,248.2597 C162.4433,247.7487 162.3153,247.2277 162.2013,246.7687 C162.1233,246.4507 162.0493,246.1497 161.9473,245.9637 C161.8983,245.8977 161.6533,245.7177 161.4913,245.5967 C161.0533,245.2747 160.5093,244.8737 160.1553,244.2247 C159.9033,243.7617 159.7463,243.2897 159.6093,242.8717 C159.5003,242.5407 159.3973,242.2267 159.2693,241.9927 L158.1393,239.8917 C158.0513,239.7287 157.8433,239.5147 157.6223,239.2887 C157.2843,238.9407 156.9013,238.5467 156.6123,238.0127 C156.3293,237.4927 156.2023,236.9677 156.0903,236.5057 C156.0143,236.1927 155.9433,235.8967 155.8463,235.7177 C155.6473,235.3487 155.4623,234.9687 155.2803,234.5897 C155.1173,234.2537 154.9553,233.9177 154.7803,233.5917 C154.6453,233.3427 154.4423,233.0757 154.2273,232.7937 C153.9673,232.4517 153.6733,232.0647 153.4313,231.6167 C153.1603,231.1157 153.0203,230.6107 152.8963,230.1657 C152.8083,229.8487 152.7253,229.5507 152.6193,229.3537 C152.5043,229.1417 152.2963,228.8997 152.0763,228.6437 C151.7813,228.3007 151.4473,227.9137 151.1853,227.4307 C150.8603,226.8307 150.7773,226.2077 150.7103,225.7067 C150.6813,225.4857 150.6363,225.1507 150.5843,225.0537 C150.5533,225.0347 150.3013,224.8827 150.1343,224.7817 C149.6353,224.4807 149.0153,224.1057 148.6383,223.4137 C148.3023,222.7957 148.2283,222.1557 148.1683,221.6407 C148.1453,221.4327 148.1083,221.1177 148.0643,221.0237 C147.9913,220.8897 147.7493,220.6777 147.5363,220.4907 C147.1763,220.1737 146.7283,219.7777 146.4223,219.2217 C146.0833,218.6067 145.9943,217.9697 145.9233,217.4597 C145.8953,217.2547 145.8523,216.9437 145.8073,216.8517 C145.7423,216.7337 145.4743,216.5277 145.2603,216.3627 C144.8713,216.0617 144.3883,215.6877 144.0693,215.1257 C143.6343,214.3607 143.6343,213.5487 143.6343,212.9567 C143.6333,212.8267 143.6333,212.6437 143.6243,212.5397 C143.2233,211.8927 142.8053,211.4987 142.6293,211.3577 C142.1913,211.1717 141.8483,210.7787 141.7453,210.2767 C141.5793,209.4657 142.1033,208.6737 142.9143,208.5077 C144.4473,208.1957 145.9733,210.6157 146.2633,211.1047 C146.6333,211.7267 146.6333,212.4077 146.6343,212.9547 C146.6343,213.1747 146.6343,213.5427 146.6823,213.6517 C146.7223,213.7007 146.9473,213.8737 147.0953,213.9887 C147.5263,214.3217 148.0633,214.7367 148.4303,215.3957 C148.7433,215.9607 148.8273,216.5627 148.8953,217.0467 C148.9343,217.3267 148.9783,217.6437 149.0503,217.7757 C149.1043,217.8737 149.3543,218.0937 149.5203,218.2397 C149.8983,218.5727 150.3693,218.9877 150.6983,219.5877 C151.0193,220.1757 151.0913,220.7987 151.1493,221.2977 C151.1773,221.5407 151.2153,221.8727 151.2733,221.9787 L151.2743,221.9787 C151.2963,221.9787 151.5313,222.1207 151.6863,222.2147 C152.1693,222.5067 152.8313,222.9067 153.2213,223.6227 C153.5373,224.2067 153.6183,224.8187 153.6843,225.3107 C153.7183,225.5677 153.7613,225.8877 153.8233,226.0017 C153.9303,226.2007 154.1333,226.4367 154.3493,226.6867 C154.6493,227.0357 154.9893,227.4297 155.2583,227.9267 C155.5253,228.4207 155.6633,228.9207 155.7863,229.3617 C155.8753,229.6827 155.9603,229.9867 156.0713,230.1907 C156.2013,230.4337 156.4033,230.6977 156.6163,230.9767 C156.8763,231.3217 157.1733,231.7117 157.4183,232.1647 C157.6173,232.5317 157.7993,232.9087 157.9813,233.2857 C158.1443,233.6237 158.3073,233.9627 158.4863,234.2927 C158.7673,234.8127 158.8943,235.3367 159.0063,235.7987 C159.0813,236.1117 159.1543,236.4067 159.2493,236.5837 C159.3403,236.7517 159.5503,236.9677 159.7733,237.1967 C160.1093,237.5427 160.4903,237.9337 160.7773,238.4617 L161.9053,240.5587 C162.1613,241.0307 162.3193,241.5087 162.4583,241.9317 C162.5663,242.2577 162.6663,242.5647 162.7883,242.7877 C162.8433,242.8677 163.1013,243.0567 163.2713,243.1827 C163.7003,243.4997 164.2333,243.8927 164.5783,244.5217 C164.8683,245.0517 164.9993,245.5827 165.1153,246.0507 C165.1903,246.3567 165.2613,246.6467 165.3523,246.8117 C165.6133,247.2837 165.7773,247.7597 165.9213,248.1777 C166.0333,248.4997 166.1373,248.8037 166.2593,249.0227 C166.5063,249.4677 166.6863,249.9167 166.8453,250.3117 C166.9773,250.6407 167.1013,250.9517 167.2393,251.1967 C167.2953,251.2727 167.5653,251.4547 167.7423,251.5757 C168.1863,251.8757 168.7373,252.2477 169.0903,252.8697 C169.4323,253.4677 169.5463,254.0857 169.6393,254.5817 C169.6773,254.7877 169.7363,255.0997 169.7853,255.1907 C170.0293,255.6077 170.2333,256.0207 170.4233,256.4097 C170.5763,256.7227 170.7183,257.0167 170.8753,257.2727 C171.1983,257.7967 171.5693,258.1967 171.8673,258.5177 C172.0343,258.6967 172.1743,258.8507 172.2823,258.9847 C172.7983,259.6327 172.6943,260.5757 172.0463,261.0927 C171.7703,261.3137 171.4393,261.4217 171.1113,261.4217 L171.1113,261.4217 Z" id="Fill-294" fill="#D5E1D5"/><path d="M183.0458,259.6917 C182.6778,259.6917 182.3078,259.5567 182.0188,259.2857 C181.9598,259.2297 181.8878,259.1717 181.8058,259.1027 C181.4198,258.7807 180.7738,258.2417 180.1618,257.3387 C180.0688,257.2027 179.8748,257.0107 179.6678,256.8077 C179.3098,256.4587 178.8658,256.0217 178.5018,255.4397 C178.2648,255.0617 178.0268,254.6557 177.7788,254.2307 C177.6048,253.9337 177.4268,253.6277 177.2368,253.3147 C177.0148,252.9447 176.8168,252.5457 176.6178,252.1347 C176.4558,251.8017 176.2908,251.4607 176.0938,251.1277 C175.8518,250.7167 175.6658,250.3007 175.4848,249.8997 C175.3378,249.5707 175.1898,249.2347 175.0038,248.9137 C174.7878,248.5427 174.5908,248.1537 174.3908,247.7597 C174.2208,247.4217 174.0478,247.0777 173.8538,246.7407 C173.7978,246.6437 173.5258,246.4277 173.3468,246.2847 C172.9338,245.9567 172.4218,245.5477 172.0698,244.9297 C171.7418,244.3537 171.6358,243.7397 171.5508,243.2467 C171.5008,242.9617 171.4448,242.6387 171.3678,242.5027 C171.3088,242.4117 171.0418,242.2087 170.8638,242.0747 C170.4338,241.7487 169.8998,241.3427 169.5438,240.7107 C169.1718,240.0497 169.1368,239.3507 169.1078,238.7887 C169.0978,238.5767 169.0808,238.2557 169.0418,238.1557 C168.8418,237.7997 168.6408,237.4227 168.4398,237.0447 C168.2578,236.6997 168.0748,236.3547 167.8848,236.0127 C167.7948,235.8527 167.5628,235.6307 167.3388,235.4157 C166.9738,235.0657 166.5598,234.6697 166.2518,234.1177 C166.0568,233.7697 165.8558,233.4277 165.6548,233.0877 C165.4408,232.7257 165.2278,232.3647 165.0248,231.9997 C164.7088,231.4337 164.5898,230.8377 164.4938,230.3577 C164.4338,230.0597 164.3728,229.7537 164.2918,229.6067 C164.2018,229.4467 163.9688,229.2257 163.7418,229.0117 C163.3738,228.6657 162.9578,228.2717 162.6488,227.7217 C162.3978,227.2697 162.2168,226.8107 162.0568,226.4057 C161.9218,226.0637 161.7948,225.7407 161.6478,225.4807 C161.4868,225.1927 161.2728,224.9017 161.0468,224.5937 C160.7848,224.2387 160.5148,223.8717 160.2768,223.4487 C159.9928,222.9437 159.8338,222.4337 159.6928,221.9837 C159.5918,221.6607 159.4958,221.3557 159.3818,221.1547 C159.1338,220.7147 158.9398,220.2707 158.7698,219.8787 C158.6308,219.5567 158.4958,219.2407 158.3298,218.9497 C158.2678,218.8667 157.9828,218.6807 157.7948,218.5587 C157.3338,218.2587 156.7598,217.8857 156.3928,217.2527 C155.9728,216.5237 155.9538,215.7327 155.9408,215.1557 C155.9368,214.9737 155.9308,214.6997 155.9058,214.6107 C155.8678,214.5657 155.5468,214.3587 155.3108,214.2087 C154.8688,213.9237 154.3668,213.6027 154.0218,213.0537 C153.5508,212.3037 153.2458,211.6487 153.0448,211.2147 C153.0158,211.1557 152.9908,211.0997 152.9688,211.0517 C152.8368,210.9097 152.7298,210.7387 152.6598,210.5447 C152.3778,209.7657 152.7788,208.9057 153.5578,208.6227 C154.9138,208.1337 155.5558,209.5007 155.7648,209.9517 C155.9448,210.3387 156.1908,210.8687 156.5608,211.4577 L156.5618,211.4577 C156.5788,211.4577 156.7898,211.5927 156.9308,211.6827 C157.4188,211.9957 158.0868,212.4237 158.5268,213.1687 C158.9108,213.8147 158.9278,214.5207 158.9398,215.0877 C158.9448,215.3137 158.9528,215.6577 158.9968,215.7637 C159.0248,215.7807 159.2678,215.9387 159.4298,216.0437 C159.9228,216.3637 160.5368,216.7617 160.9358,217.4637 C161.1678,217.8697 161.3478,218.2827 161.5208,218.6827 C161.6658,219.0137 161.8098,219.3527 161.9928,219.6767 C162.2638,220.1547 162.4188,220.6507 162.5558,221.0887 C162.6618,221.4267 162.7618,221.7467 162.8918,221.9777 C163.0398,222.2407 163.2448,222.5197 163.4628,222.8157 C163.7218,223.1667 164.0148,223.5647 164.2658,224.0137 C164.5108,224.4507 164.6818,224.8847 164.8478,225.3047 C164.9848,225.6537 165.1148,225.9827 165.2678,226.2577 C165.3508,226.4057 165.5798,226.6217 165.8008,226.8307 C166.1548,227.1647 166.5958,227.5807 166.9108,228.1437 C167.2228,228.7027 167.3358,229.2687 167.4358,229.7697 C167.4958,230.0717 167.5578,230.3827 167.6438,230.5377 C167.8368,230.8807 168.0378,231.2217 168.2388,231.5627 C168.4518,231.9237 168.6648,232.2867 168.8698,232.6527 C168.9598,232.8127 169.1908,233.0357 169.4158,233.2507 C169.7798,233.6007 170.1938,233.9977 170.5028,234.5487 C170.7048,234.9107 170.8978,235.2757 171.0918,235.6397 C171.2798,235.9967 171.4698,236.3537 171.6658,236.7047 C172.0398,237.3707 172.0758,238.0737 172.1038,238.6377 C172.1138,238.8457 172.1308,239.1617 172.1678,239.2587 C172.2158,239.3347 172.4928,239.5447 172.6768,239.6837 C173.0998,240.0057 173.6278,240.4047 173.9778,241.0237 C174.3118,241.6127 174.4198,242.2357 174.5068,242.7357 C174.5518,242.9987 174.6078,243.3257 174.6768,243.4447 C174.7418,243.5607 175.0158,243.7797 175.2168,243.9387 C175.6178,244.2587 176.1168,244.6567 176.4558,245.2477 C176.6768,245.6317 176.8738,246.0207 177.0688,246.4067 C177.2418,246.7487 177.4108,247.0867 177.5978,247.4077 C177.8498,247.8407 178.0478,248.2827 178.2228,248.6727 C178.3758,249.0137 178.5208,249.3367 178.6778,249.6017 C178.9158,250.0057 179.1178,250.4187 179.3138,250.8217 C179.4738,251.1497 179.6288,251.4697 179.8058,251.7647 C180.0018,252.0887 180.1878,252.4077 180.3688,252.7167 C180.5998,253.1137 180.8218,253.4927 181.0438,253.8467 C181.2208,254.1297 181.4868,254.3897 181.7688,254.6677 C182.0718,254.9647 182.3848,255.2707 182.6448,255.6557 C183.0198,256.2097 183.3958,256.5227 183.7278,256.7987 C183.8598,256.9097 183.9758,257.0077 184.0718,257.0977 C184.6768,257.6657 184.7068,258.6147 184.1398,259.2177 C183.8448,259.5337 183.4448,259.6917 183.0458,259.6917 L183.0458,259.6917 Z" id="Fill-296" fill="#D5E1D5"/><path d="M196.1842,261.4008 C195.7252,261.4008 195.2722,261.1908 194.9772,260.7938 C194.6722,260.3808 194.4722,259.9458 194.2782,259.5238 C194.1302,259.2018 193.9902,258.8978 193.8202,258.6448 C193.7672,258.5818 193.5232,258.4178 193.3632,258.3078 C192.9132,258.0048 192.3552,257.6268 191.9522,256.9968 C191.6192,256.4738 191.4832,255.9288 191.3632,255.4478 C191.2892,255.1528 191.2132,254.8468 191.1172,254.6918 C190.9512,254.4208 190.7522,254.1648 190.5532,253.9028 C190.2912,253.5598 189.9952,253.1708 189.7332,252.7338 C189.4552,252.2728 189.2882,251.7938 189.1412,251.3708 C189.0292,251.0468 188.9222,250.7438 188.7922,250.5218 C188.6662,250.3088 188.4622,250.0678 188.2452,249.8138 C187.9532,249.4708 187.6212,249.0828 187.3482,248.6078 C187.2462,248.4318 187.0382,248.2138 186.8182,247.9828 C186.4922,247.6388 186.1212,247.2498 185.8292,246.7368 C185.4912,246.1448 185.4072,245.5168 185.3402,245.0128 C185.3102,244.7888 185.2652,244.4498 185.2102,244.3528 C185.1082,244.1718 184.9012,243.9498 184.6812,243.7138 C184.3592,243.3698 183.9952,242.9788 183.7092,242.4668 C183.4512,242.0048 183.2902,241.5308 183.1482,241.1118 C183.0382,240.7868 182.9342,240.4798 182.8072,240.2508 C182.7452,240.1378 182.5052,239.9288 182.3122,239.7608 C181.9392,239.4348 181.4742,239.0298 181.1552,238.4478 C180.8412,237.8768 180.7422,237.2768 180.6622,236.7948 C180.6182,236.5248 180.5672,236.2188 180.4992,236.0958 C180.3842,235.8838 180.1792,235.6418 179.9622,235.3858 C179.6712,235.0428 179.3402,234.6518 179.0792,234.1688 C178.9012,233.8398 178.7142,233.5168 178.5282,233.1948 C178.3172,232.8318 178.1082,232.4688 177.9102,232.1008 C177.6272,231.5768 177.5012,231.0498 177.3912,230.5858 C177.3182,230.2768 177.2482,229.9858 177.1562,229.8138 C176.9282,229.3878 176.7592,228.9698 176.5972,228.5668 C176.4702,228.2528 176.3462,227.9378 176.1902,227.6438 C176.0622,227.4028 175.8602,227.1428 175.6462,226.8668 C175.3802,226.5238 175.0802,226.1348 174.8372,225.6778 C174.6352,225.2968 174.4502,224.9108 174.2662,224.5278 C174.1082,224.1988 173.9522,223.8728 173.7852,223.5548 C173.6062,223.2168 173.4152,222.8878 173.2282,222.5628 C173.0202,222.2038 172.8142,221.8478 172.6262,221.4898 C172.3642,220.9898 172.2202,220.4908 172.0932,220.0488 C172.0032,219.7368 171.9182,219.4418 171.8162,219.2438 C171.6052,218.8398 171.4232,218.4308 171.2462,218.0298 C171.1052,217.7108 170.9672,217.3958 170.8142,217.0988 C170.7472,216.9718 170.4972,216.7548 170.2972,216.5788 C169.9292,216.2568 169.4722,215.8578 169.1752,215.2848 C168.9242,214.7988 168.7532,214.3278 168.6032,213.9108 C168.4902,213.5978 168.3832,213.3028 168.2702,213.0838 C168.1032,212.7578 167.8822,212.4598 167.6502,212.1418 C167.4092,211.8148 167.1602,211.4758 166.9642,211.0948 C166.4812,210.1528 166.4302,209.6028 166.4182,209.1208 C166.4142,208.9628 166.4142,208.9538 166.3192,208.7638 C165.9432,208.0258 166.2382,207.1228 166.9762,206.7478 C167.7162,206.3738 168.6182,206.6668 168.9932,207.4048 C169.3672,208.1408 169.4082,208.6218 169.4172,209.0508 C169.4212,209.2228 169.4242,209.3178 169.6332,209.7248 C169.7192,209.8918 169.8882,210.1218 170.0672,210.3648 C170.3302,210.7248 170.6602,211.1718 170.9372,211.7088 C171.1392,212.1018 171.2852,212.5038 171.4242,212.8908 C171.5552,213.2538 171.6792,213.5958 171.8382,213.9048 C171.8872,213.9838 172.1192,214.1858 172.2722,214.3198 C172.6632,214.6618 173.1482,215.0868 173.4762,215.7158 C173.6592,216.0698 173.8242,216.4408 173.9912,216.8198 C174.1422,217.1618 174.2942,217.5108 174.4742,217.8548 C174.7182,218.3218 174.8562,218.7988 174.9772,219.2208 C175.0722,219.5528 175.1632,219.8668 175.2832,220.0958 C175.4522,220.4188 175.6372,220.7378 175.8242,221.0608 C176.0322,221.4198 176.2422,221.7828 176.4392,222.1578 C176.6222,222.5068 176.7952,222.8658 176.9702,223.2288 C177.1372,223.5768 177.3052,223.9268 177.4892,224.2748 C177.6102,224.5038 177.8082,224.7588 178.0182,225.0298 C178.2862,225.3758 178.5892,225.7678 178.8382,226.2348 C179.0572,226.6448 179.2202,227.0508 179.3792,227.4438 C179.5092,227.7658 179.6372,228.0908 179.8012,228.3988 C180.0772,228.9138 180.2002,229.4318 180.3092,229.8888 C180.3842,230.2038 180.4552,230.4998 180.5512,230.6798 C180.7352,231.0208 180.9292,231.3558 181.1242,231.6928 C181.3252,232.0398 181.5262,232.3858 181.7172,232.7398 C181.8302,232.9498 182.0362,233.1918 182.2522,233.4478 C182.5422,233.7908 182.8722,234.1798 183.1342,234.6618 C183.4442,235.2298 183.5422,235.8258 183.6212,236.3038 C183.6662,236.5748 183.7172,236.8808 183.7852,237.0038 C183.8482,237.1198 184.0902,237.3308 184.2852,237.5008 C184.6552,237.8228 185.1152,238.2248 185.4322,238.7988 C185.6892,239.2618 185.8482,239.7328 185.9902,240.1488 C186.1002,240.4738 186.2042,240.7808 186.3292,241.0048 C186.4372,241.1988 186.6492,241.4258 186.8742,241.6678 C187.1892,242.0048 187.5452,242.3858 187.8242,242.8798 C188.1632,243.4808 188.2472,244.1108 188.3142,244.6168 C188.3422,244.8318 188.3852,245.1568 188.4352,245.2518 C188.5462,245.4468 188.7632,245.6738 188.9922,245.9158 C189.3072,246.2468 189.6642,246.6218 189.9452,247.1058 C190.0822,247.3448 190.2992,247.5988 190.5282,247.8678 C190.8052,248.1928 191.1202,248.5608 191.3782,249.0008 C191.6592,249.4778 191.8262,249.9588 191.9742,250.3828 C192.0832,250.6968 192.1862,250.9928 192.3042,251.1888 C192.4822,251.4848 192.7052,251.7768 192.9392,252.0858 C193.2002,252.4268 193.4542,252.7648 193.6702,253.1168 C194.0112,253.6688 194.1572,254.2528 194.2742,254.7218 C194.3352,254.9678 194.4122,255.2738 194.4802,255.3808 C194.5482,255.4888 194.8342,255.6818 195.0442,255.8238 C195.4472,256.0958 195.9482,256.4358 196.3072,256.9668 C196.6142,257.4228 196.8212,257.8738 197.0032,258.2698 C197.1402,258.5668 197.2682,258.8458 197.3892,259.0088 C197.8812,259.6748 197.7422,260.6138 197.0762,261.1068 C196.8072,261.3048 196.4952,261.4008 196.1842,261.4008" id="Fill-298" fill="#D5E1D5"/><path d="M189.3341,307.3158 C191.1511,307.3158 192.7101,306.0208 193.0431,304.2338 L194.9081,294.2228 C194.9081,294.2228 196.0171,287.9048 200.2291,293.4468 C202.7031,296.7028 206.0191,300.9198 208.3341,303.8438 C210.0711,306.0388 212.7151,307.3158 215.5141,307.3158 L257.6471,307.3158 C257.6471,307.3158 272.7231,306.8588 272.2791,296.9938 C271.8361,287.1288 254.3221,284.0248 254.3221,284.0248 C254.3221,284.0248 218.8501,275.9038 206.4521,258.6048 C187.5931,258.5468 165.3271,258.4998 150.3051,258.5358 L178.6281,304.6328 C179.6521,306.2998 181.4691,307.3158 183.4261,307.3158 L189.3341,307.3158 Z" id="Fill-300" fill="#02A0E7"/><path d="M21.2365,307.3158 C22.8745,307.3158 24.3265,306.2628 24.8345,304.7068 L28.6375,293.0588 C28.6375,293.0588 30.3005,287.6828 32.9605,293.0028 C34.5935,296.2688 36.8105,300.9168 38.2795,304.0198 C39.2335,306.0358 41.2615,307.3158 43.4915,307.3158 L99.2475,307.3158 C99.2475,307.3158 109.9715,306.9138 111.1085,299.4318 C112.4385,290.6748 96.9195,286.4628 96.9195,286.4628 C96.9195,286.4628 61.3085,276.3638 63.3035,258.7388 L63.3185,258.6048 L11.9535,258.6048 L7.3435,303.1418 C7.1125,305.3748 8.8645,307.3158 11.1085,307.3158 L21.2365,307.3158 Z" id="Fill-302" fill="#02A0E7"/><path d="M189.2243,201.475 L108.6953,25.973 L22.5413,25.973 L0.9243,206.519 C0.4553,209.993 3.1573,213.082 6.6623,213.082 L75.3183,213.082 C78.3673,213.082 80.8933,210.718 81.0953,207.677 L83.8573,166.128 L103.9423,209.571 C104.9253,211.697 107.0913,213.021 109.4313,212.926 L184.3063,209.901 C188.5303,209.731 191.1533,205.237 189.2243,201.475" id="Fill-304" fill="#A4CDE1"/><path d="M87.8405,176.8139 C87.2745,176.8139 86.7325,176.4919 86.4785,175.9439 C86.2745,175.5019 86.1525,175.3209 85.9985,175.0909 C85.8075,174.8059 85.5915,174.4829 85.2875,173.8259 C84.8515,172.8819 84.9445,172.1679 85.0005,171.7419 C85.0365,171.4669 85.0365,171.4619 84.9655,171.3059 C84.8815,171.1269 84.8635,171.1139 84.6405,170.9579 C84.2785,170.7059 83.7325,170.3249 83.3085,169.4069 C82.8825,168.4869 82.9485,167.8219 82.9925,167.3809 C83.0195,167.1119 83.0215,167.0889 82.9395,166.9119 C82.6935,166.3789 82.5635,166.1199 82.4325,165.8579 C82.2925,165.5789 82.1525,165.2969 81.8905,164.7309 C81.7915,164.5179 81.7535,164.4889 81.5435,164.3279 C81.2095,164.0729 80.7055,163.6869 80.2965,162.8009 C79.9545,162.0619 79.8795,161.5839 79.8235,161.2339 C79.7825,160.9749 79.7585,160.8179 79.5925,160.4579 C79.4525,160.1569 79.3685,160.0739 79.1855,159.8929 C78.9095,159.6209 78.5315,159.2489 78.1625,158.4519 C77.7385,157.5339 77.8015,156.8719 77.8425,156.4339 C77.8675,156.1679 77.8705,156.1389 77.7865,155.9579 C77.5635,155.4739 77.4275,155.2429 77.2925,155.0119 C77.1205,154.7179 76.9495,154.4239 76.6655,153.8099 C76.3215,153.0689 76.2475,152.5869 76.1945,152.2369 C76.1535,151.9789 76.1305,151.8229 75.9655,151.4649 C75.8375,151.1899 75.7665,151.1259 75.5755,150.9509 C75.2775,150.6769 74.8675,150.3029 74.4875,149.4789 C74.3095,149.0939 74.1985,148.9559 74.0325,148.7469 C73.8105,148.4669 73.5335,148.1189 73.2035,147.4059 C72.9785,146.9179 72.8435,146.6849 72.7085,146.4519 C72.5385,146.1589 72.3695,145.8659 72.0875,145.2539 C71.7635,144.5529 71.6715,144.1259 71.5985,143.7829 C71.5405,143.5149 71.5035,143.3379 71.3195,142.9409 C70.9955,142.2399 70.9035,141.8119 70.8305,141.4679 C70.7745,141.2019 70.7365,141.0249 70.5525,140.6269 C70.4335,140.3699 70.3735,140.3179 70.1755,140.1469 C69.8785,139.8889 69.4295,139.5009 69.0405,138.6579 C68.6385,137.7889 68.6565,137.1699 68.6685,136.7599 C68.6755,136.4999 68.6775,136.4379 68.5715,136.2089 C68.4545,135.9569 68.3955,135.9049 68.1965,135.7349 C67.8975,135.4779 67.4435,135.0889 67.0525,134.2419 C66.8175,133.7329 66.6845,133.4849 66.5515,133.2369 C66.3995,132.9509 66.2455,132.6649 65.9745,132.0759 C65.7075,131.5009 65.5865,131.2069 65.4645,130.9139 C65.3555,130.6479 65.2445,130.3819 65.0045,129.8619 C64.7705,129.3549 64.6375,129.1089 64.5045,128.8619 C64.3495,128.5759 64.1945,128.2889 63.9215,127.6979 C63.4575,126.6969 63.6195,125.9279 63.7165,125.4699 C63.7695,125.2169 63.7695,125.2169 63.7245,125.1199 C63.5765,124.7999 63.4865,124.7079 63.3075,124.5219 C63.0445,124.2499 62.6865,123.8769 62.3255,123.0969 C62.0645,122.5339 61.9405,122.2479 61.8165,121.9619 C61.6985,121.6929 61.5815,121.4229 61.3355,120.8899 C61.1515,120.4919 61.0415,120.3489 60.8755,120.1319 C60.6615,119.8539 60.3955,119.5069 60.0715,118.8059 C59.8545,118.3359 59.7285,118.1299 59.5805,117.8909 C59.4095,117.6129 59.2155,117.2959 58.9245,116.6669 C58.6065,115.9769 58.5095,115.5609 58.4315,115.2259 C58.3695,114.9639 58.3255,114.7739 58.1355,114.3639 C57.9155,113.8879 57.7895,113.6789 57.6435,113.4379 C57.4755,113.1599 57.2845,112.8449 56.9955,112.2189 C56.6155,111.3989 56.5935,110.8479 56.5765,110.4459 C56.5665,110.1859 56.5625,110.0889 56.4335,109.8099 C56.2085,109.3239 56.0725,109.0909 55.9375,108.8589 C55.7665,108.5649 55.5955,108.2709 55.3115,107.6569 C55.0785,107.1549 54.9445,106.9119 54.8115,106.6679 C54.6525,106.3789 54.4925,106.0899 54.2165,105.4929 C54.0275,105.0819 53.9105,104.9249 53.7495,104.7089 C53.5445,104.4309 53.2895,104.0869 52.9705,103.3969 C52.5805,102.5539 52.5745,101.9599 52.5705,101.5659 C52.5685,101.3029 52.5685,101.2239 52.4485,100.9659 C52.3295,100.7099 52.2705,100.6579 52.0705,100.4849 C51.7755,100.2279 51.3265,99.8389 50.9375,98.9989 C50.7255,98.5409 50.6045,98.3509 50.4505,98.1119 C50.2705,97.8299 50.0665,97.5099 49.7685,96.8679 C49.4415,96.1599 49.3525,95.7269 49.2805,95.3789 C49.2265,95.1149 49.1905,94.9389 49.0075,94.5449 C48.8135,94.1249 48.6965,93.9629 48.5355,93.7399 C48.3375,93.4639 48.0905,93.1219 47.7765,92.4399 C47.4075,91.6439 47.3665,91.1159 47.3375,90.7289 C47.3175,90.4709 47.3085,90.3529 47.1665,90.0469 C46.8235,89.3049 46.7475,88.8259 46.6935,88.4749 C46.6525,88.2139 46.6265,88.0559 46.4585,87.6939 C46.2735,87.2919 46.1555,87.1379 45.9945,86.9259 C45.7825,86.6469 45.5195,86.2999 45.1945,85.5999 C44.8475,84.8489 45.1745,83.9579 45.9265,83.6089 C46.6775,83.2599 47.5685,83.5879 47.9175,84.3399 C48.1045,84.7439 48.2215,84.8969 48.3825,85.1089 C48.5945,85.3879 48.8585,85.7349 49.1825,86.4349 C49.5255,87.1769 49.6015,87.6569 49.6555,88.0069 C49.6965,88.2679 49.7225,88.4249 49.8905,88.7889 C50.2575,89.5839 50.2985,90.1129 50.3275,90.4989 C50.3485,90.7569 50.3575,90.8759 50.4985,91.1809 C50.6935,91.6019 50.8095,91.7629 50.9705,91.9859 C51.1685,92.2609 51.4155,92.6049 51.7305,93.2869 C52.0585,93.9939 52.1475,94.4269 52.2185,94.7749 C52.2735,95.0399 52.3095,95.2149 52.4905,95.6089 C52.7015,96.0649 52.8235,96.2539 52.9775,96.4939 C53.1575,96.7759 53.3615,97.0949 53.6595,97.7379 C53.7785,97.9949 53.8385,98.0469 54.0375,98.2189 C54.3335,98.4759 54.7815,98.8649 55.1715,99.7069 C55.5615,100.5499 55.5675,101.1439 55.5705,101.5379 C55.5735,101.8009 55.5735,101.8799 55.6935,102.1379 C55.8825,102.5479 55.9985,102.7049 56.1595,102.9209 C56.3645,103.1989 56.6195,103.5429 56.9395,104.2329 C57.1715,104.7349 57.3055,104.9779 57.4395,105.2209 C57.5985,105.5099 57.7575,105.7989 58.0335,106.3969 C58.2585,106.8829 58.3945,107.1159 58.5295,107.3479 C58.7005,107.6419 58.8715,107.9359 59.1555,108.5499 C59.5355,109.3709 59.5585,109.9209 59.5745,110.3239 C59.5855,110.5839 59.5895,110.6799 59.7185,110.9599 C59.9385,111.4349 60.0645,111.6439 60.2105,111.8849 C60.3785,112.1639 60.5695,112.4779 60.8585,113.1039 C61.1775,113.7929 61.2745,114.2099 61.3525,114.5449 C61.4135,114.8079 61.4575,114.9979 61.6475,115.4079 C61.8645,115.8759 61.9905,116.0839 62.1385,116.3219 C62.3095,116.6009 62.5035,116.9179 62.7945,117.5469 C62.9795,117.9459 63.0885,118.0879 63.2545,118.3049 C63.4685,118.5839 63.7355,118.9299 64.0585,119.6309 C64.3195,120.1959 64.4445,120.4809 64.5685,120.7659 C64.6855,121.0359 64.8025,121.3049 65.0485,121.8389 C65.1965,122.1599 65.2865,122.2519 65.4655,122.4379 C65.7285,122.7099 66.0875,123.0819 66.4465,123.8619 C66.9095,124.8619 66.7485,125.6289 66.6525,126.0869 C66.5985,126.3399 66.5985,126.3399 66.6445,126.4379 C66.8785,126.9459 67.0115,127.1919 67.1445,127.4379 C67.2995,127.7249 67.4535,128.0119 67.7275,128.6019 C67.9935,129.1779 68.1145,129.4719 68.2365,129.7649 C68.3465,130.0309 68.4565,130.2959 68.6965,130.8169 C68.9335,131.3279 69.0665,131.5759 69.1975,131.8249 C69.3515,132.1099 69.5035,132.3959 69.7755,132.9829 C69.8925,133.2369 69.9515,133.2889 70.1495,133.4579 C70.4495,133.7139 70.9035,134.1029 71.2945,134.9499 C71.6965,135.8189 71.6785,136.4379 71.6665,136.8469 C71.6595,137.1079 71.6575,137.1699 71.7635,137.3989 C71.8825,137.6559 71.9425,137.7079 72.1405,137.8789 C72.4375,138.1359 72.8865,138.5259 73.2755,139.3689 C73.6005,140.0699 73.6925,140.4989 73.7655,140.8419 C73.8215,141.1089 73.8605,141.2859 74.0425,141.6829 C74.3665,142.3839 74.4585,142.8109 74.5315,143.1549 C74.5895,143.4219 74.6265,143.5979 74.8105,143.9969 C75.0355,144.4829 75.1705,144.7159 75.3055,144.9499 C75.4755,145.2429 75.6445,145.5359 75.9265,146.1469 C76.1055,146.5329 76.2155,146.6699 76.3815,146.8789 C76.6045,147.1599 76.8805,147.5069 77.2105,148.2199 C77.3385,148.4979 77.4095,148.5629 77.6005,148.7369 C77.8995,149.0099 78.3075,149.3829 78.6885,150.2069 C79.0305,150.9489 79.1055,151.4289 79.1585,151.7799 C79.1985,152.0379 79.2225,152.1929 79.3885,152.5499 C79.6125,153.0359 79.7475,153.2669 79.8825,153.4989 C80.0545,153.7919 80.2255,154.0849 80.5095,154.6989 C80.9335,155.6159 80.8705,156.2779 80.8295,156.7159 C80.8045,156.9829 80.8015,157.0099 80.8855,157.1919 C81.0255,157.4939 81.1095,157.5769 81.2925,157.7569 C81.5685,158.0299 81.9455,158.4019 82.3155,159.1989 C82.6565,159.9389 82.7325,160.4179 82.7875,160.7659 C82.8285,161.0259 82.8535,161.1819 83.0195,161.5429 C83.1175,161.7549 83.1555,161.7839 83.3655,161.9449 C83.6995,162.2009 84.2035,162.5859 84.6125,163.4719 C84.8565,163.9969 84.9865,164.2569 85.1155,164.5159 C85.2575,164.7979 85.3975,165.0799 85.6625,165.6539 C86.0875,166.5729 86.0215,167.2379 85.9775,167.6769 C85.9505,167.9479 85.9485,167.9689 86.0305,168.1479 C86.1145,168.3289 86.1325,168.3409 86.3565,168.4969 C86.7175,168.7499 87.2645,169.1299 87.6885,170.0479 C88.1245,170.9919 88.0305,171.7059 87.9755,172.1309 C87.9395,172.4059 87.9385,172.4109 88.0105,172.5669 C88.2155,173.0099 88.3365,173.1919 88.4905,173.4209 C88.6815,173.7059 88.8975,174.0279 89.2005,174.6829 C89.5485,175.4349 89.2215,176.3269 88.4695,176.6749 C88.2665,176.7689 88.0515,176.8139 87.8405,176.8139" id="Fill-306" fill="#000"/><path d="M15.984,219.6703 C15.984,219.6703 34.466,220.0083 41.829,220.5093 C49.191,221.0113 67.457,220.0903 67.457,220.0903 L68.21,213.0823 L16.666,213.0823 L15.984,219.6703 Z" id="Fill-308" fill="#ef9e89"/><path d="M125.1217,217.5482 C125.1217,217.5482 145.9137,217.5792 153.2297,217.5482 C160.5457,217.5172 181.0917,215.6702 181.0917,215.6702 L177.8497,210.1622 L121.9707,212.4192 L125.1217,217.5482 Z" id="Fill-310" fill="#ef9e89"/><path d="M108.695,25.973 L22.541,25.973 C22.541,11.932 33.924,0.549 47.965,0.549 L83.271,0.549 C97.312,0.549 108.695,11.932 108.695,25.973" id="Fill-312" fill="#A4CDE1"/></g></g></g></g><g id="Upper Body" transform="translate(-1.000000, 0.000000) scale(1 1)"><defs><polygon id="upper-bodysuperhero-path-1" points="0.606828676 0.9535 32.904 0.9535 32.904 6.2565 0.606828676 6.2565"/><polygon id="upper-bodysuperhero-path-3" points="0 0.0324 255.9499 0.0324 255.9499 196.950829 0 196.950829"/></defs><g id="Upper Body/Superhero" stroke="none" stroke-width="1" fill="none" fill-rule="evenodd"><g id="Group-691" transform="translate(81.500000, 271.500000)"><g id="Group-551" transform="translate(0.000000, 0.095000)"><path d="M477.6802,48.0172 L486.0642,48.0172 C486.0642,48.0172 491.1622,60.7632 510.3382,58.5202 C530.8462,56.1212 536.7052,40.6352 534.4042,25.7782 C532.4802,13.3622 525.2272,-6.1348 479.4722,2.0272 L477.6802,48.0172 Z" id="Fill-509" fill="#ef9e89"/><path d="M532.4048,19.4283 C532.2308,19.4283 532.0538,19.3973 531.8818,19.3333 C522.2468,15.7453 505.3498,16.5203 505.1798,16.5293 C504.3248,16.5813 503.6488,15.9303 503.6088,15.1043 C503.5688,14.2763 504.2068,13.5733 505.0338,13.5323 C505.7498,13.4983 522.7128,12.7173 532.9278,16.5223 C533.7048,16.8113 534.0988,17.6743 533.8098,18.4503 C533.5858,19.0553 533.0128,19.4283 532.4048,19.4283" id="Fill-511" fill="#000"/><g id="Group-515" transform="translate(503.000000, 23.000000)"><mask id="upper-bodysuperhero-mask-2" fill="#ffffff"><use xlink:href="#upper-bodysuperhero-path-1" fill="#ffffff"/></mask><g id="Clip-514"/><path d="M31.4039,6.2565 C31.2569,6.2565 31.1049,6.2345 30.9569,6.1875 C24.5469,4.1845 2.3169,3.9555 2.0929,3.9535 C1.2649,3.9455 0.5989,3.2685 0.606828676,2.4405 C0.6149,1.6165 1.2849,0.9535 2.1069,0.9535 L2.1209,0.9535 C3.0519,0.9625 25.0219,1.1905 31.8509,3.3235 C32.6419,3.5705 33.0829,4.4125 32.8359,5.2025 C32.6349,5.8455 32.0429,6.2565 31.4039,6.2565" id="Fill-513" fill="#000" mask="url(#upper-bodysuperhero-mask-2)"/></g><path d="M534.107,40.3912 C534.015,40.3912 533.922,40.3822 533.829,40.3652 C521.855,38.1202 506.431,38.0932 506.277,38.0932 C505.449,38.0932 504.777,37.4222 504.777,36.5932 C504.777,35.7652 505.449,35.0932 506.277,35.0932 C506.434,35.0932 522.129,35.1202 534.381,37.4162 C535.196,37.5692 535.732,38.3522 535.58,39.1662 C535.444,39.8872 534.814,40.3912 534.107,40.3912" id="Fill-516" fill="#000"/><g id="Group-520" transform="translate(0.000000, 31.000000)"><mask id="upper-bodysuperhero-mask-4" fill="#ffffff"><use xlink:href="#upper-bodysuperhero-path-3" fill="#ffffff"/></mask><g id="Clip-519"/><path d="M121.6539,38.1364 C121.6539,38.1364 0.6689,70.1704 0.0039,106.3624 C-0.3241,124.2184 19.0699,124.3194 19.0699,124.3194 C19.0699,124.3194 32.2119,124.3194 34.6989,130.5264 C37.4979,137.5094 35.6969,145.4904 27.3829,150.9224 C19.0699,156.3534 -2.1711,163.1694 4.5489,184.9514 C10.9779,205.7914 49.6639,193.1554 49.6639,193.1554 L144.3269,164.7784 L255.9499,129.7504 L254.8409,0.0324 L121.6539,38.1364 Z" id="Fill-518" fill="#E2334F" mask="url(#upper-bodysuperhero-mask-4)"/></g><path d="M148.6109,195.778 L311.1579,195.778 C312.8769,195.778 314.2779,194.399 314.3049,192.68 L316.9159,31.032 L195.8709,31.032 L145.6059,191.69 C144.9719,193.717 146.4859,195.778 148.6109,195.778" id="Fill-521" fill="#4947D9"/><path d="M171.3184,108.5416 L162.4244,108.6006 L151.9554,152.0336 C158.1284,152.3516 164.7264,152.3456 164.7264,152.3456 C164.7264,152.3456 211.6664,155.3746 215.1844,130.2046 C218.8464,104.0016 196.3694,92.4796 171.3184,108.5416" id="Fill-523" fill="#ef9e89"/><path d="M141.9991,108.3199 C141.9991,108.3199 130.5261,108.9849 130.5341,98.9049 C130.5401,91.7549 136.5951,88.7829 141.5001,88.8659 C146.4051,88.9489 183.766543,90.0351673 183.766543,90.0351673 L195.8711,31.0319 C195.8711,31.0319 118.2781,23.7439 84.8021,57.7729 C51.8071,91.3139 64.2501,147.6069 110.0751,159.1989 C120.3361,161.7939 136.0701,163.4069 143.9221,164.0959 C146.7231,164.3419 149.3111,162.5979 150.1451,159.9129 L166.1041,108.4949 L141.9991,108.3199 Z" id="Fill-525" fill="#4947D9"/><path d="M309.691728,92.5131662 C310.705728,92.2201662 441.7927,70.752 471.4697,65.766 C475.1297,65.152 477.8487,62.054 477.9937,58.346 L480.1937,1.907 L316.9157,31.032 L309.691728,92.5131662 Z" id="Fill-527" fill="#4947D9"/><path d="M203.6026,31.0319 C203.6026,31.0319 213.4126,37.0729 223.2226,39.9819 C233.0326,42.8919 255.0716,53.3509 255.0716,53.3509 L254.8416,45.9959 L235.1936,31.0319 L203.6026,31.0319 Z" id="Fill-529" fill="#E2334F"/><path d="M254.8414,45.9957 L272.6874,31.0317 L293.4714,31.0317 C293.4714,31.0317 272.3714,48.5127 255.0714,53.3507 L254.8414,45.9957 Z" id="Fill-531" fill="#E2334F"/><path d="M254.8414,45.9957 C254.8414,45.9957 246.9994,45.5607 244.7964,53.3507 C242.5924,61.1407 247.4564,64.3417 252.6524,64.5487 C257.8484,64.7567 264.3324,62.5537 263.5844,54.6557 C262.8364,46.7587 254.8414,45.9957 254.8414,45.9957" id="Fill-533" fill="#E2334F"/><path d="M247.6363,62.8727 C247.6363,62.8727 234.0483,77.6097 235.6653,85.8177 C237.1063,93.1337 243.4243,101.2817 246.0843,101.1707 C248.7443,101.0607 256.2923,92.9967 258.2783,87.7017 C260.2733,82.3817 252.4033,61.9857 252.4033,61.9857 L247.6363,62.8727 Z" id="Fill-535" fill="#E2334F"/><path d="M256.8585,60.5905 C256.8585,60.5905 269.1655,66.8985 271.6665,74.1025 C274.1565,81.2735 273.3795,90.7825 271.0255,92.0255 C268.6715,93.2685 260.5885,92.0835 256.5585,89.0615 C252.5085,86.0235 252.3405,62.2955 252.3405,62.2955 L256.8585,60.5905 Z" id="Fill-537" fill="#E2334F"/><path d="M315.4468,93.5172 L315.4218,93.5172 C314.5928,93.5032 313.9328,92.8222 313.9458,91.9942 C313.9628,90.9602 314.3478,90.3602 314.5788,90.0002 C314.7268,89.7692 314.7328,89.7602 314.7358,89.5812 C314.7438,89.1302 314.7068,88.9392 314.6558,88.6732 C314.5918,88.3352 314.5108,87.9142 314.5228,87.1542 C314.5298,86.7652 314.4898,86.6232 314.4188,86.3662 C314.3238,86.0222 314.1928,85.5492 314.2058,84.7282 C314.2218,83.7002 314.6038,83.1012 314.8318,82.7442 C314.9788,82.5112 314.9848,82.5022 314.9878,82.3222 C314.9978,81.7032 315.0088,81.3942 315.0188,81.0842 C315.0298,80.7892 315.0398,80.4942 315.0498,79.9032 C315.0518,79.7592 315.0518,79.7592 314.9048,79.5342 C314.6618,79.1612 314.2548,78.5382 314.2708,77.4742 C314.2838,76.6762 314.4068,76.2402 314.5058,75.8892 C314.5778,75.6312 314.6208,75.4752 314.6278,75.0662 C314.6418,74.1522 314.8818,73.6212 315.0408,73.2702 C315.1468,73.0322 315.1828,72.9522 315.1878,72.6572 C315.1918,72.4152 315.1678,72.3662 315.0518,72.1302 C314.8688,71.7582 314.5918,71.1972 314.6068,70.2302 C314.6198,69.4452 314.7328,69.0142 314.8238,68.6682 C314.8908,68.4122 314.9348,68.2422 314.9418,67.8192 C314.9468,67.5402 314.9158,67.4682 314.8108,67.2302 C314.6538,66.8692 314.4158,66.3232 314.4298,65.3932 C314.4428,64.5912 314.5688,64.1532 314.6698,63.8002 C314.7428,63.5432 314.7868,63.3892 314.7938,62.9832 C314.8068,62.1242 314.9858,61.6402 315.1158,61.2862 C315.2048,61.0442 315.2488,60.9232 315.2548,60.5742 C315.2588,60.3292 315.2348,60.2812 315.1198,60.0432 C314.9388,59.6732 314.6658,59.1132 314.6808,58.1512 C314.6898,57.6192 314.6688,57.3522 314.6468,57.0852 C314.6208,56.7472 314.5928,56.4092 314.6038,55.7332 C314.6148,55.0862 314.6378,54.7632 314.6628,54.4412 C314.6828,54.1612 314.7038,53.8812 314.7128,53.3212 C314.7258,52.5002 315.3948,51.8452 316.2128,51.8452 L316.2368,51.8452 C317.0648,51.8592 317.7258,52.5402 317.7128,53.3702 C317.7018,54.0152 317.6778,54.3382 317.6538,54.6622 C317.6338,54.9412 317.6128,55.2212 317.6038,55.7822 C317.5948,56.3142 317.6168,56.5792 317.6378,56.8462 C317.6648,57.1852 317.6918,57.5242 317.6808,58.2002 C317.6768,58.4442 317.7008,58.4932 317.8158,58.7302 C317.9968,59.1002 318.2698,59.6612 318.2548,60.6222 C318.2408,61.4812 318.0618,61.9662 317.9318,62.3212 C317.8428,62.5612 317.7998,62.6822 317.7938,63.0322 C317.7808,63.8332 317.6548,64.2722 317.5538,64.6242 C317.4808,64.8812 317.4368,65.0362 317.4298,65.4422 C317.4258,65.7202 317.4568,65.7922 317.5608,66.0312 C317.7178,66.3922 317.9568,66.9382 317.9418,67.8682 C317.9288,68.6532 317.8158,69.0832 317.7248,69.4292 C317.6578,69.6862 317.6138,69.8562 317.6068,70.2792 C317.6028,70.5202 317.6278,70.5702 317.7428,70.8052 C317.9258,71.1772 318.2038,71.7392 318.1878,72.7052 C318.1738,73.6202 317.9338,74.1512 317.7748,74.5022 C317.6688,74.7402 317.6328,74.8202 317.6278,75.1152 C317.6148,75.9132 317.4918,76.3492 317.3928,76.7002 C317.3208,76.9572 317.2778,77.1142 317.2708,77.5232 C317.2678,77.6662 317.2678,77.6662 317.4158,77.8922 C317.6588,78.2652 318.0658,78.8882 318.0498,79.9522 C318.0398,80.5712 318.0288,80.8792 318.0178,81.1892 C318.0078,81.4842 317.9978,81.7802 317.9878,82.3712 C317.9708,83.3992 317.5898,83.9972 317.3618,84.3552 C317.2148,84.5872 317.2088,84.5962 317.2058,84.7772 C317.1988,85.1652 317.2388,85.3072 317.3098,85.5652 C317.4048,85.9102 317.5358,86.3812 317.5228,87.2032 C317.5148,87.6542 317.5518,87.8452 317.6028,88.1112 C317.6678,88.4492 317.7478,88.8702 317.7358,89.6302 C317.7188,90.6632 317.3338,91.2632 317.1028,91.6222 C316.9548,91.8542 316.9488,91.8632 316.9458,92.0412 C316.9318,92.8622 316.2628,93.5172 315.4468,93.5172" id="Fill-539" fill="#000"/><path d="M187.0669,140.6842 C186.3799,140.6842 185.7609,140.2102 185.6039,139.5132 C185.4219,138.7052 185.9299,137.9022 186.7389,137.7202 L214.2499,131.5352 C215.0609,131.3502 215.8599,131.8622 216.0429,132.6692 C216.2239,133.4772 215.7159,134.2802 214.9079,134.4612 L187.3969,140.6472 C187.2869,140.6722 187.1749,140.6842 187.0669,140.6842" id="Fill-541" fill="#000"/><path d="M185.9576,128.3151 C185.2456,128.3151 184.6136,127.8061 184.4826,127.0811 C184.3366,126.2651 184.8786,125.4851 185.6936,125.3381 L215.0116,120.0621 C215.8236,119.9161 216.6056,120.4571 216.7536,121.2721 C216.8996,122.0871 216.3576,122.8681 215.5426,123.0141 L186.2256,128.2911 C186.1356,128.3071 186.0456,128.3151 185.9576,128.3151" id="Fill-543" fill="#000"/><path d="M185.9576,116.9635 C185.2616,116.9635 184.6376,116.4765 184.4906,115.7675 C184.3226,114.9555 184.8446,114.1615 185.6546,113.9935 L211.2526,108.6885 C212.0536,108.5195 212.8576,109.0395 213.0256,109.8535 C213.1936,110.6635 212.6726,111.4575 211.8616,111.6255 L186.2646,116.9315 C186.1616,116.9525 186.0596,116.9635 185.9576,116.9635" id="Fill-545" fill="#000"/><path d="M247.107,1.9069 L235.708,1.9069 C230.554,1.9069 226.168,5.6009 225.252,10.6419 C225.242,10.7049 225.233,10.7649 225.224,10.8289 L225.218,10.8619 L225.218,10.8629 C225.181,11.1079 225.143,11.3579 225.106,11.6069 C223.779,20.3479 222.141,31.0589 222.141,31.0589 L257.574,31.0589 L257.646,23.2939 L257.744,12.6419 C257.799,6.7289 253.021,1.9069 247.107,1.9069" id="Fill-547" fill="#ef9e89"/><path d="M257.5738,31.0592 C243.6988,30.0832 239.9078,27.1082 240.0418,24.6312 C240.1608,22.4132 242.2458,22.7222 243.1568,22.7432 C247.1708,22.8322 257.6458,23.2932 257.6458,23.2932" id="Fill-549" fill="#000"/></g></g></g></g><g id="Head" transform="translate(204.000000, 145.000000) scale(1 1)"><g id="Head/Bob 1" stroke="none" stroke-width="1" fill="none" fill-rule="evenodd"><g id="Group-183" transform="translate(95.000000, 87.000000)"><g id="Group-42" transform="translate(0.000000, 0.738000)"><path d="M54.9296,31.2038 C53.3886,28.1558 48.8196,28.7868 47.4916,28.9828 C46.1766,23.4008 44.7596,18.4058 43.4726,15.9998 C40.7686,10.9418 32.5216,5.6278 19.3326,7.6688 C10.5756,9.0238 1.2496,17.1928 7.3066,31.4138 C7.3066,31.4138 9.0396,34.8608 8.2096,40.5458 C8.1186,41.1718 7.9886,42.0468 7.8326,43.0878 L7.8316,43.0958 C7.5686,44.8548 7.2276,47.1118 6.8546,49.5758 C6.8446,49.6388 6.8356,49.6988 6.8256,49.7628 L6.8206,49.7968 C6.7836,50.0418 6.7456,50.2918 6.7076,50.5408 C6.4786,53.1308 7.1846,61.6058 26.2626,61.7028 L39.2476,62.2278 L39.4456,62.2358 C39.4456,62.2358 43.7976,62.1878 46.4306,62.1878 C51.9056,62.1878 52.8456,56.9698 52.2306,53.1058 C51.9786,51.5178 51.0556,46.0908 49.8096,39.7868 C55.9216,37.8338 56.1566,33.6288 54.9296,31.2038" id="Fill-36" fill="#ef9e89"/><path d="M10.4984,5.7702 C0.0364,11.0572 0.0754,22.8722 0.8104,30.3042 C2.3514,45.8942 -2.3876,53.9892 4.3744,56.2762 C10.3324,58.2292 15.1654,53.3402 18.6454,48.0412 C19.4354,46.8392 19.8264,45.5922 20.0024,44.4802 C20.2894,42.6742 18.9954,41.0402 17.1864,40.7702 C14.9274,40.4322 12.0904,39.2672 12.0904,35.5432 C12.0904,29.3832 18.0174,29.8792 18.0174,29.8792 C18.0174,29.8792 21.2484,30.0412 23.8354,27.3912 C25.3734,25.8152 27.3364,24.7272 29.5024,24.3282 C34.1374,23.4712 41.6724,21.7402 45.6884,18.9882 C48.1094,17.3302 51.6834,10.6742 45.8084,4.7992 C38.6134,-2.3958 19.9924,0.9742 10.4984,5.7702" id="Fill-38" fill="#4d33a2"/><path d="M47.4222,37.0495 C47.5852,38.8315 50.7462,38.3315 50.4832,36.5565 C50.1752,34.4785 47.2312,34.9615 47.4222,37.0495" id="Fill-40" fill="#000"/></g></g></g></g><g id="Expression" transform="translate(315.000000, 246.000000) scale(1 1)"><g id="Expression/Smile" stroke="none" stroke-width="1" fill="none" fill-rule="evenodd"><g id="Expression" transform="translate(14.000000, 12.000000)" fill="#000"><path d="M8.5371,3.6102 C8.8431,6.5462 13.2671,6.1902 13.3041,3.3662 C13.3451,0.1732 8.1761,0.1392 8.5371,3.6102" id="Fill-95"/><path d="M3.8824,24.6669 C10.1784,28.8049 17.2924,27.1859 17.6314,27.1049 C18.4374,26.9129 18.9354,26.1039 18.7434,25.2989 C18.5514,24.4919 17.7444,23.9949 16.9394,24.1859 C16.8054,24.2169 9.0204,25.9289 3.5054,20.5259 C2.9134,19.9499 1.9634,19.9569 1.3834,20.5479 C0.8044,21.1409 0.8144,22.0899 1.4064,22.6699 C2.2044,23.4509 3.0364,24.1109 3.8824,24.6669" id="Fill-97"/></g></g></g><g id="Facial Hair" transform="translate(311.300000, 250.950000) scale(1 1)"><g id="Facial Hair/None" stroke="none" stroke-width="1" fill="none" fill-rule="evenodd" fill-opacity="0"/></g><g id="Accesories" transform="translate(311.300000, 250.950000) scale(1 1)"><g id="Accesories/None" stroke="none" stroke-width="1" fill="none" fill-rule="evenodd" fill-opacity="0"/></g></g></g></g></svg>