<svg viewBox="-15 255 1664.9999999999998 959.9999999999999" fill="none" xmlns="http://www.w3.org/2000/svg" xmlns:xlink="http://www.w3.org/1999/xlink" overflow="visible" width="1664.9999999999998px" height="959.9999999999999px"><g id="Master/Spot Illustration/Fast Delivery"><g id="Background"><g id="speed"><g id="bg"><path id="Path" d="M376.5 676V676C352.21 675.77 329.43 675.43 307.41 675.11C245.319 674.19 186.67 673.32 116.82 675.37H116.72C114.787 675.4 113.195 673.858 113.165 671.925C113.134 669.992 114.677 668.4 116.61 668.37C186.61 666.37 245.34 667.19 307.51 668.11C329.51 668.43 352.289 668.77 376.509 669C378.442 669 380.009 670.567 380.009 672.5C380.009 674.433 378.442 676 376.509 676H376.5Z" fill="#D1D9DB"/><path id="Path_2" d="M337.76 864.72C318.28 864.72 298.826 864.447 279.4 863.9C277.467 863.845 275.944 862.233 276 860.3C276.055 858.367 277.667 856.845 279.6 856.9C348.3 858.83 417.65 857.33 485.74 852.45C487.672 852.312 489.351 853.767 489.49 855.7C489.628 857.633 488.172 859.312 486.24 859.45C437.16 863 387.43 864.72 337.76 864.72Z" fill="#D1D9DB"/><path id="Path_3" d="M335.5 1001.31H198.88C196.947 1001.31 195.38 999.743 195.38 997.81C195.38 995.877 196.947 994.31 198.88 994.31H335.5C337.433 994.31 339 995.877 339 997.81C339 999.743 337.433 1001.31 335.5 1001.31Z" fill="#D1D9DB"/><path id="Shape" fill-rule="evenodd" clip-rule="evenodd" d="M165 844.34C171.734 845.95 178.636 846.752 185.56 846.73C209.659 846.73 233.503 837.748 256.821 828.965L257.55 828.69C286.05 817.84 315.53 806.62 344.35 812.69C346.233 813.068 348.069 811.858 348.464 809.979C348.86 808.099 347.666 806.252 345.79 805.84C314.96 799.35 284.51 810.93 255.06 822.13C224.69 833.7 195.92 844.58 166.69 837.58C160.755 836.218 155.096 833.851 149.96 830.58C155.373 828.536 160.308 825.401 164.46 821.37C174.78 810.92 174.25 796.4 167.85 788.92C163.797 784.415 157.895 782.028 151.85 782.45C144.791 782.705 138.217 786.106 133.93 791.72C127.07 801.23 127.72 815.84 135.49 826.47C135.74 826.8 136 827.14 136.26 827.47L136.259 827.47C135.4 827.68 134.54 827.89 133.68 828.08C101.03 835.554 67.3236 837.246 34.0898 833.08C32.1706 832.84 30.4201 834.201 30.1798 836.12C29.9396 838.039 31.3006 839.79 33.2198 840.03C67.2579 844.295 101.78 842.563 135.22 834.91C137.433 834.41 139.64 833.857 141.84 833.25C149.18 839.45 158.07 842.68 165 844.34ZM152.11 789.41H152.83C156.466 789.235 159.993 790.682 162.46 793.36C167.92 799.77 165.29 810.42 159.41 816.36C155.21 820.65 149.66 823.36 143.66 825.36C142.746 824.395 141.895 823.373 141.11 822.3C135.08 814.05 134.44 802.9 139.58 795.78C142.594 791.891 147.191 789.554 152.11 789.41Z" fill="#D1D9DB"/><path id="Path_4" d="M954.18 702.5H857C855.067 702.5 853.5 700.933 853.5 699C853.5 697.067 855.067 695.5 857 695.5H954.18C956.113 695.5 957.68 697.067 957.68 699C957.68 700.933 956.113 702.5 954.18 702.5V702.5Z" fill="#D1D9DB"/><path id="Path_5" d="M957 736.13C942.92 736.13 928.844 735.757 914.77 735.01C913.52 734.942 912.401 734.212 911.834 733.096C911.268 731.979 911.34 730.645 912.024 729.596C912.708 728.547 913.9 727.942 915.15 728.01C965.372 730.704 1015.74 728.537 1065.54 721.54C1066.78 721.361 1068.02 721.857 1068.79 722.84C1069.56 723.822 1069.76 725.143 1069.29 726.305C1068.83 727.466 1067.78 728.291 1066.54 728.47C1030.25 733.582 993.648 736.142 957 736.13Z" fill="#D1D9DB"/><path id="Path_6" d="M631.099 960.34C629.166 960.37 627.575 958.828 627.544 956.895C627.514 954.962 629.056 953.37 630.989 953.34L1040.6 939.84C1042.53 939.777 1044.15 941.292 1044.21 943.225C1044.28 945.158 1042.76 946.777 1040.83 946.84L631.219 960.33L631.099 960.34Z" fill="#D1D9DB"/><path id="Path_7" d="M762.73 1097.64C734.316 1097.64 705.983 1097.19 677.73 1096.29C676.479 1096.25 675.345 1095.55 674.754 1094.44C674.162 1093.34 674.204 1092.01 674.864 1090.94C675.523 1089.88 676.699 1089.25 677.95 1089.29C756.95 1091.81 837.01 1090.79 915.84 1086.29C917.773 1086.18 919.429 1087.66 919.54 1089.59C919.65 1091.52 918.173 1093.18 916.24 1093.29C865.35 1096.18 814 1097.64 762.73 1097.64Z" fill="#D1D9DB"/><path id="Shape_2" fill-rule="evenodd" clip-rule="evenodd" d="M945.07 888.01C953.838 890.068 962.814 891.104 971.82 891.1C994.806 891.094 1017.3 884.474 1036.63 872.03C1037.34 872.64 1038.09 873.21 1038.86 873.75C1052.02 882.88 1069.35 882.24 1081.24 880.96C1087.12 880.323 1093.04 879.429 1098.77 878.563L1098.86 878.55L1098.86 878.55C1109.12 877 1119.71 875.4 1130.12 875.31C1148.35 875.09 1163.75 880.24 1173.48 889.66C1174.88 890.833 1176.95 890.727 1178.23 889.416C1179.51 888.106 1179.56 886.033 1178.35 884.66C1164.18 870.94 1144.24 868.17 1130.05 868.34C1119.15 868.43 1108.31 870.07 1097.81 871.66C1092.13 872.52 1086.25 873.41 1080.49 874.03C1069.72 875.19 1054.09 875.83 1042.85 868.03L1042.65 867.88C1043.35 867.36 1044.06 866.83 1044.75 866.29C1049.83 862.34 1056 856.84 1058.28 849.2C1060.56 841.56 1057.94 831.28 1049.56 827.98C1043.79 825.72 1036.64 827.6 1031.64 832.67C1027.08 837.33 1024.95 843.85 1025.64 851.03C1026.23 856.746 1028.34 862.199 1031.76 866.82C1006.86 882.4 975.18 887.92 946.68 881.2C944.822 880.81 942.992 881.973 942.556 883.82C942.119 885.668 943.234 887.526 945.07 888.01ZM1036.63 837.53C1038.65 835.382 1041.44 834.114 1044.39 834C1045.29 833.985 1046.19 834.145 1047.03 834.47C1051.48 836.22 1053.01 842.54 1051.61 847.12C1049.86 852.88 1044.74 857.42 1040.49 860.73C1039.55 861.46 1038.63 862.17 1037.63 862.87C1034.86 859.22 1033.13 854.886 1032.63 850.33C1032.26 846.73 1032.63 841.58 1036.63 837.53Z" fill="#D1D9DB"/><path id="Path_8" d="M409.77 710.12C403.1 710.12 390.61 710.12 378.12 710.06C365.63 710 353.12 710 346.5 710C344.567 710 343 708.433 343 706.5C343 704.567 344.567 703 346.5 703C353.16 703 365.65 703 378.14 703.06C390.63 703.12 403.14 703.12 409.77 703.12C411.703 703.12 413.27 704.687 413.27 706.62C413.27 708.553 411.703 710.12 409.77 710.12Z" fill="#D1D9DB"/><path id="Shape_3" fill-rule="evenodd" clip-rule="evenodd" d="M378.07 492C377.556 492 377.046 491.98 376.54 491.94C371.165 491.706 366.241 488.87 363.34 484.34C360.927 480.33 360.299 475.493 361.61 471C363.47 464.1 369.44 456.9 377.08 452.19C373.196 450.422 369.04 449.327 364.79 448.95C355.95 448.09 346.79 449.71 338.02 451.27L184.1 478.48C182.226 478.757 180.471 477.493 180.141 475.628C179.811 473.763 181.024 471.973 182.88 471.59L336.8 444.33L336.854 444.321C346.117 442.683 355.689 440.992 365.46 441.94C372.246 442.51 378.798 444.694 384.57 448.31C407.82 438.1 436.09 439.59 458.31 451.88C485.97 439.88 518 449.18 545.71 459.88L549.21 461.24L549.227 461.247C575.332 471.405 602.326 481.909 628.57 475.81C629.788 475.526 631.065 475.914 631.92 476.827C632.775 477.74 633.078 479.039 632.715 480.237C632.352 481.434 631.378 482.346 630.16 482.63C601.793 489.219 573.775 478.312 546.678 467.763L546.67 467.76L543.18 466.4C517.18 456.3 489.85 448.25 465.69 456.48C466.5 457.06 467.31 457.65 468.1 458.27C468.201 458.348 468.298 458.431 468.39 458.52C473.104 463.374 473.7 470.895 469.807 476.43C465.915 481.965 458.636 483.948 452.474 481.153C446.312 478.358 443.009 471.575 444.61 465C445.717 461.37 447.991 458.206 451.08 456C432.109 447.025 410.321 446.073 390.64 453.36C391.2 453.97 391.73 454.59 392.23 455.24C399.35 464.39 399.63 477.37 392.9 485.43C389.15 489.676 383.734 492.075 378.07 492ZM383.76 456.4L382.37 457.13C375.51 460.84 369.89 467.13 368.37 472.75C367.41 475.563 367.864 478.666 369.588 481.086C371.313 483.507 374.098 484.949 377.07 484.96C380.992 485.327 384.861 483.848 387.54 480.96C392.13 475.46 391.77 466.06 386.72 459.55C385.831 458.425 384.84 457.384 383.76 456.44V456.4ZM451.33 466.88C452.07 464.25 454.31 461.89 458 459.82C459.938 461.024 461.814 462.325 463.62 463.72C465.44 465.56 465.54 468.42 464.99 470.56C464.44 472.7 462.91 475.21 460.3 475.93C457.69 476.65 455.1 475.22 453.55 473.65C452 472.08 450.59 469.51 451.33 466.88Z" fill="#D1D9DB"/><path id="Path_9" d="M818.16 802.93H778.16C776.227 802.93 774.66 801.363 774.66 799.43C774.66 797.497 776.227 795.93 778.16 795.93H818.16C820.093 795.93 821.66 797.497 821.66 799.43C821.66 801.363 820.093 802.93 818.16 802.93V802.93Z" fill="#D1D9DB"/><path id="Path_10" d="M775 998.63C773.067 998.649 771.484 997.098 771.465 995.165C771.446 993.232 772.997 991.649 774.93 991.63L963.08 987.9H963.15C965.083 987.881 966.666 989.432 966.685 991.365C966.704 993.298 965.153 994.881 963.22 994.9L775.07 998.63H775Z" fill="#D1D9DB"/><path id="Path_11" d="M676.2 607.13C672.186 607.147 668.184 606.708 664.27 605.82C662.386 605.384 661.213 603.503 661.65 601.62C662.086 599.737 663.966 598.564 665.85 599C681.17 602.53 696.41 597.32 712.54 591.81C719.34 589.49 726.36 587.09 733.39 585.41C769.88 576.67 807.39 587.07 840.56 596.25C841.819 596.533 842.82 597.486 843.164 598.73C843.509 599.974 843.141 601.306 842.208 602.197C841.274 603.088 839.926 603.393 838.7 602.99C806.38 593.99 769.7 583.9 735.02 592.22C728.31 593.82 721.45 596.17 714.81 598.44C702.24 602.73 689.34 607.13 676.2 607.13Z" fill="#D1D9DB"/><path id="Path_12" d="M1119.75 1057.3H1119.69L1074.47 1056.54C1073.22 1056.52 1072.08 1055.83 1071.47 1054.74C1070.86 1053.64 1070.88 1052.31 1071.53 1051.24C1072.17 1050.17 1073.34 1049.52 1074.59 1049.54L1119.81 1050.29C1121.06 1050.3 1122.21 1050.98 1122.83 1052.07C1123.44 1053.15 1123.43 1054.49 1122.8 1055.57C1122.16 1056.64 1121 1057.3 1119.75 1057.29V1057.3Z" fill="#D1D9DB"/><path id="Path_13" d="M226 906.72H36C34.067 906.72 32.5 905.153 32.5 903.22C32.5 901.287 34.067 899.72 36 899.72H226C227.933 899.72 229.5 901.287 229.5 903.22C229.5 905.153 227.933 906.72 226 906.72V906.72Z" fill="#D1D9DB"/><path id="Path_14" d="M1091.59 1085.64H1091.4L1025.48 1082.12C1023.55 1082.02 1022.06 1080.37 1022.17 1078.44C1022.27 1076.5 1023.92 1075.02 1025.85 1075.12L1091.78 1078.64C1093.03 1078.67 1094.17 1079.37 1094.76 1080.47C1095.36 1081.57 1095.32 1082.91 1094.67 1083.97C1094.01 1085.04 1092.84 1085.67 1091.59 1085.64V1085.64Z" fill="#D1D9DB"/></g></g></g><g id="Sign" transform="translate(-54 320) scale(1 1)"><g id="Sign/Marker"><g id="marker"><g id="signs"><path id="Path" d="M51.4904 540.83C58.9404 506.91 75.0004 484.1 102.17 469C122.17 457.89 147.05 451.72 176.01 450.66C200.75 449.76 229.42 451.26 229.7 451.27C230.76 451.321 231.673 452.035 231.977 453.052C232.281 454.069 231.909 455.166 231.05 455.79C230.47 456.21 173.05 498.21 160.9 513.11C145.85 531.64 135.74 557.88 133.9 583.3C132.15 607.09 147.98 650.38 159.53 681.99C163.34 692.4 166.63 701.4 168.97 708.71C177.53 735.42 220.61 845.44 221.04 846.55C221.341 847.32 221.242 848.188 220.776 848.87C220.31 849.553 219.537 849.961 218.71 849.96H180.71C179.975 849.963 179.276 849.641 178.8 849.08C149.24 814.22 126.56 777 102.54 737.6L96.7904 728.17C79.3404 699.68 64.6604 658.79 55.1304 630.51C45.2204 601.19 44.1404 574.36 51.4904 540.83Z" fill="#E03B36"/><path id="Path_2" d="M173.86 652.93C173.479 652.144 173.532 651.217 174 650.48C174.473 649.746 175.297 649.313 176.17 649.34H178.06C215.844 649.445 246.67 619.112 247.174 581.33C247.679 543.549 217.674 512.404 179.9 511.5C178.94 511.481 178.078 510.908 177.69 510.03C177.293 509.159 177.429 508.137 178.04 507.4C198.96 482.26 260.72 492.58 263.34 493.03C264.022 493.144 264.624 493.54 265 494.12L318.74 575.87C319.271 576.688 319.271 577.742 318.74 578.56L265.15 664.56C264.793 665.133 264.219 665.537 263.56 665.68C249.342 668.584 234.88 670.134 220.37 670.31C200.84 670.37 180.6 666.72 173.86 652.93Z" fill="#E03B36"/><path id="Shape" fill-rule="evenodd" clip-rule="evenodd" d="M134.74 728.17C117.69 699.04 102.69 659 93.1004 630.55C83.2104 601.19 82.1304 574.36 89.4904 540.83C96.9304 506.91 113.04 484.1 140.17 469.04C160.2 457.93 185 451.76 214 450.7C237.16 449.85 261 456.85 284.83 471.5C306 484.5 319.87 497.5 328.46 512.5C340.33 533.21 345.18 560.26 342.18 588.65C338.76 620.52 327.76 650.57 315.76 681.12C306.42 704.97 294.19 730.18 278.42 758.18C260.749 789.425 241.481 819.738 220.69 849C220.234 849.611 219.523 849.98 218.76 850H218.65C217.916 849.999 217.218 849.678 216.74 849.12C186.29 813.17 161.93 774.76 134.74 728.17ZM152.7 553.208C141.825 578.507 147.05 607.851 165.99 627.84H166C178.541 641.146 195.881 648.887 214.16 649.34H216.05C253.832 649.438 284.652 619.104 285.154 581.325C285.655 543.547 255.652 512.405 217.88 511.5H216C188.463 511.51 163.575 527.909 152.7 553.208Z" fill="#FF625A"/><path id="Path_3" d="M292.19 851H97.5801C96.1994 851 95.0801 849.881 95.0801 848.5C95.0801 847.119 96.1994 846 97.5801 846H292.19C293.571 846 294.69 847.119 294.69 848.5C294.69 849.881 293.571 851 292.19 851Z" fill="#1B1812"/></g></g></g></g><g id="Master/Vehicles/Small Vehicle" transform="translate(87 260) scale(1 1)"><g id="Master/Vehicles/Small Vehicle"><g id="Small Vehicle" transform="scale(1 1)"><g id="Small Vehicle/Motorcycle"><g id="motorcycle"><g id="cars"><path id="Path" d="M606.158 659.1C604.948 651.29 599.048 642.03 592.158 637.1C589.598 635.26 585.758 633.21 582.038 633.87C581.208 634.014 580.361 633.728 579.788 633.11C578.016 633.934 576.188 634.632 574.318 635.2L573.498 635.01C569.835 634.018 566.054 633.527 562.258 633.55C558.246 633.665 554.292 634.53 550.598 636.1C542.598 639.48 537.288 644.33 534.358 650.94C532.078 656.08 532.788 665.94 534.358 670C536.178 674.68 539.288 677.1 544.788 678.08C547.459 678.479 550.158 678.666 552.858 678.64C554.596 678.66 556.333 678.567 558.058 678.36C560.116 678.203 562.093 677.491 563.778 676.3C566.148 674.42 566.868 671.63 567.508 669.17C567.708 668.4 567.898 667.67 568.128 667.02C569.018 664.43 570.248 662.67 571.778 661.77C574.138 660.38 578.108 659.5 579.348 660.09C581.128 660.93 581.418 662.56 580.928 668.8C580.645 670.866 581.673 672.891 583.508 673.88C585.944 674.944 588.776 674.491 590.758 672.72C593.048 670.81 597.278 667.79 601.758 664.6C603.568 663.3 605.398 662 607.148 660.73C606.616 660.339 606.26 659.753 606.158 659.1V659.1Z" fill="#fbd2ae"/><path id="Path" d="M732.56 871.76C727.2 867.35 716.21 864.76 709.33 865.02C708.266 865.068 707.349 865.781 707.04 866.8L700.69 888C697.19 889.63 693.78 891.16 690.48 892.64C681.91 896.49 673.05 900.46 662.48 906.31C661.48 906.861 660.98 908.019 661.265 909.125C661.55 910.23 662.548 911.002 663.69 911H720.2C722.29 911 723.68 910.31 727.82 896.1C730.02 888.55 732.23 879.68 733.43 874.23C733.634 873.309 733.297 872.351 732.56 871.76V871.76Z" fill="#1B1812"/><path id="Path_2" d="M711.07 789.39C706.75 786.56 700.79 786.39 693.82 788.87C686.7 791.42 681.39 792.78 677.59 793.04C676.751 793.113 676.003 793.596 675.59 794.33C675.184 795.075 675.184 795.975 675.59 796.72C678.484 802.094 680.58 807.861 681.81 813.84C670.697 820.556 658.979 826.214 646.81 830.74C645.679 831.165 645.014 832.339 645.23 833.527C645.446 834.716 646.481 835.58 647.69 835.58H704.69C705.71 835.574 706.624 834.949 707 834C708 831.4 709.25 828.69 710.48 826.06C711.71 823.43 713.07 820.55 714.12 817.78C715.73 813.53 717.55 808.71 717.68 803.63C717.79 797.6 715.27 792.16 711.07 789.39Z" fill="#1B1812"/><path id="Path_3" d="M808.119 652.78C807.762 652.205 807.189 651.798 806.529 651.65L745.079 638.09C743.747 637.776 742.409 638.592 742.079 639.92L737.179 659.37C717.459 743.87 697.489 812.99 674.339 876.88C674.077 877.598 674.158 878.396 674.56 879.046C674.962 879.696 675.64 880.125 676.399 880.21C685.971 881.344 695.601 881.918 705.239 881.93C716.066 881.964 726.878 881.155 737.579 879.51C738.491 879.389 739.261 878.773 739.579 877.91C766.608 804.828 789.59 730.312 808.419 654.7C808.579 654.046 808.471 653.355 808.119 652.78Z" fill="#2A3640"/><path id="Path_4" d="M751.78 642.21C749 639.33 745.2 637.96 741.5 636.9C730.85 633.84 715.92 631.96 705.27 640.38C703.815 641.574 702.433 642.853 701.13 644.21C699.437 646.085 697.488 647.711 695.34 649.04C691.96 650.88 687.62 651.04 683.78 651.27L655.63 652.62C643.78 653.19 630.49 654.62 622.69 663.89C618.64 668.73 616.4 675.54 616.24 683.57C616.01 694.51 619.34 705.15 623.08 715.99C634.24 748.38 648.68 780.34 661.41 808.53C661.815 809.426 662.707 810.001 663.69 810C663.941 810.003 664.19 809.966 664.43 809.89L705.22 797.31C708.22 796.39 711.6 795.31 714.37 793.03C717.71 790.25 718.37 784.69 717.12 781.14L692.12 712.04C690.05 706.29 688.36 699.88 691.6 695.92C694.07 692.92 698.81 692.2 703.46 691.75L741.46 688.06C747.65 687.46 751.69 679.33 753.14 675.86C755 671.42 755.48 666.54 755.91 662.24C756.59 655.33 756.9 647.5 751.78 642.21Z" fill="#2A3640"/><path id="Path_5" d="M815.11 593.35C811.26 585.54 804.49 578.26 797.88 574.81C782.56 566.81 766.44 567.21 747.78 567.66C736.547 567.797 725.354 569.03 714.36 571.34C704.36 573.59 692.98 577.43 678.54 583.41C653.4 593.84 607.21 613.64 580.31 629.22C579.267 629.831 578.812 631.101 579.227 632.235C579.642 633.37 580.809 634.046 582 633.84C585.72 633.18 589.56 635.23 592.12 637.07C599.05 642.07 604.95 651.29 606.12 659.07C606.243 659.871 606.748 660.563 607.475 660.923C608.201 661.283 609.057 661.267 609.77 660.88C610.77 660.36 611.77 659.82 612.84 659.29V659.04C613.1 648.91 620.23 639.23 630.59 634.97C638.76 631.61 652.14 626.12 660.16 632.72C660.4 632.62 661.83 633.65 662.6 633.83C668.66 635.3 673.23 639.08 676.97 645.74C677.4 646.49 677.78 647.23 678.15 647.96C678.27 648.2 678.37 648.44 678.49 648.68C678.72 649.17 678.95 649.68 679.17 650.15L679.52 650.99C679.7 651.43 679.88 651.88 680.05 652.32L680.38 653.2C680.54 653.63 680.69 654.07 680.84 654.51C680.93 654.8 681.03 655.1 681.13 655.39C681.27 655.84 681.41 656.3 681.54 656.75C681.63 657.03 681.71 657.32 681.79 657.6C681.94 658.11 682.08 658.6 682.22 659.14C682.28 659.38 682.35 659.61 682.41 659.85C682.61 660.61 682.8 661.38 683 662.16V662.16C683.213 663 683.423 663.86 683.63 664.74C683.906 665.857 684.909 666.641 686.06 666.64C686.433 666.64 686.802 666.558 687.14 666.4C695.94 662.19 705.81 657.24 716.21 651.89C749.9 652.2 781.32 655.84 809.75 662.79C809.943 662.838 810.141 662.861 810.34 662.86C810.818 662.863 811.287 662.728 811.69 662.47C812.267 662.102 812.669 661.513 812.8 660.84C813.14 659.053 813.473 657.263 813.8 655.47C816.04 644.05 818.35 632.23 819.04 620.47C819.58 612.57 819.55 602.35 815.11 593.35Z" fill="#D2DCD0"/><path id="Path_6" d="M553.33 676.91C552.209 676.912 551.225 676.168 550.92 675.09C548.85 667.76 549.09 657.09 556.58 650.95C557.654 650.131 559.185 650.313 560.037 651.362C560.888 652.411 560.752 653.947 559.73 654.83C552.35 660.83 555.36 672.43 555.73 673.73C555.911 674.367 555.832 675.049 555.509 675.627C555.187 676.205 554.647 676.631 554.01 676.81C553.789 676.877 553.56 676.911 553.33 676.91V676.91Z" fill="#1B1812"/><path id="Path_7" d="M543.27 676.2C542.153 676.198 541.173 675.455 540.87 674.38C537.93 663.98 539.04 655.59 544.17 649.45C545.063 648.429 546.609 648.307 547.652 649.176C548.694 650.045 548.853 651.587 548.01 652.65C543.95 657.52 543.18 664.18 545.68 673.02C546.051 674.348 545.277 675.726 543.95 676.1C543.73 676.168 543.5 676.202 543.27 676.2Z" fill="#1B1812"/><path id="Path" d="M803.91 521.33C802.113 519.998 799.979 519.194 797.75 519.01C796.81 518.89 795.86 518.82 794.9 518.78L794.99 518.34C795.44 516.05 796.37 511.28 793.21 508.21C791.39 506.45 788.97 506.04 786.85 505.79C775.71 504.445 764.449 504.445 753.31 505.79C750.18 506.19 746.65 506.96 744.12 509.67C741.36 512.67 740.36 516.67 739.48 520.23L739.08 521.82C737.388 528.218 736.052 534.704 735.08 541.25C734.51 545.1 734.35 549.44 737.35 552.46C739.81 554.93 743.19 555.26 746.45 555.4L775.06 556.57C775.7 556.57 776.41 556.62 777.15 556.62C779.679 556.751 782.191 556.132 784.37 554.84C788.29 552.25 789.27 547.25 789.86 544.26L790.01 543.49C797.264 544.219 804.059 539.832 806.38 532.92C807.68 529.19 807.39 524.19 803.91 521.33Z" fill="#fbd2ae"/><path id="Path_8" d="M758.489 545.7C756.266 545.704 754.077 545.154 752.119 544.1C750.945 543.422 750.525 541.931 751.174 540.74C751.822 539.549 753.302 539.092 754.509 539.71C756.649 540.876 759.193 541.041 761.465 540.16C763.736 539.28 765.505 537.443 766.299 535.14C766.6 534.273 767.352 533.64 768.258 533.492C769.164 533.344 770.078 533.704 770.639 534.43L771.259 535.22C772.102 536.312 771.906 537.88 770.819 538.73C770.549 538.939 770.239 539.092 769.909 539.18C768.384 541.746 766.048 543.73 763.269 544.82C761.744 545.406 760.123 545.704 758.489 545.7V545.7Z" fill="#1B1812"/><path id="Path_9" d="M729.239 689.33C729.04 689.331 728.842 689.308 728.649 689.26C727.32 688.93 726.501 687.595 726.809 686.26C728.919 677.63 731.069 668.59 733.219 659.39C733.409 658.508 734.06 657.797 734.922 657.529C735.784 657.262 736.723 657.48 737.379 658.1C738.036 658.719 738.307 659.645 738.089 660.52C735.939 669.74 733.779 678.8 731.669 687.44C731.386 688.551 730.386 689.329 729.239 689.33Z" fill="#1B1812"/><path id="Path_10" d="M724.469 652C723.316 652 722.313 651.212 722.04 650.092C721.767 648.972 722.296 647.81 723.319 647.28C749.669 633.68 776.519 619.02 798.089 607.28C798.874 606.852 799.827 606.874 800.59 607.339C801.354 607.803 801.811 608.64 801.79 609.534C801.769 610.427 801.274 611.242 800.489 611.67C778.889 623.45 752.009 638.13 725.609 651.75C725.255 651.924 724.864 652.01 724.469 652Z" fill="#A3B6B7"/><path id="Path_11" d="M749.709 581.93C749.382 581.353 748.839 580.93 748.199 580.753C747.56 580.577 746.876 580.662 746.299 580.99C713.509 599.5 686.919 613.75 660.109 627.2C658.886 627.825 658.396 629.319 659.012 630.547C659.627 631.774 661.117 632.276 662.349 631.67L670.259 627.67C675.769 629.37 680.769 633.67 684.389 639.77C687.639 645.27 689.499 651.48 691.289 659.11C691.55 660.241 692.558 661.042 693.719 661.04C693.914 661.04 694.108 661.019 694.299 660.98C695.636 660.659 696.466 659.321 696.159 657.98C694.629 651.47 692.669 643.98 688.699 637.23C685.724 631.976 681.357 627.644 676.079 624.71C698.479 613.21 721.479 600.71 748.759 585.35C749.341 585.025 749.768 584.48 749.947 583.838C750.125 583.196 750.04 582.509 749.709 581.93Z" fill="#A3B6B7"/><path id="Path" d="M676.999 645.77C673.259 639.11 668.689 635.33 662.629 633.86C661.859 633.68 660.429 632.65 660.189 632.75C652.189 626.15 638.789 631.64 630.619 635C620.259 639.26 613.129 648.94 612.869 659.07C612.719 665.33 615.309 672.26 621.459 673.63C626.879 674.84 632.459 676.09 638.239 676.09H639.389C646.569 675.87 652.859 673.47 657.069 669.31C657.869 668.53 658.589 667.69 659.289 666.88C660.749 665.18 662.129 663.58 663.829 662.94C665.689 662.24 667.979 662.67 670.409 663.13C671.259 663.29 672.149 663.46 673.039 663.58C676.433 663.85 679.846 663.38 683.039 662.2C681.579 656.3 680.149 651.34 676.999 645.77Z" fill="#fbd2ae"/><path id="Path_12" d="M636.8 676.61C635.881 676.613 635.035 676.109 634.6 675.3C632.012 670.536 631.721 664.855 633.81 659.852C635.899 654.848 640.142 651.06 645.35 649.55C646.218 649.267 647.171 649.48 647.837 650.105C648.502 650.73 648.774 651.668 648.545 652.552C648.317 653.436 647.625 654.126 646.74 654.35C642.986 655.441 639.927 658.173 638.422 661.781C636.916 665.389 637.125 669.484 638.99 672.92C639.649 674.132 639.202 675.65 637.99 676.31C637.623 676.505 637.215 676.608 636.8 676.61V676.61Z" fill="#1B1812"/><path id="Path_13" d="M624.6 673.35C623.516 673.348 622.556 672.65 622.22 671.62C620.507 666.776 620.288 661.53 621.59 656.56C623.122 651.466 626.66 647.214 631.39 644.78C632.191 644.332 633.175 644.359 633.95 644.851C634.726 645.344 635.169 646.222 635.104 647.138C635.039 648.055 634.477 648.862 633.64 649.24C630.14 651.051 627.522 654.199 626.38 657.97C625.08 662.39 625.99 666.97 626.98 670.08C627.221 670.841 627.087 671.672 626.617 672.317C626.147 672.963 625.398 673.346 624.6 673.35V673.35Z" fill="#1B1812"/><path id="Path_14" d="M615.319 649.26C609.559 633.16 598.569 625.04 590.419 624.32C589.038 624.196 587.818 625.215 587.694 626.595C587.57 627.976 588.588 629.196 589.969 629.32C599.349 630.15 607.969 642.26 611.389 653.24C611.669 654.153 612.446 654.825 613.389 654.97C613.8 652.996 614.448 651.079 615.319 649.26Z" fill="#A3B6B7"/><path id="Path_15" d="M532.899 658.28C528.479 658.39 524.039 658.46 519.639 658.46H518.729C515.967 658.46 513.729 660.699 513.729 663.46C513.729 666.222 515.967 668.46 518.729 668.46C523.729 668.46 528.819 668.39 533.819 668.27C533.063 664.997 532.753 661.637 532.899 658.28V658.28Z" fill="#1B1812"/><path id="Path_16" d="M846.788 810.91C845.728 810.91 820.668 810.58 812.788 810.82C806.788 811.01 791.718 814.03 782.728 838C779.178 848.56 778.728 865.38 781.728 877.13C785.488 891.86 795.328 907.32 811.728 907.32H812.908C829.628 906.57 846.418 907.32 846.588 907.32C847.27 907.35 847.935 907.1 848.428 906.628C848.921 906.156 849.199 905.503 849.198 904.82V813.44C849.216 812.082 848.146 810.959 846.788 810.91Z" fill="#1B1812"/><path id="Path_17" d="M820.999 902.16C814.899 902.16 807.569 901.69 807.199 901.67C806.305 901.613 805.511 901.084 805.114 900.282C804.716 899.48 804.777 898.527 805.274 897.782C805.77 897.037 806.625 896.613 807.519 896.67C807.619 896.67 818.239 897.35 824.299 897.09C825.67 897.05 826.823 898.11 826.899 899.48C826.928 900.142 826.693 900.789 826.244 901.277C825.796 901.765 825.171 902.054 824.509 902.08C823.449 902.14 822.249 902.16 820.999 902.16Z" fill="#3F3931"/><path id="Path_18" d="M803.289 897.14C801.908 897.16 800.773 896.056 800.754 894.675C800.735 893.295 801.838 892.16 803.219 892.14L819.019 891.73C819.912 891.707 820.75 892.162 821.217 892.924C821.683 893.686 821.708 894.639 821.282 895.424C820.855 896.209 820.042 896.707 819.149 896.73L803.349 897.14H803.289Z" fill="#3F3931"/><path id="Path_19" d="M795.549 886.78C794.168 886.78 793.049 885.661 793.049 884.28C793.049 882.899 794.168 881.78 795.549 881.78L812.849 881.45H812.899C814.28 881.45 815.399 882.569 815.399 883.95C815.399 885.331 814.28 886.45 812.899 886.45L795.599 886.78H795.549Z" fill="#3F3931"/><path id="Path_20" d="M810.27 871.42H792.34C790.959 871.42 789.84 870.301 789.84 868.92C789.84 867.539 790.959 866.42 792.34 866.42H810.27C811.651 866.42 812.77 867.539 812.77 868.92C812.77 870.301 811.651 871.42 810.27 871.42V871.42Z" fill="#3F3931"/><path id="Path_21" d="M879.278 848.6C876.968 827.97 865.378 812.86 850.438 811C836.438 809.27 823.528 819.58 816.628 838C813.068 848.56 812.628 865.38 815.628 877.13C821.378 899.61 834.628 907.3 845.878 907.3C847.331 907.304 848.78 907.173 850.208 906.91C867.558 903.75 883.098 882.7 879.278 848.6Z" fill="#1B1812"/><path id="Path_22" d="M873.759 850.21C871.839 832.56 862.169 819.68 849.679 818.21C835.849 816.54 826.189 828.98 821.729 841.21C818.809 850.21 818.469 864.4 820.929 874.35C824.929 890.41 834.459 900.11 845.829 900.11C847.049 900.106 848.267 899.999 849.469 899.79C863.929 897.23 876.919 879.38 873.759 850.21Z" fill="#F6F6F6"/><path id="Path_23" d="M860.839 854.82C859.779 846.14 854.589 839.92 847.629 838.98C842.419 838.28 835.479 840.88 831.629 850.37C830.004 855.597 829.852 861.172 831.189 866.48C833.699 875.48 839.739 879.25 845.349 879.25C846.171 879.251 846.992 879.17 847.799 879.01C855.539 877.46 862.529 868.66 860.839 854.82Z" fill="#AC6040"/><path id="Path_24" d="M855.179 850.77C854.394 848.434 852.704 846.51 850.489 845.43C847.543 844.054 844.036 844.97 842.139 847.61C840.919 849.49 840.799 852.02 841.809 854.73C843.079 858.15 846.069 861.34 849.989 861.34C850.696 861.34 851.4 861.239 852.079 861.04C853.507 860.668 854.706 859.699 855.369 858.38C856.739 855.68 855.689 852.16 855.179 850.77Z" fill="white"/><path id="Path_25" d="M522.929 664.05H522.699C522.039 663.989 521.429 663.669 521.005 663.158C520.582 662.648 520.378 661.991 520.439 661.33C521.899 645.11 517.579 627.83 509.159 616.23C508.634 615.507 508.534 614.558 508.898 613.741C509.262 612.925 510.034 612.365 510.923 612.271C511.813 612.178 512.684 612.567 513.209 613.29C522.299 625.83 526.979 644.41 525.419 661.78C525.296 663.064 524.219 664.046 522.929 664.05Z" fill="#1B1812"/><path id="Path_26" d="M680.939 666.62C679.579 666.62 678.471 665.53 678.449 664.17C678.049 646.74 683.949 628.51 693.839 616.61C694.722 615.547 696.301 615.402 697.364 616.285C698.427 617.169 698.572 618.747 697.689 619.81C688.529 630.81 683.069 647.81 683.439 664.06C683.455 664.723 683.207 665.366 682.749 665.846C682.292 666.326 681.662 666.604 680.999 666.62H680.939Z" fill="#1B1812"/><path id="Path_27" d="M553.679 682.85C563.679 676.76 576.109 677.16 587.759 677.75C601.759 678.47 617.139 679.75 626.939 689.75C635.099 698.06 637.349 710.75 636.129 722.29C635.999 723.54 635.849 724.84 635.679 726.18V726.18C640.819 698.11 646.679 673.04 649.079 655.72C651.729 637.02 658.809 613.13 645.399 597.04C637.939 588.76 629.399 586.4 617.489 586.23C605.579 586.06 594.109 588.23 586.179 595.84C571.649 609.84 554.429 651.08 538.639 700.84V700.84C542.249 693.59 546.869 687 553.679 682.85Z" fill="#F0DD9F"/><path id="Path_28" d="M643.349 595C637.279 589.27 630.409 587 621.589 586.43C615.916 591.21 610.129 595.847 604.229 600.34C597.176 605.674 589.972 610.81 582.619 615.75C577.559 619.144 572.426 622.424 567.219 625.59C561.829 636.74 556.329 650.08 550.879 664.93C585.55 647.2 616.846 623.532 643.349 595V595Z" fill="#F6F1BD"/><path id="Path_29" d="M621.099 645.48L595.569 666.31L582.869 676.66L581.869 677.5C583.869 677.56 585.869 677.65 587.789 677.75C596.929 678.22 606.649 678.96 615.039 682.19L648.689 658.55C648.839 657.55 648.979 656.66 649.109 655.75C650.699 644.52 653.879 631.43 653.269 619.27L646.529 624.77L621.099 645.48Z" fill="#F6F1BD"/><path id="Path_30" d="M690.389 830.29C669.109 830.22 651.189 830.16 647.229 830.16C636.499 830.16 632.049 829.37 628.909 826.91C624.909 823.75 622.649 817.73 623.239 811.58C624.864 793.904 627.535 776.34 631.239 758.98C633.509 748.11 636.359 732.37 637.569 720.81C639.009 707.11 635.489 694.81 627.919 687.13C617.999 677.01 602.829 675.43 588.139 674.68C577.489 674.14 564.239 673.46 553.539 680C542.649 686.66 537.189 699.17 532.919 710.38C518.969 747.06 507.569 787.11 497.029 836.38C496.029 841.27 494.809 846.81 495.549 852.46C496.359 858.64 501.239 867.69 507.929 867.91L585.179 870.46C603.539 871.06 622.519 871.69 641.179 872.11C652.349 872.37 664.089 872.53 675.909 872.63C680.869 858.823 685.696 844.71 690.389 830.29Z" fill="#FA7F35"/><path id="Path_31" d="M775.849 830.58L756.459 830.51C751.599 844.684 746.599 858.774 741.459 872.78H751.029C760.199 872.78 768.519 872.78 775.619 872.78C776.996 872.78 778.113 871.667 778.119 870.29L778.339 833.17C778.339 832.507 778.077 831.871 777.609 831.4C777.159 830.898 776.523 830.602 775.849 830.58Z" fill="#FA7F35"/><path id="Path_32" d="M910.999 752.48C905.449 741.94 894.589 729.24 885.669 722.9C864.809 708.9 853.279 714.49 849.289 717.52C844.949 720.81 832.769 731.08 828.959 734.31C824.882 737.168 822.128 741.548 821.319 746.46C819.399 756.19 823.099 768.82 831.469 781.11C843.519 798.8 858.379 810.32 872.269 812.72C873.92 813.014 875.593 813.164 877.269 813.17C881.554 813.286 885.762 812.016 889.269 809.55H889.319C890.152 808.937 890.925 808.248 891.629 807.49C895.309 804.22 902.569 797.98 910.399 792.23C921.769 783.79 918.149 766.17 910.999 752.48Z" fill="#3F3931"/><path id="Path_33" d="M861.779 733.71C862.097 733.659 862.403 733.547 862.679 733.38L874.729 725.7C875.894 724.957 876.236 723.41 875.494 722.245C874.751 721.08 873.204 720.737 872.039 721.48L860.039 729.16C859.113 729.776 858.706 730.929 859.039 731.99C857.705 731.243 856.372 730.537 855.039 729.87C853.796 729.262 852.296 729.777 851.689 731.02C851.081 732.263 851.596 733.762 852.839 734.37C875.169 745.28 890.439 769.31 890.839 794.16C890.866 795.523 891.976 796.615 893.339 796.62V796.62C894.003 796.612 894.636 796.339 895.098 795.862C895.56 795.385 895.812 794.744 895.799 794.08C895.399 770 881.999 746.65 861.779 733.71Z" fill="#1B1812"/><path id="Path_34" d="M914.159 776.46C913.783 775.913 913.204 775.539 912.551 775.42C911.897 775.302 911.223 775.45 910.679 775.83L900.839 782.65C899.769 783.457 899.525 784.965 900.287 786.068C901.049 787.171 902.546 787.476 903.679 786.76L913.529 779.94C914.077 779.564 914.451 778.985 914.569 778.332C914.688 777.678 914.54 777.004 914.159 776.46V776.46Z" fill="#1B1812"/><path id="Path_35" d="M913.528 770.65C914.243 770.115 914.617 769.238 914.511 768.351C914.404 767.465 913.832 766.702 913.011 766.351C912.189 766.001 911.243 766.115 910.528 766.65L897.648 776.49C896.934 777.026 896.56 777.903 896.666 778.789C896.773 779.676 897.345 780.439 898.166 780.789C898.988 781.14 899.934 781.026 900.648 780.49L913.528 770.65Z" fill="#1B1812"/><path id="Path_36" d="M892.449 758.46C892.977 758.459 893.491 758.291 893.919 757.98L901.809 752.21C902.746 751.346 902.883 749.914 902.126 748.888C901.369 747.862 899.961 747.57 898.859 748.21L890.969 753.98C890.093 754.618 889.729 755.748 890.066 756.778C890.403 757.808 891.365 758.503 892.449 758.5V758.46Z" fill="#1B1812"/><path id="Path_37" d="M854.399 728.6L865.209 721.87C866.012 721.42 866.503 720.565 866.486 719.645C866.47 718.724 865.949 717.887 865.13 717.466C864.311 717.045 863.328 717.108 862.569 717.63L851.759 724.35C850.814 724.941 850.374 726.086 850.68 727.157C850.987 728.228 851.965 728.968 853.079 728.97C853.545 728.97 854.001 728.842 854.399 728.6V728.6Z" fill="#1B1812"/><path id="Path_38" d="M872.509 740.24C872.856 740.805 873.414 741.209 874.059 741.363C874.704 741.517 875.384 741.408 875.949 741.06L887.949 733.71C889.128 732.99 889.499 731.449 888.779 730.27C888.058 729.091 886.518 728.72 885.339 729.44L873.339 736.8C872.772 737.146 872.366 737.703 872.21 738.348C872.055 738.994 872.162 739.674 872.509 740.24Z" fill="#1B1812"/><path id="Path_39" d="M684.359 848.42C696.429 812.86 707.689 775.33 718.619 734.21L717.859 734.43C712.289 736.04 705.369 738.05 700.409 742.72C695.269 747.54 692.959 754.5 691.099 760.08L668.269 828.56C667.179 831.84 665.149 837.94 668.369 842.68C671.589 847.42 677.869 847.87 681.269 848.17L684.359 848.42Z" fill="#FA7F35"/><path id="Path_40" d="M859.739 745.79C853.889 736.79 837.279 735.79 830.409 735.79C825.829 735.79 819.919 733.28 813.069 730.38C806.219 727.48 798.489 724.2 790.269 722.69C777.829 766.39 763.959 809.8 748.779 852.52H749.069C758.889 852.52 768.749 850.85 774.339 843.15C777.169 839.26 778.149 834.7 779.089 830.29C779.919 826.45 780.689 822.83 782.609 819.85C785.479 815.39 790.739 812.74 795.499 810.73C816.019 802.09 838.299 799.22 858.209 802.66C859.552 802.88 860.826 801.995 861.089 800.66C863.323 789.867 864.485 778.881 864.559 767.86C864.599 760.72 864.059 752.46 859.739 745.79Z" fill="#FA7F35"/><path id="Path_41" d="M892.348 807.35C891.528 795.25 887.508 784.85 881.348 778.82C876.008 773.61 869.348 771.65 863.008 770.31C840.591 765.627 817.348 766.753 795.488 773.58C788.158 775.86 766.418 810.11 764.488 836.44L773.488 871.44C773.925 872.243 774.764 872.745 775.678 872.75C793.848 872.75 806.898 864.75 819.528 856.92C825.838 853.03 831.798 849.36 838.248 846.77C853.815 840.443 870.826 838.533 887.408 841.25C888.069 841.356 888.745 841.194 889.286 840.8C889.827 840.406 890.187 839.812 890.288 839.15C891.688 829.4 893.068 818.05 892.348 807.35Z" fill="#FA7F35"/><path id="Path_42" d="M884.67 911H472.43C471.049 911 469.93 909.881 469.93 908.5C469.93 907.119 471.049 906 472.43 906H884.67C886.05 906 887.17 907.119 887.17 908.5C887.17 909.881 886.05 911 884.67 911Z" fill="#1B1812"/><path id="Path_43" d="M564.529 696.62C563.212 696.512 562.038 697.448 561.85 698.756C561.662 700.065 562.525 701.293 563.819 701.56L555.529 748C554.197 747.793 552.94 748.68 552.689 750.005C552.438 751.331 553.283 752.616 554.599 752.91C557.389 753.489 560.23 753.791 563.079 753.81C569.229 753.81 574.459 752.21 578.709 749.01C584.929 744.31 588.659 736.32 589.489 725.9C590.999 706.5 576.999 698 564.529 696.62Z" fill="#AC6040"/><path id="Path_44" d="M543.85 735.71C541.66 721.71 547.48 696.37 564.26 699.11C581.95 702 577.46 725.84 573.18 737.47C564.81 754.79 547 755.76 543.85 735.71Z" fill="#F6F1BD"/><path id="Shape" fill-rule="evenodd" clip-rule="evenodd" d="M554.789 752.96C555.451 753.059 556.12 753.11 556.789 753.11C563.909 753.11 571.059 747.61 575.469 738.55C575.509 738.48 575.542 738.406 575.569 738.33C576.879 734.68 583.229 715.91 576.569 704.49C574.044 700.161 569.643 697.258 564.669 696.64C559.431 695.701 554.07 697.447 550.389 701.29C542.559 709.1 539.669 725.1 541.389 736.1C543.549 749.85 551.479 752.47 554.789 752.96ZM555.509 748.02C550.829 747.32 547.479 742.7 546.319 735.32H546.269C544.779 725.77 547.249 711.4 553.849 704.83C556.4 702.096 560.179 700.868 563.849 701.58C567.348 701.961 570.459 703.975 572.239 707.01C576.509 714.33 574.189 727.49 570.879 736.49C567.119 744.19 560.949 748.83 555.509 748.02Z" fill="#1B1812"/><path id="Path_45" d="M551.998 733.48C550.797 733.502 549.75 732.666 549.506 731.489C549.261 730.313 549.888 729.129 550.998 728.67L552.728 727.94C553.984 727.464 555.392 728.066 555.916 729.302C556.44 730.539 555.894 731.968 554.678 732.54L552.948 733.28C552.647 733.406 552.325 733.474 551.998 733.48Z" fill="#F0DD9F"/><path id="Path_46" d="M556.998 720.55C556.279 720.548 555.595 720.239 555.118 719.7L552.438 716.7C551.524 715.664 551.623 714.084 552.658 713.17C553.694 712.256 555.274 712.354 556.188 713.39L558.878 716.45C559.316 716.948 559.538 717.6 559.495 718.263C559.452 718.925 559.147 719.542 558.648 719.98C558.187 720.365 557.6 720.568 556.998 720.55Z" fill="#F0DD9F"/><path id="Path_47" d="M559.71 741.34C558.803 741.343 557.966 740.853 557.525 740.061C557.084 739.268 557.109 738.299 557.59 737.53L560.24 733.25C560.696 732.462 561.545 731.985 562.455 732.004C563.365 732.024 564.193 732.536 564.616 733.342C565.039 734.148 564.991 735.12 564.49 735.88L561.84 740.16C561.382 740.896 560.576 741.342 559.71 741.34V741.34Z" fill="#F0DD9F"/><path id="Path_48" d="M565.65 716.28C564.458 716.285 563.428 715.448 563.19 714.28L562.43 710.16C562.269 709.281 562.589 708.384 563.27 707.805C563.951 707.226 564.888 707.055 565.73 707.355C566.571 707.655 567.189 708.381 567.35 709.26L568.11 713.38C568.359 714.736 567.464 716.037 566.11 716.29C565.956 716.302 565.802 716.299 565.65 716.28Z" fill="#F0DD9F"/><path id="Path_49" d="M536.929 810.91C535.869 810.91 510.809 810.58 502.929 810.82C496.879 811.01 481.859 814.03 472.869 838C469.319 848.56 468.869 865.38 471.869 877.13C475.639 891.86 485.469 907.32 501.869 907.32H503.049C519.779 906.57 536.559 907.32 536.729 907.32C537.41 907.347 538.073 907.098 538.569 906.63C539.062 906.158 539.341 905.504 539.339 904.82V813.44C539.356 812.082 538.286 810.959 536.929 810.91Z" fill="#1B1812"/><path id="Path_50" d="M511.139 902.16C505.039 902.16 497.709 901.69 497.339 901.67C495.958 901.579 494.912 900.386 495.004 899.005C495.095 897.624 496.288 896.579 497.669 896.67C497.769 896.67 508.389 897.35 514.449 897.09C515.82 897.05 516.973 898.11 517.049 899.48C517.078 900.142 516.843 900.789 516.394 901.277C515.946 901.765 515.321 902.054 514.659 902.08C513.589 902.14 512.389 902.16 511.139 902.16Z" fill="#3F3931"/><path id="Path_51" d="M493.419 897.14C492.038 897.157 490.905 896.051 490.889 894.67C490.872 893.29 491.978 892.157 493.359 892.14L509.159 891.73C510.54 891.694 511.688 892.785 511.724 894.165C511.76 895.546 510.67 896.694 509.289 896.73L493.489 897.14H493.419Z" fill="#3F3931"/><path id="Path_52" d="M485.689 886.78C484.796 886.789 483.966 886.321 483.512 885.552C483.057 884.783 483.048 883.83 483.487 883.052C483.925 882.274 484.746 881.789 485.639 881.78L502.939 881.45V881.45C504.32 881.45 505.439 882.569 505.439 883.95C505.439 885.331 504.32 886.45 502.939 886.45L485.639 886.78H485.689Z" fill="#3F3931"/><path id="Path_53" d="M500.399 871.42H482.479C481.098 871.42 479.979 870.301 479.979 868.92C479.979 867.539 481.098 866.42 482.479 866.42H500.399C501.779 866.42 502.899 867.539 502.899 868.92C502.899 870.301 501.779 871.42 500.399 871.42Z" fill="#3F3931"/><path id="Path_54" d="M582.409 867L572.259 837.58C572.038 836.947 571.574 836.429 570.969 836.14L553.299 827.68C552.674 827.371 551.947 827.342 551.299 827.6C550.656 827.845 550.142 828.345 549.879 828.98L534.549 866.39C534.234 867.158 534.32 868.032 534.778 868.723C535.237 869.414 536.009 869.833 536.839 869.84L579.989 870.32V870.32C580.798 870.319 581.556 869.927 582.026 869.269C582.496 868.61 582.62 867.766 582.359 867H582.409Z" fill="#1B1812"/><path id="Path_55" d="M569.42 848.6C567.11 827.97 555.52 812.86 540.58 811C526.58 809.27 513.67 819.58 506.76 838C503.21 848.56 502.76 865.38 505.76 877.13C511.5 899.61 524.76 907.3 536.01 907.3C537.462 907.304 538.911 907.173 540.34 906.91C557.7 903.75 573.23 882.7 569.42 848.6Z" fill="#1B1812"/><path id="Path_56" d="M563.889 850.21C561.979 832.56 552.309 819.68 539.819 818.21C525.979 816.54 516.319 828.98 511.819 841.21C508.899 850.21 508.559 864.41 511.019 874.35C515.019 890.41 524.549 900.11 535.919 900.11C537.139 900.106 538.357 899.999 539.559 899.79C554.069 897.23 567.049 879.38 563.889 850.21Z" fill="#F6F6F6"/><path id="Path_57" d="M550.999 854.82C549.939 846.14 544.749 839.92 537.789 838.98C532.559 838.28 525.639 840.88 521.789 850.37C520.166 855.597 520.01 861.17 521.339 866.48C523.859 875.48 529.899 879.25 535.509 879.25C536.328 879.251 537.145 879.171 537.949 879.01C545.679 877.46 552.669 868.66 550.999 854.82Z" fill="#AC6040"/><path id="Path_58" d="M545.319 850.77C544.534 848.431 542.84 846.506 540.619 845.43V845.43C537.677 844.056 534.173 844.972 532.279 847.61C531.059 849.49 530.939 852.02 531.949 854.73C533.219 858.15 536.209 861.34 540.119 861.34C540.83 861.341 541.537 861.24 542.219 861.04C543.645 860.668 544.841 859.698 545.499 858.38C546.879 855.68 545.829 852.16 545.319 850.77Z" fill="white"/><path id="Path_59" d="M584.579 809.07C582.379 797.7 576.579 787.17 569.099 780.9C561.619 774.63 552.009 770.28 530.459 770.28C510.999 770.28 496.159 772.03 482.359 780.7C467.059 790.32 463.129 806.88 462.149 815.9C461.539 821.52 462.549 826.53 464.859 829.29C467.169 832.05 470.859 832.6 474.119 832.76C482.629 833.17 491.209 832.76 499.509 832.32C504.719 832.06 510.109 831.79 515.379 831.74C531.879 831.55 544.289 833.74 554.379 838.67C567.529 845.06 577.039 856.67 578.609 868.21C578.779 869.449 579.839 870.372 581.089 870.37V870.37C582.348 870.369 583.407 869.43 583.559 868.18C583.779 866.59 588.429 828.89 584.579 809.07Z" fill="#FA7F35"/><path id="Path_60" d="M517.589 816.37H517.529C516.866 816.354 516.236 816.076 515.778 815.596C515.321 815.115 515.073 814.473 515.089 813.81C515.48 802.1 521.172 791.202 530.559 784.19C531.663 783.362 533.23 783.586 534.059 784.69C534.887 785.795 534.663 787.362 533.559 788.19C525.415 794.279 520.478 803.738 520.139 813.9C520.131 814.567 519.857 815.202 519.378 815.666C518.899 816.13 518.255 816.383 517.589 816.37Z" fill="#1B1812"/><path id="Path_61" d="M756.44 861.75C756.054 861.75 755.673 861.657 755.33 861.48C754.093 860.867 753.587 859.367 754.2 858.13C758.91 848.68 761.51 838.07 764.03 827.82C764.85 824.47 765.7 821.02 766.61 817.63C769.95 805.22 775.3 789.63 787.13 779C797.81 769.4 809.41 764.24 822.6 763.22C835.517 762.046 848.527 762.405 861.36 764.29C862.269 764.394 863.049 764.987 863.393 765.835C863.737 766.683 863.59 767.651 863.01 768.359C862.429 769.066 861.509 769.401 860.61 769.23C848.153 767.419 835.526 767.083 822.99 768.23C810.99 769.15 800.3 773.9 790.47 782.73C779.62 792.48 774.6 807.21 771.47 818.95C770.58 822.28 769.74 825.71 768.92 829.03C766.34 839.55 763.67 850.43 758.72 860.38C758.286 861.237 757.4 861.769 756.44 861.75Z" fill="#1B1812"/><path id="Path_62" d="M687.329 831.28V831.28H670.639C669.258 831.28 668.139 830.161 668.139 828.78C668.139 827.4 669.258 826.28 670.639 826.28V826.28H687.329C688.709 826.28 689.829 827.4 689.829 828.78C689.829 830.161 688.709 831.28 687.329 831.28V831.28Z" fill="#1B1812"/><path id="Path_63" d="M765.309 831.52V831.52H759.889C758.508 831.52 757.389 830.401 757.389 829.02C757.389 827.639 758.508 826.52 759.889 826.52H765.299C766.679 826.52 767.799 827.639 767.799 829.02C767.799 830.401 766.679 831.52 765.299 831.52H765.309Z" fill="#1B1812"/><path id="Path_64" d="M585.998 870.53C585.872 870.54 585.745 870.54 585.618 870.53C584.962 870.431 584.372 870.075 583.98 869.54C583.588 869.005 583.425 868.335 583.528 867.68C583.588 867.28 589.628 827.5 585.588 807.58C583.398 796.78 577.778 786.83 570.588 780.98C563.198 774.98 553.798 770.98 532.008 770.98C525.718 770.98 521.118 771.13 516.008 771.55C515.115 771.623 514.251 771.214 513.741 770.477C513.231 769.741 513.153 768.788 513.536 767.977C513.919 767.167 514.705 766.623 515.598 766.55C520.858 766.12 525.598 765.97 532.018 765.96C555.278 765.96 565.518 770.45 573.738 777.11C581.958 783.77 588.118 794.7 590.528 806.6C594.738 827.4 588.758 866.8 588.528 868.47C588.311 869.688 587.235 870.564 585.998 870.53Z" fill="#1B1812"/><path id="Path_65" d="M512.628 597.54C509.084 591.916 502.662 588.783 496.048 589.45C488.908 590.16 483.128 595.11 480.188 603.04C476.798 612.18 481.918 619.67 488.498 623.04C491.267 624.454 494.329 625.198 497.438 625.21C502.98 625.32 508.193 622.589 511.258 617.97C515.758 610.87 516.248 603.42 512.628 597.54Z" fill="#FA7F35"/><path id="Path_66" d="M725.999 604.58C722.559 596.84 716.489 592.26 709.319 592C702.692 591.778 696.504 595.305 693.319 601.12C690.069 607.22 691.029 614.62 696.009 621.48C699.085 625.543 703.913 627.898 709.009 627.82C712.528 627.807 715.98 626.854 719.009 625.06C725.269 621.28 729.909 613.48 725.999 604.58Z" fill="#FA7F35"/><path id="Path_67" d="M686.108 663L681.288 662.75C678.624 663.57 675.824 663.859 673.048 663.6C672.158 663.48 671.268 663.31 670.418 663.15C667.988 662.69 665.698 662.26 663.838 662.96C662.138 663.6 660.758 665.2 659.298 666.9C658.598 667.71 657.878 668.55 657.078 669.33C656.329 670.063 655.519 670.732 654.658 671.33C659.248 671.56 664.148 671.83 669.308 672.11C674.468 672.39 679.858 672.69 685.608 672.98C687.395 673.069 689.093 672.199 690.063 670.697C691.034 669.194 691.129 667.288 690.313 665.697C689.498 664.105 687.895 663.069 686.108 662.98V663Z" fill="#1B1812"/><path id="Path_68" d="M686.818 757.92C689.298 759.473 692.197 760.221 695.118 760.06C695.608 760.06 696.118 760.06 696.568 760.06C701.838 759.825 707.072 759.082 712.198 757.84C718.718 734.41 725.088 709.84 731.408 683.84C724.148 684.474 716.915 685.204 709.708 686.03C699.198 687.24 696.118 697.49 693.408 706.53L683.828 738.17C680.898 747.82 681.898 754.48 686.818 757.92Z" fill="#AC6040"/><path id="Path_69" d="M837 684.58C831.6 681.43 825 681.25 820.19 681.12C814.037 680.96 807.88 680.87 801.72 680.85C796.633 700.263 791.257 719.623 785.59 738.93C799.86 738.26 814.31 738.93 826.37 739.55C833.37 739.89 839.95 740.21 845.31 740.21C846.655 740.216 847.761 739.154 847.81 737.81C847.81 737.63 848.56 719.58 848.66 710.56C848.72 704.83 847.71 690.83 837 684.58Z" fill="#AC6040"/></g></g></g></g><g id="Facial Hair" transform="translate(661 406) scale(220 200)"><g id="Facial Hair/None" stroke="none" stroke-width="1" fill="none" fill-rule="evenodd" fill-opacity="0"/></g><g id="Hair" transform="translate(655 413) scale(1 1)"><g id="Hair/Wavy"><g id="long"><g id="hair"><path id="Path" d="M162.11 129.45C158.5 124.93 157.41 119.02 156.25 112.76C155.25 107.33 154.25 101.76 151.42 96.76C150.224 94.6343 148.755 92.6743 147.05 90.93V90.93V90.93C137.97 80.93 124.99 78.21 112.47 76.25C107.4 75.46 101.95 74.85 96.5499 75.78C90.3999 76.84 85.1499 79.94 82.1499 84.27C78.4799 89.56 78.4299 96.78 82.0299 101.42C86.0299 106.59 92.8499 107.61 99.6199 107.94C101.09 108.01 102.92 108.04 104.98 108.04C114.83 108.04 130.19 107.32 139.68 106.79C140.43 106.79 141.18 106.89 141.92 106.98C144.149 107.164 146.283 107.968 148.08 109.3C151.56 112.16 151.85 117.16 150.61 120.85C149.077 125.296 145.653 128.833 141.26 130.51C139.026 131.341 136.631 131.649 134.26 131.41L134.1 132.19C133.52 135.19 132.54 140.19 128.62 142.77C126.437 144.062 123.923 144.681 121.39 144.55H120.3C120.66 145.01 121.04 145.46 121.45 145.89C124.839 149.386 129.501 151.359 134.37 151.36C135.227 151.361 136.083 151.298 136.93 151.17C138.029 150.993 138.875 150.106 139 149L139.68 144.66C144.419 146.802 149.451 148.224 154.61 148.88C155.493 148.993 156.37 148.628 156.911 147.921C157.453 147.215 157.578 146.274 157.24 145.45L152.94 135.01C155.743 134.918 158.51 134.347 161.12 133.32C161.853 133.024 162.402 132.398 162.599 131.632C162.797 130.867 162.619 130.053 162.12 129.44L162.11 129.45Z" fill="#000000"/></g></g></g></g><g id="Accessories" transform="translate(661 406) scale(1 1)"><g id="Accessories/Crown"><g id="crown"><g id="hair"><path id="Path" d="M144.43 73.28C143.648 72.826 142.682 72.826 141.9 73.28C139.98 74.44 137.71 75.53 135.51 76.59C134.26 77.19 132.99 77.8 131.75 78.44C130.805 73.2182 130.676 67.8812 131.37 62.62C131.506 61.5942 130.995 60.591 130.086 60.0966C129.177 59.6023 128.058 59.7189 127.27 60.39L114.19 71.47C114.07 70.89 113.95 70.31 113.83 69.75C113.367 67.8851 113.033 65.9907 112.83 64.08C112.755 63.0342 112.036 62.1461 111.029 61.8558C110.021 61.5654 108.94 61.9344 108.32 62.78C102 71.41 97.7601 81.41 95.3201 88.27C94.9024 89.3807 95.3195 90.6321 96.3201 91.27C108.961 99.3654 123.61 103.774 138.62 104V104C139.731 104 140.709 103.267 141.02 102.2C144.08 91.79 145.55 83.3 145.65 75.48C145.671 74.58 145.205 73.7389 144.43 73.28V73.28Z" fill="#F9B735"/><path id="Path_2" d="M113 60.76C112.386 60.7613 111.794 60.533 111.34 60.12C110.312 59.2008 110.219 57.6246 111.13 56.59L111.87 55.77C112.787 54.7373 114.367 54.6432 115.4 55.56C116.433 56.4768 116.527 58.0573 115.61 59.09L114.87 59.92C114.396 60.4555 113.715 60.7615 113 60.76V60.76Z" fill="#F9B735"/><path id="Path_3" d="M131.36 59C130.466 58.9967 129.642 58.5167 129.199 57.741C128.755 56.9653 128.76 56.0118 129.21 55.24L129.91 54.03C130.36 53.2583 131.188 52.7854 132.081 52.7894C132.974 52.7934 133.798 53.2737 134.241 54.0494C134.684 54.8251 134.68 55.7783 134.23 56.55L133.53 57.76C133.078 58.5297 132.252 59.0018 131.36 59Z" fill="#F9B735"/><path id="Path_4" d="M145.61 71.7C145.038 71.7018 144.483 71.5037 144.04 71.14C143.524 70.7245 143.195 70.1206 143.126 69.4619C143.057 68.8032 143.252 68.1439 143.67 67.63L144.15 67.05C144.697 66.3131 145.605 65.9367 146.513 66.0706C147.421 66.2044 148.182 66.8268 148.493 67.6902C148.804 68.5536 148.614 69.518 148 70.2L147.54 70.78C147.066 71.3591 146.359 71.6964 145.61 71.7Z" fill="#F9B735"/></g></g></g></g></g></g></g></svg>