<svg viewBox="133.23749999999995 146.1730769230769 654.075 446.9755244755245" fill="none" xmlns="http://www.w3.org/2000/svg" xmlns:xlink="http://www.w3.org/1999/xlink" overflow="visible" width="654.075px" height="446.9755244755245px"><g id="Master/Scenes/Address"><path id="Floor" fill-rule="evenodd" clip-rule="evenodd" d="M785.137 588.345H183.5C183.224 588.345 183 588.121 183 587.845C183 587.569 183.224 587.345 183.5 587.345H785.137C785.413 587.345 785.637 587.569 785.637 587.845C785.637 588.121 785.413 588.345 785.137 588.345" fill="black"/><g id="Address"><path id="Map" fill-rule="evenodd" clip-rule="evenodd" d="M516.065 193.776L516.093 183.776H452.77C452.486 183.776 452.202 183.8 451.921 183.848L354.961 200.539L286.171 169C285.338 171.13 284.865 173.44 284.865 175.865L284.855 179.397L390.615 227.887L284.671 244.564L284.642 254.691L294.957 253.067L384.988 370.967L335.84 342.827L335.817 342.814L284.477 313.419L284.445 324.922L327.384 349.508L312.224 396.972H284.242L284.213 406.972H315.876C318.051 406.972 319.976 405.566 320.638 403.493L336.259 354.589L401.499 391.944C401.517 391.954 401.537 391.962 401.554 391.972C401.647 392.024 401.742 392.068 401.837 392.114C401.892 392.14 401.944 392.171 401.999 392.194L473.819 423.243L462.224 454.649L402.148 425.033C399.826 423.89 397.013 424.705 395.667 426.917L382.47 448.584L334.006 469.81L284.119 440.897L284.086 452.437L331.184 479.733C331.957 480.18 332.822 480.407 333.691 480.407C334.373 480.407 335.056 480.268 335.697 479.987L373.404 463.472L355.674 492.584C355.673 492.584 355.673 492.585 355.673 492.586C355.661 492.606 355.652 492.63 355.64 492.65C355.497 492.893 355.38 493.149 355.281 493.411C355.267 493.446 355.246 493.476 355.233 493.512C355.22 493.548 355.218 493.584 355.207 493.62C355.115 493.896 355.041 494.178 354.999 494.467C354.997 494.481 354.994 494.496 354.992 494.51C354.961 494.733 354.945 494.958 354.945 495.184V541.287H364.945V502.263L474.946 541.287H504.853L367.416 492.529L401.829 436.025L458.742 464.082L451.86 482.721C451.147 484.652 451.691 486.824 453.23 488.191C454.166 489.022 455.352 489.453 456.551 489.453C457.326 489.453 458.104 489.273 458.824 488.906L515.315 460.068L515.347 448.824L465.672 474.182L484.84 422.264C485.76 419.773 484.572 416.997 482.134 415.943L412.734 385.941L496.663 302.266H515.759L515.788 292.266H494.596C493.273 292.266 492.003 292.791 491.066 293.725L404.494 380.035L306.189 251.299L408.542 235.188C410.72 234.845 412.417 233.116 412.717 230.931C413.018 228.747 411.853 226.623 409.848 225.704L371.052 207.917L453.197 193.776H516.065Z" fill="#EEF2F8"/><path id="Geolocalization" fill-rule="evenodd" clip-rule="evenodd" d="M400.027 335.285C388.57 335.285 379.284 325.998 379.284 314.542C379.284 303.086 388.57 293.799 400.027 293.799C411.483 293.799 420.77 303.086 420.77 314.542C420.77 325.998 411.483 335.285 400.027 335.285M400.027 272.4C377.186 272.4 358.668 290.917 358.668 313.759C358.668 322.404 361.324 330.427 365.861 337.064C366.014 337.389 366.194 337.711 366.4 338.026L395.779 382.778C397.786 385.836 402.268 385.836 404.276 382.778L434.927 336.086C435.128 335.78 435.291 335.466 435.431 335.148C439.21 328.907 441.386 321.587 441.386 313.759C441.386 290.917 422.869 272.4 400.027 272.4" fill="#FF5613"/><path id="Fill 9" fill-rule="evenodd" clip-rule="evenodd" d="M379.783 314.542C379.783 303.38 388.864 294.299 400.026 294.299C411.188 294.299 420.269 303.38 420.269 314.542C420.269 325.704 411.188 334.785 400.026 334.785C388.864 334.785 379.783 325.704 379.783 314.542V314.542ZM421.269 314.542C421.269 302.829 411.74 293.299 400.026 293.299C388.312 293.299 378.783 302.829 378.783 314.542C378.783 326.255 388.312 335.785 400.026 335.785C411.74 335.785 421.269 326.255 421.269 314.542V314.542ZM400.026 395.412C370.165 395.412 350.105 390.065 350.105 385.071C350.105 380.658 365.785 375.976 390.038 374.945L395.36 383.052C396.395 384.629 398.139 385.571 400.025 385.571H400.026C401.913 385.571 403.657 384.63 404.693 383.052L410.012 374.948C434.264 375.979 449.947 380.659 449.947 385.071C449.947 390.065 429.887 395.412 400.026 395.412V395.412ZM366.817 337.752C366.627 337.461 366.457 337.158 366.273 336.782C361.624 329.981 359.167 322.021 359.167 313.759C359.167 291.229 377.496 272.9 400.026 272.9C422.556 272.9 440.886 291.229 440.886 313.759C440.886 321.225 438.851 328.532 434.973 334.946C434.83 335.27 434.678 335.553 434.509 335.812L403.857 382.503C403.007 383.798 401.575 384.571 400.026 384.571C398.477 384.571 397.046 383.798 396.196 382.503L366.817 337.752ZM450.947 385.071C450.947 378.98 431.874 374.997 410.643 373.988L435.346 336.36C435.545 336.055 435.722 335.725 435.858 335.407C439.802 328.894 441.886 321.408 441.886 313.759C441.886 290.678 423.107 271.9 400.026 271.9C376.945 271.9 358.167 290.678 358.167 313.759C358.167 322.223 360.684 330.379 365.408 337.277C365.572 337.625 365.764 337.97 365.981 338.301L389.409 373.987C368.179 374.995 349.105 378.98 349.105 385.071C349.105 392.17 374.996 396.412 400.026 396.412C425.056 396.412 450.947 392.17 450.947 385.071V385.071ZM437.256 370.074C436.987 370.015 436.72 370.187 436.661 370.458C436.603 370.728 436.775 370.993 437.045 371.051C445.589 372.889 456.947 376.34 456.947 385.071C456.947 393.803 445.589 397.254 437.045 399.091C436.775 399.149 436.603 399.415 436.661 399.685C436.712 399.92 436.919 400.08 437.149 400.08C437.184 400.08 437.22 400.077 437.256 400.069C446.137 398.159 457.947 394.527 457.947 385.071C457.947 375.617 446.137 371.984 437.256 370.074V370.074ZM363.008 399.091C354.464 397.254 343.105 393.803 343.105 385.071C343.105 376.34 354.464 372.889 363.008 371.051C363.277 370.993 363.449 370.728 363.391 370.458C363.333 370.187 363.07 370.015 362.797 370.074C353.915 371.984 342.105 375.617 342.105 385.071C342.105 394.527 353.915 398.159 362.797 400.069C362.833 400.077 362.868 400.08 362.903 400.08C363.134 400.08 363.341 399.92 363.391 399.685C363.449 399.415 363.277 399.149 363.008 399.091V399.091Z" fill="black"/><g id="Device" transform="translate(193.026 60.5713) scale(1 1)"><g id="Device/Internet Window"><g id="Internet Window"><path id="Fill 1" fill-rule="evenodd" clip-rule="evenodd" d="M303.985 95.5H110.48C100.056 95.5 91.6066 103.949 91.6066 114.373L91.5806 123.489H322.832L322.858 114.373C322.858 103.949 314.408 95.5 303.985 95.5" fill="#EEF2F8"/><path id="Fill 3" fill-rule="evenodd" clip-rule="evenodd" d="M112.614 110.957C112.614 114.412 109.812 117.213 106.357 117.213C102.902 117.213 100.101 114.412 100.101 110.957C100.101 107.501 102.902 104.7 106.357 104.7C109.812 104.7 112.614 107.501 112.614 110.957" fill="#FF4200"/><path id="Fill 5" fill-rule="evenodd" clip-rule="evenodd" d="M134.959 110.957C134.959 114.412 132.158 117.213 128.702 117.213C125.247 117.213 122.446 114.412 122.446 110.957C122.446 107.501 125.247 104.7 128.702 104.7C132.158 104.7 134.959 107.501 134.959 110.957" fill="#FFBA00"/><path id="Fill 7" fill-rule="evenodd" clip-rule="evenodd" d="M157.305 110.957C157.305 114.412 154.504 117.213 151.049 117.213C147.594 117.213 144.792 114.412 144.792 110.957C144.792 107.501 147.594 104.7 151.049 104.7C154.504 104.7 157.305 107.501 157.305 110.957" fill="#009E80"/><path id="Fill 9" fill-rule="evenodd" clip-rule="evenodd" d="M151.049 116.713C147.874 116.713 145.292 114.131 145.292 110.957C145.292 107.782 147.874 105.2 151.049 105.2C154.223 105.2 156.805 107.782 156.805 110.957C156.805 114.131 154.223 116.713 151.049 116.713V116.713ZM151.049 104.2C147.323 104.2 144.292 107.232 144.292 110.957C144.292 114.683 147.323 117.713 151.049 117.713C154.775 117.713 157.805 114.683 157.805 110.957C157.805 107.232 154.775 104.2 151.049 104.2V104.2ZM128.702 116.713C125.528 116.713 122.946 114.131 122.946 110.957C122.946 107.782 125.528 105.2 128.702 105.2C131.877 105.2 134.459 107.782 134.459 110.957C134.459 114.131 131.877 116.713 128.702 116.713V116.713ZM128.702 104.2C124.977 104.2 121.946 107.232 121.946 110.957C121.946 114.683 124.977 117.713 128.702 117.713C132.428 117.713 135.459 114.683 135.459 110.957C135.459 107.232 132.428 104.2 128.702 104.2V104.2ZM106.357 116.713C103.183 116.713 100.601 114.131 100.601 110.957C100.601 107.782 103.183 105.2 106.357 105.2C109.531 105.2 112.113 107.782 112.113 110.957C112.113 114.131 109.531 116.713 106.357 116.713V116.713ZM106.357 104.2C102.631 104.2 99.601 107.232 99.601 110.957C99.601 114.683 102.631 117.713 106.357 117.713C110.082 117.713 113.113 114.683 113.113 110.957C113.113 107.232 110.082 104.2 106.357 104.2V104.2ZM92.082 122.989L92.107 114.373C92.107 104.242 100.349 95.9999 110.48 95.9999H303.985C314.115 95.9999 322.358 104.242 322.358 114.372L322.332 122.989H92.082ZM321.251 508.792C321.251 518.923 313.009 527.165 302.878 527.165H109.373C99.242 527.165 91 518.923 91 508.793L92.079 123.989H322.33L321.251 508.792ZM303.985 94.9999H110.48C99.797 94.9999 91.107 103.691 91.107 114.372L91.079 123.989L90 508.792C90 519.475 98.691 528.165 109.373 528.165H302.878C313.561 528.165 322.251 519.475 322.251 508.793L323.358 114.373C323.358 103.691 314.667 94.9999 303.985 94.9999V94.9999Z" fill="black"/></g></g></g></g><g id="Plant" transform="translate(100 220) scale(0.9895104895104895 1.002717391304348)"><g id="Plant/Small Leaves"><g id="Small Leaves"><path id="Fill 1" fill-rule="evenodd" clip-rule="evenodd" d="M73.5589 282.193C60.7569 277.63 45.8929 282.288 44.0309 284.375C41.8499 286.818 39.2269 301.758 45.2129 313.96C53.7879 331.44 69.7179 344.187 88.5279 349.214L128.739 359.962L113.499 321.23C106.37 303.111 91.8989 288.73 73.5589 282.193M162.266 258.038C157.248 244.511 143.324 235.593 140.356 235.502C136.881 235.394 122.937 243.447 117.091 256.637C108.717 275.534 109.209 297.187 117.945 315.919L136.62 355.963L157.741 317.152C167.621 298.998 169.454 277.417 162.266 258.038" fill="#4B69FD"/><path id="Fill 3" fill-rule="evenodd" clip-rule="evenodd" d="M137.185 353.878L140.596 243.892C140.605 243.615 140.387 243.385 140.112 243.376H140.096C139.827 243.376 139.605 243.59 139.596 243.86L136.184 353.848L118.398 315.708C109.621 296.885 109.311 275.428 117.548 256.84C123.23 244.02 136.724 236 140.272 236C140.294 236 140.318 236.001 140.34 236.001C143.016 236.084 156.843 244.857 161.797 258.212C168.868 277.276 167.229 298.672 157.301 316.913L137.185 353.878ZM88.6571 348.731C69.7651 343.682 54.0931 330.928 45.6621 313.74C39.8111 301.814 42.2501 287.121 44.4041 284.708C45.5661 283.405 52.9751 280.765 61.6191 280.765C65.4461 280.765 69.5161 281.283 73.3911 282.664C91.4251 289.092 105.874 303.215 113.035 321.412L127.504 358.19L50.2521 289.256C50.0451 289.071 49.7291 289.091 49.5461 289.296C49.3631 289.503 49.3801 289.819 49.5861 290.003L126.837 358.936L88.6571 348.731ZM162.735 257.864C157.775 244.493 143.872 235.11 140.372 235.002C140.347 235.001 140.323 235.001 140.297 235.001C136.57 235.001 122.479 243.246 116.634 256.435C108.28 275.288 108.592 297.046 117.492 316.13L136.116 356.066L135.82 365.61L129.16 359.667L113.964 321.047C106.699 302.58 92.0331 288.247 73.7271 281.722C61.0621 277.209 45.8581 281.576 43.6581 284.042C41.1121 286.895 38.7901 302.002 44.7631 314.181C53.3231 331.628 69.2271 344.573 88.3991 349.697L128.495 360.414L135.954 367.07C135.973 367.088 135.998 367.096 136.019 367.109C136.044 367.126 136.068 367.145 136.096 367.156C136.135 367.173 136.176 367.18 136.219 367.185C136.237 367.188 136.252 367.196 136.271 367.197H136.287C136.356 367.197 136.422 367.182 136.482 367.156C136.497 367.15 136.508 367.138 136.523 367.13C136.568 367.106 136.61 367.077 136.646 367.04C136.65 367.036 136.656 367.035 136.66 367.03C136.674 367.014 136.68 366.992 136.693 366.974C136.713 366.943 136.735 366.914 136.748 366.879C136.76 366.848 136.764 366.817 136.77 366.785C136.774 366.761 136.786 366.738 136.787 366.713L137.116 356.098L158.18 317.392C168.246 298.896 169.906 277.199 162.735 257.864V257.864Z" fill="black"/></g></g></g><g id="Master/Character/Sitting" transform="translate(363.402 123) scale(1 1)"><g id="Master/Character/Sitting"><g id="Lower Body Sitting" transform="translate(17 227) scale(1 1)"><g id="Lower Body Sitting/Simple Chair"><g id="Simple Chair"><path id="Chair" fill-rule="evenodd" clip-rule="evenodd" d="M238.448 139.834V78.2976C238.448 76.1436 236.701 74.3966 234.547 74.3966H154.652C152.498 74.3966 150.751 76.1436 150.751 78.2976V139.834H146.458C146.458 145.133 150.754 149.428 156.052 149.428H166.983V235.415C166.983 236.554 167.906 237.477 169.046 237.477H174.286C175.425 237.477 176.349 236.554 176.349 235.415V149.428H212.85V235.415C212.85 236.554 213.774 237.477 214.913 237.477H220.154C221.293 237.477 222.216 236.554 222.216 235.415V149.428H233.147C238.446 149.428 242.741 145.133 242.741 139.834H238.448Z" fill="#5D2E00"/><path id="Fill 3" fill-rule="evenodd" clip-rule="evenodd" d="M176.349 148.92H212.85C213.131 148.92 213.359 149.148 213.359 149.428V235.415C213.359 236.272 214.056 236.969 214.913 236.969H220.154C221.011 236.969 221.708 236.272 221.708 235.415V149.428C221.708 149.148 221.935 148.92 222.216 148.92H233.147C237.986 148.92 241.954 145.117 242.219 140.342H238.448C238.167 140.342 237.94 140.115 237.94 139.834V78.2975C237.94 76.4265 236.418 74.9045 234.547 74.9045H154.652C152.782 74.9045 151.26 76.4265 151.26 78.2975V139.834C151.26 140.115 151.032 140.342 150.751 140.342H146.981C147.245 145.117 151.213 148.92 156.053 148.92H166.983C167.264 148.92 167.492 149.148 167.492 149.428V235.415C167.492 236.272 168.189 236.969 169.046 236.969H174.286C175.143 236.969 175.841 236.272 175.841 235.415V149.428C175.841 149.148 176.068 148.92 176.349 148.92M220.154 237.985H214.913C213.495 237.985 212.342 236.832 212.342 235.415V149.937H176.857V235.415C176.857 236.832 175.704 237.985 174.286 237.985H169.046C167.628 237.985 166.475 236.832 166.475 235.415V149.937H156.053C150.482 149.937 145.95 145.405 145.95 139.834C145.95 139.553 146.178 139.326 146.458 139.326H150.243V78.2975C150.243 75.8665 152.221 73.8885 154.652 73.8885H234.547C236.978 73.8885 238.956 75.8665 238.956 78.2975V139.326H242.741C243.022 139.326 243.249 139.553 243.249 139.834C243.249 145.405 238.718 149.937 233.147 149.937H222.724V235.415C222.724 236.832 221.571 237.985 220.154 237.985" fill="black"/><path id="Fill 7" fill-rule="evenodd" clip-rule="evenodd" d="M242.741 140.342H151.751C151.47 140.342 151.243 140.114 151.243 139.834C151.243 139.553 151.47 139.325 151.751 139.325H242.741C243.022 139.325 243.249 139.553 243.249 139.834C243.249 140.114 243.022 140.342 242.741 140.342" fill="black"/><path id="Fill 11" fill-rule="evenodd" clip-rule="evenodd" d="M226.673 149.936H162.526C162.245 149.936 162.018 149.708 162.018 149.428C162.018 149.147 162.245 148.919 162.526 148.919H226.673C226.954 148.919 227.181 149.147 227.181 149.428C227.181 149.708 226.954 149.936 226.673 149.936" fill="black"/><path id="Shoes" fill-rule="evenodd" clip-rule="evenodd" d="M147.012 218.035H88.8725L88.7185 218.174C85.9725 220.644 82.5885 222.294 78.9505 222.933L74.8825 223.648L71.8565 224.18C64.8745 225.407 59.0845 230.283 56.6875 236.954L56.4995 237.477H149.539L147.012 218.035Z" fill="#4B69FD"/><path id="Fill 15" fill-rule="evenodd" clip-rule="evenodd" d="M57.2114 236.977H148.969L146.572 218.535L89.0534 218.545C86.2344 221.082 82.7704 222.769 79.0364 223.426L71.9434 224.673C65.2054 225.856 59.5744 230.565 57.2114 236.977M149.538 237.977H56.4994C56.3364 237.977 56.1844 237.898 56.0904 237.765C55.9974 237.631 55.9744 237.461 56.0294 237.308L56.2174 236.786C58.6694 229.961 64.6284 224.943 71.7704 223.687L78.8634 222.44C82.4124 221.817 85.7044 220.213 88.3834 217.802L88.5374 217.664C88.6294 217.581 88.7484 217.535 88.8724 217.535H147.011C147.263 217.535 147.474 217.722 147.507 217.971L150.034 237.413C150.053 237.555 150.009 237.699 149.914 237.807C149.819 237.915 149.682 237.977 149.538 237.977" fill="black"/><path id="Skin" fill-rule="evenodd" clip-rule="evenodd" d="M138.764 185.884C139.48 174.997 130.842 165.297 119.436 165.297C119.406 165.297 119.377 165.3 119.347 165.3C119.318 165.3 119.29 165.297 119.262 165.297C116.744 165.297 114.36 165.805 112.191 166.713C106.903 168.849 102.688 173.261 100.933 178.951L88.8726 218.035H147.012L138.764 185.884Z" fill="#fbefe3"/><path id="Fill 19" fill-rule="evenodd" clip-rule="evenodd" d="M89.5499 217.535H146.367L138.279 186.008C138.266 185.957 138.261 185.904 138.265 185.851C138.604 180.698 136.754 175.557 133.188 171.75C129.593 167.911 124.709 165.797 119.436 165.797L119.274 165.798H119.268C116.877 165.798 114.565 166.261 112.383 167.174C107.086 169.314 103.089 173.66 101.41 179.098L89.5499 217.535ZM147.012 218.535H88.8729C88.7139 218.535 88.5639 218.46 88.4699 218.332C88.3759 218.204 88.3479 218.039 88.3949 217.888L100.455 178.804C102.222 173.077 106.431 168.5 112.003 166.249C114.304 165.286 116.748 164.797 119.261 164.797L119.391 165.299L119.362 164.799H119.372C124.995 164.799 130.134 167.025 133.918 171.066C137.653 175.056 139.601 180.435 139.268 185.837L147.496 217.911C147.535 218.06 147.502 218.22 147.407 218.342C147.312 218.464 147.166 218.535 147.012 218.535V218.535Z" fill="black"/><path id="Fill 21" fill-rule="evenodd" clip-rule="evenodd" d="M125.157 226.099C125.157 227.647 123.902 228.902 122.354 228.902C120.806 228.902 119.552 227.647 119.552 226.099C119.552 224.551 120.806 223.296 122.354 223.296C123.902 223.296 125.157 224.551 125.157 226.099" fill="#EFF2F7"/><path id="Fill 23" fill-rule="evenodd" clip-rule="evenodd" d="M122.355 223.796C121.085 223.796 120.052 224.829 120.052 226.099C120.052 227.368 121.085 228.401 122.355 228.401C123.625 228.401 124.658 227.368 124.658 226.099C124.658 224.829 123.625 223.796 122.355 223.796M122.355 229.401C120.534 229.401 119.052 227.92 119.052 226.099C119.052 224.277 120.534 222.796 122.355 222.796C124.176 222.796 125.658 224.277 125.658 226.099C125.658 227.92 124.176 229.401 122.355 229.401" fill="black"/><path id="Fill 25" fill-rule="evenodd" clip-rule="evenodd" d="M144.272 226.099C144.272 227.647 143.017 228.902 141.469 228.902C139.921 228.902 138.667 227.647 138.667 226.099C138.667 224.551 139.921 223.296 141.469 223.296C143.017 223.296 144.272 224.551 144.272 226.099" fill="#EFF2F7"/><path id="Fill 27" fill-rule="evenodd" clip-rule="evenodd" d="M141.469 223.796C140.199 223.796 139.166 224.829 139.166 226.099C139.166 227.368 140.199 228.401 141.469 228.401C142.739 228.401 143.772 227.368 143.772 226.099C143.772 224.829 142.739 223.796 141.469 223.796M141.469 229.401C139.648 229.401 138.166 227.92 138.166 226.099C138.166 224.277 139.648 222.796 141.469 222.796C143.29 222.796 144.772 224.277 144.772 226.099C144.772 227.92 143.29 229.401 141.469 229.401" fill="black"/><path id="Fill 29" fill-rule="evenodd" clip-rule="evenodd" d="M130.826 237.977C130.55 237.977 130.326 237.753 130.326 237.477V218.535H88.8726C88.5966 218.535 88.3726 218.311 88.3726 218.035C88.3726 217.759 88.5966 217.535 88.8726 217.535H130.826C131.102 217.535 131.326 217.759 131.326 218.035V237.477C131.326 237.753 131.102 237.977 130.826 237.977" fill="black"/><path id="Fill 31" fill-rule="evenodd" clip-rule="evenodd" d="M130.826 218.535C130.784 218.535 130.743 218.53 130.701 218.519C130.433 218.45 130.272 218.178 130.341 217.91L137.701 189.371C137.771 189.104 138.044 188.944 138.311 189.012C138.578 189.081 138.739 189.354 138.67 189.621L131.31 218.16C131.251 218.386 131.049 218.535 130.826 218.535" fill="black"/><path id="Pants" fill-rule="evenodd" clip-rule="evenodd" d="M158.434 140.775L202.488 140.292H205.425C227.952 140.292 245.35 120.498 242.46 98.157L236.753 69.5H157.79L156.582 89.795L120.367 97.799C104.884 101.222 94.3066 115.551 95.5986 131.356L98.5186 167.077L85.0386 211.518L136.667 216.007L138.605 209.947H147.217L143.626 195.805L158.434 140.775Z" fill="#409B81"/><g id="Group 37"><path id="Fill 35" fill-rule="evenodd" clip-rule="evenodd" d="M85.6962 211.073L136.312 215.474L138.129 209.794C138.195 209.587 138.388 209.447 138.605 209.447H146.574L143.141 195.928C143.12 195.845 143.121 195.758 143.143 195.675L157.951 140.645C158.009 140.428 158.204 140.277 158.428 140.275L202.482 139.791H205.425C216.018 139.791 226.104 135.228 233.098 127.272C240.091 119.315 243.323 108.727 241.963 98.2214L236.313 70.0004H158.261L157.081 89.8244C157.067 90.0484 156.908 90.2354 156.689 90.2834L120.475 98.2874C105.312 101.639 94.8322 115.838 96.0972 131.315L99.0172 167.036C99.0222 167.099 99.0152 167.162 98.9972 167.222L85.6962 211.073ZM136.623 216.505L84.9952 212.016C84.8452 212.003 84.7092 211.923 84.6242 211.798C84.5402 211.673 84.5162 211.517 84.5602 211.373L98.0122 167.023L95.1002 131.396C93.7952 115.423 104.611 100.77 120.259 97.3114L156.105 89.3884L157.29 69.4704C157.306 69.2064 157.525 69.0004 157.79 69.0004H236.752C237.004 69.0004 237.216 69.1864 237.248 69.4364L242.956 98.0934C244.351 108.884 241.032 119.76 233.849 127.932C226.665 136.104 216.306 140.791 205.425 140.791H202.487L158.818 141.27L144.142 195.809L147.702 209.823C147.739 209.973 147.706 210.132 147.611 210.254C147.517 210.375 147.371 210.447 147.217 210.447H138.97L137.143 216.159C137.077 216.368 136.883 216.507 136.667 216.507C136.653 216.507 136.638 216.507 136.623 216.505Z" fill="black"/></g><path id="Fill 38" fill-rule="evenodd" clip-rule="evenodd" d="M98.5181 167.577C98.4641 167.577 98.4081 167.568 98.3531 167.549C98.0931 167.458 97.9551 167.173 98.0461 166.912L113.668 122.065C116.875 112.86 124.462 106.066 133.965 103.891L187.676 91.5983C187.942 91.5353 188.214 91.7043 188.275 91.9743C188.337 92.2443 188.169 92.5123 187.899 92.5733L134.187 104.866C125.023 106.963 117.705 113.516 114.613 122.394L98.9901 167.242C98.9181 167.448 98.7251 167.577 98.5181 167.577" fill="black"/><path id="Fill 40" fill-rule="evenodd" clip-rule="evenodd" d="M149.207 91.9248C148.979 91.9248 148.773 91.7678 148.72 91.5368C148.658 91.2678 148.826 90.9998 149.096 90.9378L159.191 88.6158C159.462 88.5548 159.729 88.7218 159.79 88.9908C159.853 89.2598 159.685 89.5288 159.415 89.5908L149.32 91.9118C149.282 91.9208 149.244 91.9248 149.207 91.9248" fill="black"/><path id="Fill 42" fill-rule="evenodd" clip-rule="evenodd" d="M136.667 216.508C136.617 216.508 136.565 216.501 136.515 216.484C136.251 216.4 136.106 216.119 136.191 215.856L145.795 185.821C145.879 185.558 146.159 185.411 146.424 185.497C146.687 185.581 146.832 185.862 146.748 186.126L137.143 216.16C137.075 216.373 136.879 216.508 136.667 216.508" fill="black"/><path id="Fill 44" fill-rule="evenodd" clip-rule="evenodd" d="M156.105 149.927C156.062 149.927 156.019 149.922 155.975 149.91C155.709 149.839 155.55 149.565 155.622 149.298L160.757 130.11C160.829 129.844 161.104 129.686 161.37 129.756C161.636 129.827 161.794 130.101 161.723 130.368L156.587 149.556C156.528 149.78 156.326 149.927 156.105 149.927" fill="black"/><path id="Fill 46" fill-rule="evenodd" clip-rule="evenodd" d="M56.6875 236.954L56.4995 237.476H76.0655C76.3855 236.076 76.5995 234.569 76.5995 233.001C76.5995 226.153 74.8825 223.647 74.8825 223.647L71.8565 224.18C64.8745 225.407 59.0845 230.282 56.6875 236.954" fill="#EFF2F7"/><path id="Fill 48" fill-rule="evenodd" clip-rule="evenodd" d="M57.2119 236.976H75.6639C75.9529 235.601 76.0999 234.266 76.0999 233.001C76.0999 227.648 75.0239 225.005 74.6199 224.201L71.9439 224.672C65.2059 225.856 59.5749 230.564 57.2119 236.976V236.976ZM76.0659 237.976H56.4999C56.3369 237.976 56.1849 237.897 56.0909 237.764C55.9979 237.631 55.9749 237.46 56.0299 237.308L56.2179 236.785C58.6689 229.961 64.6289 224.942 71.7709 223.687L74.7959 223.155C74.9899 223.122 75.1839 223.204 75.2949 223.365C75.3689 223.472 77.0999 226.078 77.0999 233.001C77.0999 234.459 76.9159 236.002 76.5529 237.588C76.5009 237.815 76.2989 237.976 76.0659 237.976V237.976Z" fill="black"/><path id="Fill 50" fill-rule="evenodd" clip-rule="evenodd" d="M137.868 212.752C137.853 212.752 137.837 212.752 137.822 212.75L86.2194 207.972C85.9444 207.946 85.7414 207.703 85.7674 207.428C85.7924 207.153 86.0344 206.946 86.3114 206.976L137.913 211.754C138.189 211.78 138.391 212.023 138.366 212.298C138.341 212.557 138.123 212.752 137.868 212.752" fill="black"/><path id="Fill 52" fill-rule="evenodd" clip-rule="evenodd" d="M146.242 207.38H139.833C139.557 207.38 139.333 207.156 139.333 206.88C139.333 206.604 139.557 206.38 139.833 206.38H146.242C146.518 206.38 146.742 206.604 146.742 206.88C146.742 207.156 146.518 207.38 146.242 207.38" fill="black"/><path id="Fill 54" fill-rule="evenodd" clip-rule="evenodd" d="M58.641 233.001C57.856 234.23 57.192 235.549 56.687 236.954L56.5 237.477H149.539V233.001H58.641Z" fill="#EFF2F7"/><path id="Fill 56" fill-rule="evenodd" clip-rule="evenodd" d="M57.2114 236.977H149.039V233.501H58.9174C58.2234 234.62 57.6504 235.787 57.2114 236.977M149.539 237.977H56.5004C56.3374 237.977 56.1844 237.898 56.0914 237.765C55.9974 237.632 55.9744 237.461 56.0294 237.308L56.2164 236.786C56.7174 235.392 57.3914 234.028 58.2194 232.732C58.3114 232.588 58.4704 232.501 58.6414 232.501H149.539C149.815 232.501 150.039 232.725 150.039 233.001V237.477C150.039 237.753 149.815 237.977 149.539 237.977" fill="black"/><path id="Fill 58" fill-rule="evenodd" clip-rule="evenodd" d="M86.2656 220.052L90.0376 222.933Z" fill="#EFF2F7"/><path id="Fill 60" fill-rule="evenodd" clip-rule="evenodd" d="M90.0371 223.433C89.9311 223.433 89.8241 223.4 89.7341 223.33L85.9621 220.45C85.7421 220.282 85.7001 219.968 85.8681 219.748C86.0361 219.53 86.3501 219.487 86.5691 219.655L90.3411 222.536C90.5601 222.703 90.6021 223.017 90.4351 223.237C90.3361 223.365 90.1871 223.433 90.0371 223.433" fill="black"/><path id="Fill 62" fill-rule="evenodd" clip-rule="evenodd" d="M82.1167 222.207L85.8887 225.088Z" fill="#EFF2F7"/><path id="Fill 64" fill-rule="evenodd" clip-rule="evenodd" d="M85.8884 225.588C85.7824 225.588 85.6754 225.555 85.5854 225.485L81.8134 222.605C81.5944 222.437 81.5524 222.123 81.7194 221.903C81.8874 221.684 82.2004 221.641 82.4204 221.81L86.1924 224.691C86.4114 224.859 86.4534 225.172 86.2864 225.392C86.1874 225.52 86.0384 225.588 85.8884 225.588" fill="black"/></g></g></g><g id="Head" transform="translate(193 182) scale(1 1)"><g id="Head/Calm"><path id="Path 2" fill-rule="evenodd" clip-rule="evenodd" d="M12.5 43.7363C12.5 43.7363 16.0343 41.1592 15.4058 30.5163C15.4058 30.5163 20.9953 33.4358 27.0934 28.4994L28.5 43.6134C28.5 43.6134 24.2721 48.9732 19.8389 48.4534C15.4058 47.9337 12.5 43.7363 12.5 43.7363Z" fill="#fbefe3"/><path id="Path 2 Copy" fill-rule="evenodd" clip-rule="evenodd" d="M15.6185 29.1575C19.1685 31.0897 22.873 30.4235 26.799 27.1117C27.1106 26.8489 27.5511 27.076 27.5907 27.5201L28.9973 43.2699C29.0117 43.4301 28.9677 43.5899 28.876 43.711C25.9592 47.5642 22.9235 49.332 19.7865 48.9487C16.6923 48.5707 14.1229 46.8497 12.1037 43.8105C11.9264 43.5435 11.9825 43.1583 12.2257 42.9735C14.3851 41.3327 15.3152 36.9233 14.9069 29.7193C14.882 29.2794 15.274 28.9699 15.6185 29.1575ZM27.8541 43.348L26.5503 29L26.2853 29.199C22.7217 31.8029 19.2465 32.4147 15.9004 31.0061L15.7525 30.9417L15.7761 31.5369C15.9754 37.6673 15.094 41.732 13.0614 43.7146L13 43.7713L13.1374 43.9575C14.8463 46.2141 16.9214 47.5258 19.3801 47.9095L19.7177 47.956C22.5083 48.2909 25.2631 46.7152 28 43.1638L27.8541 43.348Z" fill="black"/><g id="Calm"><path id="Skin" fill-rule="evenodd" clip-rule="evenodd" d="M19.7106 31.402C12.9646 31.402 7.49561 25.603 7.49561 18.449C7.49561 11.295 12.9646 5.495 19.7106 5.495C26.4566 5.495 31.9246 11.295 31.9246 18.449C31.9246 25.603 26.4566 31.402 19.7106 31.402Z" fill="#fbefe3"/><path id="Fill 193" fill-rule="evenodd" clip-rule="evenodd" d="M19.71 5.991C13.248 5.991 7.991 11.579 7.991 18.449C7.991 25.318 13.248 30.907 19.71 30.907C26.172 30.907 31.429 25.318 31.429 18.449C31.429 11.579 26.172 5.991 19.71 5.991M19.71 31.898C12.702 31.898 7 25.865 7 18.449C7 11.033 12.702 5 19.71 5C26.718 5 32.42 11.033 32.42 18.449C32.42 25.865 26.718 31.898 19.71 31.898" fill="black"/><path id="Fill 199" fill-rule="evenodd" clip-rule="evenodd" d="M16.2881 22.6058C16.2681 22.6058 16.2481 22.6048 16.2271 22.6028L14.1851 22.3548C14.0421 22.3368 13.9131 22.2588 13.8321 22.1388C13.7511 22.0198 13.7251 21.8708 13.7621 21.7308L14.3811 19.3788C14.4511 19.1128 14.7241 18.9538 14.9921 19.0228C15.2581 19.0938 15.4181 19.3668 15.3481 19.6338L14.8751 21.4308L16.3481 21.6088C16.6221 21.6428 16.8171 21.8918 16.7841 22.1658C16.7531 22.4198 16.5381 22.6058 16.2881 22.6058" fill="black"/><path id="Fill 201" fill-rule="evenodd" clip-rule="evenodd" d="M19.7099 18.1663C19.7099 18.7693 19.4029 19.2573 19.0239 19.2573C18.6449 19.2573 18.3369 18.7693 18.3369 18.1663C18.3369 17.5633 18.6449 17.0753 19.0239 17.0753C19.4029 17.0753 19.7099 17.5633 19.7099 18.1663" fill="black"/><path id="Fill 203" fill-rule="evenodd" clip-rule="evenodd" d="M13.0498 18.1663C13.0498 18.7693 12.7428 19.2573 12.3628 19.2573C11.9848 19.2573 11.6768 18.7693 11.6768 18.1663C11.6768 17.5633 11.9848 17.0753 12.3628 17.0753C12.7428 17.0753 13.0498 17.5633 13.0498 18.1663" fill="black"/><path id="Fill 205" fill-rule="evenodd" clip-rule="evenodd" d="M20.735 15.7357C20.619 15.7357 20.504 15.6957 20.409 15.6147C19.45 14.7907 18.361 14.7997 18.347 14.8007H18.34C18.068 14.8007 17.844 14.5827 17.839 14.3097C17.834 14.0347 18.05 13.8077 18.325 13.8007C18.386 13.8007 19.806 13.7787 21.061 14.8567C21.27 15.0367 21.294 15.3517 21.114 15.5617C21.015 15.6767 20.876 15.7357 20.735 15.7357" fill="black"/><path id="Fill 207" fill-rule="evenodd" clip-rule="evenodd" d="M10.6526 15.7357C10.5116 15.7357 10.3726 15.6767 10.2736 15.5617C10.0936 15.3517 10.1176 15.0357 10.3266 14.8567C11.5826 13.7787 13.0056 13.8017 13.0626 13.8007C13.3386 13.8077 13.5566 14.0367 13.5496 14.3127C13.5436 14.5877 13.3556 14.8097 13.0406 14.8007C13.0076 14.8047 11.9296 14.7987 10.9786 15.6147C10.8836 15.6957 10.7686 15.7357 10.6526 15.7357" fill="black"/><path id="Fill 209" fill-rule="evenodd" clip-rule="evenodd" d="M17.8506 25.2132C17.7996 25.2132 17.7516 25.2112 17.7066 25.2082C17.4316 25.1872 17.2256 24.9462 17.2466 24.6712C17.2676 24.3972 17.5096 24.1962 17.7806 24.2112C17.9356 24.2182 18.7256 24.2282 18.8506 23.4472C18.8936 23.1742 19.1506 22.9892 19.4236 23.0332C19.6966 23.0772 19.8816 23.3332 19.8376 23.6062C19.6316 24.8882 18.5196 25.2132 17.8506 25.2132" fill="black"/></g></g></g><g id="Upper Body" transform="translate(58 111) scale(1 1)"><g id="Upper Body/Saying Hi"><g id="Saying Hi"><path id="Skin" fill-rule="evenodd" clip-rule="evenodd" d="M245.16 230.291L239.593 220.55C235.637 213.629 232.909 206.058 231.731 198.176C227.926 172.724 219.883 149.148 211.275 135.864C208.197 131.112 204.807 127.142 201.435 123.853C193.285 115.903 179.576 121.046 178.74 132.4C178.398 137.038 180.542 141.45 184.27 144.231C203.378 158.493 211.55 203.694 212.128 209.733C212.765 216.384 205.963 215.693 204.851 229.514C203.615 244.863 210.279 246.01 213.037 244.473C215.796 242.934 214.136 230.531 214.136 230.531C220.07 238.616 216.111 251.049 220.45 254.792C224.483 258.27 228.265 254.714 228.265 254.714C234.857 256.775 237.551 251.455 237.551 251.455C245.125 250.345 244.3 243.104 244.3 243.104C248.859 238.06 245.16 230.291 245.16 230.291M96.115 154.012C96.115 154.012 90.3629 118.922 95.8626 115.635C101.362 112.349 105.41 105.037 108.178 99.9628C110.946 94.8881 108.636 91.4041 103.802 91.3236C98.9684 91.2422 96.296 102.319 96.296 102.319C96.2407 100.063 96.3744 98.714 98.7704 91.3307C101.166 83.9483 99.6933 77.5695 95.0432 76.9601C90.3931 76.3508 89.9215 82.055 89.9215 82.055C89.9215 82.055 88.1349 74.4494 82.8624 75.6801C77.0117 77.0476 78.8738 84.4219 78.8738 84.4219C78.8738 84.4219 75.8253 79.2326 71.2838 82.6241C67.0258 85.8055 73.9271 99.6361 73.9271 99.6361C73.9271 99.6361 68.6807 89.6676 64.6881 93.0038C60.1335 96.8106 70.5749 106.469 73.9864 120.118C74.9023 123.778 73.1881 154.128 72.8251 160.362C72.8181 160.452 72.814 160.548 72.809 160.639C72.7758 161.186 72.7577 161.497 72.7577 161.497L72.7608 161.496C72.2027 172.434 74.0286 188.962 89.9215 190.246C113.825 192.177 122.268 145.853 122.268 145.853L108.978 123.036C108.978 123.036 96.9827 131.773 96.115 154.012" fill="#fbefe3"/><path id="Fill 3" fill-rule="evenodd" clip-rule="evenodd" d="M236.997 227.987C241.059 235.574 243.009 239.577 243.801 243.182C243.844 243.582 244.337 249.582 238.016 250.845C238.763 247.612 238.221 241.443 232.955 229.719C232.842 229.465 232.545 229.35 232.29 229.467C232.038 229.58 231.924 229.878 232.038 230.131C238.176 243.798 237.614 249.446 236.731 251.596C236.63 251.844 236.521 252.045 236.412 252.224C236.147 252.544 235.803 252.898 235.37 253.243C235.334 253.266 235.298 253.288 235.269 253.319C233.961 254.321 231.901 255.137 228.936 254.369C229.482 252.62 230.443 246.668 225.793 231.818C225.71 231.553 225.429 231.404 225.163 231.488C224.898 231.571 224.75 231.854 224.834 232.118C229.977 248.541 228.108 253.811 227.852 254.409C227.344 254.853 224.189 257.354 220.778 254.411C218.92 252.809 218.703 249.289 218.451 245.213C218.149 240.307 217.804 234.753 214.6 230.322C214.604 227.819 215.382 226.737 215.404 226.708C215.574 226.49 215.537 226.176 215.32 226.004C215.103 225.83 214.786 225.868 214.615 226.084C214.542 226.175 212.877 228.346 213.951 233.656C213.952 233.663 213.956 233.667 213.957 233.673C214.305 238.087 214.227 243.233 212.792 244.033C211.888 244.537 210.297 244.78 208.792 243.814C207.162 242.766 204.549 239.522 205.35 229.554C205.964 221.93 208.306 218.855 210.189 216.384C211.657 214.457 212.925 212.793 212.628 209.685C212.021 203.342 203.628 158.052 184.57 143.829C180.908 141.095 178.916 136.836 179.24 132.437C179.611 127.398 182.773 123.157 187.491 121.37C192.235 119.572 197.443 120.661 201.082 124.213C204.769 127.808 208.056 131.82 210.853 136.137C219.748 149.866 227.557 173.666 231.233 198.25C232.4 206.055 235.065 213.64 239.155 220.799L244.705 230.507C244.738 230.578 247.836 237.247 244.538 241.98C243.601 238.507 241.633 234.514 237.883 227.511C237.752 227.267 237.448 227.172 237.203 227.306C236.957 227.437 236.866 227.741 236.997 227.987V227.987ZM245.595 230.042L240.028 220.3C236 213.251 233.375 205.781 232.228 198.1C228.533 173.383 220.665 149.431 211.697 135.591C208.859 131.212 205.524 127.141 201.785 123.494C197.862 119.666 192.248 118.492 187.135 120.429C182.047 122.356 178.638 126.929 178.238 132.362C177.888 137.107 180.031 141.695 183.969 144.634C202.736 158.642 211.025 203.497 211.627 209.781C211.887 212.496 210.839 213.871 209.389 215.774C207.53 218.213 204.985 221.555 204.348 229.474C203.547 239.438 206.027 243.232 208.248 244.66C210.128 245.868 212.134 245.552 213.281 244.911C215.581 243.63 215.235 236.461 214.88 232.679C216.911 236.558 217.194 241.152 217.448 245.274C217.713 249.578 217.943 253.294 220.12 255.173C221.546 256.403 222.95 256.816 224.192 256.816C226.21 256.816 227.804 255.726 228.378 255.274C231.848 256.275 234.283 255.302 235.837 254.118C236.018 254.048 236.697 253.721 237.302 252.699C237.563 252.377 237.751 252.097 237.863 251.914C244.801 250.758 244.875 244.564 244.814 243.28C249.327 238.05 245.768 230.401 245.595 230.042V230.042ZM88.3048 100.311C83.7934 97.8876 78.8828 102.532 78.6757 102.732C78.4606 102.939 78.4535 103.282 78.6606 103.497C78.7672 103.609 78.909 103.664 79.0518 103.664C79.1865 103.664 79.3212 103.615 79.4268 103.513C79.472 103.471 83.9774 99.2259 87.793 101.266C88.0564 101.408 88.3852 101.308 88.527 101.045C88.6677 100.78 88.5692 100.453 88.3048 100.311V100.311ZM91.3482 189.762C90.8938 189.762 90.4303 189.744 89.9648 189.706C81.7403 189.043 72.1726 183.613 73.3007 161.523C73.3017 161.507 73.3017 161.489 73.3007 161.473L73.364 160.393C73.8647 151.838 75.4242 123.638 74.5122 119.986C73.0001 113.939 70.1064 108.634 67.7808 104.373C64.8993 99.0902 62.817 95.2733 65.035 93.4202C65.6101 92.9386 66.2254 92.7717 66.9182 92.9084C70.0642 93.5298 73.4133 99.8242 73.4465 99.8886C73.4465 99.8896 73.4475 99.8896 73.4485 99.8906V99.8906L74.9476 102.688C75.0451 102.869 75.2321 102.973 75.4262 102.973C75.5126 102.973 75.6001 102.952 75.6815 102.908C75.945 102.767 76.0445 102.439 75.9027 102.175L74.4036 99.3788C74.4036 99.3788 74.4036 99.3788 74.4036 99.3778C72.5365 95.6313 68.4163 85.4426 71.6075 83.0576C72.7688 82.1909 73.915 81.8621 75.021 82.0833C76.9564 82.4704 78.2173 84.3949 78.3751 84.6473C78.6546 85.6176 81.7524 96.3754 82.049 97.9661C82.0972 98.2275 82.3255 98.4095 82.5808 98.4095C82.614 98.4095 82.6472 98.4065 82.6814 98.4004C82.976 98.3451 83.169 98.0616 83.1147 97.768C82.796 96.0616 79.5464 84.7991 79.3956 84.2762C79.3584 84.1244 78.539 80.6514 79.9918 78.2654C80.6313 77.2147 81.6377 76.5229 82.985 76.2082C87.5507 75.1433 89.2368 81.5443 89.3816 82.1295C89.4077 83.0415 89.7526 94.7475 89.6581 97.1938C89.646 97.4925 89.8793 97.7448 90.1789 97.7549C90.1859 97.7559 90.193 97.7559 90.2 97.7559C90.4896 97.7559 90.7299 97.5277 90.7409 97.2351C90.8395 94.7012 90.4886 82.9007 90.4634 82.0752C90.4886 81.8329 90.7781 79.3785 92.2994 78.1528C93.0122 77.5786 93.9141 77.3605 94.9718 77.4972C96.308 77.6732 97.3718 78.374 98.1349 79.5816C99.7386 82.1225 99.7828 86.4511 98.2536 91.1639C96.0326 98.0073 95.7269 99.7397 95.747 101.897C94.6702 102.212 91.9786 103.34 90.3287 106.987C90.2051 107.26 90.3267 107.581 90.5992 107.704C90.6716 107.736 90.747 107.753 90.8214 107.753C91.0285 107.753 91.2256 107.634 91.3161 107.433C93.1168 103.453 96.2457 102.877 96.3834 102.854C96.3925 102.852 96.4005 102.846 96.4096 102.844C96.4508 102.835 96.488 102.818 96.5262 102.799C96.5493 102.787 96.5735 102.781 96.5946 102.767C96.6348 102.74 96.668 102.705 96.7002 102.668C96.7122 102.655 96.7273 102.645 96.7374 102.63C96.7736 102.579 96.7997 102.522 96.8168 102.459C96.8178 102.454 96.8208 102.451 96.8218 102.447C97.5357 99.4934 100.165 91.8647 103.749 91.8647C103.763 91.8647 103.777 91.8657 103.792 91.8657C105.949 91.9009 107.559 92.646 108.326 93.9632C109.161 95.396 108.938 97.4341 107.702 99.7035C105.05 104.563 101.044 111.908 95.5841 115.17C90.2945 118.332 94.3786 146.482 95.4132 153.06C95.4554 153.627 96.0929 162.399 96.0929 167.836C96.0929 168.135 96.3352 168.378 96.6348 168.378C96.9344 168.378 97.1767 168.135 97.1767 167.836C97.1767 163.485 96.7726 157.03 96.5845 154.269C96.6237 154.196 96.6529 154.119 96.6559 154.032C97.0973 142.696 100.511 134.992 103.296 130.524C105.603 126.825 107.873 124.673 108.826 123.856L121.697 145.95C121.074 149.139 112.692 189.762 91.3482 189.762V189.762ZM109.444 122.764C109.368 122.631 109.237 122.537 109.087 122.506C108.938 122.475 108.781 122.509 108.657 122.598C108.531 122.689 105.537 124.901 102.411 129.897C99.9507 133.826 97.0169 140.194 95.9431 149.241C94.3444 137.774 92.4623 118.299 96.1401 116.101C101.853 112.686 105.945 105.186 108.653 100.222C110.079 97.6081 110.296 95.1919 109.263 93.4172C108.298 91.7611 106.361 90.824 103.811 90.7818H103.748C101.053 90.7818 99.0277 93.7611 97.6925 96.676C98.0555 95.3729 98.5673 93.7088 99.2851 91.4977C100.912 86.4833 100.824 81.8118 99.0509 79.0034C98.1208 77.5304 96.7595 76.6385 95.1126 76.4233C93.7472 76.2454 92.5688 76.543 91.6157 77.3122C90.6967 78.0542 90.1498 79.109 89.828 80.031C88.71 77.3383 86.4015 74.2927 82.7387 75.1534C81.0978 75.5365 79.8621 76.3932 79.0668 77.7013C78.1077 79.2759 77.985 81.1854 78.0695 82.589C77.3777 81.9304 76.4215 81.2598 75.2412 81.0215C73.8215 80.7369 72.3807 81.128 70.959 82.1898C68.1076 84.3195 69.5846 90.2871 71.2285 94.7344C70.025 93.3549 68.5902 92.1352 67.1293 91.8456C66.1088 91.6425 65.1707 91.8929 64.3392 92.5887C61.4396 95.0119 63.7008 99.1556 66.8287 104.891C69.1251 109.1 71.9815 114.337 73.4605 120.25C74.1573 123.035 73.2605 143.582 72.2832 160.327L72.2158 161.465C72.2148 161.485 72.2148 161.505 72.2158 161.525C71.694 171.907 73.3087 189.449 89.8773 190.786C90.3649 190.825 90.8485 190.846 91.3311 190.846C100.758 190.846 109.107 183.328 115.552 168.996C120.618 157.727 122.779 146.067 122.8 145.95C122.823 145.824 122.8 145.692 122.736 145.58L109.444 122.764Z" fill="black"/><path id="Tshirt" fill-rule="evenodd" clip-rule="evenodd" d="M193.595 152.824V148.064L201.821 123.036C192.088 116.307 180.413 112.558 168.249 112.558H163.525C163.524 112.561 163.522 112.563 163.521 112.566L163.48 112.558C162.214 115.225 159.078 117.117 155.399 117.125C151.72 117.117 148.584 115.225 147.318 112.558L147.277 112.566C147.276 112.563 147.274 112.561 147.273 112.558H142.549C130.385 112.558 118.71 116.307 108.977 123.036L117.203 148.064V152.824C117.203 161.694 115.88 170.514 113.277 178.993L111.049 186.252H199.749L197.521 178.993C194.918 170.514 193.595 161.694 193.595 152.824" fill="#FCBD21"/><path id="Fill 8" fill-rule="evenodd" clip-rule="evenodd" d="M111.729 185.749H199.069L197.04 179.141C194.421 170.604 193.092 161.75 193.092 152.824V148.064C193.092 148.011 193.101 147.957 193.117 147.906L201.226 123.237C191.465 116.579 180.071 113.061 168.249 113.061H163.791C162.318 115.838 159.064 117.62 155.4 117.628C151.734 117.62 148.481 115.838 147.008 113.061H142.549C130.728 113.061 119.332 116.579 109.572 123.237L117.68 147.906C117.697 147.957 117.706 148.011 117.706 148.064V152.824C117.706 161.752 116.377 170.605 113.758 179.141L111.729 185.749ZM199.749 186.754H111.049C110.89 186.754 110.74 186.679 110.644 186.55C110.55 186.423 110.522 186.257 110.568 186.105L112.797 178.846C115.387 170.406 116.7 161.651 116.7 152.824V148.144L108.5 123.193C108.43 122.981 108.508 122.75 108.692 122.623C118.689 115.709 130.396 112.055 142.549 112.055H147.272C147.33 112.055 147.384 112.065 147.436 112.082C147.58 112.12 147.71 112.211 147.772 112.342C149.003 114.935 151.997 116.615 155.4 116.622C158.802 116.615 161.796 114.935 163.026 112.342C163.114 112.159 163.303 112.066 163.5 112.055H163.526H168.249C180.401 112.055 192.11 115.709 202.107 122.623C202.291 122.75 202.368 122.981 202.299 123.193L194.097 148.144V152.824C194.097 161.65 195.411 170.405 198.002 178.846L200.23 186.105C200.277 186.257 200.249 186.423 200.153 186.55C200.059 186.679 199.909 186.754 199.749 186.754V186.754Z" fill="black"/></g></g></g><g id="Accesories" transform="translate(193 182) scale(39 49)"><g id="Accesories/No Accesory" stroke="none" stroke-width="1" fill="none" fill-rule="evenodd" fill-opacity="0"/></g><g id="Hair" transform="translate(143 149) scale(1 1)"><g id="Hair/Short Hat"><g id="Short hat"><g id="hair"><path id="Hair" fill-rule="evenodd" clip-rule="evenodd" d="M76.7664 56.8416C76.8414 56.8486 76.9144 56.8646 76.9924 56.8646C78.2824 56.8646 79.3284 55.8186 79.3284 54.5286C79.3284 53.2386 78.2824 52.1936 76.9924 52.1936C76.8444 52.1936 76.7004 52.2106 76.5584 52.2376L75.4824 42.8106C75.4824 42.8106 81.0394 39.6096 83.3954 46.3146C85.7504 53.0186 84.4374 61.9946 77.0234 62.5696L76.7664 56.8416Z" fill="#fecb51"/><path id="Fill 3" fill-rule="evenodd" clip-rule="evenodd" d="M77.2897 57.349L77.4987 62.016C79.5617 61.73 81.1767 60.712 82.3037 58.983C84.2517 55.995 84.5007 50.971 82.9237 46.48C82.2397 44.534 81.2177 43.295 79.8847 42.798C78.3077 42.21 76.6667 42.809 76.0187 43.102L76.9997 51.693C78.5597 51.697 79.8277 52.968 79.8277 54.529C79.8277 55.992 78.7137 57.2 77.2897 57.349M77.0237 63.069C76.9017 63.069 76.7837 63.025 76.6927 62.944C76.5907 62.854 76.5297 62.727 76.5237 62.592L76.2667 56.864C76.2607 56.719 76.3167 56.579 76.4217 56.479C76.5277 56.38 76.6717 56.33 76.8147 56.344C76.8207 56.345 76.9047 56.355 76.9117 56.356H76.9287C78.0137 56.356 78.8277 55.536 78.8277 54.529C78.8277 53.517 78.0047 52.693 76.9927 52.693C76.8747 52.693 76.7617 52.708 76.6507 52.729C76.5167 52.754 76.3737 52.723 76.2617 52.64C76.1497 52.557 76.0777 52.432 76.0617 52.294L74.9857 42.868C74.9627 42.67 75.0607 42.477 75.2327 42.378C75.3347 42.319 77.7667 40.946 80.2257 41.858C81.8527 42.461 83.0787 43.905 83.8667 46.149C85.5687 50.992 85.2837 56.244 83.1417 59.53C81.7637 61.643 79.6617 62.866 77.0617 63.068C77.0497 63.069 77.0367 63.069 77.0237 63.069" fill="black"/></g><g id="Hat"><path id="Hat_2" fill-rule="evenodd" clip-rule="evenodd" d="M82.3732 44.2314H60.2412L61.3912 39.3474C62.4752 34.7464 66.5812 31.4954 71.3072 31.4954V31.4954C76.0332 31.4954 80.1392 34.7464 81.2232 39.3474L82.3732 44.2314Z" fill="#409B81"/><path id="Fill 8" fill-rule="evenodd" clip-rule="evenodd" d="M60.8669 43.7358H81.7469L80.7409 39.4608C79.7049 35.0628 75.8259 31.9908 71.3069 31.9908C66.7889 31.9908 62.9089 35.0628 61.8739 39.4608L60.8669 43.7358ZM82.3729 44.7268H60.2409C60.0899 44.7268 59.9469 44.6578 59.8519 44.5388C59.7589 44.4208 59.7239 44.2648 59.7589 44.1178L60.9089 39.2338C62.0509 34.3858 66.3259 30.9998 71.3069 30.9998C76.2869 30.9998 80.5639 34.3858 81.7049 39.2338L82.8559 44.1178C82.8899 44.2648 82.8559 44.4208 82.7619 44.5388C82.6679 44.6578 82.5249 44.7268 82.3729 44.7268V44.7268Z" fill="black"/><path id="Fill 11" fill-rule="evenodd" clip-rule="evenodd" d="M55.1671 44.2313C45.9591 44.2313 38.4961 43.4413 38.4961 42.4673C38.4961 41.4943 45.9591 40.7043 55.1671 40.7043C64.3741 40.7043 70.2801 41.6033 71.8381 42.4673L74.7371 44.2313H55.1671Z" fill="#FF5613"/><path id="Fill 13" fill-rule="evenodd" clip-rule="evenodd" d="M39.216 42.4677C40.596 43.0447 46.333 43.7357 55.167 43.7357H72.969L71.581 42.8907C70.074 42.0557 63.942 41.1997 55.167 41.1997C46.333 41.1997 40.596 41.8907 39.216 42.4677M74.737 44.7267H55.167C51.14 44.7267 38 44.5637 38 42.4677C38 40.3717 51.14 40.2087 55.167 40.2087C64.577 40.2087 70.442 41.1257 72.079 42.0347L74.995 43.8077C75.185 43.9237 75.275 44.1517 75.215 44.3647C75.154 44.5787 74.96 44.7267 74.737 44.7267" fill="black"/></g></g></g></g><g id="Facial Hair" transform="translate(193 182) scale(39 49)"><g id="Facial Hair/No Facial Hair" stroke="none" stroke-width="1" fill="none" fill-rule="evenodd" fill-opacity="0"/></g></g></g><g id="Object" transform="translate(554 220) scale(1 1)"><g id="Object/High Table"><g id="High Table"><path id="Table" fill-rule="evenodd" clip-rule="evenodd" d="M179.081 215.554H106.96C103.393 215.554 100.5 212.661 100.5 209.094C100.5 205.526 103.393 202.633 106.96 202.633H179.081C182.649 202.633 185.542 205.526 185.542 209.094C185.542 212.661 182.649 215.554 179.081 215.554ZM114.057 367.416H119.241V215.554H114.057V367.416ZM171.983 367.416H166.799V215.554H171.983V367.416Z" fill="#D96E05"/><path id="Lapm" fill-rule="evenodd" clip-rule="evenodd" d="M160.865 184.136C160.865 174.15 152.864 166.032 142.924 165.844C132.668 165.649 124.274 174.291 124.274 184.548V197.958C124.274 200.383 126.24 202.349 128.665 202.349H156.474C158.899 202.349 160.865 200.383 160.865 197.958V184.136Z" fill="#4B69FD"/><path id="Fill 7" fill-rule="evenodd" clip-rule="evenodd" d="M142.583 166.34C138.008 166.34 133.659 168.141 130.306 171.432C126.79 174.881 124.774 179.661 124.774 184.547V197.957C124.774 200.103 126.52 201.848 128.665 201.848H156.475C158.62 201.848 160.365 200.103 160.365 197.957V184.135C160.365 174.507 152.537 166.526 142.914 166.343C142.804 166.341 142.693 166.34 142.583 166.34M156.475 202.848H128.665C125.969 202.848 123.774 200.654 123.774 197.957V184.547C123.774 179.394 125.899 174.354 129.604 170.718C133.233 167.157 137.995 165.252 142.934 165.343C153.097 165.536 161.365 173.966 161.365 184.135V197.957C161.365 200.654 159.171 202.848 156.475 202.848" fill="black"/><path id="Fill 9" fill-rule="evenodd" clip-rule="evenodd" d="M166.163 168.228H119.878C118.588 168.228 117.66 166.986 118.026 165.749L126.884 135.79C127.126 134.969 127.88 134.406 128.736 134.406H157.306C158.161 134.406 158.915 134.969 159.157 135.79L168.016 165.749C168.382 166.986 167.454 168.228 166.163 168.228" fill="#009E80"/><path id="Combined Shape" fill-rule="evenodd" clip-rule="evenodd" d="M127.272 135.904C127.463 135.261 128.064 134.811 128.736 134.811H157.305C157.976 134.811 158.578 135.261 158.768 135.904L167.627 165.864C167.764 166.33 167.676 166.82 167.385 167.209C167.094 167.599 166.649 167.823 166.163 167.823H119.878C119.392 167.823 118.946 167.599 118.656 167.21C118.365 166.82 118.277 166.33 118.415 165.863L127.272 135.904ZM119.878 168.633H166.163C166.907 168.633 167.59 168.291 168.036 167.695C168.481 167.099 168.615 166.347 168.404 165.634L159.546 135.675C159.255 134.689 158.334 134 157.305 134H128.736C127.708 134 126.786 134.689 126.495 135.675L117.637 165.633C117.426 166.347 117.56 167.099 118.007 167.695C118.452 168.291 119.133 168.633 119.878 168.633ZM101 209.093C101 205.807 103.674 203.133 106.96 203.133H179.081C182.368 203.133 185.042 205.807 185.042 209.093C185.042 212.38 182.368 215.054 179.081 215.054H106.96C103.674 215.054 101 212.38 101 209.093ZM106.96 216.054H113.557V367.916H119.741V216.054H166.299V367.916H172.483V216.054H179.081C182.919 216.054 186.042 212.931 186.042 209.093C186.042 205.256 182.919 202.133 179.081 202.133H106.96C103.122 202.133 100 205.256 100 209.093C100 212.931 103.122 216.054 106.96 216.054ZM114.558 366.916H118.742V216.054H114.558V366.916ZM171.484 366.916H167.3V216.054H171.484V366.916Z" fill="black"/></g></g></g></g></svg>