<svg viewBox="22.53826530612244 25.462500000000006 239.92346938775512 247.35000000000005" fill="none" xmlns="http://www.w3.org/2000/svg" xmlns:xlink="http://www.w3.org/1999/xlink" overflow="visible" width="239.92346938775512px" height="247.35000000000005px"><g id="Master/Spot Illustrations/Shop Online"><g id="Backdrop" transform="translate(29 36) scale(218 191)"><g id="Backdrop/None" stroke="none" stroke-width="1" fill="none" fill-rule="evenodd" fill-opacity="0"/></g><g id="Decoration" transform="translate(20 106) scale(1 1)"><g id="Decoration/Circle 3"><path id="Fill 37" fill-rule="evenodd" clip-rule="evenodd" d="M8.05366 7.44123C10.5327 5.30123 14.2767 5.57623 16.4157 8.05423C18.5557 10.5322 18.2817 14.2762 15.8027 16.4162C13.3247 18.5552 9.58066 18.2812 7.44166 15.8022C5.30166 13.3252 5.57566 9.58123 8.05366 7.44123" fill="#974CCD"/></g></g><g id="Decoration" transform="translate(223 20) scale(1 1)"><g id="Decoration/Flower 2"><path id="Fill 7" fill-rule="evenodd" clip-rule="evenodd" d="M15.4708 12.1788C16.5438 11.0108 15.9518 9.91677 14.7848 9.34177C14.6018 9.37777 14.3858 9.42077 14.1798 9.46177C13.9748 9.36077 13.7808 9.26477 13.5928 9.17177C12.7618 7.36777 11.0178 7.84777 10.3488 9.25477C9.74683 9.54577 8.92383 9.24077 8.40883 9.87177C8.10283 10.2418 7.98483 10.6628 8.04383 11.1558C8.09883 11.6108 8.46883 11.9338 8.51383 12.3978C8.47383 12.6348 8.31083 12.8258 8.19683 13.0398C7.59083 14.1708 8.46883 15.5118 9.67583 15.3308C9.76183 15.3178 9.84883 15.3068 9.87483 15.3038C10.5338 15.4848 10.7558 16.0208 11.0768 16.4848C11.3358 16.5718 11.6168 16.6428 11.8298 16.8198C12.2718 16.6998 12.6768 16.5898 13.0558 16.4878C13.4148 16.1798 13.3658 15.6768 13.7178 15.3428C13.9888 15.3418 14.2928 15.3448 14.5978 15.3378C15.4228 15.3218 15.8498 14.9068 15.9108 14.0848C15.9468 13.6168 15.9718 13.1688 15.6418 12.7648C15.5278 12.6248 15.5288 12.3908 15.4708 12.1788" fill="#F28DFD"/></g></g><g id="Decoration" transform="translate(221 88) scale(1 1)"><g id="Decoration/Sparkle 3"><path id="Fill 23" fill-rule="evenodd" clip-rule="evenodd" d="M16.1782 12.1014C16.1942 12.4254 16.0732 12.5834 15.8932 12.7084C15.6382 12.8864 15.4022 13.1564 15.1192 13.2174C13.8272 13.4974 13.4242 14.5674 12.9122 15.5614C12.4252 16.5104 11.7522 16.5974 11.2902 15.6444C10.6742 14.3764 9.89618 13.4394 8.54518 12.8994C7.81118 12.6074 7.81818 11.6884 8.56718 11.3934C9.92418 10.8584 10.7162 9.94436 11.3052 8.64736C11.7192 7.73436 12.4742 7.81136 12.8912 8.72536C13.3782 9.79136 13.8702 10.7784 15.1502 11.1264C15.6162 11.2544 16.0712 11.6154 16.1782 12.1014" fill="#FFFAD9"/></g></g><g id="Window" transform="translate(26 29) scale(1 1)"><g id="Window/Star"><g id="Window 1"><path id="Fill 40" fill-rule="evenodd" clip-rule="evenodd" d="M64.74 56.646H16.412C15.08 56.646 14 55.566 14 54.234V18.412C14 17.08 15.08 16 16.412 16H64.74C66.072 16 67.152 17.08 67.152 18.412V54.234C67.152 55.566 66.072 56.646 64.74 56.646" fill="#FED21C"/><path id="Fill 41" fill-rule="evenodd" clip-rule="evenodd" d="M66.0785 25.9838H15.0605V19.5738C15.0605 18.2818 16.1075 17.2348 17.4005 17.2348H63.7395C65.0315 17.2348 66.0785 18.2818 66.0785 19.5738V25.9838Z" fill="#FFF1CE"/><path id="Fill 42" fill-rule="evenodd" clip-rule="evenodd" d="M19.089 53.6108C19.089 54.0488 18.734 54.4048 18.296 54.4048C17.858 54.4048 17.502 54.0488 17.502 53.6108C17.502 53.1738 17.858 52.8178 18.296 52.8178C18.734 52.8178 19.089 53.1738 19.089 53.6108" fill="#FFF1CE"/><path id="Fill 43" fill-rule="evenodd" clip-rule="evenodd" d="M21.753 53.6108C21.753 54.0488 21.398 54.4048 20.96 54.4048C20.522 54.4048 20.166 54.0488 20.166 53.6108C20.166 53.1738 20.522 52.8178 20.96 52.8178C21.398 52.8178 21.753 53.1738 21.753 53.6108" fill="#FFF1CE"/><path id="Fill 44" fill-rule="evenodd" clip-rule="evenodd" d="M24.419 53.6108C24.419 54.0488 24.064 54.4048 23.626 54.4048C23.188 54.4048 22.832 54.0488 22.832 53.6108C22.832 53.1738 23.188 52.8178 23.626 52.8178C24.064 52.8178 24.419 53.1738 24.419 53.6108" fill="#FFF1CE"/><path id="Fill 45" fill-rule="evenodd" clip-rule="evenodd" d="M23.255 21.851C23.255 23.44 21.967 24.727 20.379 24.727C18.79 24.727 17.502 23.44 17.502 21.851C17.502 20.262 18.79 18.975 20.379 18.975C21.967 18.975 23.255 20.262 23.255 21.851" fill="#FED21C"/><path id="Fill 46" fill-rule="evenodd" clip-rule="evenodd" d="M24.6309 20.0845H50.0499V18.9755H24.6309V20.0845Z" fill="#FED21C"/><path id="Fill 47" fill-rule="evenodd" clip-rule="evenodd" d="M24.6309 22.1475H39.4979V20.9285H24.6309V22.1475Z" fill="#FED21C"/><path id="Fill 48" fill-rule="evenodd" clip-rule="evenodd" d="M42.0324 29.7133L44.1594 34.0243C44.3964 34.5033 44.8534 34.8353 45.3834 34.9123L50.1404 35.6043C51.4734 35.7973 52.0054 37.4353 51.0404 38.3753L47.5984 41.7313C47.2154 42.1043 47.0404 42.6423 47.1314 43.1683L47.9444 47.9063C48.1714 49.2343 46.7784 50.2463 45.5864 49.6193L41.3314 47.3823C40.8584 47.1333 40.2924 47.1333 39.8194 47.3823L35.5644 49.6193C34.3724 50.2463 32.9794 49.2343 33.2064 47.9063L34.0194 43.1683C34.1104 42.6423 33.9354 42.1043 33.5524 41.7313L30.1094 38.3753C29.1454 37.4353 29.6774 35.7973 31.0104 35.6043L35.7674 34.9123C36.2964 34.8353 36.7544 34.5033 36.9904 34.0243L39.1184 29.7133C39.7144 28.5053 41.4364 28.5053 42.0324 29.7133" fill="#FFF1CE"/></g></g></g><g id="Window" transform="translate(174 26) scale(1 1)"><g id="Window/Check Mark 1"><g id="Window 2"><path id="Shape" fill-rule="evenodd" clip-rule="evenodd" d="M71.3722 20.8089C71.2853 19.311 70.043 18.1236 68.523 18.1236H2.855L2.68729 18.1284C1.18892 18.2152 0 19.457 0 20.9766V70.0586L0.0048485 70.2263C0.0917192 71.7242 1.33505 72.9126 2.855 72.9126H68.523L68.6907 72.9077C70.1888 72.8209 71.377 71.5784 71.377 70.0586V20.9766L71.3722 20.8089ZM2.855 19.0076H68.523L68.67 19.013C69.6895 19.0881 70.493 19.9384 70.493 20.9766V70.0586L70.4876 70.2056C70.4124 71.2249 69.5614 72.0286 68.523 72.0286H2.855L2.70795 72.0232C1.68843 71.948 0.884 71.0968 0.884 70.0586V20.9766L0.889407 20.8297C0.964663 19.8109 1.81609 19.0076 2.855 19.0076Z" fill="#FED21C"/><path id="Fill 26" fill-rule="evenodd" clip-rule="evenodd" d="M12.7159 27.6874C12.7159 29.7944 11.0079 31.5014 8.90094 31.5014C6.79394 31.5014 5.08594 29.7944 5.08594 27.6874C5.08594 25.5814 6.79394 23.8734 8.90094 23.8734C11.0079 23.8734 12.7159 25.5814 12.7159 27.6874" fill="#FED21C"/><path id="Fill 28" fill-rule="evenodd" clip-rule="evenodd" d="M14.541 25.3449H48.253V23.8729H14.541V25.3449Z" fill="#FED21C"/><path id="Fill 30" fill-rule="evenodd" clip-rule="evenodd" d="M14.541 28.0809H34.258V26.4639H14.541V28.0809Z" fill="#FED21C"/><path id="Fill 31" fill-rule="evenodd" clip-rule="evenodd" d="M5.08594 66.3339H42.9029V33.9899H5.08594V66.3339Z" fill="#FED21C"/><path id="Fill 32" fill-rule="evenodd" clip-rule="evenodd" d="M44.8945 49.1669H65.4205V33.9899H44.8945V49.1669Z" fill="#FED21C"/><path id="Fill 33" fill-rule="evenodd" clip-rule="evenodd" d="M44.8945 66.3339H54.7225V51.2819H44.8945V66.3339Z" fill="#FED21C"/><path id="Fill 34" fill-rule="evenodd" clip-rule="evenodd" d="M55.498 66.3339H65.325V51.2819H55.498V66.3339Z" fill="#FED21C"/><path id="Fill 35" fill-rule="evenodd" clip-rule="evenodd" d="M7.19189 68.4462C7.19189 69.0272 6.72089 69.4992 6.13989 69.4992C5.55889 69.4992 5.08789 69.0272 5.08789 68.4462C5.08789 67.8652 5.55889 67.3942 6.13989 67.3942C6.72089 67.3942 7.19189 67.8652 7.19189 68.4462" fill="#FED21C"/><path id="Fill 36" fill-rule="evenodd" clip-rule="evenodd" d="M10.727 68.4462C10.727 69.0272 10.256 69.4992 9.67505 69.4992C9.09305 69.4992 8.62305 69.0272 8.62305 68.4462C8.62305 67.8652 9.09305 67.3942 9.67505 67.3942C10.256 67.3942 10.727 67.8652 10.727 68.4462" fill="#FED21C"/><path id="Fill 37" fill-rule="evenodd" clip-rule="evenodd" d="M14.2603 68.4462C14.2603 69.0272 13.7893 69.4992 13.2083 69.4992C12.6273 69.4992 12.1562 69.0272 12.1562 68.4462C12.1562 67.8652 12.6273 67.3942 13.2083 67.3942C13.7893 67.3942 14.2603 67.8652 14.2603 68.4462" fill="#FED21C"/><path id="Fill 38" fill-rule="evenodd" clip-rule="evenodd" d="M81.7956 15.994C81.7956 24.827 74.6346 31.987 65.8026 31.987C56.9696 31.987 49.8086 24.827 49.8086 15.994C49.8086 7.161 56.9696 0 65.8026 0C74.6346 0 81.7956 7.161 81.7956 15.994" fill="#FED21C"/><path id="Path" d="M71.8921 8.0081L76.1012 11.5359L65.59 24.0771L55.9238 16.581L59.2894 12.2411L64.7769 16.4969L71.8921 8.0081Z" fill="#EFF2F9"/></g></g></g><g id="Window" transform="translate(178 105) scale(1 1)"><g id="Window/Check Mark 1"><g id="Window 2"><path id="Shape" fill-rule="evenodd" clip-rule="evenodd" d="M71.3722 20.8089C71.2853 19.311 70.043 18.1236 68.523 18.1236H2.855L2.68729 18.1284C1.18892 18.2152 0 19.457 0 20.9766V70.0586L0.0048485 70.2263C0.0917192 71.7242 1.33505 72.9126 2.855 72.9126H68.523L68.6907 72.9077C70.1888 72.8209 71.377 71.5784 71.377 70.0586V20.9766L71.3722 20.8089ZM2.855 19.0076H68.523L68.67 19.013C69.6895 19.0881 70.493 19.9384 70.493 20.9766V70.0586L70.4876 70.2056C70.4124 71.2249 69.5614 72.0286 68.523 72.0286H2.855L2.70795 72.0232C1.68843 71.948 0.884 71.0968 0.884 70.0586V20.9766L0.889407 20.8297C0.964663 19.8109 1.81609 19.0076 2.855 19.0076Z" fill="#FED21C"/><path id="Fill 26" fill-rule="evenodd" clip-rule="evenodd" d="M12.7159 27.6874C12.7159 29.7944 11.0079 31.5014 8.90094 31.5014C6.79394 31.5014 5.08594 29.7944 5.08594 27.6874C5.08594 25.5814 6.79394 23.8734 8.90094 23.8734C11.0079 23.8734 12.7159 25.5814 12.7159 27.6874" fill="#FED21C"/><path id="Fill 28" fill-rule="evenodd" clip-rule="evenodd" d="M14.541 25.3449H48.253V23.8729H14.541V25.3449Z" fill="#FED21C"/><path id="Fill 30" fill-rule="evenodd" clip-rule="evenodd" d="M14.541 28.0809H34.258V26.4639H14.541V28.0809Z" fill="#FED21C"/><path id="Fill 31" fill-rule="evenodd" clip-rule="evenodd" d="M5.08594 66.3339H42.9029V33.9899H5.08594V66.3339Z" fill="#FED21C"/><path id="Fill 32" fill-rule="evenodd" clip-rule="evenodd" d="M44.8945 49.1669H65.4205V33.9899H44.8945V49.1669Z" fill="#FED21C"/><path id="Fill 33" fill-rule="evenodd" clip-rule="evenodd" d="M44.8945 66.3339H54.7225V51.2819H44.8945V66.3339Z" fill="#FED21C"/><path id="Fill 34" fill-rule="evenodd" clip-rule="evenodd" d="M55.498 66.3339H65.325V51.2819H55.498V66.3339Z" fill="#FED21C"/><path id="Fill 35" fill-rule="evenodd" clip-rule="evenodd" d="M7.19189 68.4462C7.19189 69.0272 6.72089 69.4992 6.13989 69.4992C5.55889 69.4992 5.08789 69.0272 5.08789 68.4462C5.08789 67.8652 5.55889 67.3942 6.13989 67.3942C6.72089 67.3942 7.19189 67.8652 7.19189 68.4462" fill="#FED21C"/><path id="Fill 36" fill-rule="evenodd" clip-rule="evenodd" d="M10.727 68.4462C10.727 69.0272 10.256 69.4992 9.67505 69.4992C9.09305 69.4992 8.62305 69.0272 8.62305 68.4462C8.62305 67.8652 9.09305 67.3942 9.67505 67.3942C10.256 67.3942 10.727 67.8652 10.727 68.4462" fill="#FED21C"/><path id="Fill 37" fill-rule="evenodd" clip-rule="evenodd" d="M14.2603 68.4462C14.2603 69.0272 13.7893 69.4992 13.2083 69.4992C12.6273 69.4992 12.1562 69.0272 12.1562 68.4462C12.1562 67.8652 12.6273 67.3942 13.2083 67.3942C13.7893 67.3942 14.2603 67.8652 14.2603 68.4462" fill="#FED21C"/><path id="Fill 38" fill-rule="evenodd" clip-rule="evenodd" d="M81.7956 15.994C81.7956 24.827 74.6346 31.987 65.8026 31.987C56.9696 31.987 49.8086 24.827 49.8086 15.994C49.8086 7.161 56.9696 0 65.8026 0C74.6346 0 81.7956 7.161 81.7956 15.994" fill="#FED21C"/><path id="Path" d="M71.8921 8.0081L76.1012 11.5359L65.59 24.0771L55.9238 16.581L59.2894 12.2411L64.7769 16.4969L71.8921 8.0081Z" fill="#EFF2F9"/></g></g></g><g id="Master/Character/Standing" transform="translate(68 36) scale(1 1)"><g id="Master/Character/Standing"><g id="Lower Body/Standing" transform="translate(21 96) scale(1 1)"><g id="Lower Body/Standing/Pose"><g id="Group 31"><g id="Group 28"><path id="Fill 1" fill-rule="evenodd" clip-rule="evenodd" d="M54.5543 73.1967C53.1413 66.5297 51.2863 58.4567 49.6893 51.6437C49.4383 50.5837 49.1963 49.5527 48.9623 48.5647C47.4043 41.9747 46.2373 37.1897 46.2373 37.1897L65.7401 17.9274C65.7401 17.9274 68.4023 43.4897 69.2513 50.9317C70.2073 59.3107 71.1353 69.8077 70.7643 76.5557C70.4133 82.9427 68.4033 86.2717 65.8783 87.0197C61.8953 88.2037 56.6283 82.9677 54.5543 73.1967Z" fill="#5D47C2"/><path id="Fill 3" fill-rule="evenodd" clip-rule="evenodd" d="M70.1338 81.0919C70.1338 81.0919 69.7988 84.7339 69.1188 88.2509C68.0738 93.6639 66.3238 101.978 64.1768 109.297C62.8418 113.835 61.3568 117.992 59.7888 120.837L52.3818 119.624C52.3818 119.624 52.6648 117.325 52.9618 114.118C53.3518 109.93 53.7648 104.19 53.6088 99.9919C53.4418 95.5029 53.5828 91.2059 54.7208 87.7399C55.4608 85.4849 55.6558 82.0219 57.4308 80.6489C61.9338 77.1679 70.1338 81.0919 70.1338 81.0919" fill="#5D47C2"/><path id="Fill 5" fill-rule="evenodd" clip-rule="evenodd" d="M59.3963 120.173L59.3843 120.465L59.2733 123.349L59.0423 129.344C56.8563 130.384 54.6843 129.752 52.1533 128.847L52.6753 120.004L59.3963 120.173Z" fill="#9f91ca"/><path id="Fill 7" fill-rule="evenodd" clip-rule="evenodd" d="M51.0432 119.431C51.0432 119.431 50.5662 121.776 51.2522 123.34L59.4722 123.23C59.4722 123.23 60.7862 121.899 60.2512 119.409L51.0432 119.431Z" fill="#491A90"/><path id="Fill 9" fill-rule="evenodd" clip-rule="evenodd" d="M74.9232 136.267C74.9002 136.403 74.8732 136.55 74.8432 136.703C74.8222 136.8 74.8022 136.9 74.7792 136.996C74.6882 137.398 74.5722 137.77 74.4432 137.899C74.2182 138.125 70.5862 138.227 68.3782 138.269C67.3992 138.288 66.6992 138.293 66.6992 138.293L58.4902 138.466C57.3002 138.521 53.0902 138.552 51.1822 138.565C50.6452 138.569 50.2002 138.154 50.1662 137.62C50.1572 137.502 50.1512 137.378 50.1422 137.246C50.1082 136.724 50.0682 136.109 50.0342 135.512C49.9792 134.565 49.9352 133.663 49.9342 133.262C49.9382 132.242 50.7602 130.259 50.7602 130.259C50.7602 130.259 49.1182 128.663 50.2022 128.053C51.2872 127.442 51.7832 127.865 51.7832 127.865C51.7832 127.865 54.4332 129.204 55.7552 129.012C56.2952 128.933 56.8352 128.656 57.3102 128.284C57.9982 127.746 58.5552 127.013 58.7992 126.406C59.2082 125.375 60.9602 126.079 61.1072 127.02C61.1692 127.4 61.3642 127.63 61.6782 127.857C62.0072 128.097 62.4662 128.339 63.0282 128.763C63.1172 128.83 63.2102 128.904 63.3072 128.98C63.4402 129.091 63.5772 129.21 63.7202 129.343C63.9702 129.575 64.2582 129.799 64.5782 130.02C64.6432 130.066 64.7112 130.111 64.7792 130.156C65.1262 130.382 65.5872 130.453 65.9702 130.664C67.3092 131.4 68.6792 132.18 69.5582 132.65C69.6622 132.706 69.7772 132.764 69.9022 132.824C71.1132 133.398 73.1632 134.105 74.0982 134.778C74.7402 135.239 74.9792 135.942 74.9232 136.267" fill="#2C2263"/><path id="Fill 11" fill-rule="evenodd" clip-rule="evenodd" d="M74.7796 136.995C74.6886 137.396 74.5716 137.768 74.4426 137.898C74.1166 138.224 66.6986 138.293 66.6986 138.293L58.4906 138.466C57.3006 138.52 53.0896 138.552 51.1826 138.564C50.6466 138.568 50.2006 138.154 50.1666 137.618C50.1576 137.502 50.1506 137.378 50.1416 137.245C57.9066 137.55 66.2016 137.404 74.7796 136.995" fill="#7E72DF"/><path id="Fill 13" fill-rule="evenodd" clip-rule="evenodd" d="M64.7478 27.9476C61.4534 42.1181 52.9677 47.5818 52.9677 47.5818C52.9677 47.5818 42.1207 51.3908 35.0427 50.3748C33.0972 50.0959 32.2066 49.6193 31.1669 47.5818C28.3413 42.0443 28.5563 29.9266 32.973 21.9633C37.3898 14 40.5846 11 40.5846 11C47.523 11 61.4725 11 61.4725 11C62.9753 11.0159 68.0423 13.7771 64.7478 27.9476Z" fill="#5143B9"/><path id="Fill 15" fill-rule="evenodd" clip-rule="evenodd" d="M42.7091 80.7931C41.9121 78.3591 41.0311 75.7351 40.1201 73.0581C36.2041 61.5511 31.7121 49.0421 30.7601 46.3971C30.6411 46.0641 30.5771 45.8881 30.5771 45.8881L52.9671 47.5821C52.9671 47.5821 55.1441 56.2431 56.9351 65.8481C56.9361 65.8511 56.9361 65.8521 56.9361 65.8521C57.6931 69.9111 58.3811 74.1381 58.8051 77.9491C58.9811 79.5151 59.1121 81.0101 59.1851 82.3951C60.0501 98.8581 47.7911 96.3071 42.7091 80.7931" fill="#5143B9"/><path id="Fill 17" fill-rule="evenodd" clip-rule="evenodd" d="M58.096 90.2589C58.096 90.2589 56.432 93.1169 53.884 97.1879C51.005 101.786 46.997 107.936 42.987 113.262C42.417 114.021 41.846 114.762 41.279 115.48C40.315 116.698 39.362 117.848 38.434 118.897C37.229 120.257 36.067 121.446 34.983 122.394L29.209 119.075C29.209 119.075 32.974 110.882 35.466 104.103C35.852 103.047 36.21 102.027 36.516 101.075C37.901 96.7889 39.51 92.7879 41.776 89.9199C43.24 88.0669 44.978 86.6859 47.108 86.0069C52.532 84.2789 58.096 90.2589 58.096 90.2589" fill="#5143B9"/><path id="Fill 19" fill-rule="evenodd" clip-rule="evenodd" d="M35.3975 123.485L34.8335 124.812L32.9345 129.279C30.7615 130.352 28.3555 129.166 25.8115 128.297L27.1055 125.033L28.5335 121.432L35.3975 123.485Z" fill="#9f91ca"/><path id="Fill 21" fill-rule="evenodd" clip-rule="evenodd" d="M27.9212 118.256C27.9212 118.256 27.2502 119.938 26.9492 121.481L36.6152 124.393C36.6152 124.393 37.5222 123.085 38.1242 121.33L27.9212 118.256Z" fill="#491A90"/><g id="Group 25"><mask id="mask0_723_17078209d28ff-da19-4d9b-a2a1-5cd0ce1619d3" style="mask-type:luminance" maskUnits="userSpaceOnUse" x="24" y="126" width="26" height="13" fill="#ffffff"><path id="Clip 24" fill-rule="evenodd" clip-rule="evenodd" d="M24.3535 126.1H49.252V138.754H24.3535V126.1Z" fill="#ffffff"/></mask><g mask="url(#mask0_723_17078209d28ff-da19-4d9b-a2a1-5cd0ce1619d3)"><path id="Fill 23" fill-rule="evenodd" clip-rule="evenodd" d="M49.2406 136.944C49.2126 137.078 49.1836 137.225 49.1466 137.376C49.1236 137.474 49.1006 137.572 49.0756 137.667C48.9716 138.065 48.8436 138.434 48.7106 138.559C48.3746 138.874 40.9576 138.712 40.9576 138.712L32.7476 138.628C32.4906 138.632 32.0906 138.631 31.6026 138.624C29.8396 138.605 26.9346 138.536 25.4406 138.501C24.9056 138.486 24.4716 138.057 24.4546 137.522C24.4496 137.406 24.4476 137.281 24.4426 137.148C24.3946 135.797 24.3376 133.811 24.3576 133.161C24.3936 132.14 25.2786 130.185 25.2786 130.185C25.2786 130.185 23.6866 128.537 24.7896 127.962C25.8916 127.385 26.3756 127.824 26.3756 127.824C26.3756 127.824 28.9806 129.244 30.3076 129.093C30.7716 129.041 31.2386 128.843 31.6676 128.565V128.563C32.4696 128.045 33.1426 127.244 33.4306 126.583C33.8736 125.566 35.6016 126.326 35.7196 127.269C35.7696 127.652 35.9596 127.887 36.2656 128.124C36.5876 128.375 37.0386 128.63 37.5866 129.072C37.6746 129.141 37.7646 129.216 37.8576 129.298C37.9866 129.412 38.1196 129.536 38.2596 129.673C38.5036 129.913 38.7846 130.147 39.0966 130.377C39.1596 130.424 39.2266 130.471 39.2926 130.518C39.6326 130.756 40.0906 130.84 40.4676 131.064C41.1986 131.496 41.9366 131.94 42.5976 132.337C42.8016 132.459 42.9966 132.576 43.1836 132.686C43.4836 132.864 43.7546 133.025 43.9936 133.161C45.0946 133.798 47.4566 134.655 48.4656 135.428C49.0906 135.91 49.3066 136.619 49.2406 136.944" fill="#2C2263"/></g></g><path id="Fill 26" fill-rule="evenodd" clip-rule="evenodd" d="M49.0754 137.667C48.9714 138.065 48.8444 138.434 48.7104 138.559C48.3754 138.874 40.9574 138.712 40.9574 138.712L32.7484 138.629C31.5574 138.646 27.3474 138.546 25.4414 138.5C24.9044 138.487 24.4724 138.059 24.4544 137.522C24.4494 137.406 24.4464 137.281 24.4414 137.148C32.1944 137.695 40.4894 137.809 49.0754 137.667" fill="#7E72DF"/></g></g></g></g><g id="Head" transform="translate(33 -1) scale(1 1)"><g id="Head/Bob with Ribbons"><g id="Group"><path id="Fill 233" fill-rule="evenodd" clip-rule="evenodd" d="M53.5526 39.5411C53.3516 38.5901 53.0436 37.6621 52.6306 36.7821C51.4756 34.3151 49.5056 32.2391 47.1036 30.9541C46.1046 30.4201 45.0386 30.0211 43.9656 29.6591C42.9936 29.3311 42.0086 29.0311 40.9996 28.8471C36.0016 27.9321 31.3956 30.0841 27.9596 33.6011C27.2146 34.3631 26.6986 35.2801 26.0926 36.1351C25.6256 36.7961 25.1096 37.4401 24.7366 38.1361C24.0696 39.3801 23.4096 40.6271 22.8416 41.9071C22.2256 43.2961 21.5946 44.6801 21.1886 46.1241C21.0136 46.7471 20.9476 47.3871 20.8156 48.0141C20.5846 49.1111 20.5016 50.2051 20.8646 51.2711C21.0776 51.8991 21.4256 52.5421 22.3156 52.7701C22.4566 52.7621 22.5086 52.6511 22.6066 52.5951C22.5256 52.0111 22.4296 51.4271 22.6986 50.8351C22.8866 51.3021 23.2406 51.6921 23.4296 52.1491C23.5556 52.3111 23.8096 52.3861 23.8646 52.5951C24.0226 52.5891 24.1156 52.6791 24.2126 52.7581C25.2056 53.5761 26.4916 53.9171 27.7896 54.1931C28.8016 54.4081 28.8236 54.3571 28.9096 55.2311C28.9486 55.6261 29.1826 55.8131 29.6646 55.8371C30.8036 55.8931 31.7396 55.5321 32.5616 54.9171C32.6716 54.8341 32.8046 54.6621 32.9356 54.7761C33.1726 54.9831 33.5176 55.0291 33.7406 55.2791C36.0076 57.8031 41.3966 57.1671 43.9446 55.3311C44.2806 55.0891 44.6456 54.8051 45.0896 54.8231C45.4076 54.8361 45.6806 55.0021 45.9656 55.1191C46.5646 55.3661 47.2856 55.3981 47.9136 55.2061C48.2046 55.1171 48.4746 54.9821 48.7646 54.8911C49.3726 54.6991 50.0946 55.0001 50.6016 54.8521C51.2146 54.6711 51.1356 54.0321 51.1546 53.5901C51.2046 52.4031 51.1776 51.2141 51.1676 50.0261C51.1656 49.8151 51.0986 49.6051 51.0736 49.3951C51.0646 49.3151 51.0586 49.2051 51.2066 49.2051C51.3006 49.2051 51.3466 49.2811 51.3646 49.3531C51.3786 49.4071 51.3796 49.4661 51.3786 49.5221C51.3466 50.7481 51.5746 51.9701 51.4776 53.1941C51.4306 53.7701 51.3216 54.3431 51.2376 54.9371C51.4426 54.9581 51.5836 54.7471 51.7986 54.8121C52.1386 54.5361 52.3896 54.2251 52.5296 53.8621C52.3896 54.2251 52.1386 54.5361 51.7986 54.8121C51.4636 55.2851 50.8136 55.3881 50.3186 55.6721C50.2216 55.7281 50.1256 55.7851 50.0306 55.8411C50.1476 56.1791 50.5526 55.9711 50.7746 56.1091C51.4986 55.8581 52.1796 55.5521 52.7096 55.0571C52.6956 54.8261 52.8086 54.6561 53.0926 54.5281C53.1006 54.7441 53.0836 54.9281 52.8916 55.0731C53.0596 55.5331 53.2816 55.6451 53.7806 55.4881C54.2176 55.3491 54.5746 55.1351 54.8496 54.7921C55.3596 54.1571 55.5036 53.4451 55.5096 52.7241C55.5196 51.5181 55.0786 50.4391 54.7826 49.2961C54.4746 48.0991 54.1506 46.9021 53.9176 45.6871C53.6766 44.4261 53.8556 43.1971 53.8276 41.9271C53.8106 41.1251 53.7176 40.3251 53.5526 39.5411" fill="#432C82"/><path id="Fill 3" fill-rule="evenodd" clip-rule="evenodd" d="M43.8897 53.8614L43.6877 61.5304C43.6217 64.2234 41.9277 65.6234 39.2777 65.5384C37.0147 65.4654 34.9277 64.2284 34.7197 61.9744L35.6177 49.9214L43.8897 53.8614Z" fill="#9f91ca"/><path id="Fill 6" fill-rule="evenodd" clip-rule="evenodd" d="M43.7647 57.6016C38.3977 57.607 34.9907 50.6016 34.9907 50.6016L43.9257 52.6084L43.7647 57.6016Z" fill="#00023C" fill-opacity="0.18"/><path id="Fill 244" fill-rule="evenodd" clip-rule="evenodd" d="M28.5367 42.9835C28.1017 44.8585 29.2697 46.7305 31.1447 47.1655C33.0197 47.5995 34.8917 46.4315 35.3267 44.5565C35.7617 42.6815 34.5947 40.8095 32.7187 40.3755C30.8437 39.9405 28.9717 41.1085 28.5367 42.9835" fill="#9f91ca"/><path id="Fill 246" fill-rule="evenodd" clip-rule="evenodd" d="M32.8847 45.0548C32.8847 45.0548 33.4547 42.5938 31.0117 42.4358Z" fill="#00023C" fill-opacity="0.18"/><path id="Fill 248" fill-rule="evenodd" clip-rule="evenodd" d="M39.8497 53.5841V53.5841C44.2697 54.3031 48.4777 51.4031 49.1857 47.8131L50.8057 39.3331C51.6947 34.8331 49.4207 30.5311 44.9537 29.4961C40.3787 28.4371 34.4427 31.0081 33.3817 35.5821L32.1537 42.4171C31.2037 47.7021 34.6177 52.3711 39.8497 53.5841" fill="#9f91ca"/><path id="Fill 252" fill-rule="evenodd" clip-rule="evenodd" d="M56.1629 39.7198C55.6039 39.7858 55.1059 39.6348 54.6189 39.4038C54.4829 39.3388 54.2969 39.2618 54.3069 39.0958C54.3169 38.9088 54.5219 38.9818 54.6439 38.9488C55.6119 38.6958 56.2329 37.6438 55.8839 36.8008C55.3939 35.6238 54.7089 34.6108 53.4979 34.0448C53.1279 33.8718 52.9209 33.5978 53.0979 33.1328C53.4609 32.1798 53.3989 31.2058 53.1209 30.2458C52.9069 29.5078 52.4729 28.9318 51.6739 28.8038C50.9339 28.6848 50.2769 28.9298 49.8059 29.5308C49.5889 29.8078 49.3439 30.0678 49.2479 30.4448C49.1719 30.7468 48.9669 30.9088 48.6849 30.5358C46.7879 28.0178 42.8589 27.2418 39.9239 28.1578C40.1859 27.7328 40.3929 27.3248 40.4649 26.8568C40.6279 25.7698 40.5539 24.7518 39.5959 24.0188C38.9499 23.5248 38.2119 23.4418 37.4119 23.5318C36.4429 23.6408 35.6479 24.0298 34.9839 24.7338C34.4469 25.3018 34.0589 25.9688 33.6949 26.6468C33.5109 26.9908 32.1399 26.1418 31.7479 26.0188C30.8489 25.7378 29.8879 25.8218 28.9979 26.1028C27.6079 26.5428 27.1659 28.4348 27.8899 29.6408C28.4829 30.6298 29.3699 31.2318 30.3909 31.6758C31.0029 31.9428 31.0319 31.9518 30.5279 32.4218C28.5079 34.3078 27.3869 37.2408 28.7959 39.8308C29.0689 40.3338 29.4349 40.8038 29.9329 41.0878C30.5169 41.4228 31.2219 41.4688 31.8529 41.7048C32.6839 42.0158 33.0029 42.5878 33.5799 43.1758C34.3599 43.9738 35.0809 41.8848 35.4769 41.2648C36.3309 39.9328 37.1839 38.6008 38.0359 37.2688C38.0869 37.1898 38.1399 37.1088 38.2119 37.0488C38.4699 36.8348 38.8789 36.9718 39.1049 37.2188C39.3319 37.4648 39.4459 37.7928 39.6369 38.0688C40.0839 38.7178 40.8849 39.0048 41.6339 39.2528C41.9389 39.3548 42.2569 39.4568 42.5779 39.4248C43.6619 39.3188 43.0239 37.9568 43.4159 37.2528C43.4889 37.1208 43.4999 36.9378 43.6899 36.9158C43.9189 36.8908 43.9659 37.0878 44.0339 37.2398C44.3659 37.9698 44.5949 38.7408 44.9339 39.4708C45.2559 40.1668 45.6439 40.7928 46.2049 41.3148C46.3059 41.4068 46.4119 41.4998 46.4179 41.6548C47.2629 41.4108 48.0499 41.3618 48.7359 42.0898C49.1629 42.5418 49.4729 43.0268 49.5919 43.6328C50.0559 43.4248 49.8819 42.9548 49.9029 42.6458C50.0729 40.2498 49.5429 38.0268 48.0979 36.0658C47.9149 35.8188 47.6229 35.6598 47.5079 35.3578C47.4909 35.3148 47.4969 35.2628 47.4859 35.1548C47.9879 35.3768 48.2099 35.8178 48.4719 36.1848C49.4929 37.6218 50.0479 39.2548 50.2119 40.9918C50.3089 42.0218 50.3789 43.0888 49.8209 44.0538C50.1759 44.9628 51.5429 44.8008 52.2439 44.3998C52.8179 44.0718 53.3109 43.4688 53.4859 42.8248C53.5589 42.5568 53.7359 40.9168 53.5569 40.7988C53.7169 40.9048 53.8149 40.9618 53.9059 41.0298C54.7309 41.6388 56.1299 41.2908 56.5749 40.3658C56.8059 39.8868 56.6759 39.6578 56.1629 39.7198" fill="#432C82"/><path id="Fill 305" fill-rule="evenodd" clip-rule="evenodd" d="M33.7949 29.9434C32.8019 29.9434 31.3779 29.6274 30.4739 28.7894C29.8309 28.1934 29.5359 27.4284 29.5979 26.5164C29.6079 26.3804 29.7039 26.2674 29.8629 26.2844C30.0009 26.2934 30.1059 26.4124 30.0959 26.5494C30.0459 27.3044 30.2869 27.9344 30.8139 28.4224C31.7589 29.2974 33.4159 29.5264 34.2379 29.4164C34.3689 29.3904 34.5009 29.4914 34.5209 29.6284C34.5399 29.7644 34.4449 29.8904 34.3089 29.9104C34.1569 29.9324 33.9829 29.9434 33.7949 29.9434" fill="#F376DA"/><path id="Fill 307" fill-rule="evenodd" clip-rule="evenodd" d="M35.2325 28.8429C35.1415 28.8429 35.0545 28.7929 35.0095 28.7069C34.9475 28.5849 34.9955 28.4339 35.1185 28.3699C35.8015 28.0189 36.3925 27.3559 36.7815 26.5039C37.1615 25.6689 37.3235 24.7459 37.4305 23.9529C37.4505 23.8179 37.5705 23.7319 37.7125 23.7389C37.8495 23.7579 37.9455 23.8839 37.9265 24.0219C37.8135 24.8499 37.6435 25.8179 37.2365 26.7109C36.8005 27.6639 36.1295 28.4119 35.3465 28.8159C35.3105 28.8339 35.2715 28.8429 35.2325 28.8429" fill="#F376DA"/><path id="Fill 309" fill-rule="evenodd" clip-rule="evenodd" d="M38.0428 27.5626C37.6568 27.5626 37.2718 27.4896 36.9098 27.3366C36.7828 27.2836 36.7238 27.1356 36.7768 27.0086C36.8318 26.8826 36.9748 26.8206 37.1058 26.8756C38.1808 27.3336 39.5758 26.9036 40.2118 25.9196C40.2868 25.8036 40.4418 25.7706 40.5578 25.8456C40.6738 25.9206 40.7068 26.0756 40.6318 26.1916C40.0708 27.0586 39.0578 27.5626 38.0428 27.5626" fill="#F376DA"/><path id="Fill 311" fill-rule="evenodd" clip-rule="evenodd" d="M31.4684 30.836C30.8214 30.836 30.2024 30.745 29.7024 30.657C29.0194 30.538 28.2664 30.334 27.8614 29.721C27.7844 29.607 27.8164 29.451 27.9314 29.375C28.0444 29.298 28.2004 29.329 28.2774 29.445C28.5784 29.899 29.2104 30.064 29.7884 30.165C30.4264 30.276 31.2634 30.395 32.0824 30.304C32.6514 30.24 33.4644 30.046 34.1074 29.476C34.2114 29.385 34.3684 29.395 34.4604 29.497C34.5514 29.601 34.5424 29.759 34.4394 29.851C33.6974 30.507 32.7784 30.73 32.1374 30.8C31.9134 30.825 31.6894 30.836 31.4684 30.836" fill="#F376DA"/><path id="Fill 313" fill-rule="evenodd" clip-rule="evenodd" d="M51.067 33.7921C50.967 33.7921 50.873 33.7311 50.835 33.6341C50.494 32.7661 50.63 31.8631 50.805 31.2601C51.023 30.5051 51.396 29.8221 51.756 29.1621C51.824 29.0401 51.976 28.9991 52.096 29.0631C52.217 29.1291 52.261 29.2811 52.196 29.4021C51.847 30.0381 51.488 30.6961 51.286 31.3981C51.132 31.9281 51.01 32.7141 51.299 33.4501C51.35 33.5791 51.287 33.7251 51.159 33.7741C51.129 33.7861 51.097 33.7921 51.067 33.7921" fill="#F376DA"/><path id="Fill 315" fill-rule="evenodd" clip-rule="evenodd" d="M55.3902 36.2647C55.3462 36.2647 55.3012 36.2527 55.2612 36.2287C54.2102 35.5967 52.9632 35.2727 51.7322 35.3047C51.5752 35.3277 51.4782 35.1997 51.4742 35.0627C51.4702 34.9237 51.5782 34.8087 51.7162 34.8047C53.0352 34.7747 54.3862 35.1187 55.5192 35.8007C55.6372 35.8717 55.6752 36.0257 55.6042 36.1437C55.5572 36.2217 55.4752 36.2647 55.3902 36.2647" fill="#F376DA"/><path id="Fill 317" fill-rule="evenodd" clip-rule="evenodd" d="M50.9529 32.546C50.8819 32.546 50.8099 32.516 50.7609 32.456C50.6729 32.35 50.6869 32.192 50.7929 32.104C51.4789 31.533 52.4719 31.34 53.3209 31.612C53.4529 31.654 53.5249 31.796 53.4829 31.927C53.4409 32.059 53.3009 32.129 53.1689 32.089C52.4779 31.866 51.6709 32.025 51.1129 32.488C51.0659 32.527 51.0099 32.546 50.9529 32.546" fill="#F376DA"/><path id="Fill 319" fill-rule="evenodd" clip-rule="evenodd" d="M55.5653 38.5333C55.2183 38.5333 54.8533 38.3703 54.4763 38.0493C53.7233 37.4083 53.1953 36.4803 53.0273 35.5033C53.0033 35.3673 53.0943 35.2383 53.2313 35.2153C53.3633 35.1873 53.4963 35.2833 53.5193 35.4193C53.6683 36.2823 54.1353 37.1013 54.8003 37.6683C55.0303 37.8653 55.3673 38.0883 55.6853 38.0203C55.8173 38.0013 55.9523 38.0803 55.9803 38.2163C56.0073 38.3503 55.9203 38.4823 55.7853 38.5113C55.7123 38.5253 55.6393 38.5333 55.5653 38.5333" fill="#F376DA"/><path id="Fill 321" fill-rule="evenodd" clip-rule="evenodd" d="M50.0204 44.4835C50.0064 44.4835 49.9934 44.4825 49.9794 44.4805C49.8424 44.4575 49.7504 44.3285 49.7734 44.1925C50.2964 41.0555 49.2324 37.7005 46.9964 35.4365C46.8994 35.3375 46.9004 35.1795 46.9984 35.0835C47.0964 34.9865 47.2544 34.9865 47.3514 35.0855C49.6984 37.4615 50.8154 40.9825 50.2674 44.2745C50.2474 44.3965 50.1404 44.4835 50.0204 44.4835" fill="#F376DA"/><path id="Fill 323" fill-rule="evenodd" clip-rule="evenodd" d="M55.6335 42.2091C54.4755 42.2091 53.2655 41.8831 52.1695 41.2521C50.7555 40.4371 49.4845 39.1231 48.3935 37.3481C48.3215 37.2301 48.3575 37.0761 48.4755 37.0041C48.5935 36.9321 48.7475 36.9681 48.8195 37.0861C49.8655 38.7891 51.0775 40.0451 52.4195 40.8181C54.0165 41.7401 55.8675 41.9631 57.3685 41.4141C57.4995 41.3681 57.6425 41.4351 57.6905 41.5631C57.7375 41.6931 57.6695 41.8371 57.5405 41.8851C56.9435 42.1021 56.2965 42.2091 55.6335 42.2091" fill="#F376DA"/><path id="Fill 325" fill-rule="evenodd" clip-rule="evenodd" d="M34.8541 29.2882H34.8451C34.3921 29.2712 33.9501 29.0172 33.6631 28.6082C33.3751 28.1982 33.2861 27.6952 33.4241 27.2642C33.4671 27.1322 33.6081 27.0602 33.7391 27.1012C33.8711 27.1442 33.9431 27.2852 33.9011 27.4162C33.8091 27.7002 33.8741 28.0382 34.0721 28.3212C34.2691 28.6022 34.5651 28.7772 34.8631 28.7882C35.0001 28.7932 35.1091 28.9092 35.1041 29.0472C35.0991 29.1822 34.9881 29.2882 34.8541 29.2882" fill="#F376DA"/><path id="Fill 327" fill-rule="evenodd" clip-rule="evenodd" d="M19.95 43.5333C19.843 43.5333 19.744 43.4643 19.711 43.3563C19.671 43.2233 19.745 43.0843 19.877 43.0443C24.953 41.4973 28.98 37.1503 30.137 31.9703C30.167 31.8363 30.296 31.7533 30.435 31.7803C30.57 31.8103 30.655 31.9443 30.625 32.0793C29.429 37.4323 25.268 41.9243 20.023 43.5223C19.999 43.5293 19.974 43.5333 19.95 43.5333" fill="#F376DA"/><path id="Fill 329" fill-rule="evenodd" clip-rule="evenodd" d="M36.8038 29.8995C36.8138 30.0425 36.7618 30.1125 36.6838 30.1695C36.5728 30.2495 36.4708 30.3705 36.3468 30.3995C35.7808 30.5345 35.6128 31.0085 35.3958 31.4525C35.1898 31.8745 34.8938 31.9185 34.6818 31.5035C34.3998 30.9495 34.0478 30.5435 33.4498 30.3175C33.1228 30.1955 33.1178 29.7915 33.4458 29.6545C34.0378 29.4075 34.3788 28.9975 34.6268 28.4205C34.8008 28.0145 35.1348 28.0435 35.3258 28.4415C35.5498 28.9065 35.7758 29.3375 36.3418 29.4795C36.5488 29.5315 36.7518 29.6855 36.8038 29.8995" fill="#FFB700"/><path id="Fill 331" fill-rule="evenodd" clip-rule="evenodd" d="M52.2731 35.1007C52.2181 35.1817 52.1611 35.1977 52.0951 35.1957C52.0021 35.1927 51.8961 35.2147 51.8171 35.1787C51.4571 35.0127 51.1671 35.1987 50.8651 35.3457C50.5771 35.4867 50.3991 35.3857 50.4601 35.0737C50.5391 34.6577 50.5211 34.2917 50.2931 33.9187C50.1691 33.7167 50.3361 33.4967 50.5691 33.5607C50.9921 33.6757 51.3471 33.5987 51.7221 33.3927C51.9861 33.2467 52.1541 33.4017 52.0891 33.6967C52.0151 34.0407 51.9561 34.3677 52.2011 34.6807C52.2911 34.7957 52.3351 34.9637 52.2731 35.1007" fill="#FFB700"/></g></g></g><g id="Expression" transform="translate(64 35) scale(1 1)"><g id="Expression/Happy 1"><g id="Expression"><path id="Fill 161" fill-rule="evenodd" clip-rule="evenodd" d="M13.5871 9.89688C13.5891 9.87088 13.5881 9.84588 13.5831 9.82188C13.5171 9.51588 13.1811 9.40688 12.9761 9.21488C12.7551 9.00888 12.6631 8.72588 12.6681 8.42888C12.6791 7.80388 12.6531 7.17888 12.6441 6.55388C12.3401 6.54788 12.3011 6.73588 12.3081 6.98488C12.3171 7.33388 12.4031 7.68288 12.3601 8.03288C12.3161 8.39788 12.2111 8.69588 12.2561 9.07788C12.2991 9.43588 12.4701 9.58988 12.6811 9.85088C12.8391 10.0449 12.6551 10.2009 12.5331 10.3379C12.3861 10.5049 12.1871 10.6819 12.4201 10.8869C12.6231 11.0659 12.7871 10.8749 12.9371 10.7319C13.1361 10.5429 13.5651 10.1799 13.5871 9.89688" fill="#00023C" fill-opacity="0.18"/><path id="Fill 163" fill-rule="evenodd" clip-rule="evenodd" d="M4.67367 5.26399C4.65067 5.38999 5.12167 5.73699 5.20267 5.80299C5.43067 5.99099 5.67967 6.15199 5.92667 6.31199C6.44067 6.64499 6.60767 6.22799 6.99167 5.94799C7.20767 5.78999 7.43767 5.63499 7.70167 5.57699C8.65567 5.37199 9.69167 6.05899 10.1287 6.89099C10.2347 7.09399 10.4027 7.14199 10.6057 7.04799C10.8047 6.95599 10.9007 6.76899 10.8287 6.58299C10.5717 5.92499 10.0437 5.46999 9.41267 5.16699C9.01267 4.97599 8.68967 4.86799 8.68667 4.35099C8.68467 4.14799 8.63767 3.97499 8.41267 4.00299C8.17067 4.03299 8.28667 4.24999 8.27767 4.39399C8.26667 4.57999 8.35667 4.82599 8.11867 4.91099C8.06167 4.93099 8.00067 4.93199 7.94067 4.93499C7.70967 4.94399 7.47967 4.97599 7.25467 5.03099C7.21567 5.03999 7.17467 5.05099 7.13467 5.04399C6.98767 5.01899 6.72767 4.24299 6.52967 4.27499C6.49567 4.27799 6.46167 4.28199 6.42667 4.28499C6.19867 4.40399 6.27767 4.58099 6.39167 4.76899C6.49567 4.94199 6.59567 5.08199 6.62067 5.28399C6.47867 5.34899 6.25567 5.65999 6.10367 5.65999C5.84467 5.72499 5.50067 5.35699 5.32867 5.19699C5.18367 5.06199 5.12367 4.92399 4.90067 4.99999C4.72167 5.06199 4.69767 5.13099 4.67367 5.26399" fill="#2A0952"/><path id="Fill 165" fill-rule="evenodd" clip-rule="evenodd" d="M19.6168 5.98957C19.4278 5.96457 19.1748 6.12957 19.0338 6.27057C18.8808 6.42457 18.7258 6.59457 18.5158 6.64957C18.2958 6.70657 18.1818 6.44257 18.0338 6.33657C17.8848 6.22957 17.8508 6.27857 17.9288 6.07257C17.9928 5.90257 18.0878 5.73957 18.1658 5.57557C18.1898 5.52657 18.2128 5.47557 18.2128 5.42257C18.2098 5.28457 18.0848 5.28457 17.9868 5.26857C17.7248 5.22757 17.7078 5.55957 17.6108 5.73557C17.5598 5.82757 17.5068 5.92257 17.4218 5.98357C17.4018 5.99857 17.3788 6.01057 17.3538 6.01357C17.3258 6.01657 17.2988 6.00757 17.2718 5.99757C17.0268 5.90857 16.7658 5.86357 16.5058 5.86357C16.4338 5.86357 16.3578 5.86657 16.2958 5.83257C16.1678 5.76257 16.2458 5.50957 16.2388 5.38757C16.2298 5.24457 16.3458 5.02657 16.1038 4.99757C15.8778 4.96857 15.8308 5.14157 15.8298 5.34457C15.8268 5.74757 15.6398 5.98857 15.2308 6.11657C14.7958 6.25257 14.3408 6.54657 14.0688 6.92157C13.9968 7.01957 13.9408 7.12957 13.8838 7.23757C13.7378 7.51957 13.5018 7.85357 13.9098 8.04257C14.1138 8.13557 14.2818 8.08857 14.3878 7.88557C14.7198 7.25357 15.3568 6.73557 16.0548 6.57057C16.9138 6.36657 17.5618 6.88657 18.1408 7.46757C18.5068 7.63557 18.9648 7.11957 19.1848 6.89757C19.3438 6.73757 19.4868 6.55557 19.6558 6.40657C19.7198 6.34857 19.8248 6.30257 19.8358 6.22457C19.8498 6.11557 19.7108 6.00257 19.6168 5.98957" fill="#2A0952"/><path id="Fill 167" fill-rule="evenodd" clip-rule="evenodd" d="M12.1143 14.1429C12.1253 14.1369 12.1363 14.1299 12.1483 14.1239C12.3113 14.0409 12.5813 14.0449 12.5593 13.7889C12.5353 13.5169 12.2663 13.5989 12.0933 13.5519C11.1263 13.8099 10.2773 13.5459 9.49827 12.9679C9.28127 12.9359 9.03227 12.5989 8.85927 12.9379C8.68227 13.2829 9.10027 13.3029 9.26227 13.4619C9.36427 13.5609 9.53427 13.5569 9.61327 13.6939C10.4103 14.0459 11.2363 14.2419 12.1143 14.1429" fill="#4E52AF"/><path id="Fill 169" fill-rule="evenodd" clip-rule="evenodd" d="M12.1143 14.1429C11.2363 14.2419 10.4103 14.0459 9.61328 13.6939C9.64728 13.9399 9.71528 14.1799 9.83528 14.3939C10.1403 14.9329 10.6183 15.1199 11.2123 14.9889C11.6713 14.8869 12.0053 14.6299 12.1143 14.1429" fill="#FF37B8" fill-opacity="0.5"/><path id="Fill 171" fill-rule="evenodd" clip-rule="evenodd" d="M9.49805 12.9681C10.277 13.5461 11.126 13.8101 12.093 13.5521C11.979 13.0111 11.635 12.7971 11.094 12.7681C10.544 12.7391 10.018 12.8041 9.49805 12.9681" fill="#FF37B8" fill-opacity="0.5"/><path id="Fill 173" fill-rule="evenodd" clip-rule="evenodd" d="M7.84481 9.35289C7.58481 9.71689 7.17481 9.96989 6.73781 10.0749C6.23181 10.1949 5.69481 10.1289 5.20581 9.95389C4.88581 9.83889 4.57481 9.67089 4.35181 9.41489C3.96681 8.97289 3.94081 8.15889 4.06981 7.60989C4.14681 7.28089 4.33681 6.96589 4.63181 6.79889C5.06381 6.55389 5.53381 6.53589 6.00781 6.62289C6.42681 6.70089 6.85081 6.78989 7.22481 6.99389C7.96981 7.40189 8.36681 8.39889 7.95381 9.17689C7.92181 9.23889 7.88481 9.29689 7.84481 9.35289" fill="#FF37B8" fill-opacity="0.5"/><path id="Stroke 175" d="M5.20371 7.40408C5.28518 7.29261 5.44159 7.26828 5.55306 7.34975C5.64596 7.41764 5.67833 7.53757 5.6394 7.64017L5.6074 7.6991L4.9504 8.5981C4.86893 8.70958 4.71252 8.7339 4.60104 8.65244C4.50815 8.58455 4.47577 8.46461 4.5147 8.36201L4.54671 8.30308L5.20371 7.40408Z" fill="#FFD0F6"/><path id="Stroke 177" d="M6.72802 7.83899C6.84619 7.84558 6.94059 7.9332 6.96032 8.04492L6.96372 8.10252L6.90172 9.21452C6.89403 9.35237 6.77605 9.4579 6.63819 9.45021C6.52003 9.44362 6.42562 9.356 6.40589 9.24428L6.40249 9.18668L6.46449 8.07468C6.47218 7.93683 6.59017 7.8313 6.72802 7.83899Z" fill="#FFD0F6"/><path id="Stroke 179" d="M5.88645 7.67612C5.9495 7.55328 6.10018 7.50481 6.22302 7.56786C6.32538 7.6204 6.3761 7.7338 6.35368 7.84123L6.33127 7.90443L5.75127 9.03443C5.68823 9.15727 5.53754 9.20574 5.4147 9.14269C5.31234 9.09015 5.26162 8.97675 5.28404 8.86932L5.30645 8.80612L5.88645 7.67612Z" fill="#FFD0F6"/><path id="Fill 181" fill-rule="evenodd" clip-rule="evenodd" d="M15.2994 10.723C15.5174 11.028 15.8604 11.24 16.2274 11.327C16.6504 11.427 17.1004 11.373 17.5104 11.226C17.7784 11.129 18.0384 10.99 18.2254 10.775C18.5484 10.404 18.5704 9.72198 18.4624 9.26198C18.3974 8.98598 18.2374 8.72298 17.9914 8.58298C17.6294 8.37698 17.2354 8.36198 16.8384 8.43498C16.4874 8.49998 16.1324 8.57498 15.8194 8.74598C15.1944 9.08698 14.8614 9.92298 15.2084 10.575C15.2354 10.626 15.2654 10.675 15.2994 10.723" fill="#FF37B8" fill-opacity="0.5"/><path id="Stroke 183" d="M17.1947 9.01143C17.2875 8.94348 17.4116 8.94899 17.4976 9.01719L17.5441 9.06555L18.0951 9.81855C18.1766 9.92998 18.1524 10.0864 18.0409 10.1679C17.9481 10.2359 17.824 10.2304 17.738 10.1622L17.6915 10.1138L17.1405 9.36081C17.059 9.24939 17.0832 9.09296 17.1947 9.01143Z" fill="#FFD0F6"/><path id="Stroke 185" d="M16.2325 9.41348C16.3507 9.40689 16.4543 9.48347 16.4863 9.5923L16.4961 9.64917L16.5481 10.5812C16.5558 10.719 16.4502 10.837 16.3124 10.8447C16.1942 10.8513 16.0907 10.7747 16.0586 10.6659L16.0488 10.609L15.9968 9.67702C15.9892 9.53916 16.0947 9.42117 16.2325 9.41348Z" fill="#FFD0F6"/><path id="Stroke 187" d="M16.6393 9.19132C16.7417 9.13874 16.8634 9.16359 16.9376 9.24441L16.976 9.29945L17.462 10.2454C17.525 10.3683 17.4766 10.519 17.3538 10.5821C17.2515 10.6346 17.1298 10.6098 17.0555 10.529L17.0172 10.4739L16.5312 9.52793C16.4681 9.40512 16.5165 9.25441 16.6393 9.19132Z" fill="#FFD0F6"/></g></g></g><g id="Upper Body" transform="translate(7 0) scale(1 1)"><g id="Upper Body/Waving"><g id="Group 3"><mask id="mask0_723_256136d9ae292-208a-483f-92b1-08a4770c79c9" style="mask-type:luminance" maskUnits="userSpaceOnUse" x="93" y="122" width="34" height="113" fill="#ffffff"><path id="Clip 2" fill-rule="evenodd" clip-rule="evenodd" d="M93 122H126.689V234.527H93V122Z" fill="#ffffff"/></mask><g mask="url(#mask0_723_256136d9ae292-208a-483f-92b1-08a4770c79c9)"><path id="Fill 1" fill-rule="evenodd" clip-rule="evenodd" d="M94.9773 126.024C96.5273 123.84 98.8513 122.523 101.886 122.109C104.689 121.725 107.183 122.363 109.097 123.951C112.555 126.821 113.039 131.737 113.102 132.687L126.668 231.97C126.837 233.203 125.975 234.338 124.742 234.506C123.509 234.675 122.373 233.812 122.206 232.58L108.626 133.211C108.618 133.146 108.612 133.09 108.609 133.026C108.548 131.963 107.998 128.882 106.208 127.408C105.267 126.632 104.052 126.359 102.496 126.572C100.727 126.814 99.4733 127.482 98.6623 128.617C96.9373 131.026 97.6373 134.793 97.6503 134.859C97.8923 136.075 97.1053 137.259 95.8893 137.506C94.6713 137.753 93.4813 136.966 93.2333 135.747C93.1863 135.516 92.1193 130.049 94.9773 126.024" fill="#7E4DCD"/></g></g><g id="Group 128"><g id="Group 21"><path id="Fill 13" fill-rule="evenodd" clip-rule="evenodd" d="M63.248 57.5957C65.197 57.8107 67.208 57.6637 69.081 57.0987C70.731 57.5687 74.805 58.3347 74.805 58.3347C74.791 59.8157 72.94 62.5677 71.91 63.6307C70.98 64.5917 69.747 65.2057 68.487 65.6547C66.143 66.4897 63.576 66.8087 61.144 66.2837C58.71 65.7607 56.429 64.3437 55.107 62.2357C54.676 61.5467 53.37 60.5337 53.405 59.7217C53.405 59.7217 58.971 57.6167 60.623 56.8437C61.763 57.2027 62.058 57.4637 63.248 57.5957" fill="#9f91ca"/><path id="Fill 15" fill-rule="evenodd" clip-rule="evenodd" d="M70.8047 58.335C78.2717 58.569 105.868 72.271 105.868 72.271L129.024 53.224C129.024 53.224 130.243 58.408 130.243 58.408C130.243 58.408 121.055 82.877 109.055 85.783C97.0547 88.689 73.1947 72.271 73.1947 72.271L70.8047 58.335Z" fill="#9f91ca"/><path id="Fill 17" fill-rule="evenodd" clip-rule="evenodd" d="M86.0896 60.8994C91.7276 63.2994 100.489 69.1744 106.257 71.3834L117.841 60.5994C120.764 62.6194 124.09 66.6634 125.716 69.8214C126.822 71.9674 114.454 86.9094 104.881 86.9074C103.196 86.9064 81.5086 80.7854 79.7756 77.7054C78.0736 74.6804 72.8796 64.3114 72.6966 60.7874C72.4496 55.9994 81.0596 58.9204 83.2236 59.7424C84.1826 60.1064 85.1376 60.4954 86.0896 60.8994" fill="#26B6E3"/><path id="Fill 19" fill-rule="evenodd" clip-rule="evenodd" d="M55.1812 59.0313L49.1172 60.2573L43.6172 80.9753C43.6172 80.9753 43.8902 131.487 45.9672 131.849C47.8812 132.183 81.4922 130.624 86.9362 125.208L80.8982 86.7883C80.8982 86.7883 81.4202 82.6923 81.1392 75.9423C80.8582 69.1923 75.3672 59.9753 74.8052 58.3353L72.5152 57.8843C72.5152 57.8843 71.6252 61.2363 70.7952 62.2843C69.2172 64.2763 66.8042 65.6493 64.2452 65.7743C60.1692 65.9723 56.1622 62.9923 55.1812 59.0313" fill="#432C82"/></g><g id="Group 112"><g id="Group 24"><mask id="mask1_723_256136d9ae292-208a-483f-92b1-08a4770c79c9" style="mask-type:luminance" maskUnits="userSpaceOnUse" x="43" y="57" width="44" height="75" fill="#ffffff"><path id="Clip 23" fill-rule="evenodd" clip-rule="evenodd" d="M70.7932 62.2847C69.2152 64.2757 66.8032 65.6497 64.2432 65.7747V65.7747C60.1682 65.9727 56.1612 62.9917 55.1792 59.0307V59.0307L49.1162 60.2567L43.6152 80.9757C43.6152 80.9757 43.8892 131.488 45.9652 131.85V131.85C47.8792 132.184 81.4902 130.624 86.9352 125.208V125.208L80.8972 86.7877C80.8972 86.7877 81.4192 82.6927 81.1382 75.9427V75.9427C80.8562 69.1927 75.3652 59.9757 74.8032 58.3347V58.3347L72.5142 57.8837C72.5142 57.8837 71.6242 61.2357 70.7932 62.2847" fill="#ffffff"/></mask><g mask="url(#mask1_723_256136d9ae292-208a-483f-92b1-08a4770c79c9)"><path id="Fill 22" fill-rule="evenodd" clip-rule="evenodd" d="M56.2895 93.9365C56.3695 93.5545 56.0355 92.9155 56.4635 92.6835C56.9635 92.4125 57.3405 93.0265 57.7115 93.3135C59.1825 94.4465 59.1515 94.4505 60.2315 92.9615C60.5745 92.4895 60.7575 91.5925 61.3525 91.6745C61.9575 91.7575 61.9035 92.6615 62.0335 93.2165C62.2465 94.1235 62.6285 94.2655 63.4365 93.8515C63.9825 93.5715 64.7115 92.9155 65.1455 93.3035C65.6055 93.7155 65.1145 94.5585 64.9755 95.2005C64.7205 96.3755 64.7245 96.3985 65.8925 96.4575C66.0265 96.4635 66.1635 96.4565 66.2945 96.4795C66.8645 96.5835 67.7075 96.1835 67.9465 96.7935C68.1465 97.3055 67.4495 97.8265 67.1035 98.3065C66.2275 99.5285 66.2105 99.5165 67.3835 100.483C68.8625 101.703 68.8625 101.703 67.1675 102.486C65.2905 103.353 65.2905 103.353 65.9375 105.347C65.9685 105.443 66.0235 105.538 66.0275 105.635C66.0405 105.985 66.4245 106.392 66.0725 106.66C65.7705 106.889 65.4775 106.468 65.1745 106.355C64.8295 106.225 64.4935 106.069 64.1555 105.918C62.9325 105.37 62.9035 105.394 62.8055 106.791C62.7705 107.286 62.9295 107.998 62.5075 108.2C62.0145 108.437 61.7105 107.741 61.3565 107.427C60.3065 106.498 60.3175 106.479 59.3815 107.497C59.0405 107.868 58.7245 108.261 58.3795 108.629C57.9905 109.045 57.7065 109.027 57.5935 108.408C57.4545 107.648 57.2875 106.894 57.1705 106.131C57.0945 105.63 56.9095 105.504 56.4325 105.73C55.9165 105.973 55.3655 106.138 54.8365 106.353C54.3385 106.554 54.2115 106.359 54.3385 105.902C54.4735 105.416 54.6025 104.927 54.7865 104.459C55.0165 103.871 54.8375 103.564 54.2265 103.474C53.7275 103.401 53.2315 103.308 52.7305 103.251C52.1965 103.192 51.9605 103.047 52.3725 102.511C52.8115 101.938 53.7575 101.485 53.6065 100.809C53.4865 100.267 52.6145 99.8905 52.0725 99.4445C51.6885 99.1285 51.7275 98.9015 52.2055 98.7595C52.7215 98.6075 53.2315 98.4295 53.7555 98.3175C54.3885 98.1805 54.5455 97.9035 54.1825 97.3405C53.8725 96.8625 53.5915 96.3635 53.3125 95.8655C53.2175 95.6975 53.0335 95.5135 53.1555 95.3145C53.3105 95.0645 53.5785 95.1935 53.7995 95.2185C54.2675 95.2735 54.7425 95.3015 55.1965 95.4155C56.1065 95.6415 56.4665 95.3335 56.2925 94.4085C56.2685 94.2785 56.2895 94.1395 56.2895 93.9365" fill="#FF67FF"/></g></g><g id="Group 27"><mask id="mask2_723_256136d9ae292-208a-483f-92b1-08a4770c79c9" style="mask-type:luminance" maskUnits="userSpaceOnUse" x="43" y="57" width="44" height="75" fill="#ffffff"><path id="Clip 26" fill-rule="evenodd" clip-rule="evenodd" d="M70.7932 62.2847C69.2152 64.2757 66.8032 65.6497 64.2432 65.7747V65.7747C60.1682 65.9727 56.1612 62.9917 55.1792 59.0307V59.0307L49.1162 60.2567L43.6152 80.9757C43.6152 80.9757 43.8892 131.488 45.9652 131.85V131.85C47.8792 132.184 81.4902 130.624 86.9352 125.208V125.208L80.8972 86.7877C80.8972 86.7877 81.4192 82.6927 81.1382 75.9427V75.9427C80.8562 69.1927 75.3652 59.9757 74.8032 58.3347V58.3347L72.5142 57.8837C72.5142 57.8837 71.6242 61.2357 70.7932 62.2847" fill="#ffffff"/></mask><g mask="url(#mask2_723_256136d9ae292-208a-483f-92b1-08a4770c79c9)"><path id="Fill 25" fill-rule="evenodd" clip-rule="evenodd" d="M77.2997 80.9531C74.5847 82.2721 73.6057 84.4671 73.6527 87.1751C73.7017 89.9891 75.4067 91.6711 77.9467 92.7631C75.4467 93.7981 71.7877 92.6891 69.9997 90.4741C68.2407 88.2951 68.1287 85.8601 69.6837 83.6011C71.2817 81.2801 74.6257 80.0611 77.2997 80.9531" fill="#C2F5FF"/></g></g><g id="Group 30"><mask id="mask3_723_256136d9ae292-208a-483f-92b1-08a4770c79c9" style="mask-type:luminance" maskUnits="userSpaceOnUse" x="43" y="57" width="44" height="75" fill="#ffffff"><path id="Clip 29" fill-rule="evenodd" clip-rule="evenodd" d="M70.7932 62.2847C69.2152 64.2757 66.8032 65.6497 64.2432 65.7747V65.7747C60.1682 65.9727 56.1612 62.9917 55.1792 59.0307V59.0307L49.1162 60.2567L43.6152 80.9757C43.6152 80.9757 43.8892 131.488 45.9652 131.85V131.85C47.8792 132.184 81.4902 130.624 86.9352 125.208V125.208L80.8972 86.7877C80.8972 86.7877 81.4192 82.6927 81.1382 75.9427V75.9427C80.8562 69.1927 75.3652 59.9757 74.8032 58.3347V58.3347L72.5142 57.8837C72.5142 57.8837 71.6242 61.2357 70.7932 62.2847" fill="#ffffff"/></mask><g mask="url(#mask3_723_256136d9ae292-208a-483f-92b1-08a4770c79c9)"><path id="Fill 28" fill-rule="evenodd" clip-rule="evenodd" d="M47.752 128.159C48.172 127.706 48.54 127.274 48.944 126.881C49.363 126.473 49.401 126.096 48.963 125.691C48.889 125.623 48.815 125.548 48.767 125.462C48.558 125.092 47.96 124.806 48.137 124.396C48.313 123.989 48.922 124.164 49.333 124.159C50.266 124.146 50.42 123.621 50.403 122.839C50.392 122.331 50.14 121.589 50.644 121.373C51.004 121.22 51.471 121.845 51.803 122.207C52.386 122.841 52.877 122.771 53.375 122.135C53.457 122.029 53.552 121.93 53.657 121.847C53.885 121.666 54.037 121.257 54.352 121.347C54.745 121.461 54.627 121.918 54.672 122.225C54.907 123.801 54.895 123.79 56.465 123.769C56.782 123.765 57.223 123.564 57.404 123.89C57.602 124.243 57.101 124.421 56.966 124.711C56.898 124.857 56.761 124.978 56.636 125.089C55.862 125.763 55.785 126.378 56.734 126.977C56.973 127.128 57.336 127.357 57.252 127.656C57.143 128.041 56.683 127.909 56.376 127.953C55.058 128.141 55.056 128.13 55.124 129.478C55.127 129.546 55.137 129.614 55.127 129.68C55.076 130.025 55.321 130.524 54.905 130.673C54.587 130.786 54.372 130.336 54.14 130.105C53.073 129.045 53.075 129.043 51.968 130.138C51.825 130.279 51.685 130.427 51.531 130.555C51.149 130.873 50.922 130.914 50.85 130.288C50.625 128.355 50.607 128.363 48.618 128.359C48.366 128.358 48.082 128.476 47.752 128.159" fill="#FED21C"/></g></g><g id="Group 33"><mask id="mask4_723_256136d9ae292-208a-483f-92b1-08a4770c79c9" style="mask-type:luminance" maskUnits="userSpaceOnUse" x="43" y="57" width="44" height="75" fill="#ffffff"><path id="Clip 32" fill-rule="evenodd" clip-rule="evenodd" d="M70.7932 62.2847C69.2152 64.2757 66.8032 65.6497 64.2432 65.7747V65.7747C60.1682 65.9727 56.1612 62.9917 55.1792 59.0307V59.0307L49.1162 60.2567L43.6152 80.9757C43.6152 80.9757 43.8892 131.488 45.9652 131.85V131.85C47.8792 132.184 81.4902 130.624 86.9352 125.208V125.208L80.8972 86.7877C80.8972 86.7877 81.4192 82.6927 81.1382 75.9427V75.9427C80.8562 69.1927 75.3652 59.9757 74.8032 58.3347V58.3347L72.5142 57.8837C72.5142 57.8837 71.6242 61.2357 70.7932 62.2847" fill="#ffffff"/></mask><g mask="url(#mask4_723_256136d9ae292-208a-483f-92b1-08a4770c79c9)"><path id="Fill 31" fill-rule="evenodd" clip-rule="evenodd" d="M86.2146 120.798C86.0646 123.109 85.3466 125.087 84.4936 127.03C84.1926 127.717 83.7326 127.377 83.3106 127.248C82.7136 127.067 83.0316 126.739 83.1576 126.39C83.9376 124.236 84.9906 122.119 84.4816 119.721C83.8986 116.977 80.8016 115.859 78.5176 117.524C76.9126 118.694 76.0446 120.407 75.1046 122.069C74.9566 122.331 74.8336 122.613 74.7406 122.9C74.5956 123.345 74.3696 123.511 73.9236 123.25C73.5556 123.034 73.0396 122.917 73.3816 122.307C74.4776 120.354 75.3016 118.248 77.0196 116.668C79.8206 114.091 84.5936 114.922 85.8216 118.278C86.1376 119.141 86.0826 120.067 86.2146 120.798" fill="#FED21C"/></g></g><g id="Group 36"><mask id="mask5_723_256136d9ae292-208a-483f-92b1-08a4770c79c9" style="mask-type:luminance" maskUnits="userSpaceOnUse" x="43" y="57" width="44" height="75" fill="#ffffff"><path id="Clip 35" fill-rule="evenodd" clip-rule="evenodd" d="M70.7932 62.2847C69.2152 64.2757 66.8032 65.6497 64.2432 65.7747V65.7747C60.1682 65.9727 56.1612 62.9917 55.1792 59.0307V59.0307L49.1162 60.2567L43.6152 80.9757C43.6152 80.9757 43.8892 131.488 45.9652 131.85V131.85C47.8792 132.184 81.4902 130.624 86.9352 125.208V125.208L80.8972 86.7877C80.8972 86.7877 81.4192 82.6927 81.1382 75.9427V75.9427C80.8562 69.1927 75.3652 59.9757 74.8032 58.3347V58.3347L72.5142 57.8837C72.5142 57.8837 71.6242 61.2357 70.7932 62.2847" fill="#ffffff"/></mask><g mask="url(#mask5_723_256136d9ae292-208a-483f-92b1-08a4770c79c9)"><path id="Fill 34" fill-rule="evenodd" clip-rule="evenodd" d="M60.3255 69.6816C61.0325 71.6176 61.6535 73.5086 63.8735 74.5216C61.7365 75.5076 60.9175 77.2916 60.1425 79.3906C59.3095 77.3826 58.2785 75.8246 56.3535 74.7876C58.6475 73.7226 59.4735 71.7236 60.3255 69.6816" fill="#FF67FF"/></g></g><g id="Group 39"><mask id="mask6_723_256136d9ae292-208a-483f-92b1-08a4770c79c9" style="mask-type:luminance" maskUnits="userSpaceOnUse" x="43" y="57" width="44" height="75" fill="#ffffff"><path id="Clip 38" fill-rule="evenodd" clip-rule="evenodd" d="M70.7932 62.2847C69.2152 64.2757 66.8032 65.6497 64.2432 65.7747V65.7747C60.1682 65.9727 56.1612 62.9917 55.1792 59.0307V59.0307L49.1162 60.2567L43.6152 80.9757C43.6152 80.9757 43.8892 131.488 45.9652 131.85V131.85C47.8792 132.184 81.4902 130.624 86.9352 125.208V125.208L80.8972 86.7877C80.8972 86.7877 81.4192 82.6927 81.1382 75.9427V75.9427C80.8562 69.1927 75.3652 59.9757 74.8032 58.3347V58.3347L72.5142 57.8837C72.5142 57.8837 71.6242 61.2357 70.7932 62.2847" fill="#ffffff"/></mask><g mask="url(#mask6_723_256136d9ae292-208a-483f-92b1-08a4770c79c9)"><path id="Fill 37" fill-rule="evenodd" clip-rule="evenodd" d="M83.8365 73.4258C82.3725 73.3678 81.1695 72.1968 81.0025 70.7228C80.9275 70.0558 80.9355 69.3808 81.0675 68.7168C81.4715 66.6968 79.1745 64.3728 76.9065 65.4468C76.1115 65.8228 75.3485 66.2408 74.7095 66.8398C73.2885 68.1718 71.9175 69.5548 70.8035 71.1628C70.5895 71.4718 70.3945 71.7018 69.9945 71.5028C69.5025 71.2588 69.8095 70.9458 69.9345 70.6618C70.3515 69.7178 71.1465 69.0538 71.8255 68.3348C73.3345 66.7378 74.7435 64.9708 77.0075 64.3228C79.5125 63.6078 82.2095 65.7638 82.0615 68.3808C82.0375 68.8168 82.0495 69.2598 81.9675 69.6848C81.7765 70.6718 82.0795 71.4538 82.8055 72.1248C83.1915 72.4828 83.6435 72.8028 83.8365 73.4258" fill="#F28DFD"/></g></g><g id="Group 42"><mask id="mask7_723_256136d9ae292-208a-483f-92b1-08a4770c79c9" style="mask-type:luminance" maskUnits="userSpaceOnUse" x="43" y="57" width="44" height="75" fill="#ffffff"><path id="Clip 41" fill-rule="evenodd" clip-rule="evenodd" d="M70.7932 62.2847C69.2152 64.2757 66.8032 65.6497 64.2432 65.7747V65.7747C60.1682 65.9727 56.1612 62.9917 55.1792 59.0307V59.0307L49.1162 60.2567L43.6152 80.9757C43.6152 80.9757 43.8892 131.488 45.9652 131.85V131.85C47.8792 132.184 81.4902 130.624 86.9352 125.208V125.208L80.8972 86.7877C80.8972 86.7877 81.4192 82.6927 81.1382 75.9427V75.9427C80.8562 69.1927 75.3652 59.9757 74.8032 58.3347V58.3347L72.5142 57.8837C72.5142 57.8837 71.6242 61.2357 70.7932 62.2847" fill="#ffffff"/></mask><g mask="url(#mask7_723_256136d9ae292-208a-483f-92b1-08a4770c79c9)"><path id="Fill 40" fill-rule="evenodd" clip-rule="evenodd" d="M82.8955 121.785C82.8185 123.178 82.2975 124.701 81.7505 126.219C81.6115 126.604 81.4005 126.735 80.9835 126.551C80.5865 126.376 80.2455 126.266 80.4385 125.696C80.7825 124.679 81.1205 123.654 81.3595 122.61C81.5355 121.84 81.7825 120.88 80.9245 120.41C79.9945 119.9 79.5885 120.905 79.0765 121.409C78.3415 122.131 78.0245 123.113 77.6405 124.042C77.4625 124.471 77.3095 124.857 76.6975 124.595C76.0985 124.338 76.1315 123.976 76.3485 123.468C76.9195 122.127 77.6405 120.884 78.6455 119.824C79.5955 118.823 80.4935 118.586 81.5295 119.013C82.5735 119.442 82.9255 120.093 82.8955 121.785" fill="#EEC9E8"/></g></g><g id="Group 45"><mask id="mask8_723_256136d9ae292-208a-483f-92b1-08a4770c79c9" style="mask-type:luminance" maskUnits="userSpaceOnUse" x="43" y="57" width="44" height="75" fill="#ffffff"><path id="Clip 44" fill-rule="evenodd" clip-rule="evenodd" d="M70.7932 62.2847C69.2152 64.2757 66.8032 65.6497 64.2432 65.7747V65.7747C60.1682 65.9727 56.1612 62.9917 55.1792 59.0307V59.0307L49.1162 60.2567L43.6152 80.9757C43.6152 80.9757 43.8892 131.488 45.9652 131.85V131.85C47.8792 132.184 81.4902 130.624 86.9352 125.208V125.208L80.8972 86.7877C80.8972 86.7877 81.4192 82.6927 81.1382 75.9427V75.9427C80.8562 69.1927 75.3652 59.9757 74.8032 58.3347V58.3347L72.5142 57.8837C72.5142 57.8837 71.6242 61.2357 70.7932 62.2847" fill="#ffffff"/></mask><g mask="url(#mask8_723_256136d9ae292-208a-483f-92b1-08a4770c79c9)"><path id="Fill 43" fill-rule="evenodd" clip-rule="evenodd" d="M66.4159 137.843C65.4299 137.983 64.9929 137.63 64.7469 136.877C64.1419 135.02 64.0889 133.193 64.8939 131.38C65.5499 129.902 66.0229 128.364 66.3079 126.775C66.6779 124.709 66.0719 122.866 64.9569 121.152C64.8889 121.047 64.8269 120.938 64.7279 120.773C65.4619 120.522 65.8759 120.739 66.2439 121.353C67.8649 124.064 67.6449 126.846 66.6409 129.669C66.3159 130.585 65.9289 131.48 65.6149 132.399C64.9659 134.3 65.3099 136.09 66.4159 137.843" fill="#9979F1"/></g></g><g id="Group 48"><mask id="mask9_723_256136d9ae292-208a-483f-92b1-08a4770c79c9" style="mask-type:luminance" maskUnits="userSpaceOnUse" x="43" y="57" width="44" height="75" fill="#ffffff"><path id="Clip 47" fill-rule="evenodd" clip-rule="evenodd" d="M70.7932 62.2847C69.2152 64.2757 66.8032 65.6497 64.2432 65.7747V65.7747C60.1682 65.9727 56.1612 62.9917 55.1792 59.0307V59.0307L49.1162 60.2567L43.6152 80.9757C43.6152 80.9757 43.8892 131.488 45.9652 131.85V131.85C47.8792 132.184 81.4902 130.624 86.9352 125.208V125.208L80.8972 86.7877C80.8972 86.7877 81.4192 82.6927 81.1382 75.9427V75.9427C80.8562 69.1927 75.3652 59.9757 74.8032 58.3347V58.3347L72.5142 57.8837C72.5142 57.8837 71.6242 61.2357 70.7932 62.2847" fill="#ffffff"/></mask><g mask="url(#mask9_723_256136d9ae292-208a-483f-92b1-08a4770c79c9)"><path id="Fill 46" fill-rule="evenodd" clip-rule="evenodd" d="M72.0779 100.363C72.6729 101.817 73.6369 102.617 74.7939 103.315C73.4179 104.559 72.6399 106.087 72.0779 107.961C71.6849 107.021 71.3019 106.303 70.8489 105.625C70.3709 104.911 69.6529 104.509 68.7559 104.102C70.3779 103.309 71.5009 102.222 72.0779 100.363" fill="#FED21C"/></g></g><g id="Group 51"><mask id="mask10_723_256136d9ae292-208a-483f-92b1-08a4770c79c9" style="mask-type:luminance" maskUnits="userSpaceOnUse" x="43" y="57" width="44" height="75" fill="#ffffff"><path id="Clip 50" fill-rule="evenodd" clip-rule="evenodd" d="M70.7932 62.2847C69.2152 64.2757 66.8032 65.6497 64.2432 65.7747V65.7747C60.1682 65.9727 56.1612 62.9917 55.1792 59.0307V59.0307L49.1162 60.2567L43.6152 80.9757C43.6152 80.9757 43.8892 131.488 45.9652 131.85V131.85C47.8792 132.184 81.4902 130.624 86.9352 125.208V125.208L80.8972 86.7877C80.8972 86.7877 81.4192 82.6927 81.1382 75.9427V75.9427C80.8562 69.1927 75.3652 59.9757 74.8032 58.3347V58.3347L72.5142 57.8837C72.5142 57.8837 71.6242 61.2357 70.7932 62.2847" fill="#ffffff"/></mask><g mask="url(#mask10_723_256136d9ae292-208a-483f-92b1-08a4770c79c9)"><path id="Fill 49" fill-rule="evenodd" clip-rule="evenodd" d="M78.4602 85.0869C78.1302 84.1899 77.5482 83.6339 76.9732 83.0699C76.8352 82.9339 76.6672 82.7759 76.9812 82.6379C77.7292 82.3079 78.2762 81.7529 78.7272 81.0099C79.2012 81.6569 79.4722 82.3959 80.0772 82.8869C80.2192 83.0009 80.1422 83.1229 80.0112 83.2129C79.3542 83.6659 78.8432 84.2509 78.4602 85.0869" fill="#FED21C"/></g></g><g id="Group 54"><mask id="mask11_723_256136d9ae292-208a-483f-92b1-08a4770c79c9" style="mask-type:luminance" maskUnits="userSpaceOnUse" x="43" y="57" width="44" height="75" fill="#ffffff"><path id="Clip 53" fill-rule="evenodd" clip-rule="evenodd" d="M70.7932 62.2847C69.2152 64.2757 66.8032 65.6497 64.2432 65.7747V65.7747C60.1682 65.9727 56.1612 62.9917 55.1792 59.0307V59.0307L49.1162 60.2567L43.6152 80.9757C43.6152 80.9757 43.8892 131.488 45.9652 131.85V131.85C47.8792 132.184 81.4902 130.624 86.9352 125.208V125.208L80.8972 86.7877C80.8972 86.7877 81.4192 82.6927 81.1382 75.9427V75.9427C80.8562 69.1927 75.3652 59.9757 74.8032 58.3347V58.3347L72.5142 57.8837C72.5142 57.8837 71.6242 61.2357 70.7932 62.2847" fill="#ffffff"/></mask><g mask="url(#mask11_723_256136d9ae292-208a-483f-92b1-08a4770c79c9)"><path id="Fill 52" fill-rule="evenodd" clip-rule="evenodd" d="M63.0665 136.804C62.1575 136.607 61.7345 136.248 61.6315 135.437C61.4035 133.637 61.7435 131.958 62.5695 130.376C64.1515 127.346 64.0875 124.444 61.9875 121.666C61.8875 121.533 61.7915 121.386 61.7415 121.23C61.6585 120.973 61.1675 120.733 61.5115 120.484C61.8325 120.252 62.3155 120.327 62.5925 120.702C63.7025 122.205 64.5785 123.814 64.6755 125.735C64.7755 127.729 64.3225 129.588 63.3165 131.322C62.3205 133.037 62.4105 134.839 63.0665 136.804" fill="#9979F1"/></g></g><g id="Group 57"><mask id="mask12_723_256136d9ae292-208a-483f-92b1-08a4770c79c9" style="mask-type:luminance" maskUnits="userSpaceOnUse" x="43" y="57" width="44" height="75" fill="#ffffff"><path id="Clip 56" fill-rule="evenodd" clip-rule="evenodd" d="M70.7932 62.2847C69.2152 64.2757 66.8032 65.6497 64.2432 65.7747V65.7747C60.1682 65.9727 56.1612 62.9917 55.1792 59.0307V59.0307L49.1162 60.2567L43.6152 80.9757C43.6152 80.9757 43.8892 131.488 45.9652 131.85V131.85C47.8792 132.184 81.4902 130.624 86.9352 125.208V125.208L80.8972 86.7877C80.8972 86.7877 81.4192 82.6927 81.1382 75.9427V75.9427C80.8562 69.1927 75.3652 59.9757 74.8032 58.3347V58.3347L72.5142 57.8837C72.5142 57.8837 71.6242 61.2357 70.7932 62.2847" fill="#ffffff"/></mask><g mask="url(#mask12_723_256136d9ae292-208a-483f-92b1-08a4770c79c9)"><path id="Fill 55" fill-rule="evenodd" clip-rule="evenodd" d="M59.1726 133.764C59.2036 132.64 59.3246 131.792 59.8436 131.032C61.9516 127.941 61.1766 124.992 59.3756 122.101C59.1796 121.787 58.9546 121.493 58.7666 121.174C58.6436 120.967 58.2466 120.736 58.5386 120.517C58.8696 120.269 59.2986 120.338 59.6126 120.708C60.4486 121.695 61.0516 122.819 61.5076 124.016C62.4846 126.583 62.3966 129.065 60.8556 131.424C60.3456 132.206 60.2036 133.096 60.2156 134.027C60.2206 134.352 60.3666 134.935 59.9076 134.948C59.3876 134.96 59.1606 134.457 59.1726 133.925C59.1746 133.791 59.1726 133.657 59.1726 133.764" fill="#9979F1"/></g></g><g id="Group 60"><mask id="mask13_723_256136d9ae292-208a-483f-92b1-08a4770c79c9" style="mask-type:luminance" maskUnits="userSpaceOnUse" x="43" y="57" width="44" height="75" fill="#ffffff"><path id="Clip 59" fill-rule="evenodd" clip-rule="evenodd" d="M70.7932 62.2847C69.2152 64.2757 66.8032 65.6497 64.2432 65.7747V65.7747C60.1682 65.9727 56.1612 62.9917 55.1792 59.0307V59.0307L49.1162 60.2567L43.6152 80.9757C43.6152 80.9757 43.8892 131.488 45.9652 131.85V131.85C47.8792 132.184 81.4902 130.624 86.9352 125.208V125.208L80.8972 86.7877C80.8972 86.7877 81.4192 82.6927 81.1382 75.9427V75.9427C80.8562 69.1927 75.3652 59.9757 74.8032 58.3347V58.3347L72.5142 57.8837C72.5142 57.8837 71.6242 61.2357 70.7932 62.2847" fill="#ffffff"/></mask><g mask="url(#mask13_723_256136d9ae292-208a-483f-92b1-08a4770c79c9)"><path id="Fill 58" fill-rule="evenodd" clip-rule="evenodd" d="M81.439 97.4141C80.085 98.4671 79.039 99.5211 78.581 101.105C77.832 99.5061 77.832 99.5061 76 97.9591C77.284 97.0541 78.363 95.9871 78.831 94.3671C79.332 95.6731 79.723 96.9921 81.439 97.4141" fill="#FF67FF"/></g></g><g id="Group 63"><mask id="mask14_723_256136d9ae292-208a-483f-92b1-08a4770c79c9" style="mask-type:luminance" maskUnits="userSpaceOnUse" x="43" y="57" width="44" height="75" fill="#ffffff"><path id="Clip 62" fill-rule="evenodd" clip-rule="evenodd" d="M70.7932 62.2847C69.2152 64.2757 66.8032 65.6497 64.2432 65.7747V65.7747C60.1682 65.9727 56.1612 62.9917 55.1792 59.0307V59.0307L49.1162 60.2567L43.6152 80.9757C43.6152 80.9757 43.8892 131.488 45.9652 131.85V131.85C47.8792 132.184 81.4902 130.624 86.9352 125.208V125.208L80.8972 86.7877C80.8972 86.7877 81.4192 82.6927 81.1382 75.9427V75.9427C80.8562 69.1927 75.3652 59.9757 74.8032 58.3347V58.3347L72.5142 57.8837C72.5142 57.8837 71.6242 61.2357 70.7932 62.2847" fill="#ffffff"/></mask><g mask="url(#mask14_723_256136d9ae292-208a-483f-92b1-08a4770c79c9)"><path id="Fill 61" fill-rule="evenodd" clip-rule="evenodd" d="M76.2076 67.3272C76.4116 67.2092 76.6096 67.0812 76.8196 66.9752C78.5696 66.0932 79.8956 66.9202 79.8876 68.8842C79.8816 70.1782 79.6836 71.5042 80.5366 72.6562C80.6796 72.8492 80.7146 73.1752 80.5116 73.3042C80.2436 73.4732 79.9196 73.3552 79.7166 73.1072C79.2306 72.5162 79.0186 71.8012 78.9656 71.0612C78.9156 70.3612 78.9746 69.6542 78.9876 68.9502C79.0086 67.8302 78.4126 67.4052 77.3876 67.8582C75.5776 68.6572 74.3276 70.1232 73.0646 71.5652C72.9326 71.7162 72.8496 71.9152 72.7036 72.0472C72.4386 72.2842 72.1086 72.2152 71.8546 72.0602C71.4766 71.8292 71.8096 71.5722 71.9406 71.3982C73.1436 69.8132 74.5456 68.4332 76.2076 67.3272" fill="#F28DFD"/></g></g><g id="Group 66"><mask id="mask15_723_256136d9ae292-208a-483f-92b1-08a4770c79c9" style="mask-type:luminance" maskUnits="userSpaceOnUse" x="43" y="57" width="44" height="75" fill="#ffffff"><path id="Clip 65" fill-rule="evenodd" clip-rule="evenodd" d="M70.7932 62.2847C69.2152 64.2757 66.8032 65.6497 64.2432 65.7747V65.7747C60.1682 65.9727 56.1612 62.9917 55.1792 59.0307V59.0307L49.1162 60.2567L43.6152 80.9757C43.6152 80.9757 43.8892 131.488 45.9652 131.85V131.85C47.8792 132.184 81.4902 130.624 86.9352 125.208V125.208L80.8972 86.7877C80.8972 86.7877 81.4192 82.6927 81.1382 75.9427V75.9427C80.8562 69.1927 75.3652 59.9757 74.8032 58.3347V58.3347L72.5142 57.8837C72.5142 57.8837 71.6242 61.2357 70.7932 62.2847" fill="#ffffff"/></mask><g mask="url(#mask15_723_256136d9ae292-208a-483f-92b1-08a4770c79c9)"><path id="Fill 64" fill-rule="evenodd" clip-rule="evenodd" d="M66.3252 84.6836C65.6762 83.1256 64.8202 82.0846 63.6172 81.2316C65.1102 80.3716 65.8322 79.0106 66.4332 77.1966C67.0062 78.8856 67.4532 80.2986 69.0992 81.0306C67.5682 81.7876 66.9422 83.0376 66.3252 84.6836" fill="#FED21C"/></g></g><g id="Group 69"><mask id="mask16_723_256136d9ae292-208a-483f-92b1-08a4770c79c9" style="mask-type:luminance" maskUnits="userSpaceOnUse" x="43" y="57" width="44" height="75" fill="#ffffff"><path id="Clip 68" fill-rule="evenodd" clip-rule="evenodd" d="M70.7932 62.2847C69.2152 64.2757 66.8032 65.6497 64.2432 65.7747V65.7747C60.1682 65.9727 56.1612 62.9917 55.1792 59.0307V59.0307L49.1162 60.2567L43.6152 80.9757C43.6152 80.9757 43.8892 131.488 45.9652 131.85V131.85C47.8792 132.184 81.4902 130.624 86.9352 125.208V125.208L80.8972 86.7877C80.8972 86.7877 81.4192 82.6927 81.1382 75.9427V75.9427C80.8562 69.1927 75.3652 59.9757 74.8032 58.3347V58.3347L72.5142 57.8837C72.5142 57.8837 71.6242 61.2357 70.7932 62.2847" fill="#ffffff"/></mask><g mask="url(#mask16_723_256136d9ae292-208a-483f-92b1-08a4770c79c9)"><path id="Fill 67" fill-rule="evenodd" clip-rule="evenodd" d="M81.8945 107.426C81.9425 107.742 81.6955 108.183 82.0215 108.35C82.3415 108.513 82.6025 108.129 82.8615 107.93C82.9145 107.889 82.9555 107.821 83.0145 107.802C83.3685 107.695 83.7765 107.192 84.0705 107.653C84.3095 108.028 83.7345 108.206 83.5035 108.457C83.4615 108.504 83.3825 108.515 83.3265 108.55C82.1485 109.29 82.1535 109.342 83.4195 110.017C83.5965 110.111 83.7615 110.226 83.9325 110.331C84.1165 110.446 84.2685 110.582 84.1185 110.813C84.0085 110.982 83.8165 110.968 83.6645 110.903C83.2635 110.731 82.8565 110.562 82.4845 110.338C81.9175 109.998 81.7755 110.235 81.8025 110.778C81.8105 110.946 81.8185 111.114 81.8065 111.281C81.7845 111.591 81.7215 111.968 81.3675 111.974C80.9055 111.982 81.0885 111.545 81.0425 111.277C80.9895 110.962 81.1705 110.505 80.7895 110.389C80.5825 110.326 80.2605 110.61 80.0035 110.759C79.8305 110.86 79.6875 111.011 79.5195 111.119C79.2855 111.27 78.9965 111.409 78.7905 111.151C78.5335 110.829 78.8805 110.683 79.0805 110.534C79.3755 110.315 79.6755 110.088 80.0035 109.925C80.7255 109.569 80.4995 109.337 79.9755 108.987C79.6045 108.739 78.6765 108.762 78.9845 108.154C79.2735 107.582 79.9365 108.184 80.3815 108.386C80.9595 108.648 81.2015 108.564 81.1515 107.905C81.1395 107.738 81.1255 107.567 81.1495 107.403C81.2055 107.002 81.0095 106.322 81.5945 106.355C82.2315 106.391 81.8145 107.049 81.8945 107.426" fill="#FED21C"/></g></g><g id="Group 72"><mask id="mask17_723_256136d9ae292-208a-483f-92b1-08a4770c79c9" style="mask-type:luminance" maskUnits="userSpaceOnUse" x="43" y="57" width="44" height="75" fill="#ffffff"><path id="Clip 71" fill-rule="evenodd" clip-rule="evenodd" d="M70.7932 62.2847C69.2152 64.2757 66.8032 65.6497 64.2432 65.7747V65.7747C60.1682 65.9727 56.1612 62.9917 55.1792 59.0307V59.0307L49.1162 60.2567L43.6152 80.9757C43.6152 80.9757 43.8892 131.488 45.9652 131.85V131.85C47.8792 132.184 81.4902 130.624 86.9352 125.208V125.208L80.8972 86.7877C80.8972 86.7877 81.4192 82.6927 81.1382 75.9427V75.9427C80.8562 69.1927 75.3652 59.9757 74.8032 58.3347V58.3347L72.5142 57.8837C72.5142 57.8837 71.6242 61.2357 70.7932 62.2847" fill="#ffffff"/></mask><g mask="url(#mask17_723_256136d9ae292-208a-483f-92b1-08a4770c79c9)"><path id="Fill 70" fill-rule="evenodd" clip-rule="evenodd" d="M45.2773 116.886C45.9453 116.505 46.5893 116.197 47.0303 115.643C47.4643 115.097 47.8543 114.516 48.3433 113.839C48.6033 114.982 48.9443 115.998 49.6123 116.864C49.7953 117.1 49.7523 117.286 49.5263 117.459C48.6343 118.141 48.0033 119.035 47.4193 120.157C46.8863 118.875 46.2323 117.817 45.2773 116.886" fill="#FED21C"/></g></g><g id="Group 75"><mask id="mask18_723_256136d9ae292-208a-483f-92b1-08a4770c79c9" style="mask-type:luminance" maskUnits="userSpaceOnUse" x="43" y="57" width="44" height="75" fill="#ffffff"><path id="Clip 74" fill-rule="evenodd" clip-rule="evenodd" d="M70.7932 62.2847C69.2152 64.2757 66.8032 65.6497 64.2432 65.7747V65.7747C60.1682 65.9727 56.1612 62.9917 55.1792 59.0307V59.0307L49.1162 60.2567L43.6152 80.9757C43.6152 80.9757 43.8892 131.488 45.9652 131.85V131.85C47.8792 132.184 81.4902 130.624 86.9352 125.208V125.208L80.8972 86.7877C80.8972 86.7877 81.4192 82.6927 81.1382 75.9427V75.9427C80.8562 69.1927 75.3652 59.9757 74.8032 58.3347V58.3347L72.5142 57.8837C72.5142 57.8837 71.6242 61.2357 70.7932 62.2847" fill="#ffffff"/></mask><g mask="url(#mask18_723_256136d9ae292-208a-483f-92b1-08a4770c79c9)"><path id="Fill 73" fill-rule="evenodd" clip-rule="evenodd" d="M79.1001 78.1475C78.1931 78.1725 77.3441 77.4365 77.3341 76.6165C77.3251 75.8495 78.0751 75.0445 78.8291 75.0125C79.7081 74.9745 80.6561 75.7195 80.6841 76.4715C80.7211 77.4335 80.0721 78.1205 79.1001 78.1475" fill="#C2F5FF"/></g></g><g id="Group 78"><mask id="mask19_723_256136d9ae292-208a-483f-92b1-08a4770c79c9" style="mask-type:luminance" maskUnits="userSpaceOnUse" x="43" y="57" width="44" height="75" fill="#ffffff"><path id="Clip 77" fill-rule="evenodd" clip-rule="evenodd" d="M70.7932 62.2847C69.2152 64.2757 66.8032 65.6497 64.2432 65.7747V65.7747C60.1682 65.9727 56.1612 62.9917 55.1792 59.0307V59.0307L49.1162 60.2567L43.6152 80.9757C43.6152 80.9757 43.8892 131.488 45.9652 131.85V131.85C47.8792 132.184 81.4902 130.624 86.9352 125.208V125.208L80.8972 86.7877C80.8972 86.7877 81.4192 82.6927 81.1382 75.9427V75.9427C80.8562 69.1927 75.3652 59.9757 74.8032 58.3347V58.3347L72.5142 57.8837C72.5142 57.8837 71.6242 61.2357 70.7932 62.2847" fill="#ffffff"/></mask><g mask="url(#mask19_723_256136d9ae292-208a-483f-92b1-08a4770c79c9)"><path id="Fill 76" fill-rule="evenodd" clip-rule="evenodd" d="M53.3526 119.757C52.5816 119.788 52.1306 119.405 52.0626 118.657C51.9906 117.871 52.9016 116.892 53.6466 116.884C54.5446 116.875 55.0036 117.294 55.0076 118.125C55.0126 119.071 54.3176 119.757 53.3526 119.757" fill="#EEC9E8"/></g></g><g id="Group 81"><mask id="mask20_723_256136d9ae292-208a-483f-92b1-08a4770c79c9" style="mask-type:luminance" maskUnits="userSpaceOnUse" x="43" y="57" width="44" height="75" fill="#ffffff"><path id="Clip 80" fill-rule="evenodd" clip-rule="evenodd" d="M70.7932 62.2847C69.2152 64.2757 66.8032 65.6497 64.2432 65.7747V65.7747C60.1682 65.9727 56.1612 62.9917 55.1792 59.0307V59.0307L49.1162 60.2567L43.6152 80.9757C43.6152 80.9757 43.8892 131.488 45.9652 131.85V131.85C47.8792 132.184 81.4902 130.624 86.9352 125.208V125.208L80.8972 86.7877C80.8972 86.7877 81.4192 82.6927 81.1382 75.9427V75.9427C80.8562 69.1927 75.3652 59.9757 74.8032 58.3347V58.3347L72.5142 57.8837C72.5142 57.8837 71.6242 61.2357 70.7932 62.2847" fill="#ffffff"/></mask><g mask="url(#mask20_723_256136d9ae292-208a-483f-92b1-08a4770c79c9)"><path id="Fill 79" fill-rule="evenodd" clip-rule="evenodd" d="M75.8154 70.2949C76.9544 69.6259 77.6784 69.9499 77.9204 71.1829C78.0044 71.6079 78.0444 72.0439 78.0944 72.4759C78.1264 72.7549 78.1314 73.0389 77.7374 73.0539C77.3634 73.0679 77.0614 72.9819 77.0884 72.5099C77.0904 72.4769 77.0864 72.4419 77.0784 72.4089C76.9754 71.9819 77.3014 71.3049 76.7384 71.1769C76.2004 71.0549 75.8354 71.6529 75.4624 72.0279C75.1254 72.3669 74.9774 73.2469 74.3104 72.7159C73.8234 72.3269 74.4724 71.8239 74.6574 71.4089C74.8924 70.8819 75.4314 70.5919 75.8154 70.2949" fill="#F28DFD"/></g></g><g id="Group 84"><mask id="mask21_723_256136d9ae292-208a-483f-92b1-08a4770c79c9" style="mask-type:luminance" maskUnits="userSpaceOnUse" x="43" y="57" width="44" height="75" fill="#ffffff"><path id="Clip 83" fill-rule="evenodd" clip-rule="evenodd" d="M70.7932 62.2847C69.2152 64.2757 66.8032 65.6497 64.2432 65.7747V65.7747C60.1682 65.9727 56.1612 62.9917 55.1792 59.0307V59.0307L49.1162 60.2567L43.6152 80.9757C43.6152 80.9757 43.8892 131.488 45.9652 131.85V131.85C47.8792 132.184 81.4902 130.624 86.9352 125.208V125.208L80.8972 86.7877C80.8972 86.7877 81.4192 82.6927 81.1382 75.9427V75.9427C80.8562 69.1927 75.3652 59.9757 74.8032 58.3347V58.3347L72.5142 57.8837C72.5142 57.8837 71.6242 61.2357 70.7932 62.2847" fill="#ffffff"/></mask><g mask="url(#mask21_723_256136d9ae292-208a-483f-92b1-08a4770c79c9)"><path id="Fill 82" fill-rule="evenodd" clip-rule="evenodd" d="M71.2576 78.6797C70.6546 78.7257 70.3806 78.3617 70.3676 77.8427C70.3516 77.1817 70.7666 76.7597 71.4006 76.7107C71.9826 76.6667 72.3626 77.0727 72.3596 77.6357C72.3566 78.2977 71.9206 78.6427 71.2576 78.6797" fill="#C2F5FF"/></g></g><g id="Group 87"><mask id="mask22_723_256136d9ae292-208a-483f-92b1-08a4770c79c9" style="mask-type:luminance" maskUnits="userSpaceOnUse" x="43" y="57" width="44" height="75" fill="#ffffff"><path id="Clip 86" fill-rule="evenodd" clip-rule="evenodd" d="M70.7932 62.2847C69.2152 64.2757 66.8032 65.6497 64.2432 65.7747V65.7747C60.1682 65.9727 56.1612 62.9917 55.1792 59.0307V59.0307L49.1162 60.2567L43.6152 80.9757C43.6152 80.9757 43.8892 131.488 45.9652 131.85V131.85C47.8792 132.184 81.4902 130.624 86.9352 125.208V125.208L80.8972 86.7877C80.8972 86.7877 81.4192 82.6927 81.1382 75.9427V75.9427C80.8562 69.1927 75.3652 59.9757 74.8032 58.3347V58.3347L72.5142 57.8837C72.5142 57.8837 71.6242 61.2357 70.7932 62.2847" fill="#ffffff"/></mask><g mask="url(#mask22_723_256136d9ae292-208a-483f-92b1-08a4770c79c9)"><path id="Fill 85" fill-rule="evenodd" clip-rule="evenodd" d="M75.2286 60.8828C75.1056 61.3598 74.8946 61.7558 74.3156 61.7468C73.8146 61.7378 73.6036 61.4218 73.6336 60.9638C73.6716 60.3998 74.0636 60.1578 74.5756 60.1548C75.0126 60.1528 75.2016 60.4618 75.2286 60.8828" fill="#FED21C"/></g></g><g id="Group 90"><mask id="mask23_723_256136d9ae292-208a-483f-92b1-08a4770c79c9" style="mask-type:luminance" maskUnits="userSpaceOnUse" x="43" y="57" width="44" height="75" fill="#ffffff"><path id="Clip 89" fill-rule="evenodd" clip-rule="evenodd" d="M70.7932 62.2847C69.2152 64.2757 66.8032 65.6497 64.2432 65.7747V65.7747C60.1682 65.9727 56.1612 62.9917 55.1792 59.0307V59.0307L49.1162 60.2567L43.6152 80.9757C43.6152 80.9757 43.8892 131.488 45.9652 131.85V131.85C47.8792 132.184 81.4902 130.624 86.9352 125.208V125.208L80.8972 86.7877C80.8972 86.7877 81.4192 82.6927 81.1382 75.9427V75.9427C80.8562 69.1927 75.3652 59.9757 74.8032 58.3347V58.3347L72.5142 57.8837C72.5142 57.8837 71.6242 61.2357 70.7932 62.2847" fill="#ffffff"/></mask><g mask="url(#mask23_723_256136d9ae292-208a-483f-92b1-08a4770c79c9)"><path id="Fill 88" fill-rule="evenodd" clip-rule="evenodd" d="M75.736 107.021C76.235 107.125 76.689 107.318 76.679 107.888C76.67 108.491 76.315 108.913 75.681 108.9C75.152 108.888 74.793 108.525 74.793 107.999C74.792 107.423 75.187 107.118 75.736 107.021" fill="#C2F5FF"/></g></g><g id="Group 93"><mask id="mask24_723_256136d9ae292-208a-483f-92b1-08a4770c79c9" style="mask-type:luminance" maskUnits="userSpaceOnUse" x="43" y="57" width="44" height="75" fill="#ffffff"><path id="Clip 92" fill-rule="evenodd" clip-rule="evenodd" d="M70.7932 62.2847C69.2152 64.2757 66.8032 65.6497 64.2432 65.7747V65.7747C60.1682 65.9727 56.1612 62.9917 55.1792 59.0307V59.0307L49.1162 60.2567L43.6152 80.9757C43.6152 80.9757 43.8892 131.488 45.9652 131.85V131.85C47.8792 132.184 81.4902 130.624 86.9352 125.208V125.208L80.8972 86.7877C80.8972 86.7877 81.4192 82.6927 81.1382 75.9427V75.9427C80.8562 69.1927 75.3652 59.9757 74.8032 58.3347V58.3347L72.5142 57.8837C72.5142 57.8837 71.6242 61.2357 70.7932 62.2847" fill="#ffffff"/></mask><g mask="url(#mask24_723_256136d9ae292-208a-483f-92b1-08a4770c79c9)"><path id="Fill 91" fill-rule="evenodd" clip-rule="evenodd" d="M81.4014 102.503C81.3444 102.955 81.1354 103.269 80.6514 103.275C80.2774 103.28 79.9844 103.091 79.9714 102.697C79.9574 102.258 80.1564 101.913 80.6524 101.888C81.0714 101.866 81.3494 102.06 81.4014 102.503" fill="#C2F5FF"/></g></g><g id="Group 96"><mask id="mask25_723_256136d9ae292-208a-483f-92b1-08a4770c79c9" style="mask-type:luminance" maskUnits="userSpaceOnUse" x="43" y="57" width="44" height="75" fill="#ffffff"><path id="Clip 95" fill-rule="evenodd" clip-rule="evenodd" d="M70.7932 62.2847C69.2152 64.2757 66.8032 65.6497 64.2432 65.7747V65.7747C60.1682 65.9727 56.1612 62.9917 55.1792 59.0307V59.0307L49.1162 60.2567L43.6152 80.9757C43.6152 80.9757 43.8892 131.488 45.9652 131.85V131.85C47.8792 132.184 81.4902 130.624 86.9352 125.208V125.208L80.8972 86.7877C80.8972 86.7877 81.4192 82.6927 81.1382 75.9427V75.9427C80.8562 69.1927 75.3652 59.9757 74.8032 58.3347V58.3347L72.5142 57.8837C72.5142 57.8837 71.6242 61.2357 70.7932 62.2847" fill="#ffffff"/></mask><g mask="url(#mask25_723_256136d9ae292-208a-483f-92b1-08a4770c79c9)"><path id="Fill 94" fill-rule="evenodd" clip-rule="evenodd" d="M64.4607 70.1856C63.8977 70.1616 63.5607 69.8856 63.5227 69.3416C63.4837 68.7886 63.8117 68.4526 64.3357 68.4076C64.8807 68.3606 65.2217 68.6836 65.2397 69.2316C65.2567 69.7526 65.0007 70.1116 64.4607 70.1856" fill="#FED21C"/></g></g><g id="Group 99"><mask id="mask26_723_256136d9ae292-208a-483f-92b1-08a4770c79c9" style="mask-type:luminance" maskUnits="userSpaceOnUse" x="43" y="57" width="44" height="75" fill="#ffffff"><path id="Clip 98" fill-rule="evenodd" clip-rule="evenodd" d="M70.7932 62.2847C69.2152 64.2757 66.8032 65.6497 64.2432 65.7747V65.7747C60.1682 65.9727 56.1612 62.9917 55.1792 59.0307V59.0307L49.1162 60.2567L43.6152 80.9757C43.6152 80.9757 43.8892 131.488 45.9652 131.85V131.85C47.8792 132.184 81.4902 130.624 86.9352 125.208V125.208L80.8972 86.7877C80.8972 86.7877 81.4192 82.6927 81.1382 75.9427V75.9427C80.8562 69.1927 75.3652 59.9757 74.8032 58.3347V58.3347L72.5142 57.8837C72.5142 57.8837 71.6242 61.2357 70.7932 62.2847" fill="#ffffff"/></mask><g mask="url(#mask26_723_256136d9ae292-208a-483f-92b1-08a4770c79c9)"><path id="Fill 97" fill-rule="evenodd" clip-rule="evenodd" d="M66.132 88.5674C66.549 88.6414 66.809 88.9144 66.806 89.3164C66.803 89.6844 66.527 89.9634 66.15 89.9314C65.791 89.9024 65.525 89.6184 65.514 89.2524C65.503 88.8834 65.737 88.6334 66.132 88.5674" fill="#C2F5FF"/></g></g><g id="Group 102"><mask id="mask27_723_256136d9ae292-208a-483f-92b1-08a4770c79c9" style="mask-type:luminance" maskUnits="userSpaceOnUse" x="43" y="57" width="44" height="75" fill="#ffffff"><path id="Clip 101" fill-rule="evenodd" clip-rule="evenodd" d="M70.7932 62.2847C69.2152 64.2757 66.8032 65.6497 64.2432 65.7747V65.7747C60.1682 65.9727 56.1612 62.9917 55.1792 59.0307V59.0307L49.1162 60.2567L43.6152 80.9757C43.6152 80.9757 43.8892 131.488 45.9652 131.85V131.85C47.8792 132.184 81.4902 130.624 86.9352 125.208V125.208L80.8972 86.7877C80.8972 86.7877 81.4192 82.6927 81.1382 75.9427V75.9427C80.8562 69.1927 75.3652 59.9757 74.8032 58.3347V58.3347L72.5142 57.8837C72.5142 57.8837 71.6242 61.2357 70.7932 62.2847" fill="#ffffff"/></mask><g mask="url(#mask27_723_256136d9ae292-208a-483f-92b1-08a4770c79c9)"><path id="Fill 100" fill-rule="evenodd" clip-rule="evenodd" d="M76.7795 126.632C76.7055 126.599 76.6305 126.566 76.5565 126.533C76.6315 126.566 76.7055 126.599 76.7795 126.632" fill="#EEC9E8"/></g></g><g id="Group 105"><mask id="mask28_723_256136d9ae292-208a-483f-92b1-08a4770c79c9" style="mask-type:luminance" maskUnits="userSpaceOnUse" x="43" y="57" width="44" height="75" fill="#ffffff"><path id="Clip 104" fill-rule="evenodd" clip-rule="evenodd" d="M70.7932 62.2847C69.2152 64.2757 66.8032 65.6497 64.2432 65.7747V65.7747C60.1682 65.9727 56.1612 62.9917 55.1792 59.0307V59.0307L49.1162 60.2567L43.6152 80.9757C43.6152 80.9757 43.8892 131.488 45.9652 131.85V131.85C47.8792 132.184 81.4902 130.624 86.9352 125.208V125.208L80.8972 86.7877C80.8972 86.7877 81.4192 82.6927 81.1382 75.9427V75.9427C80.8562 69.1927 75.3652 59.9757 74.8032 58.3347V58.3347L72.5142 57.8837C72.5142 57.8837 71.6242 61.2357 70.7932 62.2847V62.2847Z" fill="#ffffff"/></mask><g mask="url(#mask28_723_256136d9ae292-208a-483f-92b1-08a4770c79c9)"><path id="Fill 103" fill-rule="evenodd" clip-rule="evenodd" d="M60.382 85.7842C60.281 85.7842 60.18 85.7832 60.079 85.7842C58.483 85.8042 58.397 85.9362 59.03 87.3652C59.207 87.7632 59.373 88.1702 59.509 88.5832C59.615 88.9032 59.712 89.3002 59.292 89.4452C58.91 89.5782 58.791 89.1992 58.669 88.9312C58.417 88.3822 58.194 87.8182 57.94 87.2702C57.684 86.7192 57.354 86.6762 56.975 87.1692C56.566 87.7022 56.161 88.2392 55.616 88.6502C55.444 88.7802 55.279 88.8932 55.085 88.7232C54.91 88.5702 54.888 88.3522 55.012 88.1752C55.357 87.6792 55.735 87.2072 56.084 86.7152C56.571 86.0262 56.439 85.7202 55.595 85.5852C55.131 85.5102 54.661 85.4692 54.195 85.4032C53.989 85.3752 53.773 85.3072 53.79 85.0502C53.806 84.8052 54.026 84.7202 54.226 84.7112C54.864 84.6842 55.504 84.6862 56.142 84.6782C56.702 84.6702 56.857 84.3782 56.666 83.8882C56.471 83.3882 56.238 82.9022 56.033 82.4052C55.894 82.0672 55.657 81.6312 56.108 81.4312C56.59 81.2192 56.682 81.7772 56.85 82.0592C57.088 82.4612 57.253 82.9082 57.437 83.3412C57.735 84.0372 58.088 84.2782 58.619 83.5272C58.967 83.0352 59.332 82.5542 59.703 82.0792C59.925 81.7942 60.164 81.3802 60.588 81.6992C60.967 81.9852 60.788 82.3512 60.535 82.6692C60.201 83.0902 59.855 83.5032 59.555 83.9472C59.184 84.4972 59.352 84.8252 60.024 84.8632C60.492 84.8902 60.965 84.8782 61.431 84.9322C61.68 84.9612 62.019 85.0062 61.986 85.3812C61.957 85.7142 61.672 85.7942 61.391 85.8062C61.055 85.8222 60.718 85.8102 60.382 85.8102V85.7842Z" fill="#C2F5FF"/></g></g><g id="Group 108"><mask id="mask29_723_256136d9ae292-208a-483f-92b1-08a4770c79c9" style="mask-type:luminance" maskUnits="userSpaceOnUse" x="43" y="57" width="44" height="75" fill="#ffffff"><path id="Clip 107" fill-rule="evenodd" clip-rule="evenodd" d="M70.7932 62.2847C69.2152 64.2757 66.8032 65.6497 64.2432 65.7747V65.7747C60.1682 65.9727 56.1612 62.9917 55.1792 59.0307V59.0307L49.1162 60.2567L43.6152 80.9757C43.6152 80.9757 43.8892 131.488 45.9652 131.85V131.85C47.8792 132.184 81.4902 130.624 86.9352 125.208V125.208L80.8972 86.7877C80.8972 86.7877 81.4192 82.6927 81.1382 75.9427V75.9427C80.8562 69.1927 75.3652 59.9757 74.8032 58.3347V58.3347L72.5142 57.8837C72.5142 57.8837 71.6242 61.2357 70.7932 62.2847" fill="#ffffff"/></mask><g mask="url(#mask29_723_256136d9ae292-208a-483f-92b1-08a4770c79c9)"><path id="Fill 106" fill-rule="evenodd" clip-rule="evenodd" d="M68.752 96.2949C68.883 96.2339 69.026 96.2419 69.163 96.2329C69.575 96.2039 69.987 96.1819 70.398 96.1539C70.451 96.1509 70.524 96.1809 70.546 96.1079C70.565 96.0479 70.508 96.0069 70.472 95.9649C70.195 95.6409 69.917 95.3159 69.64 94.9929C69.59 94.9349 69.541 94.8759 69.475 94.7979C69.631 94.7699 69.729 94.8449 69.827 94.8959C70.162 95.0679 70.494 95.2469 70.822 95.4309C70.948 95.5019 71.004 95.4919 71.041 95.3389C71.152 94.8689 71.293 94.4059 71.451 93.9499C71.469 93.8979 71.476 93.8379 71.538 93.8119C71.613 93.8539 71.581 93.9259 71.584 93.9829C71.607 94.4809 71.596 94.9789 71.638 95.4749C71.653 95.6479 71.701 95.6609 71.845 95.5979C72.281 95.4059 72.72 95.2239 73.16 95.0409C73.249 95.0049 73.337 94.9539 73.493 94.9739C73.331 95.1109 73.197 95.2279 73.061 95.3379C72.763 95.5799 72.466 95.8239 72.162 96.0589C72.028 96.1609 72.034 96.2139 72.186 96.2899C72.606 96.4989 73.02 96.7199 73.436 96.9369C73.491 96.9659 73.556 96.9819 73.598 97.0619C73.508 97.1009 73.421 97.0839 73.334 97.0729C72.911 97.0179 72.486 96.9709 72.065 96.9029C71.888 96.8739 71.843 96.9229 71.844 97.0959C71.85 97.6359 71.84 98.1769 71.836 98.7169C71.835 98.7699 71.856 98.8299 71.788 98.8799C71.686 98.7529 71.651 98.5989 71.605 98.4559C71.483 98.0859 71.376 97.7099 71.276 97.3319C71.229 97.1519 71.169 97.1659 71.061 97.2809C70.711 97.6539 70.359 98.0249 70.008 98.3969C69.98 98.4269 69.948 98.4529 69.905 98.4929C69.846 98.2869 69.979 98.1459 70.037 97.9959C70.164 97.6669 70.318 97.3469 70.479 97.0319C70.551 96.8929 70.518 96.8519 70.379 96.8159C69.892 96.6869 69.407 96.5499 68.922 96.4119C68.86 96.3949 68.773 96.4009 68.752 96.2949" fill="#FED21C"/></g></g><g id="Group 111"><mask id="mask30_723_256136d9ae292-208a-483f-92b1-08a4770c79c9" style="mask-type:luminance" maskUnits="userSpaceOnUse" x="43" y="57" width="44" height="75" fill="#ffffff"><path id="Clip 110" fill-rule="evenodd" clip-rule="evenodd" d="M70.7932 62.2847C69.2152 64.2757 66.8032 65.6497 64.2432 65.7747V65.7747C60.1682 65.9727 56.1612 62.9917 55.1792 59.0307V59.0307L49.1162 60.2567L43.6152 80.9757C43.6152 80.9757 43.8892 131.488 45.9652 131.85V131.85C47.8792 132.184 81.4902 130.624 86.9352 125.208V125.208L80.8972 86.7877C80.8972 86.7877 81.4192 82.6927 81.1382 75.9427V75.9427C80.8562 69.1927 75.3652 59.9757 74.8032 58.3347V58.3347L72.5142 57.8837C72.5142 57.8837 71.6242 61.2357 70.7932 62.2847" fill="#ffffff"/></mask><g mask="url(#mask30_723_256136d9ae292-208a-483f-92b1-08a4770c79c9)"><path id="Fill 109" fill-rule="evenodd" clip-rule="evenodd" d="M52.959 66.2197C53.09 66.1597 53.233 66.1677 53.37 66.1577C53.782 66.1287 54.193 66.1067 54.605 66.0797C54.658 66.0767 54.731 66.1057 54.753 66.0337C54.772 65.9737 54.714 65.9327 54.679 65.8897C54.402 65.5657 54.124 65.2417 53.847 64.9177C53.797 64.8607 53.748 64.8017 53.682 64.7237C53.838 64.6957 53.936 64.7707 54.034 64.8217C54.369 64.9937 54.7 65.1717 55.028 65.3567C55.155 65.4277 55.211 65.4167 55.248 65.2647C55.359 64.7937 55.499 64.3317 55.657 63.8747C55.676 63.8227 55.682 63.7637 55.745 63.7377C55.819 63.7787 55.788 63.8507 55.791 63.9087C55.814 64.4067 55.803 64.9037 55.845 65.4007C55.86 65.5737 55.908 65.5857 56.052 65.5237C56.487 65.3317 56.927 65.1487 57.367 64.9667C57.456 64.9297 57.544 64.8787 57.7 64.8987C57.537 65.0357 57.404 65.1527 57.268 65.2637C56.97 65.5057 56.673 65.7497 56.369 65.9837C56.235 66.0867 56.241 66.1397 56.393 66.2147C56.812 66.4247 57.226 66.6457 57.643 66.8627C57.698 66.8917 57.763 66.9077 57.805 66.9867C57.715 67.0267 57.628 67.0097 57.541 66.9977C57.118 66.9427 56.693 66.8967 56.272 66.8277C56.095 66.7997 56.049 66.8477 56.051 67.0217C56.057 67.5617 56.047 68.1017 56.042 68.6417C56.042 68.6957 56.063 68.7557 55.995 68.8047C55.893 68.6777 55.858 68.5237 55.812 68.3817C55.69 68.0107 55.582 67.6357 55.483 67.2577C55.436 67.0767 55.376 67.0907 55.268 67.2057C54.918 67.5797 54.566 67.9507 54.215 68.3227C54.187 68.3517 54.155 68.3777 54.112 68.4187C54.052 68.2117 54.186 68.0717 54.243 67.9207C54.37 67.5917 54.525 67.2727 54.686 66.9577C54.758 66.8177 54.725 66.7777 54.586 66.7407C54.099 66.6127 53.613 66.4747 53.128 66.3367C53.067 66.3197 52.98 66.3267 52.959 66.2197" fill="#FED21C"/></g></g></g><g id="Group 127"><path id="Fill 113" fill-rule="evenodd" clip-rule="evenodd" d="M49.9351 64.9648C49.9351 64.9648 49.3591 72.2228 52.2121 73.8748L52.9011 76.2728C54.6731 87.1118 57.5071 98.0688 60.6531 108.183C67.8091 111.7 75.0781 114.992 82.4451 118.042C84.7301 118.988 87.9691 119.505 90.0331 120.681C91.8271 121.703 92.7111 123.69 91.3191 125.351C89.7511 127.222 85.8851 126.147 83.9421 125.905C77.5931 125.118 71.3301 123.692 65.2151 121.819C61.2051 120.601 57.3011 119.197 53.5471 117.688C51.5461 116.884 49.9771 115.268 49.2371 113.242C47.5221 108.551 46.0941 104.053 44.9201 99.9348C42.0361 89.7708 41.7021 81.9308 41.3541 79.2628C40.6441 73.7578 43.7291 64.8828 49.9351 64.9648" fill="#9f91ca"/><path id="Fill 115" fill-rule="evenodd" clip-rule="evenodd" d="M99.7206 129.986C98.2786 130.135 94.4386 128.54 93.2366 128.324C92.0396 128.105 88.5836 126.101 88.5836 126.101L87.2656 119.559L92.5676 121.199C95.3576 120.791 100.077 120.155 100.429 120.867C100.766 121.555 97.6886 122.868 97.0256 123.125L96.9626 123.147C96.9236 123.161 96.9356 123.179 96.9906 123.209C97.6206 123.511 104.086 124.606 104.086 125.423C104.082 125.671 103.85 126.132 103.484 126.666C103.459 126.702 103.433 126.739 103.404 126.777C103.128 127.167 102.789 127.591 102.421 127.999C102.391 128.037 102.36 128.071 102.323 128.106C101.953 128.508 101.556 128.893 101.171 129.209C101.128 129.24 101.09 129.271 101.052 129.301C100.561 129.687 100.092 129.95 99.7206 129.986" fill="#9f91ca"/><path id="Fill 117" fill-rule="evenodd" clip-rule="evenodd" d="M93.4607 124.943C93.4607 124.942 93.4597 124.941 93.4597 124.939C93.4497 124.906 93.4687 124.87 93.5027 124.859C95.0237 124.411 96.9057 123.11 96.9237 123.097C96.9537 123.077 96.9937 123.084 97.0137 123.113C97.0337 123.141 97.0267 123.182 96.9977 123.203C96.9787 123.216 95.0807 124.529 93.5397 124.983C93.5067 124.993 93.4717 124.975 93.4607 124.943" fill="#9f91ca"/><path id="Fill 119" fill-rule="evenodd" clip-rule="evenodd" d="M103.403 126.777L97.4473 125.06C97.4273 125.05 97.4133 125.04 97.4053 125.02C97.4003 125.006 97.4023 124.994 97.4063 124.976C97.4173 124.945 97.4493 124.927 97.4853 124.936L103.483 126.666C103.458 126.702 103.433 126.739 103.403 126.777" fill="#9f91ca"/><path id="Fill 121" fill-rule="evenodd" clip-rule="evenodd" d="M102.321 128.106L97.1993 126.481C97.1813 126.477 97.1643 126.46 97.1573 126.442C97.1543 126.432 97.1543 126.416 97.1543 126.404C97.1683 126.366 97.2003 126.349 97.2373 126.358L102.419 127.999C102.389 128.037 102.358 128.071 102.321 128.106" fill="#9f91ca"/><path id="Fill 123" fill-rule="evenodd" clip-rule="evenodd" d="M101.051 129.302L96.546 127.881C96.526 127.872 96.509 127.856 96.504 127.841C96.499 127.827 96.498 127.811 96.505 127.797C96.515 127.766 96.55 127.742 96.583 127.758L101.171 129.209C101.128 129.24 101.089 129.272 101.051 129.302" fill="#9f91ca"/><path id="Fill 125" fill-rule="evenodd" clip-rule="evenodd" d="M44.3514 62.3457C44.3514 62.3457 48.6874 59.6387 51.0574 60.2427C53.8144 64.6157 61.5344 105.516 62.5204 106.669C63.8484 108.223 82.7334 114.275 88.3204 115.839C88.6554 118.277 87.7514 120.773 86.2604 122.729C84.7684 124.685 82.7304 126.159 80.6014 127.392C79.9804 127.752 79.3294 128.1 78.6174 128.186C77.9754 128.263 77.3304 128.121 76.7014 127.977C69.7884 126.391 50.0434 119.372 48.0314 116.764C45.1334 113.006 33.9264 79.9057 44.3514 62.3457" fill="#26B6E3"/></g></g><path id="Fill 16" fill-rule="evenodd" clip-rule="evenodd" d="M135.361 54.3544C134.453 55.5848 130.241 58.408 130.241 58.408L126.49 55.4462C126.49 55.4462 125.866 54.545 126.953 51.1723C128.034 47.7987 129.924 42.1223 130.92 42.1191C131.885 42.12 131.665 46.3154 131.588 47.2064L131.579 47.2901C131.574 47.3412 131.601 47.3377 131.664 47.2929C132.354 46.7487 137.161 40.0592 138.082 40.5104C138.36 40.6512 138.753 41.1689 139.152 41.8762C139.179 41.9244 139.207 41.9743 139.234 42.0291C139.522 42.5549 139.813 43.172 140.07 43.8124C140.096 43.8677 140.117 43.9218 140.135 43.9818C140.385 44.6213 140.601 45.2828 140.743 45.8903C140.756 45.957 140.77 46.0179 140.782 46.0771C140.946 46.8439 140.984 47.5187 140.82 47.9572C140.193 49.6672 136.27 53.1177 135.361 54.3544Z" fill="#9f91ca"/></g></g></g></g></g></svg>