<svg viewBox="29.5 35.400000000000006 150.45000000000005 147.5" fill="none" xmlns="http://www.w3.org/2000/svg" xmlns:xlink="http://www.w3.org/1999/xlink" overflow="visible" width="150.45000000000005px" height="147.5px"><g id="Master/Character/Torso"><g id="Group"><g id="Head" transform="translate(23.4004 24) scale(1.4 1.4000000188380113)"><g id="Head/Wavy"><g id="Head"><path id="Fill 139" fill-rule="evenodd" clip-rule="evenodd" d="M47.7468 17.6529C47.3318 14.8619 46.0538 12.0779 43.7408 10.4509C43.3268 10.1589 42.8168 9.89786 42.3298 10.0399C40.8548 10.4709 42.1258 13.0909 41.0188 14.1559C39.0798 13.1309 37.1408 12.1059 35.2018 11.0819C33.8498 10.3669 32.0268 9.70686 30.9398 10.7819C29.8568 11.8539 30.4958 13.6699 31.1928 15.0219C29.4988 15.2189 27.8048 15.4179 26.1108 15.6149C24.2278 15.8349 22.2958 16.0689 20.6148 16.9429C18.9328 17.8159 17.5288 19.4819 17.5298 21.3729C17.5298 23.2629 19.3838 25.1009 21.2218 24.6369C18.6688 25.9419 16.2928 27.5909 14.1798 29.5269C12.4988 31.0669 10.8798 33.0749 11.0868 35.3419C11.2938 37.6089 14.4448 39.3709 15.9568 37.6659C13.1428 40.0129 11.1188 43.2849 10.2768 46.8449C9.87777 48.5309 9.78877 50.4629 10.8468 51.8379C12.2838 53.7049 15.2858 53.6519 17.2608 52.3629C19.2368 51.0749 20.4318 48.9149 21.5488 46.8399C23.0648 48.5549 24.1558 50.6109 25.6728 52.3249C27.1898 54.0399 29.3478 55.4449 31.6278 55.2009C33.2078 55.0309 34.6178 53.8009 35.0638 52.2889C35.5628 50.5969 35.0618 50.8659 36.7878 50.6229C38.3558 50.4009 39.6878 49.7429 41.0518 48.9619C41.5758 48.6619 42.1058 48.3559 42.5348 47.9309C44.5998 45.8809 43.6528 43.0599 43.6498 40.5309C43.6398 32.4899 48.9518 25.7639 47.7468 17.6529" fill="#2A0952"/><path id="Fill 141" fill-rule="evenodd" clip-rule="evenodd" d="M34.8378 22.9166C34.5388 22.9906 34.2278 23.0846 34.0088 23.3016C33.5478 23.7566 33.6798 24.5186 33.8448 25.1446C33.2388 24.8976 32.6328 24.6506 32.0278 24.4046C30.4068 23.7446 28.4758 23.1056 27.0018 24.0476C26.3528 24.4616 25.8798 25.2986 26.1888 26.0036C26.5988 26.9366 32.1298 25.9796 33.1348 25.8136C32.5498 26.2526 27.5858 27.3486 26.9078 27.6196C26.2298 27.8916 25.5438 28.3696 25.4058 29.0876C25.2428 29.9426 25.9698 30.7656 26.8008 31.0276C27.0148 31.0956 27.2498 31.1356 27.4628 31.0656C27.7078 30.9866 27.8848 30.7796 28.0488 30.5816C28.6668 29.8356 32.1578 26.9826 32.7758 26.2366C31.8678 28.4886 29.2548 30.9286 28.6298 32.8996C28.1588 34.3866 29.2848 37.8396 30.7428 38.3906C32.2008 38.9416 31.5848 37.1696 33.0288 36.5846C34.1138 36.1456 35.1378 35.5586 36.0648 34.8446C36.8088 34.2706 37.4958 33.6126 38.3168 33.1576C39.9068 32.2756 41.8578 32.2296 43.4428 31.3396C44.8278 30.5626 46.1478 29.0096 46.7848 27.5536C47.4878 25.9456 45.8208 25.0946 44.5698 24.3676C41.6688 22.6806 38.1058 22.1006 34.8378 22.9166" fill="#F376DA"/><path id="Fill 143" fill-rule="evenodd" clip-rule="evenodd" d="M33.5119 42.8023C33.5119 42.8023 30.4289 40.3563 30.7689 33.7793C31.1109 27.2003 36.1129 24.4053 38.7899 24.1233C41.4679 23.8423 46.9509 24.0593 50.0829 28.8623C50.0829 28.8623 53.5439 29.5113 54.3929 34.6583C55.2419 39.8063 49.3889 41.4583 49.3889 41.4583C49.3889 41.4583 48.5429 49.9293 44.3269 50.0163C40.1119 50.1033 33.5119 42.8023 33.5119 42.8023" fill="#2A0952"/><path id="Stroke 149" d="M46.1266 29.2116L46.3205 29.2895L46.2674 29.4087C46.2433 29.4596 46.2125 29.5213 46.1748 29.593C46.0499 29.8304 45.8908 30.0945 45.6942 30.3785C45.1339 31.1883 44.386 31.9974 43.4255 32.752C41.9204 33.9344 40.0368 34.8693 37.7336 35.4672L37.2674 35.5823L37.2197 35.3788C39.7066 34.7963 41.7149 33.8301 43.2964 32.5876C44.2399 31.8463 44.9736 31.0526 45.5224 30.2596C45.714 29.9827 45.8688 29.7258 45.9898 29.4957L46.0777 29.3211L46.1266 29.2116Z" fill="#4165E3"/><path id="Stroke 151" d="M42.0193 30.024L42.1722 30.1665L42.054 30.2876C41.9353 30.4049 41.7665 30.562 41.5499 30.7483C41.0455 31.1821 40.4612 31.6157 39.8036 32.0203C38.7536 32.6665 37.6215 33.1745 36.4188 33.495L35.9645 33.6063L35.9189 33.4023C37.2675 33.1008 38.5315 32.5578 39.6941 31.8423C40.3418 31.4437 40.9173 31.0167 41.4136 30.5898L41.6453 30.3855C41.7149 30.3225 41.7767 30.2649 41.8306 30.2133L42.0193 30.024Z" fill="#4165E3"/><path id="Stroke 153" d="M43.583 36.5402L43.7663 35.4891L44.1607 35.5528C44.445 35.5956 44.7705 35.6392 45.1299 35.6829C45.4613 35.7232 45.8089 35.7622 46.162 35.7993L47.4048 35.9201L47.3125 36.9831L46.5897 36.9153C46.2289 36.8798 45.8681 36.842 45.5176 36.8025L45.001 36.7421C44.5379 36.6857 44.1276 36.6294 43.7823 36.5736L43.583 36.5402Z" fill="#2A0952"/><path id="Fill 3" fill-rule="evenodd" clip-rule="evenodd" d="M43.8897 53.8614L43.6877 61.5304C43.6217 64.2234 41.9277 65.6234 39.2777 65.5384C37.0147 65.4654 34.9277 64.2284 34.7197 61.9744L35.6177 49.9214L43.8897 53.8614Z" fill="#b3b2e6"/><path id="Fill 6" fill-rule="evenodd" clip-rule="evenodd" d="M43.7642 57.6016C38.3972 57.607 34.9902 50.6016 34.9902 50.6016L43.9252 52.6084L43.7642 57.6016Z" fill="#00023C" fill-opacity="0.18"/><path id="Fill 155" fill-rule="evenodd" clip-rule="evenodd" d="M40.001 53.609V53.609C44.421 54.328 48.629 51.428 49.337 47.838L50.958 39.358C51.846 34.859 49.573 30.557 45.105 29.521V29.521C40.531 28.462 34.594 31.034 33.534 35.607L32.305 42.442C31.355 47.728 34.769 52.396 40.001 53.609" fill="#b3b2e6"/><path id="Fill 157" fill-rule="evenodd" clip-rule="evenodd" d="M28.151 42.9449C27.716 44.8199 28.884 46.6919 30.759 47.1269C32.634 47.5609 34.506 46.3929 34.941 44.5179C35.376 42.6429 34.208 40.7709 32.333 40.3369C30.458 39.9019 28.586 41.0699 28.151 42.9449" fill="#b3b2e6"/><path id="Fill 159" fill-rule="evenodd" clip-rule="evenodd" d="M32.499 45.0162C32.499 45.0162 33.069 42.5542 30.626 42.3962Z" fill="#00023C" fill-opacity="0.18"/><path id="Fill 189" fill-rule="evenodd" clip-rule="evenodd" d="M47.7481 35.2934C47.7931 36.5914 48.0581 37.8804 48.5291 39.0904C47.3151 38.8934 46.1011 38.6944 44.8871 38.4964C44.0441 38.3594 43.1311 38.1844 42.5681 37.5424C41.6651 36.5134 42.1201 34.8634 41.5381 33.6244C40.3531 35.1124 39.7141 37.0244 39.7651 38.9264C38.4241 39.1934 37.0411 38.9064 35.7051 38.6194C34.6121 38.3854 33.3601 38.0244 32.9281 36.9944C32.6611 36.3554 32.7941 35.6254 32.9641 34.9544C33.6611 32.2064 35.1091 29.4024 37.6931 28.2374C39.6611 27.3494 41.9611 27.5694 44.0341 28.1744C46.7771 28.9744 49.5131 30.6304 50.5011 33.3114C50.7531 33.9934 50.8811 34.7144 51.0071 35.4314C51.1941 36.4924 52.5931 40.7304 50.4151 39.3144C49.4601 38.6914 47.5441 36.5694 47.7481 35.2934" fill="#2A0952"/></g></g></g><g id="Expression" transform="translate(66.7998 74.3999) scale(1.3999999364217122 1.4)"><g id="Expression/Blushing"><g id="Group 34"><path id="Fill 1" fill-rule="evenodd" clip-rule="evenodd" d="M12.505 9.0644C12.576 9.2104 12.652 9.3534 12.722 9.5004C12.744 9.5454 12.765 9.5924 12.786 9.6394C12.792 9.6524 12.831 9.7444 12.8 9.6714C12.809 9.6924 12.817 9.7124 12.826 9.7334C12.863 9.8284 12.898 9.9234 12.922 10.0224C12.928 10.0434 12.933 10.0654 12.938 10.0864C12.94 10.0964 12.953 10.1744 12.944 10.1194C12.937 10.0644 12.945 10.1354 12.945 10.1454C12.946 10.1634 12.943 10.1814 12.945 10.1994C12.947 10.2154 12.966 10.1224 12.946 10.1824C12.926 10.2454 12.966 10.1474 12.957 10.1664C12.926 10.2194 13.026 10.1004 12.961 10.1624C12.937 10.1844 12.915 10.2084 12.891 10.2294C12.876 10.2424 12.877 10.2414 12.896 10.2264C12.881 10.2374 12.866 10.2484 12.851 10.2574C12.824 10.2754 12.796 10.2924 12.767 10.3064C12.758 10.3114 12.674 10.3514 12.723 10.3304C12.693 10.3424 12.662 10.3544 12.63 10.3644C12.5 10.4094 12.365 10.4374 12.231 10.4614C12.081 10.4904 11.982 10.6794 12.027 10.8204C12.079 10.9804 12.225 11.0524 12.385 11.0234C12.711 10.9624 13.034 10.8674 13.292 10.6494C13.394 10.5624 13.48 10.4584 13.51 10.3254C13.538 10.2024 13.526 10.0824 13.504 9.9594C13.428 9.5384 13.192 9.1514 13.007 8.7714C12.94 8.6334 12.734 8.5854 12.609 8.6674C12.468 8.7574 12.433 8.9184 12.505 9.0644" fill="#00023C" fill-opacity="0.18"/><path id="Fill 3" fill-rule="evenodd" clip-rule="evenodd" d="M9.92512 6.7206C9.92512 6.7206 10.1811 7.8506 9.34512 7.5746C8.50812 7.2986 5.59912 6.4156 5.59912 6.4156C5.59912 6.4156 7.08012 4.0376 9.92512 6.7206" fill="#EFF2F9"/><path id="Fill 5" fill-rule="evenodd" clip-rule="evenodd" d="M10.2311 6.4042C10.2191 6.3742 10.2101 6.3422 10.1961 6.3112C9.42105 4.6262 7.11305 4.5642 5.69905 5.3962C5.58805 5.4622 5.46005 5.5302 5.33505 5.4972C5.24805 5.4732 5.18005 5.4052 5.11705 5.3392C4.90405 5.1142 4.62305 4.6442 4.25505 4.7522C4.06405 4.8082 4.03605 4.8812 4.00405 5.0192C3.95005 5.2532 4.45105 5.5492 4.58605 5.6742C4.86105 5.9272 5.12505 6.1772 5.44905 6.3802C5.49405 6.4072 5.54105 6.4342 5.59205 6.4422C5.67905 6.4542 5.76205 6.4092 5.83205 6.3572C6.21905 6.0712 6.44405 5.7342 6.92805 5.5652C7.18105 5.4762 7.53805 5.4162 7.78605 5.5472C7.69905 5.9892 7.29005 6.4872 7.06805 6.8882L9.60105 7.6732C9.60105 7.6732 10.5821 7.1992 10.2311 6.4042" fill="#2A0952"/><path id="Fill 7" fill-rule="evenodd" clip-rule="evenodd" d="M17.6476 8.4491L13.5806 8.0491C13.5806 8.0491 15.1466 5.9611 16.7216 6.5871C18.2966 7.2121 17.6476 8.4491 17.6476 8.4491" fill="#EFF2F9"/><g id="Group 11"><mask id="mask0_723_156814c64d16a-7d3f-4b5a-bcf0-40ae52b9563c" style="mask-type:luminance" maskUnits="userSpaceOnUse" x="13" y="6" width="7" height="3" fill="#ffffff"><path id="Clip 10" fill-rule="evenodd" clip-rule="evenodd" d="M13.1777 6.06192H19.4291V8.4493H13.1777V6.06192Z" fill="#ffffff"/></mask><g mask="url(#mask0_723_156814c64d16a-7d3f-4b5a-bcf0-40ae52b9563c)"><path id="Fill 9" fill-rule="evenodd" clip-rule="evenodd" d="M19.2513 6.6483C19.0823 6.5583 18.9233 6.6173 18.7823 6.7243C18.5483 6.9023 18.2513 7.2493 17.9743 7.0353C17.7183 6.8363 17.5823 6.5743 17.2693 6.4133C16.7153 6.1273 16.0433 6.0253 15.4253 6.0733C14.5523 6.1393 13.6223 6.5413 13.2403 7.3783C13.1663 7.5423 13.1483 7.7413 13.2393 7.8963C13.3303 8.0503 13.5483 8.1313 13.7003 8.0373C13.7673 7.9963 13.8133 7.9293 13.8563 7.8643C14.3023 7.2073 15.2733 6.4073 16.1303 6.7793C16.0013 7.2653 15.5853 7.7713 15.3503 8.2223L17.6473 8.4493C17.6473 8.4493 18.0463 8.1923 18.0823 7.7823C18.1313 7.7553 18.1803 7.7323 18.2313 7.7213C18.4753 7.4283 18.8903 7.4403 19.1623 7.1983C19.2513 7.1113 19.3403 7.0243 19.4293 6.9363C19.4263 6.8053 19.4143 6.7353 19.2513 6.6483" fill="#2A0952"/></g></g><path id="Fill 12" fill-rule="evenodd" clip-rule="evenodd" d="M9.54102 11.331C9.69702 11.434 9.88102 11.655 9.98202 11.735C10.417 12.079 10.909 12.362 11.449 12.505C11.85 12.611 12.27 12.636 12.681 12.582C12.881 12.556 13.08 12.511 13.272 12.446C13.418 12.398 13.608 12.308 13.762 12.304C13.836 12.302 13.914 12.328 13.963 12.384C14.019 12.446 14.066 12.519 14.1 12.595C14.105 12.75 14.03 12.873 13.941 12.991C13.718 13.099 13.455 13.109 13.211 13.142C12.938 13.176 12.665 13.204 12.39 13.224C12.208 13.237 12.025 13.247 11.843 13.238C11.33 13.212 10.782 13.045 10.321 12.818C10.109 12.715 9.91102 12.556 9.72102 12.415C9.62202 12.341 9.52402 12.265 9.42902 12.185C9.35902 12.127 9.18302 12.019 9.15202 11.935C9.12502 11.865 9.10002 11.795 9.07302 11.726C9.06202 11.695 9.17502 11.493 9.19402 11.458C9.23502 11.384 9.29702 11.286 9.39202 11.277C9.43502 11.272 9.48602 11.295 9.54102 11.331" fill="#2A0952"/><path id="Fill 14" fill-rule="evenodd" clip-rule="evenodd" d="M8.70975 4.162C9.45375 4.062 9.44575 2.962 8.70275 2.85C8.05675 2.754 7.23275 2.755 6.74675 3.235C5.85575 4.113 7.88975 4.253 8.68675 4.165C8.69375 4.164 8.70175 4.164 8.70975 4.162" fill="#2A0952"/><path id="Fill 16" fill-rule="evenodd" clip-rule="evenodd" d="M16.236 5.1083C15.654 4.8713 15.893 3.9803 16.518 4.0463C17.063 4.1043 17.73 4.2793 18.024 4.7703C18.56 5.6703 16.882 5.3543 16.255 5.1163C16.249 5.1133 16.242 5.1113 16.236 5.1083" fill="#2A0952"/><path id="Fill 18" fill-rule="evenodd" clip-rule="evenodd" d="M8.28715 10.0898C8.02715 10.4538 7.61815 10.7068 7.18015 10.8118C6.67415 10.9318 6.13715 10.8668 5.64815 10.6918C5.32815 10.5758 5.01815 10.4078 4.79515 10.1518C4.40915 9.7098 4.38315 8.8958 4.51215 8.3468C4.58915 8.0178 4.78015 7.7028 5.07415 7.5358C5.50615 7.2908 5.97615 7.2728 6.45015 7.3598C6.86915 7.4378 7.29315 7.5268 7.66715 7.7308C8.41215 8.1388 8.81015 9.1358 8.39615 9.9138C8.36415 9.9758 8.32715 10.0338 8.28715 10.0898" fill="#FF37B8" fill-opacity="0.5"/><path id="Fill 20" fill-rule="evenodd" clip-rule="evenodd" d="M5.19178 9.4374C5.14078 9.4374 5.08878 9.4214 5.04478 9.3894C4.93278 9.3074 4.90878 9.1514 4.98978 9.0404L5.64678 8.1404C5.72878 8.0294 5.88578 8.0054 5.99578 8.0854C6.10778 8.1674 6.13178 8.3244 6.05078 8.4354L5.39378 9.3344C5.34478 9.4024 5.26878 9.4374 5.19178 9.4374" fill="#FFD0F6"/><path id="Fill 22" fill-rule="evenodd" clip-rule="evenodd" d="M7.09498 10.1884H7.08098C6.94298 10.1804 6.83798 10.0624 6.84498 9.9244L6.90798 8.8124C6.91498 8.6744 7.02698 8.5884 7.17098 8.5764C7.30898 8.5844 7.41398 8.7024 7.40698 8.8394L7.34498 9.9524C7.33698 10.0854 7.22698 10.1884 7.09498 10.1884" fill="#FFD0F6"/><path id="Fill 24" fill-rule="evenodd" clip-rule="evenodd" d="M5.97134 9.9071C5.93234 9.9071 5.89334 9.8981 5.85734 9.8801C5.73434 9.8161 5.68534 9.6661 5.74934 9.5431L6.32934 8.4131C6.39134 8.2901 6.54333 8.2421 6.66533 8.3041C6.78834 8.3681 6.83733 8.5181 6.77333 8.6411L6.19334 9.7711C6.14934 9.8571 6.06134 9.9071 5.97134 9.9071" fill="#FFD0F6"/><path id="Fill 26" fill-rule="evenodd" clip-rule="evenodd" d="M14.9899 11.2167C15.2079 11.5227 15.5509 11.7347 15.9179 11.8207C16.3409 11.9217 16.7909 11.8677 17.2009 11.7207C17.4689 11.6237 17.7289 11.4847 17.9159 11.2697C18.2389 10.8987 18.2609 10.2167 18.1529 9.7567C18.0879 9.4807 17.9279 9.2177 17.6819 9.0777C17.3199 8.8717 16.9259 8.8567 16.5289 8.9297C16.1779 8.9947 15.8229 9.0697 15.5099 9.2397C14.8849 9.5817 14.5519 10.4167 14.8989 11.0697C14.9259 11.1207 14.9559 11.1697 14.9899 11.2167" fill="#FF37B8" fill-opacity="0.5"/><path id="Fill 28" fill-rule="evenodd" clip-rule="evenodd" d="M17.5839 10.7108C17.5069 10.7108 17.4309 10.6758 17.3819 10.6078L16.8319 9.8548C16.7499 9.7428 16.7739 9.5868 16.8859 9.5048C16.9959 9.4248 17.1529 9.4458 17.2349 9.5598L17.7859 10.3138C17.8669 10.4248 17.8429 10.5808 17.7309 10.6628C17.6869 10.6948 17.6349 10.7108 17.5839 10.7108" fill="#FFD0F6"/><path id="Fill 30" fill-rule="evenodd" clip-rule="evenodd" d="M15.9889 11.3398C15.8569 11.3398 15.7469 11.2368 15.7389 11.1038L15.6869 10.1718C15.6789 10.0338 15.7849 9.9158 15.9229 9.9078C16.0789 9.9218 16.1789 10.0068 16.1859 10.1448L16.2389 11.0758C16.2459 11.2138 16.1409 11.3318 16.0029 11.3398H15.9889Z" fill="#FFD0F6"/><path id="Fill 32" fill-rule="evenodd" clip-rule="evenodd" d="M16.9298 11.1044C16.8398 11.1044 16.7518 11.0544 16.7078 10.9684L16.2218 10.0224C16.1588 9.8994 16.2068 9.7494 16.3298 9.6854C16.4538 9.6244 16.6038 9.6714 16.6658 9.7934L17.1518 10.7404C17.2158 10.8634 17.1668 11.0134 17.0438 11.0774C17.0078 11.0954 16.9688 11.1044 16.9298 11.1044" fill="#FFD0F6"/></g></g></g><g id="Upper Body" transform="translate(-13 25.4) scale(1.4 1.3999999793800149)"><g id="Upper Body/Holding Laptop 1"><g id="Upper"><path id="Path" fill-rule="evenodd" clip-rule="evenodd" d="M48.5742 106.573V111.825L58.8444 109.971L59.5742 103.038L48.5742 106.573Z" fill="#974CCD"/><path id="Fill 191" fill-rule="evenodd" clip-rule="evenodd" d="M99.5879 74.824C99.5879 74.824 106.101 76.261 110.604 80.586L102.198 78.585L99.5879 74.824Z" fill="#C4B8EE"/><path id="Fill 193" fill-rule="evenodd" clip-rule="evenodd" d="M79.7684 86.0242C79.0314 84.4682 77.7144 82.5912 78.2764 80.8932C78.7514 79.4572 80.1704 78.2842 81.4494 77.5862C82.6044 76.9542 83.9024 76.5392 85.2194 76.5622C88.4154 76.6212 88.8144 78.7092 89.9974 81.1402C90.4834 82.1402 90.9874 83.0932 91.5214 83.9272C92.0524 84.7572 92.6034 85.4842 93.0944 85.9692C93.3364 86.2122 93.5604 86.3882 93.7244 86.5092C93.8904 86.6272 93.9944 86.6752 94.0394 86.7002C94.0614 86.7112 94.0724 86.7182 94.1074 86.7412L94.0594 86.7442L93.9634 86.7502C93.6984 86.7742 93.5114 86.8092 93.3394 86.8522C93.2644 86.8712 93.1924 86.8912 93.1264 86.9132C93.0724 86.9292 93.0084 86.9542 92.9644 86.9692C92.7774 87.0432 92.6904 87.0942 92.6434 87.1242C92.5974 87.1532 92.5994 87.1582 92.6174 87.1492C92.6374 87.1392 92.6754 87.1182 92.7274 87.0812C92.9384 86.9352 93.2864 86.6382 93.6414 86.3052C93.9994 85.9662 95.3774 87.5772 95.7584 87.1652C96.5304 86.3442 97.3064 85.4292 98.0884 84.4972C101.208 80.7392 106.499 70.6502 106.499 70.6502L113.206 74.6162C113.065 74.9472 112.935 75.2442 112.797 75.5532C112.66 75.8602 112.525 76.1672 112.383 76.4682C112.103 77.0752 111.814 77.6742 111.519 78.2732C110.93 79.4682 110.313 80.6492 109.673 81.8232C108.389 84.1692 107.012 86.4742 105.467 88.7592C104.694 89.9072 103.87 91.0382 102.954 92.1902C102.49 92.7632 102 93.3392 101.453 93.9302C100.899 94.5242 100.305 95.1252 99.4914 95.7782C99.2894 95.9412 99.0644 96.1102 98.8154 96.2832C98.5654 96.4572 98.2934 96.6342 97.9614 96.8202C97.6304 97.0042 97.2494 97.1972 96.7574 97.3802C96.6384 97.4262 96.4964 97.4732 96.3644 97.5152C96.2214 97.5592 96.0714 97.6012 95.9174 97.6402C95.5874 97.7182 95.2414 97.7852 94.8134 97.8192L94.6574 97.8302L94.5454 97.8362L94.4274 97.8402L94.1884 97.8462C94.0304 97.8522 93.8704 97.8462 93.7104 97.8442C93.3914 97.8362 93.0714 97.8142 92.7534 97.7782C92.1174 97.7072 91.4894 97.5812 90.8904 97.4102C89.6884 97.0672 88.6114 96.5492 87.6844 95.9692C86.7544 95.3882 85.9694 94.7392 85.2754 94.0832C83.8984 92.7612 82.8714 91.4052 81.9974 90.0552C81.1254 88.7052 80.4024 87.3652 79.7684 86.0242" fill="#9287C0"/><path id="Fill 195" fill-rule="evenodd" clip-rule="evenodd" d="M106.511 75.7449C107.495 77.0709 109.166 77.6899 110.795 77.4219C111.571 77.2939 112.47 77.0459 113.381 76.5829C114.012 76.2619 114.792 75.6889 115.342 75.7499C116.708 75.8979 117.206 74.9549 117.553 74.8679C117.876 75.0239 118.332 75.1609 118.891 75.0989C119.602 75.0229 120.192 74.7639 120.537 74.5759H120.539C121.898 74.5589 123.084 74.6109 123.467 74.3439C124.233 73.8109 124.978 68.5839 123.673 68.3679C121.945 68.0829 122.823 71.9369 121.245 72.6669C121.245 72.6669 122.432 67.7939 120.487 67.4339C119.159 67.1889 118.947 72.0479 117.535 72.9279C117.535 72.9279 118.873 68.4139 117.438 67.6899C116.003 66.9659 116.007 72.4079 114.542 72.5489C114.243 72.5759 115.73 68.6939 114.01 68.4839C112.29 68.2749 113.251 72.9139 108.166 72.8089C106.106 72.7669 105.27 74.0709 106.511 75.7449" fill="#9287C0"/><path id="Fill 197" fill-rule="evenodd" clip-rule="evenodd" d="M89.6927 73.3719H126.889C127.841 73.3719 128.613 72.6009 128.613 71.6479C128.613 70.6959 127.841 69.9239 126.889 69.9239H89.6927C88.7407 69.9239 87.9688 70.6959 87.9688 71.6479C87.9688 72.6009 88.7407 73.3719 89.6927 73.3719" fill="#8A60E2"/><path id="Fill 199" fill-rule="evenodd" clip-rule="evenodd" d="M99.0442 73.3719H127.213C127.879 73.3719 128.484 72.9839 128.761 72.3789L136.462 55.5609C136.979 54.4349 136.155 53.1509 134.915 53.1509H106.745C106.079 53.1509 105.475 53.5389 105.197 54.1439L97.4962 70.9609C96.9802 72.0889 97.8042 73.3719 99.0442 73.3719" fill="#432C82"/><path id="Fill 201" fill-rule="evenodd" clip-rule="evenodd" d="M118.852 60.2332C119.421 61.4042 120.165 62.3862 120.964 63.3282C121.132 63.5262 121.168 63.6512 120.917 63.8232C120.043 64.4242 119.35 65.2092 118.776 66.0932C118.603 66.3592 118.49 66.3482 118.325 66.1202C117.615 65.1312 116.854 64.1902 115.925 63.3932C115.614 63.1262 115.872 62.9552 116.086 62.8142C117.131 62.1292 117.943 61.1962 118.852 60.2332" fill="#FF67FF"/><path id="Fill 203" fill-rule="evenodd" clip-rule="evenodd" d="M69.752 57.4827C77.1335 58.439 80.4899 64.1925 83.1281 67.5025C85.8211 70.8835 96.6421 85.1675 96.6421 85.1675C96.6421 85.1675 98.0421 81.5755 100.259 76.0305L109.658 80.4605C108.983 84.7205 108.24 89.4235 107.899 91.6575C107.195 96.2665 105.32 105.725 97.2691 105.725C95.1901 105.725 80.1341 90.4275 80.1341 90.4275V109.825H76.0936L73.5381 77.2335C73.5381 77.2335 69.5959 57.4625 69.752 57.4827Z" fill="#974CCD"/><path id="Fill 205" fill-rule="evenodd" clip-rule="evenodd" d="M57.5137 57.4286L58.8457 109.971L76.0937 109.825C76.0937 109.825 77.8867 81.6936 76.2087 74.3316C74.3617 66.2276 70.9437 57.6876 70.9437 57.6876L69.7396 57.4285C69.3606 59.6925 64.2897 62.2276 60.4207 56.5496L57.5137 57.4286Z" fill="#FFB700"/><path id="Fill 207" fill-rule="evenodd" clip-rule="evenodd" d="M59.5742 94.8992H77.3612C77.3652 95.2762 77.3652 95.6372 77.3612 95.9802H59.6542L59.5742 94.8992Z" fill="#EFF2F9"/><path id="Fill 209" fill-rule="evenodd" clip-rule="evenodd" d="M59.7944 56.7391C59.7944 56.7391 51.6644 58.9161 48.4864 61.6211C45.3084 64.3251 38.2184 80.3011 35.6394 87.0441C31.9554 96.6781 29.9604 111.655 43.0774 109.356C56.1944 107.057 58.2864 106.382 58.2864 106.382V99.8231L63.1584 97.7261L63.8354 77.3071L59.7944 56.7391Z" fill="#974CCD"/><path id="Fill 211" fill-rule="evenodd" clip-rule="evenodd" d="M60.7083 92.7234C60.7083 92.7234 62.8223 99.0484 61.4233 105.133L58.8223 96.8944L60.7083 92.7234Z" fill="#C4B8EE"/><path id="Fill 213" fill-rule="evenodd" clip-rule="evenodd" d="M71.7853 95.1287C70.9983 92.5607 68.2793 91.1147 65.7103 91.9017L65.5713 91.9447L62.3683 92.9267C61.2893 93.2557 60.2103 93.5767 59.1313 93.8867C58.5303 94.0647 57.9313 94.2247 57.3313 94.3927C57.0203 98.1767 56.9313 102.013 57.5083 105.751C58.0773 105.556 58.6563 105.369 59.2163 105.167C60.3553 104.747 61.4823 104.31 62.5973 103.864C63.7113 103.413 64.8153 102.95 65.9133 102.471L67.5543 101.735L69.2093 100.954C71.3653 99.9397 72.5043 97.4707 71.7853 95.1287" fill="#b3b2e6"/><path id="Fill 215" fill-rule="evenodd" clip-rule="evenodd" d="M66.1108 94.2225C66.1108 94.2225 65.9538 92.2125 67.3428 91.1955C68.7328 90.1775 72.8748 87.5325 73.7758 86.7115C74.6758 85.8915 75.5508 87.4725 74.4508 88.9525C73.3508 90.4335 72.5438 91.3635 72.5438 91.3635C72.5438 91.3635 76.0068 88.9825 77.6668 88.0335C79.3258 87.0835 81.4288 85.4515 82.0658 85.9095C82.7018 86.3665 81.5188 88.2485 77.0088 91.0005C77.0088 91.0005 82.5108 88.7535 83.3848 88.6635C84.3328 88.5655 84.6568 89.4195 82.3188 90.8445C79.9798 92.2695 77.5548 93.4555 77.5548 93.4555C77.5548 93.4555 78.6298 92.8825 79.4398 93.5855C80.2508 94.2895 78.7548 95.4465 78.7548 95.4465C78.7548 95.4465 80.6058 96.2925 78.4388 97.7125C76.2718 99.1315 69.9968 100.597 68.4068 99.8565C66.8178 99.1145 66.1108 94.2225 66.1108 94.2225" fill="#b3b2e6"/><path id="Fill 217" fill-rule="evenodd" clip-rule="evenodd" d="M57.5127 103.727L55.0307 103.998C54.7277 100.196 55.2087 96.1973 55.4547 94.5113C55.5277 94.0173 55.9057 93.6263 56.3967 93.5343L60.7077 92.7233C60.4787 98.2753 61.1007 103.089 61.4227 105.133C61.5147 105.722 61.1337 106.28 60.5517 106.406L56.6437 107.251C56.0507 107.379 55.4567 107.001 55.3437 106.406C55.2417 105.871 55.1617 105.32 55.1007 104.761L57.5127 103.727Z" fill="#EA9800"/><path id="Fill 219" fill-rule="evenodd" clip-rule="evenodd" d="M107.388 83.2176L106.346 85.4876C102.928 83.7926 99.7431 81.3256 98.4241 80.2496C98.0371 79.9336 97.8961 79.4076 98.0691 78.9396L99.5881 74.8236C104.233 77.8726 108.684 79.8126 110.603 80.5856C111.156 80.8086 111.439 81.4226 111.247 81.9866L109.965 85.7746C109.77 86.3486 109.141 86.6636 108.572 86.4546C108.061 86.2686 107.547 86.0526 107.036 85.8186L107.388 83.2176Z" fill="#EA9800"/></g></g></g></g></g></svg>