<svg viewBox="38.349999999999994 5.900000000000006 106.2 230.09999999999994" fill="none" xmlns="http://www.w3.org/2000/svg" xmlns:xlink="http://www.w3.org/1999/xlink" overflow="visible" width="106.2px" height="230.09999999999994px"><g id="Master/Character/Standing"><g id="Lower Body/Standing" transform="translate(21 96) scale(1 1)"><g id="Lower Body/Standing/Cool Pants"><g id="Lower"><path id="Fill 49" fill-rule="evenodd" clip-rule="evenodd" d="M67 108.592L58 102L53.8069 120.038C53.8069 120.038 51.1094 121.713 49 125.171L56.2625 134.987C56.2625 134.987 57.3693 138 64.7349 138C64.7349 138 65.8069 136.14 65.2883 135.062C64.7696 133.984 61.3461 131.566 61.3461 131.566L59.2387 126.28L67 108.592Z" fill="#2C2263"/><path id="Fill 50" fill-rule="evenodd" clip-rule="evenodd" d="M57.5714 133.864C59.0738 135.355 62.4634 136.72 66 136.713C65.7889 137.409 65.4175 138 65.4175 138C57.7318 138 56.5771 135.136 56.5771 135.136L49 125.805C49.4522 125.131 49.9292 124.531 50.402 124C52.0948 126.487 56.2998 132.604 57.5714 133.864" fill="#150E53"/><path id="Fill 51" fill-rule="evenodd" clip-rule="evenodd" d="M47.6663 108L46.9603 128.095L48.7614 132.208C48.7614 132.208 51.8116 133.53 52 136.508V138.683C52 138.683 47.8568 139.396 44.84 138.683C43.2395 138.305 41.4971 136.366 41.4971 136.366L39.236 135.941L39.4711 133.439C39.4711 133.439 39.2826 130.978 40.1781 128L39 108.236L47.6663 108Z" fill="#2C2263"/><path id="Fill 52" fill-rule="evenodd" clip-rule="evenodd" d="M40 135.739L40.1558 134L42.2544 134.327C42.2544 134.327 43.5017 135.488 45.3248 136.698C46.6527 137.578 50.8282 137.389 53 137.222V138.662C53 138.662 48.7812 139.422 45.7087 138.662" fill="#150E53"/><path id="Fill 53" fill-rule="evenodd" clip-rule="evenodd" d="M37.7527 90.4395C36.4059 81.529 37.9451 76.3685 37.9451 76.3685C37.9451 76.3685 31.7894 42.2882 32.0056 34.9359C32.1628 29.5922 33.7475 24.3102 35.4191 20.1488L35.4212 20.1456C37.0307 16.1391 38.7199 13.1767 39.2971 12.2059C39.2992 12.2028 39.3012 12.2007 39.3023 12.1975C39.4326 11.9787 39.5081 11.8583 39.5081 11.8583L39.1337 7.04335C40.7536 6.79202 43.2806 7.71563 43.2806 7.71563C45.2243 6.37315 48.0751 7.71563 48.0751 7.71563C50.9249 6.45693 53.3216 7.71563 53.3216 7.71563C56.2376 6.20456 58.5702 7.71563 58.5702 7.71563C61.0962 6.95957 63.493 7.29676 63.493 7.29676L62.894 11.5535C62.894 11.5535 76.5162 38.0031 80.1232 47.1827C83.7301 56.3622 88.3715 67.5241 86.6172 76.1256C84.8628 84.7271 66.8486 116 66.8486 116L55.0181 108.506C55.1629 102.034 58.5764 98.7645 58.5764 98.7645C59.0098 90.9746 63.8188 86.4947 63.8188 86.4947C64.3008 77.5372 68.5802 73.4961 68.5802 73.4961L56.9896 50.8562L54.4895 78.51L51.7959 116H37.9451C36.7907 110.546 38.0651 102.928 38.0651 102.928C36.046 95.3319 37.7527 90.4395 37.7527 90.4395" fill="#2C2263"/><path id="Fill 54" fill-rule="evenodd" clip-rule="evenodd" d="M56 108.757C56.0311 107.344 56.23 106.096 56.5112 105L69 113.335C68.0519 115.007 67.4774 116 67.4774 116L56 108.757Z" fill="#F376DA"/><path id="Fill 55" fill-rule="evenodd" clip-rule="evenodd" d="M50.7868 116H37.3924C37.1932 115.05 37.0701 114.031 37 113H51L50.7868 116Z" fill="#F376DA"/><g id="Group 138"><g id="Group 59"><mask id="mask0_723_1694120ca224e-5504-4f2d-aa2a-a0794d04e00e" style="mask-type:luminance" maskUnits="userSpaceOnUse" x="32" y="7" width="56" height="109" fill="#ffffff"><path id="Clip 58" fill-rule="evenodd" clip-rule="evenodd" d="M39.2554 7.39242L39.6297 12.1645C39.6297 12.1645 39.554 12.2839 39.4234 12.5009V12.5009C39.4223 12.505 39.4203 12.5071 39.4192 12.5092V12.5092C38.8395 13.4715 37.1471 16.4083 35.5324 20.3811V20.3811L35.5303 20.3842C33.8555 24.5085 32.2668 29.7447 32.1081 35.0431V35.0431C31.8914 42.3305 38.0638 76.1164 38.0638 76.1164V76.1164C38.0638 76.1164 36.5197 81.2321 37.8709 90.0642V90.0642C37.8709 90.0642 36.1588 94.9142 38.1841 102.445V102.445C38.1841 102.445 36.9054 109.998 38.0638 115.403V115.403H51.9487L54.6492 78.2393L57.1557 50.8242L68.7757 73.2689C68.7757 73.2689 64.4854 77.2739 64.0032 86.1548V86.1548C64.0032 86.1548 59.181 90.5947 58.7475 98.3181V98.3181C58.7475 98.3181 55.3243 101.559 55.1791 107.975V107.975L67.0407 115.403C67.0407 115.403 85.0997 84.4014 86.8595 75.8745V75.8745C88.6173 67.3486 83.9641 56.2825 80.348 47.1836V47.1836C76.7318 38.0827 63.0761 11.8635 63.0761 11.8635V11.8635L63.6766 7.6426C63.6766 7.6426 61.2727 7.30937 58.7403 8.05783V8.05783C58.7403 8.05783 56.4017 6.55986 53.4783 8.05783V8.05783C53.4783 8.05783 51.0766 6.81004 48.2185 8.05783V8.05783C48.2185 8.05783 45.3604 6.727 43.4118 8.05783V8.05783C43.4118 8.05783 41.4497 7.34985 39.8734 7.34985V7.34985C39.6577 7.34985 39.4503 7.36231 39.2554 7.39242" fill="#ffffff"/></mask><g mask="url(#mask0_723_1694120ca224e-5504-4f2d-aa2a-a0794d04e00e)"><path id="Fill 57" fill-rule="evenodd" clip-rule="evenodd" d="M75.3072 35.7614C75.1537 36.2981 75.0106 36.8098 74.8592 37.3185C74.7783 37.5874 74.6788 37.849 74.5937 38.1168C74.4942 38.4272 74.5242 38.4936 74.8302 38.6026C75.3746 38.7967 75.9211 38.9846 76.4666 39.1746C76.5599 39.2068 76.6636 39.2172 76.7414 39.3168C76.5993 39.4653 76.4065 39.5421 76.2343 39.6428C75.8216 39.8878 75.3985 40.112 74.9805 40.3466C74.7057 40.5003 74.6331 40.6664 74.769 40.9487C75.0988 41.6328 75.3082 42.3657 75.6214 43.0561C75.6567 43.1339 75.6598 43.2128 75.6245 43.3125C75.1693 43.1069 74.7596 42.8287 74.3303 42.5868C74.0462 42.428 73.7662 42.2619 73.4799 42.1062C73.2062 41.9577 73.0765 42.02 72.9977 42.3159C72.8111 43.0239 72.6959 43.7485 72.4761 44.4471C72.4553 44.5125 72.4699 44.6163 72.3755 44.6173C72.2552 44.6184 72.3257 44.5094 72.305 44.4513C72.0996 43.8523 71.8943 43.2533 71.6879 42.6553C71.6112 42.4332 71.5272 42.2142 71.4536 41.992C71.3945 41.8135 71.3073 41.7304 71.0948 41.7667C70.4808 41.8747 69.8617 41.9577 69.2447 42.0481C69.1669 42.0595 69.086 42.0616 68.9616 42.0719C69.2136 41.6422 69.4459 41.2477 69.6771 40.8511C69.8638 40.5324 70.037 40.2023 70.2413 39.893C70.3647 39.7082 70.3159 39.593 70.178 39.4539C69.7528 39.0231 69.3349 38.5839 68.918 38.1427C68.862 38.0825 68.7334 38.0337 68.7873 37.9351C68.8288 37.8583 68.9502 37.876 69.0404 37.8697C69.7165 37.8272 70.3937 37.7794 71.0709 37.7462C71.2918 37.7348 71.4111 37.6683 71.4494 37.4265C71.5417 36.8451 71.6392 36.2648 71.7097 35.6814C71.7294 35.5112 71.7035 35.2568 71.8746 35.2039C72.0561 35.1478 72.1235 35.4011 72.2231 35.5278C72.5539 35.9482 72.8556 36.3884 73.2113 36.7891C73.3316 36.9261 73.4229 36.9458 73.5785 36.8638C74.0918 36.5908 74.5294 36.2077 75.0116 35.8901C75.0853 35.8413 75.1433 35.7624 75.3072 35.7614" fill="#FF67FF"/></g></g><g id="Group 62"><mask id="mask1_723_1694120ca224e-5504-4f2d-aa2a-a0794d04e00e" style="mask-type:luminance" maskUnits="userSpaceOnUse" x="32" y="7" width="56" height="109" fill="#ffffff"><path id="Clip 61" fill-rule="evenodd" clip-rule="evenodd" d="M39.2554 7.39242L39.6297 12.1645C39.6297 12.1645 39.554 12.2839 39.4234 12.5009V12.5009C39.4223 12.505 39.4203 12.5071 39.4192 12.5092V12.5092C38.8395 13.4715 37.1471 16.4083 35.5324 20.3811V20.3811L35.5303 20.3842C33.8555 24.5085 32.2668 29.7447 32.1081 35.0431V35.0431C31.8914 42.3305 38.0638 76.1164 38.0638 76.1164V76.1164C38.0638 76.1164 36.5197 81.2321 37.8709 90.0642V90.0642C37.8709 90.0642 36.1588 94.9142 38.1841 102.445V102.445C38.1841 102.445 36.9054 109.998 38.0638 115.403V115.403H51.9487L54.6492 78.2393L57.1557 50.8242L68.7757 73.2689C68.7757 73.2689 64.4854 77.2739 64.0032 86.1548V86.1548C64.0032 86.1548 59.181 90.5947 58.7475 98.3181V98.3181C58.7475 98.3181 55.3243 101.559 55.1791 107.975V107.975L67.0407 115.403C67.0407 115.403 85.0997 84.4014 86.8595 75.8745V75.8745C88.6173 67.3486 83.9641 56.2825 80.348 47.1836V47.1836C76.7318 38.0827 63.0761 11.8635 63.0761 11.8635V11.8635L63.6766 7.6426C63.6766 7.6426 61.2727 7.30937 58.7403 8.05783V8.05783C58.7403 8.05783 56.4017 6.55986 53.4783 8.05783V8.05783C53.4783 8.05783 51.0766 6.81004 48.2185 8.05783V8.05783C48.2185 8.05783 45.3604 6.727 43.4118 8.05783V8.05783C43.4118 8.05783 41.4497 7.34985 39.8734 7.34985V7.34985C39.6577 7.34985 39.4503 7.36231 39.2554 7.39242" fill="#ffffff"/></mask><g mask="url(#mask1_723_1694120ca224e-5504-4f2d-aa2a-a0794d04e00e)"><path id="Fill 60" fill-rule="evenodd" clip-rule="evenodd" d="M76.1723 84.0541C78.3304 84.7029 80.1701 85.6247 82.0544 86.4271C82.6829 86.696 82.8509 86.5445 82.9971 85.9849C83.4098 84.4091 83.8454 82.8385 84.3027 81.1526C85.2723 81.8896 85.9174 82.8063 86.5966 83.6731C88.1055 85.5987 88.091 85.6195 89.882 84.0499C90.61 83.4125 91.3131 82.7471 92.0307 82.0993C92.1997 81.9478 92.3149 81.6353 92.6052 81.7651C92.8406 81.8699 92.7359 82.145 92.738 82.3454C92.7514 83.8932 92.7639 85.441 92.7566 86.9877C92.7494 88.3019 92.9143 88.5552 94.1089 89.0089C94.9572 89.3317 95.7931 89.6888 96.6434 90.0055C97.2149 90.2183 97.2511 90.4633 96.8249 90.8993C96.0171 91.7266 95.1283 92.4574 94.2251 93.1717C93.6215 93.6492 93.5199 94.0208 94.1877 94.5887C95.5473 95.7472 96.8322 96.9929 98.2187 98.2666C96.9877 98.8241 95.7246 98.8968 94.4947 99.0338C93.8445 99.1054 93.271 99.3608 92.6602 99.5165C92.066 99.666 92.1033 100.246 92.0867 100.727C92.0255 102.448 92.15 104.184 91.6636 105.968C90.1879 104.653 88.7371 103.396 87.3329 102.089C86.8393 101.63 86.5043 101.692 86.0169 102.091C84.7497 103.128 83.5509 104.235 82.408 105.406C82.1975 105.623 81.959 105.931 81.6624 105.855C81.2777 105.756 81.4467 105.338 81.4457 105.068C81.4384 103.705 81.4197 102.338 81.4996 100.979C81.5483 100.154 81.1999 99.8829 80.4584 99.8861C79.2461 99.8912 78.0338 99.8861 76.8215 99.8829C76.5882 99.8819 76.3113 99.993 76.1557 99.7314C75.9805 99.4366 76.304 99.3089 76.416 99.122C76.9771 98.1846 77.5236 97.2358 78.1396 96.3368C78.544 95.7472 78.4403 95.361 77.8928 94.9717C76.6359 94.0769 75.3956 93.1602 74.148 92.254C73.9085 92.0806 73.5165 91.9799 73.5466 91.6425C73.5787 91.2844 73.9873 91.2885 74.2642 91.1972C75.3303 90.8474 76.3922 90.4923 77.4904 90.2463C78.4009 90.0408 78.5554 89.7553 78.206 88.8854C77.6314 87.4507 77.0061 86.0379 76.4015 84.6157C76.3455 84.4838 76.2937 84.3499 76.1723 84.0541" fill="#C2F5FF"/></g></g><g id="Group 65"><mask id="mask2_723_1694120ca224e-5504-4f2d-aa2a-a0794d04e00e" style="mask-type:luminance" maskUnits="userSpaceOnUse" x="32" y="7" width="56" height="109" fill="#ffffff"><path id="Clip 64" fill-rule="evenodd" clip-rule="evenodd" d="M39.2554 7.39242L39.6297 12.1645C39.6297 12.1645 39.554 12.2839 39.4234 12.5009V12.5009C39.4223 12.505 39.4203 12.5071 39.4192 12.5092V12.5092C38.8395 13.4715 37.1471 16.4083 35.5324 20.3811V20.3811L35.5303 20.3842C33.8555 24.5085 32.2668 29.7447 32.1081 35.0431V35.0431C31.8914 42.3305 38.0638 76.1164 38.0638 76.1164V76.1164C38.0638 76.1164 36.5197 81.2321 37.8709 90.0642V90.0642C37.8709 90.0642 36.1588 94.9142 38.1841 102.445V102.445C38.1841 102.445 36.9054 109.998 38.0638 115.403V115.403H51.9487L54.6492 78.2393L57.1557 50.8242L68.7757 73.2689C68.7757 73.2689 64.4854 77.2739 64.0032 86.1548V86.1548C64.0032 86.1548 59.181 90.5947 58.7475 98.3181V98.3181C58.7475 98.3181 55.3243 101.559 55.1791 107.975V107.975L67.0407 115.403C67.0407 115.403 85.0997 84.4014 86.8595 75.8745V75.8745C88.6173 67.3486 83.9641 56.2825 80.348 47.1836V47.1836C76.7318 38.0827 63.0761 11.8635 63.0761 11.8635V11.8635L63.6766 7.6426C63.6766 7.6426 61.2727 7.30937 58.7403 8.05783V8.05783C58.7403 8.05783 56.4017 6.55986 53.4783 8.05783V8.05783C53.4783 8.05783 51.0766 6.81004 48.2185 8.05783V8.05783C48.2185 8.05783 45.3604 6.727 43.4118 8.05783V8.05783C43.4118 8.05783 41.4497 7.34985 39.8734 7.34985V7.34985C39.6577 7.34985 39.4503 7.36231 39.2554 7.39242" fill="#ffffff"/></mask><g mask="url(#mask2_723_1694120ca224e-5504-4f2d-aa2a-a0794d04e00e)"><path id="Fill 63" fill-rule="evenodd" clip-rule="evenodd" d="M60.1195 75.9845C59.2775 77.3153 58.4738 78.5517 57.7053 79.8089C56.6268 81.5736 56.4785 81.1387 57.9532 82.8515C58.5412 83.5356 59.1188 84.228 59.7918 85.0232C58.2238 85.3824 56.7865 85.7083 55.3502 86.0405C54.0954 86.3302 53.972 86.5087 54.1452 87.7928C54.2924 88.8766 54.4563 89.9583 54.5942 91.0421C54.7187 92.0117 54.6668 92.0532 53.7324 91.6556C52.6176 91.1812 51.5069 90.6912 50.4118 90.1732C49.8498 89.9074 49.4681 89.9946 49.0844 90.5012C48.372 91.4449 47.5952 92.3387 46.861 93.2657C46.5333 93.6788 46.3757 93.5698 46.2067 93.1401C45.7286 91.9265 45.1841 90.7379 44.7486 89.5088C44.4551 88.6794 43.9158 88.4437 43.1018 88.4115C41.8646 88.3607 40.6326 88.1842 39.3954 88.1126C38.7244 88.0731 38.8032 87.8022 39.0687 87.3818C39.6837 86.407 40.2395 85.3897 40.9167 84.4606C41.3792 83.8273 41.2175 83.4588 40.701 83.0062C39.86 82.2671 39.0843 81.4522 38.2432 80.712C37.7403 80.2698 37.8595 80.0871 38.4154 79.8701C39.5738 79.4196 40.701 78.8933 41.8635 78.4541C42.5895 78.179 42.9265 77.7067 42.9358 76.9489C42.9483 75.8267 42.9566 74.7035 43.0064 73.5824C43.0458 72.6844 43.1785 72.6315 43.9646 73.0695C44.9715 73.6322 45.993 74.1668 46.9834 74.7554C47.6585 75.1571 48.1915 75.1167 48.7629 74.5405C49.5521 73.7443 50.4585 73.0612 51.2259 72.2443C51.8471 71.5851 52.0566 71.8622 52.32 72.5079C52.6964 73.436 53.1081 74.3516 53.5447 75.2527C54.0498 76.2991 54.4387 76.4818 55.5752 76.2959C56.8643 76.0852 58.1616 75.9669 59.4662 75.9118C59.6373 75.9035 59.8095 75.9482 60.1195 75.9845" fill="#F3D95A"/></g></g><g id="Group 68"><mask id="mask3_723_1694120ca224e-5504-4f2d-aa2a-a0794d04e00e" style="mask-type:luminance" maskUnits="userSpaceOnUse" x="32" y="7" width="56" height="109" fill="#ffffff"><path id="Clip 67" fill-rule="evenodd" clip-rule="evenodd" d="M39.2554 7.39242L39.6297 12.1645C39.6297 12.1645 39.554 12.2839 39.4234 12.5009V12.5009C39.4223 12.505 39.4203 12.5071 39.4192 12.5092V12.5092C38.8395 13.4715 37.1471 16.4083 35.5324 20.3811V20.3811L35.5303 20.3842C33.8555 24.5085 32.2668 29.7447 32.1081 35.0431V35.0431C31.8914 42.3305 38.0638 76.1164 38.0638 76.1164V76.1164C38.0638 76.1164 36.5197 81.2321 37.8709 90.0642V90.0642C37.8709 90.0642 36.1588 94.9142 38.1841 102.445V102.445C38.1841 102.445 36.9054 109.998 38.0638 115.403V115.403H51.9487L54.6492 78.2393L57.1557 50.8242L68.7757 73.2689C68.7757 73.2689 64.4854 77.2739 64.0032 86.1548V86.1548C64.0032 86.1548 59.181 90.5947 58.7475 98.3181V98.3181C58.7475 98.3181 55.3243 101.559 55.1791 107.975V107.975L67.0407 115.403C67.0407 115.403 85.0997 84.4014 86.8595 75.8745V75.8745C88.6173 67.3486 83.9641 56.2825 80.348 47.1836V47.1836C76.7318 38.0827 63.0761 11.8635 63.0761 11.8635V11.8635L63.6766 7.6426C63.6766 7.6426 61.2727 7.30937 58.7403 8.05783V8.05783C58.7403 8.05783 56.4017 6.55986 53.4783 8.05783V8.05783C53.4783 8.05783 51.0766 6.81004 48.2185 8.05783V8.05783C48.2185 8.05783 45.3604 6.727 43.4118 8.05783V8.05783C43.4118 8.05783 41.4497 7.34985 39.8734 7.34985V7.34985C39.6577 7.34985 39.4503 7.36231 39.2554 7.39242" fill="#ffffff"/></mask><g mask="url(#mask3_723_1694120ca224e-5504-4f2d-aa2a-a0794d04e00e)"><path id="Fill 66" fill-rule="evenodd" clip-rule="evenodd" d="M54.9939 50.8634C54.1279 52.4309 53.3699 53.9029 52.5143 55.3158C52.0093 56.1504 51.9823 56.8148 52.5796 57.6328C53.3284 58.6574 53.9288 59.7899 54.5905 60.8768C54.6817 61.0274 54.8518 61.18 54.7522 61.3658C54.6299 61.5942 54.3893 61.5339 54.1819 61.507C52.981 61.344 51.7749 61.2101 50.5802 61.0056C49.5712 60.8322 48.9832 61.2713 48.5539 62.1308C48.026 63.1876 47.4484 64.2195 46.8853 65.2586C46.5078 65.9552 46.0961 65.8784 45.6636 65.3033C45.1182 64.5766 44.5571 63.8614 44.0199 63.1264C43.6176 62.5762 43.1322 62.3873 42.4426 62.5284C41.3745 62.7475 40.2897 62.8907 39.2091 63.0506C38.311 63.1824 38.1773 63.0423 38.3961 62.1267C38.6149 61.2111 38.8752 60.3069 39.1293 59.4007C39.3045 58.7726 39.1593 58.3024 38.6087 57.8996C37.2885 56.9352 36.0005 55.9251 34.7011 54.9317C34.5113 54.7853 34.2604 54.641 34.2894 54.3732C34.3236 54.0472 34.6503 53.9714 34.8982 53.9133C35.9902 53.6579 37.0842 53.4036 38.1887 53.2136C39.0556 53.0631 39.5005 52.7267 39.289 51.7478C39.0795 50.772 39.1614 49.7495 38.8897 48.7737C38.8244 48.5443 38.7673 48.2692 38.9706 48.0833C39.2185 47.857 39.4912 48.0263 39.7297 48.1384C40.717 48.6024 41.7125 49.0519 42.6759 49.5626C43.5605 50.0319 44.2564 49.9052 44.9377 49.163C45.9011 48.1145 46.9278 47.1241 47.9296 46.111C48.0976 45.9397 48.2749 45.6947 48.5342 45.8068C48.8017 45.922 48.698 46.2314 48.7115 46.4618C48.8069 47.9775 48.8909 49.4931 48.9853 51.0087C49.0454 51.9907 49.2653 52.1859 50.2598 51.9658C51.6494 51.6585 53.0256 51.2838 54.4079 50.9423C54.5469 50.908 54.6931 50.9028 54.9939 50.8634" fill="#F28DFD"/></g></g><g id="Group 71"><mask id="mask4_723_1694120ca224e-5504-4f2d-aa2a-a0794d04e00e" style="mask-type:luminance" maskUnits="userSpaceOnUse" x="32" y="7" width="56" height="109" fill="#ffffff"><path id="Clip 70" fill-rule="evenodd" clip-rule="evenodd" d="M39.2554 7.39242L39.6297 12.1645C39.6297 12.1645 39.554 12.2839 39.4234 12.5009V12.5009C39.4223 12.505 39.4203 12.5071 39.4192 12.5092V12.5092C38.8395 13.4715 37.1471 16.4083 35.5324 20.3811V20.3811L35.5303 20.3842C33.8555 24.5085 32.2668 29.7447 32.1081 35.0431V35.0431C31.8914 42.3305 38.0638 76.1164 38.0638 76.1164V76.1164C38.0638 76.1164 36.5197 81.2321 37.8709 90.0642V90.0642C37.8709 90.0642 36.1588 94.9142 38.1841 102.445V102.445C38.1841 102.445 36.9054 109.998 38.0638 115.403V115.403H51.9487L54.6492 78.2393L57.1557 50.8242L68.7757 73.2689C68.7757 73.2689 64.4854 77.2739 64.0032 86.1548V86.1548C64.0032 86.1548 59.181 90.5947 58.7475 98.3181V98.3181C58.7475 98.3181 55.3243 101.559 55.1791 107.975V107.975L67.0407 115.403C67.0407 115.403 85.0997 84.4014 86.8595 75.8745V75.8745C88.6173 67.3486 83.9641 56.2825 80.348 47.1836V47.1836C76.7318 38.0827 63.0761 11.8635 63.0761 11.8635V11.8635L63.6766 7.6426C63.6766 7.6426 61.2727 7.30937 58.7403 8.05783V8.05783C58.7403 8.05783 56.4017 6.55986 53.4783 8.05783V8.05783C53.4783 8.05783 51.0766 6.81004 48.2185 8.05783V8.05783C48.2185 8.05783 45.3604 6.727 43.4118 8.05783V8.05783C43.4118 8.05783 41.4497 7.34985 39.8734 7.34985V7.34985C39.6577 7.34985 39.4503 7.36231 39.2554 7.39242" fill="#ffffff"/></mask><g mask="url(#mask4_723_1694120ca224e-5504-4f2d-aa2a-a0794d04e00e)"><path id="Fill 69" fill-rule="evenodd" clip-rule="evenodd" d="M67.247 60.5702C68.4437 60.7726 69.4144 61.164 70.3488 61.6644C70.9036 61.9602 71.2925 61.899 71.5248 61.2118C71.8825 60.1498 72.3119 59.1117 72.7215 58.0663C72.819 57.8182 72.8625 57.4539 73.1405 57.4061C73.4692 57.35 73.4972 57.7487 73.631 57.9604C74.247 58.9363 74.8692 59.9079 75.4437 60.9076C75.7455 61.4349 76.1354 61.3976 76.6052 61.2543C77.6485 60.9356 78.6938 60.6221 79.7412 60.318C79.9362 60.2609 80.1799 60.1155 80.3406 60.2744C80.5335 60.4643 80.3956 60.7301 80.3178 60.9512C79.9745 61.9249 79.6282 62.8955 79.2725 63.8641C78.9043 64.8669 78.9738 65.0818 79.987 65.5282C81.1505 66.042 82.3338 66.5123 83.5077 67.0033C83.6176 67.0479 83.7203 67.1081 84.0169 67.2566C82.5412 67.8898 81.2708 68.603 79.9725 69.2508C78.9779 69.748 78.5465 70.3532 78.7871 71.4754C78.9769 72.3567 79.0339 73.2651 79.1729 74.3416C77.691 73.482 76.3045 72.7554 75.0071 71.8948C74.2968 71.4245 73.8985 71.5564 73.4173 72.1564C72.6966 73.0554 71.9219 73.9118 71.1618 74.7786C71.0322 74.926 70.9274 75.1918 70.665 75.0786C70.4359 74.9779 70.4784 74.7319 70.469 74.5201C70.4193 73.2402 70.1133 71.9965 69.9205 70.7363C69.8157 70.0501 69.4621 69.6722 68.7123 69.6452C67.4699 69.6016 66.2307 69.4947 64.9904 69.4065C64.7965 69.393 64.5237 69.4833 64.4625 69.1947C64.4159 68.9684 64.6782 68.9383 64.7985 68.8158C65.8615 67.7393 66.9245 66.6628 67.9957 65.5946C68.3545 65.2354 68.3877 64.8575 68.3058 64.3541C68.1036 63.0938 67.445 61.9623 67.247 60.5702" fill="#F28DFD"/></g></g><g id="Group 74"><mask id="mask5_723_1694120ca224e-5504-4f2d-aa2a-a0794d04e00e" style="mask-type:luminance" maskUnits="userSpaceOnUse" x="32" y="7" width="56" height="109" fill="#ffffff"><path id="Clip 73" fill-rule="evenodd" clip-rule="evenodd" d="M39.2554 7.39242L39.6297 12.1645C39.6297 12.1645 39.554 12.2839 39.4234 12.5009V12.5009C39.4223 12.505 39.4203 12.5071 39.4192 12.5092V12.5092C38.8395 13.4715 37.1471 16.4083 35.5324 20.3811V20.3811L35.5303 20.3842C33.8555 24.5085 32.2668 29.7447 32.1081 35.0431V35.0431C31.8914 42.3305 38.0638 76.1164 38.0638 76.1164V76.1164C38.0638 76.1164 36.5197 81.2321 37.8709 90.0642V90.0642C37.8709 90.0642 36.1588 94.9142 38.1841 102.445V102.445C38.1841 102.445 36.9054 109.998 38.0638 115.403V115.403H51.9487L54.6492 78.2393L57.1557 50.8242L68.7757 73.2689C68.7757 73.2689 64.4854 77.2739 64.0032 86.1548V86.1548C64.0032 86.1548 59.181 90.5947 58.7475 98.3181V98.3181C58.7475 98.3181 55.3243 101.559 55.1791 107.975V107.975L67.0407 115.403C67.0407 115.403 85.0997 84.4014 86.8595 75.8745V75.8745C88.6173 67.3486 83.9641 56.2825 80.348 47.1836V47.1836C76.7318 38.0827 63.0761 11.8635 63.0761 11.8635V11.8635L63.6766 7.6426C63.6766 7.6426 61.2727 7.30937 58.7403 8.05783V8.05783C58.7403 8.05783 56.4017 6.55986 53.4783 8.05783V8.05783C53.4783 8.05783 51.0766 6.81004 48.2185 8.05783V8.05783C48.2185 8.05783 45.3604 6.727 43.4118 8.05783V8.05783C43.4118 8.05783 41.4497 7.34985 39.8734 7.34985V7.34985C39.6577 7.34985 39.4503 7.36231 39.2554 7.39242" fill="#ffffff"/></mask><g mask="url(#mask5_723_1694120ca224e-5504-4f2d-aa2a-a0794d04e00e)"><path id="Fill 72" fill-rule="evenodd" clip-rule="evenodd" d="M29.0791 22.1677C30.2561 22.1677 31.2569 22.1376 32.2545 22.1792C32.8861 22.2051 33.1474 21.9321 33.1671 21.3425C33.1681 21.3124 33.1723 21.2812 33.1733 21.2511C33.2075 20.6044 32.9275 19.6659 33.443 19.4054C33.9387 19.1542 34.5972 19.8881 35.1945 20.1684C35.4133 20.2711 35.6435 20.3625 35.8427 20.4964C36.3954 20.8639 36.7293 20.7082 37.0985 20.1684C37.6046 19.4313 37.9105 18.5458 38.6727 17.925C39.1456 18.5988 39.2016 19.3701 39.3841 20.0853C39.7699 21.603 39.743 21.6103 41.3058 21.6155C41.9384 21.6176 42.572 21.6155 43.2844 21.6155C42.8395 22.6754 42.1572 23.5214 41.5526 24.3986C41.1678 24.9581 41.1067 25.4045 41.4862 25.9578C41.8627 26.508 42.209 27.0779 42.5388 27.6572C42.7784 28.0787 42.9277 28.4617 42.1354 28.3475C41.4489 28.2479 40.7458 28.2593 40.0541 28.1897C39.3147 28.115 38.8573 28.3527 38.6499 29.1282C38.4798 29.7666 38.1511 30.3625 37.9209 30.9864C37.7674 31.4026 37.6523 31.5168 37.2582 31.1525C36.6713 30.6095 36.2232 29.7116 35.3729 29.7033C34.592 29.695 34.0382 30.4746 33.3558 30.8587C33.1225 30.9895 32.8778 31.2573 32.6278 31.1452C32.3416 31.0165 32.5024 30.6677 32.4889 30.4102C32.4878 30.3801 32.491 30.35 32.491 30.3199C32.5117 28.4202 32.5169 28.4036 30.7249 27.8212C30.1369 27.6312 29.9875 27.4745 30.4552 26.9409C31.8957 25.2976 31.877 25.282 30.337 23.6605C29.9305 23.2328 29.4742 22.8435 29.0791 22.1677" fill="#F3D95A"/></g></g><g id="Group 77"><mask id="mask6_723_1694120ca224e-5504-4f2d-aa2a-a0794d04e00e" style="mask-type:luminance" maskUnits="userSpaceOnUse" x="32" y="7" width="56" height="109" fill="#ffffff"><path id="Clip 76" fill-rule="evenodd" clip-rule="evenodd" d="M39.2554 7.39242L39.6297 12.1645C39.6297 12.1645 39.554 12.2839 39.4234 12.5009V12.5009C39.4223 12.505 39.4203 12.5071 39.4192 12.5092V12.5092C38.8395 13.4715 37.1471 16.4083 35.5324 20.3811V20.3811L35.5303 20.3842C33.8555 24.5085 32.2668 29.7447 32.1081 35.0431V35.0431C31.8914 42.3305 38.0638 76.1164 38.0638 76.1164V76.1164C38.0638 76.1164 36.5197 81.2321 37.8709 90.0642V90.0642C37.8709 90.0642 36.1588 94.9142 38.1841 102.445V102.445C38.1841 102.445 36.9054 109.998 38.0638 115.403V115.403H51.9487L54.6492 78.2393L57.1557 50.8242L68.7757 73.2689C68.7757 73.2689 64.4854 77.2739 64.0032 86.1548V86.1548C64.0032 86.1548 59.181 90.5947 58.7475 98.3181V98.3181C58.7475 98.3181 55.3243 101.559 55.1791 107.975V107.975L67.0407 115.403C67.0407 115.403 85.0997 84.4014 86.8595 75.8745V75.8745C88.6173 67.3486 83.9641 56.2825 80.348 47.1836V47.1836C76.7318 38.0827 63.0761 11.8635 63.0761 11.8635V11.8635L63.6766 7.6426C63.6766 7.6426 61.2727 7.30937 58.7403 8.05783V8.05783C58.7403 8.05783 56.4017 6.55986 53.4783 8.05783V8.05783C53.4783 8.05783 51.0766 6.81004 48.2185 8.05783V8.05783C48.2185 8.05783 45.3604 6.727 43.4118 8.05783V8.05783C43.4118 8.05783 41.4497 7.34985 39.8734 7.34985V7.34985C39.6577 7.34985 39.4503 7.36231 39.2554 7.39242" fill="#ffffff"/></mask><g mask="url(#mask6_723_1694120ca224e-5504-4f2d-aa2a-a0794d04e00e)"><path id="Fill 75" fill-rule="evenodd" clip-rule="evenodd" d="M73.4821 81.5065C73.2021 82.1553 72.7407 82.6287 72.3082 83.1238C71.3293 84.245 71.3718 84.6145 72.5768 85.5042C73.7238 86.3492 73.7238 86.3492 72.5229 86.9824C70.9756 87.7984 70.9839 87.7973 71.379 89.8839C71.4537 90.2805 71.8146 90.8088 71.4278 91.0507C71.1778 91.2064 70.6303 90.9334 70.2373 90.7943C69.782 90.6334 69.3184 90.4549 68.9119 90.2005C68.1165 89.7033 67.5741 89.9389 67.0867 90.6583C66.7725 91.1244 66.4697 91.9196 65.9107 91.7784C65.3601 91.6383 65.5467 90.7933 65.4461 90.2504C65.1776 88.7814 65.0127 88.6226 63.5453 88.3818C63.1885 88.3226 62.839 88.2178 62.4875 88.1285C62.2116 88.0589 61.7885 88.2053 61.7076 87.8378C61.6402 87.5285 61.9938 87.3302 62.2054 87.1226C62.81 86.5267 63.4021 85.9122 64.0451 85.3599C64.7482 84.7557 64.9556 84.0581 64.7181 83.1685C64.5698 82.6131 64.4941 82.0359 64.4257 81.4639C64.3645 80.9469 64.5294 80.7559 65.1101 80.9449C67.1064 81.5947 67.1261 81.5833 68.3623 79.9203C68.8217 79.3026 69.0841 79.3524 69.2811 80.0708C69.2894 80.1009 69.306 80.1268 69.3174 80.1549C70.091 82.0494 70.089 82.039 72.1796 81.6622C72.5841 81.5906 72.9792 81.3778 73.4821 81.5065" fill="#F28DFD"/></g></g><g id="Group 80"><mask id="mask7_723_1694120ca224e-5504-4f2d-aa2a-a0794d04e00e" style="mask-type:luminance" maskUnits="userSpaceOnUse" x="32" y="7" width="56" height="109" fill="#ffffff"><path id="Clip 79" fill-rule="evenodd" clip-rule="evenodd" d="M39.2554 7.39242L39.6297 12.1645C39.6297 12.1645 39.554 12.2839 39.4234 12.5009V12.5009C39.4223 12.505 39.4203 12.5071 39.4192 12.5092V12.5092C38.8395 13.4715 37.1471 16.4083 35.5324 20.3811V20.3811L35.5303 20.3842C33.8555 24.5085 32.2668 29.7447 32.1081 35.0431V35.0431C31.8914 42.3305 38.0638 76.1164 38.0638 76.1164V76.1164C38.0638 76.1164 36.5197 81.2321 37.8709 90.0642V90.0642C37.8709 90.0642 36.1588 94.9142 38.1841 102.445V102.445C38.1841 102.445 36.9054 109.998 38.0638 115.403V115.403H51.9487L54.6492 78.2393L57.1557 50.8242L68.7757 73.2689C68.7757 73.2689 64.4854 77.2739 64.0032 86.1548V86.1548C64.0032 86.1548 59.181 90.5947 58.7475 98.3181V98.3181C58.7475 98.3181 55.3243 101.559 55.1791 107.975V107.975L67.0407 115.403C67.0407 115.403 85.0997 84.4014 86.8595 75.8745V75.8745C88.6173 67.3486 83.9641 56.2825 80.348 47.1836V47.1836C76.7318 38.0827 63.0761 11.8635 63.0761 11.8635V11.8635L63.6766 7.6426C63.6766 7.6426 61.2727 7.30937 58.7403 8.05783V8.05783C58.7403 8.05783 56.4017 6.55986 53.4783 8.05783V8.05783C53.4783 8.05783 51.0766 6.81004 48.2185 8.05783V8.05783C48.2185 8.05783 45.3604 6.727 43.4118 8.05783V8.05783C43.4118 8.05783 41.4497 7.34985 39.8734 7.34985V7.34985C39.6577 7.34985 39.4503 7.36231 39.2554 7.39242" fill="#ffffff"/></mask><g mask="url(#mask7_723_1694120ca224e-5504-4f2d-aa2a-a0794d04e00e)"><path id="Fill 78" fill-rule="evenodd" clip-rule="evenodd" d="M38.2246 108.075C38.4092 107.84 38.5554 107.622 38.7338 107.433C39.6277 106.484 40.1836 105.344 40.6378 104.141C40.6855 104.015 40.6616 103.799 40.8483 103.782C41.0194 103.767 41.0785 103.948 41.1615 104.07C41.4871 104.552 41.8148 105.032 42.1415 105.515C42.5055 106.053 42.9618 106.495 43.5405 106.79C43.8256 106.935 43.8816 107.06 43.6452 107.318C42.7419 108.302 42.1156 109.451 41.6811 110.71C41.6416 110.822 41.6582 111.013 41.4892 111.014C41.3399 111.015 41.3368 110.84 41.2714 110.735C40.6668 109.773 40.0052 108.867 38.9132 108.398C38.6944 108.304 38.4808 108.196 38.2246 108.075" fill="#F3D95A"/></g></g><g id="Group 83"><mask id="mask8_723_1694120ca224e-5504-4f2d-aa2a-a0794d04e00e" style="mask-type:luminance" maskUnits="userSpaceOnUse" x="32" y="7" width="56" height="109" fill="#ffffff"><path id="Clip 82" fill-rule="evenodd" clip-rule="evenodd" d="M39.2554 7.39242L39.6297 12.1645C39.6297 12.1645 39.554 12.2839 39.4234 12.5009V12.5009C39.4223 12.505 39.4203 12.5071 39.4192 12.5092V12.5092C38.8395 13.4715 37.1471 16.4083 35.5324 20.3811V20.3811L35.5303 20.3842C33.8555 24.5085 32.2668 29.7447 32.1081 35.0431V35.0431C31.8914 42.3305 38.0638 76.1164 38.0638 76.1164V76.1164C38.0638 76.1164 36.5197 81.2321 37.8709 90.0642V90.0642C37.8709 90.0642 36.1588 94.9142 38.1841 102.445V102.445C38.1841 102.445 36.9054 109.998 38.0638 115.403V115.403H51.9487L54.6492 78.2393L57.1557 50.8242L68.7757 73.2689C68.7757 73.2689 64.4854 77.2739 64.0032 86.1548V86.1548C64.0032 86.1548 59.181 90.5947 58.7475 98.3181V98.3181C58.7475 98.3181 55.3243 101.559 55.1791 107.975V107.975L67.0407 115.403C67.0407 115.403 85.0997 84.4014 86.8595 75.8745V75.8745C88.6173 67.3486 83.9641 56.2825 80.348 47.1836V47.1836C76.7318 38.0827 63.0761 11.8635 63.0761 11.8635V11.8635L63.6766 7.6426C63.6766 7.6426 61.2727 7.30937 58.7403 8.05783V8.05783C58.7403 8.05783 56.4017 6.55986 53.4783 8.05783V8.05783C53.4783 8.05783 51.0766 6.81004 48.2185 8.05783V8.05783C48.2185 8.05783 45.3604 6.727 43.4118 8.05783V8.05783C43.4118 8.05783 41.4497 7.34985 39.8734 7.34985V7.34985C39.6577 7.34985 39.4503 7.36231 39.2554 7.39242" fill="#ffffff"/></mask><g mask="url(#mask8_723_1694120ca224e-5504-4f2d-aa2a-a0794d04e00e)"><path id="Fill 81" fill-rule="evenodd" clip-rule="evenodd" d="M62.6575 49.6976C64.3406 49.6063 65.9263 51.2641 66.0113 53.2022C66.1005 55.2535 64.602 56.7826 62.3941 56.8927C60.6623 56.9788 59.4697 55.8182 59.3846 53.96C59.2882 51.8278 60.4103 49.5668 62.6575 49.6976" fill="#F3D95A"/></g></g><g id="Group 86"><mask id="mask9_723_1694120ca224e-5504-4f2d-aa2a-a0794d04e00e" style="mask-type:luminance" maskUnits="userSpaceOnUse" x="32" y="7" width="56" height="109" fill="#ffffff"><path id="Clip 85" fill-rule="evenodd" clip-rule="evenodd" d="M39.2554 7.39242L39.6297 12.1645C39.6297 12.1645 39.554 12.2839 39.4234 12.5009V12.5009C39.4223 12.505 39.4203 12.5071 39.4192 12.5092V12.5092C38.8395 13.4715 37.1471 16.4083 35.5324 20.3811V20.3811L35.5303 20.3842C33.8555 24.5085 32.2668 29.7447 32.1081 35.0431V35.0431C31.8914 42.3305 38.0638 76.1164 38.0638 76.1164V76.1164C38.0638 76.1164 36.5197 81.2321 37.8709 90.0642V90.0642C37.8709 90.0642 36.1588 94.9142 38.1841 102.445V102.445C38.1841 102.445 36.9054 109.998 38.0638 115.403V115.403H51.9487L54.6492 78.2393L57.1557 50.8242L68.7757 73.2689C68.7757 73.2689 64.4854 77.2739 64.0032 86.1548V86.1548C64.0032 86.1548 59.181 90.5947 58.7475 98.3181V98.3181C58.7475 98.3181 55.3243 101.559 55.1791 107.975V107.975L67.0407 115.403C67.0407 115.403 85.0997 84.4014 86.8595 75.8745V75.8745C88.6173 67.3486 83.9641 56.2825 80.348 47.1836V47.1836C76.7318 38.0827 63.0761 11.8635 63.0761 11.8635V11.8635L63.6766 7.6426C63.6766 7.6426 61.2727 7.30937 58.7403 8.05783V8.05783C58.7403 8.05783 56.4017 6.55986 53.4783 8.05783V8.05783C53.4783 8.05783 51.0766 6.81004 48.2185 8.05783V8.05783C48.2185 8.05783 45.3604 6.727 43.4118 8.05783V8.05783C43.4118 8.05783 41.4497 7.34985 39.8734 7.34985V7.34985C39.6577 7.34985 39.4503 7.36231 39.2554 7.39242" fill="#ffffff"/></mask><g mask="url(#mask9_723_1694120ca224e-5504-4f2d-aa2a-a0794d04e00e)"><path id="Fill 84" fill-rule="evenodd" clip-rule="evenodd" d="M84.0957 74.4566C84.2927 71.9071 85.4573 70.7849 87.6175 70.7122C89.1938 70.6593 90.7804 72.6389 90.7701 74.5646C90.7607 76.3999 89.1803 78.09 87.493 78.0682C85.6409 78.0464 84.104 76.4124 84.0957 74.4566" fill="#F3D95A"/></g></g><g id="Group 89"><mask id="mask10_723_1694120ca224e-5504-4f2d-aa2a-a0794d04e00e" style="mask-type:luminance" maskUnits="userSpaceOnUse" x="32" y="7" width="56" height="109" fill="#ffffff"><path id="Clip 88" fill-rule="evenodd" clip-rule="evenodd" d="M39.2554 7.39242L39.6297 12.1645C39.6297 12.1645 39.554 12.2839 39.4234 12.5009V12.5009C39.4223 12.505 39.4203 12.5071 39.4192 12.5092V12.5092C38.8395 13.4715 37.1471 16.4083 35.5324 20.3811V20.3811L35.5303 20.3842C33.8555 24.5085 32.2668 29.7447 32.1081 35.0431V35.0431C31.8914 42.3305 38.0638 76.1164 38.0638 76.1164V76.1164C38.0638 76.1164 36.5197 81.2321 37.8709 90.0642V90.0642C37.8709 90.0642 36.1588 94.9142 38.1841 102.445V102.445C38.1841 102.445 36.9054 109.998 38.0638 115.403V115.403H51.9487L54.6492 78.2393L57.1557 50.8242L68.7757 73.2689C68.7757 73.2689 64.4854 77.2739 64.0032 86.1548V86.1548C64.0032 86.1548 59.181 90.5947 58.7475 98.3181V98.3181C58.7475 98.3181 55.3243 101.559 55.1791 107.975V107.975L67.0407 115.403C67.0407 115.403 85.0997 84.4014 86.8595 75.8745V75.8745C88.6173 67.3486 83.9641 56.2825 80.348 47.1836V47.1836C76.7318 38.0827 63.0761 11.8635 63.0761 11.8635V11.8635L63.6766 7.6426C63.6766 7.6426 61.2727 7.30937 58.7403 8.05783V8.05783C58.7403 8.05783 56.4017 6.55986 53.4783 8.05783V8.05783C53.4783 8.05783 51.0766 6.81004 48.2185 8.05783V8.05783C48.2185 8.05783 45.3604 6.727 43.4118 8.05783V8.05783C43.4118 8.05783 41.4497 7.34985 39.8734 7.34985V7.34985C39.6577 7.34985 39.4503 7.36231 39.2554 7.39242" fill="#ffffff"/></mask><g mask="url(#mask10_723_1694120ca224e-5504-4f2d-aa2a-a0794d04e00e)"><path id="Fill 87" fill-rule="evenodd" clip-rule="evenodd" d="M57.1374 37.1482C58.3487 38.5901 59.7404 39.705 61.1953 40.7431C61.5013 40.9622 61.5956 41.1241 61.3053 41.4542C60.2921 42.6096 59.5973 43.956 59.1057 45.4011C58.9584 45.835 58.7956 45.8609 58.4835 45.5983C57.1374 44.4626 55.7374 43.41 54.1528 42.621C53.6219 42.3574 53.9226 42.0262 54.1736 41.7532C55.3962 40.4203 56.2041 38.8226 57.1374 37.1482" fill="#FED21C"/></g></g><g id="Group 92"><mask id="mask11_723_1694120ca224e-5504-4f2d-aa2a-a0794d04e00e" style="mask-type:luminance" maskUnits="userSpaceOnUse" x="32" y="7" width="56" height="109" fill="#ffffff"><path id="Clip 91" fill-rule="evenodd" clip-rule="evenodd" d="M39.2554 7.39242L39.6297 12.1645C39.6297 12.1645 39.554 12.2839 39.4234 12.5009V12.5009C39.4223 12.505 39.4203 12.5071 39.4192 12.5092V12.5092C38.8395 13.4715 37.1471 16.4083 35.5324 20.3811V20.3811L35.5303 20.3842C33.8555 24.5085 32.2668 29.7447 32.1081 35.0431V35.0431C31.8914 42.3305 38.0638 76.1164 38.0638 76.1164V76.1164C38.0638 76.1164 36.5197 81.2321 37.8709 90.0642V90.0642C37.8709 90.0642 36.1588 94.9142 38.1841 102.445V102.445C38.1841 102.445 36.9054 109.998 38.0638 115.403V115.403H51.9487L54.6492 78.2393L57.1557 50.8242L68.7757 73.2689C68.7757 73.2689 64.4854 77.2739 64.0032 86.1548V86.1548C64.0032 86.1548 59.181 90.5947 58.7475 98.3181V98.3181C58.7475 98.3181 55.3243 101.559 55.1791 107.975V107.975L67.0407 115.403C67.0407 115.403 85.0997 84.4014 86.8595 75.8745V75.8745C88.6173 67.3486 83.9641 56.2825 80.348 47.1836V47.1836C76.7318 38.0827 63.0761 11.8635 63.0761 11.8635V11.8635L63.6766 7.6426C63.6766 7.6426 61.2727 7.30937 58.7403 8.05783V8.05783C58.7403 8.05783 56.4017 6.55986 53.4783 8.05783V8.05783C53.4783 8.05783 51.0766 6.81004 48.2185 8.05783V8.05783C48.2185 8.05783 45.3604 6.727 43.4118 8.05783V8.05783C43.4118 8.05783 41.4497 7.34985 39.8734 7.34985V7.34985C39.6577 7.34985 39.4503 7.36231 39.2554 7.39242" fill="#ffffff"/></mask><g mask="url(#mask11_723_1694120ca224e-5504-4f2d-aa2a-a0794d04e00e)"><path id="Fill 90" fill-rule="evenodd" clip-rule="evenodd" d="M59.1599 94.9165C60.0611 96.5038 61.2008 97.4899 62.412 98.3993C62.7024 98.6173 62.7698 98.8177 62.579 99.1634C61.7048 100.747 60.6294 102.236 60.2778 104.077C60.1772 104.597 59.7064 104.54 59.4834 104.184C58.6631 102.876 57.4052 101.994 56.39 100.88C56.1369 100.604 55.9222 100.403 56.2126 99.9585C57.2289 98.4004 58.4225 96.9491 59.1599 94.9165" fill="#FED21C"/></g></g><g id="Group 95"><mask id="mask12_723_1694120ca224e-5504-4f2d-aa2a-a0794d04e00e" style="mask-type:luminance" maskUnits="userSpaceOnUse" x="32" y="7" width="56" height="109" fill="#ffffff"><path id="Clip 94" fill-rule="evenodd" clip-rule="evenodd" d="M39.2554 7.39242L39.6297 12.1645C39.6297 12.1645 39.554 12.2839 39.4234 12.5009V12.5009C39.4223 12.505 39.4203 12.5071 39.4192 12.5092V12.5092C38.8395 13.4715 37.1471 16.4083 35.5324 20.3811V20.3811L35.5303 20.3842C33.8555 24.5085 32.2668 29.7447 32.1081 35.0431V35.0431C31.8914 42.3305 38.0638 76.1164 38.0638 76.1164V76.1164C38.0638 76.1164 36.5197 81.2321 37.8709 90.0642V90.0642C37.8709 90.0642 36.1588 94.9142 38.1841 102.445V102.445C38.1841 102.445 36.9054 109.998 38.0638 115.403V115.403H51.9487L54.6492 78.2393L57.1557 50.8242L68.7757 73.2689C68.7757 73.2689 64.4854 77.2739 64.0032 86.1548V86.1548C64.0032 86.1548 59.181 90.5947 58.7475 98.3181V98.3181C58.7475 98.3181 55.3243 101.559 55.1791 107.975V107.975L67.0407 115.403C67.0407 115.403 85.0997 84.4014 86.8595 75.8745V75.8745C88.6173 67.3486 83.9641 56.2825 80.348 47.1836V47.1836C76.7318 38.0827 63.0761 11.8635 63.0761 11.8635V11.8635L63.6766 7.6426C63.6766 7.6426 61.2727 7.30937 58.7403 8.05783V8.05783C58.7403 8.05783 56.4017 6.55986 53.4783 8.05783V8.05783C53.4783 8.05783 51.0766 6.81004 48.2185 8.05783V8.05783C48.2185 8.05783 45.3604 6.727 43.4118 8.05783V8.05783C43.4118 8.05783 41.4497 7.34985 39.8734 7.34985V7.34985C39.6577 7.34985 39.4503 7.36231 39.2554 7.39242" fill="#ffffff"/></mask><g mask="url(#mask12_723_1694120ca224e-5504-4f2d-aa2a-a0794d04e00e)"><path id="Fill 93" fill-rule="evenodd" clip-rule="evenodd" d="M39.2538 35.952C40.0088 37.5953 41.2356 38.7455 42.536 39.8282C42.9104 40.1407 42.59 40.3182 42.4261 40.4749C41.0759 41.7746 40.322 43.4003 39.8356 45.2024C39.3461 44.9398 39.2227 44.4415 38.9676 44.046C38.3329 43.0629 37.4338 42.3425 36.5741 41.5816C36.3709 41.4009 35.9654 41.2234 36.3252 40.8715C37.72 39.5054 38.5289 37.7956 39.2538 35.952" fill="#F3D95A"/></g></g><g id="Group 98"><mask id="mask13_723_1694120ca224e-5504-4f2d-aa2a-a0794d04e00e" style="mask-type:luminance" maskUnits="userSpaceOnUse" x="32" y="7" width="56" height="109" fill="#ffffff"><path id="Clip 97" fill-rule="evenodd" clip-rule="evenodd" d="M39.2554 7.39242L39.6297 12.1645C39.6297 12.1645 39.554 12.2839 39.4234 12.5009V12.5009C39.4223 12.505 39.4203 12.5071 39.4192 12.5092V12.5092C38.8395 13.4715 37.1471 16.4083 35.5324 20.3811V20.3811L35.5303 20.3842C33.8555 24.5085 32.2668 29.7447 32.1081 35.0431V35.0431C31.8914 42.3305 38.0638 76.1164 38.0638 76.1164V76.1164C38.0638 76.1164 36.5197 81.2321 37.8709 90.0642V90.0642C37.8709 90.0642 36.1588 94.9142 38.1841 102.445V102.445C38.1841 102.445 36.9054 109.998 38.0638 115.403V115.403H51.9487L54.6492 78.2393L57.1557 50.8242L68.7757 73.2689C68.7757 73.2689 64.4854 77.2739 64.0032 86.1548V86.1548C64.0032 86.1548 59.181 90.5947 58.7475 98.3181V98.3181C58.7475 98.3181 55.3243 101.559 55.1791 107.975V107.975L67.0407 115.403C67.0407 115.403 85.0997 84.4014 86.8595 75.8745V75.8745C88.6173 67.3486 83.9641 56.2825 80.348 47.1836V47.1836C76.7318 38.0827 63.0761 11.8635 63.0761 11.8635V11.8635L63.6766 7.6426C63.6766 7.6426 61.2727 7.30937 58.7403 8.05783V8.05783C58.7403 8.05783 56.4017 6.55986 53.4783 8.05783V8.05783C53.4783 8.05783 51.0766 6.81004 48.2185 8.05783V8.05783C48.2185 8.05783 45.3604 6.727 43.4118 8.05783V8.05783C43.4118 8.05783 41.4497 7.34985 39.8734 7.34985V7.34985C39.6577 7.34985 39.4503 7.36231 39.2554 7.39242" fill="#ffffff"/></mask><g mask="url(#mask13_723_1694120ca224e-5504-4f2d-aa2a-a0794d04e00e)"><path id="Fill 96" fill-rule="evenodd" clip-rule="evenodd" d="M72.9581 49.7189C73.6778 50.3552 74.3135 50.9573 75.0965 51.3528C75.3547 51.4826 75.2074 51.6227 75.1141 51.7297C74.4566 52.4812 74.0916 53.3937 73.6892 54.2865C73.6063 54.4723 73.4663 54.7142 73.2817 54.4028C72.8523 53.6751 72.1025 53.2723 71.5695 52.6505C71.3911 52.4439 71.3175 52.31 71.5311 52.1065C72.2052 51.4649 72.7279 50.7248 72.9581 49.7189" fill="#C2F5FF"/></g></g><g id="Group 101"><mask id="mask14_723_1694120ca224e-5504-4f2d-aa2a-a0794d04e00e" style="mask-type:luminance" maskUnits="userSpaceOnUse" x="32" y="7" width="56" height="109" fill="#ffffff"><path id="Clip 100" fill-rule="evenodd" clip-rule="evenodd" d="M39.2554 7.39242L39.6297 12.1645C39.6297 12.1645 39.554 12.2839 39.4234 12.5009V12.5009C39.4223 12.505 39.4203 12.5071 39.4192 12.5092V12.5092C38.8395 13.4715 37.1471 16.4083 35.5324 20.3811V20.3811L35.5303 20.3842C33.8555 24.5085 32.2668 29.7447 32.1081 35.0431V35.0431C31.8914 42.3305 38.0638 76.1164 38.0638 76.1164V76.1164C38.0638 76.1164 36.5197 81.2321 37.8709 90.0642V90.0642C37.8709 90.0642 36.1588 94.9142 38.1841 102.445V102.445C38.1841 102.445 36.9054 109.998 38.0638 115.403V115.403H51.9487L54.6492 78.2393L57.1557 50.8242L68.7757 73.2689C68.7757 73.2689 64.4854 77.2739 64.0032 86.1548V86.1548C64.0032 86.1548 59.181 90.5947 58.7475 98.3181V98.3181C58.7475 98.3181 55.3243 101.559 55.1791 107.975V107.975L67.0407 115.403C67.0407 115.403 85.0997 84.4014 86.8595 75.8745V75.8745C88.6173 67.3486 83.9641 56.2825 80.348 47.1836V47.1836C76.7318 38.0827 63.0761 11.8635 63.0761 11.8635V11.8635L63.6766 7.6426C63.6766 7.6426 61.2727 7.30937 58.7403 8.05783V8.05783C58.7403 8.05783 56.4017 6.55986 53.4783 8.05783V8.05783C53.4783 8.05783 51.0766 6.81004 48.2185 8.05783V8.05783C48.2185 8.05783 45.3604 6.727 43.4118 8.05783V8.05783C43.4118 8.05783 41.4497 7.34985 39.8734 7.34985V7.34985C39.6577 7.34985 39.4503 7.36231 39.2554 7.39242" fill="#ffffff"/></mask><g mask="url(#mask14_723_1694120ca224e-5504-4f2d-aa2a-a0794d04e00e)"><path id="Fill 99" fill-rule="evenodd" clip-rule="evenodd" d="M64.557 40.9052C65.0268 40.8927 65.5837 41.4927 65.5982 42.0263C65.6127 42.5744 65.0237 43.1464 64.4315 43.1589C63.8207 43.1713 63.3323 42.6481 63.3167 41.963C63.3022 41.3578 63.8093 40.9259 64.557 40.9052" fill="#FED21C"/></g></g><g id="Group 104"><mask id="mask15_723_1694120ca224e-5504-4f2d-aa2a-a0794d04e00e" style="mask-type:luminance" maskUnits="userSpaceOnUse" x="32" y="7" width="56" height="109" fill="#ffffff"><path id="Clip 103" fill-rule="evenodd" clip-rule="evenodd" d="M39.2554 7.39242L39.6297 12.1645C39.6297 12.1645 39.554 12.2839 39.4234 12.5009V12.5009C39.4223 12.505 39.4203 12.5071 39.4192 12.5092V12.5092C38.8395 13.4715 37.1471 16.4083 35.5324 20.3811V20.3811L35.5303 20.3842C33.8555 24.5085 32.2668 29.7447 32.1081 35.0431V35.0431C31.8914 42.3305 38.0638 76.1164 38.0638 76.1164V76.1164C38.0638 76.1164 36.5197 81.2321 37.8709 90.0642V90.0642C37.8709 90.0642 36.1588 94.9142 38.1841 102.445V102.445C38.1841 102.445 36.9054 109.998 38.0638 115.403V115.403H51.9487L54.6492 78.2393L57.1557 50.8242L68.7757 73.2689C68.7757 73.2689 64.4854 77.2739 64.0032 86.1548V86.1548C64.0032 86.1548 59.181 90.5947 58.7475 98.3181V98.3181C58.7475 98.3181 55.3243 101.559 55.1791 107.975V107.975L67.0407 115.403C67.0407 115.403 85.0997 84.4014 86.8595 75.8745V75.8745C88.6173 67.3486 83.9641 56.2825 80.348 47.1836V47.1836C76.7318 38.0827 63.0761 11.8635 63.0761 11.8635V11.8635L63.6766 7.6426C63.6766 7.6426 61.2727 7.30937 58.7403 8.05783V8.05783C58.7403 8.05783 56.4017 6.55986 53.4783 8.05783V8.05783C53.4783 8.05783 51.0766 6.81004 48.2185 8.05783V8.05783C48.2185 8.05783 45.3604 6.727 43.4118 8.05783V8.05783C43.4118 8.05783 41.4497 7.34985 39.8734 7.34985V7.34985C39.6577 7.34985 39.4503 7.36231 39.2554 7.39242" fill="#ffffff"/></mask><g mask="url(#mask15_723_1694120ca224e-5504-4f2d-aa2a-a0794d04e00e)"><path id="Fill 102" fill-rule="evenodd" clip-rule="evenodd" d="M69.937 100.853C68.3275 100.723 67.3008 99.5306 67.4595 97.9756C67.5777 96.8326 68.8097 95.9617 70.1444 96.0769C71.3898 96.1849 72.347 97.3392 72.2319 98.5953C72.1064 99.9635 71.1067 100.948 69.937 100.853" fill="#FED21C"/></g></g><g id="Group 107"><mask id="mask16_723_1694120ca224e-5504-4f2d-aa2a-a0794d04e00e" style="mask-type:luminance" maskUnits="userSpaceOnUse" x="32" y="7" width="56" height="109" fill="#ffffff"><path id="Clip 106" fill-rule="evenodd" clip-rule="evenodd" d="M39.2554 7.39242L39.6297 12.1645C39.6297 12.1645 39.554 12.2839 39.4234 12.5009V12.5009C39.4223 12.505 39.4203 12.5071 39.4192 12.5092V12.5092C38.8395 13.4715 37.1471 16.4083 35.5324 20.3811V20.3811L35.5303 20.3842C33.8555 24.5085 32.2668 29.7447 32.1081 35.0431V35.0431C31.8914 42.3305 38.0638 76.1164 38.0638 76.1164V76.1164C38.0638 76.1164 36.5197 81.2321 37.8709 90.0642V90.0642C37.8709 90.0642 36.1588 94.9142 38.1841 102.445V102.445C38.1841 102.445 36.9054 109.998 38.0638 115.403V115.403H51.9487L54.6492 78.2393L57.1557 50.8242L68.7757 73.2689C68.7757 73.2689 64.4854 77.2739 64.0032 86.1548V86.1548C64.0032 86.1548 59.181 90.5947 58.7475 98.3181V98.3181C58.7475 98.3181 55.3243 101.559 55.1791 107.975V107.975L67.0407 115.403C67.0407 115.403 85.0997 84.4014 86.8595 75.8745V75.8745C88.6173 67.3486 83.9641 56.2825 80.348 47.1836V47.1836C76.7318 38.0827 63.0761 11.8635 63.0761 11.8635V11.8635L63.6766 7.6426C63.6766 7.6426 61.2727 7.30937 58.7403 8.05783V8.05783C58.7403 8.05783 56.4017 6.55986 53.4783 8.05783V8.05783C53.4783 8.05783 51.0766 6.81004 48.2185 8.05783V8.05783C48.2185 8.05783 45.3604 6.727 43.4118 8.05783V8.05783C43.4118 8.05783 41.4497 7.34985 39.8734 7.34985V7.34985C39.6577 7.34985 39.4503 7.36231 39.2554 7.39242" fill="#ffffff"/></mask><g mask="url(#mask16_723_1694120ca224e-5504-4f2d-aa2a-a0794d04e00e)"><path id="Fill 105" fill-rule="evenodd" clip-rule="evenodd" d="M53.1172 69.1579C51.795 69.1464 50.535 68.1063 50.5619 67.0474C50.5889 66.028 51.8531 64.8093 52.8642 64.828C54.1802 64.8529 55.5864 66.1183 55.6009 67.2924C55.6123 68.3523 54.5245 69.1682 53.1172 69.1579" fill="#FED21C"/></g></g><g id="Group 110"><mask id="mask17_723_1694120ca224e-5504-4f2d-aa2a-a0794d04e00e" style="mask-type:luminance" maskUnits="userSpaceOnUse" x="32" y="7" width="56" height="109" fill="#ffffff"><path id="Clip 109" fill-rule="evenodd" clip-rule="evenodd" d="M39.2554 7.39242L39.6297 12.1645C39.6297 12.1645 39.554 12.2839 39.4234 12.5009V12.5009C39.4223 12.505 39.4203 12.5071 39.4192 12.5092V12.5092C38.8395 13.4715 37.1471 16.4083 35.5324 20.3811V20.3811L35.5303 20.3842C33.8555 24.5085 32.2668 29.7447 32.1081 35.0431V35.0431C31.8914 42.3305 38.0638 76.1164 38.0638 76.1164V76.1164C38.0638 76.1164 36.5197 81.2321 37.8709 90.0642V90.0642C37.8709 90.0642 36.1588 94.9142 38.1841 102.445V102.445C38.1841 102.445 36.9054 109.998 38.0638 115.403V115.403H51.9487L54.6492 78.2393L57.1557 50.8242L68.7757 73.2689C68.7757 73.2689 64.4854 77.2739 64.0032 86.1548V86.1548C64.0032 86.1548 59.181 90.5947 58.7475 98.3181V98.3181C58.7475 98.3181 55.3243 101.559 55.1791 107.975V107.975L67.0407 115.403C67.0407 115.403 85.0997 84.4014 86.8595 75.8745V75.8745C88.6173 67.3486 83.9641 56.2825 80.348 47.1836V47.1836C76.7318 38.0827 63.0761 11.8635 63.0761 11.8635V11.8635L63.6766 7.6426C63.6766 7.6426 61.2727 7.30937 58.7403 8.05783V8.05783C58.7403 8.05783 56.4017 6.55986 53.4783 8.05783V8.05783C53.4783 8.05783 51.0766 6.81004 48.2185 8.05783V8.05783C48.2185 8.05783 45.3604 6.727 43.4118 8.05783V8.05783C43.4118 8.05783 41.4497 7.34985 39.8734 7.34985V7.34985C39.6577 7.34985 39.4503 7.36231 39.2554 7.39242" fill="#ffffff"/></mask><g mask="url(#mask17_723_1694120ca224e-5504-4f2d-aa2a-a0794d04e00e)"><path id="Fill 108" fill-rule="evenodd" clip-rule="evenodd" d="M49.2008 99.4056C49.3367 100.888 47.7946 101.692 46.6435 101.811C45.6251 101.916 44.6648 100.837 44.641 99.7388C44.6161 98.6436 45.8554 97.5463 47.1071 97.5567C48.2157 97.5661 49.1874 98.4246 49.2008 99.4056" fill="#FED21C"/></g></g><g id="Group 113"><mask id="mask18_723_1694120ca224e-5504-4f2d-aa2a-a0794d04e00e" style="mask-type:luminance" maskUnits="userSpaceOnUse" x="32" y="7" width="56" height="109" fill="#ffffff"><path id="Clip 112" fill-rule="evenodd" clip-rule="evenodd" d="M39.2554 7.39242L39.6297 12.1645C39.6297 12.1645 39.554 12.2839 39.4234 12.5009V12.5009C39.4223 12.505 39.4203 12.5071 39.4192 12.5092V12.5092C38.8395 13.4715 37.1471 16.4083 35.5324 20.3811V20.3811L35.5303 20.3842C33.8555 24.5085 32.2668 29.7447 32.1081 35.0431V35.0431C31.8914 42.3305 38.0638 76.1164 38.0638 76.1164V76.1164C38.0638 76.1164 36.5197 81.2321 37.8709 90.0642V90.0642C37.8709 90.0642 36.1588 94.9142 38.1841 102.445V102.445C38.1841 102.445 36.9054 109.998 38.0638 115.403V115.403H51.9487L54.6492 78.2393L57.1557 50.8242L68.7757 73.2689C68.7757 73.2689 64.4854 77.2739 64.0032 86.1548V86.1548C64.0032 86.1548 59.181 90.5947 58.7475 98.3181V98.3181C58.7475 98.3181 55.3243 101.559 55.1791 107.975V107.975L67.0407 115.403C67.0407 115.403 85.0997 84.4014 86.8595 75.8745V75.8745C88.6173 67.3486 83.9641 56.2825 80.348 47.1836V47.1836C76.7318 38.0827 63.0761 11.8635 63.0761 11.8635V11.8635L63.6766 7.6426C63.6766 7.6426 61.2727 7.30937 58.7403 8.05783V8.05783C58.7403 8.05783 56.4017 6.55986 53.4783 8.05783V8.05783C53.4783 8.05783 51.0766 6.81004 48.2185 8.05783V8.05783C48.2185 8.05783 45.3604 6.727 43.4118 8.05783V8.05783C43.4118 8.05783 41.4497 7.34985 39.8734 7.34985V7.34985C39.6577 7.34985 39.4503 7.36231 39.2554 7.39242" fill="#ffffff"/></mask><g mask="url(#mask18_723_1694120ca224e-5504-4f2d-aa2a-a0794d04e00e)"/></g><g id="Group 116"><mask id="mask19_723_1694120ca224e-5504-4f2d-aa2a-a0794d04e00e" style="mask-type:luminance" maskUnits="userSpaceOnUse" x="32" y="7" width="56" height="109" fill="#ffffff"><path id="Clip 115" fill-rule="evenodd" clip-rule="evenodd" d="M39.2554 7.39242L39.6297 12.1645C39.6297 12.1645 39.554 12.2839 39.4234 12.5009V12.5009C39.4223 12.505 39.4203 12.5071 39.4192 12.5092V12.5092C38.8395 13.4715 37.1471 16.4083 35.5324 20.3811V20.3811L35.5303 20.3842C33.8555 24.5085 32.2668 29.7447 32.1081 35.0431V35.0431C31.8914 42.3305 38.0638 76.1164 38.0638 76.1164V76.1164C38.0638 76.1164 36.5197 81.2321 37.8709 90.0642V90.0642C37.8709 90.0642 36.1588 94.9142 38.1841 102.445V102.445C38.1841 102.445 36.9054 109.998 38.0638 115.403V115.403H51.9487L54.6492 78.2393L57.1557 50.8242L68.7757 73.2689C68.7757 73.2689 64.4854 77.2739 64.0032 86.1548V86.1548C64.0032 86.1548 59.181 90.5947 58.7475 98.3181V98.3181C58.7475 98.3181 55.3243 101.559 55.1791 107.975V107.975L67.0407 115.403C67.0407 115.403 85.0997 84.4014 86.8595 75.8745V75.8745C88.6173 67.3486 83.9641 56.2825 80.348 47.1836V47.1836C76.7318 38.0827 63.0761 11.8635 63.0761 11.8635V11.8635L63.6766 7.6426C63.6766 7.6426 61.2727 7.30937 58.7403 8.05783V8.05783C58.7403 8.05783 56.4017 6.55986 53.4783 8.05783V8.05783C53.4783 8.05783 51.0766 6.81004 48.2185 8.05783V8.05783C48.2185 8.05783 45.3604 6.727 43.4118 8.05783V8.05783C43.4118 8.05783 41.4497 7.34985 39.8734 7.34985V7.34985C39.6577 7.34985 39.4503 7.36231 39.2554 7.39242" fill="#ffffff"/></mask><g mask="url(#mask19_723_1694120ca224e-5504-4f2d-aa2a-a0794d04e00e)"><path id="Fill 114" fill-rule="evenodd" clip-rule="evenodd" d="M56.3782 13.784C57.7316 14.1909 58.8848 14.7681 60.0659 15.2726C60.46 15.4408 60.5658 15.3463 60.657 14.9954C60.9163 14.0071 61.189 13.022 61.4763 11.9642C62.084 12.4261 62.4885 13.0012 62.9136 13.5452C63.8605 14.7535 63.8511 14.765 64.9742 13.7808C65.4305 13.3812 65.8713 12.9649 66.3213 12.558C66.4271 12.4635 66.4997 12.2673 66.6822 12.3493C66.8285 12.4157 66.7631 12.5881 66.7642 12.7126C66.7725 13.6822 66.7808 14.6528 66.7756 15.6235C66.7714 16.4467 66.8751 16.6065 67.6239 16.891C68.1559 17.0934 68.6796 17.3166 69.2126 17.5159C69.5714 17.6498 69.5942 17.8024 69.3267 18.0765C68.8206 18.5945 68.2627 19.0523 67.6975 19.5007C67.3179 19.7997 67.2547 20.0333 67.6736 20.3894C68.5261 21.115 69.3319 21.8956 70.2009 22.695C69.4293 23.0448 68.637 23.0905 67.8665 23.1756C67.459 23.2213 67.0991 23.3811 66.7165 23.4777C66.3431 23.5732 66.367 23.9355 66.3566 24.2365C66.3172 25.3162 66.396 26.4041 66.0911 27.5242C65.1661 26.6989 64.2566 25.911 63.3762 25.0919C63.0661 24.8033 62.8566 24.8428 62.5507 25.093C61.7563 25.7438 61.0045 26.4363 60.2879 27.1712C60.1562 27.3072 60.0068 27.5003 59.8202 27.4526C59.5796 27.3903 59.6853 27.1287 59.6843 26.9584C59.6802 26.1041 59.6677 25.2476 59.7185 24.3954C59.7486 23.8784 59.5308 23.7092 59.0652 23.7113C58.305 23.7133 57.5449 23.7113 56.7858 23.7081C56.6396 23.7081 56.4653 23.7767 56.3679 23.6137C56.2579 23.4289 56.4612 23.349 56.5307 23.2317C56.8833 22.6431 57.2255 22.0493 57.6113 21.4845C57.8653 21.115 57.8 20.8731 57.4568 20.6292C56.6696 20.0686 55.8919 19.4935 55.1089 18.9256C54.9585 18.8177 54.7138 18.7533 54.7325 18.5415C54.7522 18.3173 55.0083 18.3194 55.1825 18.2623C55.8504 18.0433 56.5162 17.8211 57.2037 17.6654C57.7762 17.5377 57.8726 17.3581 57.6538 16.8131C57.2929 15.9141 56.9009 15.0276 56.5224 14.1359C56.4871 14.0539 56.4539 13.9698 56.3782 13.784" fill="#C2F5FF"/></g></g><g id="Group 119"><mask id="mask20_723_1694120ca224e-5504-4f2d-aa2a-a0794d04e00e" style="mask-type:luminance" maskUnits="userSpaceOnUse" x="32" y="7" width="56" height="109" fill="#ffffff"><path id="Clip 118" fill-rule="evenodd" clip-rule="evenodd" d="M39.2554 7.39242L39.6297 12.1645C39.6297 12.1645 39.554 12.2839 39.4234 12.5009V12.5009C39.4223 12.505 39.4203 12.5071 39.4192 12.5092V12.5092C38.8395 13.4715 37.1471 16.4083 35.5324 20.3811V20.3811L35.5303 20.3842C33.8555 24.5085 32.2668 29.7447 32.1081 35.0431V35.0431C31.8914 42.3305 38.0638 76.1164 38.0638 76.1164V76.1164C38.0638 76.1164 36.5197 81.2321 37.8709 90.0642V90.0642C37.8709 90.0642 36.1588 94.9142 38.1841 102.445V102.445C38.1841 102.445 36.9054 109.998 38.0638 115.403V115.403H51.9487L54.6492 78.2393L57.1557 50.8242L68.7757 73.2689C68.7757 73.2689 64.4854 77.2739 64.0032 86.1548V86.1548C64.0032 86.1548 59.181 90.5947 58.7475 98.3181V98.3181C58.7475 98.3181 55.3243 101.559 55.1791 107.975V107.975L67.0407 115.403C67.0407 115.403 85.0997 84.4014 86.8595 75.8745V75.8745C88.6173 67.3486 83.9641 56.2825 80.348 47.1836V47.1836C76.7318 38.0827 63.0761 11.8635 63.0761 11.8635V11.8635L63.6766 7.6426C63.6766 7.6426 61.2727 7.30937 58.7403 8.05783V8.05783C58.7403 8.05783 56.4017 6.55986 53.4783 8.05783V8.05783C53.4783 8.05783 51.0766 6.81004 48.2185 8.05783V8.05783C48.2185 8.05783 45.3604 6.727 43.4118 8.05783V8.05783C43.4118 8.05783 41.4497 7.34985 39.8734 7.34985V7.34985C39.6577 7.34985 39.4503 7.36231 39.2554 7.39242" fill="#ffffff"/></mask><g mask="url(#mask20_723_1694120ca224e-5504-4f2d-aa2a-a0794d04e00e)"><path id="Fill 117" fill-rule="evenodd" clip-rule="evenodd" d="M53.8414 12.1356C53.7419 12.4813 53.6506 12.8114 53.5521 13.1405C53.5002 13.3138 53.4359 13.483 53.381 13.6554C53.3167 13.8557 53.3364 13.8983 53.5334 13.9689C53.885 14.0945 54.2376 14.2159 54.5902 14.3384C54.6503 14.3602 54.7167 14.3654 54.7675 14.4298C54.6752 14.5263 54.5508 14.5751 54.4398 14.6405C54.1733 14.7973 53.9005 14.9436 53.6309 15.0952C53.4536 15.1938 53.4069 15.3007 53.494 15.4835C53.7076 15.9246 53.8425 16.397 54.0447 16.8434C54.0675 16.8932 54.0696 16.9441 54.0468 17.0084C53.7533 16.8755 53.4888 16.697 53.2109 16.5402C53.0284 16.4385 52.8479 16.3305 52.6623 16.2298C52.486 16.1343 52.402 16.1748 52.3512 16.3658C52.2309 16.8226 52.1562 17.2897 52.0142 17.7403C52.0007 17.7828 52.01 17.8503 51.9499 17.8513C51.8721 17.8513 51.9177 17.7808 51.9042 17.7434C51.7715 17.3562 51.6388 16.97 51.506 16.5838C51.4562 16.4406 51.4023 16.3004 51.3546 16.1561C51.3162 16.0409 51.2602 15.9869 51.1233 16.0108C50.7272 16.0804 50.3269 16.1343 49.9297 16.1925C49.8789 16.1997 49.827 16.2008 49.7462 16.208C49.909 15.9309 50.0593 15.6755 50.2087 15.4201C50.329 15.2146 50.441 15.0018 50.5727 14.8025C50.6515 14.682 50.6204 14.6083 50.5312 14.518C50.2564 14.2398 49.9868 13.9564 49.7182 13.672C49.6819 13.6336 49.5999 13.6024 49.6342 13.5391C49.6611 13.4882 49.7389 13.4997 49.797 13.4965C50.2336 13.4685 50.6702 13.4384 51.1078 13.4166C51.2499 13.4104 51.3276 13.3668 51.3525 13.21C51.4116 12.8353 51.4739 12.4605 51.5195 12.0837C51.533 11.9737 51.5153 11.8096 51.6263 11.7754C51.7435 11.739 51.787 11.9031 51.8513 11.9851C52.065 12.256 52.2599 12.5405 52.4881 12.8C52.5669 12.8872 52.626 12.8996 52.7256 12.8467C53.0574 12.6702 53.3405 12.4231 53.6506 12.2186C53.6983 12.1875 53.7356 12.1366 53.8414 12.1356" fill="#FF67FF"/></g></g><g id="Group 122"><mask id="mask21_723_1694120ca224e-5504-4f2d-aa2a-a0794d04e00e" style="mask-type:luminance" maskUnits="userSpaceOnUse" x="32" y="7" width="56" height="109" fill="#ffffff"><path id="Clip 121" fill-rule="evenodd" clip-rule="evenodd" d="M39.2554 7.39242L39.6297 12.1645C39.6297 12.1645 39.554 12.2839 39.4234 12.5009V12.5009C39.4223 12.505 39.4203 12.5071 39.4192 12.5092V12.5092C38.8395 13.4715 37.1471 16.4083 35.5324 20.3811V20.3811L35.5303 20.3842C33.8555 24.5085 32.2668 29.7447 32.1081 35.0431V35.0431C31.8914 42.3305 38.0638 76.1164 38.0638 76.1164V76.1164C38.0638 76.1164 36.5197 81.2321 37.8709 90.0642V90.0642C37.8709 90.0642 36.1588 94.9142 38.1841 102.445V102.445C38.1841 102.445 36.9054 109.998 38.0638 115.403V115.403H51.9487L54.6492 78.2393L57.1557 50.8242L68.7757 73.2689C68.7757 73.2689 64.4854 77.2739 64.0032 86.1548V86.1548C64.0032 86.1548 59.181 90.5947 58.7475 98.3181V98.3181C58.7475 98.3181 55.3243 101.559 55.1791 107.975V107.975L67.0407 115.403C67.0407 115.403 85.0997 84.4014 86.8595 75.8745V75.8745C88.6173 67.3486 83.9641 56.2825 80.348 47.1836V47.1836C76.7318 38.0827 63.0761 11.8635 63.0761 11.8635V11.8635L63.6766 7.6426C63.6766 7.6426 61.2727 7.30937 58.7403 8.05783V8.05783C58.7403 8.05783 56.4017 6.55986 53.4783 8.05783V8.05783C53.4783 8.05783 51.0766 6.81004 48.2185 8.05783V8.05783C48.2185 8.05783 45.3604 6.727 43.4118 8.05783V8.05783C43.4118 8.05783 41.4497 7.34985 39.8734 7.34985V7.34985C39.6577 7.34985 39.4503 7.36231 39.2554 7.39242" fill="#ffffff"/></mask><g mask="url(#mask21_723_1694120ca224e-5504-4f2d-aa2a-a0794d04e00e)"><path id="Fill 120" fill-rule="evenodd" clip-rule="evenodd" d="M45.8039 29.259C46.5765 29.3898 47.2028 29.6421 47.8054 29.9649C48.1631 30.1549 48.4151 30.1165 48.5645 29.6722C48.7957 28.9871 49.0726 28.3175 49.3371 27.6427C49.3993 27.4829 49.4283 27.2483 49.6067 27.2171C49.8193 27.1808 49.8379 27.4372 49.924 27.5753C50.3202 28.2043 50.7225 28.8313 51.0938 29.477C51.2888 29.8165 51.5397 29.7937 51.8425 29.7002C52.5166 29.4947 53.1907 29.2912 53.8668 29.0961C53.9923 29.0597 54.1499 28.9653 54.2536 29.067C54.3781 29.1916 54.2889 29.3629 54.2381 29.5051C54.0172 30.1331 53.7942 30.7591 53.564 31.384C53.3265 32.0308 53.3711 32.1709 54.0255 32.4585C54.7763 32.7896 55.5406 33.0927 56.2976 33.4104C56.3682 33.4395 56.4345 33.4779 56.6264 33.5744C55.6734 33.9824 54.8541 34.4433 54.0162 34.8606C53.3742 35.1814 53.0953 35.5727 53.2519 36.2963C53.3732 36.8641 53.4105 37.4517 53.5008 38.1462C52.5446 37.5908 51.6496 37.1226 50.8117 36.5672C50.3534 36.2641 50.0962 36.3492 49.7861 36.7364C49.3215 37.3167 48.8206 37.869 48.3301 38.4275C48.2461 38.523 48.1787 38.6953 48.0096 38.6216C47.8614 38.5573 47.8883 38.3984 47.8831 38.2614C47.851 37.4351 47.6529 36.6337 47.5295 35.8198C47.4611 35.3776 47.2329 35.1326 46.7496 35.116C45.948 35.0869 45.1474 35.0184 44.3479 34.9613C44.2224 34.952 44.0461 35.0111 44.0067 34.8243C43.9756 34.6789 44.1456 34.6582 44.2234 34.5803C44.9099 33.8858 45.5954 33.1903 46.2871 32.501C46.5184 32.2695 46.5391 32.0256 46.4873 31.7006C46.3566 30.8868 45.9314 30.157 45.8039 29.259" fill="#F28DFD"/></g></g><g id="Group 125"><mask id="mask22_723_1694120ca224e-5504-4f2d-aa2a-a0794d04e00e" style="mask-type:luminance" maskUnits="userSpaceOnUse" x="32" y="7" width="56" height="109" fill="#ffffff"><path id="Clip 124" fill-rule="evenodd" clip-rule="evenodd" d="M39.2554 7.39242L39.6297 12.1645C39.6297 12.1645 39.554 12.2839 39.4234 12.5009V12.5009C39.4223 12.505 39.4203 12.5071 39.4192 12.5092V12.5092C38.8395 13.4715 37.1471 16.4083 35.5324 20.3811V20.3811L35.5303 20.3842C33.8555 24.5085 32.2668 29.7447 32.1081 35.0431V35.0431C31.8914 42.3305 38.0638 76.1164 38.0638 76.1164V76.1164C38.0638 76.1164 36.5197 81.2321 37.8709 90.0642V90.0642C37.8709 90.0642 36.1588 94.9142 38.1841 102.445V102.445C38.1841 102.445 36.9054 109.998 38.0638 115.403V115.403H51.9487L54.6492 78.2393L57.1557 50.8242L68.7757 73.2689C68.7757 73.2689 64.4854 77.2739 64.0032 86.1548V86.1548C64.0032 86.1548 59.181 90.5947 58.7475 98.3181V98.3181C58.7475 98.3181 55.3243 101.559 55.1791 107.975V107.975L67.0407 115.403C67.0407 115.403 85.0997 84.4014 86.8595 75.8745V75.8745C88.6173 67.3486 83.9641 56.2825 80.348 47.1836V47.1836C76.7318 38.0827 63.0761 11.8635 63.0761 11.8635V11.8635L63.6766 7.6426C63.6766 7.6426 61.2727 7.30937 58.7403 8.05783V8.05783C58.7403 8.05783 56.4017 6.55986 53.4783 8.05783V8.05783C53.4783 8.05783 51.0766 6.81004 48.2185 8.05783V8.05783C48.2185 8.05783 45.3604 6.727 43.4118 8.05783V8.05783C43.4118 8.05783 41.4497 7.34985 39.8734 7.34985V7.34985C39.6577 7.34985 39.4503 7.36231 39.2554 7.39242" fill="#ffffff"/></mask><g mask="url(#mask22_723_1694120ca224e-5504-4f2d-aa2a-a0794d04e00e)"><path id="Fill 123" fill-rule="evenodd" clip-rule="evenodd" d="M50.535 21.1287C51.6218 21.0706 52.6444 22.1398 52.6993 23.3918C52.7574 24.7143 51.7898 25.7015 50.365 25.7732C49.247 25.8271 48.4775 25.0797 48.4236 23.8797C48.3614 22.5032 49.0852 21.0446 50.535 21.1287" fill="#F3D95A"/></g></g><g id="Group 128"><mask id="mask23_723_1694120ca224e-5504-4f2d-aa2a-a0794d04e00e" style="mask-type:luminance" maskUnits="userSpaceOnUse" x="32" y="7" width="56" height="109" fill="#ffffff"><path id="Clip 127" fill-rule="evenodd" clip-rule="evenodd" d="M39.2554 7.39242L39.6297 12.1645C39.6297 12.1645 39.554 12.2839 39.4234 12.5009V12.5009C39.4223 12.505 39.4203 12.5071 39.4192 12.5092V12.5092C38.8395 13.4715 37.1471 16.4083 35.5324 20.3811V20.3811L35.5303 20.3842C33.8555 24.5085 32.2668 29.7447 32.1081 35.0431V35.0431C31.8914 42.3305 38.0638 76.1164 38.0638 76.1164V76.1164C38.0638 76.1164 36.5197 81.2321 37.8709 90.0642V90.0642C37.8709 90.0642 36.1588 94.9142 38.1841 102.445V102.445C38.1841 102.445 36.9054 109.998 38.0638 115.403V115.403H51.9487L54.6492 78.2393L57.1557 50.8242L68.7757 73.2689C68.7757 73.2689 64.4854 77.2739 64.0032 86.1548V86.1548C64.0032 86.1548 59.181 90.5947 58.7475 98.3181V98.3181C58.7475 98.3181 55.3243 101.559 55.1791 107.975V107.975L67.0407 115.403C67.0407 115.403 85.0997 84.4014 86.8595 75.8745V75.8745C88.6173 67.3486 83.9641 56.2825 80.348 47.1836V47.1836C76.7318 38.0827 63.0761 11.8635 63.0761 11.8635V11.8635L63.6766 7.6426C63.6766 7.6426 61.2727 7.30937 58.7403 8.05783V8.05783C58.7403 8.05783 56.4017 6.55986 53.4783 8.05783V8.05783C53.4783 8.05783 51.0766 6.81004 48.2185 8.05783V8.05783C48.2185 8.05783 45.3604 6.727 43.4118 8.05783V8.05783C43.4118 8.05783 41.4497 7.34985 39.8734 7.34985V7.34985C39.6577 7.34985 39.4503 7.36231 39.2554 7.39242" fill="#ffffff"/></mask><g mask="url(#mask23_723_1694120ca224e-5504-4f2d-aa2a-a0794d04e00e)"><path id="Fill 126" fill-rule="evenodd" clip-rule="evenodd" d="M42.1153 13.0307C42.8972 13.9608 43.7953 14.6802 44.7338 15.3498C44.9319 15.491 44.992 15.5969 44.8054 15.8097C44.151 16.555 43.703 17.4229 43.3857 18.3561C43.2902 18.6364 43.1855 18.653 42.9843 18.4838C42.1153 17.7509 41.212 17.072 40.1895 16.5623C39.8462 16.3921 40.0402 16.1782 40.203 16.0017C40.9922 15.1422 41.5128 14.1114 42.1153 13.0307" fill="#FED21C"/></g></g><g id="Group 131"><mask id="mask24_723_1694120ca224e-5504-4f2d-aa2a-a0794d04e00e" style="mask-type:luminance" maskUnits="userSpaceOnUse" x="32" y="7" width="56" height="109" fill="#ffffff"><path id="Clip 130" fill-rule="evenodd" clip-rule="evenodd" d="M39.2554 7.39242L39.6297 12.1645C39.6297 12.1645 39.554 12.2839 39.4234 12.5009V12.5009C39.4223 12.505 39.4203 12.5071 39.4192 12.5092V12.5092C38.8395 13.4715 37.1471 16.4083 35.5324 20.3811V20.3811L35.5303 20.3842C33.8555 24.5085 32.2668 29.7447 32.1081 35.0431V35.0431C31.8914 42.3305 38.0638 76.1164 38.0638 76.1164V76.1164C38.0638 76.1164 36.5197 81.2321 37.8709 90.0642V90.0642C37.8709 90.0642 36.1588 94.9142 38.1841 102.445V102.445C38.1841 102.445 36.9054 109.998 38.0638 115.403V115.403H51.9487L54.6492 78.2393L57.1557 50.8242L68.7757 73.2689C68.7757 73.2689 64.4854 77.2739 64.0032 86.1548V86.1548C64.0032 86.1548 59.181 90.5947 58.7475 98.3181V98.3181C58.7475 98.3181 55.3243 101.559 55.1791 107.975V107.975L67.0407 115.403C67.0407 115.403 85.0997 84.4014 86.8595 75.8745V75.8745C88.6173 67.3486 83.9641 56.2825 80.348 47.1836V47.1836C76.7318 38.0827 63.0761 11.8635 63.0761 11.8635V11.8635L63.6766 7.6426C63.6766 7.6426 61.2727 7.30937 58.7403 8.05783V8.05783C58.7403 8.05783 56.4017 6.55986 53.4783 8.05783V8.05783C53.4783 8.05783 51.0766 6.81004 48.2185 8.05783V8.05783C48.2185 8.05783 45.3604 6.727 43.4118 8.05783V8.05783C43.4118 8.05783 41.4497 7.34985 39.8734 7.34985V7.34985C39.6577 7.34985 39.4503 7.36231 39.2554 7.39242" fill="#ffffff"/></mask><g mask="url(#mask24_723_1694120ca224e-5504-4f2d-aa2a-a0794d04e00e)"><path id="Fill 129" fill-rule="evenodd" clip-rule="evenodd" d="M60.4242 31.3667C60.8888 31.7778 61.2994 32.1671 61.8045 32.4214C61.9704 32.5055 61.876 32.5958 61.8159 32.6643C61.3917 33.1491 61.1563 33.7377 60.896 34.3149C60.8421 34.4343 60.7519 34.59 60.6337 34.3886C60.3568 33.9194 59.8725 33.6599 59.5282 33.2591C59.4131 33.1252 59.3654 33.0391 59.5033 32.9072C59.9389 32.493 60.2759 32.0155 60.4242 31.3667" fill="#C2F5FF"/></g></g><g id="Group 134"><mask id="mask25_723_1694120ca224e-5504-4f2d-aa2a-a0794d04e00e" style="mask-type:luminance" maskUnits="userSpaceOnUse" x="32" y="7" width="56" height="109" fill="#ffffff"><path id="Clip 133" fill-rule="evenodd" clip-rule="evenodd" d="M39.2554 7.39242L39.6297 12.1645C39.6297 12.1645 39.554 12.2839 39.4234 12.5009C39.4223 12.505 39.4203 12.5071 39.4192 12.5092C38.8395 13.4715 37.1471 16.4083 35.5324 20.3811C35.5324 20.3811 32.2668 29.7447 32.1081 35.0431C31.8914 42.3305 38.0638 76.1164 38.0638 76.1164C38.0638 76.1164 36.5197 81.2321 37.8709 90.0642C37.8709 90.0642 36.1588 94.9142 38.1841 102.445C38.1841 102.445 36.9054 109.998 38.0638 115.403H51.9487L54.6492 78.2393L57.1557 50.8242L68.7757 73.2689C68.7757 73.2689 64.4854 77.2739 64.0032 86.1548C64.0032 86.1548 59.181 90.5947 58.7475 98.3181C58.7475 98.3181 55.3243 101.559 55.1791 107.975L67.0407 115.403C67.0407 115.403 85.0997 84.4014 86.8595 75.8745C88.6173 67.3486 83.9641 56.2825 80.348 47.1836C76.7318 38.0827 63.0761 11.8635 63.0761 11.8635L63.6766 7.6426C63.6766 7.6426 61.2727 7.30937 58.7403 8.05783C58.7403 8.05783 56.4017 6.55986 53.4783 8.05783C53.4783 8.05783 51.0766 6.81004 48.2185 8.05783C48.2185 8.05783 45.3604 6.727 43.4118 8.05783C43.4118 8.05783 41.4497 7.34985 39.8734 7.34985C39.6577 7.34985 39.4503 7.36231 39.2554 7.39242L34.5678 26.0805" fill="#ffffff"/></mask><g mask="url(#mask25_723_1694120ca224e-5504-4f2d-aa2a-a0794d04e00e)"><path id="Fill 132" fill-rule="evenodd" clip-rule="evenodd" d="M46.9043 15.4546C47.2071 15.4473 47.567 15.8335 47.5763 16.1781C47.5856 16.5321 47.205 16.9017 46.8234 16.9089C46.4293 16.9172 46.1141 16.5799 46.1037 16.1376C46.0944 15.7463 46.4221 15.4681 46.9043 15.4546" fill="#FED21C"/></g></g><g id="Group 137"><mask id="mask26_723_1694120ca224e-5504-4f2d-aa2a-a0794d04e00e" style="mask-type:luminance" maskUnits="userSpaceOnUse" x="32" y="7" width="56" height="109" fill="#ffffff"><path id="Clip 136" fill-rule="evenodd" clip-rule="evenodd" d="M39.2554 7.39242L39.6297 12.1645C39.6297 12.1645 39.554 12.2839 39.4234 12.5009V12.5009C39.4223 12.505 39.4203 12.5071 39.4192 12.5092V12.5092C38.8395 13.4715 37.1471 16.4083 35.5324 20.3811V20.3811L35.5303 20.3842C33.8555 24.5085 32.2668 29.7447 32.1081 35.0431V35.0431C31.8914 42.3305 38.0638 76.1164 38.0638 76.1164V76.1164C38.0638 76.1164 36.5197 81.2321 37.8709 90.0642V90.0642C37.8709 90.0642 36.1588 94.9142 38.1841 102.445V102.445C38.1841 102.445 36.9054 109.998 38.0638 115.403V115.403H51.9487L54.6492 78.2393L57.1557 50.8242L68.7757 73.2689C68.7757 73.2689 64.4854 77.2739 64.0032 86.1548V86.1548C64.0032 86.1548 59.181 90.5947 58.7475 98.3181V98.3181C58.7475 98.3181 55.3243 101.559 55.1791 107.975V107.975L67.0407 115.403C67.0407 115.403 85.0997 84.4014 86.8595 75.8745V75.8745C88.6173 67.3486 83.9641 56.2825 80.348 47.1836V47.1836C76.7318 38.0827 63.0761 11.8635 63.0761 11.8635V11.8635L63.6766 7.6426C63.6766 7.6426 61.2727 7.30937 58.7403 8.05783V8.05783C58.7403 8.05783 56.4017 6.55986 53.4783 8.05783V8.05783C53.4783 8.05783 51.0766 6.81004 48.2185 8.05783V8.05783C48.2185 8.05783 45.3604 6.727 43.4118 8.05783V8.05783C43.4118 8.05783 41.4497 7.34985 39.8734 7.34985V7.34985C39.6577 7.34985 39.4503 7.36231 39.2554 7.39242" fill="#ffffff"/></mask><g mask="url(#mask26_723_1694120ca224e-5504-4f2d-aa2a-a0794d04e00e)"><path id="Fill 135" fill-rule="evenodd" clip-rule="evenodd" d="M66.7106 31.8158C66.694 31.3694 67.001 31.0507 67.4718 31.0227C68.0287 30.9895 68.4331 31.2988 68.4705 31.7847C68.5005 32.1854 68.0505 32.5695 67.5039 32.6058C67.142 32.6307 66.7251 32.2165 66.7106 31.8158" fill="#F3D95A"/></g></g></g></g></g></g><g id="Head" transform="translate(33 -1) scale(1 1)"><g id="Head/Wavy"><g id="Head"><path id="Fill 139" fill-rule="evenodd" clip-rule="evenodd" d="M47.7468 17.6529C47.3318 14.8619 46.0538 12.0779 43.7408 10.4509C43.3268 10.1589 42.8168 9.89786 42.3298 10.0399C40.8548 10.4709 42.1258 13.0909 41.0188 14.1559C39.0798 13.1309 37.1408 12.1059 35.2018 11.0819C33.8498 10.3669 32.0268 9.70686 30.9398 10.7819C29.8568 11.8539 30.4958 13.6699 31.1928 15.0219C29.4988 15.2189 27.8048 15.4179 26.1108 15.6149C24.2278 15.8349 22.2958 16.0689 20.6148 16.9429C18.9328 17.8159 17.5288 19.4819 17.5298 21.3729C17.5298 23.2629 19.3838 25.1009 21.2218 24.6369C18.6688 25.9419 16.2928 27.5909 14.1798 29.5269C12.4988 31.0669 10.8798 33.0749 11.0868 35.3419C11.2938 37.6089 14.4448 39.3709 15.9568 37.6659C13.1428 40.0129 11.1188 43.2849 10.2768 46.8449C9.87777 48.5309 9.78877 50.4629 10.8468 51.8379C12.2838 53.7049 15.2858 53.6519 17.2608 52.3629C19.2368 51.0749 20.4318 48.9149 21.5488 46.8399C23.0648 48.5549 24.1558 50.6109 25.6728 52.3249C27.1898 54.0399 29.3478 55.4449 31.6278 55.2009C33.2078 55.0309 34.6178 53.8009 35.0638 52.2889C35.5628 50.5969 35.0618 50.8659 36.7878 50.6229C38.3558 50.4009 39.6878 49.7429 41.0518 48.9619C41.5758 48.6619 42.1058 48.3559 42.5348 47.9309C44.5998 45.8809 43.6528 43.0599 43.6498 40.5309C43.6398 32.4899 48.9518 25.7639 47.7468 17.6529" fill="#2A0952"/><path id="Fill 141" fill-rule="evenodd" clip-rule="evenodd" d="M34.8378 22.9166C34.5388 22.9906 34.2278 23.0846 34.0088 23.3016C33.5478 23.7566 33.6798 24.5186 33.8448 25.1446C33.2388 24.8976 32.6328 24.6506 32.0278 24.4046C30.4068 23.7446 28.4758 23.1056 27.0018 24.0476C26.3528 24.4616 25.8798 25.2986 26.1888 26.0036C26.5988 26.9366 32.1298 25.9796 33.1348 25.8136C32.5498 26.2526 27.5858 27.3486 26.9078 27.6196C26.2298 27.8916 25.5438 28.3696 25.4058 29.0876C25.2428 29.9426 25.9698 30.7656 26.8008 31.0276C27.0148 31.0956 27.2498 31.1356 27.4628 31.0656C27.7078 30.9866 27.8848 30.7796 28.0488 30.5816C28.6668 29.8356 32.1578 26.9826 32.7758 26.2366C31.8678 28.4886 29.2548 30.9286 28.6298 32.8996C28.1588 34.3866 29.2848 37.8396 30.7428 38.3906C32.2008 38.9416 31.5848 37.1696 33.0288 36.5846C34.1138 36.1456 35.1378 35.5586 36.0648 34.8446C36.8088 34.2706 37.4958 33.6126 38.3168 33.1576C39.9068 32.2756 41.8578 32.2296 43.4428 31.3396C44.8278 30.5626 46.1478 29.0096 46.7848 27.5536C47.4878 25.9456 45.8208 25.0946 44.5698 24.3676C41.6688 22.6806 38.1058 22.1006 34.8378 22.9166" fill="#F376DA"/><path id="Fill 143" fill-rule="evenodd" clip-rule="evenodd" d="M33.5119 42.8023C33.5119 42.8023 30.4289 40.3563 30.7689 33.7793C31.1109 27.2003 36.1129 24.4053 38.7899 24.1233C41.4679 23.8423 46.9509 24.0593 50.0829 28.8623C50.0829 28.8623 53.5439 29.5113 54.3929 34.6583C55.2419 39.8063 49.3889 41.4583 49.3889 41.4583C49.3889 41.4583 48.5429 49.9293 44.3269 50.0163C40.1119 50.1033 33.5119 42.8023 33.5119 42.8023" fill="#2A0952"/><path id="Stroke 149" d="M46.1266 29.2116L46.3205 29.2895L46.2674 29.4087C46.2433 29.4596 46.2125 29.5213 46.1748 29.593C46.0499 29.8304 45.8908 30.0945 45.6942 30.3785C45.1339 31.1883 44.386 31.9974 43.4255 32.752C41.9204 33.9344 40.0368 34.8693 37.7336 35.4672L37.2674 35.5823L37.2197 35.3788C39.7066 34.7963 41.7149 33.8301 43.2964 32.5876C44.2399 31.8463 44.9736 31.0526 45.5224 30.2596C45.714 29.9827 45.8688 29.7258 45.9898 29.4957L46.0777 29.3211L46.1266 29.2116Z" fill="#4165E3"/><path id="Stroke 151" d="M42.0193 30.024L42.1722 30.1665L42.054 30.2876C41.9353 30.4049 41.7665 30.562 41.5499 30.7483C41.0455 31.1821 40.4612 31.6157 39.8036 32.0203C38.7536 32.6665 37.6215 33.1745 36.4188 33.495L35.9645 33.6063L35.9189 33.4023C37.2675 33.1008 38.5315 32.5578 39.6941 31.8423C40.3418 31.4437 40.9173 31.0167 41.4136 30.5898L41.6453 30.3855C41.7149 30.3225 41.7767 30.2649 41.8306 30.2133L42.0193 30.024Z" fill="#4165E3"/><path id="Stroke 153" d="M43.583 36.5402L43.7663 35.4891L44.1607 35.5528C44.445 35.5956 44.7705 35.6392 45.1299 35.6829C45.4613 35.7232 45.8089 35.7622 46.162 35.7993L47.4048 35.9201L47.3125 36.9831L46.5897 36.9153C46.2289 36.8798 45.8681 36.842 45.5176 36.8025L45.001 36.7421C44.5379 36.6857 44.1276 36.6294 43.7823 36.5736L43.583 36.5402Z" fill="#2A0952"/><path id="Fill 3" fill-rule="evenodd" clip-rule="evenodd" d="M43.8897 53.8614L43.6877 61.5304C43.6217 64.2234 41.9277 65.6234 39.2777 65.5384C37.0147 65.4654 34.9277 64.2284 34.7197 61.9744L35.6177 49.9214L43.8897 53.8614Z" fill="#b3b2e6"/><path id="Fill 6" fill-rule="evenodd" clip-rule="evenodd" d="M43.7642 57.6016C38.3972 57.607 34.9902 50.6016 34.9902 50.6016L43.9252 52.6084L43.7642 57.6016Z" fill="#00023C" fill-opacity="0.18"/><path id="Fill 155" fill-rule="evenodd" clip-rule="evenodd" d="M40.001 53.609V53.609C44.421 54.328 48.629 51.428 49.337 47.838L50.958 39.358C51.846 34.859 49.573 30.557 45.105 29.521V29.521C40.531 28.462 34.594 31.034 33.534 35.607L32.305 42.442C31.355 47.728 34.769 52.396 40.001 53.609" fill="#b3b2e6"/><path id="Fill 157" fill-rule="evenodd" clip-rule="evenodd" d="M28.151 42.9449C27.716 44.8199 28.884 46.6919 30.759 47.1269C32.634 47.5609 34.506 46.3929 34.941 44.5179C35.376 42.6429 34.208 40.7709 32.333 40.3369C30.458 39.9019 28.586 41.0699 28.151 42.9449" fill="#b3b2e6"/><path id="Fill 159" fill-rule="evenodd" clip-rule="evenodd" d="M32.499 45.0162C32.499 45.0162 33.069 42.5542 30.626 42.3962Z" fill="#00023C" fill-opacity="0.18"/><path id="Fill 189" fill-rule="evenodd" clip-rule="evenodd" d="M47.7481 35.2934C47.7931 36.5914 48.0581 37.8804 48.5291 39.0904C47.3151 38.8934 46.1011 38.6944 44.8871 38.4964C44.0441 38.3594 43.1311 38.1844 42.5681 37.5424C41.6651 36.5134 42.1201 34.8634 41.5381 33.6244C40.3531 35.1124 39.7141 37.0244 39.7651 38.9264C38.4241 39.1934 37.0411 38.9064 35.7051 38.6194C34.6121 38.3854 33.3601 38.0244 32.9281 36.9944C32.6611 36.3554 32.7941 35.6254 32.9641 34.9544C33.6611 32.2064 35.1091 29.4024 37.6931 28.2374C39.6611 27.3494 41.9611 27.5694 44.0341 28.1744C46.7771 28.9744 49.5131 30.6304 50.5011 33.3114C50.7531 33.9934 50.8811 34.7144 51.0071 35.4314C51.1941 36.4924 52.5931 40.7304 50.4151 39.3144C49.4601 38.6914 47.5441 36.5694 47.7481 35.2934" fill="#2A0952"/></g></g></g><g id="Expression" transform="translate(64 35) scale(1 1)"><g id="Expression/Blushing"><g id="Group 34"><path id="Fill 1" fill-rule="evenodd" clip-rule="evenodd" d="M12.505 9.0644C12.576 9.2104 12.652 9.3534 12.722 9.5004C12.744 9.5454 12.765 9.5924 12.786 9.6394C12.792 9.6524 12.831 9.7444 12.8 9.6714C12.809 9.6924 12.817 9.7124 12.826 9.7334C12.863 9.8284 12.898 9.9234 12.922 10.0224C12.928 10.0434 12.933 10.0654 12.938 10.0864C12.94 10.0964 12.953 10.1744 12.944 10.1194C12.937 10.0644 12.945 10.1354 12.945 10.1454C12.946 10.1634 12.943 10.1814 12.945 10.1994C12.947 10.2154 12.966 10.1224 12.946 10.1824C12.926 10.2454 12.966 10.1474 12.957 10.1664C12.926 10.2194 13.026 10.1004 12.961 10.1624C12.937 10.1844 12.915 10.2084 12.891 10.2294C12.876 10.2424 12.877 10.2414 12.896 10.2264C12.881 10.2374 12.866 10.2484 12.851 10.2574C12.824 10.2754 12.796 10.2924 12.767 10.3064C12.758 10.3114 12.674 10.3514 12.723 10.3304C12.693 10.3424 12.662 10.3544 12.63 10.3644C12.5 10.4094 12.365 10.4374 12.231 10.4614C12.081 10.4904 11.982 10.6794 12.027 10.8204C12.079 10.9804 12.225 11.0524 12.385 11.0234C12.711 10.9624 13.034 10.8674 13.292 10.6494C13.394 10.5624 13.48 10.4584 13.51 10.3254C13.538 10.2024 13.526 10.0824 13.504 9.9594C13.428 9.5384 13.192 9.1514 13.007 8.7714C12.94 8.6334 12.734 8.5854 12.609 8.6674C12.468 8.7574 12.433 8.9184 12.505 9.0644" fill="#00023C" fill-opacity="0.18"/><path id="Fill 3" fill-rule="evenodd" clip-rule="evenodd" d="M9.92512 6.7206C9.92512 6.7206 10.1811 7.8506 9.34512 7.5746C8.50812 7.2986 5.59912 6.4156 5.59912 6.4156C5.59912 6.4156 7.08012 4.0376 9.92512 6.7206" fill="#EFF2F9"/><path id="Fill 5" fill-rule="evenodd" clip-rule="evenodd" d="M10.2311 6.4042C10.2191 6.3742 10.2101 6.3422 10.1961 6.3112C9.42105 4.6262 7.11305 4.5642 5.69905 5.3962C5.58805 5.4622 5.46005 5.5302 5.33505 5.4972C5.24805 5.4732 5.18005 5.4052 5.11705 5.3392C4.90405 5.1142 4.62305 4.6442 4.25505 4.7522C4.06405 4.8082 4.03605 4.8812 4.00405 5.0192C3.95005 5.2532 4.45105 5.5492 4.58605 5.6742C4.86105 5.9272 5.12505 6.1772 5.44905 6.3802C5.49405 6.4072 5.54105 6.4342 5.59205 6.4422C5.67905 6.4542 5.76205 6.4092 5.83205 6.3572C6.21905 6.0712 6.44405 5.7342 6.92805 5.5652C7.18105 5.4762 7.53805 5.4162 7.78605 5.5472C7.69905 5.9892 7.29005 6.4872 7.06805 6.8882L9.60105 7.6732C9.60105 7.6732 10.5821 7.1992 10.2311 6.4042" fill="#2A0952"/><path id="Fill 7" fill-rule="evenodd" clip-rule="evenodd" d="M17.6476 8.4491L13.5806 8.0491C13.5806 8.0491 15.1466 5.9611 16.7216 6.5871C18.2966 7.2121 17.6476 8.4491 17.6476 8.4491" fill="#EFF2F9"/><g id="Group 11"><mask id="mask0_723_156814c64d16a-7d3f-4b5a-bcf0-40ae52b9563c" style="mask-type:luminance" maskUnits="userSpaceOnUse" x="13" y="6" width="7" height="3" fill="#ffffff"><path id="Clip 10" fill-rule="evenodd" clip-rule="evenodd" d="M13.1777 6.06192H19.4291V8.4493H13.1777V6.06192Z" fill="#ffffff"/></mask><g mask="url(#mask0_723_156814c64d16a-7d3f-4b5a-bcf0-40ae52b9563c)"><path id="Fill 9" fill-rule="evenodd" clip-rule="evenodd" d="M19.2513 6.6483C19.0823 6.5583 18.9233 6.6173 18.7823 6.7243C18.5483 6.9023 18.2513 7.2493 17.9743 7.0353C17.7183 6.8363 17.5823 6.5743 17.2693 6.4133C16.7153 6.1273 16.0433 6.0253 15.4253 6.0733C14.5523 6.1393 13.6223 6.5413 13.2403 7.3783C13.1663 7.5423 13.1483 7.7413 13.2393 7.8963C13.3303 8.0503 13.5483 8.1313 13.7003 8.0373C13.7673 7.9963 13.8133 7.9293 13.8563 7.8643C14.3023 7.2073 15.2733 6.4073 16.1303 6.7793C16.0013 7.2653 15.5853 7.7713 15.3503 8.2223L17.6473 8.4493C17.6473 8.4493 18.0463 8.1923 18.0823 7.7823C18.1313 7.7553 18.1803 7.7323 18.2313 7.7213C18.4753 7.4283 18.8903 7.4403 19.1623 7.1983C19.2513 7.1113 19.3403 7.0243 19.4293 6.9363C19.4263 6.8053 19.4143 6.7353 19.2513 6.6483" fill="#2A0952"/></g></g><path id="Fill 12" fill-rule="evenodd" clip-rule="evenodd" d="M9.54102 11.331C9.69702 11.434 9.88102 11.655 9.98202 11.735C10.417 12.079 10.909 12.362 11.449 12.505C11.85 12.611 12.27 12.636 12.681 12.582C12.881 12.556 13.08 12.511 13.272 12.446C13.418 12.398 13.608 12.308 13.762 12.304C13.836 12.302 13.914 12.328 13.963 12.384C14.019 12.446 14.066 12.519 14.1 12.595C14.105 12.75 14.03 12.873 13.941 12.991C13.718 13.099 13.455 13.109 13.211 13.142C12.938 13.176 12.665 13.204 12.39 13.224C12.208 13.237 12.025 13.247 11.843 13.238C11.33 13.212 10.782 13.045 10.321 12.818C10.109 12.715 9.91102 12.556 9.72102 12.415C9.62202 12.341 9.52402 12.265 9.42902 12.185C9.35902 12.127 9.18302 12.019 9.15202 11.935C9.12502 11.865 9.10002 11.795 9.07302 11.726C9.06202 11.695 9.17502 11.493 9.19402 11.458C9.23502 11.384 9.29702 11.286 9.39202 11.277C9.43502 11.272 9.48602 11.295 9.54102 11.331" fill="#2A0952"/><path id="Fill 14" fill-rule="evenodd" clip-rule="evenodd" d="M8.70975 4.162C9.45375 4.062 9.44575 2.962 8.70275 2.85C8.05675 2.754 7.23275 2.755 6.74675 3.235C5.85575 4.113 7.88975 4.253 8.68675 4.165C8.69375 4.164 8.70175 4.164 8.70975 4.162" fill="#2A0952"/><path id="Fill 16" fill-rule="evenodd" clip-rule="evenodd" d="M16.236 5.1083C15.654 4.8713 15.893 3.9803 16.518 4.0463C17.063 4.1043 17.73 4.2793 18.024 4.7703C18.56 5.6703 16.882 5.3543 16.255 5.1163C16.249 5.1133 16.242 5.1113 16.236 5.1083" fill="#2A0952"/><path id="Fill 18" fill-rule="evenodd" clip-rule="evenodd" d="M8.28715 10.0898C8.02715 10.4538 7.61815 10.7068 7.18015 10.8118C6.67415 10.9318 6.13715 10.8668 5.64815 10.6918C5.32815 10.5758 5.01815 10.4078 4.79515 10.1518C4.40915 9.7098 4.38315 8.8958 4.51215 8.3468C4.58915 8.0178 4.78015 7.7028 5.07415 7.5358C5.50615 7.2908 5.97615 7.2728 6.45015 7.3598C6.86915 7.4378 7.29315 7.5268 7.66715 7.7308C8.41215 8.1388 8.81015 9.1358 8.39615 9.9138C8.36415 9.9758 8.32715 10.0338 8.28715 10.0898" fill="#FF37B8" fill-opacity="0.5"/><path id="Fill 20" fill-rule="evenodd" clip-rule="evenodd" d="M5.19178 9.4374C5.14078 9.4374 5.08878 9.4214 5.04478 9.3894C4.93278 9.3074 4.90878 9.1514 4.98978 9.0404L5.64678 8.1404C5.72878 8.0294 5.88578 8.0054 5.99578 8.0854C6.10778 8.1674 6.13178 8.3244 6.05078 8.4354L5.39378 9.3344C5.34478 9.4024 5.26878 9.4374 5.19178 9.4374" fill="#FFD0F6"/><path id="Fill 22" fill-rule="evenodd" clip-rule="evenodd" d="M7.09498 10.1884H7.08098C6.94298 10.1804 6.83798 10.0624 6.84498 9.9244L6.90798 8.8124C6.91498 8.6744 7.02698 8.5884 7.17098 8.5764C7.30898 8.5844 7.41398 8.7024 7.40698 8.8394L7.34498 9.9524C7.33698 10.0854 7.22698 10.1884 7.09498 10.1884" fill="#FFD0F6"/><path id="Fill 24" fill-rule="evenodd" clip-rule="evenodd" d="M5.97134 9.9071C5.93234 9.9071 5.89334 9.8981 5.85734 9.8801C5.73434 9.8161 5.68534 9.6661 5.74934 9.5431L6.32934 8.4131C6.39134 8.2901 6.54333 8.2421 6.66533 8.3041C6.78834 8.3681 6.83733 8.5181 6.77333 8.6411L6.19334 9.7711C6.14934 9.8571 6.06134 9.9071 5.97134 9.9071" fill="#FFD0F6"/><path id="Fill 26" fill-rule="evenodd" clip-rule="evenodd" d="M14.9899 11.2167C15.2079 11.5227 15.5509 11.7347 15.9179 11.8207C16.3409 11.9217 16.7909 11.8677 17.2009 11.7207C17.4689 11.6237 17.7289 11.4847 17.9159 11.2697C18.2389 10.8987 18.2609 10.2167 18.1529 9.7567C18.0879 9.4807 17.9279 9.2177 17.6819 9.0777C17.3199 8.8717 16.9259 8.8567 16.5289 8.9297C16.1779 8.9947 15.8229 9.0697 15.5099 9.2397C14.8849 9.5817 14.5519 10.4167 14.8989 11.0697C14.9259 11.1207 14.9559 11.1697 14.9899 11.2167" fill="#FF37B8" fill-opacity="0.5"/><path id="Fill 28" fill-rule="evenodd" clip-rule="evenodd" d="M17.5839 10.7108C17.5069 10.7108 17.4309 10.6758 17.3819 10.6078L16.8319 9.8548C16.7499 9.7428 16.7739 9.5868 16.8859 9.5048C16.9959 9.4248 17.1529 9.4458 17.2349 9.5598L17.7859 10.3138C17.8669 10.4248 17.8429 10.5808 17.7309 10.6628C17.6869 10.6948 17.6349 10.7108 17.5839 10.7108" fill="#FFD0F6"/><path id="Fill 30" fill-rule="evenodd" clip-rule="evenodd" d="M15.9889 11.3398C15.8569 11.3398 15.7469 11.2368 15.7389 11.1038L15.6869 10.1718C15.6789 10.0338 15.7849 9.9158 15.9229 9.9078C16.0789 9.9218 16.1789 10.0068 16.1859 10.1448L16.2389 11.0758C16.2459 11.2138 16.1409 11.3318 16.0029 11.3398H15.9889Z" fill="#FFD0F6"/><path id="Fill 32" fill-rule="evenodd" clip-rule="evenodd" d="M16.9298 11.1044C16.8398 11.1044 16.7518 11.0544 16.7078 10.9684L16.2218 10.0224C16.1588 9.8994 16.2068 9.7494 16.3298 9.6854C16.4538 9.6244 16.6038 9.6714 16.6658 9.7934L17.1518 10.7404C17.2158 10.8634 17.1668 11.0134 17.0438 11.0774C17.0078 11.0954 16.9688 11.1044 16.9298 11.1044" fill="#FFD0F6"/></g></g></g><g id="Upper Body" transform="translate(7 0) scale(1 1)"><g id="Upper Body/Holding Laptop 1"><g id="Upper"><path id="Path" fill-rule="evenodd" clip-rule="evenodd" d="M48.5742 106.573V111.825L58.8444 109.971L59.5742 103.038L48.5742 106.573Z" fill="#974CCD"/><path id="Fill 191" fill-rule="evenodd" clip-rule="evenodd" d="M99.5879 74.824C99.5879 74.824 106.101 76.261 110.604 80.586L102.198 78.585L99.5879 74.824Z" fill="#C4B8EE"/><path id="Fill 193" fill-rule="evenodd" clip-rule="evenodd" d="M79.7684 86.0242C79.0314 84.4682 77.7144 82.5912 78.2764 80.8932C78.7514 79.4572 80.1704 78.2842 81.4494 77.5862C82.6044 76.9542 83.9024 76.5392 85.2194 76.5622C88.4154 76.6212 88.8144 78.7092 89.9974 81.1402C90.4834 82.1402 90.9874 83.0932 91.5214 83.9272C92.0524 84.7572 92.6034 85.4842 93.0944 85.9692C93.3364 86.2122 93.5604 86.3882 93.7244 86.5092C93.8904 86.6272 93.9944 86.6752 94.0394 86.7002C94.0614 86.7112 94.0724 86.7182 94.1074 86.7412L94.0594 86.7442L93.9634 86.7502C93.6984 86.7742 93.5114 86.8092 93.3394 86.8522C93.2644 86.8712 93.1924 86.8912 93.1264 86.9132C93.0724 86.9292 93.0084 86.9542 92.9644 86.9692C92.7774 87.0432 92.6904 87.0942 92.6434 87.1242C92.5974 87.1532 92.5994 87.1582 92.6174 87.1492C92.6374 87.1392 92.6754 87.1182 92.7274 87.0812C92.9384 86.9352 93.2864 86.6382 93.6414 86.3052C93.9994 85.9662 95.3774 87.5772 95.7584 87.1652C96.5304 86.3442 97.3064 85.4292 98.0884 84.4972C101.208 80.7392 106.499 70.6502 106.499 70.6502L113.206 74.6162C113.065 74.9472 112.935 75.2442 112.797 75.5532C112.66 75.8602 112.525 76.1672 112.383 76.4682C112.103 77.0752 111.814 77.6742 111.519 78.2732C110.93 79.4682 110.313 80.6492 109.673 81.8232C108.389 84.1692 107.012 86.4742 105.467 88.7592C104.694 89.9072 103.87 91.0382 102.954 92.1902C102.49 92.7632 102 93.3392 101.453 93.9302C100.899 94.5242 100.305 95.1252 99.4914 95.7782C99.2894 95.9412 99.0644 96.1102 98.8154 96.2832C98.5654 96.4572 98.2934 96.6342 97.9614 96.8202C97.6304 97.0042 97.2494 97.1972 96.7574 97.3802C96.6384 97.4262 96.4964 97.4732 96.3644 97.5152C96.2214 97.5592 96.0714 97.6012 95.9174 97.6402C95.5874 97.7182 95.2414 97.7852 94.8134 97.8192L94.6574 97.8302L94.5454 97.8362L94.4274 97.8402L94.1884 97.8462C94.0304 97.8522 93.8704 97.8462 93.7104 97.8442C93.3914 97.8362 93.0714 97.8142 92.7534 97.7782C92.1174 97.7072 91.4894 97.5812 90.8904 97.4102C89.6884 97.0672 88.6114 96.5492 87.6844 95.9692C86.7544 95.3882 85.9694 94.7392 85.2754 94.0832C83.8984 92.7612 82.8714 91.4052 81.9974 90.0552C81.1254 88.7052 80.4024 87.3652 79.7684 86.0242" fill="#9287C0"/><path id="Fill 195" fill-rule="evenodd" clip-rule="evenodd" d="M106.511 75.7449C107.495 77.0709 109.166 77.6899 110.795 77.4219C111.571 77.2939 112.47 77.0459 113.381 76.5829C114.012 76.2619 114.792 75.6889 115.342 75.7499C116.708 75.8979 117.206 74.9549 117.553 74.8679C117.876 75.0239 118.332 75.1609 118.891 75.0989C119.602 75.0229 120.192 74.7639 120.537 74.5759H120.539C121.898 74.5589 123.084 74.6109 123.467 74.3439C124.233 73.8109 124.978 68.5839 123.673 68.3679C121.945 68.0829 122.823 71.9369 121.245 72.6669C121.245 72.6669 122.432 67.7939 120.487 67.4339C119.159 67.1889 118.947 72.0479 117.535 72.9279C117.535 72.9279 118.873 68.4139 117.438 67.6899C116.003 66.9659 116.007 72.4079 114.542 72.5489C114.243 72.5759 115.73 68.6939 114.01 68.4839C112.29 68.2749 113.251 72.9139 108.166 72.8089C106.106 72.7669 105.27 74.0709 106.511 75.7449" fill="#9287C0"/><path id="Fill 197" fill-rule="evenodd" clip-rule="evenodd" d="M89.6927 73.3719H126.889C127.841 73.3719 128.613 72.6009 128.613 71.6479C128.613 70.6959 127.841 69.9239 126.889 69.9239H89.6927C88.7407 69.9239 87.9688 70.6959 87.9688 71.6479C87.9688 72.6009 88.7407 73.3719 89.6927 73.3719" fill="#8A60E2"/><path id="Fill 199" fill-rule="evenodd" clip-rule="evenodd" d="M99.0442 73.3719H127.213C127.879 73.3719 128.484 72.9839 128.761 72.3789L136.462 55.5609C136.979 54.4349 136.155 53.1509 134.915 53.1509H106.745C106.079 53.1509 105.475 53.5389 105.197 54.1439L97.4962 70.9609C96.9802 72.0889 97.8042 73.3719 99.0442 73.3719" fill="#432C82"/><path id="Fill 201" fill-rule="evenodd" clip-rule="evenodd" d="M118.852 60.2332C119.421 61.4042 120.165 62.3862 120.964 63.3282C121.132 63.5262 121.168 63.6512 120.917 63.8232C120.043 64.4242 119.35 65.2092 118.776 66.0932C118.603 66.3592 118.49 66.3482 118.325 66.1202C117.615 65.1312 116.854 64.1902 115.925 63.3932C115.614 63.1262 115.872 62.9552 116.086 62.8142C117.131 62.1292 117.943 61.1962 118.852 60.2332" fill="#FF67FF"/><path id="Fill 203" fill-rule="evenodd" clip-rule="evenodd" d="M69.752 57.4827C77.1335 58.439 80.4899 64.1925 83.1281 67.5025C85.8211 70.8835 96.6421 85.1675 96.6421 85.1675C96.6421 85.1675 98.0421 81.5755 100.259 76.0305L109.658 80.4605C108.983 84.7205 108.24 89.4235 107.899 91.6575C107.195 96.2665 105.32 105.725 97.2691 105.725C95.1901 105.725 80.1341 90.4275 80.1341 90.4275V109.825H76.0936L73.5381 77.2335C73.5381 77.2335 69.5959 57.4625 69.752 57.4827Z" fill="#974CCD"/><path id="Fill 205" fill-rule="evenodd" clip-rule="evenodd" d="M57.5137 57.4286L58.8457 109.971L76.0937 109.825C76.0937 109.825 77.8867 81.6936 76.2087 74.3316C74.3617 66.2276 70.9437 57.6876 70.9437 57.6876L69.7396 57.4285C69.3606 59.6925 64.2897 62.2276 60.4207 56.5496L57.5137 57.4286Z" fill="#FFB700"/><path id="Fill 207" fill-rule="evenodd" clip-rule="evenodd" d="M59.5742 94.8992H77.3612C77.3652 95.2762 77.3652 95.6372 77.3612 95.9802H59.6542L59.5742 94.8992Z" fill="#EFF2F9"/><path id="Fill 209" fill-rule="evenodd" clip-rule="evenodd" d="M59.7944 56.7391C59.7944 56.7391 51.6644 58.9161 48.4864 61.6211C45.3084 64.3251 38.2184 80.3011 35.6394 87.0441C31.9554 96.6781 29.9604 111.655 43.0774 109.356C56.1944 107.057 58.2864 106.382 58.2864 106.382V99.8231L63.1584 97.7261L63.8354 77.3071L59.7944 56.7391Z" fill="#974CCD"/><path id="Fill 211" fill-rule="evenodd" clip-rule="evenodd" d="M60.7083 92.7234C60.7083 92.7234 62.8223 99.0484 61.4233 105.133L58.8223 96.8944L60.7083 92.7234Z" fill="#C4B8EE"/><path id="Fill 213" fill-rule="evenodd" clip-rule="evenodd" d="M71.7853 95.1287C70.9983 92.5607 68.2793 91.1147 65.7103 91.9017L65.5713 91.9447L62.3683 92.9267C61.2893 93.2557 60.2103 93.5767 59.1313 93.8867C58.5303 94.0647 57.9313 94.2247 57.3313 94.3927C57.0203 98.1767 56.9313 102.013 57.5083 105.751C58.0773 105.556 58.6563 105.369 59.2163 105.167C60.3553 104.747 61.4823 104.31 62.5973 103.864C63.7113 103.413 64.8153 102.95 65.9133 102.471L67.5543 101.735L69.2093 100.954C71.3653 99.9397 72.5043 97.4707 71.7853 95.1287" fill="#b3b2e6"/><path id="Fill 215" fill-rule="evenodd" clip-rule="evenodd" d="M66.1108 94.2225C66.1108 94.2225 65.9538 92.2125 67.3428 91.1955C68.7328 90.1775 72.8748 87.5325 73.7758 86.7115C74.6758 85.8915 75.5508 87.4725 74.4508 88.9525C73.3508 90.4335 72.5438 91.3635 72.5438 91.3635C72.5438 91.3635 76.0068 88.9825 77.6668 88.0335C79.3258 87.0835 81.4288 85.4515 82.0658 85.9095C82.7018 86.3665 81.5188 88.2485 77.0088 91.0005C77.0088 91.0005 82.5108 88.7535 83.3848 88.6635C84.3328 88.5655 84.6568 89.4195 82.3188 90.8445C79.9798 92.2695 77.5548 93.4555 77.5548 93.4555C77.5548 93.4555 78.6298 92.8825 79.4398 93.5855C80.2508 94.2895 78.7548 95.4465 78.7548 95.4465C78.7548 95.4465 80.6058 96.2925 78.4388 97.7125C76.2718 99.1315 69.9968 100.597 68.4068 99.8565C66.8178 99.1145 66.1108 94.2225 66.1108 94.2225" fill="#b3b2e6"/><path id="Fill 217" fill-rule="evenodd" clip-rule="evenodd" d="M57.5127 103.727L55.0307 103.998C54.7277 100.196 55.2087 96.1973 55.4547 94.5113C55.5277 94.0173 55.9057 93.6263 56.3967 93.5343L60.7077 92.7233C60.4787 98.2753 61.1007 103.089 61.4227 105.133C61.5147 105.722 61.1337 106.28 60.5517 106.406L56.6437 107.251C56.0507 107.379 55.4567 107.001 55.3437 106.406C55.2417 105.871 55.1617 105.32 55.1007 104.761L57.5127 103.727Z" fill="#EA9800"/><path id="Fill 219" fill-rule="evenodd" clip-rule="evenodd" d="M107.388 83.2176L106.346 85.4876C102.928 83.7926 99.7431 81.3256 98.4241 80.2496C98.0371 79.9336 97.8961 79.4076 98.0691 78.9396L99.5881 74.8236C104.233 77.8726 108.684 79.8126 110.603 80.5856C111.156 80.8086 111.439 81.4226 111.247 81.9866L109.965 85.7746C109.77 86.3486 109.141 86.6636 108.572 86.4546C108.061 86.2686 107.547 86.0526 107.036 85.8186L107.388 83.2176Z" fill="#EA9800"/></g></g></g></g></svg>